<svg width="64" height="64" viewBox="0 0 64 64" fill="none" xmlns="http://www.w3.org/2000/svg">
<g clip-path="url(#clip0_4036_7590)">
<path d="M62.8128 39.5643C62.5404 39.462 62.2446 39.4391 61.9597 39.4981C61.6747 39.5572 61.4124 39.6959 61.2032 39.8981C58.3104 42.6053 55.3813 43.3317 52.2805 44.1008C50.441 44.4947 48.6486 45.0829 46.9333 45.8555V8.53388C46.9333 7.40229 46.4838 6.31705 45.6837 5.51689C44.8835 4.71674 43.7983 4.26721 42.6667 4.26721H32.7701C32.5844 3.94397 32.3169 3.67526 31.9945 3.48804C31.6721 3.30082 31.3061 3.20167 30.9333 3.20055H28.3541C27.9389 2.2498 27.2553 1.44081 26.3872 0.872679C25.5191 0.304551 24.5042 0.00195312 23.4667 0.00195313C22.4292 0.00195312 21.4142 0.304551 20.5461 0.872679C19.678 1.44081 18.9945 2.2498 18.5792 3.20055H16C15.6272 3.20167 15.2612 3.30082 14.9388 3.48804C14.6164 3.67526 14.349 3.94397 14.1632 4.26721H4.26667C3.13508 4.26721 2.04983 4.71674 1.24968 5.51689C0.449523 6.31705 0 7.40229 0 8.53388L0 56.5339C0 57.6655 0.449523 58.7507 1.24968 59.5509C2.04983 60.351 3.13508 60.8005 4.26667 60.8005H34.368C35.2369 61.6994 36.2366 62.4617 37.3333 63.0619C38.4876 63.6854 39.7804 64.0082 41.0923 64.0005C42.7821 64.0008 44.4324 63.4895 45.8261 62.5339C46.5111 62.9683 47.2493 63.3124 48.0224 63.5579C48.9469 63.8497 49.9105 63.999 50.88 64.0005C52.4113 64.0072 53.9181 63.6165 55.2533 62.8667C57.4532 61.6136 59.3032 59.8281 60.6336 57.6741C60.7081 57.5555 60.7585 57.4233 60.782 57.2852C60.8054 57.1471 60.8014 57.0057 60.7702 56.8691C60.739 56.7325 60.6812 56.6034 60.6002 56.4891C60.5191 56.3749 60.4162 56.2777 60.2976 56.2032C60.179 56.1287 60.0468 56.0783 59.9087 56.0548C59.7705 56.0314 59.6291 56.0354 59.4925 56.0666C59.356 56.0978 59.2269 56.1556 59.1126 56.2367C58.9983 56.3178 58.9012 56.4206 58.8267 56.5392C57.6848 58.3944 56.0951 59.933 54.2037 61.0139C53.3568 61.4646 52.4284 61.7417 51.4729 61.8289C50.5175 61.9161 49.5543 61.8116 48.6397 61.5216C47.7252 61.2316 46.8778 60.7619 46.1472 60.1401C45.4166 59.5182 44.8175 58.7567 44.3851 57.9003C43.6287 56.1163 43.5425 54.1192 44.1423 52.2767C44.7421 50.4342 45.9875 48.8705 47.6491 47.8736C49.2923 47.1096 51.0187 46.5391 52.7936 46.1733C56.0737 45.5799 59.1663 44.2171 61.8176 42.1968C62.0453 45.8442 61.601 49.5025 60.5067 52.9893C60.423 53.2545 60.4461 53.5418 60.5711 53.7901C60.6962 54.0384 60.9132 54.2281 61.176 54.3188C61.4388 54.4094 61.7267 54.3939 61.9782 54.2755C62.2297 54.1571 62.4251 53.9451 62.5227 53.6848C63.8172 49.584 64.2764 45.2653 63.8731 40.984C63.8483 40.6714 63.7356 40.3723 63.5479 40.1211C63.3603 39.8698 63.1055 39.6768 62.8128 39.5643ZM44.8 8.53388V47.3104C44.386 47.6982 44.0079 48.1227 43.6704 48.5787C43.3362 48.4485 43.0016 48.3298 42.6667 48.2224V10.6672C42.6667 10.1014 42.4419 9.5588 42.0418 9.15872C41.6418 8.75864 41.0991 8.53388 40.5333 8.53388H33.0667V6.40055H42.6667C43.2325 6.40055 43.7751 6.62531 44.1752 7.02539C44.5752 7.42546 44.8 7.96809 44.8 8.53388ZM16 5.33388H19.3387C19.5757 5.33388 19.806 5.25492 19.9932 5.10947C20.1803 4.96402 20.3137 4.76037 20.3723 4.53068C20.553 3.84821 20.9544 3.24467 21.5139 2.81408C22.0734 2.38348 22.7596 2.15 23.4656 2.15C24.1716 2.15 24.8578 2.38348 25.4173 2.81408C25.9768 3.24467 26.3782 3.84821 26.5589 4.53068C26.6176 4.76073 26.7513 4.96464 26.9389 5.11013C27.1265 5.25561 27.3573 5.33435 27.5947 5.33388H30.9333V9.60055H16V5.33388ZM30.9333 11.7339C31.3061 11.7328 31.6721 11.6336 31.9945 11.4464C32.3169 11.2592 32.5844 10.9905 32.7701 10.6672H40.5333V47.6315C40.3296 47.5824 40.1248 47.5312 39.9221 47.4832C37.3333 46.8656 34.8875 46.2811 32.4981 44.1339C32.293 43.9435 32.0383 43.815 31.7634 43.7631C31.4884 43.7112 31.2044 43.738 30.944 43.8405C30.6762 43.9444 30.4432 44.1219 30.272 44.3526C30.1008 44.5832 29.9984 44.8576 29.9765 45.144C29.6961 48.2531 29.9699 51.3872 30.7851 54.4005H6.4V10.6672H14.1632C14.349 10.9905 14.6164 11.2592 14.9388 11.4464C15.2612 11.6336 15.6272 11.7328 16 11.7339H30.9333ZM4.26667 58.6672C3.70087 58.6672 3.15825 58.4425 2.75817 58.0424C2.35809 57.6423 2.13333 57.0997 2.13333 56.5339V8.53388C2.13333 7.96809 2.35809 7.42546 2.75817 7.02539C3.15825 6.62531 3.70087 6.40055 4.26667 6.40055H13.8667V8.53388H6.4C5.83421 8.53388 5.29158 8.75864 4.89151 9.15872C4.49143 9.5588 4.26667 10.1014 4.26667 10.6672V54.4005C4.26667 54.9663 4.49143 55.509 4.89151 55.909C5.29158 56.3091 5.83421 56.5339 6.4 56.5339H31.5435C31.8614 57.2737 32.2377 57.9871 32.6688 58.6672H4.26667ZM44.0533 61.1067C43.1822 61.5826 42.2082 61.8389 41.2156 61.8534C40.2231 61.8679 39.242 61.6402 38.3573 61.1899C32.32 57.9045 31.872 50.1605 32.0235 46.5072C34.2405 48.0504 36.7669 49.0924 39.4272 49.5611C40.4935 49.7933 41.5456 50.0868 42.5781 50.44C41.9595 51.7465 41.6288 53.1706 41.6083 54.6159C41.5879 56.0613 41.8783 57.4942 42.4597 58.8176C42.866 59.6604 43.404 60.4331 44.0533 61.1067Z" fill="#276749"/>
<path d="M10.3541 18.4461C10.1529 18.2518 9.88346 18.1443 9.60378 18.1467C9.32411 18.1491 9.05657 18.2613 8.85881 18.4591C8.66104 18.6568 8.54886 18.9244 8.54643 19.204C8.544 19.4837 8.65151 19.7532 8.84581 19.9543L10.9791 22.0877C11.1791 22.2877 11.4504 22.4001 11.7333 22.4002H11.8399C11.9969 22.3846 12.1484 22.3345 12.2836 22.2533C12.4188 22.1721 12.5343 22.062 12.6218 21.9309L16.8885 15.5309C16.9662 15.4143 17.0202 15.2836 17.0475 15.1462C17.0747 15.0088 17.0746 14.8673 17.0472 14.7299C17.0197 14.5926 16.9655 14.4619 16.8876 14.3455C16.8096 14.2291 16.7096 14.1291 16.593 14.0514C16.4765 13.9737 16.3458 13.9196 16.2083 13.8924C16.0709 13.8652 15.9295 13.8653 15.7921 13.8927C15.6547 13.9202 15.5241 13.9744 15.4076 14.0523C15.2912 14.1302 15.1913 14.2303 15.1135 14.3469L11.569 19.6653L10.3541 18.4461Z" fill="#276749"/>
<path d="M20.2666 17.0669H36.2666C36.5495 17.0669 36.8208 16.9545 37.0209 16.7545C37.2209 16.5545 37.3333 16.2832 37.3333 16.0003C37.3333 15.7174 37.2209 15.4461 37.0209 15.246C36.8208 15.046 36.5495 14.9336 36.2666 14.9336H20.2666C19.9837 14.9336 19.7124 15.046 19.5124 15.246C19.3123 15.4461 19.2 15.7174 19.2 16.0003C19.2 16.2832 19.3123 16.5545 19.5124 16.7545C19.7124 16.9545 19.9837 17.0669 20.2666 17.0669Z" fill="#276749"/>
<path d="M20.2666 21.3335H32C32.2828 21.3335 32.5542 21.2211 32.7542 21.0211C32.9542 20.8211 33.0666 20.5498 33.0666 20.2669C33.0666 19.984 32.9542 19.7127 32.7542 19.5126C32.5542 19.3126 32.2828 19.2002 32 19.2002H20.2666C19.9837 19.2002 19.7124 19.3126 19.5124 19.5126C19.3123 19.7127 19.2 19.984 19.2 20.2669C19.2 20.5498 19.3123 20.8211 19.5124 21.0211C19.7124 21.2211 19.9837 21.3335 20.2666 21.3335Z" fill="#276749"/>
<path d="M15.1125 23.9421L11.5679 29.2605L10.3541 28.0467C10.1529 27.8524 9.88346 27.7448 9.60378 27.7473C9.32411 27.7497 9.05657 27.8619 8.85881 28.0597C8.66104 28.2574 8.54886 28.525 8.54643 28.8046C8.544 29.0843 8.65151 29.3538 8.84581 29.5549L10.9791 31.6883C11.1791 31.8883 11.4504 32.0007 11.7333 32.0008H11.8399C11.9969 31.9852 12.1484 31.935 12.2836 31.8539C12.4188 31.7727 12.5343 31.6626 12.6218 31.5315L16.8885 25.1315C17.0455 24.8961 17.1026 24.608 17.0472 24.3305C16.9917 24.0531 16.8284 23.809 16.593 23.652C16.3576 23.495 16.0695 23.4379 15.7921 23.4933C15.5146 23.5487 15.2706 23.7121 15.1135 23.9475L15.1125 23.9421Z" fill="#276749"/>
<path d="M20.2666 26.6675H36.2666C36.5495 26.6675 36.8208 26.5551 37.0209 26.3551C37.2209 26.1551 37.3333 25.8837 37.3333 25.6008C37.3333 25.3179 37.2209 25.0466 37.0209 24.8466C36.8208 24.6466 36.5495 24.5342 36.2666 24.5342H20.2666C19.9837 24.5342 19.7124 24.6466 19.5124 24.8466C19.3123 25.0466 19.2 25.3179 19.2 25.6008C19.2 25.8837 19.3123 26.1551 19.5124 26.3551C19.7124 26.5551 19.9837 26.6675 20.2666 26.6675Z" fill="#276749"/>
<path d="M20.2666 30.9341H32C32.2828 30.9341 32.5542 30.8217 32.7542 30.6217C32.9542 30.4217 33.0666 30.1503 33.0666 29.8674C33.0666 29.5846 32.9542 29.3132 32.7542 29.1132C32.5542 28.9132 32.2828 28.8008 32 28.8008H20.2666C19.9837 28.8008 19.7124 28.9132 19.5124 29.1132C19.3123 29.3132 19.2 29.5846 19.2 29.8674C19.2 30.1503 19.3123 30.4217 19.5124 30.6217C19.7124 30.8217 19.9837 30.9341 20.2666 30.9341Z" fill="#276749"/>
<path d="M15.1125 33.5422L11.5679 38.8606L10.3541 37.6467C10.1529 37.4524 9.88346 37.3449 9.60378 37.3473C9.32411 37.3498 9.05657 37.4619 8.85881 37.6597C8.66104 37.8575 8.54886 38.125 8.54643 38.4047C8.544 38.6844 8.65151 38.9538 8.84581 39.155L10.9791 41.2883C11.1791 41.4884 11.4504 41.6008 11.7333 41.6008C11.7674 41.6008 11.8026 41.6008 11.8399 41.5955C11.9969 41.5799 12.1484 41.5298 12.2836 41.4486C12.4188 41.3675 12.5343 41.2573 12.6218 41.1262L16.8885 34.7262C17.0455 34.4908 17.1026 34.2027 17.0472 33.9253C16.9917 33.6478 16.8284 33.4037 16.593 33.2467C16.4765 33.169 16.3458 33.1149 16.2083 33.0877C16.0709 33.0605 15.9295 33.0606 15.7921 33.088C15.5146 33.1435 15.2695 33.3068 15.1125 33.5422Z" fill="#276749"/>
<path d="M20.2666 36.2671H36.2666C36.5495 36.2671 36.8208 36.1547 37.0209 35.9547C37.2209 35.7547 37.3333 35.4834 37.3333 35.2005C37.3333 34.9176 37.2209 34.6462 37.0209 34.4462C36.8208 34.2462 36.5495 34.1338 36.2666 34.1338H20.2666C19.9837 34.1338 19.7124 34.2462 19.5124 34.4462C19.3123 34.6462 19.2 34.9176 19.2 35.2005C19.2 35.4834 19.3123 35.7547 19.5124 35.9547C19.7124 36.1547 19.9837 36.2671 20.2666 36.2671Z" fill="#276749"/>
<path d="M20.2666 40.5337H32C32.2828 40.5337 32.5542 40.4213 32.7542 40.2213C32.9542 40.0213 33.0666 39.75 33.0666 39.4671C33.0666 39.1842 32.9542 38.9128 32.7542 38.7128C32.5542 38.5128 32.2828 38.4004 32 38.4004H20.2666C19.9837 38.4004 19.7124 38.5128 19.5124 38.7128C19.3123 38.9128 19.2 39.1842 19.2 39.4671C19.2 39.75 19.3123 40.0213 19.5124 40.2213C19.7124 40.4213 19.9837 40.5337 20.2666 40.5337Z" fill="#276749"/>
<path d="M15.1125 43.1418L11.5679 48.4602L10.3541 47.2463C10.1529 47.052 9.88346 46.9445 9.60378 46.9469C9.32411 46.9494 9.05657 47.0615 8.85881 47.2593C8.66104 47.4571 8.54886 47.7246 8.54643 48.0043C8.544 48.284 8.65151 48.5534 8.84581 48.7546L10.9791 50.8879C11.1791 51.088 11.4504 51.2004 11.7333 51.2005C11.7674 51.2005 11.8026 51.2005 11.8399 51.1951C11.9969 51.1795 12.1484 51.1294 12.2836 51.0482C12.4188 50.9671 12.5343 50.857 12.6218 50.7258L16.8885 44.3258C16.9662 44.2092 17.0202 44.0785 17.0475 43.9411C17.0747 43.8037 17.0746 43.6622 17.0472 43.5249C17.0197 43.3875 16.9655 43.2569 16.8876 43.1404C16.8096 43.024 16.7096 42.9241 16.593 42.8463C16.4765 42.7686 16.3458 42.7146 16.2083 42.6873C16.0709 42.6601 15.9295 42.6602 15.7921 42.6876C15.6547 42.7151 15.5241 42.7693 15.4076 42.8472C15.2912 42.9252 15.1902 43.0252 15.1125 43.1418Z" fill="#276749"/>
<path d="M20.2666 45.8667H26.6666C26.9495 45.8667 27.2208 45.7544 27.4209 45.5543C27.6209 45.3543 27.7333 45.083 27.7333 44.8001C27.7333 44.5172 27.6209 44.2459 27.4209 44.0458C27.2208 43.8458 26.9495 43.7334 26.6666 43.7334H20.2666C19.9837 43.7334 19.7124 43.8458 19.5124 44.0458C19.3123 44.2459 19.2 44.5172 19.2 44.8001C19.2 45.083 19.3123 45.3543 19.5124 45.5543C19.7124 45.7544 19.9837 45.8667 20.2666 45.8667Z" fill="#276749"/>
<path d="M20.2666 50.1333H26.6666C26.9495 50.1333 27.2208 50.021 27.4209 49.8209C27.6209 49.6209 27.7333 49.3496 27.7333 49.0667C27.7333 48.7838 27.6209 48.5125 27.4209 48.3124C27.2208 48.1124 26.9495 48 26.6666 48H20.2666C19.9837 48 19.7124 48.1124 19.5124 48.3124C19.3123 48.5125 19.2 48.7838 19.2 49.0667C19.2 49.3496 19.3123 49.6209 19.5124 49.8209C19.7124 50.021 19.9837 50.1333 20.2666 50.1333Z" fill="#276749"/>
</g>
<defs>
<clipPath id="clip0_4036_7590">
<rect width="64" height="64" fill="white"/>
</clipPath>
</defs>
</svg>
