<svg width="61" height="51" viewBox="0 0 61 51" fill="none" xmlns="http://www.w3.org/2000/svg">
<path d="M36.5235 44.9708C32.9713 47.1392 28.797 48.3886 24.3307 48.3886C11.3886 48.3886 0.896729 37.8968 0.896729 24.9545C0.896729 12.0122 11.3886 1.52051 24.3308 1.52051C37.2731 1.52051 47.7648 12.0122 47.7648 24.9545C47.7648 31.0669 45.4247 36.6325 41.5915 40.8047" fill="#F8F8F8"/>
<path d="M18.9348 24.8318C18.9348 31.6819 24.3156 35.7006 24.3156 35.7006C24.3156 35.7006 29.6964 31.8621 29.6964 24.8318C29.6964 17.8014 24.3156 13.9629 24.3156 13.9629C24.3156 13.9629 18.9348 17.9816 18.9348 24.8318Z" fill="#8EDF78"/>
<path d="M21.4459 25.5496C21.4459 20.4643 24.4108 16.9401 25.9387 15.4614C25.0304 14.4732 24.3156 13.9629 24.3156 13.9629C24.3156 13.9629 18.9348 17.9816 18.9348 24.8318C18.9348 31.6819 24.3156 35.7006 24.3156 35.7006C24.3156 35.7006 24.6889 35.4341 25.2387 34.9136C23.6516 33.1606 21.4459 29.9355 21.4459 25.5496Z" fill="#39C17B"/>
<path d="M13.5277 31.9882C18.3715 36.832 25.018 35.8688 25.018 35.8688C25.018 35.8688 26.1085 29.3498 21.1374 24.3786C16.1662 19.4073 9.64707 20.4979 9.64707 20.4979C9.64707 20.4979 8.68391 27.1444 13.5277 31.9882Z" fill="#E2FC85"/>
<path d="M15.3453 30.1703C12.0285 26.8534 11.4347 22.6918 11.3899 20.3973C10.3169 20.3859 9.64707 20.4977 9.64707 20.4977C9.64707 20.4977 8.68391 27.1442 13.5277 31.988C18.3715 36.8318 25.018 35.8687 25.018 35.8687C25.018 35.8687 25.1297 35.1988 25.1184 34.1259C22.8238 34.0809 18.6622 33.487 15.3453 30.1703Z" fill="#8EDF78"/>
<path d="M27.494 24.3551C22.6502 29.1989 23.6134 35.8454 23.6134 35.8454C23.6134 35.8454 30.1324 36.9359 35.1037 31.9647C40.0749 26.9936 38.9843 20.4744 38.9843 20.4744C38.9843 20.4744 32.3378 19.5114 27.494 24.3551Z" fill="#39C17B"/>
<path d="M38.9844 20.4743C38.9844 20.4743 38.3133 20.3773 37.2431 20.3999C37.2008 22.6969 36.5861 26.7101 33.2637 30.0326C29.8975 33.3988 25.8222 33.9853 23.5412 34.0133C23.511 35.1364 23.6135 35.8451 23.6135 35.8451C23.6135 35.8451 30.1325 36.9356 35.1037 31.9644C40.0749 26.9934 38.9844 20.4743 38.9844 20.4743Z" fill="#31A469"/>
<path d="M38.4203 43.074C34.8681 45.2424 30.6937 46.4918 26.2275 46.4918C13.2852 46.4918 2.79352 35.9999 2.79352 23.0578C2.79352 17.0692 5.04102 11.6065 8.73691 7.46387C3.9266 11.7556 0.896729 18.0007 0.896729 24.9545C0.896729 37.8967 11.3885 48.3885 24.3307 48.3885C28.7969 48.3885 32.9713 47.139 36.5235 44.9707L41.5915 40.8046C41.9342 40.4316 42.2644 40.047 42.5828 39.6523L38.4203 43.074Z" fill="#CFDBFA"/>
<path d="M59.5436 31.6157C58.8217 30.8937 57.651 30.8937 56.9291 31.6157L44.6657 43.879L40.0362 39.2495C39.3142 38.5275 38.1436 38.5275 37.4216 39.2495C36.6996 39.9715 36.6996 41.1421 37.4216 41.8641L44.6657 49.1082L59.5436 34.2303C60.2656 33.5083 60.2656 32.3377 59.5436 31.6157Z" fill="#8EDF78"/>
<path d="M46.6661 41.9088L57.1315 31.4434C57.0613 31.4959 56.993 31.552 56.9292 31.6158L46.6511 41.8938L46.6661 41.9088Z" fill="#39C17B"/>
<path d="M39.4217 39.894C39.0935 39.5657 38.9162 39.1449 38.8864 38.7157C38.3622 38.6711 37.8227 38.8485 37.4216 39.2497C36.6996 39.9717 36.6996 41.1423 37.4216 41.8643L44.6657 49.1084L46.651 47.1231L39.4217 39.894Z" fill="#39C17B"/>
<path d="M32.6497 25.5479L33.9177 24.2798L35.1858 25.5479L33.9177 26.8159L32.6497 25.5479Z" fill="white"/>
<path d="M30.085 28.1123L31.353 26.8442L32.6211 28.1123L31.353 29.3804L30.085 28.1123Z" fill="white"/>
<path d="M13.4641 25.5479L14.7322 24.2798L16.0003 25.5479L14.7322 26.8159L13.4641 25.5479Z" fill="white"/>
<path d="M16.0281 28.1123L17.2962 26.8442L18.5642 28.1123L17.2962 29.3804L16.0281 28.1123Z" fill="white"/>
<path d="M23.4338 20.2422H25.2274V22.0358H23.4338V20.2422Z" fill="white"/>
<path d="M7.1814 12.9934L8.67606 13.9848C8.98181 13.5238 9.34328 13.0984 9.6873 12.6666L8.28458 11.5488C7.90757 12.0217 7.5162 12.4886 7.1814 12.9934Z" fill="black"/>
<path d="M12.0027 10.3476L10.8806 8.94824C10.4082 9.32717 9.97853 9.75787 9.54102 10.1753L10.7791 11.4732C11.1792 11.0915 11.5707 10.6943 12.0027 10.3476Z" fill="black"/>
<path d="M13.8305 6.87305C13.3054 7.16899 12.7956 7.50081 12.3054 7.85116L13.3334 9.32107C13.7825 8.99655 14.2541 8.69367 14.7366 8.42104L13.8305 6.87305Z" fill="black"/>
<path d="M53.9431 38.5508L55.2596 37.2343L56.5277 38.5023L55.2112 39.8189L53.9431 38.5508Z" fill="black"/>
<path d="M60.3661 31.1902C59.3181 29.903 57.4775 29.9096 56.2951 30.9819C56.0607 31.1946 47.0035 40.2737 44.666 42.6111C44.0513 41.9964 43.4366 41.3817 42.8219 40.767C46.5933 36.3613 48.6618 30.7807 48.6618 24.9548C48.6618 11.5388 37.747 0.624023 24.331 0.624023C10.915 0.624023 0 11.5388 0 24.9548C0 38.3708 10.9148 49.2856 24.3308 49.2856C28.8094 49.2856 33.1871 48.0583 36.9907 45.7364L36.0563 44.2055C32.5341 46.3555 28.4796 47.4919 24.3308 47.4919C11.9038 47.4921 1.7936 37.382 1.7936 24.9548C1.7936 12.5277 11.9038 2.41762 24.3308 2.41762C36.7578 2.41762 46.868 12.5278 46.868 24.9548C46.868 30.3045 44.9854 35.431 41.5496 39.4949C41.3776 39.323 41.2057 39.151 41.0339 38.9792C40.42 38.3653 39.7797 37.8606 38.8606 37.8194C37.4179 37.7545 36.1354 38.8488 35.9972 40.2939C35.8462 41.873 37.1302 42.8413 38.1257 43.8369C40.3058 46.0168 42.4859 48.1969 44.6659 50.377L53.8072 41.2358L52.539 39.9675L44.666 47.8406C43.7756 46.9501 38.0565 41.3193 37.9038 41.0326C37.3566 40.0052 38.6073 39.2646 39.422 39.904C40.419 40.6861 41.2802 41.7622 42.1751 42.6571C43.0054 43.4873 43.8357 44.3176 44.6659 45.1479L47.1493 42.6645C50.0599 39.7538 52.9705 36.8433 55.8811 33.9327C56.3964 33.4174 57.395 31.972 58.2365 31.972C59.1585 31.972 59.3797 32.9788 58.9097 33.5967C58.7541 33.8014 57.1713 35.3353 56.5831 35.9234L57.8513 37.1917C59.3639 35.679 62.2892 33.5524 60.3661 31.1902Z" fill="black"/>
<path d="M24.3871 36.8158C33.6872 37.4985 41.2953 28.7643 39.776 19.6811C36.4865 19.2044 33.0609 19.75 30.1495 21.3045C29.2598 17.9289 27.1331 14.9367 24.3431 12.8525C21.4854 14.8911 19.365 17.91 18.4945 21.3116C15.599 19.7697 12.1875 19.2026 8.88569 19.681C7.34798 28.8794 15.0538 37.4659 24.3871 36.8158ZM38.179 21.3096C38.5955 28.6705 32.9094 34.7748 25.7058 35.0369L30.12 30.6226L28.8518 29.3543L24.4709 33.7353C24.6585 29.9624 26.2727 26.3056 29.306 23.9696C31.7999 22.0488 35.0532 21.1783 38.179 21.3096ZM10.4827 21.3097C14.8302 21.1267 19.2416 22.9108 21.8069 26.5118L23.2677 25.4711C22.3807 24.2259 21.3067 23.1709 20.1044 22.3095C20.8833 18.5554 23.2551 16.082 24.3223 15.1312C25.3851 16.1022 27.7473 18.6096 28.5444 22.3028C24.5099 25.2101 22.4548 30.1651 22.6878 35.0708C15.4818 34.7101 10.0788 28.4442 10.4827 21.3097Z" fill="black"/>
</svg>
