<svg width="70" height="70" viewBox="0 0 70 70" fill="none" xmlns="http://www.w3.org/2000/svg">
<path fill-rule="evenodd" clip-rule="evenodd" d="M50.5613 25.0992C50.6059 25.053 50.6407 24.9982 50.6635 24.9382C50.6864 24.8782 50.6968 24.8142 50.6942 24.75C50.8319 21.9241 51.118 18.7754 51.118 15.9842C51.1169 15.8838 51.0957 15.7848 51.0558 15.6927C51.0159 15.6007 50.958 15.5175 50.8856 15.4481C50.7265 15.2906 50.5152 15.1971 50.2917 15.1853C50.2656 15.184 50.2298 15.184 50.2036 15.1853C49.9802 15.1971 49.7688 15.2906 49.6097 15.4481C49.5373 15.5175 49.4795 15.6007 49.4395 15.6927C49.3996 15.7848 49.3785 15.8838 49.3773 15.9842C49.3773 18.757 49.6617 21.8847 49.7984 24.6919C49.8192 24.8593 49.7938 24.9588 49.9342 25.0992C50.0175 25.1824 50.1304 25.2292 50.2482 25.2292C50.366 25.2292 50.4789 25.1824 50.5623 25.0992H50.5613ZM52.1914 24.7848C52.1914 25.3004 51.9866 25.7949 51.622 26.1595C51.2574 26.5241 50.7629 26.7289 50.2473 26.7289C49.7316 26.7289 49.2371 26.5241 48.8725 26.1595C48.5079 25.7949 48.3031 25.3004 48.3031 24.7848L47.8763 15.9838C47.8778 15.6846 47.9391 15.3887 48.0564 15.1136C48.1738 14.8384 48.345 14.5894 48.5599 14.3813C48.9817 13.9662 49.5411 13.7204 50.1321 13.6906C50.2083 13.6866 50.2847 13.6866 50.3609 13.6906C50.9519 13.7204 51.5114 13.9662 51.9331 14.3813C52.148 14.5894 52.3192 14.8384 52.4365 15.1136C52.5539 15.3888 52.6152 15.6846 52.6167 15.9838L52.1899 24.7848H52.1914ZM50.2473 30.1742C50.016 30.1742 49.7899 30.2428 49.5976 30.3713C49.4053 30.4998 49.2554 30.6824 49.1669 30.8961C49.0784 31.1097 49.0553 31.3449 49.1004 31.5717C49.1455 31.7985 49.2569 32.0069 49.4204 32.1704C49.5839 32.334 49.7923 32.4453 50.0191 32.4904C50.246 32.5356 50.4811 32.5124 50.6948 32.4239C50.9084 32.3354 51.0911 32.1855 51.2195 31.9932C51.348 31.8009 51.4166 31.5748 51.4166 31.3436C51.4166 31.19 51.3864 31.0379 51.3277 30.896C51.2689 30.7541 51.1828 30.6252 51.0742 30.5166C50.9656 30.408 50.8367 30.3219 50.6948 30.2631C50.5529 30.2044 50.4008 30.1742 50.2473 30.1742ZM50.2473 28.6741C50.8649 28.6741 51.4634 28.8882 51.9409 29.28C52.4183 29.6718 52.7451 30.217 52.8656 30.8228C52.9862 31.4286 52.8929 32.0574 52.6018 32.6021C52.3106 33.1468 51.8396 33.5737 51.269 33.81C50.6984 34.0464 50.0635 34.0776 49.4725 33.8983C48.8815 33.7191 48.3709 33.3404 48.0277 32.8269C47.6846 32.3133 47.5301 31.6967 47.5907 31.082C47.6512 30.4674 47.923 29.8927 48.3597 29.456C48.6073 29.2078 48.9015 29.0109 49.2254 28.8767C49.5494 28.7425 49.8966 28.6737 50.2473 28.6741ZM37.9346 57.3125C37.037 50.8364 33.8738 45.9112 28.4449 42.5369C22.7692 39.0095 14.6187 37.1466 3.99339 36.9482C6.84179 46.6958 10.9404 53.4634 16.2892 57.2509C21.284 60.7874 27.417 61.7346 34.6883 60.0926C33.8406 59.7117 32.9878 59.3043 32.13 58.8704C27.94 56.7459 23.7134 53.9846 20.1149 50.6262C19.971 50.5115 19.8744 50.3477 19.8437 50.1663C19.8129 49.9848 19.8502 49.7984 19.9482 49.6426C20.0462 49.4869 20.1982 49.3727 20.3751 49.322C20.5521 49.2713 20.7415 49.2875 20.9071 49.3676C26.5196 52.0849 32.1356 55.0414 37.9346 57.3121V57.3125ZM46.7883 61.2043C46.887 61.2118 46.8977 62.3645 46.2481 62.2528C42.5719 61.6205 37.7144 60.0243 32.8039 57.5344C30.546 56.3935 28.3683 55.1003 26.2859 53.6639C33.9269 57.3975 41.2222 60.7775 46.7883 61.2043ZM66.241 14.8703C66.4118 20.31 64.9888 25.6809 62.1473 30.3226C59.3057 34.9642 55.1695 38.6741 50.2473 40.9959C45.325 38.6741 41.1888 34.9642 38.3472 30.3225C35.5056 25.6809 34.0827 20.3099 34.2535 14.8702C34.2548 14.8497 34.2629 14.8302 34.2766 14.8149C34.2904 14.7996 34.3089 14.7894 34.3291 14.786C37.1763 14.335 39.9526 13.515 42.5879 12.3465C45.135 11.2199 47.5112 9.74091 49.6467 7.9529C49.8146 7.81118 50.0273 7.73345 50.2471 7.73345C50.4668 7.73345 50.6795 7.81118 50.8475 7.9529C52.9828 9.74093 55.3589 11.2199 57.906 12.3465C60.5414 13.515 63.3178 14.335 66.1651 14.786C66.1854 14.7894 66.2039 14.7996 66.2176 14.8149C66.2313 14.8302 66.2395 14.8497 66.2408 14.8702L66.241 14.8703ZM62.4258 27.2773C62.3403 27.456 62.1873 27.5934 62.0005 27.6593C61.8137 27.7253 61.6083 27.7143 61.4296 27.6288C61.2509 27.5433 61.1135 27.3903 61.0476 27.2035C60.9816 27.0167 60.9926 26.8113 61.0781 26.6326C62.519 23.6258 63.3475 20.3624 63.5155 17.0324C61.0888 16.4917 58.7253 15.6981 56.464 14.6646C54.2602 13.6588 52.1752 12.4108 50.2477 10.9436C49.3246 11.6488 48.3636 12.3029 47.3689 12.9029C46.1853 13.6159 44.9586 14.2549 43.696 14.8163C43.6063 14.8568 43.5094 14.8792 43.411 14.8822C43.3126 14.8852 43.2146 14.8687 43.1226 14.8337C43.0306 14.7987 42.9464 14.7459 42.8749 14.6783C42.8033 14.6107 42.7458 14.5296 42.7057 14.4397C42.6656 14.3498 42.6436 14.2529 42.641 14.1545C42.6384 14.0561 42.6553 13.9581 42.6907 13.8663C42.7261 13.7744 42.7793 13.6904 42.8472 13.6192C42.9151 13.5479 42.9964 13.4908 43.0865 13.451C44.2928 12.9134 45.4647 12.3016 46.5954 11.619C47.7004 10.953 48.7617 10.2168 49.7726 9.41497C49.9049 9.30647 50.0704 9.24659 50.2416 9.2453C50.4127 9.244 50.5791 9.30138 50.7131 9.40786C52.6721 10.9588 54.8116 12.2672 57.0848 13.3043C59.4365 14.3787 61.9025 15.1828 64.4355 15.701C64.6073 15.7362 64.7612 15.8305 64.8704 15.9676C64.9797 16.1047 65.0373 16.2758 65.0333 16.4511C64.9355 20.2031 64.047 23.8922 62.4258 27.2773ZM38.968 14.9707C39.0622 14.943 39.161 14.9341 39.2587 14.9446C39.3564 14.9551 39.4511 14.9847 39.5373 15.0317C39.6235 15.0788 39.6997 15.1424 39.7613 15.2189C39.823 15.2953 39.869 15.3832 39.8967 15.4775C39.9244 15.5717 39.9333 15.6705 39.9228 15.7682C39.9123 15.8659 39.8827 15.9606 39.8356 16.0468C39.7886 16.1331 39.725 16.2092 39.6485 16.2709C39.572 16.3325 39.4841 16.3785 39.3899 16.4062C38.8806 16.5575 38.3793 16.6951 37.886 16.819C37.5931 16.8924 37.2911 16.9638 36.9798 17.0331C37.2014 21.3694 38.5392 25.5749 40.8637 29.2422C43.1882 32.9095 46.4204 35.9143 50.2474 37.9654C53.2922 36.3345 55.9691 34.0948 58.1117 31.3855C58.1725 31.3086 58.2479 31.2444 58.3335 31.1965C58.4191 31.1487 58.5133 31.1182 58.6107 31.1068C58.7081 31.0953 58.8068 31.1032 58.9012 31.1299C58.9955 31.1567 59.0837 31.2017 59.1606 31.2625C59.2376 31.3233 59.3018 31.3986 59.3496 31.4842C59.3975 31.5699 59.428 31.6641 59.4394 31.7615C59.4508 31.8589 59.443 31.9576 59.4162 32.0519C59.3895 32.1463 59.3445 32.2344 59.2837 32.3114C56.9294 35.2891 53.9674 37.7307 50.5951 39.4734C50.4887 39.5294 50.3703 39.5588 50.2501 39.5593C50.1299 39.5597 50.0113 39.5312 49.9045 39.476C45.6601 37.2845 42.0812 33.9947 39.541 29.9493C37.0007 25.9039 35.5922 21.2512 35.4621 16.4762C35.4519 16.2968 35.5065 16.1198 35.6162 15.9774C35.7258 15.8351 35.883 15.737 36.059 15.701C36.5267 15.6048 37.0143 15.493 37.5219 15.3657C38.0175 15.2414 38.4994 15.1097 38.9676 14.9705L38.968 14.9707ZM5.35115 35.4878C5.33816 35.1412 5.32804 34.7942 5.32804 34.4473C5.32758 30.1118 6.41802 25.8459 8.49892 22.0424C10.5798 18.2389 13.5843 15.0201 17.2356 12.6825C20.887 10.3449 25.0678 8.96358 29.3931 8.66579C33.7184 8.36801 38.0491 9.16332 41.9863 10.9785C44.4035 9.9095 46.6586 8.50637 48.6855 6.8102C49.1206 6.43796 49.6743 6.2334 50.2469 6.2334C50.8195 6.2334 51.3732 6.43796 51.8083 6.8102C53.8376 8.50796 56.0954 9.91203 58.5156 10.9812C61.0313 12.0964 63.6816 12.879 66.3996 13.3093C66.7654 13.3651 67.0998 13.5481 67.344 13.8261C67.5883 14.1041 67.7267 14.4592 67.7351 14.8292C67.8807 19.4066 66.9538 23.9548 65.0283 28.1101C63.1028 32.2655 60.2321 35.9129 56.6456 38.761C55.9082 43.1007 54.0759 47.1807 51.322 50.6148C48.5681 54.049 44.9837 56.7239 40.9077 58.3864C43.0792 59.0966 45.0961 59.5711 46.8996 59.7094C47.8876 59.7852 48.2777 61.1997 48.1931 62.0503C48.0744 63.2461 47.227 63.9405 45.9961 63.7288C43.4202 63.2856 40.2903 62.389 36.9702 61.0606C28.4184 63.4462 21.2376 62.5823 15.4279 58.4691C9.61276 54.3517 5.22947 46.9906 2.27798 36.3859C2.24667 36.2713 2.24303 36.151 2.26737 36.0347C2.29171 35.9185 2.34332 35.8097 2.41796 35.7173C2.4926 35.6249 2.58813 35.5516 2.69667 35.5033C2.80521 35.4551 2.92365 35.4334 3.04224 35.4399C3.82455 35.4471 4.59418 35.4631 5.35115 35.4878ZM36.4195 10.6733C37.0423 11.1944 37.6164 11.771 38.1348 12.396C38.7787 12.2059 39.4115 11.9972 40.033 11.7698C38.8589 11.311 37.6507 10.9445 36.4195 10.6737V10.6733ZM17.9141 35.1975H6.83728C6.84056 35.3146 6.84512 35.4315 6.85095 35.5485C10.9391 35.7478 14.6456 36.2117 17.9703 36.9401C17.9429 36.3598 17.9244 35.7789 17.9146 35.1975H17.9141ZM30.4177 35.1975V42.0456C30.0355 41.7774 29.6416 41.5171 29.2359 41.2647C26.5167 39.5746 23.267 38.2522 19.487 37.2975C19.4463 36.5975 19.4214 35.8975 19.4123 35.1975H30.4177ZM31.9178 20.248H33.0859C32.8114 18.4558 32.7022 16.6421 32.7597 14.8299C32.7681 14.4599 32.9066 14.1048 33.1508 13.8268C33.395 13.5489 33.7294 13.3659 34.0952 13.3099C34.9165 13.1784 35.7244 13.0175 36.5189 12.8272C35.8675 12.1101 35.114 11.4928 34.2827 10.9952C33.5574 10.5628 32.7534 10.2786 31.9175 10.1589V20.2487L31.9178 20.248ZM21.6458 20.248H30.4177V10.1582C27.564 10.5424 24.9574 13.0997 22.9927 17.0403C22.4779 18.0805 22.0281 19.1515 21.6458 20.2473V20.248ZM11.3975 20.248H20.0618C20.5009 18.921 21.0318 17.6262 21.6509 16.373C22.8511 13.9658 24.2954 12.0195 25.9121 10.6774C20.0627 11.9765 14.896 15.3831 11.3975 20.2477V20.248ZM19.5967 21.7482H10.4006C8.19082 25.3521 6.96325 29.4718 6.84001 33.6974H17.9131C17.9759 29.3607 18.5806 25.2902 19.5967 21.7482ZM30.4177 21.7482H21.1577C20.1068 25.2512 19.4782 29.3293 19.4135 33.6981H30.4177V21.7489V21.7482ZM33.3563 21.7482H31.9178V33.6981H38.8593C38.3414 33.0277 37.8525 32.335 37.3927 31.62C35.4536 28.6048 34.0854 25.2589 33.3563 21.7489V21.7482ZM42.7999 46.9355H52.0664C53.3425 44.8064 54.2832 42.4936 54.8555 40.0783C53.4933 41.0044 52.0557 41.8144 50.5577 42.4995C50.4603 42.5442 50.3544 42.5673 50.2472 42.5673C50.14 42.5673 50.0341 42.5442 49.9366 42.4995C47.9061 41.5706 45.9879 40.4135 44.2192 39.0505C43.9861 41.7165 43.5111 44.3556 42.7999 46.9355ZM35.4607 46.9355C34.4389 45.5454 33.2489 44.2871 31.9178 43.1894V35.1975H40.0985C40.9434 36.1542 41.8493 37.0553 42.8106 37.895C42.6117 40.956 42.0851 43.9868 41.2398 46.9355H35.4607ZM40.7629 48.4356C40.2 50.1123 39.4696 51.7281 38.5828 53.2585C38.0784 51.5686 37.3647 49.9484 36.4584 48.4356H40.7629ZM51.0914 48.4356H42.3445C41.4804 51.0726 40.3758 53.381 39.0891 55.2401C39.2339 55.9237 39.353 56.625 39.4463 57.3439C43.3802 55.918 46.8808 53.5037 49.6115 50.3332C50.1351 49.7264 50.6285 49.094 51.0918 48.436L51.0914 48.4356Z" fill="#276749"/>
</svg>
