<svg width="80" height="80" viewBox="0 0 80 80" fill="none" xmlns="http://www.w3.org/2000/svg">
<path d="M40 2.10938C41.5156 2.10938 42.7344 3.32812 42.7344 4.84375V68.5156H37.2656V4.84375C37.2656 3.32812 38.4844 2.10938 40 2.10938Z" fill="#F8D3BF"/>
<path d="M40 2.10938V9.14062H37.2656V4.84375C37.2656 3.32812 38.4844 2.10938 40 2.10938Z" fill="#FBE7DD"/>
<path d="M37.2656 20.4688C38.7812 20.4688 40 21.6875 40 23.2031V61.4844C40 63 38.7812 64.2188 37.2656 64.2188V20.4688Z" fill="#FBE7DD"/>
<path d="M75.1562 15.7812H4.84375C3.32812 15.7812 2.10938 14.5625 2.10938 13.0469C2.10938 11.5312 3.32812 10.3125 4.84375 10.3125H75.1562C76.6719 10.3125 77.8906 11.5312 77.8906 13.0469C77.8906 14.5625 76.6719 15.7812 75.1562 15.7812Z" fill="#F6C4A9"/>
<path d="M27.5 13.0469H2.10938C2.10938 11.5312 3.32812 10.3125 4.84375 10.3125H30.2344C30.2344 11.8281 29.0156 13.0469 27.5 13.0469Z" fill="#F8D3BF"/>
<path d="M71.6406 13.0469H52.6875C50.6094 13.0469 48.6719 12.0312 47.5 10.3125H74.375C74.375 11.8281 73.1562 13.0469 71.6406 13.0469Z" fill="#F8D3BF"/>
<path d="M21.25 77.8906H58.75C60.2656 77.8906 61.4844 76.6719 61.4844 75.1562C61.4844 73.6406 60.2656 72.4219 58.75 72.4219H21.25C19.7344 72.4219 18.5156 73.6406 18.5156 75.1562C18.5156 76.6719 19.7344 77.8906 21.25 77.8906Z" fill="#75EEFF"/>
<path d="M18.5156 75.1562H53.2812C54.7969 75.1562 56.0156 73.9375 56.0156 72.4219H21.25C19.7344 72.4219 18.5156 73.6406 18.5156 75.1562Z" fill="#C0F6FF"/>
<path d="M31.7969 72.4219H48.2031C49.7188 72.4219 50.9375 71.2031 50.9375 69.6875C50.9375 68.1719 49.7188 66.9531 48.2031 66.9531H31.7969C30.2812 66.9531 29.0625 68.1719 29.0625 69.6875C29.0625 71.2031 30.2812 72.4219 31.7969 72.4219Z" fill="#ED844D"/>
<path d="M29.0625 69.6875H45.0781C46.5938 69.6875 47.8125 68.4688 47.8125 66.9531H31.7969C30.2812 66.9531 29.0625 68.1719 29.0625 69.6875Z" fill="#F19D71"/>
<path d="M41.9531 7.9375L34.7656 14.6406C35.4844 16.9844 37.7188 18.6563 40.3281 18.5C43.1094 18.3438 45.3438 16.0469 45.4688 13.2656C45.5625 10.8438 44.0781 8.75 41.9531 7.9375Z" fill="#F26522"/>
<path d="M42.1875 9.53125C42.1875 8.98438 42.1094 8.4375 41.9531 7.9375C41.3438 7.70312 40.6875 7.57812 40 7.57812C36.9844 7.57812 34.5312 10.0312 34.5312 13.0469C34.5312 13.5938 34.6094 14.1406 34.7656 14.6406C35.375 14.875 36.0312 15 36.7188 15C39.7344 15 42.1875 12.5469 42.1875 9.53125Z" fill="#ED844D"/>
<path d="M22.0625 30.9844L3.64062 49.4062C5.92187 53.7969 10.5 56.7969 15.7812 56.7969C23.3281 56.7969 29.4531 50.6719 29.4531 43.125C29.4531 37.8437 26.4531 33.25 22.0625 30.9844Z" fill="#C0F6FF"/>
<path d="M13.3125 47.2188L20.1562 46.3281C22.2812 43.9219 23.5781 40.75 23.5781 37.2812C23.5781 35.0156 23.0312 32.875 22.0469 31C20.1719 30.0312 18.0312 29.4688 15.7656 29.4688C8.21875 29.4688 2.09375 35.5938 2.09375 43.1406C2.09375 45.4062 2.64063 47.5469 3.625 49.4219C5.46875 50.375 7.54688 50.9219 9.76562 50.9531L13.3125 47.2188Z" fill="#E0F4FF"/>
<path d="M9.78125 50.9375V52.8906C9.78125 53.5313 10.3125 54.0625 10.9531 54.0625H20.6094C21.25 54.0625 21.7812 53.5313 21.7812 52.8906V50.1875C21.7812 48.6719 21.1719 47.2969 20.1719 46.3125C20.1719 46.3125 9.82812 50.9375 9.78125 50.9375Z" fill="#00CCFF"/>
<path d="M15.25 44.7188C12.2344 44.7188 9.78125 47.1719 9.78125 50.1875V50.9219H9.92188C14 50.9219 17.6563 49.1406 20.1719 46.2969C19.1875 45.3125 17.8281 44.7031 16.3125 44.7031H15.25V44.7188Z" fill="#75EEFF"/>
<path d="M15.7812 44.7344C18.3615 44.7344 20.4531 42.6427 20.4531 40.0625C20.4531 37.4823 18.3615 35.3906 15.7812 35.3906C13.201 35.3906 11.1094 37.4823 11.1094 40.0625C11.1094 42.6427 13.201 44.7344 15.7812 44.7344Z" fill="#75EEFF"/>
<path d="M61.4844 23.9844H66.9531C68.4688 23.9844 69.6875 25.2031 69.6875 26.7188C69.6875 28.2344 68.4688 29.4531 66.9531 29.4531H61.4844C59.9688 29.4531 58.75 28.2344 58.75 26.7188C58.75 25.2031 59.9688 23.9844 61.4844 23.9844Z" fill="#38C714"/>
<path d="M61.4844 23.9844H66.5625C66.5625 25.5 65.3438 26.7188 63.8281 26.7188H58.75C58.75 25.2031 59.9688 23.9844 61.4844 23.9844Z" fill="#60D243"/>
<path d="M13.0469 23.9844H18.5156C20.0312 23.9844 21.25 25.2031 21.25 26.7188C21.25 28.2344 20.0312 29.4531 18.5156 29.4531H13.0469C11.5312 29.4531 10.3125 28.2344 10.3125 26.7188C10.3125 25.2031 11.5312 23.9844 13.0469 23.9844Z" fill="#F19D71"/>
<path d="M13.0469 23.9844H18.125C18.125 25.5 16.9062 26.7188 15.3906 26.7188H10.3125C10.3125 25.2031 11.5312 23.9844 13.0469 23.9844Z" fill="#F4B594"/>
<path d="M70.3906 30.9219L52.1875 49.625C54.5 53.8906 59.0156 56.7969 64.2188 56.7969C71.7656 56.7969 77.8906 50.6719 77.8906 43.125C77.8906 37.7969 74.8438 33.1719 70.3906 30.9219Z" fill="#C0F6FF"/>
<path d="M72.0312 37.4219C72.0312 35.0625 71.4375 32.8594 70.3906 30.9219C68.5312 29.9844 66.4375 29.4531 64.2188 29.4531C56.6719 29.4531 50.5469 35.5781 50.5469 43.125C50.5469 45.4844 51.1406 47.6875 52.1875 49.625C54.0469 50.5625 56.1406 51.0938 58.3594 51.0938C65.9062 51.0938 72.0312 44.9688 72.0312 37.4219Z" fill="#E0F4FF"/>
<path d="M69.7655 37.0781C69.6718 36.9844 69.5624 36.9062 69.453 36.8281C69.4843 37.1094 58.4687 43.5156 57.9843 43.1094C57.8905 44.2344 58.6093 45.2344 59.6093 45.5937L61.2968 47.2188C61.7343 48.3125 62.8749 49.0312 64.0937 48.8125C65.1249 48.6406 66.1093 48.1406 66.9062 47.3594C68.953 45.2969 71.8124 39.125 69.7655 37.0781Z" fill="#38C714"/>
<path d="M63.9062 44.5781C67.0937 43.9063 69.5 41.0781 69.5 37.6875C69.5 37.3906 69.4844 37.0938 69.4375 36.8125C67.125 35.2813 61.4375 37.9531 59.4844 39.9219C58.625 40.7813 58.125 41.875 57.9844 43V43.1094C58.7656 43.75 59.6719 44.2344 60.6875 44.5L63.9062 44.5781Z" fill="#60D243"/>
</svg>
