<svg width="80" height="80" viewBox="0 0 80 80" fill="none" xmlns="http://www.w3.org/2000/svg">
<path d="M46.7656 3.90625L27.375 21.0156C29.4375 25.9688 34.3125 29.4531 40 29.4531C47.5469 29.4531 53.6719 23.3281 53.6719 15.7812C53.6719 10.6875 50.8906 6.25 46.7656 3.90625Z" fill="#F4B594"/>
<path d="M36.4062 22.625C36.4844 22.75 36.5781 22.8594 36.6875 22.9688C37.75 24.0312 39.4844 24.0312 40.5469 22.9688L43.8594 19.6563C44.3594 19.1563 44.6094 18.5312 44.6562 17.875H38.9219L36.4062 22.625Z" fill="#F26522"/>
<path d="M36.4062 22.625L44.6719 17.875C46.625 15.5 47.8125 12.4531 47.8125 9.14062C47.8125 7.28125 47.4375 5.51562 46.7656 3.90625C44.7656 2.76562 42.4531 2.10938 40 2.10938C32.4531 2.10938 26.3281 8.23438 26.3281 15.7812C26.3281 17.6406 26.7031 19.4062 27.375 21.0156C29.375 22.1562 31.6875 22.8125 34.1406 22.8125C34.9062 22.8125 35.6719 22.75 36.4062 22.625Z" fill="#F6C4A9"/>
<path d="M43.8594 15.7812L41.9219 13.8438L43.2969 12.4688C44.3594 11.4063 44.3594 9.67188 43.2969 8.60938C42.2344 7.54688 40.5 7.54688 39.4375 8.60938L36.1563 11.8906C35.0938 12.9531 35.0938 14.6875 36.1563 15.75L38.0938 17.6875L36.6875 19.0938C35.7188 20.0625 35.6406 21.5469 36.4063 22.625C39.7031 22.0781 42.6094 20.3438 44.6719 17.875C44.7031 17.125 44.4375 16.3594 43.8594 15.7812Z" fill="#ED844D"/>
<path d="M46.1719 52.0156L27.9688 70.7188C30.2812 74.9844 34.7969 77.8906 40 77.8906C47.5469 77.8906 53.6719 71.7656 53.6719 64.2188C53.6719 58.8906 50.625 54.2656 46.1719 52.0156Z" fill="#C0F6FF"/>
<path d="M47.8125 58.5156C47.8125 56.1562 47.2188 53.9531 46.1719 52.0156C44.3125 51.0781 42.2188 50.5469 40 50.5469C32.4531 50.5469 26.3281 56.6719 26.3281 64.2188C26.3281 66.5781 26.9219 68.7813 27.9688 70.7188C29.8281 71.6562 31.9219 72.1875 34.1406 72.1875C41.6875 72.1875 47.8125 66.0625 47.8125 58.5156Z" fill="#E0F4FF"/>
<path d="M45.5468 58.1719C45.453 58.0781 45.3437 58 45.2343 57.9219C45.2655 58.2031 34.2499 64.6094 33.7655 64.2031C33.6718 65.3281 34.3905 66.3281 35.3905 66.6875L37.078 68.3125C37.5155 69.4062 38.6562 70.125 39.8749 69.9062C40.9062 69.7344 41.8905 69.2344 42.6874 68.4531C44.7343 66.3906 47.5937 60.2187 45.5468 58.1719Z" fill="#38C714"/>
<path d="M39.6875 65.6719C42.875 65 45.2812 62.1719 45.2812 58.7813C45.2812 58.4844 45.2656 58.1875 45.2187 57.9063C42.9062 56.375 37.2187 59.0469 35.2656 61.0156C34.4062 61.875 33.9062 62.9688 33.7656 64.0938V64.2031C34.5469 64.8438 35.4531 65.3281 36.4687 65.5938L39.6875 65.6719Z" fill="#60D243"/>
<path d="M19.0937 19.0937C18.7812 18.7812 18.4218 18.5781 18.0468 18.4375C15.7187 20.1562 9.06242 30.4219 8.84367 36.9531C8.73429 40.1406 10.5312 53.4844 10.5312 53.4844C11.4687 55.5312 12.6093 57.4531 13.9218 59.2344L18.5468 56.2969C15.0937 51.7656 13.0624 46.125 13.0624 39.9844C13.0624 33.4375 15.3905 27.4375 19.2655 22.7813C20.1562 21.7031 20.0937 20.0937 19.0937 19.0937Z" fill="#F19D71"/>
<path d="M11.5313 48.1252C10.7813 44.9689 10.625 41.3752 10.7344 38.1877C10.9531 31.6408 13.4844 25.7346 17.5156 21.2033C18.2031 20.4221 18.3906 19.3596 18.0469 18.4377C17.0156 18.0783 15.8281 18.3596 15.0781 19.2658C10.4062 24.8908 7.57812 32.1096 7.57812 40.0002C7.57812 44.8127 8.625 49.3908 10.5156 53.5002C11.5938 51.9689 11.9844 50.0158 11.5313 48.1252Z" fill="#F4B594"/>
<path d="M65.7343 20.2812L61.0155 23.1406C62.6093 25.1406 63.9374 27.3594 64.9218 29.7656C64.9218 29.7656 68.8593 37.3906 68.8593 41C68.8593 46.7656 60.0937 58.7656 60.0937 58.7656C60.0312 59.5312 60.2968 60.3125 60.8749 60.9062C62.0155 62.0469 63.8749 61.9688 64.9062 60.7344C69.578 55.1094 72.4062 47.8906 72.4062 40C72.4218 32.5781 69.9374 25.75 65.7343 20.2812Z" fill="#38C714"/>
<path d="M65.4844 56.3593C68.125 51.6718 69.625 46.2656 69.625 40.5C69.625 36.8906 69.0313 33.4218 67.9531 30.1875C67.5 28.8437 65.7188 28.6093 64.9375 29.7656C66.2344 32.9218 66.9531 36.375 66.9531 40C66.9531 46.5468 64.625 52.5468 60.75 57.2031C60.375 57.6562 60.1562 58.2031 60.125 58.7656C62.1562 59.2031 64.375 58.3281 65.4844 56.3593Z" fill="#60D243"/>
<path d="M12.2656 61.4844H18.5156C20.0312 61.4844 21.25 60.2656 21.25 58.75V52.5C21.25 50.9844 20.0312 49.7656 18.5156 49.7656C17 49.7656 15.7812 50.9844 15.7812 52.5V56.0156H12.2656C10.75 56.0156 9.53125 57.2344 9.53125 58.75C9.53125 60.2656 10.75 61.4844 12.2656 61.4844Z" fill="#F26522"/>
<path d="M18.5156 56.0156V49.7656C17 49.7656 15.7812 50.9844 15.7812 52.5V54.8438C15.7812 55.4844 15.25 56.0156 14.6094 56.0156H12.2656C10.75 56.0156 9.53125 57.2344 9.53125 58.75H15.7812C17.2969 58.75 18.5156 57.5312 18.5156 56.0156Z" fill="#ED844D"/>
<path d="M67.7344 18.5156H61.4844C59.9688 18.5156 58.75 19.7344 58.75 21.25V27.5C58.75 29.0156 59.9688 30.2344 61.4844 30.2344C63 30.2344 64.2188 29.0156 64.2188 27.5V25.1562C64.2188 24.5156 64.75 23.9844 65.3906 23.9844H67.7344C69.25 23.9844 70.4688 22.7656 70.4688 21.25C70.4688 19.7344 69.25 18.5156 67.7344 18.5156Z" fill="#2A950F"/>
<path d="M66.875 18.5156H61.4844C59.9688 18.5156 58.75 19.7344 58.75 21.25V26.6406C60.3906 26.6406 61.7188 25.3125 61.7188 23.6719C61.7188 22.4688 62.7031 21.4844 63.9062 21.4844C65.5469 21.4844 66.875 20.1562 66.875 18.5156Z" fill="#60D243"/>
</svg>
