<svg width="128" height="128" viewBox="0 0 128 128" fill="none" xmlns="http://www.w3.org/2000/svg">
<g opacity="0.5">
<path d="M18.5167 76.5512C18.5167 76.5512 24.3852 92.0315 40.9391 97.8188C57.493 103.606 75.7374 97.911 90.6381 93.6891C105.539 89.4672 113.877 77.1593 111.265 64.0062C108.652 50.8531 96.2629 51.1561 85.3316 39.0348C74.4004 26.9136 73.329 22.0265 57.5479 17.8155C41.7668 13.6046 23.6321 26.1562 18.3125 44.9582C12.9928 63.7603 18.5167 76.5512 18.5167 76.5512Z" fill="#276749"/>
<path opacity="0.7" d="M18.5167 76.5512C18.5167 76.5512 24.3852 92.0315 40.9391 97.8188C57.493 103.606 75.7374 97.911 90.6381 93.6891C105.539 89.4672 113.877 77.1593 111.265 64.0062C108.652 50.8531 96.2629 51.1561 85.3316 39.0348C74.4004 26.9136 73.329 22.0265 57.5479 17.8155C41.7668 13.6046 23.6321 26.1562 18.3125 44.9582C12.9928 63.7603 18.5167 76.5512 18.5167 76.5512Z" fill="white"/>
</g>
<path d="M53.2088 24.5932C52.6567 25.1912 52.2687 25.9218 52.0825 26.7141C51.6751 26.1638 51.0804 25.7817 50.4107 25.6398C49.7409 25.4978 49.0424 25.6058 48.4468 25.9434C48.3367 24.629 47.757 23.3982 46.8137 22.4762C45.8704 21.5542 44.6266 21.0028 43.31 20.9228C41.9934 20.8429 40.692 21.2397 39.6441 22.0407C38.5961 22.8417 37.8717 23.9933 37.6033 25.2848C36.9589 24.6503 36.0979 24.2836 35.1938 24.2588C34.2898 24.2339 33.4099 24.5527 32.7316 25.1509" stroke="#1A202C" stroke-width="0.155835" stroke-miterlimit="10"/>
<path d="M68.1825 18.799C67.8098 18.7416 67.4333 18.7129 67.0562 18.7134C65.4012 18.7128 63.796 19.2789 62.5074 20.3174C61.2188 21.3559 60.3247 22.8043 59.9736 24.4216C59.2296 23.688 58.2626 23.2229 57.2251 23.0997C56.1876 22.9765 55.1385 23.2021 54.2434 23.741" stroke="#1A202C" stroke-width="0.155835" stroke-miterlimit="10"/>
<path d="M72.2549 20.9137C71.7433 20.3882 71.1546 19.9439 70.509 19.5961" stroke="#1A202C" stroke-width="0.155835" stroke-miterlimit="10"/>
<path d="M69.6427 27.9672H83.0351C82.8655 27.6831 82.6378 27.4381 82.3668 27.2484C82.0957 27.0586 81.7876 26.9283 81.4627 26.8661C81.1378 26.8039 80.8033 26.8112 80.4814 26.8874C80.1595 26.9637 79.8573 27.1072 79.5948 27.3085C79.4175 26.7953 79.1295 26.3274 78.7512 25.9379C78.3729 25.5484 77.9137 25.2468 77.4059 25.0545C76.8981 24.8622 76.3543 24.7839 75.8129 24.8251C75.2715 24.8663 74.7458 25.0261 74.273 25.2931C74.1524 23.9803 73.674 22.7258 72.8898 21.6661" stroke="#1A202C" stroke-width="0.155835" stroke-miterlimit="10"/>
<path d="M32.1729 25.7721C31.7462 26.3733 31.5161 27.092 31.5143 27.8293C31.5143 27.8732 31.5143 27.9171 31.5143 27.961H66.9932" stroke="#1A202C" stroke-width="0.155835" stroke-miterlimit="10"/>
<path d="M79.6776 30.347C79.2534 29.9854 78.7427 29.7401 78.1954 29.6349C77.6481 29.5298 77.0828 29.5686 76.5549 29.7473C76.027 29.9261 75.5545 30.2388 75.1837 30.6548C74.8128 31.0709 74.5563 31.5761 74.4392 32.121C74.1746 31.8583 73.8446 31.6711 73.4834 31.5787C73.1222 31.4864 72.7428 31.4922 72.3846 31.5956C72.0264 31.6991 71.7024 31.8963 71.446 32.167C71.1896 32.4377 71.0102 32.772 70.9264 33.1353C70.7439 32.8919 70.4793 32.723 70.1817 32.66C69.8841 32.597 69.5738 32.6442 69.3083 32.7928C69.2615 32.2058 69.0043 31.6555 68.584 31.2431C68.1638 30.8307 67.6088 30.5839 67.0211 30.5481C66.4333 30.5123 65.8525 30.6899 65.3853 31.0483C64.9181 31.4066 64.596 31.9217 64.4783 32.4986C64.2546 32.2789 63.971 32.1301 63.663 32.071C63.3551 32.0119 63.0366 32.0451 62.7475 32.1663C62.4583 32.2876 62.2114 32.4915 62.0377 32.7525C61.8641 33.0136 61.7714 33.3201 61.7712 33.6336C61.7712 33.6534 61.7712 33.671 61.7712 33.6907H84.6986C84.6221 33.5646 84.5198 33.456 84.3985 33.3721C84.2772 33.2881 84.1395 33.2307 83.9945 33.2036C83.8494 33.1764 83.7003 33.1802 83.5569 33.2146C83.4134 33.2489 83.2788 33.3132 83.1618 33.4031C83.0829 33.1749 82.9549 32.9668 82.7866 32.7936C82.6184 32.6203 82.4141 32.4862 82.1883 32.4008C81.9624 32.3153 81.7206 32.2805 81.4798 32.2989C81.239 32.3174 81.0053 32.3885 80.7951 32.5074C80.7744 32.2669 80.7257 32.0296 80.6502 31.8004" stroke="#1A202C" stroke-width="0.155835" stroke-miterlimit="10"/>
<path d="M19.4656 57.3502C19.4656 57.3502 49.5766 29.4062 53.0256 29.2042C56.4374 29.0044 80.9346 54.3139 80.9346 54.3139C80.9346 54.3139 97.8002 39.6569 99.6071 39.6569C101.414 39.6569 103.831 42.8579 103.831 42.8579" stroke="#1A202C" stroke-width="0.155835" stroke-linecap="round" stroke-linejoin="round"/>
<path d="M73.5062 49.6858L71.9888 48.2365" stroke="#1A202C" stroke-width="0.155835" stroke-linecap="round" stroke-linejoin="round"/>
<path d="M56.2721 35.3165L61.4622 40.0478" stroke="#1A202C" stroke-width="0.155835" stroke-linecap="round" stroke-linejoin="round"/>
<path d="M54.6292 33.8239L55.5954 34.7023" stroke="#1A202C" stroke-width="0.155835" stroke-linecap="round" stroke-linejoin="round"/>
<path d="M70.3273 46.6473L60.0547 36.8335" stroke="#1A202C" stroke-width="0.155835" stroke-linecap="round" stroke-linejoin="round"/>
<path d="M107.044 94.9303C106.844 93.343 104.067 95.7251 104.067 95.7251C104.442 94.7765 104.644 93.7681 104.662 92.748C104.662 91.1607 102.686 93.1432 102.686 93.1432C102.686 93.1432 104.075 90.5635 103.878 87.7863C103.68 85.009 100.701 88.1836 100.701 88.1836C100.701 88.1836 101.893 84.0122 102.091 82.8245C102.288 81.6367 96.534 84.2142 96.534 84.2142C96.534 84.2142 96.9313 82.4271 97.1289 80.6422C97.2321 79.7289 96.2507 80.1087 95.2584 80.6993C95.0388 79.9045 94.4526 79.8496 93.8006 80.0977C93.8423 79.9001 93.8884 79.6849 93.9389 79.4544C94.1584 78.3852 92.6348 79.5905 91.368 80.73C91.2148 79.3415 90.5866 78.0486 89.5897 77.0701C88.6302 76.1107 87.5962 77.1799 86.7355 78.6816L85.3107 79.1207C85.2931 78.8441 85.2646 78.5587 85.2228 78.2645C84.966 76.4686 83.4665 78.405 82.4368 79.9989L81.339 80.337C81.1634 79.2129 80.7331 77.5729 79.6749 76.2798C77.8899 74.0975 73.7207 80.2492 73.7207 80.2492C73.7207 80.2492 71.141 76.0778 70.1487 78.2733C69.1563 80.4687 70.5461 85.0222 70.5461 85.0222C70.5461 85.0222 69.9511 83.4326 69.1585 83.0462C68.366 82.6598 66.1815 84.4338 66.1815 84.4338C66.1815 84.4338 67.3714 81.6565 66.1815 80.6641C65.1035 79.7662 63.705 82.9233 63.4459 83.538C63.6281 83.0726 64.3241 81.0571 63.7994 78.282C63.2044 75.1074 60.8223 79.2744 60.8223 79.2744C60.8223 79.2744 61.2197 75.305 59.0374 74.71C56.8551 74.115 60.0297 74.71 57.8452 78.6794C55.6607 82.6488 56.4577 75.9021 53.2808 76.2973C50.104 76.6925 50.9009 88.603 50.9009 88.603L38.3801 81.4413C38.3801 81.4413 37.7851 80.2492 35.7697 79.8891C33.7542 79.5291 35.0079 82.6357 35.0079 82.6357C35.0079 82.6357 32.2284 80.056 31.0384 80.056C30.7289 80.056 29.7782 81.4325 28.54 83.4699C28.45 83.2614 28.3578 83.0484 28.2612 82.8333C27.5081 81.1801 26.8714 84.8773 26.6058 86.7676L26.3862 87.1474C26.2259 86.2143 25.7583 84.6116 24.4893 84.6116C22.9525 84.6116 23.767 89.9071 24.0239 91.3781V91.3956C23.8263 90.5591 23.2577 88.5415 22.3158 88.3812C21.1258 88.1836 22.116 92.748 22.116 92.748C22.116 92.748 21.3234 92.1531 20.7285 92.1531C20.2894 92.1531 20.8975 94.9216 21.2664 96.4782C20.0149 98.8054 19.1653 100.419 19.1653 100.419L27.069 96.1225H68.6053L66.5964 98.902H106.242C106.242 98.902 107.241 96.5221 107.044 94.9303Z" fill="black"/>
<path d="M59.071 98.8553H60.5135L61.3917 67.0209L63.2403 61.4532L61.2929 65.1218L61.5805 61.5388L64.6981 55.1938L61.6946 59.1457L61.4531 49.6459L61.0448 55.4924L59.5716 54.6142L60.8626 56.5682L60.5113 63.484L59.3455 61.642L60.3488 64.9198L59.071 98.8553Z" fill="#1A202C"/>
<path d="M64.5748 100.965C64.0611 98.928 63.2202 96.3988 62.0478 95.4547C59.9665 93.7774 56.5811 96.4142 54.7588 95.2154C52.9366 94.0167 56.8401 82.2775 50.5874 81.5596C44.3347 80.8416 41.9943 92.8202 39.1292 94.0167C36.2641 95.2132 35.2234 90.9035 31.3177 90.6642C27.9037 90.4447 21.3041 98.849 19.6992 100.965H64.5748Z" fill="#276749"/>
<path opacity="0.46" d="M64.5748 100.965C64.0611 98.928 63.2202 96.3988 62.0478 95.4547C59.9665 93.7774 56.5811 96.4142 54.7588 95.2154C52.9366 94.0167 56.8401 82.2775 50.5874 81.5596C44.3347 80.8416 41.9943 92.8202 39.1292 94.0167C36.2641 95.2132 35.2234 90.9035 31.3177 90.6642C27.9037 90.4447 21.3041 98.849 19.6992 100.965H64.5748Z" fill="black"/>
<path d="M50.6956 98.8553H52.138L53.0162 67.0209L54.867 61.4422L52.9196 65.1108L53.2072 61.5278L56.3248 55.1829L53.3301 59.1435L53.0711 49.6459L52.6715 55.4924L51.1983 54.6142L52.4893 56.5682L52.138 63.484L50.9722 61.642L51.9755 64.9198L50.6956 98.8553Z" fill="#F0FFF4"/>
<path d="M31.2897 98.8553H32.7321L33.6103 67.0209L35.4589 61.4532L33.5093 65.1218L33.7991 61.5388L36.9211 55.1917L33.9177 59.1435L33.6608 49.6459L33.2524 55.4924L31.7793 54.6142L33.0702 56.5682L32.7189 63.484L31.5509 61.642L32.5565 64.9198L31.2897 98.8553Z" fill="#C6F6D5"/>
<path d="M72.6704 98.8556H74.1128L74.991 74.387L76.8484 70.1212L74.8988 72.9401L75.1864 70.187L78.304 65.2911L75.3006 68.3428L75.0415 61.045L74.6288 65.5392L73.1578 64.8674L74.4487 66.3669L74.0953 71.6821L72.9295 70.2661L73.9328 72.7843L72.6704 98.8556Z" fill="#F0FFF4"/>
<path d="M55.8224 98.8556H57.2648L58.143 74.387L59.9982 70.1212L58.0508 72.9401L58.3384 70.187L61.456 65.2911L58.4526 68.3428L58.1935 61.045L57.7851 65.5392L56.312 64.8674L57.6051 66.3669L57.2516 71.6821L56.0858 70.2661L57.0892 72.7843L55.8224 98.8556Z" fill="#F0FFF4"/>
<path d="M66.8528 98.8556H68.293L69.1712 74.387L71.0286 70.1212L69.079 72.9401L69.3688 70.187L72.4842 65.2911L69.4808 68.3428L69.2217 61.045L68.8155 65.5392L67.3424 64.8674L68.6333 66.3669L68.282 71.6821L67.114 70.2661L68.1196 72.7843L66.8528 98.8556Z" fill="#F0FFF4"/>
<path d="M98.7939 98.855H100.236L101.115 67.0205L102.963 61.4528L101.016 65.1214L101.303 61.5384L104.421 55.1935L101.418 59.1453L101.158 49.6477L100.755 55.4921L99.2813 54.6139L100.572 56.5679L100.221 63.4836L99.0552 61.6416L100.059 64.9195L98.7939 98.855Z" fill="#1A202C"/>
<path d="M90.0674 98.8553H91.5076L92.3858 67.0209L94.2366 61.4532L92.287 65.1218L92.5768 61.5388L95.7054 55.1917L92.702 59.1435L92.4429 49.6459L92.0367 55.4924L90.5636 54.6142L91.8545 56.5682L91.5032 63.484L90.3352 61.642L91.3408 64.9198L90.0674 98.8553Z" fill="#A0AEC0"/>
<path d="M75.1088 98.8553H76.549L77.4272 67.0209L79.2758 61.4532L77.3262 65.1218L77.616 61.5388L80.7402 55.1917L77.7368 59.1435L77.4865 49.6459L77.0803 55.4924L75.6071 54.6142L76.8981 56.5682L76.5468 63.484L75.3788 61.642L76.3843 64.9198L75.1088 98.8553Z" fill="#1A202C"/>
<path d="M96.8323 100.965C96.3932 98.928 95.6599 96.3988 94.6478 95.4547C92.8453 93.7774 89.9143 96.4142 88.338 95.2154C86.7616 94.0167 90.1405 82.2775 84.733 81.5596C79.3255 80.8416 77.2969 92.8202 74.8182 94.0167C72.3395 95.2132 71.4372 90.9035 68.0583 90.6642C65.1032 90.4447 59.3928 98.849 58.0031 100.965H96.8323Z" fill="#276749"/>
<path opacity="0.25" d="M96.8323 100.965C96.3932 98.928 95.6599 96.3988 94.6478 95.4547C92.8453 93.7774 89.9143 96.4142 88.338 95.2154C86.7616 94.0167 90.1405 82.2775 84.733 81.5596C79.3255 80.8416 77.2969 92.8202 74.8182 94.0167C72.3395 95.2132 71.4372 90.9035 68.0583 90.6642C65.1032 90.4447 59.3928 98.849 58.0031 100.965H96.8323Z" fill="black"/>
<path d="M72.1019 50.6779C72.1019 50.6779 68.9821 50.6779 68.0731 55.7472C67.1642 60.8166 69.5024 62.1141 66.6417 64.7179C63.781 67.3218 63.3924 69.1396 64.8216 70.3098C66.2509 71.48 67.0325 72.7797 65.2124 74.7293C63.3924 76.6789 63.1311 79.5396 69.6319 81.3597C76.1328 83.1797 81.0726 78.7602 81.3338 75.77C81.5951 72.7797 79.3821 70.828 79.2525 68.358C79.123 65.8881 83.6742 63.5477 83.1539 60.1689C82.6336 56.7901 77.9528 58.0876 76.6531 55.4881C75.3534 52.8887 75.2216 50.6779 72.1019 50.6779Z" fill="#276749"/>
<path opacity="0.46" d="M72.1019 50.6779C72.1019 50.6779 68.9821 50.6779 68.0731 55.7472C67.1642 60.8166 69.5024 62.1141 66.6417 64.7179C63.781 67.3218 63.3924 69.1396 64.8216 70.3098C66.2509 71.48 67.0325 72.7797 65.2124 74.7293C63.3924 76.6789 63.1311 79.5396 69.6319 81.3597C76.1328 83.1797 81.0726 78.7602 81.3338 75.77C81.5951 72.7797 79.3821 70.828 79.2525 68.358C79.123 65.8881 83.6742 63.5477 83.1539 60.1689C82.6336 56.7901 77.9528 58.0876 76.6531 55.4881C75.3534 52.8887 75.2216 50.6779 72.1019 50.6779Z" fill="black"/>
<path d="M69.799 99.9508H70.9384L72.5499 68.2305L74.0121 63.8396L72.4752 66.7398L72.6948 63.9076L75.1581 58.8888L72.7848 62.0217L72.5784 54.5132L72.2579 59.1237L71.0921 58.4343L72.113 59.9711L71.8342 65.4379L70.9121 63.9823L71.7068 66.5729L69.799 99.9508Z" fill="#718096"/>
<path d="M52.5775 100.965C52.9112 99.0858 53.4557 96.7498 54.2219 95.8804C55.5787 94.3326 57.7808 96.7586 58.9686 95.6608C60.1563 94.5631 57.6117 83.7218 61.68 83.0588C65.7482 82.3958 67.274 93.45 69.1446 94.5565C71.0151 95.663 71.687 91.6804 74.2293 91.4609C76.4533 91.2677 80.7477 99.0155 81.7927 100.967L52.5775 100.965Z" fill="#276749"/>
<path opacity="0.46" d="M52.5775 100.965C52.9112 99.0858 53.4557 96.7498 54.2219 95.8804C55.5787 94.3326 57.7808 96.7586 58.9686 95.6608C60.1563 94.5631 57.6117 83.7218 61.68 83.0588C65.7482 82.3958 67.274 93.45 69.1446 94.5565C71.0151 95.663 71.687 91.6804 74.2293 91.4609C76.4533 91.2677 80.7477 99.0155 81.7927 100.967L52.5775 100.965Z" fill="black"/>
<path d="M68.0816 100.965C67.7809 99.6701 67.2869 98.0586 66.6019 97.4527C65.3812 96.3857 63.3987 98.063 62.3317 97.3012C61.2647 96.5394 63.5502 89.0638 59.8903 88.6071C56.2304 88.1504 54.8561 95.7753 53.1787 96.5372C51.5014 97.299 50.891 94.5612 48.6033 94.4032C46.6033 94.2692 42.737 99.6152 41.7974 100.961L68.0816 100.965Z" fill="#276749"/>
<path d="M26.2199 82.4466C26.2199 82.4466 23.2252 82.7628 18.9748 78.666C14.7243 74.5693 23.0737 60.0681 26.3823 56.9154C29.6909 53.7627 36.4815 73.937 33.948 77.7198C31.4144 81.5026 28.7447 82.2908 26.2199 82.4466Z" fill="#276749"/>
<path opacity="0.46" d="M26.2199 82.4466C26.2199 82.4466 23.2252 82.7628 18.9748 78.666C14.7243 74.5693 23.0737 60.0681 26.3823 56.9154C29.6909 53.7627 36.4815 73.937 33.948 77.7198C31.4144 81.5026 28.7447 82.2908 26.2199 82.4466Z" fill="black"/>
<path d="M24.9563 98.996L25.4306 77.8777L23.38 75.6712L25.5864 76.9314V73.1486L22.7499 69.8401L25.4306 71.8884L25.1144 69.21L25.9026 70.4702L26.3746 62.9045L26.6908 74.4088L31.8918 71.5723L26.6908 75.9852V78.0336V99.6261" fill="#1A202C"/>
<path d="M99.0712 64.8143C99.0712 64.8143 96.0766 65.1283 91.8261 61.0315C87.5757 56.9347 95.9273 42.4336 99.2205 39.2809C102.514 36.1282 109.32 56.3024 106.786 60.0853C104.253 63.8681 101.592 64.6562 99.0712 64.8143Z" fill="#276749"/>
<path d="M96.6552 98.0942L98.282 60.2442L96.2336 58.0377L98.4401 59.2979V55.5151L95.6013 52.2065L98.282 54.2549L97.9659 51.5764L98.754 52.8366L99.2283 45.271L99.5422 56.7775L104.743 53.9387L99.5422 58.3517V60.4022L98.3896 98.7243" fill="#C6F6D5"/>
<path d="M32.942 100.419C32.9057 100.243 32.8343 100.077 32.7321 99.9298C32.6298 99.7826 32.4989 99.6577 32.3471 99.5625C31.7587 99.2419 31.7587 99.5625 31.0627 99.3429C30.6017 99.2002 30.6939 98.1617 30.6565 97.8061C30.5402 96.7193 29.9386 95.7797 28.8299 95.4986C28.2784 95.3536 27.699 95.3512 27.1463 95.4918C26.5936 95.6323 26.0858 95.9112 25.6706 96.3022C24.3336 97.5865 24.4938 98.7172 23.6376 98.7633C22.7814 98.8094 22.3006 97.7468 20.8032 98.3879C19.8833 98.7831 19.4069 99.7403 19.1764 100.421L32.942 100.419Z" fill="#276749"/>
<path opacity="0.5" d="M32.942 100.419C32.9057 100.243 32.8343 100.077 32.7321 99.9298C32.6298 99.7826 32.4989 99.6577 32.3471 99.5625C31.7587 99.2419 31.7587 99.5625 31.0627 99.3429C30.6017 99.2002 30.6939 98.1617 30.6565 97.8061C30.5402 96.7193 29.9386 95.7797 28.8299 95.4986C28.2784 95.3536 27.699 95.3512 27.1463 95.4918C26.5936 95.6323 26.0858 95.9112 25.6706 96.3022C24.3336 97.5865 24.4938 98.7172 23.6376 98.7633C22.7814 98.8094 22.3006 97.7468 20.8032 98.3879C19.8833 98.7831 19.4069 99.7403 19.1764 100.421L32.942 100.419Z" fill="white"/>
<path d="M20.558 100.342C20.558 100.342 20.7951 99.3649 21.5942 99.2771C22.3934 99.1893 22.9554 100.491 24.141 99.3957C25.3266 98.3001 26.0357 95.5162 27.8733 95.6063C29.7109 95.6963 29.6802 97.9159 29.4716 98.8336C29.2631 99.7513 30.4793 99.7118 31.0085 99.602C31.5376 99.4923 32.1633 100.076 32.1633 100.432" stroke="#1A202C" stroke-width="0.140856" stroke-linecap="round" stroke-linejoin="round"/>
<path d="M22.2163 100.401L21.5663 99.8105" stroke="#1A202C" stroke-width="0.140856" stroke-linecap="round" stroke-linejoin="round"/>
<path d="M26.1853 100.432L27.9329 96.8793" stroke="#1A202C" stroke-width="0.140856" stroke-linecap="round" stroke-linejoin="round"/>
<path d="M27.0404 97.1449L27.249 98.3L28.6413 97.5292" stroke="#1A202C" stroke-width="0.140856" stroke-linecap="round" stroke-linejoin="round"/>
<path d="M25.9202 98.3286L26.6317 99.633L28.0218 99.1873" stroke="#1A202C" stroke-width="0.140856" stroke-linecap="round" stroke-linejoin="round"/>
<path d="M62.3526 100.054C62.3122 99.8604 62.233 99.6766 62.1198 99.514C62.0066 99.3514 61.8618 99.2133 61.6939 99.1081C61.0353 98.7524 61.0353 99.1081 60.2735 98.871C59.7641 98.7151 59.8651 97.5668 59.8234 97.1738C59.6961 95.9707 59.0308 94.9323 57.8035 94.6205C57.1916 94.4568 56.5481 94.4515 55.9335 94.6051C55.319 94.7587 54.7537 95.0662 54.2908 95.4987C52.811 96.9192 52.9889 98.1618 52.0426 98.2211C51.0964 98.2804 50.5629 97.097 48.9053 97.8061C47.8888 98.2452 47.3684 99.3013 47.1072 100.054H62.3526Z" fill="#276749"/>
<path opacity="0.5" d="M62.3526 100.054C62.3122 99.8604 62.233 99.6766 62.1198 99.514C62.0066 99.3514 61.8618 99.2133 61.6939 99.1081C61.0353 98.7524 61.0353 99.1081 60.2735 98.871C59.7641 98.7151 59.8651 97.5668 59.8234 97.1738C59.6961 95.9707 59.0308 94.9323 57.8035 94.6205C57.1916 94.4568 56.5481 94.4515 55.9335 94.6051C55.319 94.7587 54.7537 95.0662 54.2908 95.4987C52.811 96.9192 52.9889 98.1618 52.0426 98.2211C51.0964 98.2804 50.5629 97.097 48.9053 97.8061C47.8888 98.2452 47.3684 99.3013 47.1072 100.054H62.3526Z" fill="white"/>
<path d="M50.4898 100.033L49.7695 99.3783" stroke="#1A202C" stroke-width="0.155835" stroke-linecap="round" stroke-linejoin="round"/>
<path d="M54.8777 100.066L56.8097 96.1357" stroke="#1A202C" stroke-width="0.155835" stroke-linecap="round" stroke-linejoin="round"/>
<path d="M55.8262 96.4293L56.0546 97.7074L57.594 96.8553" stroke="#1A202C" stroke-width="0.155835" stroke-linecap="round" stroke-linejoin="round"/>
<path d="M54.5864 97.7405L55.3726 99.1833L56.912 98.6914" stroke="#1A202C" stroke-width="0.155835" stroke-linecap="round" stroke-linejoin="round"/>
<path d="M37.8958 35.7968C37.8958 35.7968 33.4016 35.7968 32.0909 43.0989C30.7802 50.4011 34.1503 52.2738 30.0316 56.0171C25.9128 59.7604 25.3508 62.384 27.4123 64.0679C29.4739 65.7519 30.5936 67.6246 27.9722 70.4348C25.3508 73.245 24.9776 77.3637 34.3391 79.9851C43.7006 82.6065 50.8052 76.2397 51.1894 71.9343C51.5736 67.629 48.3792 64.8188 48.1925 61.2621C48.0059 57.7054 54.5594 54.3354 53.8086 49.468C53.0577 44.6006 46.3198 46.4712 44.4493 42.7279C42.5787 38.9846 42.3899 35.7968 37.8958 35.7968Z" fill="#276749"/>
<path opacity="0.18" d="M37.8958 35.7968C37.8958 35.7968 33.4016 35.7968 32.0909 43.0989C30.7802 50.4011 34.1503 52.2738 30.0316 56.0171C25.9128 59.7604 25.3508 62.384 27.4123 64.0679C29.4739 65.7519 30.5936 67.6246 27.9722 70.4348C25.3508 73.245 24.9776 77.3637 34.3391 79.9851C43.7006 82.6065 50.8052 76.2397 51.1894 71.9343C51.5736 67.629 48.3792 64.8188 48.1925 61.2621C48.0059 57.7054 54.5594 54.3354 53.8086 49.468C53.0577 44.6006 46.3198 46.4712 44.4493 42.7279C42.5787 38.9846 42.3899 35.7968 37.8958 35.7968Z" fill="black"/>
<path d="M34.5719 106.755H36.2097L38.5303 61.0761L40.638 54.7377L38.4184 58.9091L38.7477 54.8299L42.2956 47.6046L38.875 52.1185L38.5808 41.3036L38.1176 47.9625L36.4403 46.9657L37.9112 49.1897L37.5094 57.0627L36.1922 54.966L37.336 58.6984L34.5719 106.755Z" fill="#1A202C"/>
<path d="M80.4755 40.0983C80.4755 40.0983 75.9857 40.2541 74.9297 47.598C73.8737 54.9419 77.3052 56.6939 73.3204 60.5799C69.3356 64.4659 68.8636 67.1048 70.98 68.7163C73.0965 70.3278 74.2842 72.161 71.7616 75.0591C69.239 77.9571 69.0107 82.0846 78.4556 84.3789C87.9006 86.6731 94.7922 80.0647 95.0161 75.7484C95.2401 71.4321 91.9622 68.7361 91.6505 65.1882C91.3387 61.6403 97.7714 58.0463 96.8537 53.2162C95.936 48.3862 89.2662 50.4829 87.2639 46.8054C85.2616 43.128 84.9652 39.9424 80.4755 40.0983Z" fill="#276749"/>
<g opacity="0.5">
<path d="M80.4773 40.0978C80.4773 40.0978 75.9875 40.2537 74.9315 47.5975C73.8755 54.9414 77.307 56.6934 73.3222 60.5794C69.3374 64.4654 68.8654 67.1044 70.9819 68.7158C73.0983 70.3273 74.286 72.1605 71.7634 75.0586C69.2408 77.9566 69.0125 82.0841 78.4575 84.3784C87.9024 86.6726 94.794 80.0643 95.0179 75.748C95.2419 71.4316 91.964 68.7356 91.6523 65.1877C91.3405 61.6398 97.7733 58.0458 96.8556 53.2158C95.9379 48.3857 89.268 50.4824 87.2657 46.805C85.2634 43.1275 84.9671 39.9419 80.4773 40.0978Z" fill="white"/>
</g>
<path d="M79.1603 102.425L80.8003 102.368L81.9902 65.3391L83.874 58.9239L81.8014 63.1744L81.988 59.0864L85.2813 51.7425L82.021 56.3706L81.3492 45.571L81.1164 52.2409L79.4062 51.3056L80.954 53.477L80.8266 61.3609L79.4259 59.3103L80.6971 62.9988L79.1603 102.425Z" fill="#1A202C"/>
<path d="M108.132 100.965C107.741 99.2746 107.098 97.1735 106.202 96.3897C104.613 94.9978 102.031 97.1867 100.635 96.1921C99.2382 95.1976 102.224 85.4497 97.4511 84.8525C92.6782 84.2553 90.8866 94.203 88.6978 95.1976C86.5089 96.1921 85.7141 92.6113 82.7304 92.4115C80.1222 92.2381 75.0814 99.2175 73.8541 100.974L108.132 100.965Z" fill="#276749"/>
<path d="M54.2402 101.4C54.3895 100.241 54.4707 98.1071 53.3027 96.9435C51.6452 95.2859 49.1599 97.9776 48.5386 97.9776C47.9172 97.9776 47.7087 96.3222 45.8447 94.871C43.9807 93.4198 41.7018 95.2859 40.4592 94.871C39.2166 94.456 41.4955 88.0364 37.9739 87.8301C34.4524 87.6237 33.2097 96.5286 30.7288 96.5286C28.2479 96.5286 27.8286 94.871 25.3433 96.3222C23.3959 97.4572 22.3399 100.243 21.9733 101.4H54.2402Z" fill="#276749"/>
<path opacity="0.25" d="M54.2402 101.4C54.3895 100.241 54.4707 98.1071 53.3027 96.9435C51.6452 95.2859 49.1599 97.9776 48.5386 97.9776C47.9172 97.9776 47.7087 96.3222 45.8447 94.871C43.9807 93.4198 41.7018 95.2859 40.4592 94.871C39.2166 94.456 41.4955 88.0364 37.9739 87.8301C34.4524 87.6237 33.2097 96.5286 30.7288 96.5286C28.2479 96.5286 27.8286 94.871 25.3433 96.3222C23.3959 97.4572 22.3399 100.243 21.9733 101.4H54.2402Z" fill="black"/>
<path d="M28.6558 101.121L26.4318 97.5094" stroke="#1A202C" stroke-width="0.155835" stroke-linecap="round" stroke-linejoin="round"/>
<path d="M36.6219 100.842L37.7329 90.3765" stroke="#1A202C" stroke-width="0.155835" stroke-linecap="round" stroke-linejoin="round"/>
<path d="M43.0146 101.029L44.1256 96.9545" stroke="#1A202C" stroke-width="0.155835" stroke-linecap="round" stroke-linejoin="round"/>
<path d="M50.8823 101.213L51.9954 98.3417" stroke="#1A202C" stroke-width="0.155835" stroke-linecap="round" stroke-linejoin="round"/>
<path d="M28.8398 97.6018L27.7288 99.547L25.136 98.5283" stroke="#1A202C" stroke-width="0.155835" stroke-linecap="round" stroke-linejoin="round"/>
<path d="M36.0656 91.2109L37.3609 93.5272L39.1217 91.3954" stroke="#1A202C" stroke-width="0.155835" stroke-linecap="round" stroke-linejoin="round"/>
<path d="M35.3262 94.9166L36.9947 96.954L38.6611 95.6565" stroke="#1A202C" stroke-width="0.155835" stroke-linecap="round" stroke-linejoin="round"/>
<path d="M43.6643 98.7131L45.8867 97.4175" stroke="#1A202C" stroke-width="0.155835" stroke-linecap="round" stroke-linejoin="round"/>
<path d="M43.4743 99.4551L42.3612 96.5834" stroke="#1A202C" stroke-width="0.155835" stroke-linecap="round" stroke-linejoin="round"/>
<path d="M51.4401 99.7321L50.8823 97.8787" stroke="#1A202C" stroke-width="0.155835" stroke-linecap="round" stroke-linejoin="round"/>
<path d="M51.252 100.103L52.8265 99.4553" stroke="#1A202C" stroke-width="0.155835" stroke-linecap="round" stroke-linejoin="round"/>
<path d="M62.3203 49.6198C61.6087 48.2368 60.6907 46.9701 59.5979 45.8633C58.8174 45.0731 57.8683 44.4697 56.8216 44.0982C55.7749 43.7268 54.6578 43.5969 53.5538 43.7183C49.1013 44.2233 47.8828 49.8986 46.6226 53.3499C43.6104 61.5939 39.8737 73.8205 51.1365 77.4211C55.9907 78.9733 62.6584 77.4211 64.6102 72.2178C66.2985 67.7171 66.2722 62.7619 65.2491 58.1119C64.6431 55.3917 63.7452 52.2939 62.3203 49.6198Z" fill="#276749"/>
<path d="M53.1115 106.693H54.7537L55.746 70.437L57.8515 64.0987L55.6319 68.2701L55.9656 64.1931L59.5135 56.9678L56.0973 61.4839L55.8031 50.6689L55.3377 57.3256L53.6603 56.3311L55.1313 58.5551L54.7295 66.4281L53.4122 64.3314L54.5539 68.0637L53.1115 106.693Z" fill="#1A202C"/>
<path d="M55.3749 84.0164L55.4056 82.9447C55.1443 82.9447 54.7732 83.0347 54.7732 83.43C54.7732 83.7572 55.0872 83.9285 55.3749 84.0164Z" fill="#2D3748"/>
<path d="M55.0458 71.7371C55.0458 72.0863 55.3993 72.2554 55.7046 72.3389L55.7353 71.2408C55.474 71.2518 55.0458 71.3133 55.0458 71.7371Z" fill="#2D3748"/>
<path d="M54.8403 76.6722C54.8403 77.0455 55.2466 77.2146 55.5606 77.2893L55.5914 76.1913C55.3476 76.1759 54.8403 76.2089 54.8403 76.6722Z" fill="#2D3748"/>
<path d="M55.4493 65.0471C55.535 64.7002 55.1243 64.687 54.8169 64.7221L54.762 65.8201C54.9903 65.684 55.3571 65.4117 55.4493 65.0471Z" fill="#2D3748"/>
<path d="M54.0973 100.395C54.0973 100.803 54.5826 100.968 54.9032 101.031L54.934 99.9181C54.7583 99.8983 54.0973 99.8676 54.0973 100.395Z" fill="#2D3748"/>
<path d="M54.9998 61.2033L54.9449 62.2793C55.2419 62.1155 55.4702 61.8506 55.5884 61.5327C55.6696 61.2033 55.3095 61.1747 54.9998 61.2033Z" fill="#2D3748"/>
<path d="M55.3109 58.0857C55.3109 58.4524 55.7062 58.6215 56.018 58.6984L55.9873 57.6003C55.7347 57.6069 55.3109 57.6662 55.3109 58.0857Z" fill="#2D3748"/>
<path d="M54.8713 93.2244C55.036 92.5656 54.1818 92.5832 53.6306 92.6601L53.5559 94.6562C53.9512 94.4301 54.6956 93.9228 54.8713 93.2244Z" fill="#2D3748"/>
<path d="M55.0504 95.3249C55.0504 95.3249 54.172 95.1909 54.172 95.7992C54.172 96.2384 54.721 96.3922 55.0372 96.458L55.0658 95.4171L55.0504 95.3249Z" fill="#2D3748"/>
<path d="M54.3699 86.9626C54.3699 87.4875 54.8091 87.7993 55.268 87.9794L55.3207 86.071C54.8706 86.1281 54.3699 86.3324 54.3699 86.9626Z" fill="#2D3748"/>
<path d="M53.9128 85.0615L53.8733 86.131C54.1659 85.968 54.3903 85.7054 54.5057 85.3909C54.5892 85.0505 54.2115 85.033 53.9128 85.0615Z" fill="#2D3748"/>
<path d="M54.3303 73.9019L54.2952 74.8198C54.4907 74.6742 54.6353 74.4705 54.708 74.2378C54.7717 73.9831 54.5653 73.9106 54.3303 73.9019Z" fill="#2D3748"/>
<path d="M54.5087 91.1361C54.6141 90.7166 53.986 90.7847 53.7005 90.8374L53.6566 92.0013C53.7884 91.9354 54.3879 91.617 54.5087 91.1361Z" fill="#2D3748"/>
<path d="M97.2294 33.0548C96.5185 31.6714 95.6005 30.4046 94.507 29.2984C93.7263 28.5078 92.7768 27.9042 91.7297 27.5328C90.6826 27.1613 89.565 27.0316 88.4607 27.1534C84.0104 27.6561 82.7898 33.3336 81.5295 36.7827C78.5108 45.029 74.7741 57.2556 86.0456 60.8562C90.902 62.4084 97.5697 60.8562 99.5193 55.6529C101.208 51.15 101.181 46.197 100.16 41.5469C99.5522 38.8267 98.6543 35.7289 97.2294 33.0548Z" fill="#276749"/>
<path opacity="0.18" d="M97.2294 33.0548C96.5185 31.6714 95.6005 30.4046 94.507 29.2984C93.7263 28.5078 92.7768 27.9042 91.7297 27.5328C90.6826 27.1613 89.565 27.0316 88.4607 27.1534C84.0104 27.6561 82.7898 33.3336 81.5295 36.7827C78.5108 45.029 74.7741 57.2556 86.0456 60.8562C90.902 62.4084 97.5697 60.8562 99.5193 55.6529C101.208 51.15 101.181 46.197 100.16 41.5469C99.5522 38.8267 98.6543 35.7289 97.2294 33.0548Z" fill="black"/>
<path d="M87.3938 100.418H89.036L90.6585 53.8743L92.7639 47.536L90.5465 51.7074L90.878 47.6326L94.4281 40.4072L91.0076 44.9189L90.7177 34.115L90.2523 40.7717L88.5772 39.7771L90.0459 42.0011L89.6464 49.8741L88.3181 47.7775L89.4597 51.5098L87.3938 100.418Z" fill="#1A202C"/>
<path d="M89.6649 58.0312C89.7483 57.704 89.498 57.592 89.1993 57.5789L89.1488 58.7801C89.3924 58.5882 89.5723 58.3272 89.6649 58.0312Z" fill="#2C3A2B"/>
<path d="M88.4308 76.7404L88.3759 78.1832C88.6855 77.9856 89.1159 77.6364 89.2301 77.184C89.3443 76.7316 88.837 76.7075 88.4308 76.7404Z" fill="#2C3A2B"/>
<path d="M89.9121 44.5833L89.8396 46.0239C90.1492 45.824 90.5731 45.4792 90.6851 45.0291C90.7971 44.5789 90.3161 44.5481 89.9121 44.5833Z" fill="#2C3A2B"/>
<path d="M89.5012 62.1539C89.5234 62.0824 89.5234 62.0058 89.5012 61.9343C89.8147 61.6337 90.0421 61.2547 90.1598 60.8366C90.3267 60.1779 89.7207 60.0177 89.1016 60.0265L88.9808 62.9025C89.2255 62.7109 89.4068 62.45 89.5012 62.1539Z" fill="#2C3A2B"/>
<path d="M90.904 41.0907L90.8667 39.7731C90.7147 39.7889 90.5741 39.861 90.4726 39.9752C90.371 40.0894 90.3158 40.2374 90.3177 40.3902C90.3177 40.7393 90.5922 40.9567 90.904 41.0907Z" fill="#2C3A2B"/>
<path d="M89.2777 50.9157C89.4067 50.7883 89.5129 50.6398 89.5917 50.4765L89.5741 50.8015C89.8838 50.6126 90.3801 50.2459 90.5008 49.7562C90.6216 49.2665 90.0814 49.2709 89.6685 49.317L89.6422 49.855L89.6246 49.8265V49.978C89.5016 49.833 89.2206 49.8133 88.9658 49.8308L89.2777 50.9157Z" fill="#2C3A2B"/>
<path d="M90.0338 47.6465C90.0338 48.0857 90.4379 48.3053 90.82 48.4283L90.8573 47.9627L90.8859 46.9943C90.5345 47.0052 90.0338 47.1128 90.0338 47.6465Z" fill="#2C3A2B"/>
<path d="M88.0809 86.0939C88.2588 86.0061 89.0669 85.5756 89.2295 84.9278C89.37 84.3612 88.5245 84.4535 88.1314 84.5238L88.0809 86.0939Z" fill="#2C3A2B"/>
<path d="M89.5938 74.543C89.5968 74.657 89.6283 74.7683 89.6854 74.867C89.7426 74.9656 89.8236 75.0482 89.921 75.1074L89.9606 73.983C89.8481 74.0256 89.752 74.1027 89.6861 74.2034C89.6202 74.304 89.5879 74.4229 89.5938 74.543Z" fill="#2C3A2B"/>
<path d="M90.3235 63.6704C90.0665 63.6462 89.2123 63.6177 89.2123 64.316C89.2123 64.6827 89.5021 64.9023 89.825 65.0341C89.729 65.1446 89.6787 65.2875 89.6844 65.4338C89.6844 65.7763 89.9392 65.9916 90.2378 66.1255L90.3235 63.6704Z" fill="#2C3A2B"/>
<path d="M89.9591 58.7835C89.9689 58.9334 90.0227 59.077 90.1137 59.1966C90.2047 59.3161 90.3289 59.4061 90.4708 59.4554L90.5169 58.1642C90.3632 58.1785 90.2205 58.2502 90.1171 58.3649C90.0138 58.4796 89.9574 58.6291 89.9591 58.7835Z" fill="#2C3A2B"/>
<path d="M90.553 51.712L90.5903 51.2333C90.0369 51.3409 89.4923 51.6395 89.4923 52.4059C89.4923 53.1153 90.0742 53.5325 90.7023 53.7785L90.7704 51.3189L90.553 51.712Z" fill="#2C3A2B"/>
<path d="M89.0457 79.3027C89.0538 79.5317 89.1214 79.7547 89.2419 79.9495C89.3625 80.1444 89.5317 80.3045 89.733 80.4139L89.8099 78.2179C89.5796 78.2873 89.3792 78.4318 89.2407 78.6285C89.1021 78.8251 89.0335 79.0625 89.0457 79.3027Z" fill="#2C3A2B"/>
<path d="M89.4569 88.344L89.5008 87.1057C89.1561 86.8862 88.5194 86.9257 88.0474 86.9915L87.9464 89.6612C88.5441 89.3436 89.0609 88.8929 89.4569 88.344Z" fill="#2C3A2B"/>
<path d="M89.159 96.8074C89.0213 96.8344 88.8977 96.9096 88.8104 97.0194C88.7231 97.1293 88.6777 97.2666 88.6825 97.4069C88.6891 97.5429 88.7338 97.6742 88.8114 97.7861C88.8891 97.8979 88.9966 97.9856 89.1217 98.0393L89.159 96.8074Z" fill="#2C3A2B"/>
<path d="M88.7717 91.2134C88.7717 91.5582 89.0309 91.7734 89.3317 91.9073L89.3778 90.5897C89.077 90.638 88.7717 90.7961 88.7717 91.2134Z" fill="#2C3A2B"/>
<path d="M38.097 55.9249C38.097 55.9249 34.5733 56.9019 32.694 61.0975C30.8146 65.293 33.8466 68.5906 32.3822 72.7686C30.9178 76.9466 26.7662 79.0499 30.4765 82.3146C34.1869 85.5792 38.8962 80.4396 41.3859 80.8787C43.8755 81.3178 44.0709 85.8339 50.8418 83.8909C57.6127 81.9479 55.4523 76.1475 52.8572 73.5173C50.2622 70.8871 52.2776 66.5488 50.5147 60.7286C49.1601 56.263 42.9534 54.0653 38.097 55.9249Z" fill="#276749"/>
<path opacity="0.5" d="M38.097 55.9249C38.097 55.9249 34.5733 56.9019 32.694 61.0975C30.8146 65.293 33.8466 68.5906 32.3822 72.7686C30.9178 76.9466 26.7662 79.0499 30.4765 82.3146C34.1869 85.5792 38.8962 80.4396 41.3859 80.8787C43.8755 81.3178 44.0709 85.8339 50.8418 83.8909C57.6127 81.9479 55.4523 76.1475 52.8572 73.5173C50.2622 70.8871 52.2776 66.5488 50.5147 60.7286C49.1601 56.263 42.9534 54.0653 38.097 55.9249Z" fill="white"/>
<path d="M40.8522 109.427L42.0026 76.1874L34.0791 70.6372L42.0904 75.0874L42.1541 70.2837L40.3867 67.4823L42.3868 69.3133L42.9313 62.9816L43.3506 72.5626L48.9754 69.4363L43.4231 74.2049L43.2716 80.1107L47.8579 78.4004L43.1947 81.4851L42.4944 109.354L40.8522 109.427Z" fill="#1A202C"/>
<path d="M42.5789 79.5201C42.7978 79.6382 43.0507 79.677 43.2948 79.6299L43.3212 78.6263C43.0181 78.7867 42.1397 79.3005 42.5789 79.5201Z" fill="#2D3748"/>
<path d="M41.2956 96.6072L41.2671 97.4329V97.6108C41.5496 97.4479 41.8126 97.2534 42.0511 97.031C42.2926 96.7829 41.7656 96.6643 41.2956 96.6072Z" fill="#2D3748"/>
<path d="M41.6078 87.63L41.577 88.5567C41.8209 88.4093 42.0484 88.2363 42.2556 88.0407C42.4862 87.8101 42.047 87.6849 41.6078 87.63Z" fill="#2D3748"/>
<path d="M41.4501 92.133C41.7395 91.9682 42.0085 91.7699 42.2516 91.5422C42.5042 91.2897 41.9574 91.1711 41.4852 91.1162L41.4698 91.54L41.4501 92.133Z" fill="#2D3748"/>
<path d="M42.1222 72.7557V73.1949C42.34 73.0597 42.5431 72.9022 42.7283 72.725C42.9479 72.5054 42.5548 72.3846 42.1332 72.3209L42.1222 72.7557Z" fill="#2D3748"/>
<path d="M41.9467 77.8493C42.4009 77.5889 42.8231 77.2764 43.205 76.9182C43.6046 76.5207 42.7504 76.3319 42.0016 76.244L41.9467 77.8493Z" fill="#2D3748"/>
<path d="M42.515 89.9223C42.6595 89.9971 42.8182 90.0405 42.9806 90.0497L43.0026 89.1713C42.6402 89.3997 42.1703 89.751 42.515 89.9223Z" fill="#2D3748"/>
<path d="M42.3341 86.5742C42.5637 86.6912 42.8083 86.7762 43.061 86.8268L43.1049 85.0699C42.3539 85.5772 41.6467 86.2316 42.3341 86.5742Z" fill="#2D3748"/>
<path d="M42.1957 93.7029C42.4086 93.8148 42.6447 93.8757 42.8852 93.8808L42.9159 92.651C42.4153 92.9541 41.7103 93.4591 42.1957 93.7029Z" fill="#2D3748"/>
<path d="M42.8163 96.5772L42.8405 95.5934C42.5067 95.7778 41.7424 96.2522 42.1487 96.4564C42.3529 96.5661 42.5866 96.6084 42.8163 96.5772Z" fill="#2D3748"/>
<path d="M41.7593 83.2938L41.7263 84.2645C41.9927 84.1089 42.2403 83.9232 42.4642 83.7111C42.7057 83.4607 42.216 83.3399 41.7593 83.2938Z" fill="#2D3748"/>
<path d="M62.1584 106.755C62.1186 106.561 62.0396 106.377 61.9264 106.214C61.8132 106.051 61.668 105.913 61.4997 105.809C60.8411 105.453 60.8411 105.809 60.0792 105.572C59.5699 105.416 59.6709 104.254 59.6292 103.872C59.5018 102.671 58.8366 101.633 57.6093 101.321C56.9975 101.156 56.3536 101.15 55.7388 101.304C55.124 101.457 54.5587 101.766 54.0966 102.199C52.6168 103.62 52.7946 104.862 51.8484 104.92C50.9021 104.977 50.3686 103.795 48.7111 104.507C47.6946 104.946 47.1742 106.002 46.913 106.755H62.1584Z" fill="#276749"/>
<path opacity="0.5" d="M62.1584 106.755C62.1186 106.561 62.0396 106.377 61.9264 106.214C61.8132 106.051 61.668 105.913 61.4997 105.809C60.8411 105.453 60.8411 105.809 60.0792 105.572C59.5699 105.416 59.6709 104.254 59.6292 103.872C59.5018 102.671 58.8366 101.633 57.6093 101.321C56.9975 101.156 56.3536 101.15 55.7388 101.304C55.124 101.457 54.5587 101.766 54.0966 102.199C52.6168 103.62 52.7946 104.862 51.8484 104.92C50.9021 104.977 50.3686 103.795 48.7111 104.507C47.6946 104.946 47.1742 106.002 46.913 106.755H62.1584Z" fill="white"/>
<path d="M50.2882 106.733L49.5679 106.079" stroke="#1A202C" stroke-width="0.155835" stroke-linecap="round" stroke-linejoin="round"/>
<path d="M54.6798 106.766L56.614 102.836" stroke="#1A202C" stroke-width="0.155835" stroke-linecap="round" stroke-linejoin="round"/>
<path d="M55.6283 103.13L55.8567 104.408L57.3983 103.556" stroke="#1A202C" stroke-width="0.155835" stroke-linecap="round" stroke-linejoin="round"/>
<path d="M54.3848 104.441L55.1709 105.881L56.7103 105.389" stroke="#1A202C" stroke-width="0.155835" stroke-linecap="round" stroke-linejoin="round"/>
<path d="M49.8199 109.554C49.6552 108.908 49.2666 107.949 48.3599 107.455C46.9153 106.667 46.9153 107.455 45.2094 106.93C44.0787 106.581 44.3027 104.034 44.2105 103.163C43.9272 100.495 42.4541 98.19 39.7273 97.5028C36.9698 96.8046 34.019 97.4589 31.9509 99.448C28.6709 102.598 29.0638 105.354 26.9628 105.486C24.8617 105.617 23.6937 102.991 20.0119 104.566C17.7659 105.534 16.5913 107.883 16.0249 109.554H49.8199Z" fill="#276749"/>
<path d="M23.5085 109.506L21.9098 108.055" stroke="#1A202C" stroke-width="0.155835" stroke-linecap="round" stroke-linejoin="round"/>
<path d="M33.2463 109.581L37.5341 100.86" stroke="#1A202C" stroke-width="0.155835" stroke-linecap="round" stroke-linejoin="round"/>
<path d="M44.4336 109.361L45.8127 108.489" stroke="#1A202C" stroke-width="0.155835" stroke-linecap="round" stroke-linejoin="round"/>
<path d="M35.3523 101.515L35.8616 104.349L39.2756 102.459" stroke="#1A202C" stroke-width="0.155835" stroke-linecap="round" stroke-linejoin="round"/>
<path d="M32.5891 104.421L34.3345 107.618L37.7485 106.529" stroke="#1A202C" stroke-width="0.155835" stroke-linecap="round" stroke-linejoin="round"/>
<path d="M23.4384 107.69L23.1463 109.289L21.5476 108.999" stroke="#1A202C" stroke-width="0.155835" stroke-linecap="round" stroke-linejoin="round"/>
<path d="M44.8713 108.999L44.6539 108.2" stroke="#1A202C" stroke-width="0.155835" stroke-linecap="round" stroke-linejoin="round"/>
<path d="M35.3409 101.649C35.4707 101.649 35.5759 101.543 35.5759 101.414C35.5759 101.284 35.4707 101.179 35.3409 101.179C35.2112 101.179 35.106 101.284 35.106 101.414C35.106 101.543 35.2112 101.649 35.3409 101.649Z" fill="#1A202C"/>
<path d="M37.7635 100.858C37.7666 100.905 37.7555 100.951 37.7319 100.992C37.7082 101.032 37.6729 101.065 37.6306 101.085C37.5883 101.105 37.5409 101.112 37.4944 101.106C37.448 101.099 37.4048 101.078 37.3702 101.046C37.3356 101.015 37.3113 100.973 37.3005 100.928C37.2896 100.882 37.2926 100.834 37.3092 100.79C37.3258 100.746 37.3551 100.708 37.3934 100.681C37.4317 100.654 37.4772 100.639 37.5241 100.638C37.5848 100.636 37.6438 100.658 37.6885 100.699C37.7332 100.74 37.7601 100.797 37.7635 100.858Z" fill="#1A202C"/>
<path d="M39.4857 102.592C39.6155 102.592 39.7207 102.487 39.7207 102.357C39.7207 102.227 39.6155 102.122 39.4857 102.122C39.3559 102.122 39.2507 102.227 39.2507 102.357C39.2507 102.487 39.3559 102.592 39.4857 102.592Z" fill="#1A202C"/>
<path d="M38.1113 106.487C38.1117 106.534 38.0983 106.579 38.0726 106.618C38.047 106.657 38.0103 106.688 37.9673 106.706C37.9242 106.724 37.8768 106.729 37.831 106.72C37.7852 106.711 37.7432 106.688 37.7102 106.655C37.6772 106.622 37.6548 106.58 37.6458 106.534C37.6368 106.489 37.6416 106.441 37.6597 106.398C37.6777 106.355 37.7082 106.319 37.7472 106.293C37.7861 106.267 37.8319 106.254 37.8785 106.254C37.9401 106.255 37.999 106.279 38.0425 106.323C38.086 106.367 38.1107 106.425 38.1113 106.487Z" fill="#1A202C"/>
<path d="M32.5702 104.614C32.7 104.614 32.8052 104.509 32.8052 104.379C32.8052 104.25 32.7 104.144 32.5702 104.144C32.4404 104.144 32.3352 104.25 32.3352 104.379C32.3352 104.509 32.4404 104.614 32.5702 104.614Z" fill="#1A202C"/>
<path d="M44.6536 108.435C44.7833 108.435 44.8885 108.329 44.8885 108.2C44.8885 108.07 44.7833 107.965 44.6536 107.965C44.5238 107.965 44.4186 108.07 44.4186 108.2C44.4186 108.329 44.5238 108.435 44.6536 108.435Z" fill="#1A202C"/>
<path d="M46.0312 108.438C46.0317 108.485 46.0182 108.531 45.9927 108.569C45.9671 108.608 45.9306 108.639 45.8877 108.657C45.8448 108.675 45.7975 108.68 45.7518 108.671C45.706 108.662 45.664 108.64 45.6309 108.607C45.5978 108.575 45.5752 108.533 45.566 108.487C45.5567 108.442 45.5612 108.394 45.579 108.351C45.5967 108.308 45.6268 108.271 45.6655 108.245C45.7042 108.219 45.7497 108.206 45.7962 108.206C45.8582 108.206 45.9176 108.23 45.9616 108.274C46.0056 108.317 46.0306 108.376 46.0312 108.438Z" fill="#1A202C"/>
<path d="M23.4368 107.925C23.5665 107.925 23.6717 107.82 23.6717 107.69C23.6717 107.56 23.5665 107.455 23.4368 107.455C23.307 107.455 23.2018 107.56 23.2018 107.69C23.2018 107.82 23.307 107.925 23.4368 107.925Z" fill="#1A202C"/>
<path d="M22.0698 107.932C22.0698 107.978 22.056 108.024 22.0302 108.062C22.0044 108.101 21.9677 108.131 21.9247 108.149C21.8818 108.167 21.8346 108.171 21.789 108.162C21.7434 108.153 21.7015 108.131 21.6687 108.098C21.6358 108.065 21.6134 108.023 21.6044 107.978C21.5953 107.932 21.6 107.885 21.6177 107.842C21.6355 107.799 21.6656 107.762 21.7043 107.736C21.7429 107.711 21.7884 107.697 21.8348 107.697C21.8971 107.697 21.9569 107.722 22.001 107.766C22.045 107.81 22.0698 107.869 22.0698 107.932Z" fill="#1A202C"/>
<path d="M21.4427 109.22C21.5725 109.22 21.6777 109.115 21.6777 108.985C21.6777 108.855 21.5725 108.75 21.4427 108.75C21.313 108.75 21.2078 108.855 21.2078 108.985C21.2078 109.115 21.313 109.22 21.4427 109.22Z" fill="#1A202C"/>
<path d="M70.1374 100.269C70.1374 100.269 59.8186 100.869 60.8637 101.466C61.9087 102.063 70.2867 102.812 68.9408 104.32C67.595 105.828 50.9906 109.853 50.9906 109.853" stroke="#1A202C" stroke-width="0.155835" stroke-linecap="round" stroke-linejoin="round"/>
<path d="M75.8244 100.269C75.8244 100.269 71.934 100.869 72.5312 101.317C73.1284 101.764 100.194 102.364 98.5564 110.142" stroke="#1A202C" stroke-width="0.155835" stroke-linecap="round" stroke-linejoin="round"/>
<path d="M94.0647 82.6024C94.0647 82.6024 90.5058 82.9778 85.4518 78.1105C80.3978 73.2431 90.3192 56.0174 94.2513 52.2741C98.1834 48.5308 106.245 72.4922 103.237 76.9864C100.23 81.4805 97.0593 82.4158 94.0647 82.6024Z" fill="#276749"/>
<path d="M92.5634 102.26L93.1255 77.1727L90.6929 74.5535L93.3143 76.0508V71.5566L89.9442 67.6245L93.1255 70.0593L92.7522 66.8759L93.6875 68.3732L94.2495 59.3871L94.6228 73.0539L100.803 69.6839L94.6228 74.9267V77.3615V103.009" fill="#1A202C"/>
<path d="M93.9337 91.4167C94.0918 91.0215 93.0838 90.9775 92.8159 90.9622L92.7896 92.1612C93.1409 92.0206 93.8019 91.7396 93.9337 91.4167Z" fill="#2D3748"/>
<path d="M94.6247 81.2812C94.1131 81.4086 93.0655 81.7205 93.3708 82.0191C93.6124 82.2585 94.1965 82.3551 94.6247 82.3924V81.2812Z" fill="#2D3748"/>
<path d="M94.0115 84.6597C94.1718 84.26 92.9706 84.26 92.9706 84.26V84.2798L92.9464 85.3339C93.2297 85.2328 93.8863 84.9715 94.0115 84.6597Z" fill="#2D3748"/>
<path d="M93.9318 79.4585C94.0503 79.1599 93.4157 79.083 93.0841 79.0632L93.0621 80.058C93.3806 79.9285 93.8307 79.7089 93.9318 79.4585Z" fill="#2D3748"/>
<path d="M92.7496 96.8751L92.6705 97.4307L92.6552 98.1203C92.9297 98.028 93.7817 97.7118 93.9332 97.3297C94.1155 96.8751 92.7496 96.8751 92.7496 96.8751Z" fill="#2D3748"/>
<path d="M93.2065 88.4032C93.4788 88.6755 94.1354 88.7831 94.6229 88.8292V87.5665C94.0366 87.7137 92.8617 88.0584 93.2065 88.4032Z" fill="#2D3748"/>
<path d="M93.2889 76.8172C93.5436 77.0719 94.1892 77.1642 94.6219 77.1971V76.0596C94.1497 76.1716 92.9661 76.4878 93.2889 76.8172Z" fill="#2D3748"/>
<path d="M94.5338 69.6824C94.0089 69.8361 93.3655 70.082 93.6136 70.3412C93.8003 70.5278 94.1934 70.6267 94.5623 70.6816L94.5338 69.6824Z" fill="#2D3748"/>
<path d="M94.6253 93.4878C94.039 93.6349 92.8685 93.9797 93.2089 94.3245C93.4812 94.5968 94.1378 94.7066 94.6253 94.7505V93.4878Z" fill="#2D3748"/>
<path d="M93.316 72.5781V73.6037C93.6345 73.4807 94.1439 73.2457 94.2515 72.9756C94.3899 72.6484 93.6015 72.5891 93.316 72.5781Z" fill="#2D3748"/>
<path d="M106.241 102.535C106.404 101.053 105.199 99.4615 103.673 99.3847C102.303 99.3188 100.797 100.239 99.6549 99.4791C98.7219 98.8577 98.7021 97.5317 98.5967 96.4054C98.4913 95.2791 98.184 94.1638 97.4551 93.3317C96.7262 92.4996 95.5011 92.0144 94.456 92.3964C92.3506 93.1714 92.221 96.6249 90.0651 97.2616C88.5766 97.7007 87.0244 96.4647 85.4963 96.7391C83.6258 97.0728 82.7805 99.1431 81.3446 100.155C81.1954 100.261 80.5718 100.713 79.8561 101.235C79.2567 101.675 78.5937 102.16 78.0997 102.535H106.241Z" fill="#276749"/>
<path opacity="0.5" d="M106.241 102.535C106.404 101.053 105.199 99.4615 103.673 99.3847C102.303 99.3188 100.797 100.239 99.6549 99.4791C98.7219 98.8577 98.7021 97.5317 98.5967 96.4054C98.4913 95.2791 98.184 94.1638 97.4551 93.3317C96.7262 92.4996 95.5011 92.0144 94.456 92.3964C92.3506 93.1714 92.221 96.6249 90.0651 97.2616C88.5766 97.7007 87.0244 96.4647 85.4963 96.7391C83.6258 97.0728 82.7805 99.1431 81.3446 100.155C81.1954 100.261 80.5718 100.713 79.8561 101.235C79.2567 101.675 78.5937 102.16 78.0997 102.535H106.241Z" fill="white"/>
<path d="M88.7841 102.412L87.6029 98.9611" stroke="#1A202C" stroke-width="0.155835" stroke-linecap="round" stroke-linejoin="round"/>
<path d="M92.9613 102.504L95.4137 95.8739" stroke="#1A202C" stroke-width="0.155835" stroke-linecap="round" stroke-linejoin="round"/>
<path d="M101.859 102.504L103.313 101.141" stroke="#1A202C" stroke-width="0.155835" stroke-linecap="round" stroke-linejoin="round"/>
<path d="M88.458 101.596L89.2376 99.5076" stroke="#1A202C" stroke-width="0.155835" stroke-linecap="round" stroke-linejoin="round"/>
<path d="M88.3079 101.086L85.6052 100.415" stroke="#1A202C" stroke-width="0.155835" stroke-linecap="round" stroke-linejoin="round"/>
<path d="M94.6851 97.8726L93.9583 96.6912" stroke="#1A202C" stroke-width="0.155835" stroke-linecap="round" stroke-linejoin="round"/>
<path d="M93.9583 99.6878L96.5906 98.2366" stroke="#1A202C" stroke-width="0.155835" stroke-linecap="round" stroke-linejoin="round"/>
<path d="M93.1742 101.993L95.5942 101.141" stroke="#1A202C" stroke-width="0.155835" stroke-linecap="round" stroke-linejoin="round"/>
<path d="M93.504 101.051L91.9606 98.3267" stroke="#1A202C" stroke-width="0.155835" stroke-linecap="round" stroke-linejoin="round"/>
<path d="M95.6455 95.8741C95.6455 95.9207 95.6316 95.9662 95.6057 96.0049C95.5798 96.0436 95.543 96.0737 95.4999 96.0914C95.4569 96.1091 95.4095 96.1137 95.3639 96.1044C95.3182 96.0952 95.2764 96.0726 95.2436 96.0395C95.2108 96.0064 95.1886 95.9643 95.1798 95.9186C95.171 95.8729 95.1759 95.8256 95.1941 95.7827C95.2122 95.7398 95.2426 95.7033 95.2816 95.6777C95.3205 95.6521 95.3661 95.6387 95.4127 95.6392C95.4435 95.6392 95.4739 95.6453 95.5023 95.6571C95.5307 95.6689 95.5564 95.6863 95.5781 95.7081C95.5997 95.73 95.6168 95.7559 95.6284 95.7844C95.64 95.8129 95.6458 95.8434 95.6455 95.8741Z" fill="#1A202C"/>
<path d="M94.1706 96.6709C94.1706 96.7174 94.1569 96.7628 94.131 96.8014C94.1052 96.8401 94.0685 96.8702 94.0256 96.888C93.9826 96.9058 93.9354 96.9104 93.8898 96.9014C93.8442 96.8923 93.8024 96.8699 93.7695 96.8371C93.7366 96.8042 93.7143 96.7623 93.7052 96.7167C93.6961 96.6712 93.7008 96.6239 93.7186 96.581C93.7364 96.538 93.7665 96.5013 93.8051 96.4755C93.8438 96.4497 93.8892 96.4359 93.9357 96.4359C93.9666 96.4356 93.9973 96.4415 94.0259 96.4532C94.0546 96.4649 94.0806 96.4822 94.1025 96.5041C94.1243 96.526 94.1416 96.552 94.1533 96.5806C94.165 96.6093 94.1709 96.64 94.1706 96.6709Z" fill="#1A202C"/>
<path d="M96.5942 98.4713C96.724 98.4713 96.8292 98.3661 96.8292 98.2363C96.8292 98.1065 96.724 98.0013 96.5942 98.0013C96.4645 98.0013 96.3593 98.1065 96.3593 98.2363C96.3593 98.3661 96.4645 98.4713 96.5942 98.4713Z" fill="#1A202C"/>
<path d="M91.9603 98.5614C92.0901 98.5614 92.1953 98.4562 92.1953 98.3264C92.1953 98.1966 92.0901 98.0914 91.9603 98.0914C91.8305 98.0914 91.7253 98.1966 91.7253 98.3264C91.7253 98.4562 91.8305 98.5614 91.9603 98.5614Z" fill="#1A202C"/>
<path d="M95.7168 101.341C95.8466 101.341 95.9518 101.236 95.9518 101.106C95.9518 100.976 95.8466 100.871 95.7168 100.871C95.587 100.871 95.4818 100.976 95.4818 101.106C95.4818 101.236 95.587 101.341 95.7168 101.341Z" fill="#1A202C"/>
<path d="M103.222 101.433C103.352 101.433 103.457 101.328 103.457 101.198C103.457 101.069 103.352 100.963 103.222 100.963C103.092 100.963 102.987 101.069 102.987 101.198C102.987 101.328 103.092 101.433 103.222 101.433Z" fill="#1A202C"/>
<path d="M87.8376 98.9609C87.838 99.0075 87.8246 99.0531 87.7991 99.0921C87.7735 99.131 87.737 99.1615 87.6941 99.1796C87.6512 99.1977 87.6039 99.2027 87.5582 99.1939C87.5124 99.185 87.4704 99.1628 87.4373 99.1301C87.4042 99.0973 87.3816 99.0554 87.3724 99.0098C87.3631 98.9641 87.3676 98.9168 87.3853 98.8737C87.4031 98.8307 87.4332 98.7938 87.4719 98.7679C87.5106 98.742 87.5561 98.7282 87.6026 98.7281C87.6646 98.7281 87.724 98.7526 87.768 98.7962C87.812 98.8398 87.837 98.899 87.8376 98.9609Z" fill="#1A202C"/>
<path d="M89.1971 99.7492C89.3269 99.7492 89.4321 99.644 89.4321 99.5143C89.4321 99.3845 89.3269 99.2793 89.1971 99.2793C89.0674 99.2793 88.9622 99.3845 88.9622 99.5143C88.9622 99.644 89.0674 99.7492 89.1971 99.7492Z" fill="#1A202C"/>
<path d="M85.6086 100.649C85.7384 100.649 85.8436 100.544 85.8436 100.414C85.8436 100.284 85.7384 100.179 85.6086 100.179C85.4789 100.179 85.3737 100.284 85.3737 100.414C85.3737 100.544 85.4789 100.649 85.6086 100.649Z" fill="#1A202C"/>
<path d="M112.995 105.807C112.947 105.57 112.852 105.345 112.714 105.147C112.576 104.948 112.399 104.78 112.194 104.652C111.399 104.213 111.399 104.652 110.462 104.364C109.841 104.173 109.964 102.773 109.913 102.292C109.757 100.827 108.945 99.5606 107.448 99.1808C106.702 98.9799 105.918 98.9726 105.169 99.1597C104.42 99.3468 103.732 99.7221 103.169 100.25C101.364 101.982 101.581 103.497 100.426 103.57C99.2716 103.642 98.6217 102.2 96.6019 103.065C95.3614 103.596 94.7203 104.887 94.4064 105.807H112.995Z" fill="#276749"/>
<path d="M98.5297 105.78L97.6512 104.981" stroke="#1A202C" stroke-width="0.155835" stroke-linecap="round" stroke-linejoin="round"/>
<path d="M103.88 105.82L106.238 101.027" stroke="#1A202C" stroke-width="0.155835" stroke-linecap="round" stroke-linejoin="round"/>
<path d="M105.045 101.387L105.324 102.944L107.201 101.905" stroke="#1A202C" stroke-width="0.155835" stroke-linecap="round" stroke-linejoin="round"/>
<path d="M103.525 102.985L104.482 104.742L106.359 104.142" stroke="#1A202C" stroke-width="0.155835" stroke-linecap="round" stroke-linejoin="round"/>
</svg>
