<svg width="61" height="61" viewBox="0 0 61 61" fill="none" xmlns="http://www.w3.org/2000/svg">
<path fill-rule="evenodd" clip-rule="evenodd" d="M0.893555 13.6415H60.1064L32.2871 0.893555H28.7129L0.893555 13.6415ZM30.5 10.0673C29.184 10.0673 28.1172 9.00048 28.1172 7.68445C28.1172 6.36842 29.184 5.30164 30.5 5.30164C31.816 5.30164 32.8828 6.36842 32.8828 7.68445C32.8828 9.00048 31.816 10.0673 30.5 10.0673Z" fill="#DECBA0"/>
<path d="M30.8772 10.0412C32.176 9.83061 33.0583 8.60697 32.8477 7.30809C32.6372 6.0092 31.4135 5.12694 30.1147 5.3375C28.8158 5.54806 27.9335 6.7717 28.1441 8.07059C28.3546 9.36947 29.5783 10.2517 30.8772 10.0412Z" fill="#E5ECF5"/>
<path fill-rule="evenodd" clip-rule="evenodd" d="M60.1064 20.79V13.6416H0.893555V20.79H60.1064ZM0.893555 60.1066H60.1064V56.5323H58.3193V52.9581H2.68066V56.5323H0.893555V60.1066Z" fill="#E5ECF5"/>
<path fill-rule="evenodd" clip-rule="evenodd" d="M6.25488 49.3839H15.1904V24.3643H6.25488V49.3839ZM45.8096 49.3839H54.7451V24.3643H45.8096V49.3839ZM26.0322 49.3839H34.9678V24.3643H26.0322V49.3839Z" fill="#E5ECF5"/>
<path fill-rule="evenodd" clip-rule="evenodd" d="M4.46777 52.958H16.9775V49.3838H4.46777V52.958ZM44.0226 52.958H56.5322V49.3838H44.0226V52.958ZM56.5322 24.3643V20.79H44.0226V24.3643H56.5322ZM24.2451 52.958H36.7549V49.3838H24.2451V52.958ZM36.7549 24.3643V20.79H24.2451V24.3643H36.7549ZM16.9774 24.3643V20.79H4.46765V24.3643H16.9774Z" fill="#DECBA0"/>
<path fill-rule="evenodd" clip-rule="evenodd" d="M0.893555 13.6415H4.46777L32.2871 0.893555H28.7129L0.893555 13.6415Z" fill="#D4B981"/>
<path fill-rule="evenodd" clip-rule="evenodd" d="M3.57422 13.6416H0.893555V20.79H3.57422V13.6416ZM0.893555 60.1066H3.57422V56.5323H5.36133V52.9581H2.68066V56.5323H0.893555V60.1066Z" fill="#CAD8EB"/>
<path fill-rule="evenodd" clip-rule="evenodd" d="M6.25488 49.3839H8.93555V24.3643H6.25488V49.3839ZM45.8096 49.3839H48.4902V24.3643H45.8096V49.3839ZM26.0322 49.3839H28.7129V24.3643H26.0322V49.3839Z" fill="#CAD8EB"/>
<path fill-rule="evenodd" clip-rule="evenodd" d="M4.46777 52.958H7.14844V49.3838H4.46777V52.958ZM44.0226 52.958H46.7031V49.3838H44.0225V52.958H44.0226ZM46.7031 20.79H44.0225V24.3643H46.7031V20.79ZM24.2451 52.958H26.9258V49.3838H24.2451V52.958ZM26.9258 20.79H24.2451V24.3643H26.9258V20.79ZM7.14844 20.79H4.46777V24.3643H7.14844V20.79Z" fill="#D4B981"/>
<path fill-rule="evenodd" clip-rule="evenodd" d="M16.9774 52.958H24.2451V49.3838H26.0322V24.3643H24.2451V20.79H16.9774V24.3643H15.1903V49.3839H16.9774V52.958ZM36.7549 52.958H44.0226V49.3838H45.8097V24.3643H44.0226V20.79H36.7549V24.3643H34.9678V49.3839H36.7549V52.958Z" fill="#87BCC4"/>
<path fill-rule="evenodd" clip-rule="evenodd" d="M16.9774 25.2578V48.4904H18.7645V52.9581H16.9774V49.3839H15.1903V24.3643H16.9774V20.79H18.7645V25.2578H16.9774ZM36.7549 25.2578V48.4904H38.542V52.9581H36.7549V49.3839H34.9678V24.3643H36.7549V20.79H38.542V25.2578H36.7549Z" fill="#5FA6B0"/>
<path fill-rule="evenodd" clip-rule="evenodd" d="M28.1172 7.68477C28.1172 9.38694 29.8463 10.5204 31.3936 9.89424C30.5203 9.54075 29.9043 8.68484 29.9043 7.68477C29.9043 6.68483 30.5204 5.82892 31.3936 5.47531C29.8463 4.84911 28.1172 5.98261 28.1172 7.68477Z" fill="#CAD8EB"/>
<path d="M50.2773 46.7032H48.4902V44.9161H50.2773V46.7032ZM30.4999 46.7032H28.7128V44.9161H30.4999V46.7032ZM10.7225 46.7032H8.93542V44.9161H10.7225V46.7032ZM52.0646 35.9805H50.2775V30.6191H52.0646V35.9805ZM32.2871 35.9805H30.5V30.6191H32.2871V35.9805ZM12.5098 35.9805H10.7227V30.6191H12.5098V35.9805ZM52.0646 28.8319H50.2775V27.0448H52.0646V28.8319ZM32.2871 28.8319H30.5V27.0448H32.2871V28.8319ZM12.5098 28.8319H10.7227V27.0448H12.5098V28.8319ZM57.4258 18.1094H55.6387V16.3223H57.4258V18.1094ZM53.8516 18.1094H48.4902V16.3223H53.8516V18.1094Z" fill="white"/>
<path d="M5.36133 27.0449V48.4904H3.57422V52.0646H1.78711V53.8517H59.2129V52.0646H57.4258V48.4904H55.6387V27.0449H53.8516V48.4904H51.1709V50.2775H55.6387V52.0646H44.9161V50.2775H49.3838V48.4904H46.7031V27.0449H44.916V48.4904H43.129V52.0646H37.6484V48.4904H35.8613V27.0449H34.0742V48.4904H31.3936V50.2775H35.8613V52.0646H25.1387V50.2775H29.6064V48.4904H26.9258V27.0449H25.1387V48.4904H23.3516V52.0646H17.871V48.4904H16.084V27.0449H14.2969V48.4904H11.6162V50.2775H16.0839V52.0646H5.36133V50.2775H9.8291V48.4904H7.14844V27.0449H5.36133Z" fill="black"/>
<path d="M1.78711 57.4258H29.6064V55.6387H0V61H52.0646V59.2129H1.78711V57.4258Z" fill="black"/>
<path d="M31.3936 57.4258H59.2129V59.2129H53.8516V61H61V55.6387H31.3936V57.4258Z" fill="black"/>
<path d="M32.4821 0H28.518L15.2434 6.08296L15.9878 7.70756L28.9079 1.78711H32.0922L56.0117 12.7479H4.98842L14.363 8.45207L13.6186 6.82747L0 13.0681V21.6835H3.57422V25.2577H17.871V21.6835H23.3516V25.2577H37.6484V21.6835H43.129V25.2577H57.4258V21.6835H61V13.0681L32.4821 0ZM16.0839 23.4706H5.36133V21.6835H16.0839V23.4706ZM55.6387 23.4706H44.9161V21.6835H55.6387V23.4706ZM31.3936 19.8964V21.6835H35.8613V23.4706H25.1387V21.6835H29.6064V19.8964H1.78711V14.535H59.2129V19.8964H31.3936Z" fill="black"/>
<path d="M27.8193 16.3223H29.6064V18.1094H27.8193V16.3223Z" fill="black"/>
<path d="M30.5 10.9609C31.9969 10.9609 33.2626 9.95182 33.6526 8.57812H36.457V6.79102H33.6526C33.2628 5.41732 31.997 4.4082 30.5 4.4082C29.003 4.4082 27.7374 5.41732 27.3474 6.79102H24.543V8.57812H27.3474C27.7374 9.9517 29.0031 10.9609 30.5 10.9609ZM30.5 6.19519C31.3212 6.19519 31.9893 6.86321 31.9893 7.68445C31.9893 8.50569 31.3212 9.17371 30.5 9.17371C29.6788 9.17371 29.0107 8.50569 29.0107 7.68445C29.0107 6.86321 29.6788 6.19519 30.5 6.19519Z" fill="black"/>
<path d="M31.3936 16.3223H33.1807V18.1094H31.3936V16.3223Z" fill="black"/>
</svg>
