<svg width="386" height="184" viewBox="0 0 386 184" fill="none" xmlns="http://www.w3.org/2000/svg">
<rect x="20.5" y="0.5" width="363" height="133" stroke="black" stroke-opacity="0.06"/>
<path d="M20 33H383" stroke="black" stroke-opacity="0.16" stroke-linejoin="round" stroke-dasharray="4 4"/>
<path d="M20 68H383" stroke="black" stroke-opacity="0.16" stroke-linejoin="round" stroke-dasharray="4 4"/>
<path d="M20 102H383" stroke="black" stroke-opacity="0.16" stroke-linejoin="round" stroke-dasharray="4 4"/>
<path d="M87 1L87 133" stroke="black" stroke-opacity="0.16" stroke-linejoin="round" stroke-dasharray="4 4"/>
<path d="M145 1L145 133" stroke="black" stroke-opacity="0.16" stroke-linejoin="round" stroke-dasharray="4 4"/>
<path d="M29 1L29 133" stroke="black" stroke-opacity="0.16" stroke-linejoin="round" stroke-dasharray="4 4"/>
<path d="M203 1L203 133" stroke="black" stroke-opacity="0.16" stroke-linejoin="round" stroke-dasharray="4 4"/>
<path d="M261 1L261 133" stroke="black" stroke-opacity="0.16" stroke-linejoin="round" stroke-dasharray="4 4"/>
<path d="M319 1L319 133" stroke="black" stroke-opacity="0.16" stroke-linejoin="round" stroke-dasharray="4 4"/>
<path d="M377 1L377 133" stroke="black" stroke-opacity="0.16" stroke-linejoin="round" stroke-dasharray="4 4"/>
<path d="M25.187 142.455H25.9796V147.134C25.9796 147.551 25.9029 147.906 25.7495 148.198C25.5961 148.49 25.3798 148.711 25.1007 148.863C24.8216 149.014 24.4924 149.089 24.1131 149.089C23.7551 149.089 23.4366 149.025 23.1575 148.895C22.8784 148.762 22.6589 148.575 22.4991 148.332C22.3393 148.089 22.2594 147.8 22.2594 147.466H23.0392C23.0392 147.651 23.085 147.813 23.1767 147.952C23.2704 148.088 23.3983 148.195 23.5602 148.271C23.7221 148.348 23.9064 148.386 24.1131 148.386C24.3411 148.386 24.535 148.338 24.6948 148.243C24.8546 148.147 24.976 148.006 25.0591 147.821C25.1444 147.633 25.187 147.404 25.187 147.134V142.455ZM28.9103 149.115C28.5993 149.115 28.3169 149.056 28.0634 148.939C27.8098 148.82 27.6085 148.648 27.4593 148.425C27.3102 148.199 27.2356 147.926 27.2356 147.607C27.2356 147.325 27.291 147.097 27.4018 146.923C27.5126 146.746 27.6607 146.607 27.8461 146.507C28.0314 146.407 28.236 146.332 28.4597 146.283C28.6855 146.232 28.9125 146.192 29.1404 146.162C29.4387 146.124 29.6806 146.095 29.8659 146.076C30.0534 146.054 30.1898 146.019 30.275 145.97C30.3624 145.921 30.4061 145.836 30.4061 145.714V145.689C30.4061 145.374 30.3198 145.129 30.1472 144.954C29.9767 144.779 29.7179 144.692 29.3706 144.692C29.0105 144.692 28.7282 144.771 28.5236 144.928C28.3191 145.086 28.1752 145.254 28.0922 145.433L27.3762 145.178C27.5041 144.879 27.6745 144.647 27.8876 144.481C28.1028 144.312 28.3372 144.195 28.5907 144.129C28.8464 144.061 29.0978 144.027 29.345 144.027C29.5027 144.027 29.6838 144.046 29.8883 144.085C30.095 144.121 30.2942 144.196 30.486 144.311C30.6799 144.426 30.8407 144.6 30.9686 144.832C31.0964 145.065 31.1603 145.376 31.1603 145.766V149H30.4061V148.335H30.3677C30.3166 148.442 30.2314 148.556 30.112 148.677C29.9927 148.799 29.834 148.902 29.6358 148.987C29.4377 149.072 29.1958 149.115 28.9103 149.115ZM29.0254 148.438C29.3237 148.438 29.5751 148.379 29.7797 148.262C29.9863 148.145 30.1419 147.993 30.2463 147.808C30.3528 147.623 30.4061 147.428 30.4061 147.223V146.533C30.3741 146.571 30.3038 146.606 30.1951 146.638C30.0886 146.668 29.965 146.695 29.8244 146.718C29.6859 146.739 29.5506 146.759 29.4185 146.776C29.2885 146.79 29.1831 146.803 29.1021 146.814C28.9061 146.839 28.7228 146.881 28.5524 146.939C28.3841 146.994 28.2477 147.078 28.1433 147.191C28.041 147.302 27.9899 147.453 27.9899 147.645C27.9899 147.907 28.0868 148.105 28.2807 148.239C28.4767 148.371 28.725 148.438 29.0254 148.438ZM33.2913 146.047V149H32.537V144.091H33.2657V144.858H33.3296C33.4447 144.609 33.6194 144.408 33.8538 144.257C34.0882 144.104 34.3907 144.027 34.7615 144.027C35.0938 144.027 35.3847 144.095 35.634 144.232C35.8833 144.366 36.0771 144.57 36.2156 144.845C36.3541 145.118 36.4234 145.463 36.4234 145.881V149H35.6691V145.932C35.6691 145.546 35.569 145.246 35.3687 145.031C35.1684 144.813 34.8936 144.705 34.5441 144.705C34.3034 144.705 34.0882 144.757 33.8985 144.861C33.711 144.966 33.5629 145.118 33.4543 145.318C33.3456 145.518 33.2913 145.761 33.2913 146.047Z" fill="black"/>
<path d="M13.1875 135.605C12.706 135.605 12.2958 135.474 11.957 135.212C11.6183 134.948 11.3594 134.565 11.1804 134.064C11.0014 133.562 10.9119 132.954 10.9119 132.243C10.9119 131.535 11.0014 130.931 11.1804 130.431C11.3615 129.928 11.6214 129.544 11.9602 129.28C12.3011 129.014 12.7102 128.88 13.1875 128.88C13.6648 128.88 14.0728 129.014 14.4116 129.28C14.7525 129.544 15.0124 129.928 15.1914 130.431C15.3725 130.931 15.4631 131.535 15.4631 132.243C15.4631 132.954 15.3736 133.562 15.1946 134.064C15.0156 134.565 14.7567 134.948 14.418 135.212C14.0792 135.474 13.669 135.605 13.1875 135.605ZM13.1875 134.902C13.6648 134.902 14.0355 134.672 14.2997 134.211C14.5639 133.751 14.696 133.095 14.696 132.243C14.696 131.676 14.6353 131.193 14.5138 130.795C14.3945 130.396 14.2219 130.093 13.9961 129.884C13.7724 129.675 13.5028 129.571 13.1875 129.571C12.7145 129.571 12.3448 129.804 12.0785 130.271C11.8121 130.735 11.679 131.393 11.679 132.243C11.679 132.809 11.7386 133.291 11.858 133.687C11.9773 134.084 12.1488 134.385 12.3725 134.592C12.5984 134.798 12.87 134.902 13.1875 134.902Z" fill="black"/>
<path d="M5.75275 102V101.425L7.91326 99.0597C8.16681 98.7827 8.37562 98.5419 8.53968 98.3374C8.70375 98.1307 8.8252 97.9368 8.90403 97.7557C8.985 97.5724 9.02548 97.3807 9.02548 97.1804C9.02548 96.9503 8.97008 96.7511 8.85929 96.5827C8.75062 96.4144 8.60147 96.2844 8.41184 96.1928C8.22221 96.1012 8.00914 96.0554 7.77264 96.0554C7.52122 96.0554 7.30176 96.1076 7.11426 96.212C6.92889 96.3143 6.78507 96.4581 6.68279 96.6435C6.58265 96.8288 6.53258 97.0462 6.53258 97.2955H5.77832C5.77832 96.9119 5.86674 96.5753 6.04359 96.2855C6.22044 95.9957 6.4612 95.7699 6.76589 95.608C7.07271 95.446 7.41681 95.3651 7.79821 95.3651C8.18173 95.3651 8.52157 95.446 8.81774 95.608C9.1139 95.7699 9.34615 95.9883 9.51447 96.2631C9.68279 96.538 9.76696 96.8438 9.76696 97.1804C9.76696 97.4212 9.72328 97.6566 9.63592 97.8867C9.55069 98.1147 9.40154 98.3693 9.18848 98.6506C8.97754 98.9297 8.68457 99.2706 8.30957 99.6733L6.8394 101.246V101.297H9.88201V102H5.75275ZM13.2474 102.089C12.8724 102.089 12.5347 102.015 12.2343 101.866C11.9339 101.717 11.6931 101.512 11.512 101.252C11.3309 100.992 11.2318 100.696 11.2148 100.364H11.9818C12.0116 100.66 12.1459 100.905 12.3845 101.099C12.6253 101.29 12.9129 101.386 13.2474 101.386C13.5159 101.386 13.7545 101.324 13.9633 101.198C14.1743 101.072 14.3394 100.9 14.4587 100.68C14.5802 100.458 14.6409 100.208 14.6409 99.929C14.6409 99.6435 14.578 99.3888 14.4523 99.1651C14.3287 98.9393 14.1583 98.7614 13.941 98.6314C13.7236 98.5014 13.4754 98.4354 13.1963 98.4332C12.996 98.4311 12.7904 98.462 12.5795 98.5259C12.3685 98.5877 12.1949 98.6676 12.0585 98.7656L11.317 98.6761L11.7133 95.4545H15.1139V96.1577H12.3781L12.148 98.0881H12.1863C12.3206 97.9815 12.4889 97.8931 12.6913 97.8228C12.8937 97.7525 13.1047 97.7173 13.3241 97.7173C13.7247 97.7173 14.0816 97.8132 14.3948 98.005C14.7101 98.1946 14.9573 98.4545 15.1363 98.7848C15.3174 99.1151 15.4079 99.4922 15.4079 99.9162C15.4079 100.334 15.3142 100.707 15.1267 101.035C14.9413 101.361 14.6856 101.619 14.3596 101.808C14.0336 101.996 13.6629 102.089 13.2474 102.089Z" fill="black"/>
<path d="M6.35281 39L9.28036 33.2088V33.1577H5.90536V32.4545H10.0985V33.196L7.18377 39H6.35281ZM13.2474 39.0895C12.8724 39.0895 12.5347 39.0149 12.2343 38.8658C11.9339 38.7166 11.6931 38.5121 11.512 38.2521C11.3309 37.9922 11.2318 37.696 11.2148 37.3636H11.9818C12.0116 37.6598 12.1459 37.9048 12.3845 38.0987C12.6253 38.2905 12.9129 38.3864 13.2474 38.3864C13.5159 38.3864 13.7545 38.3235 13.9633 38.1978C14.1743 38.0721 14.3394 37.8995 14.4587 37.68C14.5802 37.4585 14.6409 37.2081 14.6409 36.929C14.6409 36.6435 14.578 36.3888 14.4523 36.1651C14.3287 35.9393 14.1583 35.7614 13.941 35.6314C13.7236 35.5014 13.4754 35.4354 13.1963 35.4332C12.996 35.4311 12.7904 35.462 12.5795 35.5259C12.3685 35.5877 12.1949 35.6676 12.0585 35.7656L11.317 35.6761L11.7133 32.4545H15.1139V33.1577H12.3781L12.148 35.0881H12.1863C12.3206 34.9815 12.4889 34.8931 12.6913 34.8228C12.8937 34.7525 13.1047 34.7173 13.3241 34.7173C13.7247 34.7173 14.0816 34.8132 14.3948 35.005C14.7101 35.1946 14.9573 35.4545 15.1363 35.7848C15.3174 36.1151 15.4079 36.4922 15.4079 36.9162C15.4079 37.3338 15.3142 37.7067 15.1267 38.0348C14.9413 38.3608 14.6856 38.6186 14.3596 38.8082C14.0336 38.9957 13.6629 39.0895 13.2474 39.0895Z" fill="black"/>
<path d="M3.5451 2.45455V9H2.75249V3.28551H2.71413L1.11612 4.34659V3.54119L2.75249 2.45455H3.5451ZM7.5625 9.08949C7.08097 9.08949 6.67081 8.95845 6.33203 8.69638C5.99325 8.43217 5.73438 8.04972 5.5554 7.54901C5.37642 7.04616 5.28693 6.43892 5.28693 5.72727C5.28693 5.01989 5.37642 4.41584 5.5554 3.91513C5.73651 3.41229 5.99645 3.02876 6.33523 2.76456C6.67614 2.49822 7.08523 2.36506 7.5625 2.36506C8.03977 2.36506 8.4478 2.49822 8.78658 2.76456C9.12749 3.02876 9.38743 3.41229 9.56641 3.91513C9.74751 4.41584 9.83807 5.01989 9.83807 5.72727C9.83807 6.43892 9.74858 7.04616 9.5696 7.54901C9.39062 8.04972 9.13175 8.43217 8.79297 8.69638C8.45419 8.95845 8.04403 9.08949 7.5625 9.08949ZM7.5625 8.38636C8.03977 8.38636 8.41051 8.15625 8.67472 7.69602C8.93892 7.2358 9.07102 6.57955 9.07102 5.72727C9.07102 5.16051 9.0103 4.67791 8.88885 4.27947C8.76953 3.88104 8.59695 3.57741 8.37109 3.36861C8.14737 3.1598 7.87784 3.0554 7.5625 3.0554C7.08949 3.0554 6.71982 3.28871 6.45348 3.75533C6.18714 4.21982 6.05398 4.87713 6.05398 5.72727C6.05398 6.29403 6.11364 6.77557 6.23295 7.17188C6.35227 7.56818 6.52379 7.86967 6.74751 8.07635C6.97337 8.28303 7.24503 8.38636 7.5625 8.38636ZM13.1875 9.08949C12.706 9.08949 12.2958 8.95845 11.957 8.69638C11.6183 8.43217 11.3594 8.04972 11.1804 7.54901C11.0014 7.04616 10.9119 6.43892 10.9119 5.72727C10.9119 5.01989 11.0014 4.41584 11.1804 3.91513C11.3615 3.41229 11.6214 3.02876 11.9602 2.76456C12.3011 2.49822 12.7102 2.36506 13.1875 2.36506C13.6648 2.36506 14.0728 2.49822 14.4116 2.76456C14.7525 3.02876 15.0124 3.41229 15.1914 3.91513C15.3725 4.41584 15.4631 5.01989 15.4631 5.72727C15.4631 6.43892 15.3736 7.04616 15.1946 7.54901C15.0156 8.04972 14.7567 8.43217 14.418 8.69638C14.0792 8.95845 13.669 9.08949 13.1875 9.08949ZM13.1875 8.38636C13.6648 8.38636 14.0355 8.15625 14.2997 7.69602C14.5639 7.2358 14.696 6.57955 14.696 5.72727C14.696 5.16051 14.6353 4.67791 14.5138 4.27947C14.3945 3.88104 14.2219 3.57741 13.9961 3.36861C13.7724 3.1598 13.5028 3.0554 13.1875 3.0554C12.7145 3.0554 12.3448 3.28871 12.0785 3.75533C11.8121 4.21982 11.679 4.87713 11.679 5.72727C11.679 6.29403 11.7386 6.77557 11.858 7.17188C11.9773 7.56818 12.1488 7.86967 12.3725 8.07635C12.5984 8.28303 12.87 8.38636 13.1875 8.38636Z" fill="black"/>
<path d="M7.62243 69.0895C7.24743 69.0895 6.90971 69.0149 6.60929 68.8658C6.30886 68.7166 6.06809 68.5121 5.88699 68.2521C5.70588 67.9922 5.6068 67.696 5.58975 67.3636H6.3568C6.38663 67.6598 6.52086 67.9048 6.7595 68.0987C7.00027 68.2905 7.28791 68.3864 7.62243 68.3864C7.89089 68.3864 8.12953 68.3235 8.33833 68.1978C8.54927 68.0721 8.7144 67.8995 8.83372 67.68C8.95517 67.4585 9.01589 67.2081 9.01589 66.929C9.01589 66.6435 8.95304 66.3888 8.82733 66.1651C8.70375 65.9393 8.53329 65.7614 8.31596 65.6314C8.09863 65.5014 7.85041 65.4354 7.57129 65.4332C7.371 65.4311 7.16539 65.462 6.95446 65.5259C6.74352 65.5877 6.56987 65.6676 6.4335 65.7656L5.69203 65.6761L6.08833 62.4545H9.4889V63.1577H6.75311L6.52299 65.0881H6.56135C6.69558 64.9815 6.8639 64.8931 7.06632 64.8228C7.26873 64.7525 7.47967 64.7173 7.69913 64.7173C8.0997 64.7173 8.45659 64.8132 8.7698 65.005C9.08514 65.1946 9.3323 65.4545 9.51128 65.7848C9.69238 66.1151 9.78294 66.4922 9.78294 66.9162C9.78294 67.3338 9.68919 67.7067 9.50169 68.0348C9.31632 68.3608 9.06064 68.6186 8.73464 68.8082C8.40865 68.9957 8.03791 69.0895 7.62243 69.0895ZM13.1875 69.0895C12.706 69.0895 12.2958 68.9585 11.957 68.6964C11.6183 68.4322 11.3594 68.0497 11.1804 67.549C11.0014 67.0462 10.9119 66.4389 10.9119 65.7273C10.9119 65.0199 11.0014 64.4158 11.1804 63.9151C11.3615 63.4123 11.6214 63.0288 11.9602 62.7646C12.3011 62.4982 12.7102 62.3651 13.1875 62.3651C13.6648 62.3651 14.0728 62.4982 14.4116 62.7646C14.7525 63.0288 15.0124 63.4123 15.1914 63.9151C15.3725 64.4158 15.4631 65.0199 15.4631 65.7273C15.4631 66.4389 15.3736 67.0462 15.1946 67.549C15.0156 68.0497 14.7567 68.4322 14.418 68.6964C14.0792 68.9585 13.669 69.0895 13.1875 69.0895ZM13.1875 68.3864C13.6648 68.3864 14.0355 68.1562 14.2997 67.696C14.5639 67.2358 14.696 66.5795 14.696 65.7273C14.696 65.1605 14.6353 64.6779 14.5138 64.2795C14.3945 63.881 14.2219 63.5774 13.9961 63.3686C13.7724 63.1598 13.5028 63.0554 13.1875 63.0554C12.7145 63.0554 12.3448 63.2887 12.0785 63.7553C11.8121 64.2198 11.679 64.8771 11.679 65.7273C11.679 66.294 11.7386 66.7756 11.858 67.1719C11.9773 67.5682 12.1488 67.8697 12.3725 68.0763C12.5984 68.283 12.87 68.3864 13.1875 68.3864Z" fill="black"/>
<path d="M80.7824 149V142.455H84.7071V143.158H81.575V145.369H84.413V146.072H81.575V149H80.7824ZM87.6602 149.102C87.1872 149.102 86.7792 148.998 86.4361 148.789C86.0952 148.578 85.8321 148.284 85.6467 147.907C85.4635 147.528 85.3718 147.087 85.3718 146.584C85.3718 146.081 85.4635 145.638 85.6467 145.254C85.8321 144.869 86.0899 144.568 86.4201 144.353C86.7525 144.136 87.1403 144.027 87.5835 144.027C87.8392 144.027 88.0917 144.07 88.341 144.155C88.5902 144.24 88.8172 144.379 89.0217 144.57C89.2263 144.76 89.3892 145.011 89.5107 145.325C89.6321 145.638 89.6929 146.023 89.6929 146.482V146.801H85.9088V146.149H88.9258C88.9258 145.872 88.8704 145.625 88.7596 145.408C88.651 145.19 88.4954 145.019 88.293 144.893C88.0927 144.767 87.8562 144.705 87.5835 144.705C87.2831 144.705 87.0231 144.779 86.8037 144.928C86.5863 145.075 86.4191 145.267 86.3019 145.504C86.1847 145.74 86.1261 145.994 86.1261 146.264V146.699C86.1261 147.07 86.19 147.384 86.3179 147.642C86.4478 147.897 86.6279 148.092 86.858 148.227C87.0881 148.359 87.3555 148.425 87.6602 148.425C87.8584 148.425 88.0373 148.397 88.1971 148.342C88.3591 148.284 88.4986 148.199 88.6158 148.086C88.733 147.971 88.8236 147.828 88.8875 147.658L89.6162 147.862C89.5395 148.109 89.4106 148.327 89.2294 148.514C89.0483 148.7 88.8246 148.844 88.5583 148.949C88.2919 149.051 87.9926 149.102 87.6602 149.102ZM94.705 144.091L92.8897 149H92.1226L90.3073 144.091H91.1255L92.4806 148.003H92.5317L93.8869 144.091H94.705Z" fill="black"/>
<path d="M138.079 142.455H139.025L141.25 147.888H141.326L143.551 142.455H144.497V149H143.755V144.027H143.691L141.646 149H140.93L138.885 144.027H138.821V149H138.079V142.455ZM147.428 149.115C147.117 149.115 146.835 149.056 146.581 148.939C146.328 148.82 146.127 148.648 145.977 148.425C145.828 148.199 145.754 147.926 145.754 147.607C145.754 147.325 145.809 147.097 145.92 146.923C146.031 146.746 146.179 146.607 146.364 146.507C146.549 146.407 146.754 146.332 146.978 146.283C147.204 146.232 147.431 146.192 147.659 146.162C147.957 146.124 148.199 146.095 148.384 146.076C148.572 146.054 148.708 146.019 148.793 145.97C148.88 145.921 148.924 145.836 148.924 145.714V145.689C148.924 145.374 148.838 145.129 148.665 144.954C148.495 144.779 148.236 144.692 147.889 144.692C147.529 144.692 147.246 144.771 147.042 144.928C146.837 145.086 146.693 145.254 146.61 145.433L145.894 145.178C146.022 144.879 146.193 144.647 146.406 144.481C146.621 144.312 146.855 144.195 147.109 144.129C147.364 144.061 147.616 144.027 147.863 144.027C148.021 144.027 148.202 144.046 148.406 144.085C148.613 144.121 148.812 144.196 149.004 144.311C149.198 144.426 149.359 144.6 149.487 144.832C149.614 145.065 149.678 145.376 149.678 145.766V149H148.924V148.335H148.886C148.835 148.442 148.749 148.556 148.63 148.677C148.511 148.799 148.352 148.902 148.154 148.987C147.956 149.072 147.714 149.115 147.428 149.115ZM147.543 148.438C147.842 148.438 148.093 148.379 148.298 148.262C148.504 148.145 148.66 147.993 148.764 147.808C148.871 147.623 148.924 147.428 148.924 147.223V146.533C148.892 146.571 148.822 146.606 148.713 146.638C148.607 146.668 148.483 146.695 148.342 146.718C148.204 146.739 148.069 146.759 147.937 146.776C147.807 146.79 147.701 146.803 147.62 146.814C147.424 146.839 147.241 146.881 147.07 146.939C146.902 146.994 146.766 147.078 146.661 147.191C146.559 147.302 146.508 147.453 146.508 147.645C146.508 147.907 146.605 148.105 146.799 148.239C146.995 148.371 147.243 148.438 147.543 148.438ZM151.055 149V144.091H151.784V144.832H151.835C151.924 144.589 152.086 144.392 152.321 144.241C152.555 144.09 152.819 144.014 153.113 144.014C153.169 144.014 153.238 144.015 153.321 144.017C153.404 144.02 153.467 144.023 153.51 144.027V144.794C153.484 144.788 153.425 144.778 153.334 144.765C153.244 144.75 153.15 144.743 153.049 144.743C152.811 144.743 152.598 144.793 152.41 144.893C152.225 144.991 152.078 145.127 151.969 145.302C151.863 145.475 151.809 145.672 151.809 145.893V149H151.055Z" fill="black"/>
<path d="M197.051 149H196.22L198.623 142.455H199.441L201.845 149H201.014L199.058 143.49H199.007L197.051 149ZM197.358 146.443H200.707V147.146H197.358V146.443ZM202.864 149V142.455H203.619V144.871H203.683C203.738 144.786 203.815 144.677 203.913 144.545C204.013 144.411 204.156 144.291 204.341 144.187C204.528 144.08 204.782 144.027 205.102 144.027C205.515 144.027 205.879 144.13 206.195 144.337C206.51 144.544 206.756 144.837 206.933 145.216C207.11 145.595 207.198 146.043 207.198 146.558C207.198 147.078 207.11 147.529 206.933 147.91C206.756 148.289 206.511 148.583 206.198 148.792C205.885 148.999 205.523 149.102 205.114 149.102C204.799 149.102 204.547 149.05 204.357 148.946C204.167 148.839 204.021 148.719 203.919 148.585C203.817 148.448 203.738 148.335 203.683 148.246H203.593V149H202.864ZM203.606 146.545C203.606 146.916 203.66 147.243 203.769 147.527C203.878 147.808 204.036 148.028 204.245 148.188C204.454 148.346 204.71 148.425 205.012 148.425C205.327 148.425 205.591 148.342 205.802 148.175C206.015 148.007 206.174 147.781 206.281 147.498C206.39 147.212 206.444 146.895 206.444 146.545C206.444 146.2 206.391 145.889 206.284 145.612C206.18 145.333 206.021 145.113 205.808 144.951C205.597 144.787 205.332 144.705 205.012 144.705C204.705 144.705 204.447 144.782 204.239 144.938C204.03 145.091 203.872 145.306 203.766 145.583C203.659 145.858 203.606 146.179 203.606 146.545ZM208.352 149V144.091H209.081V144.832H209.132C209.221 144.589 209.383 144.392 209.618 144.241C209.852 144.09 210.116 144.014 210.41 144.014C210.466 144.014 210.535 144.015 210.618 144.017C210.701 144.02 210.764 144.023 210.807 144.027V144.794C210.781 144.788 210.722 144.778 210.631 144.765C210.541 144.75 210.446 144.743 210.346 144.743C210.108 144.743 209.895 144.793 209.707 144.893C209.522 144.991 209.375 145.127 209.266 145.302C209.159 145.475 209.106 145.672 209.106 145.893V149H208.352Z" fill="black"/>
<path d="M254.686 142.455H255.632L257.856 147.888H257.933L260.157 142.455H261.103V149H260.362V144.027H260.298L258.252 149H257.537L255.491 144.027H255.427V149H254.686V142.455ZM264.035 149.115C263.724 149.115 263.441 149.056 263.188 148.939C262.934 148.82 262.733 148.648 262.584 148.425C262.435 148.199 262.36 147.926 262.36 147.607C262.36 147.325 262.416 147.097 262.526 146.923C262.637 146.746 262.785 146.607 262.971 146.507C263.156 146.407 263.36 146.332 263.584 146.283C263.81 146.232 264.037 146.192 264.265 146.162C264.563 146.124 264.805 146.095 264.99 146.076C265.178 146.054 265.314 146.019 265.4 145.97C265.487 145.921 265.531 145.836 265.531 145.714V145.689C265.531 145.374 265.444 145.129 265.272 144.954C265.101 144.779 264.842 144.692 264.495 144.692C264.135 144.692 263.853 144.771 263.648 144.928C263.444 145.086 263.3 145.254 263.217 145.433L262.501 145.178C262.629 144.879 262.799 144.647 263.012 144.481C263.227 144.312 263.462 144.195 263.715 144.129C263.971 144.061 264.222 144.027 264.47 144.027C264.627 144.027 264.808 144.046 265.013 144.085C265.22 144.121 265.419 144.196 265.61 144.311C265.804 144.426 265.965 144.6 266.093 144.832C266.221 145.065 266.285 145.376 266.285 145.766V149H265.531V148.335H265.492C265.441 148.442 265.356 148.556 265.237 148.677C265.117 148.799 264.958 148.902 264.76 148.987C264.562 149.072 264.32 149.115 264.035 149.115ZM264.15 148.438C264.448 148.438 264.7 148.379 264.904 148.262C265.111 148.145 265.266 147.993 265.371 147.808C265.477 147.623 265.531 147.428 265.531 147.223V146.533C265.499 146.571 265.428 146.606 265.32 146.638C265.213 146.668 265.09 146.695 264.949 146.718C264.81 146.739 264.675 146.759 264.543 146.776C264.413 146.79 264.308 146.803 264.227 146.814C264.031 146.839 263.847 146.881 263.677 146.939C263.509 146.994 263.372 147.078 263.268 147.191C263.166 147.302 263.114 147.453 263.114 147.645C263.114 147.907 263.211 148.105 263.405 148.239C263.601 148.371 263.849 148.438 264.15 148.438ZM267.662 149V144.091H268.416V149H267.662ZM268.045 143.273C267.898 143.273 267.771 143.223 267.665 143.123C267.56 143.022 267.508 142.902 267.508 142.761C267.508 142.621 267.56 142.5 267.665 142.4C267.771 142.3 267.898 142.25 268.045 142.25C268.192 142.25 268.318 142.3 268.422 142.4C268.529 142.5 268.582 142.621 268.582 142.761C268.582 142.902 268.529 143.022 268.422 143.123C268.318 143.223 268.192 143.273 268.045 143.273Z" fill="black"/>
<path d="M315.108 142.455H315.9V147.134C315.9 147.551 315.824 147.906 315.67 148.198C315.517 148.49 315.301 148.711 315.022 148.863C314.742 149.014 314.413 149.089 314.034 149.089C313.676 149.089 313.358 149.025 313.078 148.895C312.799 148.762 312.58 148.575 312.42 148.332C312.26 148.089 312.18 147.8 312.18 147.466H312.96C312.96 147.651 313.006 147.813 313.098 147.952C313.191 148.088 313.319 148.195 313.481 148.271C313.643 148.348 313.827 148.386 314.034 148.386C314.262 148.386 314.456 148.338 314.616 148.243C314.775 148.147 314.897 148.006 314.98 147.821C315.065 147.633 315.108 147.404 315.108 147.134V142.455ZM320.48 146.993V144.091H321.235V149H320.48V148.169H320.429C320.314 148.418 320.135 148.63 319.892 148.805C319.649 148.978 319.343 149.064 318.972 149.064C318.665 149.064 318.392 148.997 318.154 148.863C317.915 148.726 317.728 148.522 317.591 148.249C317.455 147.974 317.387 147.628 317.387 147.21V144.091H318.141V147.159C318.141 147.517 318.241 147.803 318.441 148.016C318.644 148.229 318.902 148.335 319.215 148.335C319.402 148.335 319.593 148.287 319.787 148.191C319.983 148.096 320.147 147.949 320.279 147.75C320.413 147.552 320.48 147.3 320.48 146.993ZM323.37 146.047V149H322.616V144.091H323.345V144.858H323.409C323.524 144.609 323.699 144.408 323.933 144.257C324.167 144.104 324.47 144.027 324.841 144.027C325.173 144.027 325.464 144.095 325.713 144.232C325.962 144.366 326.156 144.57 326.295 144.845C326.433 145.118 326.502 145.463 326.502 145.881V149H325.748V145.932C325.748 145.546 325.648 145.246 325.448 145.031C325.248 144.813 324.973 144.705 324.623 144.705C324.382 144.705 324.167 144.757 323.978 144.861C323.79 144.966 323.642 145.118 323.533 145.318C323.425 145.518 323.37 145.761 323.37 146.047Z" fill="black"/>
<path d="M374.672 142.455H375.465V147.134C375.465 147.551 375.388 147.906 375.235 148.198C375.081 148.49 374.865 148.711 374.586 148.863C374.307 149.014 373.978 149.089 373.598 149.089C373.241 149.089 372.922 149.025 372.643 148.895C372.364 148.762 372.144 148.575 371.984 148.332C371.825 148.089 371.745 147.8 371.745 147.466H372.525C372.525 147.651 372.57 147.813 372.662 147.952C372.756 148.088 372.884 148.195 373.046 148.271C373.207 148.348 373.392 148.386 373.598 148.386C373.826 148.386 374.02 148.338 374.18 148.243C374.34 148.147 374.461 148.006 374.544 147.821C374.63 147.633 374.672 147.404 374.672 147.134V142.455ZM380.045 146.993V144.091H380.799V149H380.045V148.169H379.994C379.879 148.418 379.7 148.63 379.457 148.805C379.214 148.978 378.907 149.064 378.536 149.064C378.229 149.064 377.957 148.997 377.718 148.863C377.479 148.726 377.292 148.522 377.156 148.249C377.019 147.974 376.951 147.628 376.951 147.21V144.091H377.705V147.159C377.705 147.517 377.805 147.803 378.006 148.016C378.208 148.229 378.466 148.335 378.779 148.335C378.967 148.335 379.157 148.287 379.351 148.191C379.547 148.096 379.711 147.949 379.843 147.75C379.978 147.552 380.045 147.3 380.045 146.993ZM382.935 142.455V149H382.181V142.455H382.935Z" fill="black"/>
<path d="M22.5234 108.989C40.5818 116.936 82.5123 129.916 105.768 118.26C134.837 103.691 171.835 72.3457 184.608 60.867C197.381 49.3884 211.916 33.4948 236.14 54.2447C260.365 74.9947 293 138 381.5 98" stroke="#FBD38D" stroke-width="3" stroke-linecap="round"/>
<ellipse cx="29.5236" cy="111.532" rx="3.52357" ry="3.5319" fill="#DD6B20"/>
<ellipse cx="86.8283" cy="123.117" rx="3.52357" ry="3.5319" fill="#DD6B20"/>
<ellipse cx="145.524" cy="93.5319" rx="3.52357" ry="3.5319" fill="#DD6B20"/>
<ellipse cx="215.44" cy="44.5319" rx="3.52357" ry="3.5319" fill="#DD6B20"/>
<ellipse cx="277.524" cy="93.5319" rx="3.52357" ry="3.5319" fill="#DD6B20"/>
<ellipse cx="341.524" cy="110.532" rx="3.52357" ry="3.5319" fill="#DD6B20"/>
<path d="M23 67.5C57.3548 43.2182 125.983 3.49576 151 9.5C182.272 17.0053 215.251 58.5414 278.5 37C347.5 13.5 372 38 381.5 42" stroke="#9AE6B4" stroke-width="3" stroke-linecap="round"/>
<path d="M32.5471 63.5319C32.5471 61.8563 31.1923 60.5 29.5236 60.5C27.8548 60.5 26.5 61.8563 26.5 63.5319C26.5 65.2075 27.8548 66.5638 29.5236 66.5638C31.1923 66.5638 32.5471 65.2075 32.5471 63.5319Z" fill="#38A169" stroke="#38A169"/>
<path d="M88.5471 28.5319C88.5471 26.8563 87.1923 25.5 85.5236 25.5C83.8548 25.5 82.5 26.8563 82.5 28.5319C82.5 30.2075 83.8548 31.5638 85.5236 31.5638C87.1923 31.5638 88.5471 30.2075 88.5471 28.5319Z" fill="#38A169" stroke="#38A169"/>
<path d="M148.547 9.5319C148.547 7.85631 147.192 6.5 145.524 6.5C143.855 6.5 142.5 7.85631 142.5 9.5319C142.5 11.2075 143.855 12.5638 145.524 12.5638C147.192 12.5638 148.547 11.2075 148.547 9.5319Z" fill="#38A169" stroke="#38A169"/>
<path d="M238.547 42.5319C238.547 40.8563 237.192 39.5 235.524 39.5C233.855 39.5 232.5 40.8563 232.5 42.5319C232.5 44.2075 233.855 45.5638 235.524 45.5638C237.192 45.5638 238.547 44.2075 238.547 42.5319Z" fill="#38A169" stroke="#38A169"/>
<path d="M281.547 37.5319C281.547 35.8563 280.192 34.5 278.524 34.5C276.855 34.5 275.5 35.8563 275.5 37.5319C275.5 39.2075 276.855 40.5638 278.524 40.5638C280.192 40.5638 281.547 39.2075 281.547 37.5319Z" fill="#38A169" stroke="#38A169"/>
<path d="M344.547 27.5319C344.547 25.8563 343.192 24.5 341.524 24.5C339.855 24.5 338.5 25.8563 338.5 27.5319C338.5 29.2075 339.855 30.5638 341.524 30.5638C343.192 30.5638 344.547 29.2075 344.547 27.5319Z" fill="#38A169" stroke="#38A169"/>
<path d="M21.5234 88.9892C39.5818 96.936 81.5123 109.916 104.768 98.2605C133.837 83.6914 170.835 52.3457 183.608 40.867C196.381 29.3884 210.916 13.4948 235.14 34.2447C259.365 54.9947 289.5 97.5 381.5 73.5" stroke="#90CDF4" stroke-width="3" stroke-linecap="round"/>
<path d="M32.5471 91.5319C32.5471 93.2075 31.1923 94.5638 29.5236 94.5638C27.8548 94.5638 26.5 93.2075 26.5 91.5319C26.5 89.8563 27.8548 88.5 29.5236 88.5C31.1923 88.5 32.5471 89.8563 32.5471 91.5319Z" fill="#3182CE" stroke="#3182CE"/>
<path d="M88.8518 103.117C88.8518 104.792 87.497 106.149 85.8283 106.149C84.1595 106.149 82.8047 104.792 82.8047 103.117C82.8047 101.441 84.1595 100.085 85.8283 100.085C87.497 100.085 88.8518 101.441 88.8518 103.117Z" fill="#3182CE" stroke="#3182CE"/>
<path d="M147.547 72.5319C147.547 74.2075 146.192 75.5638 144.524 75.5638C142.855 75.5638 141.5 74.2075 141.5 72.5319C141.5 70.8563 142.855 69.5 144.524 69.5C146.192 69.5 147.547 70.8563 147.547 72.5319Z" fill="#3182CE" stroke="#3182CE"/>
<path d="M205.547 27.5319C205.547 29.2075 204.192 30.5638 202.524 30.5638C200.855 30.5638 199.5 29.2075 199.5 27.5319C199.5 25.8563 200.855 24.5 202.524 24.5C204.192 24.5 205.547 25.8563 205.547 27.5319Z" fill="#3182CE" stroke="#3182CE"/>
<path d="M344.547 80.5319C344.547 82.2075 343.192 83.5638 341.524 83.5638C339.855 83.5638 338.5 82.2075 338.5 80.5319C338.5 78.8563 339.855 77.5 341.524 77.5C343.192 77.5 344.547 78.8563 344.547 80.5319Z" fill="#3182CE" stroke="#3182CE"/>
<path d="M280.547 67.5319C280.547 69.2075 279.192 70.5638 277.524 70.5638C275.855 70.5638 274.5 69.2075 274.5 67.5319C274.5 65.8563 275.855 64.5 277.524 64.5C279.192 64.5 280.547 65.8563 280.547 67.5319Z" fill="#3182CE" stroke="#3182CE"/>
<path d="M212.023 173C211.929 172.713 211.805 172.456 211.652 172.229C211.501 171.999 211.321 171.803 211.111 171.641C210.903 171.479 210.668 171.355 210.403 171.27C210.139 171.185 209.849 171.142 209.534 171.142C209.017 171.142 208.547 171.276 208.124 171.543C207.7 171.81 207.364 172.203 207.114 172.723C206.864 173.243 206.739 173.881 206.739 174.636C206.739 175.392 206.865 176.03 207.118 176.55C207.371 177.07 207.713 177.463 208.145 177.73C208.577 177.997 209.063 178.131 209.602 178.131C210.102 178.131 210.543 178.024 210.923 177.811C211.307 177.595 211.605 177.291 211.818 176.899C212.034 176.504 212.142 176.04 212.142 175.506L212.466 175.574H209.841V174.636H213.165V175.574C213.165 176.293 213.011 176.918 212.705 177.449C212.401 177.98 211.98 178.392 211.443 178.685C210.909 178.974 210.295 179.119 209.602 179.119C208.83 179.119 208.151 178.938 207.565 178.574C206.983 178.21 206.528 177.693 206.202 177.023C205.878 176.352 205.716 175.557 205.716 174.636C205.716 173.946 205.808 173.325 205.993 172.774C206.18 172.22 206.445 171.749 206.786 171.359C207.126 170.97 207.53 170.672 207.996 170.464C208.462 170.257 208.974 170.153 209.534 170.153C209.994 170.153 210.423 170.223 210.821 170.362C211.222 170.499 211.578 170.693 211.891 170.946C212.206 171.196 212.469 171.496 212.679 171.845C212.889 172.192 213.034 172.577 213.114 173H212.023ZM217.498 179.136C216.907 179.136 216.388 178.996 215.942 178.714C215.499 178.433 215.152 178.04 214.902 177.534C214.655 177.028 214.532 176.437 214.532 175.761C214.532 175.08 214.655 174.484 214.902 173.976C215.152 173.467 215.499 173.072 215.942 172.791C216.388 172.51 216.907 172.369 217.498 172.369C218.088 172.369 218.605 172.51 219.049 172.791C219.495 173.072 219.841 173.467 220.088 173.976C220.338 174.484 220.463 175.08 220.463 175.761C220.463 176.437 220.338 177.028 220.088 177.534C219.841 178.04 219.495 178.433 219.049 178.714C218.605 178.996 218.088 179.136 217.498 179.136ZM217.498 178.233C217.946 178.233 218.316 178.118 218.605 177.888C218.895 177.658 219.11 177.355 219.249 176.98C219.388 176.605 219.458 176.199 219.458 175.761C219.458 175.324 219.388 174.916 219.249 174.538C219.11 174.161 218.895 173.855 218.605 173.622C218.316 173.389 217.946 173.273 217.498 173.273C217.049 173.273 216.679 173.389 216.39 173.622C216.1 173.855 215.885 174.161 215.746 174.538C215.607 174.916 215.537 175.324 215.537 175.761C215.537 176.199 215.607 176.605 215.746 176.98C215.885 177.355 216.1 177.658 216.39 177.888C216.679 178.118 217.049 178.233 217.498 178.233ZM227.116 172.455L224.696 179H223.673L221.253 172.455H222.344L224.151 177.67H224.219L226.026 172.455H227.116ZM230.954 179.136C230.323 179.136 229.779 178.997 229.322 178.719C228.867 178.438 228.516 178.045 228.269 177.543C228.025 177.037 227.903 176.449 227.903 175.778C227.903 175.108 228.025 174.517 228.269 174.006C228.516 173.491 228.86 173.091 229.3 172.804C229.744 172.514 230.261 172.369 230.852 172.369C231.192 172.369 231.529 172.426 231.862 172.54C232.194 172.653 232.496 172.838 232.769 173.094C233.042 173.347 233.259 173.682 233.421 174.099C233.583 174.517 233.664 175.031 233.664 175.642V176.068H228.619V175.199H232.641C232.641 174.83 232.567 174.5 232.42 174.21C232.275 173.92 232.067 173.692 231.798 173.524C231.531 173.357 231.215 173.273 230.852 173.273C230.451 173.273 230.104 173.372 229.812 173.571C229.522 173.767 229.299 174.023 229.143 174.338C228.987 174.653 228.908 174.991 228.908 175.352V175.932C228.908 176.426 228.994 176.845 229.164 177.189C229.337 177.53 229.577 177.79 229.884 177.969C230.191 178.145 230.548 178.233 230.954 178.233C231.218 178.233 231.457 178.196 231.67 178.122C231.886 178.045 232.072 177.932 232.228 177.781C232.384 177.628 232.505 177.437 232.59 177.21L233.562 177.483C233.46 177.812 233.288 178.102 233.046 178.352C232.805 178.599 232.506 178.793 232.151 178.932C231.796 179.068 231.397 179.136 230.954 179.136ZM235.194 179V172.455H236.165V173.443H236.234C236.353 173.119 236.569 172.857 236.881 172.655C237.194 172.453 237.546 172.352 237.938 172.352C238.012 172.352 238.104 172.354 238.215 172.357C238.326 172.359 238.41 172.364 238.467 172.369V173.392C238.433 173.384 238.354 173.371 238.232 173.354C238.113 173.334 237.987 173.324 237.853 173.324C237.535 173.324 237.251 173.391 237.001 173.524C236.754 173.655 236.558 173.837 236.413 174.07C236.271 174.3 236.2 174.562 236.2 174.858V179H235.194ZM240.664 175.062V179H239.659V172.455H240.63V173.477H240.716C240.869 173.145 241.102 172.878 241.414 172.676C241.727 172.472 242.13 172.369 242.625 172.369C243.068 172.369 243.456 172.46 243.788 172.642C244.12 172.821 244.379 173.094 244.564 173.46C244.748 173.824 244.841 174.284 244.841 174.841V179H243.835V174.909C243.835 174.395 243.701 173.994 243.434 173.707C243.167 173.418 242.801 173.273 242.335 173.273C242.014 173.273 241.727 173.342 241.474 173.482C241.224 173.621 241.027 173.824 240.882 174.091C240.737 174.358 240.664 174.682 240.664 175.062ZM248.604 179.153C248.19 179.153 247.813 179.075 247.475 178.919C247.137 178.76 246.869 178.531 246.67 178.233C246.471 177.932 246.371 177.568 246.371 177.142C246.371 176.767 246.445 176.463 246.593 176.23C246.741 175.994 246.938 175.81 247.185 175.676C247.433 175.543 247.705 175.443 248.004 175.378C248.305 175.31 248.607 175.256 248.911 175.216C249.309 175.165 249.631 175.126 249.879 175.101C250.129 175.072 250.31 175.026 250.424 174.96C250.54 174.895 250.599 174.781 250.599 174.619V174.585C250.599 174.165 250.484 173.838 250.254 173.605C250.026 173.372 249.681 173.256 249.218 173.256C248.738 173.256 248.362 173.361 248.089 173.571C247.816 173.781 247.624 174.006 247.513 174.244L246.559 173.903C246.729 173.506 246.957 173.196 247.241 172.974C247.528 172.75 247.84 172.594 248.178 172.506C248.519 172.415 248.854 172.369 249.184 172.369C249.394 172.369 249.636 172.395 249.908 172.446C250.184 172.494 250.45 172.595 250.705 172.749C250.964 172.902 251.178 173.134 251.349 173.443C251.519 173.753 251.604 174.168 251.604 174.688V179H250.599V178.114H250.548C250.479 178.256 250.366 178.408 250.207 178.57C250.048 178.732 249.836 178.869 249.572 178.983C249.308 179.097 248.985 179.153 248.604 179.153ZM248.758 178.25C249.156 178.25 249.491 178.172 249.763 178.016C250.039 177.859 250.246 177.658 250.386 177.411C250.528 177.163 250.599 176.903 250.599 176.631V175.71C250.556 175.761 250.462 175.808 250.317 175.851C250.175 175.891 250.011 175.926 249.823 175.957C249.638 175.986 249.458 176.011 249.282 176.034C249.109 176.054 248.968 176.071 248.86 176.085C248.599 176.119 248.354 176.175 248.127 176.251C247.903 176.325 247.721 176.437 247.582 176.588C247.445 176.736 247.377 176.937 247.377 177.193C247.377 177.543 247.506 177.807 247.765 177.986C248.026 178.162 248.357 178.25 248.758 178.25ZM254.446 175.062V179H253.44V172.455H254.412V173.477H254.497C254.65 173.145 254.883 172.878 255.196 172.676C255.508 172.472 255.912 172.369 256.406 172.369C256.849 172.369 257.237 172.46 257.569 172.642C257.902 172.821 258.16 173.094 258.345 173.46C258.529 173.824 258.622 174.284 258.622 174.841V179H257.616V174.909C257.616 174.395 257.483 173.994 257.216 173.707C256.949 173.418 256.582 173.273 256.116 173.273C255.795 173.273 255.508 173.342 255.255 173.482C255.005 173.621 254.808 173.824 254.663 174.091C254.518 174.358 254.446 174.682 254.446 175.062ZM263.119 179.136C262.505 179.136 261.977 178.991 261.533 178.702C261.09 178.412 260.749 178.013 260.511 177.504C260.272 176.996 260.153 176.415 260.153 175.761C260.153 175.097 260.275 174.51 260.519 174.001C260.766 173.49 261.11 173.091 261.55 172.804C261.994 172.514 262.511 172.369 263.102 172.369C263.562 172.369 263.977 172.455 264.346 172.625C264.715 172.795 265.018 173.034 265.254 173.341C265.489 173.648 265.636 174.006 265.692 174.415H264.687C264.61 174.116 264.44 173.852 264.175 173.622C263.914 173.389 263.562 173.273 263.119 173.273C262.727 173.273 262.383 173.375 262.087 173.58C261.795 173.781 261.566 174.067 261.401 174.436C261.239 174.803 261.158 175.233 261.158 175.727C261.158 176.233 261.238 176.673 261.397 177.048C261.559 177.423 261.786 177.714 262.079 177.922C262.374 178.129 262.721 178.233 263.119 178.233C263.38 178.233 263.617 178.188 263.83 178.097C264.043 178.006 264.224 177.875 264.371 177.705C264.519 177.534 264.624 177.33 264.687 177.091H265.692C265.636 177.477 265.495 177.825 265.271 178.135C265.049 178.442 264.755 178.686 264.388 178.868C264.025 179.047 263.602 179.136 263.119 179.136ZM262.641 178.966H263.477L263.408 179.307C263.63 179.341 263.833 179.433 264.018 179.584C264.202 179.737 264.295 179.98 264.295 180.312C264.295 180.679 264.143 180.977 263.839 181.207C263.538 181.44 263.093 181.557 262.505 181.557L262.471 180.892C262.735 180.892 262.954 180.849 263.127 180.764C263.303 180.682 263.391 180.543 263.391 180.347C263.391 180.151 263.319 180.017 263.174 179.946C263.029 179.875 262.795 179.827 262.471 179.801L262.641 178.966ZM269.089 179.153C268.674 179.153 268.298 179.075 267.96 178.919C267.621 178.76 267.353 178.531 267.154 178.233C266.955 177.932 266.856 177.568 266.856 177.142C266.856 176.767 266.93 176.463 267.077 176.23C267.225 175.994 267.423 175.81 267.67 175.676C267.917 175.543 268.19 175.443 268.488 175.378C268.789 175.31 269.092 175.256 269.396 175.216C269.793 175.165 270.116 175.126 270.363 175.101C270.613 175.072 270.795 175.026 270.908 174.96C271.025 174.895 271.083 174.781 271.083 174.619V174.585C271.083 174.165 270.968 173.838 270.738 173.605C270.511 173.372 270.165 173.256 269.702 173.256C269.222 173.256 268.846 173.361 268.573 173.571C268.3 173.781 268.109 174.006 267.998 174.244L267.043 173.903C267.214 173.506 267.441 173.196 267.725 172.974C268.012 172.75 268.325 172.594 268.663 172.506C269.004 172.415 269.339 172.369 269.668 172.369C269.879 172.369 270.12 172.395 270.393 172.446C270.668 172.494 270.934 172.595 271.19 172.749C271.448 172.902 271.663 173.134 271.833 173.443C272.004 173.753 272.089 174.168 272.089 174.688V179H271.083V178.114H271.032C270.964 178.256 270.85 178.408 270.691 178.57C270.532 178.732 270.32 178.869 270.056 178.983C269.792 179.097 269.469 179.153 269.089 179.153ZM269.242 178.25C269.64 178.25 269.975 178.172 270.248 178.016C270.523 177.859 270.731 177.658 270.87 177.411C271.012 177.163 271.083 176.903 271.083 176.631V175.71C271.04 175.761 270.947 175.808 270.802 175.851C270.66 175.891 270.495 175.926 270.308 175.957C270.123 175.986 269.942 176.011 269.766 176.034C269.593 176.054 269.452 176.071 269.344 176.085C269.083 176.119 268.839 176.175 268.612 176.251C268.387 176.325 268.205 176.437 268.066 176.588C267.93 176.736 267.862 176.937 267.862 177.193C267.862 177.543 267.991 177.807 268.249 177.986C268.511 178.162 268.842 178.25 269.242 178.25Z" fill="black"/>
<circle cx="192.5" cy="175.5" r="4.5" fill="#DD6B20"/>
<path d="M18.4148 179H17.3068L20.5114 170.273H21.6023L24.8068 179H23.6989L21.0909 171.653H21.0227L18.4148 179ZM18.8239 175.591H23.2898V176.528H18.8239V175.591ZM26.0298 179V172.455H27.0014V173.477H27.0866C27.223 173.128 27.4432 172.857 27.7472 172.663C28.0511 172.467 28.4162 172.369 28.8423 172.369C29.2741 172.369 29.6335 172.467 29.9205 172.663C30.2102 172.857 30.4361 173.128 30.598 173.477H30.6662C30.8338 173.139 31.0852 172.871 31.4205 172.672C31.7557 172.47 32.1577 172.369 32.6264 172.369C33.2116 172.369 33.6903 172.553 34.0625 172.919C34.4347 173.283 34.6207 173.849 34.6207 174.619V179H33.6151V174.619C33.6151 174.136 33.483 173.791 33.2188 173.584C32.9545 173.376 32.6435 173.273 32.2855 173.273C31.8253 173.273 31.4688 173.412 31.2159 173.69C30.9631 173.966 30.8366 174.315 30.8366 174.739V179H29.8139V174.517C29.8139 174.145 29.6932 173.845 29.4517 173.618C29.2102 173.388 28.8991 173.273 28.5185 173.273C28.2571 173.273 28.0128 173.342 27.7855 173.482C27.5611 173.621 27.3793 173.814 27.2401 174.061C27.1037 174.305 27.0355 174.588 27.0355 174.909V179H26.0298ZM36.5959 179V170.273H37.6016V173.494H37.6868C37.7607 173.381 37.8629 173.236 37.9936 173.06C38.1271 172.881 38.3175 172.722 38.5646 172.582C38.8146 172.44 39.1527 172.369 39.5788 172.369C40.13 172.369 40.6158 172.507 41.0362 172.783C41.4567 173.058 41.7848 173.449 42.0206 173.955C42.2564 174.46 42.3743 175.057 42.3743 175.744C42.3743 176.438 42.2564 177.038 42.0206 177.547C41.7848 178.053 41.4581 178.445 41.0405 178.723C40.6229 178.999 40.1413 179.136 39.5959 179.136C39.1754 179.136 38.8388 179.067 38.5859 178.928C38.3331 178.786 38.1385 178.625 38.0021 178.446C37.8658 178.264 37.7607 178.114 37.6868 177.994H37.5675V179H36.5959ZM37.5845 175.727C37.5845 176.222 37.657 176.658 37.8018 177.036C37.9467 177.411 38.1584 177.705 38.4368 177.918C38.7152 178.128 39.0561 178.233 39.4595 178.233C39.88 178.233 40.2308 178.122 40.5121 177.901C40.7962 177.676 41.0092 177.375 41.1513 176.997C41.2962 176.616 41.3686 176.193 41.3686 175.727C41.3686 175.267 41.2976 174.852 41.1555 174.483C41.0163 174.111 40.8047 173.817 40.5206 173.601C40.2393 173.382 39.8857 173.273 39.4595 173.273C39.0504 173.273 38.7067 173.376 38.4283 173.584C38.1499 173.788 37.9396 174.075 37.7976 174.445C37.6555 174.811 37.5845 175.239 37.5845 175.727ZM43.9126 179V172.455H44.9183V179H43.9126ZM44.424 171.364C44.228 171.364 44.0589 171.297 43.9169 171.163C43.7777 171.03 43.7081 170.869 43.7081 170.682C43.7081 170.494 43.7777 170.334 43.9169 170.2C44.0589 170.067 44.228 170 44.424 170C44.62 170 44.7876 170.067 44.9268 170.2C45.0689 170.334 45.1399 170.494 45.1399 170.682C45.1399 170.869 45.0689 171.03 44.9268 171.163C44.7876 171.297 44.62 171.364 44.424 171.364ZM49.5046 179.136C48.8739 179.136 48.3299 178.997 47.8725 178.719C47.418 178.438 47.0671 178.045 46.82 177.543C46.5756 177.037 46.4535 176.449 46.4535 175.778C46.4535 175.108 46.5756 174.517 46.82 174.006C47.0671 173.491 47.4109 173.091 47.8512 172.804C48.2944 172.514 48.8114 172.369 49.4023 172.369C49.7433 172.369 50.0799 172.426 50.4123 172.54C50.7447 172.653 51.0472 172.838 51.32 173.094C51.5927 173.347 51.81 173.682 51.9719 174.099C52.1339 174.517 52.2148 175.031 52.2148 175.642V176.068H47.1694V175.199H51.1921C51.1921 174.83 51.1183 174.5 50.9705 174.21C50.8256 173.92 50.6183 173.692 50.3484 173.524C50.0813 173.357 49.766 173.273 49.4023 173.273C49.0018 173.273 48.6552 173.372 48.3626 173.571C48.0728 173.767 47.8498 174.023 47.6935 174.338C47.5373 174.653 47.4592 174.991 47.4592 175.352V175.932C47.4592 176.426 47.5444 176.845 47.7148 177.189C47.8881 177.53 48.1282 177.79 48.435 177.969C48.7418 178.145 49.0984 178.233 49.5046 178.233C49.7688 178.233 50.0075 178.196 50.2205 178.122C50.4364 178.045 50.6225 177.932 50.7788 177.781C50.935 177.628 51.0558 177.437 51.141 177.21L52.1126 177.483C52.0103 177.812 51.8384 178.102 51.5969 178.352C51.3555 178.599 51.0572 178.793 50.7021 178.932C50.3469 179.068 49.9478 179.136 49.5046 179.136ZM54.7504 175.062V179H53.7447V172.455H54.7163V173.477H54.8015C54.9549 173.145 55.1879 172.878 55.5004 172.676C55.8129 172.472 56.2163 172.369 56.7106 172.369C57.1538 172.369 57.5415 172.46 57.8739 172.642C58.2063 172.821 58.4648 173.094 58.6495 173.46C58.8342 173.824 58.9265 174.284 58.9265 174.841V179H57.9208V174.909C57.9208 174.395 57.7873 173.994 57.5202 173.707C57.2532 173.418 56.8867 173.273 56.4208 173.273C56.0998 173.273 55.8129 173.342 55.56 173.482C55.31 173.621 55.1126 173.824 54.9677 174.091C54.8228 174.358 54.7504 174.682 54.7504 175.062ZM63.6108 172.455V173.307H60.2188V172.455H63.6108ZM61.2074 170.886H62.2131V177.125C62.2131 177.409 62.2543 177.622 62.3366 177.764C62.4219 177.903 62.5298 177.997 62.6605 178.045C62.794 178.091 62.9347 178.114 63.0824 178.114C63.1932 178.114 63.2841 178.108 63.3551 178.097C63.4261 178.082 63.483 178.071 63.5256 178.062L63.7301 178.966C63.6619 178.991 63.5668 179.017 63.4446 179.043C63.3224 179.071 63.1676 179.085 62.9801 179.085C62.696 179.085 62.4176 179.024 62.1449 178.902C61.875 178.78 61.6506 178.594 61.4716 178.344C61.2955 178.094 61.2074 177.778 61.2074 177.398V170.886ZM67.0497 179.153C66.6349 179.153 66.2585 179.075 65.9205 178.919C65.5824 178.76 65.3139 178.531 65.1151 178.233C64.9162 177.932 64.8168 177.568 64.8168 177.142C64.8168 176.767 64.8906 176.463 65.0384 176.23C65.1861 175.994 65.3835 175.81 65.6307 175.676C65.8778 175.543 66.1506 175.443 66.4489 175.378C66.75 175.31 67.0526 175.256 67.3565 175.216C67.7543 175.165 68.0767 175.126 68.3239 175.101C68.5739 175.072 68.7557 175.026 68.8693 174.96C68.9858 174.895 69.044 174.781 69.044 174.619V174.585C69.044 174.165 68.929 173.838 68.6989 173.605C68.4716 173.372 68.1264 173.256 67.6634 173.256C67.1832 173.256 66.8068 173.361 66.5341 173.571C66.2614 173.781 66.0696 174.006 65.9588 174.244L65.0043 173.903C65.1747 173.506 65.402 173.196 65.6861 172.974C65.973 172.75 66.2855 172.594 66.6236 172.506C66.9645 172.415 67.2997 172.369 67.6293 172.369C67.8395 172.369 68.081 172.395 68.3537 172.446C68.6293 172.494 68.8949 172.595 69.1506 172.749C69.4091 172.902 69.6236 173.134 69.794 173.443C69.9645 173.753 70.0497 174.168 70.0497 174.688V179H69.044V178.114H68.9929C68.9247 178.256 68.8111 178.408 68.652 178.57C68.4929 178.732 68.2813 178.869 68.017 178.983C67.7528 179.097 67.4304 179.153 67.0497 179.153ZM67.2031 178.25C67.6009 178.25 67.9361 178.172 68.2088 178.016C68.4844 177.859 68.6918 177.658 68.831 177.411C68.973 177.163 69.044 176.903 69.044 176.631V175.71C69.0014 175.761 68.9077 175.808 68.7628 175.851C68.6207 175.891 68.456 175.926 68.2685 175.957C68.0838 175.986 67.9034 176.011 67.7273 176.034C67.554 176.054 67.4134 176.071 67.3054 176.085C67.044 176.119 66.7997 176.175 66.5724 176.251C66.348 176.325 66.1662 176.437 66.027 176.588C65.8906 176.736 65.8224 176.937 65.8224 177.193C65.8224 177.543 65.9517 177.807 66.2102 177.986C66.4716 178.162 66.8026 178.25 67.2031 178.25ZM72.891 170.273V179H71.8853V170.273H72.891Z" fill="black"/>
<circle cx="4.5" cy="175.5" r="4.5" fill="#38A169"/>
<path d="M116.83 172.455C116.778 172.023 116.571 171.688 116.207 171.449C115.844 171.21 115.398 171.091 114.869 171.091C114.483 171.091 114.145 171.153 113.855 171.278C113.568 171.403 113.344 171.575 113.182 171.794C113.023 172.013 112.943 172.261 112.943 172.54C112.943 172.773 112.999 172.973 113.109 173.141C113.223 173.305 113.368 173.443 113.544 173.554C113.72 173.662 113.905 173.751 114.098 173.822C114.291 173.891 114.469 173.946 114.631 173.989L115.517 174.227C115.744 174.287 115.997 174.369 116.276 174.474C116.557 174.58 116.825 174.723 117.081 174.905C117.339 175.084 117.553 175.314 117.72 175.595C117.888 175.876 117.972 176.222 117.972 176.631C117.972 177.102 117.848 177.528 117.601 177.909C117.357 178.29 116.999 178.592 116.527 178.817C116.058 179.041 115.489 179.153 114.818 179.153C114.193 179.153 113.652 179.053 113.195 178.851C112.74 178.649 112.382 178.368 112.121 178.007C111.862 177.646 111.716 177.227 111.682 176.75H112.773C112.801 177.08 112.912 177.352 113.105 177.568C113.301 177.781 113.548 177.94 113.847 178.045C114.148 178.148 114.472 178.199 114.818 178.199C115.222 178.199 115.584 178.134 115.905 178.003C116.226 177.869 116.48 177.685 116.668 177.449C116.855 177.21 116.949 176.932 116.949 176.614C116.949 176.324 116.868 176.088 116.706 175.906C116.544 175.724 116.331 175.577 116.067 175.463C115.803 175.349 115.517 175.25 115.21 175.165L114.136 174.858C113.455 174.662 112.915 174.382 112.517 174.018C112.119 173.655 111.92 173.179 111.92 172.591C111.92 172.102 112.053 171.676 112.317 171.312C112.584 170.946 112.942 170.662 113.391 170.46C113.842 170.256 114.347 170.153 114.903 170.153C115.466 170.153 115.966 170.254 116.403 170.456C116.841 170.655 117.188 170.928 117.443 171.274C117.702 171.621 117.838 172.014 117.852 172.455H116.83ZM122.232 179.136C121.641 179.136 121.123 178.996 120.676 178.714C120.233 178.433 119.887 178.04 119.637 177.534C119.39 177.028 119.266 176.437 119.266 175.761C119.266 175.08 119.39 174.484 119.637 173.976C119.887 173.467 120.233 173.072 120.676 172.791C121.123 172.51 121.641 172.369 122.232 172.369C122.823 172.369 123.34 172.51 123.783 172.791C124.229 173.072 124.576 173.467 124.823 173.976C125.073 174.484 125.198 175.08 125.198 175.761C125.198 176.437 125.073 177.028 124.823 177.534C124.576 178.04 124.229 178.433 123.783 178.714C123.34 178.996 122.823 179.136 122.232 179.136ZM122.232 178.233C122.681 178.233 123.05 178.118 123.34 177.888C123.63 177.658 123.844 177.355 123.983 176.98C124.123 176.605 124.192 176.199 124.192 175.761C124.192 175.324 124.123 174.916 123.983 174.538C123.844 174.161 123.63 173.855 123.34 173.622C123.05 173.389 122.681 173.273 122.232 173.273C121.783 173.273 121.414 173.389 121.124 173.622C120.834 173.855 120.62 174.161 120.48 174.538C120.341 174.916 120.272 175.324 120.272 175.761C120.272 176.199 120.341 176.605 120.48 176.98C120.62 177.355 120.834 177.658 121.124 177.888C121.414 178.118 121.783 178.233 122.232 178.233ZM129.392 179.136C128.778 179.136 128.25 178.991 127.807 178.702C127.364 178.412 127.023 178.013 126.784 177.504C126.545 176.996 126.426 176.415 126.426 175.761C126.426 175.097 126.548 174.51 126.793 174.001C127.04 173.49 127.384 173.091 127.824 172.804C128.267 172.514 128.784 172.369 129.375 172.369C129.835 172.369 130.25 172.455 130.619 172.625C130.989 172.795 131.291 173.034 131.527 173.341C131.763 173.648 131.909 174.006 131.966 174.415H130.96C130.884 174.116 130.713 173.852 130.449 173.622C130.188 173.389 129.835 173.273 129.392 173.273C129 173.273 128.656 173.375 128.361 173.58C128.068 173.781 127.839 174.067 127.675 174.436C127.513 174.803 127.432 175.233 127.432 175.727C127.432 176.233 127.511 176.673 127.67 177.048C127.832 177.423 128.06 177.714 128.352 177.922C128.648 178.129 128.994 178.233 129.392 178.233C129.653 178.233 129.891 178.188 130.104 178.097C130.317 178.006 130.497 177.875 130.645 177.705C130.793 177.534 130.898 177.33 130.96 177.091H131.966C131.909 177.477 131.768 177.825 131.544 178.135C131.322 178.442 131.028 178.686 130.662 178.868C130.298 179.047 129.875 179.136 129.392 179.136ZM133.436 179V172.455H134.442V179H133.436ZM133.947 171.364C133.751 171.364 133.582 171.297 133.44 171.163C133.301 171.03 133.232 170.869 133.232 170.682C133.232 170.494 133.301 170.334 133.44 170.2C133.582 170.067 133.751 170 133.947 170C134.143 170 134.311 170.067 134.45 170.2C134.592 170.334 134.663 170.494 134.663 170.682C134.663 170.869 134.592 171.03 134.45 171.163C134.311 171.297 134.143 171.364 133.947 171.364ZM138.21 179.153C137.795 179.153 137.419 179.075 137.081 178.919C136.743 178.76 136.474 178.531 136.275 178.233C136.076 177.932 135.977 177.568 135.977 177.142C135.977 176.767 136.051 176.463 136.199 176.23C136.346 175.994 136.544 175.81 136.791 175.676C137.038 175.543 137.311 175.443 137.609 175.378C137.91 175.31 138.213 175.256 138.517 175.216C138.914 175.165 139.237 175.126 139.484 175.101C139.734 175.072 139.916 175.026 140.029 174.96C140.146 174.895 140.204 174.781 140.204 174.619V174.585C140.204 174.165 140.089 173.838 139.859 173.605C139.632 173.372 139.287 173.256 138.824 173.256C138.343 173.256 137.967 173.361 137.694 173.571C137.422 173.781 137.23 174.006 137.119 174.244L136.164 173.903C136.335 173.506 136.562 173.196 136.846 172.974C137.133 172.75 137.446 172.594 137.784 172.506C138.125 172.415 138.46 172.369 138.789 172.369C139 172.369 139.241 172.395 139.514 172.446C139.789 172.494 140.055 172.595 140.311 172.749C140.569 172.902 140.784 173.134 140.954 173.443C141.125 173.753 141.21 174.168 141.21 174.688V179H140.204V178.114H140.153C140.085 178.256 139.971 178.408 139.812 178.57C139.653 178.732 139.441 178.869 139.177 178.983C138.913 179.097 138.591 179.153 138.21 179.153ZM138.363 178.25C138.761 178.25 139.096 178.172 139.369 178.016C139.645 177.859 139.852 177.658 139.991 177.411C140.133 177.163 140.204 176.903 140.204 176.631V175.71C140.162 175.761 140.068 175.808 139.923 175.851C139.781 175.891 139.616 175.926 139.429 175.957C139.244 175.986 139.064 176.011 138.887 176.034C138.714 176.054 138.574 176.071 138.466 176.085C138.204 176.119 137.96 176.175 137.733 176.251C137.508 176.325 137.326 176.437 137.187 176.588C137.051 176.736 136.983 176.937 136.983 177.193C136.983 177.543 137.112 177.807 137.37 177.986C137.632 178.162 137.963 178.25 138.363 178.25ZM144.051 170.273V179H143.045V170.273H144.051Z" fill="black"/>
<circle cx="98.5" cy="175.5" r="4.5" fill="#3182CE"/>
</svg>
