<svg width="128" height="128" viewBox="0 0 128 128" fill="none" xmlns="http://www.w3.org/2000/svg">
<g opacity="0.4">
<path d="M26.8879 79.6929C38.1648 92.6181 49.5515 94.2545 65.5572 97.3175C81.5629 100.381 93.3154 98.2637 101.975 90.4574C111.974 81.4342 111.579 60.7636 96.2785 53.4036C91.4985 51.099 85.8064 50.4015 81.619 47.1605C73.6222 40.9759 67.1546 31.3527 54.3168 29.5456C41.4791 27.7386 32.8239 36.3497 32.8239 36.3497C22.281 47.8945 15.611 66.758 26.8879 79.6929Z" fill="#22543D"/>
<path opacity="0.7" d="M26.8879 79.6929C38.1648 92.6181 49.5515 94.2545 65.5572 97.3175C81.5629 100.381 93.3154 98.2637 101.975 90.4574C111.974 81.4342 111.579 60.7636 96.2785 53.4036C91.4985 51.099 85.8064 50.4015 81.619 47.1605C73.6222 40.9759 67.1546 31.3527 54.3168 29.5456C41.4791 27.7386 32.8239 36.3497 32.8239 36.3497C22.281 47.8945 15.611 66.758 26.8879 79.6929Z" fill="white"/>
</g>
<path d="M112.921 100.361H17.8085V104.263H112.921V100.361Z" fill="#276749"/>
<path opacity="0.5" d="M112.921 100.361H17.8085V104.263H112.921V100.361Z" fill="white"/>
<path d="M40.2363 58.3929C39.7711 58.5447 39.3144 58.7213 38.8681 58.9221C39.112 58.7441 39.3559 58.5588 39.5998 58.371C40.6856 57.4977 41.719 56.5613 42.6946 55.5664C41.5497 56.6786 40.3273 57.7078 39.0364 58.6465C39.2144 58.3374 39.3708 58.0163 39.5047 57.6857C39.7485 57.0785 39.7924 56.4663 39.2144 56.142C38.4999 55.742 37.6366 56.3395 37.8634 57.3613C38.0018 57.9318 38.2715 58.4621 38.6511 58.9099C37.8087 59.4931 36.9288 60.0202 36.0172 60.4878L35.9319 60.5317C36.1246 60.1979 36.2948 59.8516 36.4416 59.4952C36.6708 58.8904 36.7293 58.2759 36.1489 57.954C35.4343 57.5516 34.571 58.1515 34.8003 59.1733C34.9364 59.7361 35.2 60.2601 35.5709 60.7048C34.4759 61.2438 33.3443 61.7023 32.2176 62.1998L32.0542 62.2729C32.2741 62.0368 32.4786 61.7867 32.6663 61.5242C33.0321 60.9877 33.2297 60.4073 32.7419 59.9561C32.142 59.4001 31.1592 59.7805 31.1445 60.8341C31.1452 61.4155 31.2804 61.989 31.5396 62.5095C30.4853 63.0021 29.4835 63.6002 28.5497 64.2946L28.5204 64.319C28.6467 64.1188 28.7623 63.912 28.8667 63.6996C29.1423 63.1118 29.2447 62.507 28.6887 62.1388C28.5757 62.0611 28.4466 62.01 28.311 61.9894C28.1754 61.9688 28.0369 61.9792 27.906 62.0198C27.775 62.0604 27.6549 62.1302 27.5548 62.2238C27.4546 62.3175 27.3771 62.4327 27.3278 62.5607C27.2545 62.4463 27.1551 62.351 27.0376 62.2827C26.4791 61.9608 25.9304 62.3095 25.4597 62.8021C25.3378 62.9314 25.2159 63.0704 25.111 63.2069C25.4741 62.1993 25.9305 61.2277 26.4743 60.3049C26.9921 60.5311 27.5505 60.6497 28.1156 60.6536C29.2276 60.6536 29.6959 59.7269 29.1496 59.1514C28.7057 58.6856 28.0814 58.8636 27.4912 59.205C27.2969 59.3183 27.1088 59.4421 26.9279 59.5757C27.4932 58.7242 28.1348 57.9259 28.8448 57.1906C29.31 57.5669 29.8505 57.8389 30.43 57.9881C31.5103 58.2539 32.1883 57.4711 31.7981 56.7809C31.4811 56.22 30.8226 56.242 30.1763 56.4298C29.867 56.5223 29.5639 56.6347 29.2691 56.7663C29.5642 56.4785 29.869 56.203 30.1788 55.9298C30.5836 55.5835 31.0031 55.2494 31.4299 54.9226C31.8887 55.2888 32.4198 55.5539 32.9882 55.7006C34.0686 55.9664 34.7466 55.1836 34.3564 54.4934C34.0394 53.9325 33.3809 53.9545 32.7322 54.1422C32.581 54.1861 32.4273 54.2398 32.2786 54.2959C32.8419 53.8935 33.4126 53.5009 33.9857 53.1107L34.5149 52.7473C34.9918 53.1467 35.5516 53.435 36.1538 53.5911C37.2342 53.8569 37.9146 53.0741 37.5244 52.3839C37.2049 51.823 36.5489 51.845 35.9001 52.0328C35.6449 52.1108 35.3937 52.201 35.1466 52.3035L35.4734 52.0596C35.6733 51.9157 35.8733 51.7694 36.0684 51.6157C36.3123 51.4328 36.544 51.2304 36.7805 51.0353C36.9171 50.928 37.0464 50.8134 37.1756 50.6963C37.6544 51.1 38.2179 51.3909 38.8242 51.5474C39.9046 51.8133 40.5826 51.0304 40.1924 50.3403C39.8754 49.7794 39.2169 49.8013 38.5706 49.9891C38.2082 50.1011 37.8531 50.2355 37.5073 50.3915C37.9487 49.9818 38.3755 49.555 38.7803 49.1112C38.8072 49.0795 38.8316 49.0478 38.8608 49.0185C39.034 48.8258 39.2047 48.6307 39.3705 48.4283C39.5364 48.2259 39.751 47.9601 39.9314 47.7162C40.6725 46.7435 41.2826 45.6776 41.7459 44.5459C41.2604 45.6642 40.6298 46.7137 39.8705 47.6675C39.1195 48.6252 38.281 49.511 37.3659 50.3135L37.2659 50.3988C37.4737 50.0448 37.6579 49.6774 37.817 49.299C38.0487 48.6942 38.1048 48.0796 37.5244 47.7577C36.8123 47.3553 35.9465 47.9552 36.1757 48.977C36.323 49.5821 36.617 50.1416 37.0317 50.6061L36.8171 50.7914L36.5732 51.0012C36.4318 51.1158 36.2855 51.2255 36.1391 51.3353C36.0611 51.3938 35.9855 51.4548 35.8953 51.5133C35.688 51.6669 35.4782 51.8157 35.2661 51.962L34.9612 52.1693L34.6149 52.4132C34.8173 52.0677 34.995 51.7083 35.1466 51.3377C35.3782 50.7305 35.4343 50.1184 34.8563 49.7965C34.1418 49.3941 33.276 49.994 33.5053 51.0158C33.6466 51.6028 33.9268 52.1472 34.3223 52.6034L34.0784 52.7692L33.1297 53.3911L32.9419 53.5131L32.4127 53.8667L32.1834 54.0203C31.9396 54.1886 31.6957 54.3593 31.4518 54.5349C31.6478 54.1839 31.8189 53.8196 31.964 53.4448C32.2078 52.84 32.2517 52.2254 31.6737 51.9035C30.9592 51.5011 30.0958 52.101 30.3251 53.1229C30.4683 53.7177 30.7547 54.2685 31.1592 54.7275C30.7446 55.0324 30.3348 55.3445 29.9398 55.6713C29.6496 55.9152 29.3642 56.1591 29.0838 56.4224C29.2059 56.1964 29.3151 55.9635 29.4106 55.725C29.6398 55.1177 29.6983 54.5056 29.1179 54.1837C28.4033 53.7813 27.54 54.3812 27.7693 55.4031C27.9054 55.9659 28.169 56.4899 28.5399 56.9346C27.75 57.7195 27.0386 58.5795 26.4157 59.5025C26.4864 59.2363 26.5402 58.9659 26.5767 58.6929C26.6547 58.0491 26.5621 57.4443 25.9207 57.2687C25.1305 57.0516 24.4379 57.8418 24.9086 58.7831C25.1793 59.3013 25.5667 59.7496 26.0402 60.0927C25.4258 61.0961 24.9128 62.1581 24.5086 63.263C24.4981 63.0319 24.4753 62.8016 24.4403 62.5729C24.3306 61.9315 24.0721 61.3779 23.4063 61.3901C22.5868 61.4072 22.1454 62.3656 22.8649 63.1313C23.2485 63.5314 23.7168 63.8405 24.2355 64.0361C23.9581 64.8891 23.7325 65.758 23.5599 66.6382C23.5307 66.7772 23.5087 66.9162 23.4819 67.0552C23.4526 67.0821 23.4233 67.1089 23.3965 67.1381C23.3673 67.0187 23.3331 66.8943 23.2941 66.7797C23.0892 66.1651 22.7478 65.6554 22.0918 65.7725C21.287 65.9139 20.9968 66.9235 21.8259 67.5747C22.2474 67.8963 22.7331 68.1234 23.2502 68.2405C23.2502 68.2648 23.2697 68.2868 23.2819 68.3112C23.1917 68.9721 23.1234 69.6378 23.0819 70.306C23.0502 70.7938 23.0331 71.3035 23.0234 71.8034C22.3259 71.8034 21.8333 72.5692 22.3137 73.3983C22.5164 73.7421 22.7762 74.0489 23.0819 74.3055C23.1404 75.2444 23.2331 76.1833 23.3575 77.1149C23.2589 77.0237 23.1382 76.9598 23.0073 76.9294C22.8765 76.8991 22.7399 76.9033 22.6112 76.9418C22.1723 77.0613 21.9747 77.4149 21.904 77.849C21.7478 78.0106 21.6604 78.2266 21.6601 78.4513C21.3333 77.9636 21.0236 77.4759 20.7236 76.9613C21.1815 76.6103 21.5611 76.1676 21.8381 75.6615C22.3625 74.686 21.7699 73.83 21.0065 74.0373C20.3822 74.208 20.2456 74.842 20.2749 75.5224C20.2846 75.7805 20.3091 76.0378 20.348 76.2931L20.0261 75.7273C19.7579 75.2396 19.5384 74.7518 19.275 74.2641C19.2116 74.1446 19.1555 74.0202 19.1043 73.8983C19.6181 73.6394 20.0724 73.2765 20.4383 72.8325C21.1382 71.9692 20.7163 71.0206 19.9261 71.0816C19.2823 71.1328 19.0262 71.7302 18.9189 72.4033C18.8771 72.6968 18.851 72.9923 18.8409 73.2886L18.6116 72.7594C18.1234 71.5589 17.7216 70.325 17.4093 69.0672C17.9909 68.8611 18.5191 68.5278 18.9555 68.0917C19.7384 67.2991 19.414 66.3163 18.6214 66.2968C17.9776 66.2822 17.6629 66.8504 17.4874 67.5162C17.4013 67.8696 17.337 68.2279 17.2947 68.5892C17.124 67.8673 16.9777 67.1357 16.8557 66.3943C16.7728 65.9407 16.7191 65.4798 16.663 65.0213C17.2881 64.8975 17.8769 64.6331 18.3848 64.2483C19.2628 63.5654 19.0701 62.5412 18.2848 62.4266C17.6483 62.3266 17.263 62.8509 17.0045 63.4825C16.8531 63.8809 16.7261 64.2881 16.624 64.7019C16.5753 64.1702 16.5192 63.6362 16.4948 63.1021C16.4216 61.9994 16.4216 60.893 16.4948 59.7903C16.3834 60.8921 16.3452 62.0001 16.3801 63.107C16.3801 63.6166 16.424 64.1239 16.4558 64.6336C16.3164 64.2871 16.1535 63.9506 15.968 63.6264C15.6363 63.0679 15.1925 62.6509 14.5779 62.8948C13.8194 63.2069 13.7536 64.2556 14.7047 64.7141C15.2626 64.9703 15.8745 65.0867 16.4875 65.0531C16.5314 65.5091 16.5704 65.9627 16.6387 66.4138C16.7338 67.1455 16.8557 67.8478 16.9996 68.5575C16.8435 68.2856 16.67 68.0241 16.4801 67.7747C16.0777 67.265 15.5851 66.904 15.0169 67.2333C14.3072 67.6405 14.3755 68.6965 15.3778 69.0208C15.945 69.1971 16.5457 69.2372 17.1313 69.1379C17.4095 70.4095 17.7754 71.6603 18.2263 72.8813L18.3702 73.2471C18.2412 73.0763 18.1019 72.9134 17.9532 72.7594C17.502 72.2912 16.9777 71.9814 16.4338 72.3692C15.768 72.8569 15.946 73.8812 16.9703 74.1104C17.5356 74.2249 18.1196 74.2082 18.6775 74.0617C18.7287 74.186 18.7799 74.3055 18.8409 74.4323C19.0848 74.9347 19.3018 75.4493 19.5579 75.9419L19.7701 76.3687C19.6432 76.2589 19.5115 76.1541 19.375 76.0565C18.8433 75.6834 18.2678 75.4786 17.8093 75.959C17.2435 76.5516 17.6093 77.5368 18.6628 77.5685C19.2113 77.5813 19.7559 77.4731 20.2578 77.2515C20.5602 77.7978 20.8699 78.3367 21.2065 78.8659C21.3309 79.0683 21.4504 79.2683 21.5918 79.4683C21.4005 79.2934 21.1985 79.1305 20.987 78.9805C20.4554 78.6074 19.8798 78.4026 19.4189 78.883C18.8555 79.4756 19.2213 80.4608 20.2749 80.4925C20.877 80.4998 21.4723 80.3635 22.0113 80.095C22.1869 80.3389 22.3674 80.5828 22.5527 80.8267C22.1601 81.2827 22.2893 82.046 23.0868 82.3947C23.4741 82.5562 23.8869 82.6478 24.3062 82.6654C24.355 82.7045 24.4037 82.7435 24.4574 82.7801L24.4818 82.7996C24.9858 84.6823 25.5833 86.5373 26.2743 88.3647C26.5669 89.1427 26.8815 89.9133 27.2059 90.6791H24.2794V102.219H33.2224V90.6693H28.4619C28.0546 89.7792 27.6619 88.8793 27.2961 87.9697C26.6986 86.4772 26.1572 84.9603 25.6865 83.4214C25.7666 83.445 25.8481 83.4638 25.9304 83.4775C26.0387 83.4995 26.1498 83.5044 26.2596 83.4922L26.1328 82.6898H26.0475C25.9966 82.6827 25.9461 82.6729 25.8963 82.6606C25.7836 82.6283 25.6735 82.5875 25.567 82.5386L25.4402 82.4801C25.9109 82.3161 26.348 82.0682 26.7303 81.7485C27.5766 81.0169 27.3376 80.017 26.5474 79.9316C25.9085 79.8609 25.5475 80.4023 25.328 81.0437C25.2622 81.2266 25.2085 81.4168 25.1622 81.6022C25.1159 81.4315 25.0695 81.2607 25.0256 81.09C24.8964 80.5852 24.7817 80.0755 24.6647 79.5658C25.1755 79.4065 25.6502 79.1489 26.0621 78.8074C26.9084 78.0758 26.6669 77.0784 25.8792 76.993C25.2378 76.9223 24.8793 77.4637 24.6598 78.105C24.594 78.2904 24.5379 78.4831 24.4891 78.6733C24.4159 78.3026 24.3452 77.9295 24.2794 77.5563C24.233 77.2808 24.1891 77.0027 24.1477 76.7247C24.133 76.3297 24.1257 75.9346 24.1306 75.5371C24.1306 75.32 24.1306 75.103 24.1501 74.8859C24.6282 75.037 25.1297 75.1006 25.6304 75.0737C26.7425 75.0006 27.1522 74.0495 26.5718 73.5105C26.0987 73.0691 25.4866 73.2886 24.9183 73.6642C24.6635 73.8373 24.4192 74.0254 24.1867 74.2275C24.2552 73.2993 24.3962 72.3779 24.6086 71.4717C24.733 70.938 24.8886 70.4119 25.0744 69.8963C25.5843 70.0721 26.1235 70.1475 26.662 70.1183C27.7741 70.0475 28.1838 69.0964 27.6034 68.555C27.1327 68.1161 26.5182 68.3331 25.9499 68.7111C25.7516 68.8474 25.561 68.9948 25.3792 69.1525C25.5937 68.648 25.8431 68.1591 26.1255 67.6893C26.6857 66.7414 27.3881 65.8852 28.2082 65.1506C28.6332 65.5426 29.1359 65.8409 29.6837 66.0261C30.7421 66.3724 31.4762 65.6408 31.147 64.9238C30.8714 64.3409 30.2227 64.3141 29.5544 64.4531C29.2969 64.5081 29.0429 64.5782 28.7935 64.6629L28.8106 64.6482C29.7206 63.9382 30.7013 63.3236 31.7371 62.8143C32.1026 63.2928 32.5667 63.687 33.098 63.9703C34.0881 64.48 34.9295 63.8751 34.71 63.1143C34.532 62.4948 33.8955 62.3656 33.215 62.3827C32.9478 62.3972 32.6816 62.4265 32.4176 62.4704C33.5175 61.951 34.6393 61.4608 35.7221 60.8877H35.7465C36.2313 61.3062 36.8064 61.6067 37.4268 61.7657C38.5072 62.0339 39.1852 61.2487 38.795 60.5463C38.4779 59.9854 37.8195 60.0098 37.1732 60.1951C36.9903 60.2488 36.8074 60.3146 36.6293 60.3829C37.3525 59.9626 38.0533 59.5052 38.7291 59.0124L38.7852 59.0733V59.0416C39.2748 59.4639 39.8546 59.7683 40.4802 59.9318C41.5581 60.1976 42.2385 59.4147 41.8483 58.7124C41.541 58.1832 40.8923 58.2051 40.2363 58.3929ZM23.1843 80.4901C22.9624 80.2316 22.7527 79.9609 22.5478 79.6878C22.5966 79.6439 22.6503 79.5951 22.7039 79.5415C23.0087 79.6364 23.3241 79.6929 23.6428 79.7097V79.7609L23.7916 79.7292C23.8696 80.1145 23.9501 80.4974 24.0355 80.8803C23.9364 80.7506 23.8069 80.6472 23.6585 80.5791C23.5101 80.5111 23.3473 80.4805 23.1843 80.4901ZM23.9794 71.3084C23.9038 71.5961 23.8404 71.8839 23.7794 72.1741L23.7428 72.1229C23.7428 71.5278 23.7518 70.9344 23.7697 70.3426C23.7867 69.928 23.816 69.5159 23.8526 69.1013C24.0532 69.3057 24.2738 69.4895 24.511 69.65C24.3046 70.1928 24.128 70.7464 23.9818 71.3084H23.9794ZM24.9793 68.577C24.9939 68.4697 25.0061 68.3599 25.011 68.2526V68.0892C25.0988 68.0624 25.189 68.0307 25.2768 67.9941C25.1793 68.1868 25.0768 68.3819 24.9817 68.577H24.9793ZM26.2499 66.5163C26.2078 66.4198 26.1465 66.3329 26.0698 66.2608C25.993 66.1887 25.9025 66.1329 25.8036 66.0968C25.2012 65.8529 24.7135 66.2919 24.3257 66.8528L24.3062 66.8796H24.2672C24.2263 66.8704 24.1847 66.8647 24.1428 66.8626C24.1399 66.8283 24.1458 66.7939 24.1599 66.7626C24.3143 65.8816 24.5228 65.011 24.7842 64.1556C25.344 64.2267 25.9125 64.1827 26.4548 64.0264C26.7898 63.9384 27.0812 63.7311 27.2742 63.4435C27.3815 63.9352 27.5863 64.4004 27.8766 64.8116C27.2766 65.3219 26.7322 65.8941 26.2523 66.5187L26.2499 66.5163Z" fill="#276749"/>
<path opacity="0.3" d="M40.2363 58.3929C39.7711 58.5447 39.3144 58.7213 38.8681 58.9221C39.112 58.7441 39.3559 58.5588 39.5998 58.371C40.6856 57.4977 41.719 56.5613 42.6946 55.5664C41.5497 56.6786 40.3273 57.7078 39.0364 58.6465C39.2144 58.3374 39.3708 58.0163 39.5047 57.6857C39.7485 57.0785 39.7924 56.4663 39.2144 56.142C38.4999 55.742 37.6366 56.3395 37.8634 57.3613C38.0018 57.9318 38.2715 58.4621 38.6511 58.9099C37.8087 59.4931 36.9288 60.0202 36.0172 60.4878L35.9319 60.5317C36.1246 60.1979 36.2948 59.8516 36.4416 59.4952C36.6708 58.8904 36.7293 58.2759 36.1489 57.954C35.4343 57.5516 34.571 58.1515 34.8003 59.1733C34.9364 59.7361 35.2 60.2601 35.5709 60.7048C34.4759 61.2438 33.3443 61.7023 32.2176 62.1998L32.0542 62.2729C32.2741 62.0368 32.4786 61.7867 32.6663 61.5242C33.0321 60.9877 33.2297 60.4073 32.7419 59.9561C32.142 59.4001 31.1592 59.7805 31.1445 60.8341C31.1452 61.4155 31.2804 61.989 31.5396 62.5095C30.4853 63.0021 29.4835 63.6002 28.5497 64.2946L28.5204 64.319C28.6467 64.1188 28.7623 63.912 28.8667 63.6996C29.1423 63.1118 29.2447 62.507 28.6887 62.1388C28.5757 62.0611 28.4466 62.01 28.311 61.9894C28.1754 61.9688 28.0369 61.9792 27.906 62.0198C27.775 62.0604 27.6549 62.1302 27.5548 62.2238C27.4546 62.3175 27.3771 62.4327 27.3278 62.5607C27.2545 62.4463 27.1551 62.351 27.0376 62.2827C26.4791 61.9608 25.9304 62.3095 25.4597 62.8021C25.3378 62.9314 25.2159 63.0704 25.111 63.2069C25.4741 62.1993 25.9305 61.2277 26.4743 60.3049C26.9921 60.5311 27.5505 60.6497 28.1156 60.6536C29.2276 60.6536 29.6959 59.7269 29.1496 59.1514C28.7057 58.6856 28.0814 58.8636 27.4912 59.205C27.2969 59.3183 27.1088 59.4421 26.9279 59.5757C27.4932 58.7242 28.1348 57.9259 28.8448 57.1906C29.31 57.5669 29.8505 57.8389 30.43 57.9881C31.5103 58.2539 32.1883 57.4711 31.7981 56.7809C31.4811 56.22 30.8226 56.242 30.1763 56.4298C29.867 56.5223 29.5639 56.6347 29.2691 56.7663C29.5642 56.4785 29.869 56.203 30.1788 55.9298C30.5836 55.5835 31.0031 55.2494 31.4299 54.9226C31.8887 55.2888 32.4198 55.5539 32.9882 55.7006C34.0686 55.9664 34.7466 55.1836 34.3564 54.4934C34.0394 53.9325 33.3809 53.9545 32.7322 54.1422C32.581 54.1861 32.4273 54.2398 32.2786 54.2959C32.8419 53.8935 33.4126 53.5009 33.9857 53.1107L34.5149 52.7473C34.9918 53.1467 35.5516 53.435 36.1538 53.5911C37.2342 53.8569 37.9146 53.0741 37.5244 52.3839C37.2049 51.823 36.5489 51.845 35.9001 52.0328C35.6449 52.1108 35.3937 52.201 35.1466 52.3035L35.4734 52.0596C35.6733 51.9157 35.8733 51.7694 36.0684 51.6157C36.3123 51.4328 36.544 51.2304 36.7805 51.0353C36.9171 50.928 37.0464 50.8134 37.1756 50.6963C37.6544 51.1 38.2179 51.3909 38.8242 51.5474C39.9046 51.8133 40.5826 51.0304 40.1924 50.3403C39.8754 49.7794 39.2169 49.8013 38.5706 49.9891C38.2082 50.1011 37.8531 50.2355 37.5073 50.3915C37.9487 49.9818 38.3755 49.555 38.7803 49.1112C38.8072 49.0795 38.8316 49.0478 38.8608 49.0185C39.034 48.8258 39.2047 48.6307 39.3705 48.4283C39.5364 48.2259 39.751 47.9601 39.9314 47.7162C40.6725 46.7435 41.2826 45.6776 41.7459 44.5459C41.2604 45.6642 40.6298 46.7137 39.8705 47.6675C39.1195 48.6252 38.281 49.511 37.3659 50.3135L37.2659 50.3988C37.4737 50.0448 37.6579 49.6774 37.817 49.299C38.0487 48.6942 38.1048 48.0796 37.5244 47.7577C36.8123 47.3553 35.9465 47.9552 36.1757 48.977C36.323 49.5821 36.617 50.1416 37.0317 50.6061L36.8171 50.7914L36.5732 51.0012C36.4318 51.1158 36.2855 51.2255 36.1391 51.3353C36.0611 51.3938 35.9855 51.4548 35.8953 51.5133C35.688 51.6669 35.4782 51.8157 35.2661 51.962L34.9612 52.1693L34.6149 52.4132C34.8173 52.0677 34.995 51.7083 35.1466 51.3377C35.3782 50.7305 35.4343 50.1184 34.8563 49.7965C34.1418 49.3941 33.276 49.994 33.5053 51.0158C33.6466 51.6028 33.9268 52.1472 34.3223 52.6034L34.0784 52.7692L33.1297 53.3911L32.9419 53.5131L32.4127 53.8667L32.1834 54.0203C31.9396 54.1886 31.6957 54.3593 31.4518 54.5349C31.6478 54.1839 31.8189 53.8196 31.964 53.4448C32.2078 52.84 32.2517 52.2254 31.6737 51.9035C30.9592 51.5011 30.0958 52.101 30.3251 53.1229C30.4683 53.7177 30.7547 54.2685 31.1592 54.7275C30.7446 55.0324 30.3348 55.3445 29.9398 55.6713C29.6496 55.9152 29.3642 56.1591 29.0838 56.4224C29.2059 56.1964 29.3151 55.9635 29.4106 55.725C29.6398 55.1177 29.6983 54.5056 29.1179 54.1837C28.4033 53.7813 27.54 54.3812 27.7693 55.4031C27.9054 55.9659 28.169 56.4899 28.5399 56.9346C27.75 57.7195 27.0386 58.5795 26.4157 59.5025C26.4864 59.2363 26.5402 58.9659 26.5767 58.6929C26.6547 58.0491 26.5621 57.4443 25.9207 57.2687C25.1305 57.0516 24.4379 57.8418 24.9086 58.7831C25.1793 59.3013 25.5667 59.7496 26.0402 60.0927C25.4258 61.0961 24.9128 62.1581 24.5086 63.263C24.4981 63.0319 24.4753 62.8016 24.4403 62.5729C24.3306 61.9315 24.0721 61.3779 23.4063 61.3901C22.5868 61.4072 22.1454 62.3656 22.8649 63.1313C23.2485 63.5314 23.7168 63.8405 24.2355 64.0361C23.9581 64.8891 23.7325 65.758 23.5599 66.6382C23.5307 66.7772 23.5087 66.9162 23.4819 67.0552C23.4526 67.0821 23.4233 67.1089 23.3965 67.1381C23.3673 67.0187 23.3331 66.8943 23.2941 66.7797C23.0892 66.1651 22.7478 65.6554 22.0918 65.7725C21.287 65.9139 20.9968 66.9235 21.8259 67.5747C22.2474 67.8963 22.7331 68.1234 23.2502 68.2405C23.2502 68.2648 23.2697 68.2868 23.2819 68.3112C23.1917 68.9721 23.1234 69.6378 23.0819 70.306C23.0502 70.7938 23.0331 71.3035 23.0234 71.8034C22.3259 71.8034 21.8333 72.5692 22.3137 73.3983C22.5164 73.7421 22.7762 74.0489 23.0819 74.3055C23.1404 75.2444 23.2331 76.1833 23.3575 77.1149C23.2589 77.0237 23.1382 76.9598 23.0073 76.9294C22.8765 76.8991 22.7399 76.9033 22.6112 76.9418C22.1723 77.0613 21.9747 77.4149 21.904 77.849C21.7478 78.0106 21.6604 78.2266 21.6601 78.4513C21.3333 77.9636 21.0236 77.4759 20.7236 76.9613C21.1815 76.6103 21.5611 76.1676 21.8381 75.6615C22.3625 74.686 21.7699 73.83 21.0065 74.0373C20.3822 74.208 20.2456 74.842 20.2749 75.5224C20.2846 75.7805 20.3091 76.0378 20.348 76.2931L20.0261 75.7273C19.7579 75.2396 19.5384 74.7518 19.275 74.2641C19.2116 74.1446 19.1555 74.0202 19.1043 73.8983C19.6181 73.6394 20.0724 73.2765 20.4383 72.8325C21.1382 71.9692 20.7163 71.0206 19.9261 71.0816C19.2823 71.1328 19.0262 71.7302 18.9189 72.4033C18.8771 72.6968 18.851 72.9923 18.8409 73.2886L18.6116 72.7594C18.1234 71.5589 17.7216 70.325 17.4093 69.0672C17.9909 68.8611 18.5191 68.5278 18.9555 68.0917C19.7384 67.2991 19.414 66.3163 18.6214 66.2968C17.9776 66.2822 17.6629 66.8504 17.4874 67.5162C17.4013 67.8696 17.337 68.2279 17.2947 68.5892C17.124 67.8673 16.9777 67.1357 16.8557 66.3943C16.7728 65.9407 16.7191 65.4798 16.663 65.0213C17.2881 64.8975 17.8769 64.6331 18.3848 64.2483C19.2628 63.5654 19.0701 62.5412 18.2848 62.4266C17.6483 62.3266 17.263 62.8509 17.0045 63.4825C16.8531 63.8809 16.7261 64.2881 16.624 64.7019C16.5753 64.1702 16.5192 63.6362 16.4948 63.1021C16.4216 61.9994 16.4216 60.893 16.4948 59.7903C16.3834 60.8921 16.3452 62.0001 16.3801 63.107C16.3801 63.6166 16.424 64.1239 16.4558 64.6336C16.3164 64.2871 16.1535 63.9506 15.968 63.6264C15.6363 63.0679 15.1925 62.6509 14.5779 62.8948C13.8194 63.2069 13.7536 64.2556 14.7047 64.7141C15.2626 64.9703 15.8745 65.0867 16.4875 65.0531C16.5314 65.5091 16.5704 65.9627 16.6387 66.4138C16.7338 67.1455 16.8557 67.8478 16.9996 68.5575C16.8435 68.2856 16.67 68.0241 16.4801 67.7747C16.0777 67.265 15.5851 66.904 15.0169 67.2333C14.3072 67.6405 14.3755 68.6965 15.3778 69.0208C15.945 69.1971 16.5457 69.2372 17.1313 69.1379C17.4095 70.4095 17.7754 71.6603 18.2263 72.8813L18.3702 73.2471C18.2412 73.0763 18.1019 72.9134 17.9532 72.7594C17.502 72.2912 16.9777 71.9814 16.4338 72.3692C15.768 72.8569 15.946 73.8812 16.9703 74.1104C17.5356 74.2249 18.1196 74.2082 18.6775 74.0617C18.7287 74.186 18.7799 74.3055 18.8409 74.4323C19.0848 74.9347 19.3018 75.4493 19.5579 75.9419L19.7701 76.3687C19.6432 76.2589 19.5115 76.1541 19.375 76.0565C18.8433 75.6834 18.2678 75.4786 17.8093 75.959C17.2435 76.5516 17.6093 77.5368 18.6628 77.5685C19.2113 77.5813 19.7559 77.4731 20.2578 77.2515C20.5602 77.7978 20.8699 78.3367 21.2065 78.8659C21.3309 79.0683 21.4504 79.2683 21.5918 79.4683C21.4005 79.2934 21.1985 79.1305 20.987 78.9805C20.4554 78.6074 19.8798 78.4026 19.4189 78.883C18.8555 79.4756 19.2213 80.4608 20.2749 80.4925C20.877 80.4998 21.4723 80.3635 22.0113 80.095C22.1869 80.3389 22.3674 80.5828 22.5527 80.8267C22.1601 81.2827 22.2893 82.046 23.0868 82.3947C23.4741 82.5562 23.8869 82.6478 24.3062 82.6654C24.355 82.7045 24.4037 82.7435 24.4574 82.7801L24.4818 82.7996C24.9858 84.6823 25.5833 86.5373 26.2743 88.3647C26.5669 89.1427 26.8815 89.9133 27.2059 90.6791H24.2794V102.219H33.2224V90.6693H28.4619C28.0546 89.7792 27.6619 88.8793 27.2961 87.9697C26.6986 86.4772 26.1572 84.9603 25.6865 83.4214C25.7666 83.445 25.8481 83.4638 25.9304 83.4775C26.0387 83.4995 26.1498 83.5044 26.2596 83.4922L26.1328 82.6898H26.0475C25.9966 82.6827 25.9461 82.6729 25.8963 82.6606C25.7836 82.6283 25.6735 82.5875 25.567 82.5386L25.4402 82.4801C25.9109 82.3161 26.348 82.0682 26.7303 81.7485C27.5766 81.0169 27.3376 80.017 26.5474 79.9316C25.9085 79.8609 25.5475 80.4023 25.328 81.0437C25.2622 81.2266 25.2085 81.4168 25.1622 81.6022C25.1159 81.4315 25.0695 81.2607 25.0256 81.09C24.8964 80.5852 24.7817 80.0755 24.6647 79.5658C25.1755 79.4065 25.6502 79.1489 26.0621 78.8074C26.9084 78.0758 26.6669 77.0784 25.8792 76.993C25.2378 76.9223 24.8793 77.4637 24.6598 78.105C24.594 78.2904 24.5379 78.4831 24.4891 78.6733C24.4159 78.3026 24.3452 77.9295 24.2794 77.5563C24.233 77.2808 24.1891 77.0027 24.1477 76.7247C24.133 76.3297 24.1257 75.9346 24.1306 75.5371C24.1306 75.32 24.1306 75.103 24.1501 74.8859C24.6282 75.037 25.1297 75.1006 25.6304 75.0737C26.7425 75.0006 27.1522 74.0495 26.5718 73.5105C26.0987 73.0691 25.4866 73.2886 24.9183 73.6642C24.6635 73.8373 24.4192 74.0254 24.1867 74.2275C24.2552 73.2993 24.3962 72.3779 24.6086 71.4717C24.733 70.938 24.8886 70.4119 25.0744 69.8963C25.5843 70.0721 26.1235 70.1475 26.662 70.1183C27.7741 70.0475 28.1838 69.0964 27.6034 68.555C27.1327 68.1161 26.5182 68.3331 25.9499 68.7111C25.7516 68.8474 25.561 68.9948 25.3792 69.1525C25.5937 68.648 25.8431 68.1591 26.1255 67.6893C26.6857 66.7414 27.3881 65.8852 28.2082 65.1506C28.6332 65.5426 29.1359 65.8409 29.6837 66.0261C30.7421 66.3724 31.4762 65.6408 31.147 64.9238C30.8714 64.3409 30.2227 64.3141 29.5544 64.4531C29.2969 64.5081 29.0429 64.5782 28.7935 64.6629L28.8106 64.6482C29.7206 63.9382 30.7013 63.3236 31.7371 62.8143C32.1026 63.2928 32.5667 63.687 33.098 63.9703C34.0881 64.48 34.9295 63.8751 34.71 63.1143C34.532 62.4948 33.8955 62.3656 33.215 62.3827C32.9478 62.3972 32.6816 62.4265 32.4176 62.4704C33.5175 61.951 34.6393 61.4608 35.7221 60.8877H35.7465C36.2313 61.3062 36.8064 61.6067 37.4268 61.7657C38.5072 62.0339 39.1852 61.2487 38.795 60.5463C38.4779 59.9854 37.8195 60.0098 37.1732 60.1951C36.9903 60.2488 36.8074 60.3146 36.6293 60.3829C37.3525 59.9626 38.0533 59.5052 38.7291 59.0124L38.7852 59.0733V59.0416C39.2748 59.4639 39.8546 59.7683 40.4802 59.9318C41.5581 60.1976 42.2385 59.4147 41.8483 58.7124C41.541 58.1832 40.8923 58.2051 40.2363 58.3929ZM23.1843 80.4901C22.9624 80.2316 22.7527 79.9609 22.5478 79.6878C22.5966 79.6439 22.6503 79.5951 22.7039 79.5415C23.0087 79.6364 23.3241 79.6929 23.6428 79.7097V79.7609L23.7916 79.7292C23.8696 80.1145 23.9501 80.4974 24.0355 80.8803C23.9364 80.7506 23.8069 80.6472 23.6585 80.5791C23.5101 80.5111 23.3473 80.4805 23.1843 80.4901ZM23.9794 71.3084C23.9038 71.5961 23.8404 71.8839 23.7794 72.1741L23.7428 72.1229C23.7428 71.5278 23.7518 70.9344 23.7697 70.3426C23.7867 69.928 23.816 69.5159 23.8526 69.1013C24.0532 69.3057 24.2738 69.4895 24.511 69.65C24.3046 70.1928 24.128 70.7464 23.9818 71.3084H23.9794ZM24.9793 68.577C24.9939 68.4697 25.0061 68.3599 25.011 68.2526V68.0892C25.0988 68.0624 25.189 68.0307 25.2768 67.9941C25.1793 68.1868 25.0768 68.3819 24.9817 68.577H24.9793ZM26.2499 66.5163C26.2078 66.4198 26.1465 66.3329 26.0698 66.2608C25.993 66.1887 25.9025 66.1329 25.8036 66.0968C25.2012 65.8529 24.7135 66.2919 24.3257 66.8528L24.3062 66.8796H24.2672C24.2263 66.8704 24.1847 66.8647 24.1428 66.8626C24.1399 66.8283 24.1458 66.7939 24.1599 66.7626C24.3143 65.8816 24.5228 65.011 24.7842 64.1556C25.344 64.2267 25.9125 64.1827 26.4548 64.0264C26.7898 63.9384 27.0812 63.7311 27.2742 63.4435C27.3815 63.9352 27.5863 64.4004 27.8766 64.8116C27.2766 65.3219 26.7322 65.8941 26.2523 66.5187L26.2499 66.5163Z" fill="white"/>
<path d="M100.37 91.5785C100.37 91.5785 99.1896 88.9423 98.9067 88.6716C98.6238 88.4009 96.3631 87.5815 95.7363 85.5013C95.1095 83.4211 93.9194 77.8681 96.9191 78.2315C99.9188 78.5948 99.1896 84.4112 100.28 84.2283C101.37 84.0454 99.3725 74.7807 101.28 73.4979C103.187 72.2152 106.277 73.4077 105.913 78.3144C105.55 83.2211 104.823 86.0353 105.46 85.7647C106.096 85.494 107.913 84.4916 107.913 86.5816C107.913 88.6716 106.186 90.1251 105.187 90.2153C104.187 90.3055 103.723 90.3982 103.723 90.3982V91.759L100.37 91.5785Z" fill="#2D3748" stroke="#2D3748" stroke-width="0.243963" stroke-linecap="round" stroke-linejoin="round"/>
<path d="M99.4119 86.4697C98.7266 85.821 98.0974 85.1918 97.8071 84.6138C97.2316 83.4603 96.7975 80.2241 96.7975 80.2241" stroke="white" stroke-width="0.121982" stroke-linecap="round" stroke-linejoin="round"/>
<path d="M95.772 81.8047C96.2256 83.6947 96.289 85.1189 97.6596 86.7772C98.3912 87.6747 100.328 88.4356 100.545 89.2281C100.739 90.1818 100.885 91.1447 100.981 92.1131L102.064 92.1863C102.064 92.1863 102.284 90.3085 101.664 88.9696" stroke="white" stroke-width="0.121982" stroke-linecap="round" stroke-linejoin="round"/>
<path d="M96.0757 78.7734C96.0757 78.7734 95.266 79.3953 95.5538 80.9268" stroke="white" stroke-width="0.121982" stroke-linecap="round" stroke-linejoin="round"/>
<path d="M101.261 84.3506L100.832 85.0456" stroke="white" stroke-width="0.121982" stroke-linecap="round" stroke-linejoin="round"/>
<path d="M101.414 84.1094L101.266 84.3509" stroke="white" stroke-width="0.121982" stroke-linecap="round" stroke-linejoin="round"/>
<path d="M102.852 73.7251C102.852 73.7251 101.193 73.6544 101.193 75.2395C101.193 76.5784 101.603 81.1485 101.515 83.2385" stroke="white" stroke-width="0.121982" stroke-linecap="round" stroke-linejoin="round"/>
<path d="M104.153 86.7115C104.113 87.2553 104.089 87.6406 104.089 87.787C104.089 88.5795 106.106 85.5507 107.045 85.4799C107.045 85.4799 107.981 85.4068 107.62 87.1383C107.489 87.781 107.185 88.3757 106.741 88.8584C106.296 89.341 105.729 89.6931 105.099 89.8769C104.304 90.094 103.655 89.7331 103.511 90.094C103.396 90.5183 103.324 90.9528 103.294 91.3914" stroke="white" stroke-width="0.121982" stroke-linecap="round" stroke-linejoin="round"/>
<path d="M104.622 75.2295C104.747 75.7525 104.806 76.2891 104.798 76.8269C104.798 78.5144 104.476 82.4944 104.261 85.1819" stroke="white" stroke-width="0.121982" stroke-linecap="round" stroke-linejoin="round"/>
<path d="M103.791 73.8716C104.008 73.9957 104.183 74.1806 104.296 74.4034" stroke="white" stroke-width="0.121982" stroke-linecap="round" stroke-linejoin="round"/>
<path d="M102.618 86.272L102.567 87.2816" stroke="white" stroke-width="0.121982" stroke-linecap="round" stroke-linejoin="round"/>
<path d="M102.996 74.7349C102.996 74.7349 102.565 74.8788 102.709 76.3932C102.828 77.6443 102.709 83.324 102.653 85.2628" stroke="white" stroke-width="0.121982" stroke-linecap="round" stroke-linejoin="round"/>
<path d="M107.539 85.9111C106.92 87.0685 105.93 87.9835 104.727 88.5084C102.776 89.3009 102.708 88.94 102.708 89.7277C102.708 90.5154 102.635 91.964 102.635 91.964" stroke="white" stroke-width="0.121982" stroke-linecap="round" stroke-linejoin="round"/>
<path d="M104.836 102.212H98.5347L97.186 93.0835H106.185L104.836 102.212Z" fill="#276749" stroke="#2D3748" stroke-width="0.243963" stroke-linecap="round" stroke-linejoin="round"/>
<path d="M106.959 91.645H96.4136V94.0886H106.959V91.645Z" fill="#276749" stroke="#2D3748" stroke-width="0.243963" stroke-linecap="round" stroke-linejoin="round"/>
<path d="M70.2361 96.0658V91.1104H55.6424V96.0658C55.6401 97.68 55.0936 99.2462 54.0914 100.512L53.4524 101.316H72.4261L71.7871 100.512C70.7849 99.2462 70.2384 97.68 70.2361 96.0658Z" fill="white" stroke="#2D3748" stroke-width="0.243963" stroke-linecap="round" stroke-linejoin="round"/>
<path d="M54.7445 99.5361H71.1331C70.5448 98.4741 70.2359 97.2799 70.2356 96.0658V91.1104H55.642V96.0658C55.6417 97.2799 55.3329 98.4741 54.7445 99.5361Z" fill="#276749"/>
<path d="M90.1973 48.6816H35.6783C34.5361 48.6816 33.6102 49.6075 33.6102 50.7497V90.6056C33.6102 91.7477 34.5361 92.6736 35.6783 92.6736H90.1973C91.3394 92.6736 92.2653 91.7477 92.2653 90.6056V50.7497C92.2653 49.6075 91.3394 48.6816 90.1973 48.6816Z" fill="#2D3748" stroke="#2D3748" stroke-width="0.243963" stroke-linecap="round" stroke-linejoin="round"/>
<path d="M33.6102 85.8354H92.2678V90.6031C92.2678 91.1516 92.0499 91.6776 91.6621 92.0655C91.2742 92.4533 90.7482 92.6712 90.1997 92.6712H35.6808C35.1323 92.6712 34.6062 92.4533 34.2184 92.0655C33.8306 91.6776 33.6127 91.1516 33.6127 90.6031V85.8354H33.6102Z" fill="white" stroke="#2D3748" stroke-width="0.243963" stroke-linecap="round" stroke-linejoin="round"/>
<path d="M89.316 51.4204H36.5603V82.4994H89.316V51.4204Z" fill="white" stroke="#2D3748" stroke-width="0.243963" stroke-linecap="round" stroke-linejoin="round"/>
<path d="M64.0211 89.2547C64.0211 89.0405 63.9576 88.8312 63.8386 88.6531C63.7196 88.475 63.5505 88.3363 63.3527 88.2543C63.1548 88.1723 62.9371 88.1509 62.727 88.1927C62.517 88.2345 62.3241 88.3376 62.1726 88.489C62.0212 88.6404 61.9181 88.8334 61.8763 89.0434C61.8345 89.2535 61.8559 89.4712 61.9379 89.669C62.0199 89.8669 62.1586 90.036 62.3367 90.155C62.5148 90.274 62.7241 90.3375 62.9383 90.3375C63.2255 90.3375 63.5009 90.2234 63.704 90.0203C63.907 89.8172 64.0211 89.5418 64.0211 89.2547Z" fill="#2D3748" stroke="#2D3748" stroke-width="0.243963" stroke-linecap="round" stroke-linejoin="round"/>
<path d="M72.4285 101.326H53.4524V102.211H72.4285V101.326Z" fill="white" stroke="#2D3748" stroke-width="0.243963" stroke-linecap="round" stroke-linejoin="round"/>
<path d="M88.822 53.6104H36.976V56.3344H88.822V53.6104Z" fill="white" stroke="#2D3748" stroke-width="0.243963" stroke-linecap="round" stroke-linejoin="round"/>
<path d="M45.5312 56.3346L44.9093 54.6519H36.976V56.3346V58.566V81.1753H88.822V56.3346H45.5312Z" fill="#38A169" stroke="#2D3748" stroke-width="0.243963" stroke-linecap="round" stroke-linejoin="round"/>
<path d="M50.9314 68.6519H75.2412" stroke="#2D3748" stroke-width="0.487926" stroke-linecap="round" stroke-linejoin="round"/>
<path d="M50.9314 71.042H75.2412" stroke="#2D3748" stroke-width="0.487926" stroke-linecap="round" stroke-linejoin="round"/>
<path d="M50.9314 73.4321H75.2412" stroke="#2D3748" stroke-width="0.487926" stroke-linecap="round" stroke-linejoin="round"/>
<path d="M50.9314 75.8247H75.2412" stroke="#2D3748" stroke-width="0.487926" stroke-linecap="round" stroke-linejoin="round"/>
<path d="M73.9537 62.2799H51.9242C51.6974 62.2802 51.4728 62.2359 51.2632 62.1494C51.0536 62.0629 50.8631 61.936 50.7025 61.7759C50.542 61.6158 50.4145 61.4256 50.3274 61.2163C50.2404 61.0069 50.1954 60.7825 50.1951 60.5557C50.1947 60.329 50.2391 60.1044 50.3256 59.8948C50.412 59.6852 50.539 59.4947 50.6991 59.3341C50.8592 59.1735 51.0493 59.0461 51.2587 58.959C51.4681 58.872 51.6925 58.827 51.9193 58.8267H73.9537C74.1808 58.8263 74.4058 58.8708 74.6157 58.9576C74.8257 59.0444 75.0164 59.1717 75.177 59.3324C75.3377 59.493 75.465 59.6837 75.5518 59.8937C75.6386 60.1036 75.6831 60.3286 75.6828 60.5557C75.6824 60.7825 75.6375 61.0069 75.5504 61.2163C75.4633 61.4256 75.3359 61.6158 75.1753 61.7759C75.0148 61.936 74.8242 62.0629 74.6146 62.1494C74.405 62.2359 74.1804 62.2802 73.9537 62.2799Z" fill="white" stroke="#2D3748" stroke-width="0.243963" stroke-linecap="round" stroke-linejoin="round"/>
<path d="M73.9547 62.2799H70.9452V58.8218H73.9547C74.1818 58.8215 74.4068 58.866 74.6167 58.9527C74.8267 59.0395 75.0174 59.1669 75.178 59.3275C75.3386 59.4881 75.466 59.6788 75.5528 59.8888C75.6396 60.0987 75.6841 60.3237 75.6837 60.5508C75.6841 60.778 75.6396 61.003 75.5528 61.2129C75.466 61.4228 75.3386 61.6135 75.178 61.7742C75.0174 61.9348 74.8267 62.0621 74.6167 62.1489C74.4068 62.2357 74.1818 62.2802 73.9547 62.2799Z" fill="#2D3748" stroke="#2D3748" stroke-width="0.243963" stroke-linecap="round" stroke-linejoin="round"/>
<path d="M73.2851 59.2604C73.1418 59.1262 72.9619 59.0374 72.7682 59.0055C72.5745 58.9735 72.3756 58.9996 72.1968 59.0807C72.0179 59.1617 71.8671 59.294 71.7635 59.4608C71.6598 59.6275 71.6079 59.8213 71.6144 60.0175C71.6209 60.2138 71.6855 60.4037 71.7999 60.5632C71.9143 60.7228 72.0735 60.8448 72.2573 60.9139C72.4411 60.9829 72.6413 60.9959 72.8325 60.9512C73.0237 60.9065 73.1973 60.8061 73.3314 60.6627C73.4208 60.5681 73.4906 60.4567 73.5368 60.335C73.5829 60.2133 73.6046 60.0837 73.6005 59.9536C73.5964 59.8236 73.5667 59.6956 73.513 59.577C73.4593 59.4585 73.3827 59.3517 73.2876 59.2629L73.2851 59.2604ZM73.1876 60.5286C73.0799 60.6429 72.9407 60.7227 72.7877 60.7581C72.6346 60.7934 72.4746 60.7826 72.3276 60.727C72.1807 60.6715 72.0536 60.5736 71.9622 60.4459C71.8708 60.3181 71.8193 60.1662 71.8142 60.0092C71.8091 59.8522 71.8507 59.6973 71.9336 59.5638C72.0164 59.4304 72.137 59.3246 72.28 59.2596C72.423 59.1946 72.582 59.1735 72.737 59.1988C72.8921 59.2241 73.0361 59.2948 73.151 59.4019C73.3052 59.5465 73.3956 59.7464 73.4025 59.9576C73.4093 60.1689 73.332 60.3743 73.1876 60.5286Z" fill="white"/>
<path d="M74.0304 61.0241C74.0085 61.0028 73.9811 60.9883 73.9512 60.9822C73.9214 60.9762 73.8904 60.9788 73.8621 60.9899L73.5036 60.6534C73.4853 60.6355 73.4608 60.6255 73.4353 60.6255C73.4098 60.6255 73.3852 60.6355 73.367 60.6534L73.3353 60.6875C73.3178 60.7064 73.3081 60.7313 73.3081 60.757C73.3081 60.7828 73.3178 60.8076 73.3353 60.8265L73.6889 61.1582C73.6784 61.1884 73.6768 61.2209 73.6841 61.252C73.6915 61.2831 73.7075 61.3115 73.7304 61.3338L74.3401 61.9313C74.3803 61.9712 74.4346 61.9936 74.4913 61.9936C74.5479 61.9936 74.6023 61.9712 74.6425 61.9313C74.6824 61.8911 74.7048 61.8367 74.7048 61.7801C74.7048 61.7234 74.6824 61.6691 74.6425 61.6289L74.0304 61.0241Z" fill="white"/>
<path d="M80.3312 72.7109C80.4025 72.8875 80.5085 73.0481 80.6429 73.183C80.7774 73.3179 80.9376 73.4244 81.1141 73.4961C81.3897 73.6083 81.7579 73.5839 82.1823 73.8229C83.1407 74.3619 85.5332 73.8815 87.2671 74.0668C89.0011 74.2521 91.3375 72.3329 91.3375 72.3329L98.2173 72.7109V65.8825C98.2173 65.8825 91.0375 66.1824 89.4815 65.5825C87.9256 64.9826 86.1916 63.7291 85.4137 63.7876C84.6357 63.8462 78.2339 64.5656 78.2339 64.5656L80.3288 72.7109H80.3312Z" fill="white" stroke="#2D3748" stroke-width="0.243963" stroke-linecap="round" stroke-linejoin="round"/>
<path d="M78.5479 45.1777C77.1274 45.3349 75.7854 45.9098 74.6916 46.8297C73.5979 47.7497 72.8015 48.9732 72.4032 50.3458C72.0048 51.7183 72.0224 53.1781 72.4538 54.5406C72.8852 55.9031 73.7109 57.1071 74.8265 58.0004C75.9421 58.8936 77.2976 59.436 78.7215 59.5589C80.1454 59.6818 81.5738 59.3797 82.826 58.6908C84.0782 58.0019 85.098 56.9572 85.7564 55.6888C86.4149 54.4203 86.6824 52.9851 86.5252 51.5647C86.4214 50.6213 86.1326 49.7076 85.6754 48.8759C85.2182 48.0441 84.6015 47.3107 83.8606 46.7175C83.1197 46.1243 82.2691 45.683 81.3575 45.4188C80.4459 45.1545 79.4912 45.0726 78.5479 45.1777ZM79.9819 58.1224C78.8424 58.249 77.6909 58.0348 76.6731 57.507C75.6553 56.9792 74.8169 56.1615 74.2638 55.1572C73.7108 54.1529 73.468 53.0071 73.5661 51.8648C73.6643 50.7225 74.0989 49.635 74.8152 48.7397C75.5314 47.8445 76.497 47.1817 77.5899 46.8352C78.6828 46.4887 79.854 46.4741 80.9552 46.7932C82.0564 47.1123 83.0383 47.7507 83.7767 48.6278C84.515 49.5049 84.9767 50.5813 85.1033 51.7207C85.1874 52.4774 85.1217 53.2431 84.9098 53.9743C84.6979 54.7055 84.3441 55.3878 83.8685 55.9822C83.3929 56.5767 82.8049 57.0716 82.1381 57.4389C81.4712 57.8061 80.7385 58.0383 79.9819 58.1224Z" fill="white" stroke="#2D3748" stroke-width="0.243963" stroke-linecap="round" stroke-linejoin="round"/>
<path d="M78.5073 44.7653C77.0867 44.9226 75.7448 45.4975 74.651 46.4174C73.5572 47.3373 72.7608 48.5609 72.3625 49.9334C71.9642 51.3059 71.9818 52.7657 72.4132 54.1282C72.8445 55.4908 73.6702 56.6948 74.7858 57.588C75.9015 58.4812 77.257 59.0236 78.6809 59.1465C80.1048 59.2694 81.5331 58.9673 82.7853 58.2785C84.0375 57.5896 85.0574 56.5449 85.7158 55.2764C86.3742 54.008 86.6418 52.5728 86.4845 51.1523C86.273 49.2478 85.3139 47.5052 83.8181 46.3075C82.3222 45.1098 80.412 44.5551 78.5073 44.7653ZM79.9413 57.71C78.8017 57.8366 77.6503 57.6225 76.6325 57.0947C75.6147 56.5668 74.7762 55.7491 74.2232 54.7448C73.6701 53.7405 73.4273 52.5948 73.5255 51.4525C73.6236 50.3102 74.0583 49.2226 74.7745 48.3274C75.4907 47.4321 76.4564 46.7693 77.5493 46.4229C78.6422 46.0764 79.8133 46.0618 80.9145 46.3808C82.0158 46.6999 82.9976 47.3384 83.736 48.2155C84.4744 49.0926 84.9361 50.1689 85.0627 51.3084C85.1468 52.065 85.081 52.8308 84.8691 53.5619C84.6573 54.2931 84.3034 54.9754 83.8279 55.5699C83.3523 56.1643 82.7643 56.6593 82.0974 57.0265C81.4306 57.3937 80.6979 57.626 79.9413 57.71Z" fill="white" stroke="#2D3748" stroke-width="0.243963" stroke-linecap="round" stroke-linejoin="round"/>
<path d="M80.3355 59.2632L79.9938 59.3011C79.6082 59.3438 79.3303 59.691 79.373 60.0765L79.9276 65.0843C79.9703 65.4698 80.3175 65.7477 80.703 65.705L81.0448 65.6672C81.4304 65.6245 81.7083 65.2773 81.6656 64.8918L81.111 59.884C81.0683 59.4985 80.7211 59.2205 80.3355 59.2632Z" fill="#276749" stroke="#2D3748" stroke-width="0.243963" stroke-linecap="round" stroke-linejoin="round"/>
<path d="M80.2253 63.4438L80.9569 63.3657C81.2715 63.3321 81.5867 63.4238 81.8342 63.621C82.0816 63.8182 82.2413 64.105 82.2787 64.4192L83.3737 74.3229C83.4182 74.7277 83.3001 75.1337 83.0454 75.4515C82.7907 75.7693 82.4202 75.973 82.0153 76.0178H81.9665C81.766 76.0401 81.563 76.0227 81.3693 75.9665C81.1755 75.9103 80.9947 75.8164 80.8372 75.6902C80.6798 75.5641 80.5488 75.4081 80.4517 75.2312C80.3547 75.0543 80.2934 74.86 80.2716 74.6594L79.1766 64.7582C79.159 64.6014 79.1724 64.4427 79.2162 64.2911C79.26 64.1395 79.3333 63.9981 79.4318 63.8749C79.5304 63.7516 79.6523 63.649 79.7905 63.573C79.9287 63.4969 80.0806 63.4489 80.2374 63.4316L80.2253 63.4438Z" fill="#2D3748" stroke="#2D3748" stroke-width="0.243963" stroke-linecap="round" stroke-linejoin="round"/>
<path d="M81.2927 71.6963C81.2927 71.6963 79.5587 71.7597 79.3149 72.0597C79.071 72.3596 79.1149 73.4034 79.5856 73.5229C80.7854 73.8375 83.3364 73.6546 83.4364 73.44C83.5364 73.2254 83.7412 71.9767 83.2145 71.8426C82.5785 71.7452 81.9361 71.6962 81.2927 71.6963Z" fill="white" stroke="#2D3748" stroke-width="0.243963" stroke-linecap="round" stroke-linejoin="round"/>
<path d="M80.7921 69.277C80.7921 69.277 78.7753 69.2014 78.4607 69.5648C78.1461 69.9282 78.0851 71.2865 78.6167 71.4914C79.9727 72.0108 83.0236 71.8084 83.1626 71.5402C83.3016 71.2719 83.604 69.8794 83.0065 69.655C82.409 69.4307 80.7921 69.277 80.7921 69.277Z" fill="white" stroke="#2D3748" stroke-width="0.243963" stroke-linecap="round" stroke-linejoin="round"/>
<path d="M80.5003 66.5459C80.5003 66.5459 78.3445 66.463 78.0079 66.8532C77.6714 67.2434 77.6055 68.692 78.1737 68.9115C79.637 69.4675 82.8074 69.4675 82.9562 69.1798C83.105 68.892 83.5049 67.1898 82.866 66.9483C82.227 66.7069 80.5003 66.5459 80.5003 66.5459Z" fill="white" stroke="#2D3748" stroke-width="0.243963" stroke-linecap="round" stroke-linejoin="round"/>
<path d="M79.2587 63.9898C79.2587 63.9898 77.1028 63.9094 76.7663 64.2971C76.4297 64.6849 76.3492 66.1798 76.9321 66.3554C77.515 66.531 81.5658 66.9114 81.7146 66.6261C81.8633 66.3408 82.2633 64.6337 81.6243 64.3922C80.9854 64.1508 79.2587 63.9898 79.2587 63.9898Z" fill="white" stroke="#2D3748" stroke-width="0.243963" stroke-linecap="round" stroke-linejoin="round"/>
<path d="M86.3158 71.1621C85.9288 71.0557 85.5621 70.886 85.2306 70.6598C83.4966 69.4624 83.5551 66.7115 83.5551 66.7115L83.1381 66.592C82.7936 66.4609 82.4706 66.2793 82.1797 66.053C82.3193 66.6213 82.401 67.2022 82.4235 67.787C82.4173 68.1083 82.2917 68.4158 82.0713 68.6498C81.8509 68.8837 81.5514 69.0273 81.231 69.0527C80.692 69.1136 80.453 69.1721 80.2725 68.4552C80.0921 67.7382 79.197 64.8654 79.1361 64.4459C79.0824 64.0655 79.7214 63.3875 80.7384 63.2266C82.3016 63.3534 83.8429 63.7899 85.4184 63.7899C85.9665 63.8414 86.4919 64.0347 86.9426 64.3508" fill="white"/>
<path d="M86.3158 71.1621C85.9288 71.0557 85.5621 70.886 85.2306 70.6598C83.4966 69.4624 83.5551 66.7115 83.5551 66.7115L83.1381 66.592C82.7936 66.4609 82.4706 66.2793 82.1797 66.053C82.3193 66.6213 82.401 67.2022 82.4235 67.787C82.4173 68.1083 82.2917 68.4158 82.0713 68.6498C81.8509 68.8837 81.5514 69.0273 81.231 69.0527C80.692 69.1136 80.453 69.1721 80.2725 68.4552C80.0921 67.7382 79.197 64.8654 79.1361 64.4459C79.0824 64.0655 79.7214 63.3875 80.7384 63.2266C82.3016 63.3534 83.8429 63.7899 85.4184 63.7899C85.9665 63.8414 86.4919 64.0347 86.9426 64.3508" stroke="#2D3748" stroke-width="0.243963" stroke-linecap="round" stroke-linejoin="round"/>
<path d="M87.9624 71.3135C87.7722 71.3232 87.5816 71.3232 87.3915 71.3135H87.9624Z" fill="white"/>
<path d="M87.9624 71.3135C87.7722 71.3232 87.5816 71.3232 87.3915 71.3135" stroke="#2D3748" stroke-width="0.243963" stroke-linecap="round" stroke-linejoin="round"/>
<path d="M89.2407 71.0767C88.8266 71.2077 88.3985 71.2896 87.9652 71.3205L89.2407 71.0767Z" fill="white"/>
<path d="M89.2407 71.0767C88.8266 71.2077 88.3985 71.2896 87.9652 71.3205" stroke="#2D3748" stroke-width="0.243963" stroke-linecap="round" stroke-linejoin="round"/>
<path d="M91.3943 70.3013H93.5477" stroke="#2D3748" stroke-width="0.243963" stroke-linecap="round" stroke-linejoin="round"/>
<path d="M91.575 70.8989H92.4724" stroke="#2D3748" stroke-width="0.243963" stroke-linecap="round" stroke-linejoin="round"/>
<path d="M83.5559 66.7116C83.5559 66.7116 84.746 66.7116 85.5264 66.002" stroke="#2D3748" stroke-width="0.243963" stroke-linecap="round" stroke-linejoin="round"/>
<path d="M82.1544 65.975C82.1201 65.6502 82.0523 65.3299 81.952 65.019" stroke="#2D3748" stroke-width="0.243963" stroke-linecap="round" stroke-linejoin="round"/>
<path d="M80.2554 68.1406C80.2554 68.1406 80.0286 67.5115 80.3041 67.2847C80.5797 67.0579 81.3114 66.7311 81.4382 66.9823C81.565 67.2334 81.8406 68.3918 81.765 68.6186L81.6894 68.8454" stroke="#2D3748" stroke-width="0.121982" stroke-linecap="round" stroke-linejoin="round"/>
<path d="M113.311 75.7715H92.6909V65.6362H113.311" fill="#276749"/>
<path d="M113.311 75.7715H92.6909V65.6362H113.311" stroke="#2D3748" stroke-width="0.243963" stroke-linecap="round" stroke-linejoin="round"/>
<path d="M94.2069 75.0937C94.4628 75.0937 94.6703 74.8863 94.6703 74.6303C94.6703 74.3744 94.4628 74.167 94.2069 74.167C93.951 74.167 93.7435 74.3744 93.7435 74.6303C93.7435 74.8863 93.951 75.0937 94.2069 75.0937Z" fill="white" stroke="#2D3748" stroke-width="0.243963" stroke-linecap="round" stroke-linejoin="round"/>
<path d="M61.4379 55.9832C61.6146 55.912 61.7751 55.806 61.91 55.6715C62.0449 55.537 62.1514 55.3768 62.2232 55.2004C62.3354 54.9248 62.3086 54.559 62.55 54.1322C63.0865 53.1762 62.6085 50.7839 62.7939 49.0475C62.9792 47.3111 61.0575 44.9797 61.0575 44.9797L61.4306 38.1001H54.602C54.602 38.1001 54.8995 45.2797 54.302 46.8331C53.7045 48.3866 52.4486 50.1254 52.5071 50.9033C52.5656 51.6813 53.29 58.078 53.29 58.078L61.4257 55.9832H61.4379Z" fill="white" stroke="#2D3748" stroke-width="0.243963" stroke-linecap="round" stroke-linejoin="round"/>
<path d="M33.9218 57.7592C34.078 59.1799 34.652 60.5223 35.5711 61.6167C36.4903 62.7111 37.7134 63.5084 39.0857 63.9077C40.458 64.307 41.9179 64.2904 43.2808 63.86C44.6437 63.4296 45.8484 62.6047 46.7424 61.4897C47.6364 60.3746 48.1797 59.0195 48.3036 57.5957C48.4274 56.1718 48.1262 54.7433 47.4381 53.4906C46.75 52.238 45.7059 51.2175 44.4377 50.5583C43.1696 49.899 41.7345 49.6307 40.3138 49.7871H40.2968C38.3951 50.0009 36.6559 50.9604 35.4608 52.455C34.2656 53.9495 33.7122 55.8571 33.9218 57.7592ZM46.8473 56.3228C46.9744 57.4627 46.7605 58.6147 46.2328 59.633C45.7051 60.6514 44.8873 61.4904 43.8828 62.044C42.8782 62.5976 41.7321 62.8409 40.5893 62.7432C39.4465 62.6454 38.3583 62.211 37.4624 61.4948C36.5665 60.7787 35.9031 59.8129 35.556 58.7197C35.209 57.6265 35.1939 56.455 35.5127 55.3532C35.8314 54.2515 36.4698 53.269 37.347 52.53C38.2241 51.791 39.3007 51.3287 40.4407 51.2015C41.9693 51.0317 43.5028 51.4757 44.7041 52.436C45.9055 53.3963 46.6764 54.7944 46.8473 56.3228Z" fill="white" stroke="#2D3748" stroke-width="0.243963" stroke-linecap="round" stroke-linejoin="round"/>
<path d="M33.4977 57.8029C33.6554 59.2226 34.2304 60.5637 35.1502 61.6567C36.07 62.7496 37.2932 63.5454 38.6651 63.9433C40.0371 64.3412 41.4962 64.3234 42.8581 63.8921C44.2199 63.4609 45.4233 62.6356 46.3162 61.5205C47.209 60.4054 47.7512 59.0507 47.8741 57.6275C47.9971 56.2043 47.6953 54.7767 47.007 53.525C46.3187 52.2733 45.2746 51.2538 44.0069 50.5954C42.7392 49.9369 41.3048 49.6691 39.8849 49.8258C38.9416 49.9299 38.0281 50.2189 37.1965 50.6762C36.3649 51.1335 35.6316 51.7501 35.0384 52.4909C34.4452 53.2317 34.0039 54.0822 33.7395 54.9936C33.4752 55.905 33.393 56.8596 33.4977 57.8029ZM46.4428 56.3713C46.5694 57.5108 46.3552 58.6623 45.8274 59.68C45.2996 60.6978 44.4818 61.5362 43.4775 62.0892C42.4732 62.6423 41.3274 62.8851 40.1851 62.7869C39.0428 62.6888 37.9552 62.2542 37.0599 61.5379C36.1646 60.8217 35.5018 59.8561 35.1553 58.7633C34.8088 57.6704 34.7942 56.4993 35.1133 55.3981C35.4324 54.2969 36.0709 53.315 36.948 52.5767C37.8251 51.8383 38.9015 51.3767 40.041 51.25C40.7976 51.1659 41.5634 51.2317 42.2946 51.4436C43.0258 51.6555 43.7081 52.0093 44.3026 52.4848C44.8971 52.9604 45.392 53.5484 45.7592 54.2152C46.1265 54.8821 46.3587 55.6147 46.4428 56.3713Z" fill="white" stroke="#2D3748" stroke-width="0.243963" stroke-linecap="round" stroke-linejoin="round"/>
<path d="M53.6256 54.6488L48.6177 55.2034C48.2321 55.2461 47.9542 55.5933 47.9969 55.9788L48.0347 56.3206C48.0774 56.7061 48.4246 56.9841 48.8101 56.9414L53.818 56.3867C54.2036 56.344 54.4815 55.9969 54.4388 55.6113L54.401 55.2696C54.3583 54.884 54.0111 54.6061 53.6256 54.6488Z" fill="#276749" stroke="#2D3748" stroke-width="0.243963" stroke-linecap="round" stroke-linejoin="round"/>
<path d="M52.1772 56.0884L52.0967 55.3567C52.0618 55.0398 52.1542 54.722 52.3536 54.4732C52.553 54.2244 52.8431 54.065 53.16 54.0301L63.0615 52.9351C63.2628 52.9117 63.4668 52.9283 63.6618 52.984C63.8567 53.0396 64.0387 53.1333 64.1974 53.2595C64.356 53.3857 64.4881 53.542 64.5861 53.7195C64.6842 53.8969 64.7462 54.092 64.7686 54.2935V54.3422C64.792 54.5436 64.7754 54.7476 64.7197 54.9425C64.6641 55.1375 64.5704 55.3195 64.4442 55.4781C64.318 55.6367 64.1617 55.7689 63.9842 55.8669C63.8068 55.9649 63.6117 56.0269 63.4102 56.0493L53.5088 57.1443C53.1923 57.18 52.8746 57.089 52.6251 56.8911C52.3755 56.6932 52.2145 56.4046 52.1772 56.0884Z" fill="#2D3748" stroke="#2D3748" stroke-width="0.243963" stroke-linecap="round" stroke-linejoin="round"/>
<path d="M60.4248 55.025C60.4248 55.025 60.4906 56.7565 60.7882 57.0004C61.0857 57.2443 62.1344 57.2004 62.2514 56.7297C62.5685 55.5323 62.3831 52.979 62.1685 52.8814C61.9539 52.7839 60.7053 52.5741 60.5736 53.1033C60.4753 53.7392 60.4256 54.3816 60.4248 55.025Z" fill="white" stroke="#2D3748" stroke-width="0.243963" stroke-linecap="round" stroke-linejoin="round"/>
<path d="M58.0103 55.5225C58.0103 55.5225 57.9323 57.5393 58.2957 57.8539C58.6591 58.1685 60.0175 58.2319 60.2223 57.6978C60.7442 56.3419 60.5394 53.2911 60.2711 53.1545C60.0028 53.018 58.6103 52.7131 58.3859 53.3106C58.1615 53.9081 58.0103 55.5225 58.0103 55.5225Z" fill="white" stroke="#2D3748" stroke-width="0.243963" stroke-linecap="round" stroke-linejoin="round"/>
<path d="M55.2775 55.8178C55.2775 55.8178 55.1945 57.9736 55.5823 58.3102C55.9701 58.6467 57.4236 58.7125 57.6431 58.1419C58.1991 56.6933 58.1991 53.5083 57.9113 53.362C57.6236 53.2157 55.9189 52.8133 55.6799 53.4522C55.4409 54.0912 55.2775 55.8178 55.2775 55.8178Z" fill="white" stroke="#2D3748" stroke-width="0.243963" stroke-linecap="round" stroke-linejoin="round"/>
<path d="M52.7203 57.0592C52.7203 57.0592 52.6373 59.215 53.0276 59.5515C53.4178 59.8881 54.9103 59.9686 55.0859 59.3833C55.2615 58.798 55.6419 54.7497 55.3541 54.601C55.0664 54.4522 53.3641 54.0547 53.1227 54.6936C52.8812 55.3326 52.7203 57.0592 52.7203 57.0592Z" fill="white" stroke="#2D3748" stroke-width="0.243963" stroke-linecap="round" stroke-linejoin="round"/>
<path d="M60.0438 48.3433C60.1432 49.3039 59.9127 50.2697 59.3902 51.0819C58.1952 52.8183 55.4418 52.7573 55.4418 52.7573L55.3223 53.1768C55.1922 53.5209 55.0104 53.8433 54.7833 54.1328C55.3524 53.9931 55.9342 53.9114 56.5197 53.8889C56.84 53.8982 57.1455 54.0257 57.3774 54.2467C57.6093 54.4678 57.7512 54.7669 57.7757 55.0863C57.8367 55.6253 57.8952 55.8643 57.1782 56.0423C56.4612 56.2203 53.5883 57.1202 53.1689 57.1812C52.7884 57.2348 52.1104 56.5959 51.9495 55.5789C52.0787 54.0157 52.5153 52.472 52.5153 50.899C52.5663 50.35 52.7596 49.8238 53.0762 49.3724" fill="white"/>
<path d="M60.0438 48.3433C60.1432 49.3039 59.9127 50.2697 59.3902 51.0819C58.1952 52.8183 55.4418 52.7573 55.4418 52.7573L55.3223 53.1768C55.1922 53.5209 55.0104 53.8433 54.7833 54.1328C55.3524 53.9931 55.9342 53.9114 56.5197 53.8889C56.84 53.8982 57.1455 54.0257 57.3774 54.2467C57.6093 54.4678 57.7512 54.7669 57.7757 55.0863C57.8367 55.6253 57.8952 55.8643 57.1782 56.0423C56.4612 56.2203 53.5883 57.1202 53.1689 57.1812C52.7884 57.2348 52.1104 56.5959 51.9495 55.5789C52.0787 54.0157 52.5153 52.472 52.5153 50.899C52.5663 50.35 52.7596 49.8238 53.0762 49.3724" stroke="#2D3748" stroke-width="0.243963" stroke-linecap="round" stroke-linejoin="round"/>
<path d="M59.8104 47.0747C59.8826 47.3029 59.938 47.536 59.9763 47.7722L59.8104 47.0747Z" fill="white"/>
<path d="M59.8104 47.0747C59.8826 47.3029 59.938 47.536 59.9763 47.7722" stroke="#2D3748" stroke-width="0.243963" stroke-linecap="round" stroke-linejoin="round"/>
<path d="M59.0288 44.9195V42.7661" stroke="#2D3748" stroke-width="0.243963" stroke-linecap="round" stroke-linejoin="round"/>
<path d="M59.6251 44.7407V43.8433" stroke="#2D3748" stroke-width="0.243963" stroke-linecap="round" stroke-linejoin="round"/>
<path d="M55.4421 52.7571C55.4421 52.7571 55.4421 51.567 54.7324 50.7866" stroke="#2D3748" stroke-width="0.243963" stroke-linecap="round" stroke-linejoin="round"/>
<path d="M54.7081 54.1621C54.3834 54.1956 54.063 54.2626 53.7521 54.3621" stroke="#2D3748" stroke-width="0.243963" stroke-linecap="round" stroke-linejoin="round"/>
<path d="M56.876 56.0492C56.876 56.0492 56.2468 56.276 56.02 55.998C55.7932 55.72 55.4664 54.9908 55.7176 54.8665C55.9688 54.7421 57.1272 54.4641 57.354 54.5397L57.5808 54.6128" stroke="#2D3748" stroke-width="0.121982" stroke-linecap="round" stroke-linejoin="round"/>
<path d="M64.5045 23V43.6193H54.3665V23" fill="#276749"/>
<path d="M64.5045 23V43.6193H54.3665V23" stroke="#2D3748" stroke-width="0.243963" stroke-linecap="round" stroke-linejoin="round"/>
<path d="M63.3594 42.5703C63.6153 42.5703 63.8227 42.3628 63.8227 42.1069C63.8227 41.851 63.6153 41.6436 63.3594 41.6436C63.1035 41.6436 62.896 41.851 62.896 42.1069C62.896 42.3628 63.1035 42.5703 63.3594 42.5703Z" fill="white" stroke="#2D3748" stroke-width="0.243963" stroke-linecap="round" stroke-linejoin="round"/>
<path d="M51.2361 92.7081C51.1652 92.885 51.0594 93.0457 50.9248 93.1806C50.7903 93.3156 50.6299 93.422 50.4533 93.4934C50.1777 93.608 49.8119 93.5812 49.3851 93.8202C48.4291 94.3591 46.0366 93.8811 44.3002 94.064C42.5638 94.2469 40.2323 92.3301 40.2323 92.3301L33.3452 92.7081V85.8797C33.3452 85.8797 40.525 86.1797 42.0809 85.5822C43.6369 84.9847 45.3708 83.7263 46.1488 83.7873C46.9268 83.8483 53.3286 84.5652 53.3286 84.5652L51.2361 92.7081Z" fill="white" stroke="#2D3748" stroke-width="0.243963" stroke-linecap="round" stroke-linejoin="round"/>
<path d="M53.0042 65.1894C54.4247 65.3467 55.7667 65.9216 56.8604 66.8415C57.9542 67.7614 58.7506 68.985 59.1489 70.3575C59.5472 71.73 59.5296 73.1898 59.0983 74.5524C58.6669 75.9149 57.8412 77.1189 56.7256 78.0121C55.6099 78.9053 54.2544 79.4477 52.8306 79.5706C51.4067 79.6935 49.9783 79.3914 48.7261 78.7026C47.4739 78.0137 46.4541 76.969 45.7956 75.7005C45.1372 74.4321 44.8697 72.9969 45.0269 71.5764C45.2378 69.6723 46.1964 67.9299 47.692 66.7325C49.1876 65.5352 51.0975 64.981 53.0017 65.1919L53.0042 65.1894ZM51.5702 78.1341C52.7101 78.2611 53.8621 78.0473 54.8805 77.5196C55.8989 76.9919 56.7379 76.1741 57.2915 75.1696C57.8452 74.1651 58.0885 73.019 57.9907 71.8762C57.8929 70.7335 57.4585 69.6453 56.7423 68.7494C56.0261 67.8535 55.0604 67.1901 53.9672 66.8431C52.8739 66.4961 51.7023 66.481 50.6006 66.7997C49.4988 67.1185 48.5162 67.7568 47.7772 68.634C47.0382 69.5111 46.5759 70.5877 46.4487 71.7276C46.2789 73.2562 46.7229 74.7897 47.6833 75.991C48.6436 77.1923 50.0417 77.9632 51.5702 78.1341Z" fill="white" stroke="#2D3748" stroke-width="0.243963" stroke-linecap="round" stroke-linejoin="round"/>
<path d="M53.0448 64.778C54.4647 64.9357 55.8059 65.5109 56.8989 66.4308C57.9919 67.3507 58.7876 68.574 59.1853 69.946C59.5831 71.3181 59.5651 72.7773 59.1336 74.1391C58.7022 75.501 57.8765 76.7043 56.7612 77.5969C55.6459 78.4896 54.2909 79.0315 52.8676 79.1542C51.4442 79.2768 50.0165 78.9747 48.7649 78.286C47.5133 77.5973 46.494 76.553 45.8358 75.285C45.1777 74.0171 44.9104 72.5825 45.0675 71.1626C45.1719 70.2195 45.4611 69.3063 45.9185 68.475C46.376 67.6437 46.9927 66.9107 47.7335 66.3178C48.4743 65.7249 49.3246 65.2838 50.236 65.0196C51.1473 64.7554 52.1017 64.6733 53.0448 64.778ZM51.6108 77.7227C52.7507 77.8497 53.9027 77.6359 54.9211 77.1082C55.9395 76.5806 56.7786 75.7628 57.3322 74.7583C57.8858 73.7537 58.1291 72.6076 58.0313 71.4649C57.9336 70.3221 57.4991 69.2339 56.783 68.338C56.0668 67.4422 55.101 66.7788 54.0078 66.4317C52.9146 66.0847 51.743 66.0696 50.6412 66.3884C49.5394 66.7071 48.5569 67.3455 47.8178 68.2226C47.0788 69.0998 46.6165 70.1763 46.4894 71.3162C46.3202 72.8441 46.7646 74.3767 47.725 75.5771C48.6853 76.7775 50.083 77.5475 51.6108 77.7179V77.7227Z" fill="white" stroke="#2D3748" stroke-width="0.243963" stroke-linecap="round" stroke-linejoin="round"/>
<path d="M50.4445 79.8972L49.8898 84.9049C49.8471 85.2905 50.1251 85.6376 50.5106 85.6803L50.8524 85.7182C51.2379 85.7609 51.5851 85.483 51.6278 85.0974L52.1824 80.0897C52.2251 79.7041 51.9472 79.357 51.5617 79.3143L51.2199 79.2764C50.8343 79.2337 50.4872 79.5116 50.4445 79.8972Z" fill="#276749" stroke="#2D3748" stroke-width="0.243963" stroke-linecap="round" stroke-linejoin="round"/>
<path d="M49.5949 96.0394H49.5461C49.3445 96.0173 49.1492 95.9555 48.9716 95.8575C48.794 95.7596 48.6376 95.6275 48.5113 95.4688C48.385 95.3101 48.2914 95.128 48.2359 94.9329C48.1803 94.7378 48.1639 94.5337 48.1877 94.3323L49.2827 84.4311C49.2997 84.2741 49.3475 84.1219 49.4235 83.9834C49.4994 83.8449 49.602 83.7227 49.7252 83.6239C49.8485 83.5252 49.99 83.4517 50.1418 83.4077C50.2935 83.3638 50.4524 83.3502 50.6094 83.3678L51.341 83.4483C51.658 83.4833 51.948 83.6427 52.1474 83.8914C52.3468 84.1402 52.4392 84.458 52.4043 84.775L51.3093 94.6883C51.2866 94.8897 51.2244 95.0846 51.1263 95.2619C51.0281 95.4392 50.896 95.5953 50.7374 95.7215C50.5789 95.8477 50.397 95.9413 50.2022 95.9971C50.0074 96.0529 49.8035 96.0698 49.6022 96.0467L49.5949 96.0394Z" fill="#2D3748" stroke="#2D3748" stroke-width="0.243963" stroke-linecap="round" stroke-linejoin="round"/>
<path d="M50.2596 91.7061C50.2596 91.7061 51.9911 91.7719 52.235 92.0694C52.4789 92.3669 52.435 93.4132 51.9643 93.5326C50.7669 93.8497 48.2135 93.6643 48.1159 93.4497C48.0184 93.2351 47.8086 91.9865 48.3378 91.8524C48.9738 91.7549 49.6162 91.706 50.2596 91.7061Z" fill="white" stroke="#2D3748" stroke-width="0.243963" stroke-linecap="round" stroke-linejoin="round"/>
<path d="M50.7677 89.2937C50.7677 89.2937 52.7846 89.2156 53.0992 89.579C53.4138 89.9424 53.4772 91.3007 52.9431 91.5056C51.5871 92.025 48.5362 91.8226 48.3996 91.5544C48.2631 91.2861 47.9582 89.8936 48.5557 89.6692C49.1532 89.4449 50.7677 89.2937 50.7677 89.2937Z" fill="white" stroke="#2D3748" stroke-width="0.243963" stroke-linecap="round" stroke-linejoin="round"/>
<path d="M51.0608 86.5553C51.0608 86.5553 53.2167 86.4748 53.5532 86.8625C53.8898 87.2503 53.9556 88.7038 53.3874 88.9208C51.9241 89.4793 48.7537 89.4768 48.6049 89.1915C48.4562 88.9062 48.0562 87.1991 48.6952 86.9577C49.3341 86.7162 51.0608 86.5553 51.0608 86.5553Z" fill="white" stroke="#2D3748" stroke-width="0.243963" stroke-linecap="round" stroke-linejoin="round"/>
<path d="M52.2996 84.0021C52.2996 84.0021 54.4555 83.9192 54.792 84.3069C55.1286 84.6947 55.2091 86.192 54.6238 86.3676C54.0385 86.5432 49.9901 86.9212 49.8413 86.6359C49.6926 86.3506 49.295 84.6435 49.934 84.4045C50.573 84.1655 52.2996 84.0021 52.2996 84.0021Z" fill="white" stroke="#2D3748" stroke-width="0.243963" stroke-linecap="round" stroke-linejoin="round"/>
<path d="M43.9213 91.3353C44.7718 91.3687 45.6115 91.136 46.3235 90.6695C48.0599 89.4721 47.9989 86.7212 47.9989 86.7212L48.4184 86.6017C48.7625 86.4716 49.0849 86.2899 49.3744 86.0628C49.2347 86.631 49.153 87.212 49.1305 87.7967C49.1397 88.1172 49.2671 88.423 49.4882 88.6553C49.7092 88.8876 50.0083 89.03 50.3279 89.0551C50.8669 89.1136 51.1059 89.1746 51.2864 88.4552C51.4668 87.7357 52.3619 84.8654 52.4229 84.4484C52.4838 84.0313 51.8375 83.3875 50.8206 83.229C49.2573 83.3583 47.7136 83.7948 46.1406 83.7948C45.592 83.846 45.066 84.0384 44.6139 84.3532" fill="white"/>
<path d="M43.9213 91.3353C44.7718 91.3687 45.6115 91.136 46.3235 90.6695C48.0599 89.4721 47.9989 86.7212 47.9989 86.7212L48.4184 86.6017C48.7625 86.4716 49.0849 86.2899 49.3744 86.0628C49.2347 86.631 49.153 87.212 49.1305 87.7967C49.1397 88.1172 49.2671 88.423 49.4882 88.6553C49.7092 88.8876 50.0083 89.03 50.3279 89.0551C50.8669 89.1136 51.1059 89.1746 51.2864 88.4552C51.4668 87.7357 52.3619 84.8654 52.4229 84.4484C52.4838 84.0313 51.8375 83.3875 50.8206 83.229C49.2573 83.3583 47.7136 83.7948 46.1406 83.7948C45.592 83.846 45.066 84.0384 44.6139 84.3532" stroke="#2D3748" stroke-width="0.243963" stroke-linecap="round" stroke-linejoin="round"/>
<path d="M42.3175 91.0889C42.6585 91.1936 43.0089 91.2647 43.3637 91.301L42.3175 91.0889Z" fill="white"/>
<path d="M42.3175 91.0889C42.6585 91.1936 43.0089 91.2647 43.3637 91.301" stroke="#2D3748" stroke-width="0.243963" stroke-linecap="round" stroke-linejoin="round"/>
<path d="M40.161 90.311H38.0076" stroke="#2D3748" stroke-width="0.243963" stroke-linecap="round" stroke-linejoin="round"/>
<path d="M39.9847 90.9087H39.0873" stroke="#2D3748" stroke-width="0.243963" stroke-linecap="round" stroke-linejoin="round"/>
<path d="M48.0017 86.7209C48.0017 86.7209 46.8115 86.7209 46.0311 86.0112" stroke="#2D3748" stroke-width="0.243963" stroke-linecap="round" stroke-linejoin="round"/>
<path d="M49.4059 85.9848C49.4394 85.6601 49.5064 85.3397 49.6059 85.0288" stroke="#2D3748" stroke-width="0.243963" stroke-linecap="round" stroke-linejoin="round"/>
<path d="M51.2943 88.1504C51.2943 88.1504 51.5211 87.5212 51.2431 87.2944C50.965 87.0676 50.2359 86.7408 50.1115 86.992C49.9871 87.2432 49.7091 88.404 49.7847 88.6284L49.8603 88.8552" stroke="#2D3748" stroke-width="0.121982" stroke-linecap="round" stroke-linejoin="round"/>
<path d="M18.2422 95.7837H38.8621V85.646H18.2422" fill="#276749"/>
<path d="M18.2422 95.7837H38.8621V85.646H18.2422" stroke="#2D3748" stroke-width="0.243963" stroke-linecap="round" stroke-linejoin="round"/>
<path d="M36.8871 94.6396C36.8871 94.7313 36.9143 94.8209 36.9652 94.8971C37.0161 94.9733 37.0885 95.0326 37.1731 95.0677C37.2578 95.1028 37.351 95.112 37.4409 95.0941C37.5307 95.0762 37.6133 95.0321 37.6781 94.9673C37.7429 94.9025 37.787 94.8199 37.8049 94.73C37.8228 94.6401 37.8136 94.547 37.7786 94.4623C37.7435 94.3776 37.6841 94.3053 37.6079 94.2544C37.5317 94.2034 37.4421 94.1763 37.3505 94.1763C37.2276 94.1763 37.1097 94.2251 37.0228 94.312C36.9359 94.3989 36.8871 94.5167 36.8871 94.6396Z" fill="white" stroke="#2D3748" stroke-width="0.243963" stroke-linecap="round" stroke-linejoin="round"/>
</svg>
