<svg width="80" height="80" viewBox="0 0 80 80" fill="none" xmlns="http://www.w3.org/2000/svg">
<path d="M76.9057 61.1428C76.4785 60.6281 75.9483 60.2378 75.3665 59.9773C75.3665 59.9773 61.668 67.6162 58.0368 69.3435L48.506 71.0115H37.6638C32.8641 71.0115 30.6815 70.076 27.0368 66.9529L17.1874 52.8071C15.0233 53.389 12.7796 53.6717 10.5271 53.6717H10.2146V72.4217L15.2782 72.3948C19.2649 72.3723 23.2007 73.2896 26.7666 75.0726L26.906 75.1423C30.5299 76.9542 34.4955 77.8904 38.5163 77.8904H47.2462C55.9021 77.8904 64.3604 75.3024 71.5343 70.4588L76.0262 67.3965C78.1055 65.9788 78.5135 63.079 76.9057 61.1428Z" fill="#F6C4A9"/>
<path d="M7.57812 77.8906H4.84375C3.33359 77.8906 2.10938 76.6664 2.10938 75.1562V50.1562C2.10938 48.6461 3.33359 47.4219 4.84375 47.4219H7.57812C10.5984 47.4219 13.0469 49.8703 13.0469 52.8906V72.4219C13.0469 75.4422 10.5984 77.8906 7.57812 77.8906Z" fill="#00CCFF"/>
<path d="M3.67188 72.4219H2.10938V50.1562C2.10938 48.6461 3.33359 47.4219 4.84375 47.4219C7.21688 47.4219 9.14062 49.3456 9.14062 51.7188V66.9531C9.14062 69.9734 6.69219 72.4219 3.67188 72.4219Z" fill="#75EEFF"/>
<path d="M33.3899 62.0406V68.8034L45.8397 66.9533C48.86 66.9533 51.3085 64.5048 51.3085 61.4845C51.3085 58.8752 49.4804 56.6941 47.0354 56.1484L33.3899 62.0406Z" fill="#F6C4A9"/>
<path d="M71.9016 59.9628L58.958 65.6617C57.0569 66.513 54.9973 66.953 52.9144 66.953H35.9586C35.2491 66.953 34.6741 66.3778 34.6741 65.6684C34.6741 64.9589 35.2492 64.3839 35.9586 64.3839H41.1373C44.3947 64.3839 47.0353 61.7433 47.0353 58.4859V56.1483C46.6503 56.0623 46.2505 56.0156 45.8397 56.0156H37.8709L28.8017 51.4811C27.573 50.8667 26.2183 50.5469 24.8445 50.5469C23.4998 50.5469 22.2256 50.8472 21.0847 51.3841C19.8273 51.9758 18.5225 52.4483 17.1875 52.8072V64.0308C17.1875 65.6447 18.4959 66.9531 20.1098 66.9531C21.8369 66.9531 23.5069 67.5708 24.8181 68.6945C28.4628 71.8177 33.1042 73.5342 37.9039 73.5342H52.7331C54.6875 73.5342 56.6242 73.1642 58.4408 72.4437L67.2125 68.2713C70.8438 66.5439 73.7206 63.595 75.3666 59.9775C74.2905 59.4952 73.0339 59.4644 71.9016 59.9628Z" fill="#F8D3BF"/>
<path d="M68.8087 29.7164C69.4776 28.6755 70.4524 27.9508 71.5395 27.5815L77.1015 33.8242C75.4776 36.0748 72.3576 36.6864 69.9949 35.1681L66.676 33.0353L68.8087 29.7164Z" fill="#60D243"/>
<path d="M72.5633 33.2711C70.7304 32.0931 70.1993 29.6523 71.3771 27.8193C71.4293 27.7381 71.4837 27.659 71.5394 27.5817C73.0047 27.084 74.6746 27.2333 76.0777 28.135C77.9107 29.3129 78.4418 31.7537 77.264 33.5867C77.2118 33.6679 77.1574 33.747 77.1015 33.8243C75.6363 34.322 73.9665 34.1726 72.5633 33.2711Z" fill="#88DD72"/>
<path d="M62.2302 26.8486L68.9768 33.8668C68.2654 35.4435 66.9077 36.7197 65.1251 37.2704L62.2301 38.1647L59.6102 38.1069L59.2629 34.1754C58.3704 31.2872 59.6767 28.2446 62.2302 26.8486Z" fill="#2A950F"/>
<path d="M67.8173 34.3561C66.6326 34.722 65.4139 34.5939 64.3807 34.0901L62.56 32.5186C62.3029 32.1412 62.0967 31.72 61.955 31.2609C61.4868 29.7456 61.6251 28.1884 62.23 26.8483C62.5921 26.6503 62.9795 26.4853 63.3892 26.3586C65.8626 25.5943 68.4873 26.9801 69.2514 29.4536C69.7195 30.9689 69.5812 32.5261 68.9764 33.8662C68.6143 34.0643 68.2271 34.2295 67.8173 34.3561Z" fill="#38C714"/>
<path d="M56.9915 43.8247L58.4061 41.1451C59.0029 40.0149 59.8974 39.1438 60.9418 38.5757L69.0557 44.3137C68.9855 44.5016 68.9041 44.6876 68.8079 44.8697C67.1963 47.9222 63.4154 49.0904 60.3629 47.4788L57.6832 46.0641L56.9915 43.8247Z" fill="#2A950F"/>
<path d="M63.1747 44.3677L61.2515 42.5088C60.5912 41.3342 60.449 39.8971 60.9418 38.576C62.7182 37.6098 64.929 37.5215 66.8511 38.5363C68.9583 39.6488 69.8668 42.1395 69.0557 44.314C67.288 45.2754 65.0904 45.3668 63.1747 44.3677Z" fill="#38C714"/>
<path d="M19.0037 26.5914C18.3348 25.5505 17.36 24.8258 16.273 24.4565L10.7109 30.6992C12.3348 32.9498 15.4548 33.5614 17.8175 32.0431L21.1364 29.9103L19.0037 26.5914Z" fill="#60D243"/>
<path d="M15.2491 30.1461C17.0821 28.9681 17.6132 26.5273 16.4354 24.6943C16.3832 24.6131 16.3288 24.534 16.273 24.4567C14.8077 23.959 13.1379 24.1083 11.7347 25.01C9.90176 26.1879 9.37067 28.6287 10.5485 30.4617C10.6007 30.5429 10.655 30.622 10.711 30.6993C12.1761 31.197 13.846 31.0476 15.2491 30.1461Z" fill="#88DD72"/>
<path d="M25.5823 23.7236L18.8357 30.7418C19.5471 32.3185 20.9048 33.5947 22.6874 34.1454L25.5824 35.0397L27.6552 33.9455L28.5498 31.0504C29.4421 28.1622 28.1358 25.1196 25.5823 23.7236Z" fill="#2A950F"/>
<path d="M19.9952 31.2311C21.1799 31.597 22.3987 31.4689 23.4318 30.9651L25.2526 29.3936C25.5096 29.0162 25.7158 28.595 25.8576 28.1359C26.3257 26.6206 26.1874 25.0634 25.5826 23.7233C25.2204 23.5253 24.833 23.3603 24.4233 23.2336C21.9499 22.4693 19.3252 23.8551 18.5612 26.3286C18.093 27.8439 18.2313 29.4011 18.8362 30.7412C19.1982 30.9393 19.5854 31.1045 19.9952 31.2311Z" fill="#38C714"/>
<path d="M30.8211 40.6997L29.4064 38.0201C28.8097 36.8899 27.9151 36.0188 26.8707 35.4507L18.7568 41.1887C18.827 41.3766 18.9084 41.5626 19.0046 41.7447C20.6162 44.7972 24.3971 45.9654 27.4496 44.3538L30.1293 42.9391L30.8211 40.6997Z" fill="#2A950F"/>
<path d="M24.6378 41.2427L26.561 39.3838C27.2213 38.2092 27.3635 36.7721 26.8707 35.451C25.0943 34.4848 22.8835 34.3965 20.9613 35.4113C18.8542 36.5238 17.9457 39.0145 18.7568 41.189C20.5245 42.1504 22.7221 42.2418 24.6378 41.2427Z" fill="#38C714"/>
<path d="M46.5694 2.76611L28.0781 38.4688C29.4814 43.6125 33.3239 47.7497 38.2867 49.5589L49.7722 48.6849C50.7705 45.2605 58.8342 24.5556 58.8342 24.5556C56.6009 15.7953 52.0398 5.43705 46.5694 2.76611Z" fill="#75EEFF"/>
<path d="M58.8343 24.5557C57.3765 23.1465 55.7223 21.9392 53.9127 20.9851C53.2754 20.649 52.5957 20.5123 51.9354 20.544L49.5271 24.1642L51.521 28.6457C51.9818 28.9553 52.4223 29.2926 52.8409 29.6545L56.9483 44.0932C59.0582 41.3328 60.3124 37.8834 60.3124 34.1407C60.3124 31.7096 59.783 28.277 58.8343 24.5557Z" fill="#60D243"/>
<path d="M57.5755 39.9169C57.5668 35.9703 55.8377 32.2226 52.8411 29.6544C52.4135 29.2908 51.943 29.0315 51.4541 28.8706L47.6643 31.2379L47.0244 35.9373C47.1222 36.0465 47.2239 36.1531 47.3336 36.2534C50.0993 39.6597 50.7707 45.2604 49.7724 48.6847C49.6789 49.0051 49.5714 49.307 49.4491 49.5858C52.4511 48.5083 55.0474 46.5806 56.9486 44.0929C57.333 42.8773 57.5511 41.5903 57.5758 40.2589C57.5761 40.2395 57.576 40.1164 57.5755 39.9169Z" fill="#38C714"/>
<path d="M38.543 40.1591C38.9432 40.0063 39.3733 39.9128 39.8247 39.8895C42.5644 39.1963 45.0291 37.8137 47.0243 35.9373L51.454 28.8706C51.4772 28.7959 51.499 28.7206 51.5212 28.6456L51.9355 20.5439C51.2637 15.4708 49.3207 8.53594 46.5693 2.76609C45.7024 2.34297 44.813 2.10938 43.9062 2.10938C41.6163 2.10938 39.4365 3.57766 37.4568 5.91641C29.8218 24.1641 27.6577 36.4155 27.6577 36.4155C27.7547 37.115 27.8958 37.8003 28.0782 38.4688C30.3768 39.6947 33.0008 40.3906 35.7879 40.3906C36.7268 40.3906 37.6471 40.3106 38.543 40.1591Z" fill="#C0F6FF"/>
<path d="M32.6046 15.6597L37.085 14.1191L37.3802 13.7927C38.483 13.6688 39.602 13.6755 40.7117 13.8227C42.5064 14.0606 44.221 12.9981 44.8489 11.3002C45.7145 8.96 44.197 6.40032 41.7233 6.07469C40.4492 5.90703 38.8358 5.85547 37.4567 5.9161C35.3621 8.39047 33.4921 11.8398 31.9536 15.5611L32.6046 15.6597Z" fill="#60D243"/>
<path d="M46.109 31.7789L46.0551 31.9804C45.6778 33.3885 46.0646 34.865 47.0245 35.9374C49.0575 34.0255 50.6032 31.6014 51.4542 28.8707C49.2823 28.1563 46.7567 29.3619 46.109 31.7789Z" fill="#60D243"/>
<path d="M44.1466 42.7357C43.5689 41.2204 42.245 40.1165 40.6352 39.9209L40.5799 39.9142C40.3227 39.8829 40.071 39.8768 39.8247 39.8895C39.3733 39.9128 38.9432 40.0062 38.543 40.159C36.4686 40.9512 35.2067 43.3232 36.0555 45.6345C36.5757 47.0509 37.328 48.3793 38.2867 49.5589C40.0397 50.1979 41.9322 50.5468 43.9061 50.5468C45.8516 50.5468 47.7174 50.2073 49.4489 49.5859C49.5713 49.3071 49.6788 49.0053 49.7722 48.6848C47.4102 47.4545 45.2675 45.5346 44.1466 42.7357Z" fill="#88DD72"/>
<path d="M48.3426 23.4438C47.874 25.1924 48.6595 27.0504 50.2616 27.893C50.696 28.1214 51.116 28.3733 51.5213 28.6457C51.9585 27.168 52.1941 25.6038 52.1941 23.9844C52.1941 22.9893 52.1054 21.826 51.9355 20.5439C50.3093 20.6224 48.8019 21.7296 48.3426 23.4438Z" fill="#88DD72"/>
<path d="M27.6579 36.4154C29.9832 34.8084 32.886 33.7517 36.0757 34.2046C37.6772 34.4596 39.2943 33.8624 40.2666 32.5646L40.3001 32.5201C42.2165 29.9623 40.7477 26.287 37.5977 25.7459C35.5696 25.3976 33.4679 25.5065 31.4594 26.0902L29.1293 27.3157C28.0143 29.3137 27.5707 33.1398 27.5054 34.5565C27.521 35.1857 27.5732 35.8057 27.6579 36.4154Z" fill="#88DD72"/>
<path d="M37.3803 13.7928C37.3294 13.7986 37.0758 13.8298 37.0572 13.8325C35.4181 14.0561 33.822 14.5754 32.3537 15.3751C32.2187 15.4365 32.0853 15.4986 31.9539 15.5614C31.9464 15.5794 31.9391 15.5975 31.9317 15.6154C29.1834 22.2814 27.5 29.8039 27.5 34.1406C27.5 34.2797 27.5019 34.4184 27.5053 34.5567C27.6047 32.3978 28.9273 28.8337 31.4594 26.0904C33.1689 24.2383 35.4297 22.7604 38.2373 22.3428C39.8452 22.1311 41.2252 21.0983 41.7877 19.5772L41.807 19.525C42.9048 16.5567 40.5084 13.4854 37.3803 13.7928Z" fill="#38C714"/>
</svg>
