<svg width="168" height="168" viewBox="0 0 168 168" fill="none" xmlns="http://www.w3.org/2000/svg">
<g opacity="0.4">
<path d="M156.824 82.9374C154.274 96.4739 146.95 111.915 134.002 118.35C114.437 128.07 114.846 145.125 77.6334 149.965C72.2097 150.696 66.7227 150.835 61.269 150.381C58.5982 150.152 55.9449 149.751 53.3257 149.18C30.2126 144.166 15.6287 126.872 11.2168 106.898C5.41074 80.6333 21.69 64.8221 32.4349 55.357C43.1798 45.8919 52.6908 14.7572 89.2357 9.73011C94.8131 8.93639 100.464 8.78923 106.075 9.29155C118.872 10.4894 132.562 15.6605 141.631 25.1093C142.312 25.8184 142.972 26.5504 143.611 27.3053C156.111 42.0168 160.303 64.4817 156.824 82.9374Z" fill="#2C5282"/>
<path opacity="0.7" d="M156.824 82.9374C154.274 96.4739 146.95 111.915 134.002 118.35C114.437 128.07 114.846 145.125 77.6334 149.965C72.2097 150.696 66.7227 150.835 61.269 150.381C58.5982 150.152 55.9449 149.751 53.3257 149.18C30.2126 144.166 15.6287 126.872 11.2168 106.898C5.41074 80.6333 21.69 64.8221 32.4349 55.357C43.1798 45.8919 52.6908 14.7572 89.2357 9.73011C94.8131 8.93639 100.464 8.78923 106.075 9.29155C118.872 10.4894 132.562 15.6605 141.631 25.1093C142.312 25.8184 142.972 26.5504 143.611 27.3053C156.111 42.0168 160.303 64.4817 156.824 82.9374Z" fill="white"/>
</g>
<path d="M122.787 70.3561C122.882 70.0582 122.666 69.4789 122.588 69.3055C122.182 68.4022 121.18 67.9963 120.231 68.0716C119.891 68.137 119.541 68.137 119.2 68.0716C118.797 67.9015 118.477 67.5809 118.307 67.1781C117.933 66.4608 117.461 65.7997 116.903 65.2144C116.048 64.3242 114.893 63.6696 113.63 63.7122C110.216 63.83 110.566 66.6577 109.624 67.4825C109.1 67.9407 108.724 67.2861 108.279 67.0636C108.001 66.9127 107.684 66.8498 107.369 66.8831C107.055 66.9164 106.758 67.0444 106.518 67.2501C106.03 67.6592 105.742 68.2549 105.359 68.7655C104.976 69.276 104.4 69.7473 103.765 69.6655C103.235 69.6099 102.813 69.1975 102.306 69.0273C102.008 68.944 101.696 68.9249 101.39 68.9711C101.084 69.0174 100.792 69.128 100.532 69.2957C100.078 69.5817 99.6774 69.9437 99.3469 70.3659L122.787 70.3561Z" fill="white" stroke="#1A202C" stroke-width="0.435392" stroke-miterlimit="10"/>
<path d="M156.095 33.9881C156.242 33.5332 155.911 32.6463 155.79 32.3779C155.168 30.9935 153.63 30.3651 152.174 30.4862C151.643 30.5287 151.1 30.6531 150.593 30.4862C149.958 30.2898 149.529 29.704 149.218 29.1148C148.647 28.0113 147.921 26.9943 147.065 26.094C145.756 24.7259 143.982 23.7212 142.031 23.803C136.794 23.9863 137.331 28.3228 135.885 29.5894C135.079 30.2963 134.5 29.2916 133.816 28.9348C133.39 28.7026 132.904 28.6055 132.422 28.6564C131.939 28.7073 131.484 28.9037 131.116 29.2196C130.366 29.8512 129.925 30.7644 129.335 31.5466C128.746 32.3288 127.866 33.0357 126.891 32.9277C126.076 32.8394 125.428 32.211 124.649 31.9459C124.195 31.8184 123.72 31.7879 123.253 31.8561C122.787 31.9243 122.34 32.0898 121.942 32.3419C121.248 32.7809 120.632 33.3342 120.122 33.9783L156.095 33.9881Z" fill="white" stroke="#1A202C" stroke-width="0.435392" stroke-miterlimit="10"/>
<path d="M46.2735 18.6417C46.3684 18.3406 46.1524 17.7646 46.0739 17.5911C45.668 16.6878 44.6665 16.282 43.7174 16.3573C43.3769 16.4227 43.027 16.4227 42.6864 16.3573C42.2836 16.1871 41.9631 15.8666 41.7929 15.4638C41.4196 14.7464 40.9469 14.0853 40.3889 13.5001C39.5347 12.6098 38.3793 11.9553 37.116 11.9978C33.7024 12.1156 34.0526 14.9434 33.11 15.7681C32.5863 16.2263 32.2099 15.5718 31.7648 15.3492C31.487 15.1983 31.1698 15.1354 30.8554 15.1687C30.541 15.202 30.2441 15.33 30.004 15.5358C29.5098 15.9481 29.2218 16.5405 28.8552 17.0511C28.4887 17.5617 27.8963 18.033 27.2614 17.9511C26.7311 17.8922 26.3089 17.4831 25.8016 17.3129C25.506 17.229 25.196 17.2087 24.8919 17.2533C24.5879 17.2978 24.2967 17.4063 24.0376 17.5715C23.5841 17.8575 23.1833 18.2196 22.8528 18.6417H46.2735Z" fill="white" stroke="#1A202C" stroke-width="0.435392" stroke-miterlimit="10"/>
<path d="M150.001 140.435C150.241 139.944 150.365 139.405 150.365 138.858C150.385 137.938 150.039 137.047 149.404 136.381C148.768 135.716 147.894 135.329 146.974 135.307C146.358 135.308 145.756 135.484 145.236 135.814C145.265 135.647 145.28 135.477 145.282 135.307C145.308 134.929 145.257 134.549 145.133 134.191C145.009 133.832 144.814 133.502 144.559 133.221C144.305 132.94 143.997 132.712 143.653 132.553C143.309 132.393 142.936 132.304 142.557 132.292C142.178 132.279 141.801 132.343 141.447 132.48C141.093 132.616 140.77 132.823 140.498 133.087C140.226 133.351 140.009 133.667 139.862 134.016C139.714 134.366 139.639 134.741 139.639 135.12H139.443C138.273 135.122 137.126 135.448 136.131 136.063C135.253 134.588 133.85 133.498 132.203 133.013C132.691 132.745 133.097 132.35 133.378 131.87C133.659 131.39 133.805 130.843 133.801 130.286C133.814 129.895 133.748 129.505 133.607 129.14C133.466 128.774 133.254 128.441 132.981 128.159C132.709 127.878 132.383 127.654 132.023 127.501C131.662 127.348 131.274 127.269 130.883 127.269C130.491 127.269 130.104 127.348 129.743 127.501C129.383 127.654 129.056 127.878 128.784 128.159C128.512 128.441 128.299 128.774 128.158 129.14C128.018 129.505 127.952 129.895 127.965 130.286C127.961 130.791 128.081 131.29 128.314 131.738C128.548 132.186 128.887 132.57 129.304 132.856C128.595 132.977 127.912 133.215 127.281 133.559C126.94 132.479 126.268 131.534 125.36 130.858C124.451 130.182 123.353 129.809 122.221 129.792C120.921 129.795 119.669 130.286 118.713 131.167C118.254 126.984 114.864 123.731 110.746 123.731C109.611 123.735 108.491 123.987 107.462 124.467C106.434 124.947 105.522 125.645 104.79 126.513C103.428 122.559 99.8183 119.731 95.5766 119.731C93.6997 119.729 91.8649 120.288 90.3073 121.335C89.4539 120.989 88.5306 120.851 87.6134 120.932C86.6961 121.013 85.8112 121.31 85.0314 121.8C84.2516 121.31 83.3666 121.013 82.4494 120.932C81.5322 120.851 80.6089 120.989 79.7555 121.335C78.2005 120.287 76.3681 119.726 74.4927 119.725C70.238 119.725 66.6378 122.553 65.2796 126.506C64.5462 125.639 63.6337 124.942 62.6048 124.461C61.5759 123.981 60.4551 123.73 59.3196 123.724C55.2024 123.724 51.8117 126.978 51.3567 131.16C50.4002 130.28 49.1484 129.789 47.8482 129.786C46.7159 129.802 45.6176 130.175 44.7092 130.851C43.8009 131.527 43.1288 132.473 42.7883 133.553C42.1571 133.209 41.4738 132.971 40.7657 132.849C41.182 132.563 41.5218 132.179 41.7552 131.731C41.9886 131.283 42.1084 130.785 42.1043 130.28C42.1174 129.888 42.0516 129.498 41.9109 129.133C41.7702 128.768 41.5574 128.434 41.2851 128.153C41.0129 127.871 40.6868 127.647 40.3263 127.494C39.9657 127.341 39.5781 127.263 39.1865 127.263C38.7949 127.263 38.4073 127.341 38.0468 127.494C37.6862 127.647 37.3602 127.871 37.0879 128.153C36.8157 128.434 36.6029 128.768 36.4621 129.133C36.3214 129.498 36.2556 129.888 36.2688 130.28C36.2632 130.836 36.4088 131.384 36.6901 131.864C36.9714 132.344 37.3778 132.739 37.8659 133.006C36.2192 133.492 34.8166 134.581 33.9385 136.056C32.9427 135.442 31.7963 135.116 30.6263 135.114C30.5576 135.114 30.4954 135.114 30.4267 135.114C30.3975 134.733 30.2915 134.363 30.1149 134.024C29.9384 133.686 29.695 133.387 29.3996 133.145C29.1042 132.904 28.7628 132.725 28.3961 132.619C28.0294 132.513 27.6451 132.483 27.2664 132.53C26.8876 132.577 26.5224 132.7 26.1927 132.892C25.863 133.084 25.5757 133.341 25.3483 133.648C25.1208 133.954 24.9579 134.304 24.8694 134.675C24.7809 135.046 24.7686 135.432 24.8333 135.808C24.3127 135.477 23.7089 135.301 23.0921 135.3C22.635 135.31 22.1841 135.409 21.7655 135.593C21.3469 135.777 20.9688 136.042 20.6528 136.373C20.3369 136.703 20.0893 137.093 19.9244 137.52C19.7594 137.946 19.6803 138.401 19.6916 138.858C19.6914 139.405 19.8156 139.944 20.0549 140.435H150.001Z" fill="white" stroke="#1A202C" stroke-width="0.435392" stroke-miterlimit="10"/>
<path d="M116.42 25.3909H109.878V139.96H116.42V25.3909Z" stroke="#1A202C" stroke-width="0.435392" stroke-miterlimit="10"/>
<path d="M109.872 59.5071H104.845" stroke="#1A202C" stroke-width="0.435392" stroke-miterlimit="10"/>
<path d="M109.873 89.8953H103.34" stroke="#1A202C" stroke-width="0.435392" stroke-miterlimit="10"/>
<path d="M116.42 25.3909L110.12 33.3897H116.348L109.878 25.3909" stroke="#1A202C" stroke-width="0.435392" stroke-miterlimit="10"/>
<path d="M116.42 33.5894L110.12 41.5849H116.348L109.878 33.5894" stroke="#1A202C" stroke-width="0.435392" stroke-miterlimit="10"/>
<path d="M116.42 41.7844L110.12 49.7833H116.348L109.878 41.7844" stroke="#1A202C" stroke-width="0.435392" stroke-miterlimit="10"/>
<path d="M116.42 49.9829L110.12 57.9785H116.348L109.878 49.9829" stroke="#1A202C" stroke-width="0.435392" stroke-miterlimit="10"/>
<path d="M116.416 58.1787L110.116 66.1743H116.344L109.874 58.1787H104.856" stroke="#1A202C" stroke-width="0.435392" stroke-miterlimit="10"/>
<path d="M116.42 66.3738L110.12 74.3694H116.348L109.878 66.3738" stroke="#1A202C" stroke-width="0.435392" stroke-miterlimit="10"/>
<path d="M116.42 74.5723L110.12 82.5679H116.348L109.878 74.5723" stroke="#1A202C" stroke-width="0.435392" stroke-miterlimit="10"/>
<path d="M116.42 82.7671L110.12 90.7627H116.348L109.878 82.7671" stroke="#1A202C" stroke-width="0.435392" stroke-miterlimit="10"/>
<path d="M116.417 90.9622L110.116 98.961H116.345L109.874 90.9622H103.348" stroke="#1A202C" stroke-width="0.435392" stroke-miterlimit="10"/>
<path d="M116.42 99.1606L110.12 107.156H116.348L109.878 99.1606" stroke="#1A202C" stroke-width="0.435392" stroke-miterlimit="10"/>
<path d="M116.42 107.356L110.12 115.352H116.348L109.878 107.356" stroke="#1A202C" stroke-width="0.435392" stroke-miterlimit="10"/>
<path d="M116.42 115.552L110.12 123.55H116.348L109.878 115.552" stroke="#1A202C" stroke-width="0.435392" stroke-miterlimit="10"/>
<path d="M116.42 123.75L110.12 131.746H116.348L109.878 123.75" stroke="#1A202C" stroke-width="0.435392" stroke-miterlimit="10"/>
<path d="M116.42 131.945L110.12 139.941H116.348L109.878 131.945" stroke="#1A202C" stroke-width="0.435392" stroke-miterlimit="10"/>
<path d="M116.286 140.173H53.5216L62.4893 130.479H107.318L116.286 140.173Z" fill="white" stroke="#1A202C" stroke-width="0.435392" stroke-miterlimit="10"/>
<path d="M65.6545 138.004C67.0174 138.004 68.1223 136.899 68.1223 135.536C68.1223 134.173 67.0174 133.068 65.6545 133.068C64.2916 133.068 63.1868 134.173 63.1868 135.536C63.1868 136.899 64.2916 138.004 65.6545 138.004Z" fill="#1A202C" stroke="#1A202C" stroke-width="0.435392" stroke-linecap="round" stroke-linejoin="round"/>
<path d="M75.5234 138.004C76.8863 138.004 77.9912 136.899 77.9912 135.536C77.9912 134.173 76.8863 133.068 75.5234 133.068C74.1605 133.068 73.0557 134.173 73.0557 135.536C73.0557 136.899 74.1605 138.004 75.5234 138.004Z" fill="#1A202C" stroke="#1A202C" stroke-width="0.435392" stroke-linecap="round" stroke-linejoin="round"/>
<path d="M85.3922 138.004C86.7551 138.004 87.8599 136.899 87.8599 135.536C87.8599 134.173 86.7551 133.068 85.3922 133.068C84.0293 133.068 82.9244 134.173 82.9244 135.536C82.9244 136.899 84.0293 138.004 85.3922 138.004Z" fill="#1A202C" stroke="#1A202C" stroke-width="0.435392" stroke-linecap="round" stroke-linejoin="round"/>
<path d="M95.2574 138.004C96.6203 138.004 97.7252 136.899 97.7252 135.536C97.7252 134.173 96.6203 133.068 95.2574 133.068C93.8945 133.068 92.7897 134.173 92.7897 135.536C92.7897 136.899 93.8945 138.004 95.2574 138.004Z" fill="#1A202C" stroke="#1A202C" stroke-width="0.435392" stroke-linecap="round" stroke-linejoin="round"/>
<path d="M105.13 138.004C106.493 138.004 107.598 136.899 107.598 135.536C107.598 134.173 106.493 133.068 105.13 133.068C103.767 133.068 102.662 134.173 102.662 135.536C102.662 136.899 103.767 138.004 105.13 138.004Z" fill="#1A202C" stroke="#1A202C" stroke-width="0.435392" stroke-linecap="round" stroke-linejoin="round"/>
<path d="M157.335 139.97H12.4711V144.195H157.335V139.97Z" fill="#1A202C" stroke="#1A202C" stroke-width="0.435392" stroke-linecap="round" stroke-linejoin="round"/>
<path d="M104.966 54.0937L101.693 125.848H68.0706L64.7977 54.0937C64.7977 44.3079 68.8921 35.3566 73.3399 28.3919C77.4016 22.0328 81.7578 17.3297 83.5644 15.1434C83.7085 14.9715 83.8885 14.8332 84.0918 14.7383C84.2951 14.6434 84.5167 14.5942 84.741 14.5942C84.9654 14.5942 85.187 14.6434 85.3903 14.7383C85.5935 14.8332 85.7736 14.9715 85.9176 15.1434C87.7635 17.3166 92.1852 22.0262 96.3025 28.3854C100.816 35.3566 104.966 44.3046 104.966 54.0937Z" fill="white" stroke="#1A202C" stroke-width="0.435392" stroke-miterlimit="10"/>
<path d="M102.522 61.4807L99.7928 123.253" stroke="#1A202C" stroke-width="0.435392" stroke-miterlimit="10"/>
<path d="M96.4612 33.1021C99.793 38.9932 102.568 46.1182 102.804 53.8094L96.4612 33.1021Z" fill="white"/>
<path d="M96.4612 33.1021C99.793 38.9932 102.568 46.1182 102.804 53.8094" stroke="#1A202C" stroke-width="0.435392" stroke-miterlimit="10"/>
<path d="M96.3098 28.3858H73.3473C77.4089 22.0267 81.7651 17.3236 83.5718 15.1373C83.7158 14.9654 83.8959 14.8271 84.0991 14.7322C84.3024 14.6373 84.524 14.5881 84.7484 14.5881C84.9727 14.5881 85.1943 14.6373 85.3976 14.7322C85.6009 14.8271 85.7809 14.9654 85.925 15.1373C87.7709 17.317 92.1925 22.0267 96.3098 28.3858Z" fill="#2C5282" stroke="#1A202C" stroke-width="0.435392" stroke-linecap="round" stroke-linejoin="round"/>
<path d="M66.3904 89.2974C66.3904 89.2974 57.8613 92.2429 54.6538 100.252C52.1403 106.539 51.4759 118.629 51.3057 123.538C51.296 123.817 51.3427 124.096 51.443 124.357C51.5433 124.618 51.695 124.856 51.8893 125.057C52.0836 125.258 52.3163 125.417 52.5737 125.526C52.831 125.636 53.1077 125.692 53.3872 125.692C53.7622 125.692 54.1303 125.591 54.4525 125.399C54.7746 125.207 55.0388 124.932 55.2168 124.602C56.8859 121.506 62.0898 112.859 67.5163 114.174L66.3904 89.2974Z" fill="#2C5282" stroke="#1A202C" stroke-width="0.435392" stroke-linecap="round" stroke-linejoin="round"/>
<path d="M103.391 89.2251C103.391 89.2251 111.946 92.2361 115.15 100.251C117.667 106.538 118.332 118.628 118.498 123.538C118.508 123.817 118.461 124.096 118.361 124.356C118.261 124.617 118.109 124.855 117.915 125.056C117.721 125.257 117.488 125.417 117.23 125.526C116.973 125.635 116.696 125.691 116.417 125.691C116.045 125.69 115.681 125.588 115.362 125.398C115.043 125.207 114.781 124.934 114.604 124.608C112.935 121.512 107.668 112.914 102.239 114.23L103.391 89.2251Z" fill="#2C5282" stroke="#1A202C" stroke-width="0.435392" stroke-linecap="round" stroke-linejoin="round"/>
<path d="M105.767 90.3313C104.998 89.909 104.201 89.5395 103.381 89.2251L102.213 114.223C102.774 114.088 103.355 114.055 103.928 114.125L105.767 90.3313Z" fill="#1A202C" stroke="#1A202C" stroke-width="0.435392" stroke-linecap="round" stroke-linejoin="round"/>
<path d="M98.9407 125.796H71.2423V130.708H98.9407V125.796Z" fill="#1A202C" stroke="#1A202C" stroke-width="0.435392" stroke-linecap="round" stroke-linejoin="round"/>
<path d="M86.3463 113.944C90.3547 112.978 92.8217 108.946 91.8564 104.938C90.8911 100.929 86.8591 98.4624 82.8506 99.4277C78.8421 100.393 76.3752 104.425 77.3405 108.433C78.3058 112.442 82.3378 114.909 86.3463 113.944Z" fill="white" stroke="#1A202C" stroke-width="0.435392" stroke-miterlimit="10"/>
<path d="M85.942 112.401C89.1029 111.661 91.0652 108.498 90.325 105.337C89.5848 102.177 86.4223 100.214 83.2615 100.954C80.1006 101.695 78.1383 104.857 78.8785 108.018C79.6187 111.179 82.7811 113.141 85.942 112.401Z" fill="#2C5282" stroke="#1A202C" stroke-width="0.435392" stroke-miterlimit="10"/>
<path d="M85.7077 111.378C88.3052 110.769 89.917 108.169 89.3077 105.572C88.6985 102.974 86.0989 101.363 83.5015 101.972C80.904 102.581 79.2922 105.181 79.9015 107.778C80.5107 110.376 83.1102 111.987 85.7077 111.378Z" fill="white" stroke="#1A202C" stroke-width="0.435392" stroke-miterlimit="10"/>
<path d="M85.4076 110.103C87.2993 109.659 88.4725 107.765 88.0281 105.873C87.5837 103.982 85.69 102.808 83.7984 103.253C81.9068 103.697 80.7335 105.591 81.1779 107.482C81.6223 109.374 83.516 110.547 85.4076 110.103Z" fill="#2C5282" stroke="#1A202C" stroke-width="0.435392" stroke-miterlimit="10"/>
<path d="M84.6042 108.901C85.8316 108.901 86.8265 107.906 86.8265 106.679C86.8265 105.452 85.8316 104.457 84.6042 104.457C83.3769 104.457 82.382 105.452 82.382 106.679C82.382 107.906 83.3769 108.901 84.6042 108.901Z" fill="white" stroke="#1A202C" stroke-width="0.435392" stroke-miterlimit="10"/>
<path d="M85.6298 106.679C85.6304 106.475 85.5704 106.275 85.4574 106.105C85.3444 105.935 85.1834 105.803 84.9949 105.724C84.8064 105.646 84.5988 105.625 84.3985 105.665C84.1982 105.704 84.0142 105.803 83.8698 105.947C83.7255 106.091 83.6272 106.275 83.5875 106.476C83.5478 106.676 83.5685 106.883 83.647 107.072C83.7254 107.261 83.8581 107.422 84.0281 107.535C84.1981 107.648 84.3979 107.708 84.6021 107.707C84.8747 107.707 85.136 107.599 85.3288 107.406C85.5215 107.213 85.6298 106.952 85.6298 106.679Z" fill="#2C5282" stroke="#1A202C" stroke-width="0.435392" stroke-miterlimit="10"/>
<path d="M85.0277 105.065L84.6055 106.679L86.1274 107.013L85.0277 105.065Z" fill="white" stroke="#1A202C" stroke-width="0.435392" stroke-miterlimit="10"/>
<path d="M85.6765 105.966L92.363 102.323" stroke="#1A202C" stroke-width="0.435392" stroke-miterlimit="10"/>
<path d="M90.2163 103.521L90.3178 101.774L93.4597 99.9768V101.973L90.2163 103.521Z" fill="white" stroke="#1A202C" stroke-width="0.435392" stroke-miterlimit="10"/>
<path d="M94.81 102.922L93.4321 101.904L90.2051 103.602L91.7597 104.502L94.81 102.922Z" fill="white" stroke="#1A202C" stroke-width="0.435392" stroke-miterlimit="10"/>
<path d="M84.602 92.4982C88.7251 92.4982 92.0675 89.1558 92.0675 85.0328C92.0675 80.9097 88.7251 77.5674 84.602 77.5674C80.479 77.5674 77.1366 80.9097 77.1366 85.0328C77.1366 89.1558 80.479 92.4982 84.602 92.4982Z" stroke="#1A202C" stroke-width="0.435392" stroke-miterlimit="10"/>
<path d="M82.3798 83.9856H80.1346V88.525H82.3798V83.9856Z" fill="#2C5282" stroke="#1A202C" stroke-width="0.435392" stroke-miterlimit="10"/>
<path d="M85.7448 82.542H83.4996V88.5248H85.7448V82.542Z" fill="#2C5282" stroke="#1A202C" stroke-width="0.435392" stroke-miterlimit="10"/>
<path d="M89.106 81.2H86.8608V88.5246H89.106V81.2Z" fill="#2C5282" stroke="#1A202C" stroke-width="0.435392" stroke-miterlimit="10"/>
<path d="M84.602 71.3844C88.7251 71.3844 92.0675 68.042 92.0675 63.919C92.0675 59.796 88.7251 56.4536 84.602 56.4536C80.479 56.4536 77.1366 59.796 77.1366 63.919C77.1366 68.042 80.479 71.3844 84.602 71.3844Z" stroke="#1A202C" stroke-width="0.435392" stroke-miterlimit="10"/>
<path d="M90.0126 64.9333V62.9958H88.7264C88.6269 62.5515 88.4544 62.1268 88.2158 61.739L89.1453 60.8062L87.7674 59.4382L86.8412 60.3644C86.4599 60.1263 86.0419 59.9527 85.604 59.8506V58.4956H83.6698V59.8407C83.2415 59.9405 82.8324 60.1096 82.4588 60.3415L81.4769 59.3596L80.1089 60.731L81.0907 61.7128C80.8626 62.0806 80.6926 62.4813 80.5867 62.9009H79.1859V64.8384H80.5671C80.6624 65.2603 80.8237 65.6646 81.0449 66.0363L80.063 67.0181L81.4311 68.3862L82.3933 67.4272C82.7637 67.6646 83.169 67.8424 83.5945 67.9542V69.3222H85.5288V68.0131C85.9679 67.9186 86.389 67.7539 86.7757 67.5254L87.7183 68.4647L89.0864 67.0967L88.1732 66.1803C88.4192 65.798 88.6006 65.3778 88.71 64.9366L90.0126 64.9333ZM84.6484 66.1246C84.2111 66.1253 83.7836 65.9962 83.4198 65.7537C83.056 65.5112 82.7723 65.1662 82.6047 64.7624C82.4371 64.3586 82.393 63.9141 82.4782 63.4853C82.5633 63.0564 82.7738 62.6625 83.0829 62.3533C83.3921 62.0442 83.786 61.8337 84.2149 61.7486C84.6437 61.6634 85.0882 61.7075 85.492 61.8751C85.8958 62.0427 86.2408 62.3263 86.4833 62.6901C86.7258 63.0539 86.8549 63.4815 86.8543 63.9187C86.8534 64.5035 86.6207 65.0641 86.2072 65.4776C85.7937 65.8911 85.2331 66.1238 84.6484 66.1246Z" fill="#2C5282" stroke="#1A202C" stroke-width="0.435392" stroke-miterlimit="10"/>
<path d="M84.602 50.2713C88.7251 50.2713 92.0675 46.929 92.0675 42.806C92.0675 38.6829 88.7251 35.3406 84.602 35.3406C80.479 35.3406 77.1366 38.6829 77.1366 42.806C77.1366 46.929 80.479 50.2713 84.602 50.2713Z" stroke="#1A202C" stroke-width="0.435392" stroke-miterlimit="10"/>
<path d="M88.463 41.1044C88.4171 40.1097 87.995 39.1695 87.2822 38.4742C86.5694 37.7789 85.619 37.3803 84.6234 37.359C83.6278 37.3378 82.6614 37.6956 81.9196 38.3599C81.1778 39.0243 80.716 39.9456 80.6278 40.9375C80.5859 41.8605 80.8749 42.768 81.4427 43.4969C82.0606 44.2643 82.406 45.2152 82.4246 46.2002V46.4097H86.6793V46.2002C86.6861 45.227 87.0217 44.2847 87.6317 43.5263C88.1748 42.8363 88.4679 41.9825 88.463 41.1044Z" fill="#2C5282" stroke="#1A202C" stroke-width="0.435392" stroke-miterlimit="10"/>
<path d="M85.4115 47.0974H83.7063C83.3629 47.0974 83.0845 47.3758 83.0845 47.7193V48.5506C83.0845 48.894 83.3629 49.1724 83.7063 49.1724H85.4115C85.7549 49.1724 86.0333 48.894 86.0333 48.5506V47.7193C86.0333 47.3758 85.7549 47.0974 85.4115 47.0974Z" fill="white" stroke="#1A202C" stroke-width="0.435392" stroke-linecap="round" stroke-linejoin="round"/>
<path d="M86.6984 46.4099H82.4175V47.3819H86.6984V46.4099Z" fill="white" stroke="#1A202C" stroke-width="0.435392" stroke-linecap="round" stroke-linejoin="round"/>
<path d="M86.2664 48.4321H82.843L82.4175 47.4568H86.6951L86.2664 48.4321Z" fill="white" stroke="#1A202C" stroke-width="0.435392" stroke-linecap="round" stroke-linejoin="round"/>
<path d="M26.7197 92.9793C26.5497 92.983 26.3817 92.9424 26.2321 92.8615C26.0991 92.7897 25.995 92.6741 25.9375 92.5342C25.8618 92.3584 25.8218 92.1693 25.8197 91.9778L26.3794 91.8829C26.3804 91.9931 26.3936 92.1029 26.4186 92.2102C26.4347 92.2834 26.4697 92.3511 26.5201 92.4066C26.5676 92.4491 26.6299 92.4714 26.6936 92.4688C26.7264 92.4726 26.7597 92.4673 26.7897 92.4534C26.8197 92.4395 26.8453 92.4177 26.8638 92.3902C26.8945 92.3353 26.9103 92.2732 26.9096 92.2102C26.9115 92.0936 26.8772 91.9792 26.8114 91.8829C26.7383 91.7828 26.6537 91.6916 26.5594 91.6113L26.2321 91.3266C26.119 91.2338 26.0217 91.1232 25.9441 90.9993C25.8653 90.8586 25.8268 90.6989 25.8328 90.5378C25.8253 90.4263 25.8419 90.3146 25.8815 90.2101C25.921 90.1057 25.9825 90.0109 26.0619 89.9323C26.2376 89.786 26.4619 89.7112 26.6903 89.7229C26.8256 89.7175 26.9602 89.7445 27.083 89.8014C27.181 89.8486 27.2637 89.9223 27.322 90.0141C27.3778 90.1013 27.4177 90.1977 27.4398 90.2989C27.4618 90.4002 27.476 90.503 27.4823 90.6065L26.9259 90.6916C26.9227 90.6062 26.9151 90.521 26.903 90.4363C26.8951 90.3731 26.8702 90.3131 26.831 90.2629C26.8108 90.241 26.7858 90.2241 26.758 90.2133C26.7302 90.2025 26.7003 90.1982 26.6707 90.2007C26.6381 90.1982 26.6054 90.2045 26.5761 90.2189C26.5467 90.2333 26.5217 90.2552 26.5037 90.2825C26.4681 90.3383 26.4488 90.4029 26.4481 90.4691C26.4442 90.5673 26.4704 90.6644 26.5234 90.7473C26.5852 90.8306 26.6566 90.9064 26.7361 90.9731L27.0634 91.2545C27.1901 91.371 27.3002 91.5042 27.3907 91.6506C27.4912 91.8147 27.5413 92.0048 27.5347 92.1971C27.5357 92.3388 27.5008 92.4784 27.4332 92.603C27.3671 92.722 27.2683 92.8197 27.1485 92.8844C27.016 92.9522 26.8684 92.9849 26.7197 92.9793Z" fill="#1A202C"/>
<path d="M28.1784 92.9334V90.2431H27.6875V89.7522H29.3239V90.2431H28.833V92.94L28.1784 92.9334Z" fill="#1A202C"/>
<path d="M29.3292 92.9334L29.9445 89.7522H30.6646L31.2766 92.9334H30.6777L30.5631 92.2363H30.0591L29.938 92.9334H29.3292ZM30.118 91.8403H30.4878L30.3078 90.5704L30.118 91.8403Z" fill="#1A202C"/>
<path d="M32.3733 92.9823C32.1927 92.9923 32.0138 92.9441 31.8627 92.8448C31.7322 92.7515 31.6375 92.6164 31.5943 92.4619C31.5362 92.2744 31.5086 92.0788 31.5125 91.8826V90.8189C31.5077 90.6194 31.5353 90.4204 31.5943 90.2298C31.6423 90.0723 31.7443 89.9367 31.8823 89.8469C32.0522 89.7496 32.2465 89.703 32.442 89.7127C32.6289 89.7037 32.8149 89.7432 32.982 89.8272C33.113 89.8988 33.214 90.0149 33.2668 90.1545C33.3294 90.3116 33.3595 90.4797 33.3551 90.6487V90.832H32.7235V90.6094C32.7291 90.5354 32.7291 90.461 32.7235 90.3869C32.7165 90.3302 32.6912 90.2773 32.6515 90.2363C32.5994 90.1956 32.5341 90.1757 32.4682 90.1807C32.4337 90.1776 32.399 90.1818 32.3663 90.1931C32.3336 90.2044 32.3036 90.2225 32.2784 90.2462C32.2385 90.2951 32.2125 90.3539 32.2031 90.4163C32.198 90.4904 32.198 90.5648 32.2031 90.6389V92.0495C32.2016 92.1297 32.2093 92.2099 32.226 92.2884C32.2384 92.3515 32.2691 92.4096 32.3144 92.4553C32.3691 92.4933 32.4342 92.5137 32.5009 92.5137C32.5676 92.5137 32.6327 92.4933 32.6875 92.4553C32.7348 92.4076 32.7677 92.3475 32.7824 92.2819C32.799 92.2011 32.8067 92.1188 32.8053 92.0364V91.7091H32.4551V91.3164H33.3486V92.9528H32.9395L32.9002 92.6681C32.859 92.763 32.7935 92.8454 32.7104 92.907C32.6088 92.9672 32.4908 92.9936 32.3733 92.9823Z" fill="#1A202C"/>
<path d="M33.8059 92.9334V89.7522H35.1903V90.2006H34.4539V91.045H35.0234V91.4966H34.4539V92.4949H35.2002V92.9334H33.8059Z" fill="#1A202C"/>
<path d="M37.3438 92.9334V92.2068H36.3816V91.7159L37.2096 89.7522H37.9166V91.7159H38.2242V92.2068H37.9166V92.9465L37.3438 92.9334ZM36.8562 91.729H37.3438V90.3773L36.8562 91.729Z" fill="#1A202C"/>
<path d="M25.6974 95.8628H41.656" stroke="#1A202C" stroke-width="0.435392" stroke-miterlimit="10"/>
<path d="M25.6974 98.085H41.656" stroke="#1A202C" stroke-width="0.435392" stroke-miterlimit="10"/>
<path d="M25.6974 100.303H41.656" stroke="#1A202C" stroke-width="0.435392" stroke-miterlimit="10"/>
<path d="M25.6974 102.523H41.656" stroke="#1A202C" stroke-width="0.435392" stroke-miterlimit="10"/>
<path d="M77.1326 106.526H58.0844V91.2578H41.3142" stroke="#1A202C" stroke-width="0.435392" stroke-miterlimit="10"/>
<path d="M26.723 72.6513C26.5529 72.6573 26.384 72.6201 26.2321 72.5432C26.1002 72.47 25.9965 72.3548 25.9375 72.216C25.8622 72.04 25.8222 71.851 25.8197 71.6596L26.3794 71.5647C26.3801 71.6749 26.3933 71.7847 26.4186 71.8919C26.4331 71.9657 26.4683 72.0338 26.5201 72.0883C26.5673 72.1317 26.6295 72.1551 26.6936 72.1538C26.7264 72.1576 26.7597 72.1523 26.7897 72.1384C26.8197 72.1245 26.8453 72.1027 26.8637 72.0752C26.8945 72.0203 26.9103 71.9582 26.9096 71.8952C26.9115 71.7786 26.8772 71.6642 26.8114 71.5679C26.7383 71.4678 26.6537 71.3766 26.5594 71.2963L26.2321 71.0083C26.1188 70.9157 26.0215 70.8051 25.9441 70.681C25.8653 70.5391 25.8268 70.3784 25.8328 70.2162C25.8254 70.1053 25.842 69.994 25.8816 69.8901C25.9211 69.7862 25.9826 69.692 26.0619 69.614C26.2368 69.4663 26.4617 69.3913 26.6903 69.4046C26.8256 69.3993 26.9602 69.4262 27.083 69.4831C27.1807 69.5292 27.2635 69.6018 27.322 69.6926C27.3778 69.7809 27.4177 69.8784 27.4398 69.9806C27.462 70.0819 27.4762 70.1847 27.4823 70.2882L26.9259 70.3701C26.9259 70.2752 26.9259 70.1901 26.903 70.1148C26.8945 70.0517 26.8697 69.9919 26.831 69.9413C26.8103 69.92 26.7853 69.9034 26.7576 69.8927C26.73 69.882 26.7003 69.8774 26.6707 69.8791C26.6378 69.8773 26.605 69.8843 26.5757 69.8992C26.5464 69.9142 26.5216 69.9366 26.5037 69.9642C26.4667 70.0193 26.4473 70.0844 26.4481 70.1508C26.4446 70.249 26.4708 70.346 26.5234 70.429C26.5852 70.5123 26.6566 70.5881 26.7361 70.6548L27.0634 70.9363C27.1916 71.0513 27.3019 71.1847 27.3907 71.3323C27.4912 71.4964 27.5413 71.6865 27.5347 71.8789C27.5357 72.0205 27.5008 72.1602 27.4332 72.2847C27.3652 72.4023 27.2669 72.4995 27.1485 72.5662C27.0161 72.63 26.8697 72.6593 26.723 72.6513Z" fill="#1A202C"/>
<path d="M28.1784 72.6085V69.9116H27.6875V69.4272H29.3239V69.9116H28.833V72.6085H28.1784Z" fill="#1A202C"/>
<path d="M29.3292 72.6085L29.9445 69.4272H30.6646L31.2766 72.6085H30.6777L30.5631 71.9146H30.0591L29.938 72.615L29.3292 72.6085ZM30.118 71.5121H30.4878L30.2947 70.2291L30.118 71.5121Z" fill="#1A202C"/>
<path d="M32.3732 72.654C32.193 72.665 32.0141 72.618 31.8626 72.5199C31.7326 72.4246 31.6382 72.2887 31.5942 72.1337C31.5357 71.9463 31.508 71.7506 31.5124 71.5544V70.4907C31.5081 70.2912 31.5357 70.0923 31.5942 69.9016C31.6432 69.7454 31.745 69.6111 31.8822 69.5219C32.0521 69.4246 32.2464 69.3781 32.4419 69.3877C32.6288 69.3788 32.8148 69.4182 32.9819 69.5023C33.1125 69.5743 33.2134 69.6903 33.2667 69.8296C33.3287 69.9868 33.3588 70.1548 33.355 70.3238V70.5103H32.7234V70.2779C32.729 70.205 32.729 70.1316 32.7234 70.0587C32.7158 70.0012 32.6906 69.9475 32.6514 69.9048C32.5989 69.8653 32.5336 69.8466 32.4681 69.8525C32.4336 69.8487 32.3987 69.8527 32.3659 69.864C32.333 69.8753 32.3031 69.8937 32.2783 69.9179C32.2384 69.9669 32.2124 70.0257 32.203 70.0881C32.1978 70.1622 32.1978 70.2366 32.203 70.3107V71.7213C32.2017 71.8015 32.2094 71.8817 32.2259 71.9602C32.2376 72.0226 32.2685 72.0798 32.3143 72.1238C32.3667 72.1665 32.4334 72.1876 32.5008 72.1827C32.5345 72.1854 32.5684 72.1813 32.6004 72.1706C32.6325 72.1599 32.662 72.1429 32.6874 72.1206C32.7356 72.0748 32.7687 72.0154 32.7823 71.9504C32.7989 71.8696 32.8066 71.7873 32.8052 71.7049V71.3776H32.455V70.9849H33.3485V72.6213H32.9394L32.9001 72.3333C32.859 72.4292 32.7936 72.5127 32.7103 72.5755C32.6091 72.6368 32.491 72.6644 32.3732 72.654Z" fill="#1A202C"/>
<path d="M33.8059 72.6085V69.4272H35.1903V69.8756H34.4539V70.72H35.0234V71.1717H34.4539V72.1699H35.2002V72.6085H33.8059Z" fill="#1A202C"/>
<path d="M37.2736 72.6641C37.0974 72.6733 36.9223 72.6312 36.7695 72.543C36.6471 72.4657 36.553 72.3509 36.5012 72.2157C36.4433 72.0553 36.4155 71.8855 36.4193 71.715V71.5873H37.0379V71.6953C37.0374 71.7799 37.0451 71.8643 37.0608 71.9473C37.0718 72.0041 37.0991 72.0564 37.1394 72.0979C37.1607 72.1167 37.1856 72.131 37.2126 72.14C37.2396 72.149 37.2681 72.1525 37.2965 72.1503C37.3536 72.1533 37.4097 72.1346 37.4536 72.0979C37.49 72.0526 37.5138 71.9983 37.5223 71.9408C37.5367 71.8576 37.5432 71.7732 37.5419 71.6888C37.5481 71.5618 37.5245 71.4352 37.4732 71.319C37.4433 71.2719 37.4007 71.2344 37.3503 71.2106C37.2999 71.1869 37.2438 71.1779 37.1885 71.1848H37.0837V70.7364H37.1786C37.2324 70.7426 37.2868 70.7354 37.3371 70.7154C37.3873 70.6954 37.4319 70.6632 37.4667 70.6218C37.525 70.5125 37.5511 70.3887 37.5419 70.2651C37.5475 70.1642 37.5295 70.0634 37.4896 69.9705C37.4694 69.9344 37.4392 69.905 37.4026 69.8858C37.3659 69.8667 37.3245 69.8586 37.2834 69.8625C37.2424 69.8586 37.2012 69.868 37.1658 69.8892C37.1305 69.9104 37.1029 69.9423 37.087 69.9804C37.0527 70.0781 37.036 70.1812 37.0379 70.2847V70.4255H36.4193V70.252C36.4135 70.0889 36.4483 69.9269 36.5208 69.7807C36.5849 69.6538 36.6866 69.5498 36.8121 69.4829C36.9538 69.4108 37.1114 69.3759 37.2703 69.3814C37.4308 69.3769 37.5901 69.4106 37.735 69.4796C37.8599 69.5411 37.962 69.6409 38.0263 69.7643C38.0982 69.9096 38.1331 70.0704 38.1278 70.2324C38.1339 70.3954 38.093 70.5567 38.01 70.6971C37.9473 70.8081 37.8459 70.892 37.7252 70.9328C37.804 70.9585 37.8757 71.0022 37.9347 71.0604C37.9985 71.13 38.0465 71.2127 38.0754 71.3026C38.1139 71.4242 38.1316 71.5515 38.1278 71.679C38.1296 71.8515 38.102 72.0231 38.046 72.1863C37.9949 72.328 37.8997 72.4496 37.7743 72.5332C37.6243 72.626 37.4498 72.6716 37.2736 72.6641Z" fill="#1A202C"/>
<path d="M25.6974 75.5378H41.656" stroke="#1A202C" stroke-width="0.435392" stroke-miterlimit="10"/>
<path d="M25.6974 77.7568H41.656" stroke="#1A202C" stroke-width="0.435392" stroke-miterlimit="10"/>
<path d="M25.6974 79.9792H41.656" stroke="#1A202C" stroke-width="0.435392" stroke-miterlimit="10"/>
<path d="M25.6974 82.1982H41.656" stroke="#1A202C" stroke-width="0.435392" stroke-miterlimit="10"/>
<path d="M77.1326 85.5197H58.0844V70.2485H41.3142" stroke="#1A202C" stroke-width="0.435392" stroke-miterlimit="10"/>
<path d="M26.723 52.3262C26.5529 52.3322 26.384 52.295 26.2321 52.2182C26.0999 52.1453 25.9961 52.03 25.9375 51.8909C25.8622 51.7161 25.8221 51.5281 25.8197 51.3378L26.3794 51.2428C26.3801 51.3531 26.3933 51.4629 26.4186 51.5701C26.4331 51.6439 26.4683 51.712 26.5201 51.7665C26.5673 51.8099 26.6295 51.8333 26.6936 51.832C26.7264 51.8358 26.7597 51.8304 26.7897 51.8166C26.8197 51.8027 26.8453 51.7809 26.8637 51.7534C26.8942 51.6983 26.91 51.6363 26.9096 51.5734C26.9115 51.4568 26.8772 51.3424 26.8114 51.2461C26.7406 51.1432 26.657 51.0497 26.5626 50.9679L26.2354 50.6799C26.1221 50.5873 26.0248 50.4768 25.9473 50.3526C25.8689 50.2106 25.8304 50.05 25.8361 49.8879C25.8287 49.7769 25.8453 49.6657 25.8848 49.5617C25.9244 49.4578 25.9859 49.3636 26.0652 49.2857C26.2401 49.1379 26.465 49.0629 26.6936 49.0762C26.8289 49.0709 26.9635 49.0978 27.0863 49.1548C27.184 49.2008 27.2668 49.2734 27.3252 49.3642C27.3811 49.4526 27.421 49.5501 27.4431 49.6522C27.4652 49.7535 27.4795 49.8564 27.4856 49.9599L26.9292 50.0417C26.926 49.9563 26.9184 49.8711 26.9063 49.7864C26.8978 49.7233 26.873 49.6635 26.8343 49.613C26.814 49.5911 26.7891 49.5741 26.7613 49.5634C26.7335 49.5526 26.7036 49.5483 26.6739 49.5508C26.6411 49.549 26.6083 49.5559 26.579 49.5708C26.5497 49.5858 26.5249 49.6082 26.507 49.6359C26.47 49.691 26.4506 49.756 26.4514 49.8224C26.4479 49.9196 26.4742 50.0155 26.5266 50.0973C26.5885 50.1807 26.6599 50.2565 26.7394 50.3232L27.0667 50.6079C27.194 50.7225 27.3042 50.8547 27.394 51.0007C27.4939 51.1663 27.5439 51.3572 27.538 51.5505C27.539 51.6911 27.5041 51.8297 27.4365 51.953C27.3696 52.0724 27.2711 52.1709 27.1518 52.2378C27.0187 52.3033 26.8711 52.3337 26.723 52.3262Z" fill="#1A202C"/>
<path d="M28.1784 52.2777V49.5776H27.6875V49.103H29.3239V49.5841H28.833V52.2777H28.1784Z" fill="#1A202C"/>
<path d="M29.3292 52.2769L29.9445 49.0957H30.6646L31.2766 52.2769H30.6777L30.5631 51.5765H30.0591L29.938 52.2769H29.3292ZM30.118 51.1805H30.4878L30.2947 49.8976L30.118 51.1805Z" fill="#1A202C"/>
<path d="M32.3733 52.3295C32.1933 52.3389 32.0148 52.292 31.8627 52.1953C31.7327 52.1001 31.6383 51.9641 31.5943 51.8091C31.5362 51.6216 31.5086 51.426 31.5125 51.2298V50.1661C31.5077 49.9666 31.5353 49.7677 31.5943 49.577C31.6432 49.4208 31.7451 49.2866 31.8823 49.1974C32.0513 49.0977 32.2462 49.051 32.442 49.0632C32.629 49.0525 32.8154 49.0921 32.982 49.1777C33.1126 49.2498 33.2135 49.3657 33.2668 49.505C33.3292 49.6621 33.3592 49.8302 33.3551 49.9992V50.1858H32.7235V49.9599C32.7289 49.8859 32.7289 49.8115 32.7235 49.7374C32.7159 49.6809 32.6907 49.6282 32.6515 49.5868C32.5994 49.5461 32.5341 49.5263 32.4682 49.5312C32.4334 49.5279 32.3984 49.5323 32.3655 49.5442C32.3327 49.5561 32.3029 49.5751 32.2784 49.5999C32.2373 49.6482 32.2112 49.7073 32.2031 49.7701C32.1979 49.8442 32.1979 49.9186 32.2031 49.9927V51.4033C32.2018 51.4835 32.2095 51.5636 32.226 51.6422C32.239 51.7041 32.2697 51.761 32.3144 51.8058C32.3668 51.8485 32.4335 51.8696 32.5009 51.8647C32.5346 51.8674 32.5685 51.8633 32.6005 51.8526C32.6325 51.8419 32.6621 51.8249 32.6875 51.8026C32.7347 51.7561 32.7676 51.697 32.7824 51.6324C32.799 51.5516 32.8067 51.4693 32.8053 51.3869V51.0596H32.4551V50.6407H33.3486V52.2771H32.9395L32.9002 51.9891C32.86 52.0846 32.7943 52.1673 32.7104 52.228C32.6126 52.2988 32.4938 52.3345 32.3733 52.3295Z" fill="#1A202C"/>
<path d="M33.8059 52.2777V49.103H35.1903V49.5514H34.4539V50.3958H35.0234V50.8475H34.4539V51.8293H35.2002V52.2777H33.8059Z" fill="#1A202C"/>
<path d="M36.43 52.2774V51.8486L37.2057 50.6573L37.3693 50.402C37.4186 50.3232 37.4602 50.2399 37.4937 50.1533C37.5266 50.0665 37.5433 49.9744 37.5428 49.8816C37.5477 49.7989 37.5271 49.7167 37.4839 49.646C37.4641 49.62 37.4383 49.5992 37.4086 49.5855C37.3789 49.5718 37.3463 49.5656 37.3137 49.5674C37.2808 49.5647 37.2476 49.5692 37.2165 49.5805C37.1855 49.5918 37.1572 49.6096 37.1337 49.6329C37.0891 49.68 37.0595 49.7392 37.0486 49.8031C37.0321 49.8794 37.0244 49.9574 37.0257 50.0355V50.1827H36.43V50.0256C36.4269 49.8546 36.4569 49.6845 36.5184 49.5249C36.5733 49.3833 36.6719 49.2629 36.7999 49.1812C36.9505 49.0903 37.125 49.047 37.3006 49.0569C37.4153 49.0481 37.5306 49.0631 37.6393 49.1008C37.7479 49.1385 37.8477 49.1982 37.9323 49.2762C38.0813 49.4453 38.1578 49.6664 38.145 49.8915C38.1465 50.0129 38.1265 50.1337 38.0861 50.2482C38.0466 50.363 37.9939 50.4729 37.929 50.5755C37.8668 50.6769 37.7981 50.7817 37.7228 50.8864L37.1108 51.8094H38.0567V52.2774H36.43Z" fill="#1A202C"/>
<path d="M25.6974 55.2131H41.656" stroke="#1A202C" stroke-width="0.435392" stroke-miterlimit="10"/>
<path d="M25.6974 57.4326H41.656" stroke="#1A202C" stroke-width="0.435392" stroke-miterlimit="10"/>
<path d="M25.6974 59.6511H41.656" stroke="#1A202C" stroke-width="0.435392" stroke-miterlimit="10"/>
<path d="M25.6974 61.8733H41.656" stroke="#1A202C" stroke-width="0.435392" stroke-miterlimit="10"/>
<path d="M77.1326 64.5141H58.0844V49.2429H41.3142" stroke="#1A202C" stroke-width="0.435392" stroke-miterlimit="10"/>
<path d="M26.723 28.3856C26.5529 28.3916 26.384 28.3544 26.2321 28.2776C26.1002 28.2043 25.9965 28.0891 25.9375 27.9503C25.8622 27.7743 25.8222 27.5853 25.8197 27.3939L26.3794 27.299C26.3801 27.4092 26.3933 27.519 26.4186 27.6263C26.4331 27.7 26.4683 27.7681 26.5201 27.8226C26.5673 27.866 26.6295 27.8895 26.6936 27.8881C26.7264 27.8919 26.7597 27.8866 26.7897 27.8727C26.8197 27.8589 26.8453 27.837 26.8637 27.8096C26.8945 27.7546 26.9103 27.6925 26.9096 27.6295C26.9115 27.5129 26.8772 27.3985 26.8114 27.3023C26.7383 27.2021 26.6537 27.111 26.5594 27.0306L26.2354 26.7491C26.1221 26.6566 26.0248 26.546 25.9473 26.4219C25.8686 26.28 25.8301 26.1193 25.8361 25.9571C25.8287 25.8462 25.8453 25.7349 25.8848 25.631C25.9244 25.5271 25.9859 25.4329 26.0652 25.3549C26.2334 25.1969 26.4562 25.1101 26.687 25.1127C26.8223 25.1074 26.9569 25.1343 27.0798 25.1913C27.1775 25.2373 27.2603 25.3099 27.3187 25.4007C27.3746 25.4891 27.4144 25.5866 27.4365 25.6887C27.4587 25.79 27.4729 25.8929 27.4791 25.9964L26.9227 26.0946C26.9227 25.9997 26.9227 25.9146 26.8998 25.8393C26.8912 25.7762 26.8664 25.7164 26.8277 25.6658C26.8071 25.6445 26.782 25.628 26.7544 25.6172C26.7267 25.6065 26.697 25.6019 26.6674 25.6036C26.6345 25.6019 26.6018 25.6088 26.5725 25.6237C26.5431 25.6387 26.5183 25.6611 26.5005 25.6887C26.4634 25.7438 26.444 25.8089 26.4448 25.8753C26.4413 25.9735 26.4676 26.0705 26.5201 26.1535C26.5819 26.2368 26.6533 26.3126 26.7328 26.3793L27.0601 26.6608C27.1883 26.7758 27.2986 26.9092 27.3874 27.0568C27.4907 27.2167 27.5453 27.4032 27.5445 27.5935C27.5455 27.7352 27.5106 27.8749 27.4431 27.9994C27.375 28.117 27.2767 28.2142 27.1583 28.2808C27.0248 28.3531 26.8748 28.3892 26.723 28.3856Z" fill="#1A202C"/>
<path d="M28.1784 28.3397V25.6428H27.6875V25.1584H29.3239V25.6428H28.833V28.3397H28.1784Z" fill="#1A202C"/>
<path d="M29.3292 28.3397L29.9445 25.1584H30.6646L31.2766 28.3397H30.6777L30.5631 27.6393H30.0591L29.938 28.3397H29.3292ZM30.118 27.2433H30.4878L30.2947 25.9603L30.118 27.2433Z" fill="#1A202C"/>
<path d="M32.3732 28.3853C32.193 28.3963 32.0141 28.3492 31.8626 28.2511C31.7326 28.1558 31.6382 28.0199 31.5942 27.8649C31.5357 27.6775 31.508 27.4819 31.5124 27.2856V26.2219C31.5081 26.0224 31.5357 25.8235 31.5942 25.6328C31.6432 25.4766 31.745 25.3424 31.8822 25.2532C32.0552 25.1511 32.2544 25.1022 32.455 25.1124C32.6419 25.1035 32.8279 25.1429 32.995 25.227C33.1256 25.299 33.2265 25.415 33.2798 25.5543C33.3418 25.7115 33.3719 25.8795 33.3681 26.0485V26.235H32.7234V26.0092C32.729 25.9362 32.729 25.8629 32.7234 25.7899C32.7158 25.7324 32.6906 25.6787 32.6514 25.6361C32.5989 25.5965 32.5336 25.5778 32.4681 25.5837C32.4336 25.58 32.3987 25.5839 32.3659 25.5952C32.333 25.6065 32.3031 25.6249 32.2783 25.6492C32.2384 25.6982 32.2124 25.7569 32.203 25.8194C32.1978 25.8935 32.1978 25.9678 32.203 26.0419V27.4525C32.2017 27.5328 32.2094 27.6129 32.2259 27.6914C32.2376 27.7539 32.2685 27.8111 32.3143 27.8551C32.3667 27.8978 32.4334 27.9188 32.5008 27.914C32.5345 27.9167 32.5684 27.9125 32.6004 27.9018C32.6325 27.8912 32.662 27.8741 32.6874 27.8518C32.7346 27.8053 32.7676 27.7462 32.7823 27.6816C32.7913 27.6 32.7913 27.5177 32.7823 27.4361V27.1089H32.455V26.7161H33.3485V28.3525H32.9394L32.9001 28.058C32.859 28.1539 32.7936 28.2374 32.7103 28.3002C32.6099 28.3638 32.4918 28.3936 32.3732 28.3853Z" fill="#1A202C"/>
<path d="M33.8059 28.3397V25.1584H35.1903V25.6068H34.4539V26.4512H35.0234V26.9029H34.4539V27.8847H35.2002V28.3233L33.8059 28.3397Z" fill="#1A202C"/>
<path d="M36.8176 28.3397V25.7868L36.7227 25.8294L36.5917 25.8752L36.4576 25.921L36.3594 25.9603V25.5119L36.487 25.4497L36.6572 25.3614C36.7166 25.3322 36.7735 25.2982 36.8274 25.2599C36.8731 25.2317 36.915 25.1976 36.9518 25.1584H37.4231V28.3397H36.8176Z" fill="#1A202C"/>
<path d="M25.6974 31.2686H41.656" stroke="#1A202C" stroke-width="0.435392" stroke-miterlimit="10"/>
<path d="M25.6974 33.4878H41.656" stroke="#1A202C" stroke-width="0.435392" stroke-miterlimit="10"/>
<path d="M25.6974 35.71H41.656" stroke="#1A202C" stroke-width="0.435392" stroke-miterlimit="10"/>
<path d="M25.6974 37.929H41.656" stroke="#1A202C" stroke-width="0.435392" stroke-miterlimit="10"/>
<path d="M77.1326 42.8054H58.0844V26.8306H41.3142" stroke="#1A202C" stroke-width="0.435392" stroke-miterlimit="10"/>
<path d="M139.326 151.487C138.963 152.219 138.465 152.876 137.86 153.425C136.97 154.158 135.346 155.365 134.98 155.68C134.613 155.994 134.652 156.308 135.922 156.662C137.192 157.015 139.012 157.028 139.954 156.662C140.897 156.295 141.791 156.334 142.262 156.138C142.733 155.941 142.995 155.719 143.047 155.195C143.1 154.672 142.628 151.445 142.628 151.445L139.326 151.487Z" fill="#2C5282" stroke="#1A202C" stroke-width="0.435392" stroke-linecap="round" stroke-linejoin="round"/>
<path d="M143.041 154.836C142.416 155.02 141.806 155.25 141.215 155.523C139.693 156.204 139.431 156.413 137.546 156.413C136.656 156.44 135.786 156.147 135.094 155.585L134.98 155.68C134.613 156.008 134.652 156.309 135.922 156.662C137.192 157.016 139.012 157.029 139.954 156.662C140.897 156.296 141.791 156.335 142.262 156.139C142.733 155.942 142.995 155.72 143.047 155.196C143.052 155.076 143.05 154.956 143.041 154.836Z" fill="white" stroke="#1A202C" stroke-width="0.435392" stroke-linecap="round" stroke-linejoin="round"/>
<path d="M145.46 152.064C145.46 152.064 144.518 155.01 144.099 155.733C143.68 156.457 142.737 157.199 142.789 157.723C142.842 158.247 143.771 158.404 145.408 158.404C147.044 158.404 148.134 158.077 148.605 157.252C149.077 156.427 149.129 156.204 149.391 155.681C149.653 155.157 149.234 152.012 149.234 152.012C149.234 152.012 145.931 152.117 145.46 152.064Z" fill="#2C5282" stroke="#1A202C" stroke-width="0.435392" stroke-linecap="round" stroke-linejoin="round"/>
<path d="M148.604 157.251C149.075 156.413 149.127 156.204 149.389 155.68C149.477 155.342 149.504 154.991 149.468 154.643C149.275 154.97 149.055 155.389 148.813 155.837C148.185 156.989 147.831 157.513 145.668 157.618C144.726 157.698 143.778 157.619 142.863 157.385C142.81 157.486 142.784 157.599 142.788 157.713C142.84 158.236 143.77 158.394 145.406 158.394C147.042 158.394 148.132 158.089 148.604 157.251Z" fill="white" stroke="#1A202C" stroke-width="0.435392" stroke-linecap="round" stroke-linejoin="round"/>
<path d="M134.572 115.654C134.572 115.654 134.31 120.841 134.519 124.818C134.729 128.794 136.928 136.345 136.928 136.345C136.928 136.345 137.975 142.736 138.29 144.569C138.604 146.402 139.271 150.542 139.271 150.542L142.836 150.333V144.311C142.836 143.211 142.678 136.295 142.678 136.295C142.678 136.295 144.511 145.725 144.668 146.769C144.826 147.813 145.192 150.909 145.192 150.909C145.787 151.101 146.402 151.224 147.025 151.275C147.706 151.275 149.385 150.804 149.385 150.804C149.385 150.804 150.013 144.517 149.961 142.622C149.908 140.727 149.07 137.906 148.809 137.058C148.547 136.21 147.758 133.759 147.827 133.55C147.895 133.34 148.458 126.424 148.458 125.007V121.26L147.355 115.696L146.884 114.858C146.884 114.858 140.754 115.906 137.979 115.186C135.203 114.465 134.47 114.243 134.47 114.243L134.572 115.654Z" fill="#1A202C" stroke="#1A202C" stroke-width="0.435392" stroke-linecap="round" stroke-linejoin="round"/>
<path d="M138.333 122.674L140.27 124.14C140.27 124.14 141.426 132.05 142.107 134.515" stroke="#285E61" stroke-width="0.435392" stroke-linecap="round" stroke-linejoin="round"/>
<path d="M138.703 149.027C138.703 149.027 140.589 148.975 141.901 148.975C143.213 148.975 143.42 149.027 143.42 149.341C143.42 149.655 143.577 151.541 143.42 151.75C143.262 151.959 141.744 151.959 140.958 151.959C140.173 151.959 139.122 152.117 139.018 151.632C138.96 151.139 138.873 150.649 138.756 150.166C138.599 149.76 138.389 149.394 138.703 149.027Z" fill="#2C7A7B" stroke="#1A202C" stroke-width="0.435392" stroke-linecap="round" stroke-linejoin="round"/>
<path d="M144.712 149.393C144.627 149.646 144.591 149.913 144.607 150.179C144.692 150.769 144.745 151.363 144.764 151.959C144.764 152.431 144.659 152.326 145.746 152.692C146.833 153.059 149.205 152.692 149.467 152.365C149.729 152.038 149.729 150.375 149.729 150.009C149.729 149.642 149.624 149.485 149.258 149.59C148.891 149.695 147.003 150.009 146.312 149.852C145.918 149.763 145.533 149.64 145.16 149.485C145.16 149.485 144.826 149.079 144.712 149.393Z" fill="#2C7A7B" stroke="#1A202C" stroke-width="0.435392" stroke-linecap="round" stroke-linejoin="round"/>
<path d="M145.249 92.7597L143.259 91.7124L138.281 93.0739C138.281 93.0739 136.867 95.5351 136.605 97.633C136.343 99.7309 135.977 110.309 135.977 112.25C135.977 114.19 135.872 115.653 135.872 115.653C135.872 115.653 137.181 116.596 139.472 116.701C140.905 116.785 142.343 116.75 143.77 116.596C144.293 116.544 146.021 115.549 146.021 115.549C146.021 115.549 145.694 105.596 145.694 104.179C145.694 102.762 146.676 96.0588 146.899 95.1162C147.121 94.1736 145.249 92.7597 145.249 92.7597Z" fill="#2C7A7B" stroke="#1A202C" stroke-width="0.435392" stroke-linecap="round" stroke-linejoin="round"/>
<path d="M142.242 93.6924C142.609 94.6971 141.938 95.8623 140.747 96.3107C139.555 96.759 138.292 96.2845 137.925 95.2797C137.559 94.275 138.23 93.1098 139.421 92.6614C140.612 92.2131 141.876 92.6876 142.242 93.6924Z" fill="white" stroke="#1A202C" stroke-width="0.435392" stroke-linecap="round" stroke-linejoin="round"/>
<path d="M139.434 94.3827C139.434 94.3827 141.374 96.5297 141.532 96.4249C141.689 96.3202 144.516 92.4451 144.516 92.4451L143.783 91.2407L139.434 94.3827Z" fill="white" stroke="#1A202C" stroke-width="0.435392" stroke-linecap="round" stroke-linejoin="round"/>
<path d="M139.277 92.0264C139.117 92.3713 138.924 92.7001 138.701 93.0082C138.439 93.3355 137.758 95.7312 137.758 95.7312L139.434 94.3697C139.434 94.3697 139.539 92.8511 139.591 92.4846C139.6 92.3835 139.574 92.2825 139.517 92.1988C139.459 92.1152 139.375 92.0542 139.277 92.0264Z" fill="white" stroke="#1A202C" stroke-width="0.435392" stroke-linecap="round" stroke-linejoin="round"/>
<path d="M138.959 89.3C139.104 89.6563 139.213 90.0256 139.287 90.403C139.287 90.6648 139.077 94.5399 139.444 94.3828C139.81 94.2257 143.636 91.6598 143.793 91.2408C143.95 90.8219 143.689 88.2953 143.793 87.6767C143.898 87.0581 144.121 86.1057 144.121 86.1057C144.121 86.1057 142.602 87.6767 141.398 88.3574C140.631 88.7799 139.811 89.097 138.959 89.3Z" fill="#F7FAFC" stroke="#1A202C" stroke-width="0.435392" stroke-linecap="round" stroke-linejoin="round"/>
<path d="M139.279 90.4031C139.279 90.5308 139.23 91.5257 139.221 92.4912L142.68 88.9565L139.011 89.4278C139.136 89.7421 139.226 90.0692 139.279 90.4031Z" fill="#1A202C" stroke="#1A202C" stroke-width="0.435392" stroke-linecap="round" stroke-linejoin="round"/>
<path d="M148.396 109.314L149.443 105.491C149.443 105.491 149.77 100.402 150.3 98.2219C150.604 96.9503 151.249 95.7857 152.166 94.8542C151.904 94.3829 148.657 93.4927 147.659 93.1261C146.661 92.7595 144.151 91.8792 144.151 91.8792C144.151 91.8792 142.37 98.6376 142.266 101.518C142.161 104.398 142.004 106.182 142.423 108.957C142.842 111.732 140.593 118.35 141.693 120.029C142.792 121.708 145.028 121.665 146.052 121.881C148.016 122.317 150.687 121.158 150.739 120.792C150.791 120.425 149.862 118.501 149.076 115.139C148.61 113.233 148.381 111.276 148.396 109.314Z" fill="#2C5282" stroke="#1A202C" stroke-width="0.435392" stroke-linecap="round" stroke-linejoin="round"/>
<path d="M147.646 114.839L143.244 114.302L143.028 115.699L147.754 116.56" stroke="#1A202C" stroke-width="0.435392" stroke-linecap="round" stroke-linejoin="round"/>
<path d="M134.004 95.0959C133.373 95.2301 132.814 95.5925 132.433 96.1138C131.877 96.9451 127.524 108.135 127.439 108.783C127.354 109.431 127.9 110.446 128.748 110.815C129.596 111.185 129.857 111.925 130.136 111.47C130.414 111.015 133.189 107.215 133.189 107.215L134.39 96.4902L134.004 95.0959Z" fill="#2C5282" stroke="#1A202C" stroke-width="0.435392" stroke-linecap="round" stroke-linejoin="round"/>
<path d="M129.567 105.269C129.567 105.269 126.978 108.505 126.883 109.245C126.788 109.985 126.7 110.816 127.07 111.372C127.439 111.929 129.102 112.295 129.75 112.027C130.398 111.759 131.599 108.329 131.599 108.329L129.567 105.269Z" fill="#2C5282" stroke="#1A202C" stroke-width="0.435392" stroke-linecap="round" stroke-linejoin="round"/>
<path d="M139.121 92.2358C138.488 93.6553 137.98 95.1271 137.602 96.6346C137.045 99.486 136.716 102.378 136.62 105.281C136.568 107.795 136.201 118.324 136.149 119.217C136.097 120.111 135.416 120.579 134.421 120.788C133.691 120.907 132.948 120.907 132.218 120.788C132.218 120.788 133.318 113.297 133.37 112.092C133.423 110.888 133.423 109.104 133.423 108.109C133.423 107.114 132.935 102.025 132.896 100.83C132.856 99.6358 133.848 95.3581 134.005 95.0963C134.162 94.8345 136.869 93.7544 137.078 93.5973C137.288 93.4403 138.545 92.6548 139.121 92.2358Z" fill="#2C5282" stroke="#1A202C" stroke-width="0.435392" stroke-linecap="round" stroke-linejoin="round"/>
<path d="M133.356 115.27L135.182 115.054L135.506 114.089L133.572 114.301" stroke="#1A202C" stroke-width="0.435392" stroke-linecap="round" stroke-linejoin="round"/>
<path d="M143.362 109.732C143.31 110.675 143.31 111.199 143.31 111.199" stroke="#1A202C" stroke-width="0.435392" stroke-linecap="round" stroke-linejoin="round"/>
<path d="M145.735 94.52C145.751 96.2874 145.774 98.8369 145.774 98.8369L143.836 99.7337L144.988 101.776C144.988 101.776 144.029 106.06 143.584 108.384" stroke="#1A202C" stroke-width="0.435392" stroke-linecap="round" stroke-linejoin="round"/>
<path d="M145.723 92.8616C145.723 92.9008 145.723 93.3198 145.723 93.9187" stroke="#1A202C" stroke-width="0.435392" stroke-linecap="round" stroke-linejoin="round"/>
<path d="M135.622 107.684C135.19 105.147 134.46 100.984 134.46 100.984L136.188 99.1512L134.984 98.2087C134.984 98.2087 135.35 97.4755 135.665 96.8995C135.979 96.3235 137.34 93.8623 137.34 93.8623" stroke="#1A202C" stroke-width="0.435392" stroke-linecap="round" stroke-linejoin="round"/>
<path d="M135.88 109.225C135.847 109.013 135.798 108.718 135.739 108.365" stroke="#1A202C" stroke-width="0.435392" stroke-linecap="round" stroke-linejoin="round"/>
<path d="M137.238 83.1505C137.074 83.1505 135.032 83.2815 134.924 81.6254C134.875 81.1809 134.982 80.7333 135.227 80.3591C135.472 79.9848 135.839 79.7071 136.266 79.5733C136.266 79.5733 134.989 78.1725 136.632 77.4034C138.275 76.6343 140.232 77.0369 140.232 77.0369C140.232 77.0369 140.043 75.7604 141.558 76.1368C143.073 76.5132 144.107 78.2282 144.15 78.3951C144.193 78.562 146.29 79.2526 146.988 80.3424C147.685 81.4323 147.479 82.8429 146.922 83.7953C146.385 84.632 145.8 85.4364 145.168 86.2041C144.975 86.3556 144.744 86.4524 144.501 86.4847C144.257 86.5169 144.01 86.4833 143.783 86.3874C142.982 86.0601 142.451 85.8048 142.494 85.147C142.536 84.4891 142.327 82.7218 142.121 82.4894C141.915 82.2571 141.43 82.1622 140.429 82.3749C139.427 82.5876 137.238 83.1505 137.238 83.1505Z" fill="#1A202C" stroke="#1A202C" stroke-width="0.435392" stroke-linecap="round" stroke-linejoin="round"/>
<path d="M137.216 82.6566C137.18 83.3157 137.1 83.9717 136.977 84.6203C136.649 86.1268 136.401 87.6497 136.234 89.1827C136.169 90.1645 137.216 90.95 137.76 90.986C138.303 91.022 139.219 90.5344 140.051 90.3707C140.882 90.2071 143.13 89.4216 143.497 88.8979C143.864 88.3743 143.981 88.2172 143.981 88.2172C143.981 88.2172 145.703 87.8899 145.961 86.4826C146.22 85.0752 145.307 84.8985 144.62 85.2389C144.251 85.4165 143.904 85.6362 143.585 85.8935C143.585 85.8935 143.094 85.8607 143.176 85.4811C143.246 85.2511 143.298 85.0157 143.33 84.7774C143.35 84.5058 143.196 84.329 143.019 83.7137C142.842 83.0984 142.728 83.1475 142.98 82.6141C143.232 82.0806 143.739 81.1282 143.739 81.1282C143.739 81.1282 139.01 81.2951 137.216 82.6566Z" fill="#F7FAFC" stroke="#1A202C" stroke-width="0.435392" stroke-linecap="round" stroke-linejoin="round"/>
<path d="M139.519 83.0192C139.981 82.9638 140.449 83.0506 140.861 83.2679" stroke="#1A202C" stroke-width="0.435392" stroke-linecap="round" stroke-linejoin="round"/>
<path d="M138.113 82.9281C137.981 82.8629 137.837 82.8265 137.69 82.8214C137.544 82.8163 137.398 82.8427 137.262 82.8986" stroke="#1A202C" stroke-width="0.435392" stroke-linecap="round" stroke-linejoin="round"/>
<path d="M137.54 87.6739C137.54 87.6739 138.23 88.0503 139.15 87.3958" stroke="#1A202C" stroke-width="0.435392" stroke-linecap="round" stroke-linejoin="round"/>
<path d="M140.25 84.1191C140.248 84.1621 140.237 84.2042 140.218 84.2429C140.199 84.2817 140.173 84.3164 140.141 84.345C140.108 84.3735 140.071 84.3955 140.03 84.4095C139.989 84.4235 139.946 84.4294 139.903 84.4267C139.86 84.424 139.818 84.4127 139.78 84.3937C139.741 84.3747 139.706 84.3482 139.678 84.3158C139.65 84.2835 139.628 84.2458 139.614 84.2051C139.6 84.1643 139.594 84.1212 139.597 84.0782C139.6 84.0352 139.611 83.9932 139.63 83.9546C139.649 83.9159 139.676 83.8814 139.708 83.853C139.741 83.8246 139.778 83.8028 139.819 83.7889C139.86 83.7751 139.903 83.7694 139.946 83.7722C140.032 83.7781 140.113 83.8178 140.17 83.8829C140.227 83.9479 140.256 84.0328 140.25 84.1191Z" fill="#1A202C"/>
<path d="M137.844 83.7951C137.841 83.8495 137.822 83.9016 137.789 83.9449C137.756 83.9882 137.71 84.0207 137.659 84.0383C137.607 84.0559 137.552 84.0578 137.499 84.0437C137.446 84.0296 137.399 84.0002 137.363 83.9593C137.327 83.9183 137.305 83.8676 137.297 83.8136C137.29 83.7596 137.3 83.7047 137.324 83.656C137.348 83.6072 137.386 83.5667 137.433 83.5396C137.481 83.5125 137.535 83.5001 137.589 83.5038C137.625 83.5059 137.66 83.5151 137.693 83.5309C137.725 83.5468 137.754 83.5689 137.778 83.596C137.802 83.6231 137.82 83.6547 137.831 83.6889C137.843 83.723 137.847 83.7592 137.844 83.7951Z" fill="#1A202C"/>
<path d="M138.313 83.8738C138.313 83.8738 136.147 85.6051 136.323 86.2204C136.5 86.8357 138.317 86.7932 138.317 86.7932" fill="#F7FAFC"/>
<path d="M138.313 83.8738C138.313 83.8738 136.147 85.6051 136.323 86.2204C136.5 86.8357 138.317 86.7932 138.317 86.7932" stroke="#1A202C" stroke-width="0.435392" stroke-linecap="round" stroke-linejoin="round"/>
<path d="M130.676 102.123L131.878 101.013C131.878 101.013 133.265 101.668 133.187 102.322C133.108 102.977 130.676 102.123 130.676 102.123Z" fill="#F7FAFC" stroke="#1A202C" stroke-width="0.435392" stroke-linecap="round" stroke-linejoin="round"/>
<path d="M130.117 102.64L131.321 101.53C131.321 101.53 132.709 102.185 132.614 102.839C132.519 103.494 130.117 102.64 130.117 102.64Z" fill="#F7FAFC" stroke="#1A202C" stroke-width="0.435392" stroke-linecap="round" stroke-linejoin="round"/>
<path d="M134.679 102.306C134.679 102.306 134.797 101.324 135.235 101.324C135.674 101.324 136.07 101.602 135.952 102.12C135.854 102.491 135.721 102.851 135.553 103.196L134.679 102.306Z" fill="#F7FAFC" stroke="#1A202C" stroke-width="0.435392" stroke-linecap="round" stroke-linejoin="round"/>
<path d="M131.877 101.014C131.877 101.014 131.877 100.552 132.895 100.831C133.913 101.109 134.466 102.218 134.188 102.68C133.91 103.141 133.173 102.31 133.173 102.31C133.173 102.31 132.803 101.292 131.877 101.014Z" fill="#F7FAFC" stroke="#1A202C" stroke-width="0.435392" stroke-linecap="round" stroke-linejoin="round"/>
<path d="M126.778 101.907L131.245 111.935L139.31 112.586L135.497 102.342L126.778 101.907Z" fill="#1A202C" stroke="#1A202C" stroke-width="0.435392" stroke-linecap="round" stroke-linejoin="round"/>
<path d="M150.191 94.0068C150.191 94.0068 148.495 94.681 148.165 95.8756C147.834 97.0702 148.165 108.414 148.165 108.414L140.49 108.044L140.212 111.556L149.657 113.961C149.657 113.961 151.032 114.256 151.706 113.372C152.38 112.489 153.313 99.9536 153.428 98.615C153.542 97.2764 153.637 95.3683 152.479 94.7498C151.788 94.3201 151.002 94.0651 150.191 94.0068Z" fill="#2C5282" stroke="#1A202C" stroke-width="0.435392" stroke-linecap="round" stroke-linejoin="round"/>
<path d="M148.15 108.414C148.15 108.414 149.577 108.715 150.33 109.36" stroke="#1A202C" stroke-width="0.435392" stroke-linecap="round" stroke-linejoin="round"/>
<path d="M140.483 108.044C140.483 108.044 140.113 108.227 139.095 107.487C138.554 107.067 137.92 106.782 137.246 106.656L137.429 107.674C137.429 107.674 134.379 108.044 134.101 108.328C133.823 108.613 133.548 109.346 134.287 109.638C135.027 109.929 135.21 109.638 135.488 110.099C135.98 110.708 136.615 111.185 137.338 111.487C137.894 111.67 140.283 110.747 140.283 110.747L140.483 108.044Z" fill="#F7FAFC" stroke="#1A202C" stroke-width="0.435392" stroke-linecap="round" stroke-linejoin="round"/>
</svg>
