                    <svg width="248" height="248" viewBox="0 0 248 248" fill="none" xmlns="http://www.w3.org/2000/svg">
                        <rect width="248" height="248" rx="8" fill="white"/>
                        <g clip-path="url(#clip0_6036_25089)">
                        <g opacity="0.7">
                        <mask id="mask0_6036_25089" style="mask-type:alpha" maskUnits="userSpaceOnUse" x="0" y="0" width="248" height="248">
                        <rect width="248" height="248" rx="8" fill="white"/>
                        </mask>
                        <g mask="url(#mask0_6036_25089)">
                        <circle cx="128" cy="128" r="127.5" transform="matrix(0.258819 0.965926 0.965926 -0.258819 40.6641 -27.5351)" stroke="black" stroke-opacity="0.16"/>
                        <circle cx="163.5" cy="163.5" r="163" transform="matrix(0.258819 0.965926 0.965926 -0.258819 23 -39.3665)" stroke="black" stroke-opacity="0.16"/>
                        <circle cx="101.5" cy="101.5" r="101" transform="matrix(0.258819 0.965926 0.965926 -0.258819 67.1406 -25.3123)" stroke="black" stroke-opacity="0.16"/>
                        <circle cx="80" cy="80" r="79.5" transform="matrix(0.258819 0.965926 0.965926 -0.258819 108.727 -47.8431)" stroke="black" stroke-opacity="0.16"/>
                        </g>
                        </g>
                        </g>
                        <path d="M17.233 223V212.818H20.7926C21.5019 212.818 22.0869 212.941 22.5476 213.186C23.0083 213.428 23.3513 213.755 23.5767 214.166C23.8021 214.573 23.9148 215.026 23.9148 215.523C23.9148 215.96 23.8369 216.322 23.6811 216.607C23.5286 216.892 23.3265 217.117 23.0746 217.283C22.826 217.448 22.5559 217.571 22.2642 217.651V217.75C22.5758 217.77 22.889 217.879 23.2038 218.078C23.5187 218.277 23.7822 218.562 23.9943 218.933C24.2064 219.305 24.3125 219.759 24.3125 220.296C24.3125 220.806 24.1965 221.265 23.9645 221.673C23.7325 222.08 23.3662 222.403 22.8658 222.642C22.3653 222.881 21.714 223 20.9119 223H17.233ZM18.4659 221.906H20.9119C21.7173 221.906 22.2891 221.751 22.6271 221.439C22.9685 221.124 23.1392 220.743 23.1392 220.296C23.1392 219.951 23.0514 219.633 22.8757 219.341C22.7 219.046 22.4498 218.811 22.125 218.635C21.8002 218.456 21.4157 218.367 20.9716 218.367H18.4659V221.906ZM18.4659 217.293H20.7528C21.1241 217.293 21.4588 217.22 21.7571 217.074C22.0587 216.928 22.2973 216.723 22.473 216.457C22.652 216.192 22.7415 215.881 22.7415 215.523C22.7415 215.075 22.5857 214.696 22.2741 214.384C21.9626 214.069 21.4688 213.912 20.7926 213.912H18.4659V217.293ZM25.4634 212.818H26.8754L29.6992 217.571H29.8185L32.6424 212.818H34.0543L30.3754 218.804V223H29.1424V218.804L25.4634 212.818ZM39.0297 213.912V212.818H46.666V213.912H43.4643V223H42.2314V213.912H39.0297ZM49.5831 218.406V223H48.4098V212.818H49.5831V216.557H49.6825C49.8615 216.162 50.13 215.849 50.4879 215.617C50.8492 215.382 51.3298 215.264 51.9297 215.264C52.45 215.264 52.9058 215.369 53.2969 215.577C53.688 215.783 53.9912 216.099 54.2067 216.527C54.4254 216.951 54.5348 217.492 54.5348 218.148V223H53.3615V218.227C53.3615 217.621 53.2041 217.152 52.8892 216.82C52.5777 216.486 52.1451 216.318 51.5916 216.318C51.2071 216.318 50.8625 216.399 50.5575 216.562C50.2559 216.724 50.0173 216.961 49.8416 217.273C49.6693 217.584 49.5831 217.962 49.5831 218.406ZM56.6813 223V215.364H57.8546V223H56.6813ZM57.2779 214.091C57.0492 214.091 56.852 214.013 56.6863 213.857C56.5239 213.702 56.4426 213.514 56.4426 213.296C56.4426 213.077 56.5239 212.89 56.6863 212.734C56.852 212.578 57.0492 212.5 57.2779 212.5C57.5066 212.5 57.7021 212.578 57.8645 212.734C58.0302 212.89 58.1131 213.077 58.1131 213.296C58.1131 213.514 58.0302 213.702 57.8645 213.857C57.7021 214.013 57.5066 214.091 57.2779 214.091ZM61.1768 218.406V223H60.0036V215.364H61.1371V216.557H61.2365C61.4155 216.169 61.6873 215.858 62.0518 215.622C62.4164 215.384 62.8871 215.264 63.4638 215.264C63.9808 215.264 64.4332 215.37 64.821 215.582C65.2088 215.791 65.5104 216.109 65.7259 216.537C65.9413 216.961 66.049 217.498 66.049 218.148V223H64.8757V218.227C64.8757 217.627 64.7199 217.16 64.4084 216.825C64.0968 216.487 63.6693 216.318 63.1257 216.318C62.7512 216.318 62.4164 216.399 62.1214 216.562C61.8298 216.724 61.5994 216.961 61.4304 217.273C61.2614 217.584 61.1768 217.962 61.1768 218.406ZM69.2868 220.216L69.2669 218.764H69.5055L72.8464 215.364H74.2981L70.7385 218.963H70.639L69.2868 220.216ZM68.193 223V212.818H69.3663V223H68.193ZM73.0453 223L70.0623 219.222L70.8975 218.406L74.5368 223H73.0453ZM81.5355 215.364C81.4759 214.86 81.2339 214.469 80.8097 214.19C80.3854 213.912 79.8651 213.773 79.2486 213.773C78.7978 213.773 78.4034 213.846 78.0653 213.992C77.7306 214.137 77.4688 214.338 77.2798 214.593C77.0942 214.848 77.0014 215.138 77.0014 215.463C77.0014 215.735 77.0661 215.969 77.1953 216.164C77.3279 216.356 77.4969 216.517 77.7024 216.646C77.9079 216.772 78.1233 216.877 78.3487 216.96C78.5741 217.039 78.7812 217.104 78.9702 217.153L80.0043 217.432C80.2694 217.501 80.5644 217.598 80.8892 217.72C81.2173 217.843 81.5305 218.01 81.8288 218.222C82.1304 218.431 82.379 218.7 82.5746 219.028C82.7701 219.356 82.8679 219.759 82.8679 220.236C82.8679 220.786 82.7237 221.283 82.4354 221.727C82.1503 222.171 81.7327 222.524 81.1825 222.786C80.6357 223.048 79.9711 223.179 79.1889 223.179C78.4598 223.179 77.8284 223.061 77.2947 222.826C76.7644 222.591 76.3468 222.263 76.0419 221.842C75.7403 221.421 75.5696 220.932 75.5298 220.375H76.8026C76.8357 220.76 76.965 221.078 77.1903 221.33C77.419 221.578 77.7074 221.764 78.0554 221.886C78.4067 222.006 78.7846 222.065 79.1889 222.065C79.6596 222.065 80.0821 221.989 80.4567 221.837C80.8312 221.681 81.1278 221.465 81.3466 221.19C81.5653 220.912 81.6747 220.587 81.6747 220.216C81.6747 219.878 81.5803 219.603 81.3913 219.391C81.2024 219.179 80.9538 219.006 80.6456 218.874C80.3374 218.741 80.0043 218.625 79.6463 218.526L78.3935 218.168C77.598 217.939 76.9683 217.613 76.5043 217.188C76.0402 216.764 75.8082 216.209 75.8082 215.523C75.8082 214.953 75.9624 214.456 76.2706 214.031C76.5821 213.604 76.9998 213.272 77.5234 213.037C78.0504 212.798 78.6387 212.679 79.2884 212.679C79.9446 212.679 80.5279 212.797 81.0384 213.032C81.5488 213.264 81.9531 213.582 82.2514 213.987C82.553 214.391 82.7121 214.85 82.7287 215.364H81.5355ZM89.5485 219.878V215.364H90.7218V223H89.5485V221.707H89.4689C89.29 222.095 89.0115 222.425 88.6337 222.697C88.2559 222.965 87.7786 223.099 87.2019 223.099C86.7246 223.099 86.3004 222.995 85.9292 222.786C85.5579 222.574 85.2663 222.256 85.0542 221.832C84.842 221.404 84.736 220.866 84.736 220.216V215.364H85.9093V220.136C85.9093 220.693 86.065 221.137 86.3766 221.469C86.6915 221.8 87.0925 221.966 87.5797 221.966C87.8714 221.966 88.168 221.891 88.4696 221.742C88.7746 221.593 89.0298 221.364 89.2353 221.056C89.4441 220.748 89.5485 220.355 89.5485 219.878ZM98.2798 217.074L97.2259 217.372C97.1596 217.197 97.0618 217.026 96.9325 216.86C96.8066 216.691 96.6342 216.552 96.4155 216.443C96.1967 216.333 95.9167 216.278 95.5753 216.278C95.108 216.278 94.7185 216.386 94.407 216.602C94.0987 216.814 93.9446 217.084 93.9446 217.412C93.9446 217.704 94.0507 217.934 94.2628 218.103C94.4749 218.272 94.8063 218.413 95.2571 218.526L96.3906 218.804C97.0734 218.97 97.5821 219.223 97.9169 219.565C98.2517 219.903 98.419 220.339 98.419 220.872C98.419 221.31 98.2931 221.701 98.0412 222.046C97.7926 222.39 97.4446 222.662 96.9972 222.861C96.5497 223.06 96.0294 223.159 95.4361 223.159C94.6572 223.159 94.0125 222.99 93.5021 222.652C92.9917 222.314 92.6686 221.82 92.5327 221.171L93.6463 220.892C93.7524 221.303 93.9529 221.611 94.2479 221.817C94.5462 222.022 94.9356 222.125 95.4162 222.125C95.9631 222.125 96.3973 222.009 96.7188 221.777C97.0436 221.542 97.206 221.26 97.206 220.932C97.206 220.667 97.1132 220.445 96.9276 220.266C96.742 220.083 96.4569 219.948 96.0724 219.858L94.7997 219.56C94.1004 219.394 93.5866 219.137 93.2585 218.789C92.9337 218.438 92.7713 217.999 92.7713 217.472C92.7713 217.041 92.8923 216.66 93.1342 216.328C93.3795 215.997 93.7126 215.737 94.1335 215.548C94.5578 215.359 95.0384 215.264 95.5753 215.264C96.331 215.264 96.9242 215.43 97.3551 215.761C97.7893 216.093 98.0975 216.53 98.2798 217.074Z" fill="#276749"/>
                        <path d="M17.1591 25.4205V23.5455H30.25V25.4205H24.7614V41H22.6477V25.4205H17.1591ZM33.5121 41V23.5455H35.6257V32.2045H35.8303L43.6712 23.5455H46.4325L39.103 31.4205L46.4325 41H43.8757L37.8075 32.8864L35.6257 35.3409V41H33.5121ZM58.7138 27.9091C58.6115 27.0455 58.1967 26.375 57.4695 25.8977C56.7422 25.4205 55.8501 25.1818 54.7933 25.1818C54.0206 25.1818 53.3445 25.3068 52.7649 25.5568C52.1911 25.8068 51.7422 26.1506 51.4183 26.5881C51.1001 27.0256 50.9411 27.5227 50.9411 28.0795C50.9411 28.5455 51.0518 28.946 51.2734 29.2812C51.5007 29.6108 51.7905 29.8864 52.1428 30.108C52.495 30.3239 52.8643 30.5028 53.2507 30.6449C53.6371 30.7812 53.9922 30.892 54.3161 30.9773L56.0888 31.4545C56.5433 31.5739 57.049 31.7386 57.6058 31.9489C58.1683 32.1591 58.7053 32.446 59.2166 32.8097C59.7337 33.1676 60.1598 33.6278 60.495 34.1903C60.8303 34.7528 60.9979 35.4432 60.9979 36.2614C60.9979 37.2045 60.7507 38.0568 60.2564 38.8182C59.7678 39.5795 59.0518 40.1847 58.1087 40.6335C57.1712 41.0824 56.032 41.3068 54.6911 41.3068C53.4411 41.3068 52.3587 41.1051 51.4439 40.7017C50.5348 40.2983 49.8189 39.7358 49.2962 39.0142C48.7791 38.2926 48.4865 37.4545 48.4183 36.5H50.6001C50.657 37.1591 50.8786 37.7045 51.2649 38.1364C51.657 38.5625 52.1513 38.8807 52.7479 39.0909C53.3501 39.2955 53.9979 39.3977 54.6911 39.3977C55.4979 39.3977 56.2223 39.267 56.8643 39.0057C57.5064 38.7386 58.0149 38.3693 58.3899 37.8977C58.7649 37.4205 58.9524 36.8636 58.9524 36.2273C58.9524 35.6477 58.7905 35.1761 58.4666 34.8125C58.1428 34.4489 57.7166 34.1534 57.1882 33.9261C56.6598 33.6989 56.0888 33.5 55.4751 33.3295L53.3274 32.7159C51.9638 32.3239 50.8842 31.7642 50.0888 31.0369C49.2933 30.3097 48.8956 29.358 48.8956 28.1818C48.8956 27.2045 49.1598 26.3523 49.6882 25.625C50.2223 24.892 50.9382 24.3239 51.8359 23.9205C52.7393 23.5114 53.7479 23.3068 54.8615 23.3068C55.9865 23.3068 56.9865 23.5085 57.8615 23.9119C58.7365 24.3097 59.4297 24.8551 59.9411 25.5483C60.4581 26.2415 60.7308 27.0284 60.7592 27.9091H58.7138ZM18.1136 73V55.5455H24.2159C25.4318 55.5455 26.4347 55.7557 27.2244 56.1761C28.0142 56.5909 28.6023 57.1506 28.9886 57.8551C29.375 58.554 29.5682 59.3295 29.5682 60.1818C29.5682 60.9318 29.4347 61.5511 29.1676 62.0398C28.9063 62.5284 28.5597 62.9148 28.1278 63.1989C27.7017 63.483 27.2386 63.6932 26.7386 63.8295V64C27.2727 64.0341 27.8097 64.2216 28.3494 64.5625C28.8892 64.9034 29.3409 65.392 29.7045 66.0284C30.0682 66.6648 30.25 67.4432 30.25 68.3636C30.25 69.2386 30.0511 70.0256 29.6534 70.7244C29.2557 71.4233 28.6278 71.9773 27.7699 72.3864C26.9119 72.7955 25.7955 73 24.4205 73H18.1136ZM20.2273 71.125H24.4205C25.8011 71.125 26.7813 70.858 27.3608 70.3239C27.946 69.7841 28.2386 69.1307 28.2386 68.3636C28.2386 67.7727 28.0881 67.2273 27.7869 66.7273C27.4858 66.2216 27.0568 65.8182 26.5 65.517C25.9432 65.2102 25.2841 65.0568 24.5227 65.0568H20.2273V71.125ZM20.2273 63.2159H24.1477C24.7841 63.2159 25.358 63.0909 25.8693 62.8409C26.3864 62.5909 26.7955 62.2386 27.0966 61.7841C27.4034 61.3295 27.5568 60.7955 27.5568 60.1818C27.5568 59.4148 27.2898 58.7642 26.7557 58.2301C26.2216 57.6903 25.375 57.4205 24.2159 57.4205H20.2273V63.2159ZM33.4503 73V59.9091H35.3935V61.8864H35.5298C35.7685 61.2386 36.2003 60.7131 36.8253 60.3097C37.4503 59.9062 38.1548 59.7045 38.9389 59.7045C39.0866 59.7045 39.2713 59.7074 39.4929 59.7131C39.7145 59.7187 39.8821 59.7273 39.9957 59.7386V61.7841C39.9276 61.767 39.7713 61.7415 39.527 61.7074C39.2884 61.6676 39.0355 61.6477 38.7685 61.6477C38.1321 61.6477 37.5639 61.7812 37.0639 62.0483C36.5696 62.3097 36.1776 62.6733 35.8878 63.1392C35.6037 63.5994 35.4616 64.125 35.4616 64.7159V73H33.4503ZM47.2997 73.2727C46.1179 73.2727 45.081 72.9915 44.1889 72.429C43.3026 71.8665 42.6094 71.0795 42.1094 70.0682C41.6151 69.0568 41.3679 67.875 41.3679 66.5227C41.3679 65.1591 41.6151 63.9687 42.1094 62.9517C42.6094 61.9347 43.3026 61.1449 44.1889 60.5824C45.081 60.0199 46.1179 59.7386 47.2997 59.7386C48.4815 59.7386 49.5156 60.0199 50.402 60.5824C51.294 61.1449 51.9872 61.9347 52.4815 62.9517C52.9815 63.9687 53.2315 65.1591 53.2315 66.5227C53.2315 67.875 52.9815 69.0568 52.4815 70.0682C51.9872 71.0795 51.294 71.8665 50.402 72.429C49.5156 72.9915 48.4815 73.2727 47.2997 73.2727ZM47.2997 71.4659C48.1974 71.4659 48.9361 71.2358 49.5156 70.7756C50.0952 70.3153 50.5241 69.7102 50.8026 68.9602C51.081 68.2102 51.2202 67.3977 51.2202 66.5227C51.2202 65.6477 51.081 64.8324 50.8026 64.0767C50.5241 63.321 50.0952 62.7102 49.5156 62.2443C48.9361 61.7784 48.1974 61.5455 47.2997 61.5455C46.402 61.5455 45.6634 61.7784 45.0838 62.2443C44.5043 62.7102 44.0753 63.321 43.7969 64.0767C43.5185 64.8324 43.3793 65.6477 43.3793 66.5227C43.3793 67.3977 43.5185 68.2102 43.7969 68.9602C44.0753 69.7102 44.5043 70.3153 45.0838 70.7756C45.6634 71.2358 46.402 71.4659 47.2997 71.4659ZM58.3132 65.125V73H56.3018V59.9091H58.245V61.9545H58.4155C58.7223 61.2898 59.1882 60.7557 59.8132 60.3523C60.4382 59.9432 61.245 59.7386 62.2337 59.7386C63.12 59.7386 63.8956 59.9205 64.5604 60.2841C65.2251 60.642 65.7422 61.1875 66.1115 61.9205C66.4808 62.6477 66.6655 63.5682 66.6655 64.6818V73H64.6541V64.8182C64.6541 63.7898 64.3871 62.9886 63.853 62.4148C63.3189 61.8352 62.5859 61.5455 61.6541 61.5455C61.0121 61.5455 60.4382 61.6847 59.9325 61.9631C59.4325 62.2415 59.0376 62.6477 58.7479 63.1818C58.4581 63.7159 58.3132 64.3636 58.3132 65.125ZM69.9659 73V71.4659L77.3977 61.9205V61.7841H70.2045V59.9091H79.9886V61.5114L72.7614 70.9886V71.125H80.2273V73H69.9659ZM88.4389 73.2727C87.1776 73.2727 86.0895 72.9943 85.1747 72.4375C84.2656 71.875 83.5639 71.0909 83.0696 70.0852C82.581 69.0739 82.3366 67.8977 82.3366 66.5568C82.3366 65.2159 82.581 64.0341 83.0696 63.0114C83.5639 61.983 84.2514 61.1818 85.1321 60.608C86.0185 60.0284 87.0526 59.7386 88.2344 59.7386C88.9162 59.7386 89.5895 59.8523 90.2543 60.0795C90.919 60.3068 91.5241 60.6761 92.0696 61.1875C92.6151 61.6932 93.0497 62.3636 93.3736 63.1989C93.6974 64.0341 93.8594 65.0625 93.8594 66.2841V67.1364H83.7685V65.3977H91.8139C91.8139 64.6591 91.6662 64 91.3707 63.4205C91.081 62.8409 90.6662 62.3835 90.1264 62.0483C89.5923 61.7131 88.9616 61.5455 88.2344 61.5455C87.4332 61.5455 86.7401 61.7443 86.1548 62.142C85.5753 62.5341 85.1293 63.0455 84.8168 63.6761C84.5043 64.3068 84.348 64.983 84.348 65.7045V66.8636C84.348 67.8523 84.5185 68.6903 84.8594 69.3778C85.206 70.0597 85.6861 70.5795 86.2997 70.9375C86.9134 71.2898 87.6264 71.4659 88.4389 71.4659C88.9673 71.4659 89.4446 71.392 89.8707 71.2443C90.3026 71.0909 90.6747 70.8636 90.9872 70.5625C91.2997 70.2557 91.5412 69.875 91.7116 69.4205L93.6548 69.9659C93.4503 70.625 93.1065 71.2045 92.6236 71.7045C92.1406 72.1989 91.544 72.5852 90.8338 72.8636C90.1236 73.1364 89.3253 73.2727 88.4389 73.2727Z" fill="#276749"/>
                        <path d="M46.375 176.875C42.875 176.875 39.5208 176.312 36.3125 175.187C33.1042 174.042 30.25 172.229 27.75 169.75C25.25 167.25 23.2813 163.979 21.8438 159.937C20.4063 155.875 19.6979 150.927 19.7188 145.094C19.7396 139.823 20.3854 135.094 21.6563 130.906C22.9271 126.698 24.7396 123.125 27.0938 120.187C29.4688 117.25 32.3021 115.01 35.5938 113.469C38.9062 111.906 42.6042 111.125 46.6875 111.125C51.1667 111.125 55.1146 112 58.5313 113.75C61.9688 115.479 64.7188 117.812 66.7813 120.75C68.8438 123.667 70.0625 126.917 70.4375 130.5H55.2188C54.7604 128.479 53.75 126.948 52.1875 125.906C50.6458 124.844 48.8125 124.312 46.6875 124.312C42.7708 124.312 39.8438 126.01 37.9063 129.406C35.9896 132.802 35.0104 137.344 34.9688 143.031H35.375C36.25 141.115 37.5104 139.469 39.1563 138.094C40.8021 136.719 42.6875 135.667 44.8125 134.937C46.9583 134.187 49.2292 133.812 51.625 133.812C55.4583 133.812 58.8438 134.698 61.7813 136.469C64.7188 138.24 67.0208 140.667 68.6875 143.75C70.3542 146.813 71.1771 150.323 71.1562 154.281C71.1771 158.74 70.1354 162.677 68.0313 166.094C65.9271 169.49 63.0104 172.135 59.2813 174.031C55.5729 175.927 51.2708 176.875 46.375 176.875ZM46.2813 165C48.1771 165 49.875 164.552 51.375 163.656C52.875 162.76 54.0521 161.542 54.9063 160C55.7604 158.458 56.1771 156.719 56.1563 154.781C56.1771 152.823 55.7604 151.083 54.9063 149.562C54.0729 148.042 52.9063 146.833 51.4062 145.937C49.9271 145.042 48.2292 144.594 46.3125 144.594C44.9167 144.594 43.6146 144.854 42.4063 145.375C41.1979 145.896 40.1458 146.625 39.25 147.563C38.375 148.479 37.6875 149.563 37.1875 150.812C36.6875 152.042 36.4271 153.375 36.4063 154.812C36.4271 156.708 36.8646 158.427 37.7188 159.969C38.5729 161.51 39.7396 162.74 41.2188 163.656C42.6979 164.552 44.3854 165 46.2813 165ZM106.398 177.562C100.815 177.562 96.0026 176.24 91.9609 173.594C87.9193 170.927 84.8047 167.104 82.6172 162.125C80.4297 157.125 79.3464 151.115 79.3672 144.094C79.388 137.073 80.4818 131.115 82.6484 126.219C84.8359 121.302 87.9401 117.562 91.9609 115C96.0026 112.417 100.815 111.125 106.398 111.125C111.982 111.125 116.794 112.417 120.836 115C124.898 117.562 128.023 121.302 130.211 126.219C132.398 131.135 133.482 137.094 133.461 144.094C133.461 151.135 132.367 157.156 130.18 162.156C127.992 167.156 124.878 170.979 120.836 173.625C116.815 176.25 112.003 177.562 106.398 177.562ZM106.398 164.906C109.732 164.906 112.43 163.208 114.492 159.812C116.555 156.396 117.576 151.156 117.555 144.094C117.555 139.469 117.086 135.656 116.148 132.656C115.211 129.635 113.909 127.385 112.242 125.906C110.576 124.427 108.628 123.687 106.398 123.687C103.086 123.687 100.409 125.365 98.3672 128.719C96.3255 132.052 95.2943 137.177 95.2734 144.094C95.2526 148.781 95.7005 152.667 96.6172 155.75C97.5547 158.833 98.8672 161.135 100.555 162.656C102.242 164.156 104.19 164.906 106.398 164.906Z" fill="#276749"/>
                        <defs>
                        <clipPath id="clip0_6036_25089">
                        <rect width="248" height="248" fill="white"/>
                        </clipPath>
                        </defs>
                        </svg>