<svg width="425" height="608" viewBox="0 0 425 608" fill="none" xmlns="http://www.w3.org/2000/svg">
<g filter="url(#filter0_ddd_4036_9149)">
<rect x="17" y="185" width="104" height="104" rx="3.35484" fill="url(#paint0_linear_4036_9149)"/>
</g>
<g clip-path="url(#clip0_4036_9149)">
<g opacity="0.7">
<mask id="mask0_4036_9149" style="mask-type:alpha" maskUnits="userSpaceOnUse" x="17" y="185" width="104" height="104">
<rect x="17" y="185" width="104" height="104" rx="3.35484" fill="white"/>
</mask>
<g mask="url(#mask0_4036_9149)">
<circle cx="53.5" cy="53.5" r="53.2903" transform="matrix(0.258819 0.965926 0.965926 -0.258819 34 173)" stroke="white" stroke-opacity="0.48" stroke-width="0.419355"/>
<circle cx="68.5" cy="68.5" r="68.2903" transform="matrix(0.258819 0.965926 0.965926 -0.258819 27 168)" stroke="white" stroke-opacity="0.48" stroke-width="0.419355"/>
<circle cx="42.5" cy="42.5" r="42.2903" transform="matrix(0.258819 0.965926 0.965926 -0.258819 45 174)" stroke="white" stroke-opacity="0.48" stroke-width="0.419355"/>
<circle cx="33.5" cy="33.5" r="33.2903" transform="matrix(0.258819 0.965926 0.965926 -0.258819 63 164)" stroke="white" stroke-opacity="0.48" stroke-width="0.419355"/>
</g>
</g>
</g>
<path d="M29.3722 197.091C29.3338 196.767 29.1783 196.516 28.9055 196.337C28.6328 196.158 28.2983 196.068 27.902 196.068C27.6122 196.068 27.3587 196.115 27.1413 196.209C26.9261 196.303 26.7578 196.431 26.6364 196.596C26.517 196.76 26.4574 196.946 26.4574 197.155C26.4574 197.33 26.4989 197.48 26.582 197.605C26.6673 197.729 26.7759 197.832 26.908 197.915C27.0401 197.996 27.1786 198.064 27.3235 198.117C27.4684 198.168 27.6016 198.21 27.723 198.241L28.3878 198.42C28.5582 198.465 28.7479 198.527 28.9567 198.606C29.1676 198.685 29.369 198.792 29.5607 198.929C29.7546 199.063 29.9144 199.235 30.0401 199.446C30.1658 199.657 30.2287 199.916 30.2287 200.223C30.2287 200.577 30.136 200.896 29.9506 201.182C29.7674 201.467 29.4989 201.694 29.1452 201.863C28.7937 202.031 28.3665 202.115 27.8636 202.115C27.3949 202.115 26.989 202.039 26.646 201.888C26.305 201.737 26.0366 201.526 25.8406 201.255C25.6467 200.985 25.5369 200.67 25.5114 200.312H26.3295C26.3509 200.56 26.4339 200.764 26.5788 200.926C26.7259 201.086 26.9112 201.205 27.1349 201.284C27.3608 201.361 27.6037 201.399 27.8636 201.399C28.1662 201.399 28.4379 201.35 28.6786 201.252C28.9194 201.152 29.1101 201.013 29.2507 200.837C29.3913 200.658 29.4616 200.449 29.4616 200.21C29.4616 199.993 29.4009 199.816 29.2795 199.68C29.158 199.543 28.9982 199.433 28.8001 199.347C28.6019 199.262 28.3878 199.187 28.1577 199.124L27.3523 198.893C26.8409 198.746 26.4361 198.537 26.1378 198.264C25.8395 197.991 25.6903 197.634 25.6903 197.193C25.6903 196.827 25.7894 196.507 25.9876 196.234C26.1879 195.96 26.4563 195.746 26.793 195.595C27.1317 195.442 27.5099 195.365 27.9276 195.365C28.3494 195.365 28.7244 195.441 29.0526 195.592C29.3807 195.741 29.6406 195.946 29.8324 196.206C30.0263 196.466 30.1286 196.761 30.1392 197.091H29.3722ZM33.4878 202.102C33.0148 202.102 32.6068 201.998 32.2638 201.789C31.9229 201.578 31.6597 201.284 31.4743 200.907C31.2911 200.528 31.1995 200.087 31.1995 199.584C31.1995 199.081 31.2911 198.638 31.4743 198.254C31.6597 197.869 31.9175 197.568 32.2478 197.353C32.5802 197.136 32.968 197.027 33.4111 197.027C33.6668 197.027 33.9193 197.07 34.1686 197.155C34.4179 197.24 34.6448 197.379 34.8493 197.57C35.0539 197.76 35.2169 198.011 35.3383 198.325C35.4598 198.638 35.5205 199.023 35.5205 199.482V199.801H31.7364V199.149H34.7535C34.7535 198.872 34.6981 198.625 34.5873 198.408C34.4786 198.19 34.3231 198.019 34.1207 197.893C33.9204 197.767 33.6839 197.705 33.4111 197.705C33.1107 197.705 32.8508 197.779 32.6313 197.928C32.414 198.075 32.2467 198.267 32.1295 198.504C32.0123 198.74 31.9537 198.994 31.9537 199.264V199.699C31.9537 200.07 32.0177 200.384 32.1455 200.642C32.2755 200.897 32.4555 201.092 32.6856 201.227C32.9157 201.359 33.1832 201.425 33.4878 201.425C33.686 201.425 33.865 201.397 34.0248 201.342C34.1867 201.284 34.3263 201.199 34.4434 201.086C34.5606 200.971 34.6512 200.828 34.7151 200.658L35.4438 200.862C35.3671 201.109 35.2382 201.327 35.0571 201.514C34.876 201.7 34.6523 201.844 34.3859 201.949C34.1196 202.051 33.8202 202.102 33.4878 202.102ZM37.4221 195.455V202H36.6679V195.455H37.4221ZM40.7979 202.102C40.3548 202.102 39.9659 201.997 39.6314 201.786C39.299 201.575 39.0391 201.28 38.8516 200.901C38.6662 200.521 38.5735 200.078 38.5735 199.571C38.5735 199.06 38.6662 198.613 38.8516 198.232C39.0391 197.85 39.299 197.554 39.6314 197.343C39.9659 197.132 40.3548 197.027 40.7979 197.027C41.2411 197.027 41.6289 197.132 41.9613 197.343C42.2958 197.554 42.5558 197.85 42.7411 198.232C42.9286 198.613 43.0224 199.06 43.0224 199.571C43.0224 200.078 42.9286 200.521 42.7411 200.901C42.5558 201.28 42.2958 201.575 41.9613 201.786C41.6289 201.997 41.2411 202.102 40.7979 202.102ZM40.7979 201.425C41.1346 201.425 41.4116 201.338 41.6289 201.166C41.8462 200.993 42.0071 200.766 42.1115 200.485C42.2159 200.204 42.2681 199.899 42.2681 199.571C42.2681 199.243 42.2159 198.937 42.1115 198.654C42.0071 198.37 41.8462 198.141 41.6289 197.967C41.4116 197.792 41.1346 197.705 40.7979 197.705C40.4613 197.705 40.1843 197.792 39.967 197.967C39.7496 198.141 39.5888 198.37 39.4844 198.654C39.38 198.937 39.3278 199.243 39.3278 199.571C39.3278 199.899 39.38 200.204 39.4844 200.485C39.5888 200.766 39.7496 200.993 39.967 201.166C40.1843 201.338 40.4613 201.425 40.7979 201.425ZM46.4493 196.158V195.455H51.3584V196.158H49.3002V202H48.5075V196.158H46.4493ZM53.2337 199.047V202H52.4794V195.455H53.2337V197.858H53.2976C53.4126 197.604 53.5852 197.403 53.8153 197.254C54.0476 197.103 54.3565 197.027 54.7422 197.027C55.0767 197.027 55.3697 197.094 55.6211 197.228C55.8725 197.36 56.0675 197.564 56.206 197.839C56.3466 198.112 56.4169 198.459 56.4169 198.881V202H55.6626V198.932C55.6626 198.542 55.5614 198.24 55.359 198.027C55.1587 197.812 54.8807 197.705 54.5249 197.705C54.2777 197.705 54.0561 197.757 53.8601 197.861C53.6662 197.966 53.5128 198.118 53.3999 198.318C53.2891 198.518 53.2337 198.761 53.2337 199.047ZM57.7968 202V197.091H58.551V202H57.7968ZM58.1803 196.273C58.0333 196.273 57.9065 196.223 57.8 196.123C57.6956 196.022 57.6434 195.902 57.6434 195.761C57.6434 195.621 57.6956 195.5 57.8 195.4C57.9065 195.3 58.0333 195.25 58.1803 195.25C58.3273 195.25 58.453 195.3 58.5574 195.4C58.664 195.5 58.7172 195.621 58.7172 195.761C58.7172 195.902 58.664 196.022 58.5574 196.123C58.453 196.223 58.3273 196.273 58.1803 196.273ZM60.6868 199.047V202H59.9325V197.091H60.6612V197.858H60.7251C60.8402 197.609 61.0149 197.408 61.2493 197.257C61.4837 197.104 61.7862 197.027 62.157 197.027C62.4893 197.027 62.7802 197.095 63.0295 197.232C63.2788 197.366 63.4727 197.57 63.6112 197.845C63.7496 198.118 63.8189 198.463 63.8189 198.881V202H63.0646V198.932C63.0646 198.546 62.9645 198.246 62.7642 198.031C62.5639 197.813 62.2891 197.705 61.9396 197.705C61.6989 197.705 61.4837 197.757 61.294 197.861C61.1065 197.966 60.9585 198.118 60.8498 198.318C60.7411 198.518 60.6868 198.761 60.6868 199.047ZM65.9003 200.21L65.8875 199.277H66.0409L68.1887 197.091H69.1219L66.8335 199.405H66.7696L65.9003 200.21ZM65.1972 202V195.455H65.9514V202H65.1972ZM68.3165 202L66.3989 199.571L66.9358 199.047L69.2753 202H68.3165ZM73.7745 197.091C73.7362 196.767 73.5806 196.516 73.3079 196.337C73.0352 196.158 72.7006 196.068 72.3043 196.068C72.0146 196.068 71.761 196.115 71.5437 196.209C71.3285 196.303 71.1602 196.431 71.0387 196.596C70.9194 196.76 70.8597 196.946 70.8597 197.155C70.8597 197.33 70.9013 197.48 70.9844 197.605C71.0696 197.729 71.1783 197.832 71.3104 197.915C71.4425 197.996 71.581 198.064 71.7259 198.117C71.8707 198.168 72.0039 198.21 72.1254 198.241L72.7901 198.42C72.9606 198.465 73.1502 198.527 73.359 198.606C73.57 198.685 73.7713 198.792 73.9631 198.929C74.157 199.063 74.3168 199.235 74.4425 199.446C74.5682 199.657 74.631 199.916 74.631 200.223C74.631 200.577 74.5384 200.896 74.353 201.182C74.1697 201.467 73.9013 201.694 73.5476 201.863C73.196 202.031 72.7688 202.115 72.266 202.115C71.7972 202.115 71.3913 202.039 71.0483 201.888C70.7074 201.737 70.4389 201.526 70.2429 201.255C70.049 200.985 69.9393 200.67 69.9137 200.312H70.7319C70.7532 200.56 70.8363 200.764 70.9812 200.926C71.1282 201.086 71.3136 201.205 71.5373 201.284C71.7631 201.361 72.006 201.399 72.266 201.399C72.5685 201.399 72.8402 201.35 73.081 201.252C73.3217 201.152 73.5124 201.013 73.6531 200.837C73.7937 200.658 73.864 200.449 73.864 200.21C73.864 199.993 73.8033 199.816 73.6818 199.68C73.5604 199.543 73.4006 199.433 73.2024 199.347C73.0043 199.262 72.7901 199.187 72.56 199.124L71.7546 198.893C71.2433 198.746 70.8384 198.537 70.5401 198.264C70.2418 197.991 70.0927 197.634 70.0927 197.193C70.0927 196.827 70.1918 196.507 70.3899 196.234C70.5902 195.96 70.8587 195.746 71.1953 195.595C71.5341 195.442 71.9123 195.365 72.3299 195.365C72.7518 195.365 73.1268 195.441 73.4549 195.592C73.783 195.741 74.043 195.946 74.2347 196.206C74.4286 196.466 74.5309 196.761 74.5415 197.091H73.7745ZM78.9257 199.993V197.091H79.68V202H78.9257V201.169H78.8746C78.7595 201.418 78.5805 201.63 78.3376 201.805C78.0947 201.978 77.7879 202.064 77.4172 202.064C77.1104 202.064 76.8376 201.997 76.599 201.863C76.3604 201.726 76.1729 201.522 76.0365 201.249C75.9001 200.974 75.8319 200.628 75.8319 200.21V197.091H76.5862V200.159C76.5862 200.517 76.6863 200.803 76.8866 201.016C77.089 201.229 77.3469 201.335 77.6601 201.335C77.8476 201.335 78.0383 201.287 78.2322 201.191C78.4282 201.096 78.5922 200.949 78.7243 200.75C78.8586 200.552 78.9257 200.3 78.9257 199.993ZM84.5387 198.19L83.8612 198.382C83.8185 198.269 83.7557 198.159 83.6726 198.053C83.5916 197.944 83.4808 197.855 83.3402 197.784C83.1996 197.714 83.0195 197.679 82.8001 197.679C82.4996 197.679 82.2493 197.748 82.049 197.887C81.8509 198.023 81.7518 198.197 81.7518 198.408C81.7518 198.595 81.82 198.743 81.9563 198.852C82.0927 198.961 82.3058 199.051 82.5955 199.124L83.3242 199.303C83.7631 199.409 84.0902 199.572 84.3054 199.792C84.5206 200.009 84.6282 200.289 84.6282 200.632C84.6282 200.913 84.5472 201.165 84.3853 201.386C84.2255 201.608 84.0018 201.783 83.7141 201.911C83.4265 202.038 83.092 202.102 82.7106 202.102C82.2099 202.102 81.7955 201.994 81.4673 201.776C81.1392 201.559 80.9315 201.241 80.8441 200.824L81.56 200.645C81.6282 200.909 81.7571 201.107 81.9467 201.239C82.1385 201.371 82.3888 201.438 82.6978 201.438C83.0494 201.438 83.3285 201.363 83.5352 201.214C83.744 201.062 83.8484 200.881 83.8484 200.67C83.8484 200.5 83.7887 200.357 83.6694 200.242C83.5501 200.125 83.3668 200.038 83.1197 199.98L82.3015 199.788C81.8519 199.682 81.5217 199.517 81.3107 199.293C81.1019 199.067 80.9975 198.785 80.9975 198.446C80.9975 198.169 81.0753 197.924 81.2308 197.711C81.3885 197.498 81.6026 197.331 81.8732 197.209C82.146 197.088 82.4549 197.027 82.8001 197.027C83.2859 197.027 83.6673 197.134 83.9442 197.347C84.2234 197.56 84.4215 197.841 84.5387 198.19Z" fill="black"/>
<path d="M25.5625 279V270.273H29.3466C30.0114 270.273 30.5696 270.362 31.0213 270.541C31.4759 270.72 31.8182 270.973 32.0483 271.3C32.2813 271.626 32.3977 272.011 32.3977 272.455C32.3977 272.776 32.3267 273.068 32.1847 273.332C32.0455 273.597 31.8494 273.818 31.5966 273.997C31.3438 274.173 31.0483 274.295 30.7102 274.364V274.449C31.0852 274.463 31.4261 274.558 31.733 274.734C32.0398 274.908 32.2841 275.148 32.4659 275.455C32.6477 275.759 32.7386 276.116 32.7386 276.528C32.7386 277.006 32.6136 277.43 32.3636 277.803C32.1165 278.175 31.7642 278.467 31.3068 278.68C30.8494 278.893 30.304 279 29.6705 279H25.5625ZM27.9318 277.108H29.0398C29.4375 277.108 29.7358 277.034 29.9347 276.886C30.1335 276.736 30.233 276.514 30.233 276.222C30.233 276.017 30.1861 275.844 30.0923 275.702C29.9986 275.56 29.8651 275.452 29.6918 275.378C29.5213 275.304 29.3153 275.267 29.0739 275.267H27.9318V277.108ZM27.9318 273.801H28.9034C29.1108 273.801 29.294 273.768 29.4531 273.703C29.6122 273.638 29.7358 273.544 29.8239 273.422C29.9148 273.297 29.9602 273.145 29.9602 272.966C29.9602 272.696 29.8636 272.49 29.6705 272.348C29.4773 272.203 29.233 272.131 28.9375 272.131H27.9318V273.801ZM33.6122 279V272.455H35.8963V273.699H35.9645C36.0838 273.239 36.2727 272.902 36.5312 272.689C36.7926 272.476 37.098 272.369 37.4474 272.369C37.5497 272.369 37.6506 272.378 37.75 272.395C37.8523 272.409 37.9503 272.43 38.044 272.459V274.466C37.9276 274.426 37.7841 274.396 37.6136 274.376C37.4432 274.357 37.2969 274.347 37.1747 274.347C36.9446 274.347 36.7372 274.399 36.5526 274.504C36.3707 274.607 36.2273 274.751 36.1222 274.939C36.017 275.124 35.9645 275.341 35.9645 275.591V279H33.6122ZM41.5938 279.119C40.8835 279.119 40.2756 278.979 39.7699 278.697C39.2642 278.413 38.8764 278.018 38.6065 277.513C38.3366 277.004 38.2017 276.415 38.2017 275.744C38.2017 275.074 38.3366 274.486 38.6065 273.98C38.8764 273.472 39.2642 273.077 39.7699 272.795C40.2756 272.511 40.8835 272.369 41.5938 272.369C42.304 272.369 42.9119 272.511 43.4176 272.795C43.9233 273.077 44.3111 273.472 44.581 273.98C44.8509 274.486 44.9858 275.074 44.9858 275.744C44.9858 276.415 44.8509 277.004 44.581 277.513C44.3111 278.018 43.9233 278.413 43.4176 278.697C42.9119 278.979 42.304 279.119 41.5938 279.119ZM41.6108 277.381C41.8097 277.381 41.9815 277.314 42.1264 277.18C42.2713 277.047 42.3835 276.857 42.4631 276.609C42.5426 276.362 42.5824 276.068 42.5824 275.727C42.5824 275.384 42.5426 275.089 42.4631 274.845C42.3835 274.598 42.2713 274.408 42.1264 274.274C41.9815 274.141 41.8097 274.074 41.6108 274.074C41.4006 274.074 41.2202 274.141 41.0696 274.274C40.919 274.408 40.804 274.598 40.7244 274.845C40.6449 275.089 40.6051 275.384 40.6051 275.727C40.6051 276.068 40.6449 276.362 40.7244 276.609C40.804 276.857 40.919 277.047 41.0696 277.18C41.2202 277.314 41.4006 277.381 41.6108 277.381ZM48.2926 275.318V279H45.9403V272.455H48.1733V273.699H48.2415C48.3835 273.284 48.6335 272.959 48.9915 272.723C49.3523 272.487 49.7727 272.369 50.2528 272.369C50.7159 272.369 51.1179 272.476 51.4588 272.689C51.8026 272.899 52.0682 273.189 52.2557 273.558C52.446 273.928 52.5398 274.349 52.5369 274.824V279H50.1847V275.318C50.1875 274.994 50.1051 274.74 49.9375 274.555C49.7727 274.371 49.5426 274.278 49.2472 274.278C49.054 274.278 48.8849 274.321 48.7401 274.406C48.598 274.489 48.4886 274.608 48.4119 274.764C48.3352 274.918 48.2955 275.102 48.2926 275.318ZM53.7663 279V277.705L56.63 274.278V274.244H53.8686V272.455H59.4084V273.886L56.8004 277.176V277.21H59.5107V279H53.7663ZM63.7603 279.119C63.0614 279.119 62.4592 278.986 61.9535 278.719C61.4506 278.449 61.0629 278.062 60.7901 277.56C60.5202 277.054 60.3853 276.449 60.3853 275.744C60.3853 275.068 60.5217 274.477 60.7944 273.972C61.0671 273.466 61.4521 273.072 61.9492 272.791C62.4464 272.51 63.033 272.369 63.7092 272.369C64.2035 272.369 64.6509 272.446 65.0515 272.599C65.4521 272.753 65.7944 272.976 66.0785 273.268C66.3626 273.558 66.5813 273.911 66.7347 274.325C66.8881 274.74 66.9648 275.207 66.9648 275.727V276.273H61.1183V274.977H64.8001C64.7972 274.79 64.7489 274.625 64.6552 274.483C64.5643 274.338 64.4407 274.226 64.2844 274.146C64.131 274.064 63.9563 274.023 63.7603 274.023C63.57 274.023 63.3952 274.064 63.2362 274.146C63.0771 274.226 62.9492 274.337 62.8526 274.479C62.7589 274.621 62.7092 274.787 62.7035 274.977V276.375C62.7035 276.585 62.7475 276.773 62.8356 276.938C62.9237 277.102 63.0501 277.232 63.2148 277.325C63.3796 277.419 63.5785 277.466 63.8114 277.466C63.9734 277.466 64.1211 277.443 64.2546 277.398C64.391 277.352 64.5075 277.287 64.604 277.202C64.7006 277.114 64.7717 277.009 64.8171 276.886H66.9648C66.891 277.341 66.7163 277.736 66.4407 278.071C66.1651 278.403 65.8001 278.662 65.3455 278.847C64.8938 279.028 64.3654 279.119 63.7603 279.119Z" fill="#512E0A"/>
<path d="M36.4261 260.358C34.9943 260.358 33.6222 260.128 32.3097 259.668C30.9972 259.199 29.8295 258.457 28.8068 257.443C27.7841 256.42 26.9787 255.082 26.3906 253.429C25.8026 251.767 25.5128 249.743 25.5213 247.357C25.5298 245.2 25.794 243.266 26.3139 241.553C26.8338 239.831 27.5753 238.369 28.5384 237.168C29.5099 235.966 30.669 235.05 32.0156 234.419C33.3707 233.78 34.8835 233.46 36.554 233.46C38.3864 233.46 40.0014 233.818 41.3991 234.534C42.8054 235.241 43.9304 236.196 44.7741 237.398C45.6179 238.591 46.1165 239.92 46.2699 241.386H40.044C39.8565 240.56 39.4432 239.933 38.804 239.507C38.1733 239.072 37.4233 238.855 36.554 238.855C34.9517 238.855 33.7543 239.55 32.9616 240.939C32.1776 242.328 31.777 244.186 31.7599 246.513H31.9261C32.2841 245.729 32.7997 245.055 33.473 244.493C34.1463 243.93 34.9176 243.5 35.7869 243.202C36.6648 242.895 37.5938 242.741 38.5739 242.741C40.142 242.741 41.527 243.104 42.7287 243.828C43.9304 244.553 44.8722 245.545 45.554 246.807C46.2358 248.06 46.5724 249.496 46.5639 251.115C46.5724 252.939 46.1463 254.55 45.2855 255.947C44.4247 257.337 43.2315 258.419 41.706 259.195C40.1889 259.97 38.429 260.358 36.4261 260.358ZM36.3878 255.5C37.1634 255.5 37.858 255.317 38.4716 254.95C39.0852 254.584 39.5668 254.085 39.9162 253.455C40.2656 252.824 40.4361 252.112 40.4276 251.32C40.4361 250.518 40.2656 249.807 39.9162 249.185C39.5753 248.562 39.098 248.068 38.4844 247.702C37.8793 247.335 37.1847 247.152 36.4006 247.152C35.8295 247.152 35.2969 247.259 34.8026 247.472C34.3082 247.685 33.8778 247.983 33.5114 248.366C33.1534 248.741 32.8722 249.185 32.6676 249.696C32.4631 250.199 32.3565 250.744 32.348 251.332C32.3565 252.108 32.5355 252.811 32.8849 253.442C33.2344 254.072 33.7116 254.575 34.3168 254.95C34.9219 255.317 35.6122 255.5 36.3878 255.5ZM60.9812 260.639C58.6971 260.639 56.7283 260.098 55.0749 259.016C53.4215 257.925 52.1474 256.361 51.2525 254.324C50.3576 252.278 49.9144 249.82 49.9229 246.947C49.9315 244.075 50.3789 241.638 51.2653 239.635C52.1602 237.624 53.43 236.094 55.0749 235.045C56.7283 233.989 58.6971 233.46 60.9812 233.46C63.2653 233.46 65.234 233.989 66.8874 235.045C68.5494 236.094 69.8278 237.624 70.7227 239.635C71.6175 241.646 72.0607 244.084 72.0522 246.947C72.0522 249.828 71.6048 252.291 70.7099 254.337C69.815 256.382 68.5408 257.946 66.8874 259.028C65.2425 260.102 63.2738 260.639 60.9812 260.639ZM60.9812 255.462C62.3448 255.462 63.4485 254.767 64.2923 253.378C65.136 251.98 65.5536 249.837 65.5451 246.947C65.5451 245.055 65.3533 243.496 64.9698 242.268C64.5863 241.033 64.0536 240.112 63.3718 239.507C62.69 238.902 61.8931 238.599 60.9812 238.599C59.6261 238.599 58.5309 239.286 57.6957 240.658C56.8604 242.021 56.4386 244.118 56.43 246.947C56.4215 248.865 56.6048 250.455 56.9798 251.716C57.3633 252.977 57.9002 253.919 58.5906 254.541C59.2809 255.155 60.0778 255.462 60.9812 255.462Z" fill="#512E0A"/>
<g filter="url(#filter1_ddd_4036_9149)">
<rect x="65" y="305" width="248" height="248" rx="8" fill="url(#paint1_linear_4036_9149)"/>
</g>
<g clip-path="url(#clip1_4036_9149)">
<g opacity="0.7">
<mask id="mask1_4036_9149" style="mask-type:alpha" maskUnits="userSpaceOnUse" x="65" y="305" width="248" height="248">
<rect x="65" y="305" width="248" height="248" rx="8" fill="white"/>
</mask>
<g mask="url(#mask1_4036_9149)">
<circle cx="128" cy="128" r="127.5" transform="matrix(0.258819 0.965926 0.965926 -0.258819 105.664 277.465)" stroke="white" stroke-opacity="0.36"/>
<circle cx="163.5" cy="163.5" r="163" transform="matrix(0.258819 0.965926 0.965926 -0.258819 88 265.634)" stroke="white" stroke-opacity="0.36"/>
<circle cx="101.5" cy="101.5" r="101" transform="matrix(0.258819 0.965926 0.965926 -0.258819 132.142 279.688)" stroke="white" stroke-opacity="0.36"/>
<circle cx="80" cy="80" r="79.5" transform="matrix(0.258819 0.965926 0.965926 -0.258819 173.727 257.157)" stroke="white" stroke-opacity="0.36"/>
</g>
</g>
</g>
<path d="M81.8906 534V520.182H87.8551C88.8807 520.182 89.7781 520.384 90.5472 520.789C91.3164 521.194 91.9147 521.763 92.342 522.496C92.7693 523.229 92.983 524.086 92.983 525.067C92.983 526.056 92.7625 526.913 92.3217 527.637C91.8854 528.362 91.2714 528.919 90.4798 529.311C89.6926 529.702 88.7727 529.898 87.7202 529.898H84.1577V526.983H86.9645C87.4053 526.983 87.7809 526.906 88.0913 526.754C88.4061 526.596 88.6468 526.373 88.8132 526.086C88.9841 525.798 89.0696 525.458 89.0696 525.067C89.0696 524.671 88.9841 524.334 88.8132 524.055C88.6468 523.771 88.4061 523.555 88.0913 523.407C87.7809 523.254 87.4053 523.178 86.9645 523.178H85.642V534H81.8906ZM94.4134 534V523.636H98.0298V525.607H98.1378C98.3267 524.878 98.6258 524.345 99.0352 524.007C99.449 523.67 99.9325 523.501 100.486 523.501C100.648 523.501 100.807 523.515 100.965 523.542C101.127 523.564 101.282 523.598 101.43 523.643V526.821C101.246 526.758 101.019 526.711 100.749 526.679C100.479 526.648 100.247 526.632 100.054 526.632C99.6896 526.632 99.3613 526.715 99.0689 526.882C98.781 527.044 98.5539 527.273 98.3874 527.57C98.221 527.862 98.1378 528.206 98.1378 528.602V534H94.4134ZM105.057 534.162C104.396 534.162 103.811 534.054 103.303 533.838C102.799 533.618 102.403 533.285 102.115 532.839C101.827 532.394 101.683 531.827 101.683 531.139C101.683 530.572 101.78 530.089 101.974 529.689C102.167 529.284 102.437 528.953 102.783 528.697C103.13 528.44 103.532 528.245 103.991 528.11C104.454 527.975 104.954 527.887 105.489 527.847C106.069 527.802 106.535 527.748 106.885 527.685C107.241 527.617 107.497 527.525 107.655 527.408C107.812 527.287 107.891 527.127 107.891 526.929V526.902C107.891 526.632 107.787 526.425 107.58 526.281C107.374 526.137 107.108 526.065 106.784 526.065C106.429 526.065 106.139 526.144 105.914 526.301C105.693 526.454 105.561 526.691 105.516 527.01H102.088C102.133 526.38 102.333 525.8 102.689 525.269C103.049 524.734 103.573 524.307 104.261 523.987C104.949 523.663 105.808 523.501 106.838 523.501C107.58 523.501 108.246 523.589 108.835 523.765C109.425 523.935 109.926 524.176 110.34 524.487C110.754 524.792 111.069 525.152 111.285 525.566C111.505 525.975 111.615 526.421 111.615 526.902V534H108.134V532.543H108.053C107.846 532.929 107.594 533.242 107.297 533.48C107.005 533.719 106.67 533.892 106.292 534C105.918 534.108 105.507 534.162 105.057 534.162ZM106.271 531.814C106.555 531.814 106.82 531.755 107.068 531.638C107.32 531.522 107.524 531.353 107.682 531.132C107.839 530.912 107.918 530.644 107.918 530.33V529.466C107.819 529.506 107.713 529.545 107.601 529.581C107.493 529.617 107.376 529.65 107.25 529.682C107.128 529.713 106.998 529.743 106.858 529.77C106.724 529.797 106.582 529.821 106.433 529.844C106.146 529.889 105.909 529.963 105.725 530.066C105.545 530.165 105.41 530.289 105.32 530.438C105.235 530.581 105.192 530.743 105.192 530.923C105.192 531.211 105.293 531.432 105.496 531.585C105.698 531.737 105.957 531.814 106.271 531.814ZM119.575 523.636V526.335H112.747V523.636H119.575ZM114.07 521.153H117.794V530.667C117.794 530.811 117.819 530.932 117.868 531.031C117.918 531.126 117.994 531.198 118.098 531.247C118.201 531.292 118.334 531.315 118.496 531.315C118.608 531.315 118.739 531.301 118.887 531.274C119.04 531.247 119.152 531.225 119.224 531.207L119.764 533.825C119.598 533.874 119.359 533.935 119.049 534.007C118.743 534.079 118.379 534.126 117.956 534.148C117.101 534.193 116.384 534.106 115.804 533.885C115.223 533.66 114.787 533.307 114.495 532.826C114.202 532.345 114.061 531.742 114.07 531.018V521.153ZM123.983 534.162C123.322 534.162 122.737 534.054 122.229 533.838C121.725 533.618 121.329 533.285 121.041 532.839C120.753 532.394 120.609 531.827 120.609 531.139C120.609 530.572 120.706 530.089 120.899 529.689C121.093 529.284 121.363 528.953 121.709 528.697C122.055 528.44 122.458 528.245 122.917 528.11C123.38 527.975 123.879 527.887 124.415 527.847C124.995 527.802 125.46 527.748 125.811 527.685C126.167 527.617 126.423 527.525 126.58 527.408C126.738 527.287 126.817 527.127 126.817 526.929V526.902C126.817 526.632 126.713 526.425 126.506 526.281C126.299 526.137 126.034 526.065 125.71 526.065C125.355 526.065 125.065 526.144 124.84 526.301C124.619 526.454 124.487 526.691 124.442 527.01H121.014C121.059 526.38 121.259 525.8 121.615 525.269C121.974 524.734 122.498 524.307 123.187 523.987C123.875 523.663 124.734 523.501 125.764 523.501C126.506 523.501 127.172 523.589 127.761 523.765C128.35 523.935 128.852 524.176 129.266 524.487C129.68 524.792 129.994 525.152 130.21 525.566C130.431 525.975 130.541 526.421 130.541 526.902V534H127.059V532.543H126.979C126.772 532.929 126.52 533.242 126.223 533.48C125.93 533.719 125.595 533.892 125.218 534C124.844 534.108 124.433 534.162 123.983 534.162ZM125.197 531.814C125.481 531.814 125.746 531.755 125.993 531.638C126.245 531.522 126.45 531.353 126.607 531.132C126.765 530.912 126.844 530.644 126.844 530.33V529.466C126.745 529.506 126.639 529.545 126.526 529.581C126.419 529.617 126.302 529.65 126.176 529.682C126.054 529.713 125.924 529.743 125.784 529.77C125.649 529.797 125.508 529.821 125.359 529.844C125.071 529.889 124.835 529.963 124.651 530.066C124.471 530.165 124.336 530.289 124.246 530.438C124.16 530.581 124.118 530.743 124.118 530.923C124.118 531.211 124.219 531.432 124.421 531.585C124.624 531.737 124.882 531.814 125.197 531.814Z" fill="#484848"/>
<path d="M87.8011 334.364C87.7415 333.86 87.4995 333.469 87.0753 333.19C86.651 332.912 86.1307 332.773 85.5142 332.773C85.0634 332.773 84.669 332.846 84.331 332.991C83.9962 333.137 83.7344 333.338 83.5455 333.593C83.3598 333.848 83.267 334.138 83.267 334.463C83.267 334.735 83.3317 334.969 83.4609 335.164C83.5935 335.356 83.7625 335.517 83.968 335.646C84.1735 335.772 84.389 335.877 84.6143 335.96C84.8397 336.039 85.0469 336.104 85.2358 336.153L86.2699 336.432C86.535 336.501 86.83 336.598 87.1548 336.72C87.483 336.843 87.7962 337.01 88.0945 337.222C88.3961 337.431 88.6446 337.7 88.8402 338.028C89.0357 338.356 89.1335 338.759 89.1335 339.236C89.1335 339.786 88.9893 340.283 88.701 340.727C88.416 341.171 87.9983 341.524 87.4482 341.786C86.9013 342.048 86.2367 342.179 85.4545 342.179C84.7254 342.179 84.094 342.061 83.5604 341.826C83.0301 341.591 82.6125 341.263 82.3075 340.842C82.0059 340.421 81.8352 339.932 81.7955 339.375H83.0682C83.1013 339.759 83.2306 340.078 83.456 340.33C83.6847 340.578 83.973 340.764 84.321 340.886C84.6723 341.006 85.0502 341.065 85.4545 341.065C85.9252 341.065 86.3478 340.989 86.7223 340.837C87.0968 340.681 87.3935 340.465 87.6122 340.19C87.831 339.912 87.9403 339.587 87.9403 339.216C87.9403 338.878 87.8459 338.603 87.657 338.391C87.468 338.179 87.2195 338.006 86.9112 337.874C86.603 337.741 86.2699 337.625 85.9119 337.526L84.6591 337.168C83.8636 336.939 83.2339 336.612 82.7699 336.188C82.3059 335.764 82.0739 335.209 82.0739 334.523C82.0739 333.953 82.228 333.455 82.5362 333.031C82.8478 332.604 83.2654 332.272 83.7891 332.037C84.3161 331.798 84.9044 331.679 85.554 331.679C86.2102 331.679 86.7936 331.797 87.304 332.032C87.8144 332.264 88.2188 332.582 88.517 332.987C88.8187 333.391 88.9777 333.85 88.9943 334.364H87.8011ZM94.2033 342.159C93.4675 342.159 92.8328 341.997 92.2992 341.672C91.7689 341.344 91.3596 340.886 91.0712 340.3C90.7862 339.71 90.6436 339.024 90.6436 338.241C90.6436 337.459 90.7862 336.77 91.0712 336.173C91.3596 335.573 91.7606 335.106 92.2743 334.771C92.7914 334.433 93.3946 334.264 94.084 334.264C94.4817 334.264 94.8745 334.33 95.2623 334.463C95.65 334.596 96.003 334.811 96.3212 335.109C96.6394 335.404 96.8929 335.795 97.0819 336.283C97.2708 336.77 97.3652 337.37 97.3652 338.082V338.58H91.4789V337.565H96.1721C96.1721 337.134 96.0859 336.75 95.9135 336.412C95.7445 336.074 95.5025 335.807 95.1877 335.612C94.8761 335.416 94.5082 335.318 94.084 335.318C93.6167 335.318 93.2123 335.434 92.8709 335.666C92.5328 335.895 92.2727 336.193 92.0904 336.561C91.9081 336.929 91.8169 337.323 91.8169 337.744V338.42C91.8169 338.997 91.9164 339.486 92.1152 339.887C92.3174 340.285 92.5975 340.588 92.9554 340.797C93.3134 341.002 93.7293 341.105 94.2033 341.105C94.5115 341.105 94.79 341.062 95.0385 340.976C95.2904 340.886 95.5075 340.754 95.6898 340.578C95.8721 340.399 96.013 340.177 96.1124 339.912L97.2459 340.23C97.1266 340.615 96.9261 340.953 96.6444 341.244C96.3626 341.533 96.0146 341.758 95.6003 341.92C95.186 342.08 94.7203 342.159 94.2033 342.159ZM100.323 331.818V342H99.15V331.818H100.323ZM105.575 342.159C104.885 342.159 104.28 341.995 103.76 341.667C103.243 341.339 102.839 340.88 102.547 340.29C102.259 339.7 102.114 339.01 102.114 338.222C102.114 337.426 102.259 336.732 102.547 336.138C102.839 335.545 103.243 335.085 103.76 334.756C104.28 334.428 104.885 334.264 105.575 334.264C106.264 334.264 106.867 334.428 107.384 334.756C107.905 335.085 108.309 335.545 108.597 336.138C108.889 336.732 109.035 337.426 109.035 338.222C109.035 339.01 108.889 339.7 108.597 340.29C108.309 340.88 107.905 341.339 107.384 341.667C106.867 341.995 106.264 342.159 105.575 342.159ZM105.575 341.105C106.098 341.105 106.529 340.971 106.867 340.702C107.205 340.434 107.455 340.081 107.618 339.643C107.78 339.206 107.862 338.732 107.862 338.222C107.862 337.711 107.78 337.236 107.618 336.795C107.455 336.354 107.205 335.998 106.867 335.726C106.529 335.454 106.098 335.318 105.575 335.318C105.051 335.318 104.62 335.454 104.282 335.726C103.944 335.998 103.694 336.354 103.531 336.795C103.369 337.236 103.288 337.711 103.288 338.222C103.288 338.732 103.369 339.206 103.531 339.643C103.694 340.081 103.944 340.434 104.282 340.702C104.62 340.971 105.051 341.105 105.575 341.105ZM114.366 332.912V331.818H122.002V332.912H118.8V342H117.567V332.912H114.366ZM124.919 337.406V342H123.746V331.818H124.919V335.557H125.018C125.197 335.162 125.466 334.849 125.824 334.617C126.185 334.382 126.666 334.264 127.266 334.264C127.786 334.264 128.242 334.369 128.633 334.577C129.024 334.783 129.327 335.099 129.543 335.527C129.761 335.951 129.871 336.491 129.871 337.148V342H128.697V337.227C128.697 336.621 128.54 336.152 128.225 335.82C127.914 335.486 127.481 335.318 126.928 335.318C126.543 335.318 126.198 335.399 125.893 335.562C125.592 335.724 125.353 335.961 125.178 336.273C125.005 336.584 124.919 336.962 124.919 337.406ZM132.017 342V334.364H133.191V342H132.017ZM132.614 333.091C132.385 333.091 132.188 333.013 132.022 332.857C131.86 332.701 131.779 332.514 131.779 332.295C131.779 332.077 131.86 331.889 132.022 331.734C132.188 331.578 132.385 331.5 132.614 331.5C132.843 331.5 133.038 331.578 133.2 331.734C133.366 331.889 133.449 332.077 133.449 332.295C133.449 332.514 133.366 332.701 133.2 332.857C133.038 333.013 132.843 333.091 132.614 333.091ZM136.513 337.406V342H135.339V334.364H136.473V335.557H136.572C136.751 335.169 137.023 334.857 137.388 334.622C137.752 334.384 138.223 334.264 138.8 334.264C139.317 334.264 139.769 334.37 140.157 334.582C140.545 334.791 140.846 335.109 141.062 335.537C141.277 335.961 141.385 336.498 141.385 337.148V342H140.212V337.227C140.212 336.627 140.056 336.16 139.744 335.825C139.433 335.487 139.005 335.318 138.462 335.318C138.087 335.318 137.752 335.399 137.457 335.562C137.166 335.724 136.935 335.961 136.766 336.273C136.597 336.584 136.513 336.962 136.513 337.406ZM144.623 339.216L144.603 337.764H144.841L148.182 334.364H149.634L146.074 337.963H145.975L144.623 339.216ZM143.529 342V331.818H144.702V342H143.529ZM148.381 342L145.398 338.222L146.233 337.406L149.873 342H148.381ZM156.871 334.364C156.812 333.86 156.57 333.469 156.146 333.19C155.721 332.912 155.201 332.773 154.585 332.773C154.134 332.773 153.739 332.846 153.401 332.991C153.067 333.137 152.805 333.338 152.616 333.593C152.43 333.848 152.337 334.138 152.337 334.463C152.337 334.735 152.402 334.969 152.531 335.164C152.664 335.356 152.833 335.517 153.038 335.646C153.244 335.772 153.459 335.877 153.685 335.96C153.91 336.039 154.117 336.104 154.306 336.153L155.34 336.432C155.605 336.501 155.9 336.598 156.225 336.72C156.553 336.843 156.866 337.01 157.165 337.222C157.466 337.431 157.715 337.7 157.911 338.028C158.106 338.356 158.204 338.759 158.204 339.236C158.204 339.786 158.06 340.283 157.771 340.727C157.486 341.171 157.069 341.524 156.518 341.786C155.972 342.048 155.307 342.179 154.525 342.179C153.796 342.179 153.164 342.061 152.631 341.826C152.1 341.591 151.683 341.263 151.378 340.842C151.076 340.421 150.906 339.932 150.866 339.375H152.138C152.172 339.759 152.301 340.078 152.526 340.33C152.755 340.578 153.043 340.764 153.391 340.886C153.743 341.006 154.121 341.065 154.525 341.065C154.996 341.065 155.418 340.989 155.793 340.837C156.167 340.681 156.464 340.465 156.683 340.19C156.901 339.912 157.011 339.587 157.011 339.216C157.011 338.878 156.916 338.603 156.727 338.391C156.538 338.179 156.29 338.006 155.982 337.874C155.673 337.741 155.34 337.625 154.982 337.526L153.729 337.168C152.934 336.939 152.304 336.612 151.84 336.188C151.376 335.764 151.144 335.209 151.144 334.523C151.144 333.953 151.298 333.455 151.607 333.031C151.918 332.604 152.336 332.272 152.859 332.037C153.386 331.798 153.975 331.679 154.624 331.679C155.281 331.679 155.864 331.797 156.374 332.032C156.885 332.264 157.289 332.582 157.587 332.987C157.889 333.391 158.048 333.85 158.065 334.364H156.871ZM164.884 338.878V334.364H166.058V342H164.884V340.707H164.805C164.626 341.095 164.347 341.425 163.97 341.697C163.592 341.965 163.115 342.099 162.538 342.099C162.061 342.099 161.636 341.995 161.265 341.786C160.894 341.574 160.602 341.256 160.39 340.832C160.178 340.404 160.072 339.866 160.072 339.216V334.364H161.245V339.136C161.245 339.693 161.401 340.137 161.713 340.469C162.027 340.8 162.428 340.966 162.916 340.966C163.207 340.966 163.504 340.891 163.806 340.742C164.11 340.593 164.366 340.364 164.571 340.056C164.78 339.748 164.884 339.355 164.884 338.878ZM173.616 336.074L172.562 336.372C172.496 336.196 172.398 336.026 172.268 335.86C172.143 335.691 171.97 335.552 171.751 335.442C171.533 335.333 171.253 335.278 170.911 335.278C170.444 335.278 170.054 335.386 169.743 335.602C169.435 335.814 169.281 336.084 169.281 336.412C169.281 336.704 169.387 336.934 169.599 337.103C169.811 337.272 170.142 337.413 170.593 337.526L171.727 337.804C172.409 337.97 172.918 338.223 173.253 338.565C173.588 338.903 173.755 339.339 173.755 339.872C173.755 340.31 173.629 340.701 173.377 341.045C173.129 341.39 172.781 341.662 172.333 341.861C171.886 342.06 171.365 342.159 170.772 342.159C169.993 342.159 169.348 341.99 168.838 341.652C168.328 341.314 168.004 340.82 167.869 340.17L168.982 339.892C169.088 340.303 169.289 340.611 169.584 340.817C169.882 341.022 170.272 341.125 170.752 341.125C171.299 341.125 171.733 341.009 172.055 340.777C172.379 340.542 172.542 340.26 172.542 339.932C172.542 339.667 172.449 339.445 172.263 339.266C172.078 339.083 171.793 338.947 171.408 338.858L170.136 338.56C169.436 338.394 168.923 338.137 168.594 337.789C168.27 337.438 168.107 336.999 168.107 336.472C168.107 336.041 168.228 335.66 168.47 335.328C168.715 334.997 169.049 334.737 169.469 334.548C169.894 334.359 170.374 334.264 170.911 334.264C171.667 334.264 172.26 334.43 172.691 334.761C173.125 335.093 173.433 335.53 173.616 336.074Z" fill="black"/>
<path d="M88.4375 485L114.25 433.875V433.469H84.0625V421H130.25V433.562L104.344 485H88.4375ZM162.383 485.875C157.716 485.875 153.57 485.031 149.945 483.344C146.32 481.656 143.456 479.333 141.352 476.375C139.268 473.417 138.185 470.021 138.102 466.187H153.102C153.227 468.542 154.185 470.437 155.977 471.875C157.768 473.292 159.904 474 162.383 474C164.32 474 166.039 473.573 167.539 472.719C169.039 471.865 170.216 470.667 171.07 469.125C171.924 467.562 172.341 465.771 172.32 463.75C172.341 461.687 171.914 459.885 171.039 458.344C170.185 456.802 168.997 455.604 167.477 454.75C165.977 453.875 164.247 453.437 162.289 453.437C160.435 453.417 158.674 453.823 157.008 454.656C155.362 455.49 154.112 456.625 153.258 458.062L139.602 455.5L142.383 421H183.445V433.469H155.102L153.633 448.562H154.008C155.07 446.792 156.779 445.333 159.133 444.187C161.508 443.021 164.206 442.437 167.227 442.437C171.06 442.437 174.477 443.333 177.477 445.125C180.497 446.896 182.872 449.354 184.602 452.5C186.352 455.646 187.227 459.25 187.227 463.312C187.227 467.708 186.185 471.604 184.102 475C182.039 478.396 179.143 481.062 175.414 483C171.706 484.917 167.362 485.875 162.383 485.875Z" fill="#484848"/>
<g filter="url(#filter2_ddd_4036_9149)">
<rect x="137" y="25" width="248" height="248" rx="8" fill="url(#paint2_linear_4036_9149)"/>
</g>
<g clip-path="url(#clip2_4036_9149)">
<g opacity="0.7">
<mask id="mask2_4036_9149" style="mask-type:alpha" maskUnits="userSpaceOnUse" x="137" y="25" width="248" height="248">
<rect x="137" y="25" width="248" height="248" rx="8" fill="white"/>
</mask>
<g mask="url(#mask2_4036_9149)">
<circle cx="128" cy="128" r="127.5" transform="matrix(0.258819 0.965926 0.965926 -0.258819 177.664 -2.53467)" stroke="white" stroke-opacity="0.48"/>
<circle cx="163.5" cy="163.5" r="163" transform="matrix(0.258819 0.965926 0.965926 -0.258819 160 -14.3662)" stroke="white" stroke-opacity="0.48"/>
<circle cx="101.5" cy="101.5" r="101" transform="matrix(0.258819 0.965926 0.965926 -0.258819 204.142 -0.312012)" stroke="white" stroke-opacity="0.48"/>
<circle cx="80" cy="80" r="79.5" transform="matrix(0.258819 0.965926 0.965926 -0.258819 245.727 -22.8428)" stroke="white" stroke-opacity="0.48"/>
</g>
</g>
</g>
<path d="M167.277 247.091C167.277 248.629 166.978 249.927 166.38 250.984C165.781 252.037 164.974 252.835 163.957 253.379C162.941 253.919 161.807 254.189 160.557 254.189C159.297 254.189 158.159 253.917 157.143 253.373C156.131 252.824 155.326 252.023 154.727 250.971C154.134 249.913 153.837 248.62 153.837 247.091C153.837 245.553 154.134 244.257 154.727 243.205C155.326 242.147 156.131 241.349 157.143 240.809C158.159 240.265 159.297 239.993 160.557 239.993C161.807 239.993 162.941 240.265 163.957 240.809C164.974 241.349 165.781 242.147 166.38 243.205C166.978 244.257 167.277 245.553 167.277 247.091ZM163.418 247.091C163.418 246.263 163.307 245.566 163.087 244.999C162.871 244.428 162.549 243.996 162.122 243.704C161.699 243.407 161.178 243.259 160.557 243.259C159.936 243.259 159.412 243.407 158.985 243.704C158.562 243.996 158.24 244.428 158.02 244.999C157.804 245.566 157.696 246.263 157.696 247.091C157.696 247.919 157.804 248.618 158.02 249.189C158.24 249.756 158.562 250.188 158.985 250.485C159.412 250.777 159.936 250.923 160.557 250.923C161.178 250.923 161.699 250.777 162.122 250.485C162.549 250.188 162.871 249.756 163.087 249.189C163.307 248.618 163.418 247.919 163.418 247.091ZM175.787 249.466V243.636H179.511V254H175.976V252.03H175.868C175.643 252.691 175.249 253.208 174.687 253.582C174.125 253.951 173.457 254.135 172.683 254.135C171.959 254.135 171.325 253.969 170.78 253.636C170.241 253.303 169.82 252.844 169.519 252.259C169.222 251.674 169.071 251.004 169.067 250.249V243.636H172.791V249.466C172.796 249.979 172.926 250.381 173.182 250.674C173.443 250.966 173.808 251.112 174.275 251.112C174.586 251.112 174.853 251.047 175.078 250.917C175.308 250.782 175.483 250.593 175.605 250.35C175.731 250.102 175.791 249.808 175.787 249.466ZM181.406 254V243.636H185.022V245.607H185.13C185.319 244.878 185.618 244.345 186.027 244.007C186.441 243.67 186.925 243.501 187.478 243.501C187.64 243.501 187.8 243.515 187.957 243.542C188.119 243.564 188.274 243.598 188.423 243.643V246.821C188.238 246.758 188.011 246.711 187.741 246.679C187.471 246.648 187.24 246.632 187.046 246.632C186.682 246.632 186.353 246.715 186.061 246.882C185.773 247.044 185.546 247.273 185.38 247.57C185.213 247.862 185.13 248.206 185.13 248.602V254H181.406ZM194.043 254.189C192.918 254.189 191.956 253.966 191.155 253.521C190.355 253.071 189.741 252.446 189.313 251.645C188.886 250.84 188.672 249.907 188.672 248.845C188.672 247.784 188.886 246.853 189.313 246.052C189.741 245.247 190.355 244.621 191.155 244.176C191.956 243.726 192.918 243.501 194.043 243.501C195.167 243.501 196.13 243.726 196.931 244.176C197.731 244.621 198.345 245.247 198.773 246.052C199.2 246.853 199.414 247.784 199.414 248.845C199.414 249.907 199.2 250.84 198.773 251.645C198.345 252.446 197.731 253.071 196.931 253.521C196.13 253.966 195.167 254.189 194.043 254.189ZM194.07 251.436C194.385 251.436 194.657 251.33 194.886 251.119C195.116 250.908 195.293 250.606 195.419 250.215C195.545 249.824 195.608 249.358 195.608 248.818C195.608 248.274 195.545 247.808 195.419 247.422C195.293 247.03 195.116 246.729 194.886 246.517C194.657 246.306 194.385 246.2 194.07 246.2C193.737 246.2 193.451 246.306 193.213 246.517C192.975 246.729 192.792 247.03 192.667 247.422C192.541 247.808 192.478 248.274 192.478 248.818C192.478 249.358 192.541 249.824 192.667 250.215C192.792 250.606 192.975 250.908 193.213 251.119C193.451 251.33 193.737 251.436 194.07 251.436Z" fill="#6F4F18"/>
<path d="M159.801 47.3636C159.741 46.8598 159.5 46.4688 159.075 46.1903C158.651 45.9119 158.131 45.7727 157.514 45.7727C157.063 45.7727 156.669 45.8456 156.331 45.9915C155.996 46.1373 155.734 46.3378 155.545 46.593C155.36 46.8482 155.267 47.1383 155.267 47.4631C155.267 47.7348 155.332 47.9685 155.461 48.1641C155.594 48.3563 155.763 48.517 155.968 48.6463C156.174 48.7723 156.389 48.8767 156.614 48.9595C156.84 49.0391 157.047 49.1037 157.236 49.1534L158.27 49.4318C158.535 49.5014 158.83 49.5975 159.155 49.7202C159.483 49.8428 159.796 50.0102 160.094 50.2223C160.396 50.4311 160.645 50.6996 160.84 51.0277C161.036 51.3558 161.134 51.7585 161.134 52.2358C161.134 52.786 160.989 53.2831 160.701 53.7273C160.416 54.1714 159.998 54.5244 159.448 54.7862C158.901 55.0481 158.237 55.179 157.455 55.179C156.725 55.179 156.094 55.0613 155.56 54.826C155.03 54.5907 154.612 54.2625 154.308 53.8416C154.006 53.4207 153.835 52.9318 153.795 52.375H155.068C155.101 52.7595 155.231 53.0777 155.456 53.3295C155.685 53.5781 155.973 53.7637 156.321 53.8864C156.672 54.0057 157.05 54.0653 157.455 54.0653C157.925 54.0653 158.348 53.9891 158.722 53.8366C159.097 53.6809 159.393 53.4654 159.612 53.1903C159.831 52.9119 159.94 52.5871 159.94 52.2159C159.94 51.8778 159.846 51.6027 159.657 51.3906C159.468 51.1785 159.219 51.0062 158.911 50.8736C158.603 50.741 158.27 50.625 157.912 50.5256L156.659 50.1676C155.864 49.9389 155.234 49.6125 154.77 49.1882C154.306 48.764 154.074 48.2088 154.074 47.5227C154.074 46.9527 154.228 46.4555 154.536 46.0312C154.848 45.6037 155.265 45.2723 155.789 45.0369C156.316 44.7983 156.904 44.679 157.554 44.679C158.21 44.679 158.794 44.7966 159.304 45.032C159.814 45.264 160.219 45.5821 160.517 45.9865C160.819 46.3909 160.978 46.8499 160.994 47.3636H159.801ZM166.203 55.1591C165.468 55.1591 164.833 54.9967 164.299 54.6719C163.769 54.3438 163.36 53.8864 163.071 53.2997C162.786 52.7098 162.644 52.0237 162.644 51.2415C162.644 50.4593 162.786 49.7699 163.071 49.1733C163.36 48.5734 163.761 48.1061 164.274 47.7713C164.791 47.4332 165.395 47.2642 166.084 47.2642C166.482 47.2642 166.874 47.3305 167.262 47.4631C167.65 47.5956 168.003 47.8111 168.321 48.1094C168.639 48.4044 168.893 48.7955 169.082 49.2827C169.271 49.7699 169.365 50.3698 169.365 51.0824V51.5795H163.479V50.5653H168.172C168.172 50.1345 168.086 49.75 167.914 49.4119C167.744 49.0739 167.503 48.8071 167.188 48.6115C166.876 48.416 166.508 48.3182 166.084 48.3182C165.617 48.3182 165.212 48.4342 164.871 48.6662C164.533 48.8949 164.273 49.1932 164.09 49.5611C163.908 49.929 163.817 50.3234 163.817 50.7443V51.4205C163.817 51.9972 163.916 52.486 164.115 52.8871C164.317 53.2848 164.597 53.5881 164.955 53.7969C165.313 54.0024 165.729 54.1051 166.203 54.1051C166.512 54.1051 166.79 54.062 167.039 53.9759C167.29 53.8864 167.508 53.7538 167.69 53.5781C167.872 53.3991 168.013 53.1771 168.112 52.9119L169.246 53.2301C169.127 53.6146 168.926 53.9527 168.644 54.2443C168.363 54.5327 168.015 54.758 167.6 54.9205C167.186 55.0795 166.72 55.1591 166.203 55.1591ZM172.323 44.8182V55H171.15V44.8182H172.323ZM177.575 55.1591C176.885 55.1591 176.28 54.995 175.76 54.6669C175.243 54.3388 174.839 53.8797 174.547 53.2898C174.259 52.6998 174.114 52.0104 174.114 51.2216C174.114 50.4261 174.259 49.7318 174.547 49.1385C174.839 48.5452 175.243 48.0845 175.76 47.7564C176.28 47.4283 176.885 47.2642 177.575 47.2642C178.264 47.2642 178.867 47.4283 179.384 47.7564C179.905 48.0845 180.309 48.5452 180.597 49.1385C180.889 49.7318 181.035 50.4261 181.035 51.2216C181.035 52.0104 180.889 52.6998 180.597 53.2898C180.309 53.8797 179.905 54.3388 179.384 54.6669C178.867 54.995 178.264 55.1591 177.575 55.1591ZM177.575 54.1051C178.098 54.1051 178.529 53.9709 178.867 53.7024C179.205 53.4339 179.455 53.081 179.618 52.6435C179.78 52.206 179.862 51.732 179.862 51.2216C179.862 50.7112 179.78 50.2356 179.618 49.7947C179.455 49.3539 179.205 48.9976 178.867 48.7259C178.529 48.4541 178.098 48.3182 177.575 48.3182C177.051 48.3182 176.62 48.4541 176.282 48.7259C175.944 48.9976 175.694 49.3539 175.531 49.7947C175.369 50.2356 175.288 50.7112 175.288 51.2216C175.288 51.732 175.369 52.206 175.531 52.6435C175.694 53.081 175.944 53.4339 176.282 53.7024C176.62 53.9709 177.051 54.1051 177.575 54.1051ZM186.366 45.9119V44.8182H194.002V45.9119H190.8V55H189.567V45.9119H186.366ZM196.919 50.4062V55H195.746V44.8182H196.919V48.5568H197.018C197.197 48.1624 197.466 47.8492 197.824 47.6172C198.185 47.3819 198.666 47.2642 199.266 47.2642C199.786 47.2642 200.242 47.3686 200.633 47.5774C201.024 47.7829 201.327 48.0994 201.543 48.527C201.761 48.9512 201.871 49.4915 201.871 50.1477V55H200.697V50.2273C200.697 49.6207 200.54 49.1518 200.225 48.8203C199.914 48.4856 199.481 48.3182 198.928 48.3182C198.543 48.3182 198.198 48.3994 197.893 48.5618C197.592 48.7242 197.353 48.9612 197.178 49.2727C197.005 49.5843 196.919 49.9621 196.919 50.4062ZM204.017 55V47.3636H205.191V55H204.017ZM204.614 46.0909C204.385 46.0909 204.188 46.013 204.022 45.8572C203.86 45.7015 203.779 45.5142 203.779 45.2955C203.779 45.0767 203.86 44.8894 204.022 44.7337C204.188 44.5779 204.385 44.5 204.614 44.5C204.843 44.5 205.038 44.5779 205.2 44.7337C205.366 44.8894 205.449 45.0767 205.449 45.2955C205.449 45.5142 205.366 45.7015 205.2 45.8572C205.038 46.013 204.843 46.0909 204.614 46.0909ZM208.513 50.4062V55H207.339V47.3636H208.473V48.5568H208.572C208.751 48.169 209.023 47.8575 209.388 47.6222C209.752 47.3835 210.223 47.2642 210.8 47.2642C211.317 47.2642 211.769 47.3703 212.157 47.5824C212.545 47.7912 212.846 48.1094 213.062 48.5369C213.277 48.9612 213.385 49.4981 213.385 50.1477V55H212.212V50.2273C212.212 49.6274 212.056 49.16 211.744 48.8253C211.433 48.4872 211.005 48.3182 210.462 48.3182C210.087 48.3182 209.752 48.3994 209.457 48.5618C209.166 48.7242 208.935 48.9612 208.766 49.2727C208.597 49.5843 208.513 49.9621 208.513 50.4062ZM216.623 52.2159L216.603 50.7642H216.841L220.182 47.3636H221.634L218.074 50.9631H217.975L216.623 52.2159ZM215.529 55V44.8182H216.702V55H215.529ZM220.381 55L217.398 51.2216L218.233 50.4062L221.873 55H220.381ZM228.871 47.3636C228.812 46.8598 228.57 46.4688 228.146 46.1903C227.721 45.9119 227.201 45.7727 226.585 45.7727C226.134 45.7727 225.739 45.8456 225.401 45.9915C225.067 46.1373 224.805 46.3378 224.616 46.593C224.43 46.8482 224.337 47.1383 224.337 47.4631C224.337 47.7348 224.402 47.9685 224.531 48.1641C224.664 48.3563 224.833 48.517 225.038 48.6463C225.244 48.7723 225.459 48.8767 225.685 48.9595C225.91 49.0391 226.117 49.1037 226.306 49.1534L227.34 49.4318C227.605 49.5014 227.9 49.5975 228.225 49.7202C228.553 49.8428 228.866 50.0102 229.165 50.2223C229.466 50.4311 229.715 50.6996 229.911 51.0277C230.106 51.3558 230.204 51.7585 230.204 52.2358C230.204 52.786 230.06 53.2831 229.771 53.7273C229.486 54.1714 229.069 54.5244 228.518 54.7862C227.972 55.0481 227.307 55.179 226.525 55.179C225.796 55.179 225.164 55.0613 224.631 54.826C224.1 54.5907 223.683 54.2625 223.378 53.8416C223.076 53.4207 222.906 52.9318 222.866 52.375H224.138C224.172 52.7595 224.301 53.0777 224.526 53.3295C224.755 53.5781 225.043 53.7637 225.391 53.8864C225.743 54.0057 226.121 54.0653 226.525 54.0653C226.996 54.0653 227.418 53.9891 227.793 53.8366C228.167 53.6809 228.464 53.4654 228.683 53.1903C228.901 52.9119 229.011 52.5871 229.011 52.2159C229.011 51.8778 228.916 51.6027 228.727 51.3906C228.538 51.1785 228.29 51.0062 227.982 50.8736C227.673 50.741 227.34 50.625 226.982 50.5256L225.729 50.1676C224.934 49.9389 224.304 49.6125 223.84 49.1882C223.376 48.764 223.144 48.2088 223.144 47.5227C223.144 46.9527 223.298 46.4555 223.607 46.0312C223.918 45.6037 224.336 45.2723 224.859 45.0369C225.386 44.7983 225.975 44.679 226.624 44.679C227.281 44.679 227.864 44.7966 228.374 45.032C228.885 45.264 229.289 45.5821 229.587 45.9865C229.889 46.3909 230.048 46.8499 230.065 47.3636H228.871ZM236.884 51.8778V47.3636H238.058V55H236.884V53.7074H236.805C236.626 54.0952 236.347 54.425 235.97 54.6967C235.592 54.9652 235.115 55.0994 234.538 55.0994C234.061 55.0994 233.636 54.995 233.265 54.7862C232.894 54.5741 232.602 54.2559 232.39 53.8317C232.178 53.4041 232.072 52.8655 232.072 52.2159V47.3636H233.245V52.1364C233.245 52.6932 233.401 53.1373 233.713 53.4688C234.027 53.8002 234.428 53.9659 234.916 53.9659C235.207 53.9659 235.504 53.8913 235.806 53.7422C236.11 53.593 236.366 53.3643 236.571 53.0561C236.78 52.7479 236.884 52.3551 236.884 51.8778ZM245.616 49.0739L244.562 49.3722C244.496 49.1965 244.398 49.0258 244.268 48.8601C244.143 48.6911 243.97 48.5518 243.751 48.4425C243.533 48.3331 243.253 48.2784 242.911 48.2784C242.444 48.2784 242.054 48.3861 241.743 48.6016C241.435 48.8137 241.281 49.0838 241.281 49.4119C241.281 49.7036 241.387 49.9339 241.599 50.103C241.811 50.272 242.142 50.4129 242.593 50.5256L243.727 50.804C244.409 50.9697 244.918 51.2232 245.253 51.5646C245.588 51.9027 245.755 52.3385 245.755 52.8722C245.755 53.3097 245.629 53.7008 245.377 54.0455C245.129 54.3902 244.781 54.6619 244.333 54.8608C243.886 55.0597 243.365 55.1591 242.772 55.1591C241.993 55.1591 241.348 54.9901 240.838 54.652C240.328 54.3139 240.004 53.8201 239.869 53.1705L240.982 52.892C241.088 53.303 241.289 53.6113 241.584 53.8168C241.882 54.0223 242.272 54.125 242.752 54.125C243.299 54.125 243.733 54.009 244.055 53.777C244.379 53.5417 244.542 53.2599 244.542 52.9318C244.542 52.6667 244.449 52.4446 244.263 52.2656C244.078 52.0833 243.793 51.9474 243.408 51.858L242.136 51.5597C241.436 51.3939 240.923 51.1371 240.594 50.7891C240.27 50.4377 240.107 49.9986 240.107 49.4716C240.107 49.0407 240.228 48.6596 240.47 48.3281C240.715 47.9967 241.049 47.7365 241.469 47.5476C241.894 47.3587 242.374 47.2642 242.911 47.2642C243.667 47.2642 244.26 47.4299 244.691 47.7614C245.125 48.0928 245.433 48.5303 245.616 49.0739Z" fill="black"/>
<path d="M185.741 135.278C189.719 135.278 193.518 135.929 197.141 137.232C200.763 138.51 203.994 140.558 206.835 143.375C209.676 146.169 211.913 149.85 213.547 154.419C215.18 158.988 215.997 164.563 215.997 171.145C216.021 177.205 215.311 182.639 213.866 187.445C212.422 192.227 210.351 196.299 207.652 199.661C204.977 203.022 201.757 205.591 197.993 207.366C194.229 209.118 190.027 209.994 185.386 209.994C180.273 209.994 175.763 209.012 171.857 207.047C167.974 205.058 164.861 202.383 162.517 199.021C160.197 195.66 158.812 191.895 158.362 187.729H175.656C176.201 190.143 177.349 191.966 179.101 193.197C180.853 194.405 182.948 195.009 185.386 195.009C189.837 195.009 193.163 193.079 195.365 189.22C197.567 185.361 198.668 180.117 198.668 173.489H198.241C197.223 175.667 195.779 177.537 193.909 179.099C192.063 180.662 189.92 181.857 187.482 182.686C185.043 183.515 182.474 183.929 179.776 183.929C175.42 183.929 171.572 182.935 168.234 180.946C164.92 178.957 162.316 176.223 160.422 172.743C158.552 169.263 157.605 165.286 157.581 160.811C157.557 155.792 158.729 151.365 161.097 147.53C163.464 143.671 166.767 140.664 171.004 138.51C175.242 136.332 180.154 135.255 185.741 135.278ZM185.848 148.773C183.67 148.773 181.729 149.282 180.024 150.3C178.343 151.318 177.018 152.691 176.047 154.419C175.076 156.147 174.603 158.089 174.626 160.243C174.65 162.397 175.135 164.339 176.082 166.067C177.053 167.795 178.367 169.168 180.024 170.186C181.705 171.204 183.623 171.713 185.777 171.713C187.387 171.713 188.878 171.417 190.251 170.825C191.625 170.233 192.82 169.417 193.838 168.375C194.856 167.31 195.649 166.079 196.217 164.682C196.809 163.285 197.093 161.794 197.07 160.207C197.046 158.1 196.549 156.183 195.578 154.455C194.607 152.726 193.27 151.353 191.565 150.335C189.884 149.294 187.979 148.773 185.848 148.773ZM259.277 136.273V209H241.734V152.679H241.308L225.044 162.622V147.423L242.977 136.273H259.277Z" fill="#6F4F18"/>
<defs>
<filter id="filter0_ddd_4036_9149" x="0.225807" y="174.516" width="137.548" height="137.548" filterUnits="userSpaceOnUse" color-interpolation-filters="sRGB">
<feFlood flood-opacity="0" result="BackgroundImageFix"/>
<feColorMatrix in="SourceAlpha" type="matrix" values="0 0 0 0 0 0 0 0 0 0 0 0 0 0 0 0 0 0 127 0" result="hardAlpha"/>
<feOffset dy="6.29032"/>
<feGaussianBlur stdDeviation="8.3871"/>
<feColorMatrix type="matrix" values="0 0 0 0 0 0 0 0 0 0 0 0 0 0 0 0 0 0 0.4 0"/>
<feBlend mode="normal" in2="BackgroundImageFix" result="effect1_dropShadow_4036_9149"/>
<feColorMatrix in="SourceAlpha" type="matrix" values="0 0 0 0 0 0 0 0 0 0 0 0 0 0 0 0 0 0 127 0" result="hardAlpha"/>
<feOffset dy="2.09677"/>
<feGaussianBlur stdDeviation="2.09677"/>
<feColorMatrix type="matrix" values="0 0 0 0 0 0 0 0 0 0 0 0 0 0 0 0 0 0 0.2 0"/>
<feBlend mode="normal" in2="effect1_dropShadow_4036_9149" result="effect2_dropShadow_4036_9149"/>
<feColorMatrix in="SourceAlpha" type="matrix" values="0 0 0 0 0 0 0 0 0 0 0 0 0 0 0 0 0 0 127 0" result="hardAlpha"/>
<feMorphology radius="0.419355" operator="dilate" in="SourceAlpha" result="effect3_dropShadow_4036_9149"/>
<feOffset/>
<feColorMatrix type="matrix" values="0 0 0 0 0 0 0 0 0 0 0 0 0 0 0 0 0 0 0.1 0"/>
<feBlend mode="normal" in2="effect2_dropShadow_4036_9149" result="effect3_dropShadow_4036_9149"/>
<feBlend mode="normal" in="SourceGraphic" in2="effect3_dropShadow_4036_9149" result="shape"/>
</filter>
<filter id="filter1_ddd_4036_9149" x="25" y="280" width="328" height="328" filterUnits="userSpaceOnUse" color-interpolation-filters="sRGB">
<feFlood flood-opacity="0" result="BackgroundImageFix"/>
<feColorMatrix in="SourceAlpha" type="matrix" values="0 0 0 0 0 0 0 0 0 0 0 0 0 0 0 0 0 0 127 0" result="hardAlpha"/>
<feOffset dy="15"/>
<feGaussianBlur stdDeviation="20"/>
<feColorMatrix type="matrix" values="0 0 0 0 0 0 0 0 0 0 0 0 0 0 0 0 0 0 0.4 0"/>
<feBlend mode="normal" in2="BackgroundImageFix" result="effect1_dropShadow_4036_9149"/>
<feColorMatrix in="SourceAlpha" type="matrix" values="0 0 0 0 0 0 0 0 0 0 0 0 0 0 0 0 0 0 127 0" result="hardAlpha"/>
<feOffset dy="5"/>
<feGaussianBlur stdDeviation="5"/>
<feColorMatrix type="matrix" values="0 0 0 0 0 0 0 0 0 0 0 0 0 0 0 0 0 0 0.2 0"/>
<feBlend mode="normal" in2="effect1_dropShadow_4036_9149" result="effect2_dropShadow_4036_9149"/>
<feColorMatrix in="SourceAlpha" type="matrix" values="0 0 0 0 0 0 0 0 0 0 0 0 0 0 0 0 0 0 127 0" result="hardAlpha"/>
<feMorphology radius="1" operator="dilate" in="SourceAlpha" result="effect3_dropShadow_4036_9149"/>
<feOffset/>
<feColorMatrix type="matrix" values="0 0 0 0 0 0 0 0 0 0 0 0 0 0 0 0 0 0 0.1 0"/>
<feBlend mode="normal" in2="effect2_dropShadow_4036_9149" result="effect3_dropShadow_4036_9149"/>
<feBlend mode="normal" in="SourceGraphic" in2="effect3_dropShadow_4036_9149" result="shape"/>
</filter>
<filter id="filter2_ddd_4036_9149" x="97" y="0" width="328" height="328" filterUnits="userSpaceOnUse" color-interpolation-filters="sRGB">
<feFlood flood-opacity="0" result="BackgroundImageFix"/>
<feColorMatrix in="SourceAlpha" type="matrix" values="0 0 0 0 0 0 0 0 0 0 0 0 0 0 0 0 0 0 127 0" result="hardAlpha"/>
<feOffset dy="15"/>
<feGaussianBlur stdDeviation="20"/>
<feColorMatrix type="matrix" values="0 0 0 0 0 0 0 0 0 0 0 0 0 0 0 0 0 0 0.4 0"/>
<feBlend mode="normal" in2="BackgroundImageFix" result="effect1_dropShadow_4036_9149"/>
<feColorMatrix in="SourceAlpha" type="matrix" values="0 0 0 0 0 0 0 0 0 0 0 0 0 0 0 0 0 0 127 0" result="hardAlpha"/>
<feOffset dy="5"/>
<feGaussianBlur stdDeviation="5"/>
<feColorMatrix type="matrix" values="0 0 0 0 0 0 0 0 0 0 0 0 0 0 0 0 0 0 0.2 0"/>
<feBlend mode="normal" in2="effect1_dropShadow_4036_9149" result="effect2_dropShadow_4036_9149"/>
<feColorMatrix in="SourceAlpha" type="matrix" values="0 0 0 0 0 0 0 0 0 0 0 0 0 0 0 0 0 0 127 0" result="hardAlpha"/>
<feMorphology radius="1" operator="dilate" in="SourceAlpha" result="effect3_dropShadow_4036_9149"/>
<feOffset/>
<feColorMatrix type="matrix" values="0 0 0 0 0 0 0 0 0 0 0 0 0 0 0 0 0 0 0.1 0"/>
<feBlend mode="normal" in2="effect2_dropShadow_4036_9149" result="effect3_dropShadow_4036_9149"/>
<feBlend mode="normal" in="SourceGraphic" in2="effect3_dropShadow_4036_9149" result="shape"/>
</filter>
<linearGradient id="paint0_linear_4036_9149" x1="31.5" y1="170" x2="129" y2="308" gradientUnits="userSpaceOnUse">
<stop stop-color="#9D5C1A"/>
<stop offset="0.147306" stop-color="#B67533"/>
<stop offset="0.297745" stop-color="#E3A260"/>
<stop offset="0.465" stop-color="#FFBD77"/>
<stop offset="0.650297" stop-color="#CD8C4A"/>
<stop offset="0.846541" stop-color="#B87634"/>
<stop offset="1" stop-color="#A15F1D"/>
</linearGradient>
<linearGradient id="paint1_linear_4036_9149" x1="313" y1="514" x2="90.5" y2="332.5" gradientUnits="userSpaceOnUse">
<stop stop-color="#676767"/>
<stop offset="0.188841" stop-color="#979797"/>
<stop offset="0.316489" stop-color="#B5B5B5"/>
<stop offset="0.491738" stop-color="#C8C8C8"/>
<stop offset="0.682374" stop-color="#BFBFBF"/>
<stop offset="0.825181" stop-color="#ABABAB"/>
<stop offset="1" stop-color="#7A7A7A"/>
</linearGradient>
<linearGradient id="paint2_linear_4036_9149" x1="179" y1="25" x2="278" y2="273" gradientUnits="userSpaceOnUse">
<stop stop-color="#B07B1D"/>
<stop offset="0.28" stop-color="#E2C34E"/>
<stop offset="0.412317" stop-color="#EDD472"/>
<stop offset="0.535037" stop-color="#EDD881"/>
<stop offset="0.64" stop-color="#E5CB73"/>
<stop offset="0.783426" stop-color="#DCBD64"/>
<stop offset="1" stop-color="#BE892E"/>
</linearGradient>
<clipPath id="clip0_4036_9149">
<rect width="104" height="104" fill="white" transform="translate(17 185)"/>
</clipPath>
<clipPath id="clip1_4036_9149">
<rect width="248" height="248" fill="white" transform="translate(65 305)"/>
</clipPath>
<clipPath id="clip2_4036_9149">
<rect width="248" height="248" fill="white" transform="translate(137 25)"/>
</clipPath>
</defs>
</svg>
