<svg width="61" height="61" viewBox="0 0 61 61" fill="none" xmlns="http://www.w3.org/2000/svg">
<path d="M47.4084 37.2067L44.0094 33.8076H16.9909C15.6634 35.1351 14.9193 35.8794 13.5918 37.2067V57.1997H47.4084V37.2067Z" fill="#276749"/>
<path d="M27.9337 50.9502H24.3928V54.4911H27.9337V50.9502Z" fill="#006DF0"/>
<path d="M25.5509 50.9502H22.01V54.4911H25.5509V50.9502Z" fill="#FFB655"/>
<path d="M24.3928 50.9502H22.01V54.4911H24.3928V50.9502Z" fill="#FF7956"/>
<path d="M30.5001 33.8073C36.4306 33.8073 41.2383 28.9997 41.2383 23.0692C41.2383 17.1387 36.4306 12.3311 30.5001 12.3311C24.5696 12.3311 19.762 17.1387 19.762 23.0692C19.762 28.9997 24.5696 33.8073 30.5001 33.8073Z" fill="#FFDAAA"/>
<path d="M46.552 21.0166C51.306 21.0166 55.1599 17.1627 55.1599 12.4087C55.1599 7.65467 51.306 3.80078 46.552 3.80078C41.798 3.80078 37.9441 7.65467 37.9441 12.4087C37.9441 17.1627 41.798 21.0166 46.552 21.0166Z" fill="#FFDAAA"/>
<path d="M57.3816 21.0156H41.0406C41.1694 21.6804 41.2377 22.3669 41.2377 23.0694C41.2377 28.1395 37.7234 32.3883 32.998 33.5143V33.807H44.0093L47.4083 37.2061V42.147H60.1065V23.7405L57.3816 21.0156Z" fill="#4299E1"/>
<path d="M3.61842 21.0156H19.9594C19.8306 21.6804 19.7623 22.3669 19.7623 23.0694C19.7623 28.1395 23.2766 32.3883 28.002 33.5143V33.807H16.9908L13.5917 37.2061V42.147H0.893555V23.7405L3.61842 21.0156Z" fill="#FF7956"/>
<path d="M21.7565 33.8066H16.9909C15.6634 35.1341 14.9193 35.8784 13.5918 37.2057V57.1988H18.3574V37.2057C19.6849 35.8784 20.429 35.1341 21.7565 33.8066Z" fill="#1C4532"/>
<path d="M48.7749 33.8066H44.0093L47.4084 37.2057V42.1466H52.174V37.2057L48.7749 33.8066Z" fill="#327EBD"/>
<path d="M46.0033 23.0694C46.0033 22.3669 45.935 21.6804 45.8063 21.0156H41.0406C41.1694 21.6804 41.2377 22.3669 41.2377 23.0694C41.2377 28.1395 37.7234 32.3883 32.998 33.5143V33.807H37.7637V33.5143C42.489 32.3883 46.0033 28.1395 46.0033 23.0694Z" fill="#327EBD"/>
<path d="M8.38405 21.0156H3.61842L0.893555 23.7405V42.1469H5.65918V23.7405L8.38405 21.0156Z" fill="#FF3F62"/>
<path d="M14.4482 21.0166C19.2023 21.0166 23.0562 17.1627 23.0562 12.4087C23.0562 7.65467 19.2023 3.80078 14.4482 3.80078C9.69422 3.80078 5.84033 7.65467 5.84033 12.4087C5.84033 17.1627 9.69422 21.0166 14.4482 21.0166Z" fill="#FFDAAA"/>
<path opacity="0.4" d="M24.5278 23.0697C24.5278 17.9584 28.0993 13.6817 32.8827 12.5978C32.1163 12.4241 31.3188 12.332 30.4999 12.332C24.5697 12.332 19.7622 17.1395 19.7622 23.0697C19.7622 28.9999 24.5697 33.8074 30.4999 33.8074C31.3188 33.8074 32.1163 33.7153 32.8827 33.5416C28.0993 32.4577 24.5278 28.181 24.5278 23.0697Z" fill="#FF9478"/>
<path opacity="0.4" d="M42.7102 12.4085C42.7102 8.48158 45.3407 5.17137 48.9351 4.13759C48.178 3.91992 47.3793 3.80078 46.5523 3.80078C41.7984 3.80078 37.9446 7.6545 37.9446 12.4085C37.9446 17.1623 41.7983 21.0161 46.5523 21.0161C47.3793 21.0161 48.178 20.8971 48.9351 20.6793C45.3407 19.6457 42.7102 16.3353 42.7102 12.4085Z" fill="#FF9478"/>
<path opacity="0.4" d="M10.6057 12.4085C10.6057 8.48158 13.2362 5.17137 16.8306 4.13759C16.0736 3.91992 15.2748 3.80078 14.4478 3.80078C9.69393 3.80078 5.84009 7.6545 5.84009 12.4085C5.84009 17.1623 9.69381 21.0161 14.4478 21.0161C15.2748 21.0161 16.0736 20.8971 16.8306 20.6793C13.2362 19.6457 10.6057 16.3353 10.6057 12.4085Z" fill="#FF9478"/>
<path d="M21.1165 55.3846H26.4444V50.0566H21.1165V55.3846ZM22.9036 51.8438H24.6573V53.5975H22.9036V51.8438Z" fill="#1D1D1F"/>
<path d="M20.8843 36.3906H19.0972V38.1777H20.8843V36.3906Z" fill="#1D1D1F"/>
<path d="M23.8628 36.3906H22.0757V38.1777H23.8628V36.3906Z" fill="#1D1D1F"/>
<path d="M26.8413 36.3906H25.0542V38.1777H26.8413V36.3906Z" fill="#1D1D1F"/>
<path d="M51.8108 23.7959H50.0237V25.583H51.8108V23.7959Z" fill="#1D1D1F"/>
<path d="M45.8538 23.7959H44.0667V25.583H45.8538V23.7959Z" fill="#1D1D1F"/>
<path d="M48.8323 23.7959H47.0452V25.583H48.8323V23.7959Z" fill="#1D1D1F"/>
<path d="M30.5 16.0732C31.0308 16.0732 31.5596 16.1328 32.0715 16.2502L32.4711 14.5082C31.8282 14.3608 31.165 14.2861 30.5 14.2861V16.0732Z" fill="white"/>
<path d="M33.7381 14.9023L33.0791 16.5635C33.5687 16.7577 34.0376 17.0086 34.4728 17.3095L35.4887 15.8393C34.9422 15.4616 34.3533 15.1465 33.7381 14.9023Z" fill="white"/>
<path d="M36.5184 16.6719L35.2938 17.9734C36.7144 19.3102 37.4967 21.1201 37.4967 23.0698C37.4967 25.2916 36.4764 27.3321 34.6973 28.6684L35.7705 30.0974C38.0033 28.4205 39.2838 25.8589 39.2838 23.0698C39.2838 20.6576 38.2759 18.3257 36.5184 16.6719Z" fill="white"/>
<path d="M25.5703 27.833L24.2751 29.0644C25.9348 30.8097 28.1745 31.771 30.5821 31.771V29.9839C28.6689 29.984 26.8891 29.22 25.5703 27.833Z" fill="#1D1D1F"/>
<path d="M45.4712 48.3545H43.6841V50.1416H45.4712V48.3545Z" fill="white"/>
<path d="M45.4712 51.333H43.6841V53.1201H45.4712V51.333Z" fill="white"/>
<path d="M45.4712 39.1377H43.6841V47.163H45.4712V39.1377Z" fill="white"/>
<path d="M36.6882 32.9138C39.9558 30.8524 42.1313 27.2106 42.1313 23.0697C42.1313 16.6562 36.9136 11.4385 30.5001 11.4385C24.0867 11.4385 18.8689 16.6562 18.8689 23.0697C18.8689 27.2106 21.0444 30.8523 24.3121 32.9138H16.6208L12.6982 36.8363V58.0931H48.302V36.8363L44.3794 32.9138H36.6882ZM20.656 23.0697C20.656 17.6415 25.0719 13.2256 30.5001 13.2256C35.9283 13.2256 40.3442 17.6415 40.3442 23.0697C40.3442 28.4979 35.9283 32.9138 30.5001 32.9138C25.0719 32.9138 20.656 28.4977 20.656 23.0697ZM46.5149 56.306H42.5922V43.2521H40.8051V56.3059H20.1952V43.2521H18.4081V56.3059H14.4854V37.5765L17.361 34.7009H43.6392L46.5149 37.5765V56.306Z" fill="#1D1D1F"/>
<path d="M39.6047 44.46H37.8176V50.4372H39.6047V44.46Z" fill="#1D1D1F"/>
<path d="M43.5179 16.6696C42.1713 15.6957 41.3674 14.1239 41.3674 12.4648H39.5803C39.5803 14.6956 40.6607 16.8087 42.4706 18.1176L43.5179 16.6696Z" fill="#1D1D1F"/>
<path d="M48.9912 7.88775C49.44 8.12747 49.8508 8.43163 50.2123 8.79215L51.474 7.52628C50.9885 7.04233 50.4365 6.63368 49.8333 6.31152L48.9912 7.88775Z" fill="white"/>
<path d="M46.5522 5.49219V7.2793C47.0646 7.2793 47.5701 7.35352 48.0547 7.50018L48.5718 5.78944C47.9194 5.59203 47.2399 5.49219 46.5522 5.49219Z" fill="white"/>
<path d="M49.0903 16.986L49.9666 18.5434C52.1609 17.3087 53.524 14.9791 53.524 12.4636C53.524 11.0718 53.1149 9.72793 52.3411 8.57715L50.8581 9.57447C51.433 10.4293 51.7369 11.4284 51.7369 12.4636C51.737 14.3345 50.7228 16.0674 49.0903 16.986Z" fill="white"/>
<path d="M58.7305 25.2881H56.9434V30.5398H58.7305V25.2881Z" fill="white"/>
<path d="M58.7305 34.71H56.9434V36.4971H58.7305V34.71Z" fill="white"/>
<path d="M58.7305 31.7314H56.9434V33.5186H58.7305V31.7314Z" fill="white"/>
<path d="M57.7518 20.1225H52.0888C54.4873 18.3961 56.0534 15.5826 56.0534 12.4085C56.0534 7.16936 51.7913 2.90723 46.5522 2.90723C44.0403 2.90723 41.672 3.87846 39.8837 5.64198C38.0976 7.40336 37.0928 9.754 37.0544 12.261L38.8413 12.2884C38.9055 8.10104 42.3645 4.69434 46.5522 4.69434C50.8058 4.69434 54.2663 8.15489 54.2663 12.4085C54.2663 16.662 50.8058 20.1225 46.5522 20.1225C45.5626 20.1225 44.596 19.9358 43.6795 19.5675L43.0133 21.2259C44.1427 21.6796 45.3334 21.9096 46.5522 21.9096H57.0116L59.2129 24.1108V41.2537H56.4229V28.587H54.6358V41.2537H49.7912V43.0408H61V23.3706L57.7518 20.1225Z" fill="#1D1D1F"/>
<path d="M6.36425 28.5872H4.57714V41.2538H1.78711V24.1109L3.98847 21.9094H14.0024V21.8982C14.1501 21.9052 14.2984 21.9096 14.4478 21.9096C15.6666 21.9096 16.8573 21.6795 17.9868 21.2259L17.3205 19.5675C16.404 19.9358 15.4373 20.1224 14.4478 20.1224C10.1943 20.1224 6.73383 16.662 6.73383 12.4085C6.73383 8.15489 10.1943 4.69434 14.4478 4.69434C18.6354 4.69434 22.0945 8.10104 22.1587 12.2884L23.9456 12.261C23.9072 9.754 22.9024 7.40347 21.1164 5.64198C19.3281 3.87846 16.9598 2.90723 14.4478 2.90723C9.20886 2.90723 4.94672 7.16936 4.94672 12.4085C4.94672 15.5826 6.51294 18.3961 8.91136 20.1224H3.24825L0 23.3707V43.0409H11.2089V41.2538H6.36425V28.5872Z" fill="#1D1D1F"/>
<path d="M17.0217 23.3203H15.2346V25.1074H17.0217V23.3203Z" fill="white"/>
<path d="M14.0432 23.3203H12.2561V25.1074H14.0432V23.3203Z" fill="white"/>
<path d="M11.0645 23.3203H5.81274V25.1074H11.0645V23.3203Z" fill="white"/>
<path d="M7.47583 12.4648C7.47583 14.6956 8.5562 16.8087 10.3661 18.1176L11.4134 16.6696C10.0668 15.6957 9.26294 14.1239 9.26294 12.4648H7.47583Z" fill="#1D1D1F"/>
<path d="M19.3692 7.5253C18.8837 7.04136 18.3318 6.6327 17.7286 6.31055L16.8865 7.88678C17.3353 8.12649 17.7461 8.43065 18.1075 8.79117L19.3692 7.5253Z" fill="white"/>
<path d="M14.4478 7.27918C14.9601 7.27918 15.4656 7.3534 15.9502 7.50006L16.4673 5.78932C15.8148 5.59215 15.1353 5.49219 14.4478 5.49219V7.27918Z" fill="white"/>
<path d="M21.4197 12.4636C21.4197 11.0718 21.0105 9.72793 20.2367 8.57715L18.7538 9.57447C19.3286 10.4293 19.6325 11.4284 19.6325 12.4636C19.6325 14.3345 18.6183 16.0673 16.9858 16.986L17.8621 18.5434C20.0566 17.3087 21.4197 14.9791 21.4197 12.4636Z" fill="white"/>
</svg>
