<svg width="168" height="168" viewBox="0 0 168 168" fill="none" xmlns="http://www.w3.org/2000/svg">
<g opacity="0.4">
<path d="M135.903 30.6396C135.903 30.6396 113.593 11.6261 84.4208 14.2483C55.248 16.8704 47.0524 30.965 37.873 46.3686C30.6495 58.4956 26.9506 72.7644 22.3803 86.0185C18.2127 98.1532 9.71113 110.125 10.966 123.507C12.5579 140.433 29.2087 151.46 44.7207 154.191C66.3679 157.998 79.5793 142.784 95.928 131.466L96.0209 131.401C98.3706 129.75 100.842 128.281 103.415 127.005C123.741 117.171 144.718 125.692 152.914 102.421C161.11 79.1513 150.621 46.6979 135.903 30.6396Z" fill="#9C4221"/>
<path opacity="0.75" d="M135.903 30.6396C135.903 30.6396 113.593 11.6261 84.4208 14.2483C55.248 16.8704 47.0524 30.965 37.873 46.3686C30.6495 58.4956 26.9506 72.7644 22.3803 86.0185C18.2127 98.1532 9.71113 110.125 10.966 123.507C12.5579 140.433 29.2087 151.46 44.7207 154.191C66.3679 157.998 79.5793 142.784 95.928 131.466L96.0209 131.401C98.3706 129.75 100.842 128.281 103.415 127.005C123.741 117.171 144.718 125.692 152.914 102.421C161.11 79.1513 150.621 46.6979 135.903 30.6396Z" fill="white"/>
</g>
<path d="M114.823 54.3125C113.193 53.4255 112.449 54.1653 111.857 53.4255C111.264 52.6857 113.487 50.753 109.037 48.828C109.037 48.828 108.743 44.6721 102.662 44.5249C96.5808 44.3777 98.2114 48.677 96.5808 49.715C94.9502 50.753 94.5047 49.1224 92.8741 50.1604C91.2435 51.1984 91.9833 53.259 90.6471 53.5727C89.3108 53.8864 87.5485 52.2364 85.9024 53.2745C84.2563 54.3125 84.2718 55.2111 83.5282 55.2111C82.7845 55.2111 81.305 54.6185 80.4296 55.2111C79.5543 55.8037 78.493 56.5473 78.493 56.5473H116.016C116.016 56.5473 116.454 55.2033 114.823 54.3125Z" fill="#9C4221"/>
<path d="M100.795 27.5062C99.6946 26.902 99.1911 27.4055 98.7922 26.902C98.3932 26.3985 99.8921 25.101 96.8904 23.8035C96.8904 23.8035 96.689 21.0032 92.5873 20.9025C88.4856 20.8018 89.5818 23.7066 88.4818 24.3883C87.3818 25.07 87.0797 24.001 85.9797 24.6904C84.8797 25.3799 85.3794 26.7936 84.4769 26.9911C83.5745 27.1886 82.3777 26.0925 81.2738 26.7936C80.1699 27.4946 80.1738 28.095 79.6742 28.095C79.1745 28.095 78.1714 27.7077 77.571 28.095C76.9707 28.4823 76.2697 28.9936 76.2697 28.9936H101.596C101.596 28.9936 101.895 28.1066 100.795 27.5062Z" fill="#9C4221"/>
<path d="M128.592 30.9924C126.958 30.1016 126.218 30.8452 125.625 30.1016C125.033 29.3579 127.256 27.433 122.806 25.5041C122.806 25.5041 122.511 21.352 116.43 21.2049C110.35 21.0577 111.98 25.3569 110.334 26.3949C108.688 27.433 108.258 25.8023 106.627 26.8404C104.997 27.8784 105.737 29.9389 104.4 30.2488C103.064 30.5586 101.302 28.9164 99.6557 29.9544C98.0096 30.9924 98.0251 31.891 97.2815 31.891C96.5378 31.891 95.0583 31.2945 94.1829 31.891C93.3076 32.4875 92.2463 33.2234 92.2463 33.2234H129.777C129.777 33.2234 130.223 31.8832 128.592 30.9924Z" fill="#9C4221"/>
<path d="M79.4195 40.8259C77.7889 39.9351 77.0452 40.6787 76.4526 39.9351C75.86 39.1914 78.0832 37.2664 73.633 35.3376C73.633 35.3376 73.3386 31.1855 67.2577 31.0384C61.1768 30.8912 62.8074 35.1904 61.1768 36.2284C59.5462 37.2664 59.1008 35.6358 57.4702 36.6739C55.8396 37.7119 56.5794 39.7724 55.2431 40.0861C53.9069 40.3999 52.1446 38.7499 50.4985 39.7879C48.8524 40.8259 48.8679 41.7245 48.1242 41.7245C47.3806 41.7245 45.901 41.1319 45.0257 41.7245C44.1504 42.3171 43.0891 43.0569 43.0891 43.0569H80.6124C80.6124 43.0569 81.0501 41.7206 79.4195 40.8259Z" fill="#9C4221"/>
<g opacity="0.4">
<path d="M114.823 54.3125C113.192 53.4255 112.448 54.1653 111.856 53.4255C111.263 52.6857 113.486 50.753 109.036 48.828C109.036 48.828 108.742 44.6721 102.661 44.5249C96.5799 44.3777 98.2105 48.677 96.5799 49.715C94.9493 50.753 94.5039 49.1224 92.8733 50.1604C91.2427 51.1984 91.9825 53.259 90.6462 53.5727C89.31 53.8864 87.5477 52.2364 85.9016 53.2745C84.2555 54.3125 84.271 55.2111 83.5273 55.2111C82.7837 55.2111 81.3041 54.6185 80.4288 55.2111C79.5534 55.8037 78.4922 56.5473 78.4922 56.5473H116.015C116.015 56.5473 116.453 55.2033 114.823 54.3125Z" fill="white"/>
<path d="M100.794 27.5062C99.6937 26.902 99.1902 27.4055 98.7913 26.902C98.3924 26.3985 99.8913 25.101 96.8896 23.8035C96.8896 23.8035 96.6882 21.0032 92.5865 20.9025C88.4848 20.8018 89.5809 23.7066 88.4809 24.3883C87.3809 25.07 87.0788 24.001 85.9788 24.6904C84.8789 25.3799 85.3785 26.7936 84.4761 26.9911C83.5736 27.1886 82.3768 26.0925 81.2729 26.7936C80.1691 27.4946 80.173 28.095 79.6733 28.095C79.1737 28.095 78.1705 27.7077 77.5702 28.095C76.9698 28.4823 76.2688 28.9936 76.2688 28.9936H101.595C101.595 28.9936 101.894 28.1066 100.794 27.5062Z" fill="white"/>
<path d="M128.591 30.9924C126.957 30.1016 126.217 30.8452 125.624 30.1016C125.032 29.3579 127.255 27.433 122.805 25.5041C122.805 25.5041 122.51 21.352 116.43 21.2049C110.349 21.0577 111.979 25.3569 110.333 26.3949C108.687 27.433 108.257 25.8023 106.627 26.8404C104.996 27.8784 105.736 29.9389 104.399 30.2488C103.063 30.5586 101.301 28.9164 99.6549 29.9544C98.0088 30.9924 98.0243 31.891 97.2806 31.891C96.537 31.891 95.0574 31.2945 94.1821 31.891C93.3067 32.4875 92.2455 33.2234 92.2455 33.2234H129.777C129.777 33.2234 130.222 31.8832 128.591 30.9924Z" fill="white"/>
<path d="M79.4186 40.8259C77.788 39.9351 77.0444 40.6787 76.4518 39.9351C75.8592 39.1914 78.0824 37.2664 73.6321 35.3376C73.6321 35.3376 73.3377 31.1855 67.2569 31.0384C61.176 30.8912 62.8066 35.1904 61.176 36.2284C59.5454 37.2664 59.1 35.6358 57.4693 36.6739C55.8387 37.7119 56.5785 39.7724 55.2423 40.0861C53.906 40.3999 52.1437 38.7499 50.4976 39.7879C48.8515 40.8259 48.867 41.7245 48.1234 41.7245C47.3797 41.7245 45.9002 41.1319 45.0248 41.7245C44.1495 42.3171 43.0883 43.0569 43.0883 43.0569H80.6116C80.6116 43.0569 81.0492 41.7206 79.4186 40.8259Z" fill="white"/>
</g>
<path d="M100.271 91.4302H81.1061V137.246H100.271V91.4302Z" fill="white" stroke="#1A202C" stroke-width="0.0824307" stroke-linecap="round" stroke-linejoin="round"/>
<path d="M100.271 91.4302H81.1061V93.696H100.271V91.4302Z" fill="white" stroke="#1A202C" stroke-width="0.0824307" stroke-linecap="round" stroke-linejoin="round"/>
<path d="M81.1061 96.3755H85.9437C86.6936 96.3755 87.4127 96.6734 87.943 97.2036C88.4732 97.7339 88.7711 98.453 88.7711 99.2029V101.631H81.1061V96.3755Z" fill="#1A202C" stroke="#1A202C" stroke-width="0.0824307" stroke-linecap="round" stroke-linejoin="round"/>
<path d="M92.4788 96.3755H99.8843V101.631H89.6514V99.2029C89.6514 98.453 89.9493 97.7339 90.4795 97.2036C91.0097 96.6734 91.7289 96.3755 92.4788 96.3755Z" fill="#1A202C" stroke="#1A202C" stroke-width="0.0824307" stroke-linecap="round" stroke-linejoin="round"/>
<path d="M100.271 101.5H81.1061V103.766H100.271V101.5Z" fill="white" stroke="#1A202C" stroke-width="0.0824307" stroke-linecap="round" stroke-linejoin="round"/>
<path d="M81.1061 104.924H85.9437C86.6936 104.924 87.4127 105.222 87.943 105.752C88.4732 106.283 88.7711 107.002 88.7711 107.752V110.18H81.1061V104.924Z" fill="#1A202C" stroke="#1A202C" stroke-width="0.0824307" stroke-linecap="round" stroke-linejoin="round"/>
<path d="M92.4788 104.924H99.8843V110.18H89.6514V107.752C89.6514 107.002 89.9493 106.283 90.4795 105.752C91.0097 105.222 91.7289 104.924 92.4788 104.924Z" fill="#1A202C" stroke="#1A202C" stroke-width="0.0824307" stroke-linecap="round" stroke-linejoin="round"/>
<path d="M100.271 110.045H81.1061V112.31H100.271V110.045Z" fill="white" stroke="#1A202C" stroke-width="0.0824307" stroke-linecap="round" stroke-linejoin="round"/>
<path d="M81.1061 113.472H85.9437C86.6936 113.472 87.4127 113.77 87.943 114.3C88.4732 114.83 88.7711 115.549 88.7711 116.299V118.728H81.1061V113.472Z" fill="#1A202C" stroke="#1A202C" stroke-width="0.0824307" stroke-linecap="round" stroke-linejoin="round"/>
<path d="M92.4788 113.472H99.8843V118.728H89.6514V116.299C89.6514 115.549 89.9493 114.83 90.4795 114.3C91.0097 113.77 91.7289 113.472 92.4788 113.472Z" fill="#1A202C" stroke="#1A202C" stroke-width="0.0824307" stroke-linecap="round" stroke-linejoin="round"/>
<path d="M100.271 118.593H81.1061V120.858H100.271V118.593Z" fill="white" stroke="#1A202C" stroke-width="0.0824307" stroke-linecap="round" stroke-linejoin="round"/>
<path d="M81.1061 122.02H85.9437C86.6936 122.02 87.4127 122.318 87.943 122.848C88.4732 123.379 88.7711 124.098 88.7711 124.848V127.276H81.1061V122.02Z" fill="#1A202C" stroke="#1A202C" stroke-width="0.0824307" stroke-linecap="round" stroke-linejoin="round"/>
<path d="M92.4788 122.02H99.8843V127.276H89.6514V124.848C89.6514 124.098 89.9493 123.379 90.4795 122.848C91.0097 122.318 91.7289 122.02 92.4788 122.02Z" fill="#1A202C" stroke="#1A202C" stroke-width="0.0824307" stroke-linecap="round" stroke-linejoin="round"/>
<path d="M100.271 127.141H81.1061V129.407H100.271V127.141Z" fill="white" stroke="#1A202C" stroke-width="0.0824307" stroke-linecap="round" stroke-linejoin="round"/>
<path d="M83.1969 77.8381H68.75V138.055H83.1969V77.8381Z" fill="white" stroke="#1A202C" stroke-width="0.0824307" stroke-linecap="round" stroke-linejoin="round"/>
<path d="M81.3394 127.342H79.6198V129.635H81.3394V127.342Z" fill="#1A202C" stroke="#1A202C" stroke-width="0.0824307" stroke-linecap="round" stroke-linejoin="round"/>
<path d="M76.6132 127.342H74.8936V129.635H76.6132V127.342Z" fill="#1A202C" stroke="#1A202C" stroke-width="0.0824307" stroke-linecap="round" stroke-linejoin="round"/>
<path d="M71.883 127.342H70.1633V129.635H71.883V127.342Z" fill="#1A202C" stroke="#1A202C" stroke-width="0.0824307" stroke-linecap="round" stroke-linejoin="round"/>
<path d="M81.3394 118.31H79.6198V120.603H81.3394V118.31Z" fill="#1A202C" stroke="#1A202C" stroke-width="0.0824307" stroke-linecap="round" stroke-linejoin="round"/>
<path d="M76.6132 118.31H74.8936V120.603H76.6132V118.31Z" fill="#1A202C" stroke="#1A202C" stroke-width="0.0824307" stroke-linecap="round" stroke-linejoin="round"/>
<path d="M71.883 118.31H70.1633V120.603H71.883V118.31Z" fill="#1A202C" stroke="#1A202C" stroke-width="0.0824307" stroke-linecap="round" stroke-linejoin="round"/>
<path d="M81.3394 109.135H79.6198V111.427H81.3394V109.135Z" fill="#1A202C" stroke="#1A202C" stroke-width="0.0824307" stroke-linecap="round" stroke-linejoin="round"/>
<path d="M76.6132 109.135H74.8936V111.427H76.6132V109.135Z" fill="#1A202C" stroke="#1A202C" stroke-width="0.0824307" stroke-linecap="round" stroke-linejoin="round"/>
<path d="M71.883 109.135H70.1633V111.427H71.883V109.135Z" fill="#1A202C" stroke="#1A202C" stroke-width="0.0824307" stroke-linecap="round" stroke-linejoin="round"/>
<path d="M81.3394 99.9585H79.6198V102.251H81.3394V99.9585Z" fill="#1A202C" stroke="#1A202C" stroke-width="0.0824307" stroke-linecap="round" stroke-linejoin="round"/>
<path d="M76.6132 99.9585H74.8936V102.251H76.6132V99.9585Z" fill="#1A202C" stroke="#1A202C" stroke-width="0.0824307" stroke-linecap="round" stroke-linejoin="round"/>
<path d="M71.883 99.9585H70.1633V102.251H71.883V99.9585Z" fill="#1A202C" stroke="#1A202C" stroke-width="0.0824307" stroke-linecap="round" stroke-linejoin="round"/>
<path d="M81.3394 90.7832H79.6198V93.0761H81.3394V90.7832Z" fill="#1A202C" stroke="#1A202C" stroke-width="0.0824307" stroke-linecap="round" stroke-linejoin="round"/>
<path d="M76.6132 90.7832H74.8936V93.0761H76.6132V90.7832Z" fill="#1A202C" stroke="#1A202C" stroke-width="0.0824307" stroke-linecap="round" stroke-linejoin="round"/>
<path d="M71.883 90.7832H70.1633V93.0761H71.883V90.7832Z" fill="#1A202C" stroke="#1A202C" stroke-width="0.0824307" stroke-linecap="round" stroke-linejoin="round"/>
<path d="M81.3394 81.6072H79.6198V83.9001H81.3394V81.6072Z" fill="#1A202C" stroke="#1A202C" stroke-width="0.0824307" stroke-linecap="round" stroke-linejoin="round"/>
<path d="M76.6132 81.6072H74.8936V83.9001H76.6132V81.6072Z" fill="#1A202C" stroke="#1A202C" stroke-width="0.0824307" stroke-linecap="round" stroke-linejoin="round"/>
<path d="M71.883 81.6072H70.1633V83.9001H71.883V81.6072Z" fill="#1A202C" stroke="#1A202C" stroke-width="0.0824307" stroke-linecap="round" stroke-linejoin="round"/>
<path d="M83.6421 77.8381H68.3004V79.6004H83.6421V77.8381Z" fill="white" stroke="#1A202C" stroke-width="0.0824307" stroke-linecap="round" stroke-linejoin="round"/>
<path d="M83.6421 86.8708H68.3004V88.6331H83.6421V86.8708Z" fill="white" stroke="#1A202C" stroke-width="0.0824307" stroke-linecap="round" stroke-linejoin="round"/>
<path d="M83.6421 95.9031H68.3004V97.6654H83.6421V95.9031Z" fill="white" stroke="#1A202C" stroke-width="0.0824307" stroke-linecap="round" stroke-linejoin="round"/>
<path d="M83.6421 104.935H68.3004V106.698H83.6421V104.935Z" fill="white" stroke="#1A202C" stroke-width="0.0824307" stroke-linecap="round" stroke-linejoin="round"/>
<path d="M83.6421 113.968H68.3004V115.73H83.6421V113.968Z" fill="white" stroke="#1A202C" stroke-width="0.0824307" stroke-linecap="round" stroke-linejoin="round"/>
<path d="M83.6421 123H68.3004V124.762H83.6421V123Z" fill="white" stroke="#1A202C" stroke-width="0.0824307" stroke-linecap="round" stroke-linejoin="round"/>
<path d="M83.1969 131.029H68.75V132.791H83.1969V131.029Z" fill="white" stroke="#1A202C" stroke-width="0.0824307" stroke-linecap="round" stroke-linejoin="round"/>
<path d="M100.267 128.729H67.9845V137.25H100.267V128.729Z" fill="white" stroke="#1A202C" stroke-width="0.0824307" stroke-linecap="round" stroke-linejoin="round"/>
<path d="M81.0061 128.729H67.9845V137.25H81.0061V128.729Z" fill="#1A202C" stroke="#1A202C" stroke-width="0.0824307" stroke-linecap="round" stroke-linejoin="round"/>
<path d="M149.302 37.0732H94.9728V137.249H149.302V37.0732Z" fill="#1A202C" stroke="#1A202C" stroke-width="0.0824307" stroke-linecap="round" stroke-linejoin="round"/>
<path d="M149.305 37.0732H109.334V137.249H149.305V37.0732Z" fill="white" stroke="#1A202C" stroke-width="0.0824307" stroke-linecap="round" stroke-linejoin="round"/>
<path d="M149.304 127.675H118.81V137.249H149.304V127.675Z" fill="#1A202C" stroke="#1A202C" stroke-width="0.0824307" stroke-linecap="round" stroke-linejoin="round"/>
<path d="M127.523 127.675H125.865V137.249H127.523V127.675Z" fill="white" stroke="#1A202C" stroke-width="0.0824307" stroke-linecap="round" stroke-linejoin="round"/>
<path d="M136.088 127.675H134.431V137.249H136.088V127.675Z" fill="white" stroke="#1A202C" stroke-width="0.0824307" stroke-linecap="round" stroke-linejoin="round"/>
<path d="M144.646 127.675H142.988V137.249H144.646V127.675Z" fill="white" stroke="#1A202C" stroke-width="0.0824307" stroke-linecap="round" stroke-linejoin="round"/>
<path d="M124.553 127.675V37.3057" stroke="#1A202C" stroke-width="0.0824307" stroke-linecap="round" stroke-linejoin="round"/>
<path d="M104.154 137.59V37.3057" stroke="white" stroke-width="0.0824307" stroke-linecap="round" stroke-linejoin="round"/>
<path d="M99.213 137.59V37.3057" stroke="white" stroke-width="0.0824307" stroke-linecap="round" stroke-linejoin="round"/>
<path d="M139.732 127.675V37.3057" stroke="#1A202C" stroke-width="0.0824307" stroke-linecap="round" stroke-linejoin="round"/>
<path d="M109.54 47.5813H149.074" stroke="#1A202C" stroke-width="0.0824307" stroke-linecap="round" stroke-linejoin="round"/>
<path d="M109.54 60.8896H149.074" stroke="#1A202C" stroke-width="0.0824307" stroke-linecap="round" stroke-linejoin="round"/>
<path d="M109.54 74.2014H149.074" stroke="#1A202C" stroke-width="0.0824307" stroke-linecap="round" stroke-linejoin="round"/>
<path d="M109.54 87.5103H149.074" stroke="#1A202C" stroke-width="0.0824307" stroke-linecap="round" stroke-linejoin="round"/>
<path d="M109.54 100.822H149.074" stroke="#1A202C" stroke-width="0.0824307" stroke-linecap="round" stroke-linejoin="round"/>
<path d="M109.54 114.131H149.074" stroke="#1A202C" stroke-width="0.0824307" stroke-linecap="round" stroke-linejoin="round"/>
<path d="M109.541 47.5813H94.9121" stroke="white" stroke-width="0.0824307" stroke-linecap="round" stroke-linejoin="round"/>
<path d="M109.541 60.8896H94.9121" stroke="white" stroke-width="0.0824307" stroke-linecap="round" stroke-linejoin="round"/>
<path d="M109.541 74.2014H94.9121" stroke="white" stroke-width="0.0824307" stroke-linecap="round" stroke-linejoin="round"/>
<path d="M109.541 87.5103H94.9121" stroke="white" stroke-width="0.0824307" stroke-linecap="round" stroke-linejoin="round"/>
<path d="M109.541 100.822H94.9121" stroke="white" stroke-width="0.0824307" stroke-linecap="round" stroke-linejoin="round"/>
<path d="M109.541 114.131H94.9121" stroke="white" stroke-width="0.0824307" stroke-linecap="round" stroke-linejoin="round"/>
<path d="M95.1348 127.442H149.076" stroke="#1A202C" stroke-width="0.0824307" stroke-linecap="round" stroke-linejoin="round"/>
<path d="M70.1663 43.0652H22.4681V137.246H70.1663V43.0652Z" fill="#1A202C" stroke="#1A202C" stroke-width="0.0824307" stroke-linecap="round" stroke-linejoin="round"/>
<path d="M36.1588 53.1392H22.7112" stroke="white" stroke-width="0.0824307" stroke-linecap="round" stroke-linejoin="round"/>
<path d="M36.1588 69.1472H22.7112" stroke="white" stroke-width="0.0824307" stroke-linecap="round" stroke-linejoin="round"/>
<path d="M36.1588 85.771H22.7112" stroke="white" stroke-width="0.0824307" stroke-linecap="round" stroke-linejoin="round"/>
<path d="M36.1588 103.014H22.7112" stroke="white" stroke-width="0.0824307" stroke-linecap="round" stroke-linejoin="round"/>
<path d="M36.1588 119.023H22.7112" stroke="white" stroke-width="0.0824307" stroke-linecap="round" stroke-linejoin="round"/>
<path d="M70.1691 43.0652H36.1162V137.246H70.1691V43.0652Z" fill="white" stroke="#1A202C" stroke-width="0.0824307" stroke-linecap="round" stroke-linejoin="round"/>
<path d="M70.1691 43.0652H36.1162V48.3637H70.1691V43.0652Z" fill="#1A202C" stroke="#1A202C" stroke-width="0.0824307" stroke-linecap="round" stroke-linejoin="round"/>
<path d="M70.1691 59.5537H36.1162V64.8522H70.1691V59.5537Z" fill="#1A202C" stroke="#1A202C" stroke-width="0.0824307" stroke-linecap="round" stroke-linejoin="round"/>
<path d="M70.1691 76.4482H36.1162V81.7468H70.1691V76.4482Z" fill="#1A202C" stroke="#1A202C" stroke-width="0.0824307" stroke-linecap="round" stroke-linejoin="round"/>
<path d="M70.1691 92.9326H36.1162V98.2311H70.1691V92.9326Z" fill="#1A202C" stroke="#1A202C" stroke-width="0.0824307" stroke-linecap="round" stroke-linejoin="round"/>
<path d="M70.1691 126.668H36.1162V131.2H70.1691V126.668Z" fill="#1A202C" stroke="#1A202C" stroke-width="0.0824307" stroke-linecap="round" stroke-linejoin="round"/>
<path d="M70.1691 109.421H36.1162V114.719H70.1691V109.421Z" fill="#1A202C" stroke="#1A202C" stroke-width="0.0824307" stroke-linecap="round" stroke-linejoin="round"/>
<path d="M59.1503 127.985H45.5361V137.249H59.1503V127.985Z" fill="#1A202C" stroke="#1A202C" stroke-width="0.0824307" stroke-linecap="round" stroke-linejoin="round"/>
<path d="M42.3975 45.9587V127.462" stroke="#1A202C" stroke-width="0.0824307" stroke-linecap="round" stroke-linejoin="round"/>
<path d="M52.8705 45.9587V127.462" stroke="#1A202C" stroke-width="0.0824307" stroke-linecap="round" stroke-linejoin="round"/>
<path d="M63.3434 45.9587V127.462" stroke="#1A202C" stroke-width="0.0824307" stroke-linecap="round" stroke-linejoin="round"/>
<path d="M26.1697 45.9587V127.462" stroke="white" stroke-width="0.0824307" stroke-linecap="round" stroke-linejoin="round"/>
<path d="M29.4866 45.9587V127.462" stroke="white" stroke-width="0.0824307" stroke-linecap="round" stroke-linejoin="round"/>
<path d="M32.7993 45.9583V127.462" stroke="white" stroke-width="0.0824307" stroke-linecap="round" stroke-linejoin="round"/>
<path d="M71.7174 41.9849H20.6458V46.4855H71.7174V41.9849Z" fill="#1A202C" stroke="#1A202C" stroke-width="0.0824307" stroke-linecap="round" stroke-linejoin="round"/>
<path d="M71.7116 41.9849H34.5408V46.4855H71.7116V41.9849Z" fill="white" stroke="#1A202C" stroke-width="0.0824307" stroke-linecap="round" stroke-linejoin="round"/>
<path d="M71.7174 58.7361H20.6458V63.2367H71.7174V58.7361Z" fill="#1A202C" stroke="#1A202C" stroke-width="0.0824307" stroke-linecap="round" stroke-linejoin="round"/>
<path d="M71.7116 58.7361H34.5408V63.2367H71.7116V58.7361Z" fill="white" stroke="#1A202C" stroke-width="0.0824307" stroke-linecap="round" stroke-linejoin="round"/>
<path d="M71.7174 75.4919H20.6458V79.9926H71.7174V75.4919Z" fill="#1A202C" stroke="#1A202C" stroke-width="0.0824307" stroke-linecap="round" stroke-linejoin="round"/>
<path d="M71.7116 75.4919H34.5408V79.9926H71.7116V75.4919Z" fill="white" stroke="#1A202C" stroke-width="0.0824307" stroke-linecap="round" stroke-linejoin="round"/>
<path d="M71.7174 92.2432H20.6458V96.7438H71.7174V92.2432Z" fill="#1A202C" stroke="#1A202C" stroke-width="0.0824307" stroke-linecap="round" stroke-linejoin="round"/>
<path d="M71.7116 92.2427H34.5408V96.7433H71.7116V92.2427Z" fill="white" stroke="#1A202C" stroke-width="0.0824307" stroke-linecap="round" stroke-linejoin="round"/>
<path d="M71.7174 108.998H20.6458V113.499H71.7174V108.998Z" fill="#1A202C" stroke="#1A202C" stroke-width="0.0824307" stroke-linecap="round" stroke-linejoin="round"/>
<path d="M71.7116 108.998H34.5408V113.499H71.7116V108.998Z" fill="white" stroke="#1A202C" stroke-width="0.0824307" stroke-linecap="round" stroke-linejoin="round"/>
<path d="M71.7174 125.754H20.6458V130.254H71.7174V125.754Z" fill="#1A202C" stroke="#1A202C" stroke-width="0.0824307" stroke-linecap="round" stroke-linejoin="round"/>
<path d="M71.7116 125.754H34.5408V130.254H71.7116V125.754Z" fill="white" stroke="#1A202C" stroke-width="0.0824307" stroke-linecap="round" stroke-linejoin="round"/>
<path d="M36.1567 53.1392H69.8766" stroke="#1A202C" stroke-width="0.0824307" stroke-linecap="round" stroke-linejoin="round"/>
<path d="M36.1567 69.1472H69.8766" stroke="#1A202C" stroke-width="0.0824307" stroke-linecap="round" stroke-linejoin="round"/>
<path d="M36.1567 85.771H69.8766" stroke="#1A202C" stroke-width="0.0824307" stroke-linecap="round" stroke-linejoin="round"/>
<path d="M36.1567 103.015H69.8766" stroke="#1A202C" stroke-width="0.0824307" stroke-linecap="round" stroke-linejoin="round"/>
<path d="M36.1567 119.022H69.8766" stroke="#1A202C" stroke-width="0.0824307" stroke-linecap="round" stroke-linejoin="round"/>
<path d="M67.8241 134.829H36.2539V135.94H67.8241V134.829Z" fill="#9C4221" stroke="#1A202C" stroke-width="0.0824307" stroke-linecap="round" stroke-linejoin="round"/>
<path d="M77.1391 135.941H36.2539V137.61H77.1391V135.941Z" fill="#9C4221" stroke="#1A202C" stroke-width="0.0824307" stroke-linecap="round" stroke-linejoin="round"/>
<path d="M32.7195 126.436C32.7195 126.436 38.2968 126.99 41.1243 130.448C41.1243 130.448 44.1105 126.44 49.4787 126.521C50.7894 124.939 51.6237 123.017 51.8845 120.979C52.1453 118.941 51.8219 116.871 50.9518 115.01C50.0818 113.148 48.7009 111.573 46.97 110.466C45.2392 109.359 43.2295 108.766 41.175 108.757C39.1205 108.748 37.1057 109.323 35.3651 110.415C33.6246 111.506 32.23 113.07 31.3436 114.924C30.4573 116.777 30.1156 118.844 30.3585 120.884C30.6014 122.925 31.4188 124.854 32.7156 126.447L32.7195 126.436Z" fill="#9C4221"/>
<path opacity="0.5" d="M32.7195 126.436C32.7195 126.436 38.2968 126.99 41.1243 130.448C41.1243 130.448 44.1105 126.44 49.4787 126.521C50.7894 124.939 51.6237 123.017 51.8845 120.979C52.1453 118.941 51.8219 116.871 50.9518 115.01C50.0818 113.148 48.7009 111.573 46.97 110.466C45.2392 109.359 43.2295 108.766 41.175 108.757C39.1205 108.748 37.1057 109.323 35.3651 110.415C33.6246 111.506 32.23 113.07 31.3436 114.924C30.4573 116.777 30.1156 118.844 30.3585 120.884C30.6014 122.925 31.4188 124.854 32.7156 126.447L32.7195 126.436Z" fill="white"/>
<path d="M40.9373 109.525L40.7513 137.49H41.6925L40.9373 109.525Z" fill="#1A202C"/>
<path d="M41.221 129.391C41.221 129.391 43.1072 126.002 46.4963 124.968C46.4963 124.968 42.9175 125.816 41.1281 128.733L41.221 129.391Z" fill="#1A202C"/>
<path d="M41.221 119.79C41.221 119.79 43.1072 116.397 46.4963 115.363C46.4963 115.363 42.9175 116.211 41.1281 119.127L41.221 119.79Z" fill="#1A202C"/>
<path d="M41.221 124.607C41.221 124.607 43.1072 121.215 46.4963 120.18C46.4963 120.18 42.9175 121.029 41.1281 123.945L41.221 124.607Z" fill="#1A202C"/>
<path d="M40.9446 122.237C40.9446 122.237 39.1281 118.848 35.8591 117.81C35.8591 117.81 39.3101 118.658 41.0376 121.578L40.9446 122.237Z" fill="#1A202C"/>
<path d="M40.9446 126.931C40.9446 126.931 39.1281 123.542 35.8591 122.508C35.8591 122.508 39.3101 123.356 41.0376 126.273L40.9446 126.931Z" fill="#1A202C"/>
<path d="M58.9956 124.317C58.9956 124.317 65.642 124.975 69.0155 129.097C69.0155 129.097 72.575 124.321 78.9696 124.418C80.5304 122.533 81.5237 120.243 81.8339 117.815C82.1441 115.387 81.7584 112.922 80.7218 110.705C79.6851 108.487 78.0401 106.61 75.9781 105.292C73.9162 103.973 71.5223 103.268 69.0748 103.257C66.6274 103.246 64.2272 103.93 62.1537 105.23C60.0801 106.53 58.4184 108.393 57.362 110.6C56.3056 112.808 55.8979 115.27 56.1864 117.701C56.475 120.131 57.4478 122.43 58.9918 124.329L58.9956 124.317Z" fill="#9C4221"/>
<path opacity="0.5" d="M58.9956 124.317C58.9956 124.317 65.642 124.975 69.0155 129.097C69.0155 129.097 72.575 124.321 78.9696 124.418C80.5304 122.533 81.5237 120.243 81.8339 117.815C82.1441 115.387 81.7584 112.922 80.7218 110.705C79.6851 108.487 78.0401 106.61 75.9781 105.292C73.9162 103.973 71.5223 103.268 69.0748 103.257C66.6274 103.246 64.2272 103.93 62.1537 105.23C60.0801 106.53 58.4184 108.393 57.362 110.6C56.3056 112.808 55.8979 115.27 56.1864 117.701C56.475 120.131 57.4478 122.43 58.9918 124.329L58.9956 124.317Z" fill="white"/>
<path d="M68.7904 104.161L68.5658 137.489H69.6851L68.7904 104.161Z" fill="#1A202C"/>
<path d="M69.1277 127.838C69.1277 127.838 71.3703 123.798 75.41 122.566C75.41 122.566 71.1495 123.573 69.0154 127.055L69.1277 127.838Z" fill="#1A202C"/>
<path d="M69.1277 116.393C69.1277 116.393 71.3703 112.353 75.41 111.117C75.41 111.117 71.1495 112.128 69.0154 115.606L69.1277 116.393Z" fill="#1A202C"/>
<path d="M69.1277 122.117C69.1277 122.117 71.3703 118.077 75.41 116.842C75.41 116.842 71.1495 117.853 69.0154 121.331L69.1277 122.117Z" fill="#1A202C"/>
<path d="M68.7954 119.309C68.7954 119.309 66.6303 115.27 62.73 114.038C62.73 114.038 66.8472 115.045 68.9038 118.527L68.7954 119.309Z" fill="#1A202C"/>
<path d="M68.7954 124.922C68.7954 124.922 66.6303 120.882 62.73 119.646C62.73 119.646 66.8472 120.657 68.9038 124.136L68.7954 124.922Z" fill="#1A202C"/>
<path d="M85.7567 128.167C85.7567 128.167 90.4665 128.632 92.8485 131.548C93.7057 130.51 94.7825 129.674 96.0014 129.101C97.2203 128.529 98.551 128.234 99.8977 128.237C101.003 126.902 101.707 125.281 101.927 123.562C102.147 121.843 101.874 120.096 101.14 118.526C100.406 116.956 99.2414 115.627 97.7813 114.693C96.3212 113.76 94.6259 113.26 92.8927 113.252C91.1596 113.245 89.46 113.73 87.9918 114.65C86.5235 115.571 85.3471 116.89 84.5994 118.454C83.8517 120.017 83.5635 121.761 83.7684 123.482C83.9733 125.203 84.6628 126.831 85.7567 128.175V128.167Z" fill="#9C4221"/>
<path opacity="0.5" d="M85.7567 128.167C85.7567 128.167 90.4665 128.632 92.8485 131.548C93.7057 130.51 94.7825 129.674 96.0014 129.101C97.2203 128.529 98.551 128.234 99.8977 128.237C101.003 126.902 101.707 125.281 101.927 123.562C102.147 121.843 101.874 120.096 101.14 118.526C100.406 116.956 99.2414 115.627 97.7813 114.693C96.3212 113.76 94.6259 113.26 92.8927 113.252C91.1596 113.245 89.46 113.73 87.9918 114.65C86.5235 115.571 85.3471 116.89 84.5994 118.454C83.8517 120.017 83.5635 121.761 83.7684 123.482C83.9733 125.203 84.6628 126.831 85.7567 128.175V128.167Z" fill="white"/>
<path d="M92.6918 113.898L92.533 137.49H93.327L92.6918 113.898Z" fill="#1A202C"/>
<path d="M92.9301 130.657C92.9301 130.657 94.5181 127.799 97.3765 126.927C97.3765 126.927 94.3593 127.64 92.8488 130.104L92.9301 130.657Z" fill="#1A202C"/>
<path d="M92.9301 122.558C92.9301 122.558 94.5181 119.696 97.3765 118.825C97.3765 118.825 94.3593 119.537 92.8488 122.001L92.9301 122.558Z" fill="#1A202C"/>
<path d="M92.9301 126.61C92.9301 126.61 94.5181 123.748 97.3765 122.876C97.3765 122.876 94.3593 123.589 92.8488 126.052L92.9301 126.61Z" fill="#1A202C"/>
<path d="M92.6976 124.607C92.6976 124.607 91.1483 121.745 88.4061 120.874C88.4061 120.874 91.3188 121.586 92.7751 124.05L92.6976 124.607Z" fill="#1A202C"/>
<path d="M92.6976 128.593C92.6976 128.593 91.1483 125.735 88.4061 124.86C88.4061 124.86 91.3188 125.576 92.7751 128.04L92.6976 128.593Z" fill="#1A202C"/>
<path d="M114.529 115.331H113.84V137.106H114.529V115.331Z" fill="white" stroke="#1A202C" stroke-width="0.0824307" stroke-linecap="round" stroke-linejoin="round"/>
<path d="M113 115.482C112.975 115.534 112.962 115.591 112.961 115.648C112.961 116.036 113.523 116.357 114.212 116.357C114.901 116.357 115.459 116.04 115.459 115.648C115.458 115.591 115.445 115.534 115.42 115.482H113Z" fill="white" stroke="#1A202C" stroke-width="0.0824307" stroke-linecap="round" stroke-linejoin="round"/>
<path d="M114.184 114.738L111.697 115.567H116.671L114.184 114.738Z" fill="white" stroke="#1A202C" stroke-width="0.0824307" stroke-linecap="round" stroke-linejoin="round"/>
<path d="M143.469 115.331H142.78V137.106H143.469V115.331Z" fill="white" stroke="#1A202C" stroke-width="0.0824307" stroke-linecap="round" stroke-linejoin="round"/>
<path d="M141.932 115.482C141.908 115.534 141.894 115.591 141.893 115.648C141.893 116.036 142.455 116.357 143.144 116.357C143.834 116.357 144.391 116.04 144.391 115.648C144.39 115.591 144.377 115.534 144.353 115.482H141.932Z" fill="white" stroke="#1A202C" stroke-width="0.0824307" stroke-linecap="round" stroke-linejoin="round"/>
<path d="M143.12 114.738L140.634 115.567H145.611L143.12 114.738Z" fill="white" stroke="#1A202C" stroke-width="0.0824307" stroke-linecap="round" stroke-linejoin="round"/>
<path d="M56.6688 115.331H55.9794V137.106H56.6688V115.331Z" fill="white" stroke="#1A202C" stroke-width="0.0824307" stroke-linecap="round" stroke-linejoin="round"/>
<path d="M55.1353 115.482C55.1111 115.534 55.0979 115.591 55.0966 115.648C55.0966 116.036 55.6543 116.357 56.3476 116.357C57.0409 116.357 57.5948 116.04 57.5948 115.648C57.5935 115.591 57.5803 115.534 57.556 115.482H55.1353Z" fill="white" stroke="#1A202C" stroke-width="0.0824307" stroke-linecap="round" stroke-linejoin="round"/>
<path d="M56.3196 114.738L53.833 115.567H58.8062L56.3196 114.738Z" fill="white" stroke="#1A202C" stroke-width="0.0824307" stroke-linecap="round" stroke-linejoin="round"/>
<path d="M27.7285 115.331H27.0391V137.106H27.7285V115.331Z" fill="white" stroke="#1A202C" stroke-width="0.0824307" stroke-linecap="round" stroke-linejoin="round"/>
<path d="M26.199 115.482C26.1748 115.534 26.1616 115.591 26.1603 115.648C26.1603 116.036 26.718 116.357 27.4074 116.357C28.0969 116.357 28.6585 116.04 28.6585 115.648C28.6572 115.591 28.644 115.534 28.6197 115.482H26.199Z" fill="white" stroke="#1A202C" stroke-width="0.0824307" stroke-linecap="round" stroke-linejoin="round"/>
<path d="M27.3873 114.738L24.9008 115.567H29.8739L27.3873 114.738Z" fill="white" stroke="#1A202C" stroke-width="0.0824307" stroke-linecap="round" stroke-linejoin="round"/>
<path d="M85.597 115.331H84.9076V137.106H85.597V115.331Z" fill="white" stroke="#1A202C" stroke-width="0.0824307" stroke-linecap="round" stroke-linejoin="round"/>
<path d="M84.0674 115.482C84.0432 115.534 84.03 115.591 84.0287 115.648C84.0287 116.036 84.5903 116.357 85.2797 116.357C85.9691 116.357 86.5269 116.04 86.5269 115.648C86.5256 115.591 86.5124 115.534 86.4882 115.482H84.0674Z" fill="white" stroke="#1A202C" stroke-width="0.0824307" stroke-linecap="round" stroke-linejoin="round"/>
<path d="M85.2517 114.738L82.7651 115.567H87.7383L85.2517 114.738Z" fill="white" stroke="#1A202C" stroke-width="0.0824307" stroke-linecap="round" stroke-linejoin="round"/>
<path d="M157.239 136.97H10V155H157.239V136.97Z" fill="#9C4221"/>
<mask id="mask0_8014_3253" style="mask-type:luminance" maskUnits="userSpaceOnUse" x="10" y="136" width="148" height="19">
<path d="M157.241 136.969H10.0028V154.999H157.241V136.969Z" fill="white"/>
</mask>
<g mask="url(#mask0_8014_3253)">
<path opacity="0.5" d="M157.241 136.969H10.0028V154.999H157.241V136.969Z" fill="white"/>
</g>
<path d="M110.343 145.683C110.343 146.573 115.862 147.294 122.668 147.294C129.473 147.294 134.992 146.573 134.992 145.683C134.992 144.792 129.473 144.071 122.668 144.071C115.862 144.071 110.343 144.792 110.343 145.683Z" fill="#1A202C"/>
<path d="M119.056 84.4352C119.056 84.4352 118.994 86.1472 119.238 86.7592C119.482 87.3711 119.908 87.6151 119.908 88.1651C119.859 88.6375 119.778 89.106 119.664 89.5672C119.664 89.7531 120.702 89.9545 120.702 89.9545C120.702 89.9545 121.864 91.8911 122.166 91.8911C122.364 91.8911 122.554 91.8211 122.705 91.6936L124.18 90.4271C124.767 91.392 125.298 92.3904 125.768 93.4172C126.012 94.1492 126.136 94.6372 126.136 94.6372L127.968 91.8911C127.968 91.8911 126.562 89.513 126.442 88.8391C126.322 88.1651 128.332 86.581 127.662 84.0169C127.326 82.8561 126.554 81.8706 125.506 81.2675C124.459 80.6644 123.219 80.4907 122.046 80.7828C119.908 81.3909 117.786 82.1268 117.344 82.917C116.903 83.7071 119.056 84.4352 119.056 84.4352Z" fill="white" stroke="#1A202C" stroke-width="0.0824307" stroke-linecap="round" stroke-linejoin="round"/>
<path d="M119.978 87.2939C119.978 87.2939 119.765 87.046 120.013 86.9762C120.248 86.944 120.487 86.9558 120.718 87.0111" fill="white"/>
<path d="M119.978 87.2939C119.978 87.2939 119.765 87.046 120.013 86.9762C120.248 86.944 120.487 86.9558 120.718 87.0111" stroke="#1A202C" stroke-width="0.0824307" stroke-linecap="round" stroke-linejoin="round"/>
<path d="M120.545 87.7158L120.649 88.1767" stroke="#1A202C" stroke-width="0.0824307" stroke-linecap="round" stroke-linejoin="round"/>
<path d="M120.5 88.3163C120.787 88.2804 121.05 88.143 121.244 87.929L120.5 88.3163Z" fill="white"/>
<path d="M120.5 88.3163C120.787 88.2804 121.05 88.143 121.244 87.929" stroke="#1A202C" stroke-width="0.0824307" stroke-linecap="round" stroke-linejoin="round"/>
<path d="M127.231 86.1471C127.231 86.1471 128.699 87.0611 128.943 88.2231C129.187 89.3851 130.531 96.7674 131.383 99.7575C132.235 102.748 134.373 103.727 136.085 102.856C137.797 101.985 138.409 99.5599 137.611 98.4599C136.813 97.36 135.229 97.1198 135.229 95.4698C135.229 93.8199 136.755 91.9298 135.047 89.4277C133.339 86.9256 130.531 86.9837 129.369 86.6816C128.703 86.5175 128.092 86.1794 127.599 85.7017L127.231 86.1471Z" fill="#1A202C" stroke="#1A202C" stroke-width="0.0824307" stroke-linecap="round" stroke-linejoin="round"/>
<path d="M136.339 101.578C136.299 101.726 136.239 101.868 136.161 102L136.339 101.578Z" fill="#1A202C"/>
<path d="M136.339 101.578C136.299 101.726 136.239 101.868 136.161 102" stroke="white" stroke-width="0.0412154" stroke-linecap="round" stroke-linejoin="round"/>
<path d="M128.227 86.5542C128.227 86.5542 128.301 87.6464 131.016 88.3862C133.731 89.126 135.458 91.0665 135.106 93.0766C134.754 95.0868 132.709 96.6748 133.592 98.0498C134.297 99.1537 136.191 99.8741 136.376 101.044" fill="#1A202C"/>
<path d="M128.227 86.5542C128.227 86.5542 128.301 87.6464 131.016 88.3862C133.731 89.126 135.458 91.0665 135.106 93.0766C134.754 95.0868 132.709 96.6748 133.592 98.0498C134.297 99.1537 136.191 99.8741 136.376 101.044" stroke="white" stroke-width="0.0412154" stroke-linecap="round" stroke-linejoin="round"/>
<path d="M133.579 94.8777C133.532 95.0977 133.458 95.311 133.359 95.5129L133.579 94.8777Z" fill="#1A202C"/>
<path d="M133.579 94.8777C133.532 95.0977 133.458 95.311 133.359 95.5129" stroke="white" stroke-width="0.0412154" stroke-linecap="round" stroke-linejoin="round"/>
<path d="M129.143 88.1995C129.52 89.3427 130.331 90.2924 131.401 90.8448C132.05 91.1599 132.601 91.6472 132.993 92.2536C133.385 92.8601 133.603 93.5624 133.624 94.2842" fill="#1A202C"/>
<path d="M129.143 88.1995C129.52 89.3427 130.331 90.2924 131.401 90.8448C132.05 91.1599 132.601 91.6472 132.993 92.2536C133.385 92.8601 133.603 93.5624 133.624 94.2842" stroke="white" stroke-width="0.0412154" stroke-linecap="round" stroke-linejoin="round"/>
<path d="M126.438 88.7923C126.392 88.1028 128.321 86.5265 127.662 84.0089C127.326 82.848 126.554 81.8625 125.506 81.2594C124.459 80.6564 123.219 80.4826 122.046 80.7748C119.908 81.3829 117.786 82.1188 117.344 82.9089C116.903 83.699 119.056 84.4349 119.056 84.4349C119.056 84.4349 120.64 87.061 124.122 86.0229C124.122 86.0229 125.156 87.8937 126.438 88.7923Z" fill="#1A202C" stroke="#1A202C" stroke-width="0.0824307" stroke-linecap="round" stroke-linejoin="round"/>
<path d="M126.64 85.3645C126.782 85.4197 126.913 85.4997 127.027 85.6008L126.64 85.3645Z" fill="#1A202C"/>
<path d="M126.64 85.3645C126.782 85.4197 126.913 85.4997 127.027 85.6008" stroke="white" stroke-width="0.0412154" stroke-linecap="round" stroke-linejoin="round"/>
<path d="M119.058 83.3779C119.058 83.3779 119.872 84.7181 121.987 85.0357C123.474 85.2603 124.93 85.0628 125.968 85.1983" fill="#1A202C"/>
<path d="M119.058 83.3779C119.058 83.3779 119.872 84.7181 121.987 85.0357C123.474 85.2603 124.93 85.0628 125.968 85.1983" stroke="white" stroke-width="0.0412154" stroke-linecap="round" stroke-linejoin="round"/>
<path d="M120.33 82.9517C121.187 83.7722 122.286 84.2927 123.463 84.4351C125.9 84.7178 127.027 84.0826 127.724 84.7527" fill="#1A202C"/>
<path d="M120.33 82.9517C121.187 83.7722 122.286 84.2927 123.463 84.4351C125.9 84.7178 127.027 84.0826 127.724 84.7527" stroke="white" stroke-width="0.0412154" stroke-linecap="round" stroke-linejoin="round"/>
<path d="M119.763 82.3206C119.837 82.4214 119.916 82.5184 119.999 82.611L119.763 82.3206Z" fill="#1A202C"/>
<path d="M119.763 82.3206C119.837 82.4214 119.916 82.5184 119.999 82.611" stroke="white" stroke-width="0.0412154" stroke-linecap="round" stroke-linejoin="round"/>
<path d="M123.817 86.9413C123.817 86.9413 124.123 85.4734 124.979 85.5354C125.835 85.5973 125.711 86.7554 125.467 87.6734C125.223 88.5913 124.371 88.0374 124.371 88.0374" fill="white"/>
<path d="M123.817 86.9413C123.817 86.9413 124.123 85.4734 124.979 85.5354C125.835 85.5973 125.711 86.7554 125.467 87.6734C125.223 88.5913 124.371 88.0374 124.371 88.0374" stroke="#1A202C" stroke-width="0.0824307" stroke-linecap="round" stroke-linejoin="round"/>
<path d="M133.094 140.876C132.84 141.706 132.521 142.514 132.137 143.292C131.73 143.947 130.824 144.551 130.774 144.954C130.723 145.357 131.327 145.341 131.936 145.155C132.544 144.97 133.345 144.842 133.899 144.381C134.453 143.92 135.449 142.58 136.169 142.328C136.889 142.076 136.874 141.22 136.471 140.713C136.068 140.205 134.786 139.625 134.786 139.625L133.094 140.876Z" fill="#9C4221" stroke="#1A202C" stroke-width="0.0824307" stroke-linecap="round" stroke-linejoin="round"/>
<path d="M131.932 145.136C132.54 144.935 133.341 144.822 133.895 144.361C134.449 143.9 135.445 142.56 136.165 142.309C136.284 142.262 136.392 142.191 136.482 142.101C136.573 142.011 136.644 141.903 136.69 141.784C136.737 141.665 136.758 141.537 136.753 141.41C136.748 141.282 136.717 141.157 136.661 141.042L136.456 141.17C135.491 141.797 135.007 142.766 133.411 143.78C132.619 144.341 131.722 144.736 130.774 144.942C130.723 145.345 131.327 145.345 131.932 145.136Z" fill="#1A202C" stroke="#1A202C" stroke-width="0.0824307" stroke-linecap="round" stroke-linejoin="round"/>
<path d="M129.997 132.355C128.424 130.112 125.062 125.7 125.062 125.7L127.08 115.456L122.219 115.235C122.219 115.235 121.247 123.009 120.872 125.627C120.496 128.245 122.669 130.112 123.265 130.561C123.707 130.891 128.932 136.007 131.686 138.695C131.84 139.179 131.984 139.799 132.073 140.027C132.354 140.414 132.694 140.755 133.08 141.038L134.769 139.594C134.769 139.594 131.565 134.613 129.997 132.355Z" fill="#1A202C" stroke="#1A202C" stroke-width="0.0824307" stroke-linecap="round" stroke-linejoin="round"/>
<path d="M121.995 112.555C121.995 112.555 122.382 121.676 122.669 124.817C122.955 127.959 125.062 133.04 125.36 134.613C125.659 136.185 128.199 142.987 128.199 142.987L130.446 143.432C130.446 143.432 130.833 142.088 130.368 141.414C130.046 140.875 129.795 140.297 129.621 139.694C129.621 139.694 128.277 131.619 127.773 129.45C127.27 127.281 126.65 124.891 126.801 124.217C126.952 123.543 127.921 117.187 127.994 116.889C128.068 116.591 130.09 114.952 130.388 113.078C130.686 111.203 129.71 109.116 129.71 109.116L123.126 108.666L121.995 112.555Z" fill="#1A202C" stroke="#1A202C" stroke-width="0.0824307" stroke-linecap="round" stroke-linejoin="round"/>
<path d="M128.864 135.317L127.984 130.034" stroke="white" stroke-width="0.0824307" stroke-linecap="round" stroke-linejoin="round"/>
<path d="M122.29 116.215C122.29 116.215 122.217 124.368 122.678 125.937C123.139 127.505 124.01 130.805 124.01 130.805" fill="#1A202C"/>
<path d="M122.29 116.215C122.29 116.215 122.217 124.368 122.678 125.937C123.139 127.505 124.01 130.805 124.01 130.805" stroke="white" stroke-width="0.0824307" stroke-linecap="round" stroke-linejoin="round"/>
<path d="M123.661 104.545L118.347 101.834C118.347 101.834 116.348 100.157 115.395 100.157C114.442 100.157 112.943 100.021 113.985 101.156C115.027 102.291 118.075 103.093 118.075 103.093L123.513 107.179L123.661 104.545Z" fill="white" stroke="#1A202C" stroke-width="0.0824307" stroke-linecap="round" stroke-linejoin="round"/>
<path d="M113.509 98.7541L112.479 99.6566C112.444 99.6877 112.416 99.7272 112.399 99.7713C112.382 99.8155 112.377 99.8632 112.382 99.9101C112.388 99.9571 112.405 100.002 112.432 100.041C112.459 100.08 112.495 100.111 112.537 100.133L116.387 102.178C116.452 102.213 116.527 102.223 116.599 102.206C116.67 102.189 116.733 102.146 116.775 102.085L117.483 101.066C117.507 101.033 117.523 100.995 117.531 100.955C117.539 100.915 117.538 100.874 117.529 100.834C117.52 100.794 117.503 100.756 117.478 100.724C117.454 100.691 117.422 100.664 117.386 100.644L113.854 98.7076C113.799 98.6778 113.736 98.6662 113.674 98.6745C113.612 98.6829 113.555 98.7107 113.509 98.7541Z" fill="#1A202C" stroke="#1A202C" stroke-width="0.0824307" stroke-linecap="round" stroke-linejoin="round"/>
<path d="M126.85 91.5312C125.647 92.989 124.534 94.5178 123.515 96.1093C122.291 98.1234 121.439 98.9794 121.927 99.8315C122.415 100.684 123.391 103.251 123.391 103.251C123.391 103.251 122.903 107.036 122.535 108.624C122.167 110.212 120.889 113.628 120.889 113.628L126.199 114.79L128.639 110.088L129.863 115.092L132.962 114.24C132.962 114.24 130.766 104.29 130.216 102.763C129.666 101.237 131.498 98.6734 130.603 94.6298C129.708 90.5862 127.95 90.4312 126.85 91.5312Z" fill="#9C4221" stroke="#1A202C" stroke-width="0.0824307" stroke-linecap="round" stroke-linejoin="round"/>
<path d="M134.359 101.601C133.197 98.9789 131.001 93.1769 130.098 91.7128C129.196 90.2488 128.266 90.7368 128.266 90.7368C129.61 90.3107 130.83 93.7269 130.83 93.7269L134.188 102.457C134.188 102.457 131.682 104.045 129.122 104.227C126.562 104.409 125.946 103.495 125.946 103.495C125.946 103.495 126.008 97.4529 126.616 94.8269C126.92 93.3767 127.479 91.9919 128.266 90.7368C127.28 91.5196 126.556 92.5842 126.19 93.7888C125.578 95.8029 125.458 101.113 125.396 104.227C125.334 107.341 125.032 111.431 126.128 112.163C127.224 112.895 130.462 112.895 132.964 112.225C135.467 111.555 137.117 110.513 137.178 109.173C137.24 107.833 135.521 104.227 134.359 101.601Z" fill="white"/>
<path d="M128.266 90.7368C128.266 90.7368 129.196 90.2488 130.098 91.7128C131.001 93.1769 133.197 98.9789 134.359 101.601C135.521 104.227 137.24 107.833 137.178 109.173C137.117 110.513 135.467 111.555 132.964 112.225C130.462 112.895 127.224 112.895 126.128 112.163C125.032 111.431 125.334 107.341 125.396 104.227C125.458 101.113 125.578 95.8029 126.19 93.7888C126.556 92.5842 127.28 91.5196 128.266 90.7368ZM128.266 90.7368C129.61 90.3107 130.83 93.7269 130.83 93.7269L134.188 102.457C134.188 102.457 131.682 104.045 129.122 104.227C126.562 104.409 125.946 103.495 125.946 103.495C125.946 103.495 126.008 97.4529 126.616 94.8269C126.92 93.3767 127.479 91.9919 128.266 90.7368Z" stroke="#1A202C" stroke-width="0.0824307" stroke-linecap="round" stroke-linejoin="round"/>
<path d="M134.646 102.248C134.553 102.291 134.382 102.364 134.173 102.45C134.173 102.45 131.667 104.038 129.107 104.22C126.547 104.402 125.931 103.488 125.931 103.488C125.931 103.488 126.845 109.53 127.701 110.63C128.557 111.73 131.791 111.056 133.685 110.568C135.579 110.08 136.919 109.53 137.101 108.922C137.113 108.881 137.127 108.841 137.144 108.802C136.973 107.396 135.684 104.568 134.646 102.248Z" fill="#1A202C" stroke="#1A202C" stroke-width="0.0824307" stroke-linecap="round" stroke-linejoin="round"/>
<path d="M131.26 105.203C131.26 105.203 132.542 104.959 132.848 103.859C133.154 102.759 131.016 93.6652 129.978 91.9572C128.94 90.2491 128.39 89.823 127.538 91.5311C127.538 91.5311 127.414 96.2913 127.658 98.5029C127.643 98.4912 128.619 103.495 131.26 105.203Z" fill="#9C4221" stroke="#1A202C" stroke-width="0.0824307" stroke-linecap="round" stroke-linejoin="round"/>
<path d="M131.485 103.801C131.387 103.075 131.16 102.372 130.815 101.725C130.265 100.749 128.859 98.7935 127.945 97.2093C127.031 95.6252 126.113 94.7653 125.443 94.4593C124.773 94.1534 124.099 93.9132 123.793 94.0953C123.702 94.1563 123.628 94.238 123.575 94.3337C123.522 94.4293 123.493 94.5362 123.491 94.6453C123.409 94.6966 123.343 94.7692 123.3 94.8552C123.257 94.9412 123.239 95.0374 123.247 95.1333C123.241 95.3184 123.26 95.5034 123.305 95.6833C123.305 95.6833 122.999 96.2914 123.367 96.4153L123.611 96.3533L123.491 96.1093C123.912 96.3966 124.361 96.6418 124.831 96.8414C125.294 96.9375 125.764 96.9983 126.237 97.0234C126.237 97.0234 128.069 102.144 128.801 103.306C129.533 104.468 130.633 105.44 131.241 105.196C131.849 104.952 131.485 103.801 131.485 103.801Z" fill="white" stroke="#1A202C" stroke-width="0.0824307" stroke-linecap="round" stroke-linejoin="round"/>
<path d="M112.805 99.6413C112.805 99.6413 113.123 101.229 113.394 101.365C113.748 101.471 114.114 101.532 114.483 101.547L114.529 101.183C114.322 101.197 114.117 101.143 113.944 101.028C113.772 100.913 113.642 100.744 113.576 100.548C113.259 99.8194 112.941 99.2307 112.805 99.6413Z" fill="white" stroke="#1A202C" stroke-width="0.0824307" stroke-linecap="round" stroke-linejoin="round"/>
<path d="M113.713 99.9126C113.713 99.9126 114.03 101.501 114.301 101.64C114.656 101.745 115.023 101.805 115.394 101.818L115.44 101.458C115.233 101.471 115.028 101.416 114.855 101.302C114.682 101.187 114.552 101.019 114.483 100.823C114.166 100.095 113.848 99.5059 113.713 99.9126Z" fill="white" stroke="#1A202C" stroke-width="0.0824307" stroke-linecap="round" stroke-linejoin="round"/>
<path d="M114.575 100.277C114.575 100.277 114.893 101.865 115.164 102C115.519 102.108 115.886 102.169 116.256 102.182L116.299 101.818C116.092 101.832 115.886 101.778 115.714 101.663C115.542 101.548 115.412 101.379 115.346 101.183C115.028 100.459 114.711 99.866 114.575 100.277Z" fill="white" stroke="#1A202C" stroke-width="0.0824307" stroke-linecap="round" stroke-linejoin="round"/>
<path d="M117.704 102C117.528 101.783 117.286 101.63 117.015 101.565C116.744 101.5 116.459 101.526 116.205 101.64C115.999 101.355 115.859 101.028 115.794 100.683C115.705 100.141 115.434 100.323 115.434 100.865C115.53 101.449 115.712 102.016 115.976 102.546C116.511 102.693 117.076 102.693 117.611 102.546" fill="white"/>
<path d="M117.704 102C117.528 101.783 117.286 101.63 117.015 101.565C116.744 101.5 116.459 101.526 116.205 101.64C115.999 101.355 115.859 101.028 115.794 100.683C115.705 100.141 115.434 100.323 115.434 100.865C115.53 101.449 115.712 102.016 115.976 102.546C116.511 102.693 117.076 102.693 117.611 102.546" stroke="#1A202C" stroke-width="0.0824307" stroke-linecap="round" stroke-linejoin="round"/>
<path d="M117.484 101.412L117.167 100.277C117.167 100.277 116.26 100.501 115.943 100.366C115.625 100.23 117.167 99.3665 117.167 99.3665C117.292 99.3491 117.419 99.3759 117.527 99.4424C117.634 99.5089 117.715 99.6108 117.755 99.7306C117.984 100.184 118.53 101.818 118.53 101.818" fill="white"/>
<path d="M117.484 101.412L117.167 100.277C117.167 100.277 116.26 100.501 115.943 100.366C115.625 100.23 117.167 99.3665 117.167 99.3665C117.292 99.3491 117.419 99.3759 117.527 99.4424C117.634 99.5089 117.715 99.6108 117.755 99.7306C117.984 100.184 118.53 101.818 118.53 101.818" stroke="#1A202C" stroke-width="0.0824307" stroke-linecap="round" stroke-linejoin="round"/>
<path d="M128.201 142.986C128.201 142.986 126.946 144.035 126.137 144.74C125.327 145.445 124.022 145.949 124.374 146.251C124.727 146.553 130.42 146.456 130.672 146.352C130.924 146.247 130.873 145.294 130.773 144.942C130.672 144.589 130.447 143.431 130.447 143.431L128.201 142.986Z" fill="#9C4221" stroke="#1A202C" stroke-width="0.0824307" stroke-linecap="round" stroke-linejoin="round"/>
<path d="M130.873 145.69C128.811 145.845 126.74 145.866 124.676 145.752C124.385 145.953 124.226 146.139 124.377 146.251C124.73 146.557 130.423 146.457 130.675 146.352C130.807 146.298 130.873 146.007 130.873 145.69Z" fill="#1A202C" stroke="#1A202C" stroke-width="0.0824307" stroke-linecap="round" stroke-linejoin="round"/>
</svg>
