<svg width="418" height="413" viewBox="0 0 418 413" fill="none" xmlns="http://www.w3.org/2000/svg">
<g clip-path="url(#clip0_4036_7408)">
<path opacity="0.6" d="M342.997 355.253C356.871 351.854 364.844 347.888 364.844 343.641C364.844 331.075 294.956 320.895 208.736 320.895C122.516 320.895 52.6279 331.083 52.6279 343.641C52.6279 356.199 120.839 366.141 205.621 366.379C203.402 368.396 202.21 370.535 202.21 372.741C202.21 385.308 240.668 395.488 288.101 395.488C335.534 395.488 373.992 385.299 373.992 372.741C373.992 365.705 361.934 359.417 342.989 355.245L342.997 355.253Z" fill="black" fill-opacity="0.24"/>
<path d="M314.88 309.75C371.832 252.727 371.832 160.273 314.88 103.25C257.928 46.2266 165.591 46.2266 108.64 103.25C51.688 160.273 51.688 252.727 108.64 309.75C165.591 366.773 257.928 366.773 314.88 309.75Z" fill="#55CBEF"/>
<path d="M292.868 85.125C292.868 85.125 260.525 94.1364 261.1 113.772C261.676 133.416 261.1 140.346 248.41 148.435C235.719 156.525 211.481 186.563 223.021 193.5C234.56 200.43 246.676 211.992 262.259 206.503C277.835 201.014 296.303 188.884 317.649 198.125C338.994 207.367 346.942 204.322 356.238 186.505C350.46 144.287 326.673 107.822 292.868 85.1332V85.125Z" fill="#21BF68"/>
<path opacity="0.5" d="M292.136 94.4902C292.136 94.4902 264.725 102.127 265.21 118.768C265.703 135.416 265.21 141.292 254.451 148.147C243.692 155.002 220.432 184.39 230.213 190.266C239.994 196.142 250.259 205.935 263.468 201.286C276.668 196.636 295.038 182.423 313.136 190.258C331.227 198.092 337.967 195.508 345.841 180.407C340.942 144.625 320.78 113.723 292.136 94.4902Z" fill="#39C976"/>
<path d="M116.845 195.229C134.73 194.077 145.694 205.047 156.659 195.229C167.623 185.411 163.579 170.384 153.774 155.365C143.968 140.346 151.464 134.568 160.694 120.125C169.925 105.683 158.96 99.3293 146.845 92.9761C134.73 86.6228 139.168 79.8252 139.168 79.8252C95.3926 105.024 65.9185 152.32 65.9185 206.503C88.8583 214.881 98.9516 196.389 116.837 195.237L116.845 195.229Z" fill="#21BF68"/>
<path d="M66.3047 216.971C71.6718 292.724 134.738 352.512 211.769 352.512C288.799 352.512 351.866 292.724 357.233 216.971H66.3047Z" fill="#21BF68"/>
<path d="M125.187 252.062C117.716 266.324 103.439 276.422 87.2637 282.561C104.393 310.616 130.719 332.424 162.042 343.806C170.574 333.56 179.319 320.87 182.311 309.093C190.99 274.965 179.714 241.24 205.678 216.979H158.944C158.944 216.979 139.037 225.621 125.187 252.062Z" fill="#7DE2F9"/>
<g opacity="0.6">
<path d="M153.774 227.077H168.486C169.883 227.077 169.883 224.913 168.486 224.913H153.774C152.376 224.913 152.376 227.077 153.774 227.077Z" fill="#55CBEF"/>
<path d="M163.686 231.842H178.399C179.796 231.842 179.796 229.678 178.399 229.678H163.686C162.289 229.678 162.289 231.842 163.686 231.842Z" fill="#55CBEF"/>
<path d="M168.798 244.096H183.511C184.908 244.096 184.908 241.932 183.511 241.932H168.798C167.401 241.932 167.401 244.096 168.798 244.096Z" fill="#55CBEF"/>
<path d="M160.399 249.857H175.111C176.508 249.857 176.508 247.692 175.111 247.692H160.399C159.001 247.692 159.001 249.857 160.399 249.857Z" fill="#55CBEF"/>
<path d="M130.711 252.853H145.423C146.82 252.853 146.82 250.688 145.423 250.688H130.711C129.313 250.688 129.313 252.853 130.711 252.853Z" fill="#55CBEF"/>
<path d="M139.11 258.194H153.823C155.22 258.194 155.22 256.029 153.823 256.029H139.11C137.713 256.029 137.713 258.194 139.11 258.194Z" fill="#55CBEF"/>
<path d="M160.892 272.875H175.604C177.001 272.875 177.001 270.711 175.604 270.711H160.892C159.494 270.711 159.494 272.875 160.892 272.875Z" fill="#55CBEF"/>
<path d="M152.483 277.829H167.195C168.593 277.829 168.593 275.665 167.195 275.665H152.483C151.086 275.665 151.086 277.829 152.483 277.829Z" fill="#55CBEF"/>
<path d="M127.275 285.828H141.987C143.385 285.828 143.385 283.664 141.987 283.664H127.275C125.878 283.664 125.878 285.828 127.275 285.828Z" fill="#55CBEF"/>
<path d="M117.979 291.063H132.691C134.088 291.063 134.088 288.898 132.691 288.898H117.979C116.581 288.898 116.581 291.063 117.979 291.063Z" fill="#55CBEF"/>
<path d="M105.551 280.776H120.264C121.661 280.776 121.661 278.611 120.264 278.611H105.551C104.154 278.611 104.154 280.776 105.551 280.776Z" fill="#55CBEF"/>
<path d="M145.374 306.732H160.086C161.483 306.732 161.483 304.567 160.086 304.567H145.374C143.976 304.567 143.976 306.732 145.374 306.732Z" fill="#55CBEF"/>
<path d="M153.774 313.085H168.486C169.883 313.085 169.883 310.921 168.486 310.921H153.774C152.376 310.921 152.376 313.085 153.774 313.085Z" fill="#55CBEF"/>
</g>
<path d="M65.3102 231.777C60.8061 231.184 36.2059 222.271 43.143 214.939C48.8718 208.882 60.2472 224.304 64.0445 229.867C71.6308 235.472 77.1048 243.397 80.9268 251.972C79.0857 244.211 77.9596 232.534 83.483 233.143C90.2803 233.9 84.3542 253.618 83.1295 257.453C84.346 260.794 85.3652 264.267 86.0227 267.756C85.6446 262.275 88.694 241.907 95.1954 245.15C101.795 248.441 86.935 267.32 86.1296 268.341C86.146 268.423 86.1624 268.513 86.1707 268.596C86.2528 268.67 86.2939 268.703 86.2939 268.703C86.2611 268.703 86.2282 268.703 86.1871 268.711C86.2528 269.114 86.3186 269.509 86.3761 269.912C86.4419 270.382 85.7186 270.456 85.6528 269.995C85.5953 269.575 85.5213 269.155 85.4556 268.736C79.6857 268.76 60.0499 264.777 63.5349 258.506C66.7157 252.795 81.3213 264.497 85.2912 267.839C84.6748 264.58 83.7295 261.354 82.6199 258.218C77.8117 257.659 57.617 249.717 62.3842 243.998C66.765 238.739 79.9158 254.589 82.4391 257.716C82.0775 256.72 81.6994 255.733 81.3131 254.762C79.7021 250.721 77.7295 246.787 75.3459 243.142C69.6089 243.273 49.8499 239.611 53.2362 233.274C56.1294 227.876 69.2801 237.578 74.2528 241.529C71.7048 237.899 68.7294 234.591 65.302 231.768L65.3102 231.777Z" fill="#276749"/>
<path d="M71.705 218.371C79.2502 217.663 76.1927 242.92 76.1927 242.92C73.3324 239.645 64.1597 219.071 71.705 218.371Z" fill="#276749"/>
<path d="M104.886 235.43C107.754 234.114 122.245 223.16 116.146 219.72C111.107 216.873 106.71 229.439 105.338 233.908C101.45 239.183 99.4362 245.553 98.6553 252.029C98.2855 246.507 96.6498 238.525 93.1074 240.064C88.7512 241.956 96.7156 253.823 98.3101 256.119C98.1868 258.588 98.2197 261.098 98.4992 263.543C97.6279 259.831 91.4388 246.943 87.7977 250.425C84.0909 253.955 97.8005 263.436 98.5485 263.946C98.5485 264.003 98.5649 264.069 98.5731 264.127C98.532 264.193 98.5074 264.226 98.5074 264.226C98.532 264.226 98.5567 264.217 98.5814 264.209C98.6142 264.489 98.6553 264.769 98.7046 265.049C98.754 265.37 99.2553 265.279 99.206 264.95C99.1567 264.662 99.1156 264.366 99.0827 264.077C102.913 262.909 115.127 256.243 111.527 252.803C108.247 249.667 100.957 260.424 99.0005 263.452C98.7457 261.164 98.7129 258.827 98.8115 256.523C101.885 255.165 113.664 245.767 109.324 242.944C105.346 240.352 99.8553 253.56 98.8279 256.152C98.8608 255.42 98.9101 254.688 98.9677 253.963C99.206 250.951 99.7156 247.939 100.554 245.034C104.384 243.948 116.746 237.471 113.203 233.965C110.187 230.978 103.439 240.113 100.949 243.742C101.894 240.812 103.192 238.006 104.894 235.439L104.886 235.43Z" fill="#276749"/>
<path d="M97.8992 227.85C92.754 228.928 99.9376 245.058 99.9376 245.058C101.162 242.302 103.044 226.772 97.8992 227.85Z" fill="#276749"/>
<path d="M74.2441 282.445C74.2441 282.445 55.1098 275.952 59.4166 270.422C63.7235 264.892 76.5455 275.45 76.5455 275.45C76.5455 275.45 64.003 259.065 70.94 256.391C77.877 253.716 85.0689 267.064 85.0689 267.064C85.0689 267.064 78.7072 243.947 88.7018 243.684C98.6964 243.421 94.2908 264.48 94.2908 264.48C94.2908 264.48 101.77 246.367 108.239 249.173C114.716 251.98 103.759 268.529 103.759 268.529C103.759 268.529 117.247 259.773 119.812 267.27C122.376 274.767 101.203 288.231 74.2523 282.445H74.2441Z" fill="#86EF8B"/>
<path d="M89.4659 283.663C89.4659 283.663 68.0466 278.783 68.737 276.33C69.4192 273.878 84.033 278.585 84.033 278.585C84.033 278.585 74.6878 265.385 77.7124 264.858C80.7371 264.332 89.0303 273.787 89.0303 273.787C89.0303 273.787 85.044 256.876 88.9481 256.143C92.8523 255.403 95.2687 271.343 95.2687 271.343C95.2687 271.343 99.3948 256.728 102.732 257.666C106.069 258.604 100.981 273.541 100.981 273.541C100.981 273.541 111.033 267.163 112.718 270.833C114.403 274.503 102.847 286.099 89.4659 283.671V283.663Z" fill="#61E564"/>
<g opacity="0.5">
<path d="M210.437 229.802C210.437 229.802 206.023 228.222 206.969 227.753C207.914 227.275 210.043 228.781 210.043 228.781C210.043 228.781 209.566 224.987 210.437 224.913C211.308 224.831 211.144 228.781 211.144 228.781C211.144 228.781 212.245 226.493 213.034 226.888C213.823 227.283 211.851 229.176 210.429 229.81L210.437 229.802Z" fill="#4BB374"/>
<path d="M235.802 247.503C235.802 247.503 231.388 245.923 232.333 245.454C233.279 244.976 235.407 246.482 235.407 246.482C235.407 246.482 234.931 242.689 235.802 242.615C236.673 242.532 236.509 246.482 236.509 246.482C236.509 246.482 237.61 244.195 238.399 244.59C239.188 244.985 237.216 246.877 235.794 247.511L235.802 247.503Z" fill="#4BB374"/>
<path d="M201.799 258.481C201.799 258.481 197.385 256.901 198.33 256.432C199.276 255.955 201.404 257.461 201.404 257.461C201.404 257.461 200.928 253.667 201.799 253.593C202.67 253.511 202.506 257.461 202.506 257.461C202.506 257.461 203.607 255.173 204.396 255.568C205.185 255.963 203.213 257.856 201.791 258.49L201.799 258.481Z" fill="#4BB374"/>
<path d="M248.098 224.222C248.098 224.222 243.684 222.642 244.629 222.173C245.575 221.695 247.703 223.201 247.703 223.201C247.703 223.201 247.227 219.407 248.098 219.333C248.969 219.251 248.805 223.201 248.805 223.201C248.805 223.201 249.906 220.913 250.695 221.308C251.484 221.703 249.512 223.596 248.09 224.23L248.098 224.222Z" fill="#4BB374"/>
<path d="M278.04 244.729C278.04 244.729 273.626 243.149 274.572 242.68C275.517 242.203 277.646 243.709 277.646 243.709C277.646 243.709 277.169 239.915 278.04 239.841C278.911 239.759 278.747 243.709 278.747 243.709C278.747 243.709 279.848 241.421 280.637 241.816C281.427 242.211 279.454 244.104 278.032 244.738L278.04 244.729Z" fill="#4BB374"/>
<path d="M302.64 234.286C302.64 234.286 298.227 232.706 299.172 232.237C300.117 231.76 302.246 233.266 302.246 233.266C302.246 233.266 301.769 229.472 302.64 229.398C303.512 229.315 303.347 233.266 303.347 233.266C303.347 233.266 304.449 230.978 305.238 231.373C306.027 231.768 304.054 233.661 302.632 234.294L302.64 234.286Z" fill="#4BB374"/>
<path d="M298.087 269.023C298.087 269.023 293.673 267.443 294.619 266.974C295.564 266.497 297.693 268.003 297.693 268.003C297.693 268.003 297.216 264.209 298.087 264.135C298.958 264.053 298.794 268.003 298.794 268.003C298.794 268.003 299.895 265.707 300.684 266.11C301.473 266.505 299.501 268.398 298.079 269.032L298.087 269.023Z" fill="#4BB374"/>
<path d="M326.855 256.029C326.855 256.029 322.433 254.449 323.386 253.98C324.331 253.503 326.46 255.009 326.46 255.009C326.46 255.009 325.983 251.215 326.855 251.141C327.726 251.059 327.561 255.009 327.561 255.009C327.561 255.009 328.663 252.721 329.452 253.116C330.241 253.511 328.268 255.404 326.846 256.038L326.855 256.029Z" fill="#4BB374"/>
<path d="M336.964 232.122C336.964 232.122 332.542 230.542 333.496 230.073C334.441 229.596 336.569 231.102 336.569 231.102C336.569 231.102 336.093 227.308 336.964 227.234C337.835 227.151 337.671 231.102 337.671 231.102C337.671 231.102 338.772 228.814 339.561 229.209C340.35 229.604 338.378 231.497 336.956 232.13L336.964 232.122Z" fill="#4BB374"/>
<path d="M123.617 238.879C123.617 238.879 119.204 237.299 120.149 236.83C121.094 236.352 123.223 237.858 123.223 237.858C123.223 237.858 122.746 234.065 123.617 233.991C124.489 233.908 124.324 237.858 124.324 237.858C124.324 237.858 125.426 235.571 126.215 235.966C127.004 236.361 125.031 238.253 123.609 238.887L123.617 238.879Z" fill="#4BB374"/>
<path d="M89.8117 226.674C89.8117 226.674 85.3979 225.094 86.3432 224.625C87.2884 224.147 89.4172 225.653 89.4172 225.653C89.4172 225.653 88.9404 221.86 89.8117 221.785C90.6829 221.703 90.5185 225.653 90.5185 225.653C90.5185 225.653 91.6199 223.366 92.409 223.761C93.198 224.156 91.2254 226.048 89.8035 226.682L89.8117 226.674Z" fill="#4BB374"/>
</g>
<path opacity="0.1" d="M136.094 331.346C158.155 344.777 184.053 352.512 211.76 352.512C292.301 352.512 357.594 287.137 357.594 206.495C357.594 176.037 348.274 147.76 332.345 124.355C333.191 309.299 195.7 330.737 136.086 331.346H136.094Z" fill="#070707"/>
<path d="M194.763 347.772C194.763 347.772 173.484 304.904 241.802 258.958C241.802 258.958 248.698 331.189 194.763 347.772Z" fill="#4AD887"/>
<path d="M197.204 344.447C199.431 341.789 201.544 339.032 203.566 336.209C212.048 330.885 220.21 324.605 227.056 317.273C227.656 316.631 226.662 315.693 226.054 316.343C220.037 322.787 213.01 328.391 205.629 333.255C209.147 328.095 212.368 322.721 215.385 317.223C222.248 311.496 229.711 305.381 234.708 297.917C235.202 297.184 233.993 296.551 233.5 297.275C229.234 303.636 223.078 309.01 217.119 314.006C220.432 307.784 223.506 301.439 226.473 295.119C226.867 294.271 227.254 293.415 227.64 292.568C231.454 288.905 235.456 285.161 238.555 280.865C239.065 280.157 238.07 279.219 237.552 279.935C235.136 283.276 232.177 286.288 229.193 289.185C232.917 280.98 236.426 272.652 239.566 264.208C239.87 263.385 238.539 263.073 238.234 263.896C235.152 272.199 231.659 280.38 228.018 288.453C228.174 283.836 227.788 279.17 227.286 274.611C227.188 273.738 225.823 273.771 225.922 274.644C226.547 280.347 227.007 286.231 226.432 291.95C226.243 292.37 226.054 292.79 225.856 293.21C222.758 299.941 219.503 306.698 215.985 313.323C216.963 305.743 215.738 297.695 213.799 290.428C213.568 289.572 212.262 289.959 212.492 290.806C214.695 299.061 215.993 308.401 213.988 316.795C213.963 316.886 213.963 316.96 213.971 317.042C211.053 322.318 207.938 327.478 204.552 332.432C206.064 324.49 204.823 316.384 204.864 308.327C204.864 307.447 203.5 307.48 203.5 308.36C203.459 317.462 205.094 326.572 202.399 335.51C200.426 338.25 198.371 340.925 196.209 343.509C195.651 344.184 196.645 345.122 197.204 344.439V344.447Z" fill="#21BF68"/>
<path d="M161.426 344.34C161.426 344.34 138.058 325.857 143.541 320.368C149.023 314.878 169.793 332.358 169.793 332.358C169.793 332.358 144.404 289.169 154.793 283.392C165.182 277.615 180.47 320.656 180.47 320.656C180.47 320.656 183.93 265.484 198.067 265.196C212.204 264.908 198.067 323.544 198.067 323.544C198.067 323.544 215.377 295.234 220.859 300.435C226.341 305.637 213.355 326.721 213.355 326.721C213.355 326.721 237.297 309.965 241.054 319.495C244.802 329.025 199.218 367.737 161.426 344.34Z" fill="#276749"/>
<path d="M234.462 322.219C223.062 333.008 208.136 342.003 192.708 345.122C189.626 345.747 186.692 345.92 183.864 345.739C184.596 343.46 185.278 341.164 185.919 338.851C200.5 334.193 212.212 321.24 217.193 306.871C217.423 306.213 216.379 305.925 216.149 306.583C211.366 320.376 200.171 332.86 186.272 337.576C189.379 326.054 191.525 314.195 193.719 302.542C195.642 292.37 197.426 282.157 199.02 271.928C199.127 271.245 198.083 270.949 197.977 271.64C196.382 281.869 194.582 292.074 192.675 302.254C190.44 314.162 188.253 326.285 185.023 338.045C184.85 338.184 184.809 338.415 184.859 338.621C184.703 339.189 184.538 339.756 184.382 340.324C176.985 331.272 172.193 319.89 167.705 309.216C164.878 302.485 162.231 295.654 159.88 288.741C159.659 288.083 158.615 288.363 158.837 289.029C161.302 296.271 164.105 303.415 167.072 310.459C171.585 321.199 176.492 332.555 184.02 341.575C183.618 342.941 183.198 344.299 182.763 345.649C175.653 344.933 169.218 341.847 162.922 337.279C157.859 333.617 153.083 329.255 148.974 324.532C148.513 324.005 147.749 324.77 148.209 325.297C157.02 335.419 168.889 345.262 182.418 346.719C182.13 347.591 181.834 348.463 181.538 349.327C181.308 349.986 182.352 350.266 182.582 349.615C182.903 348.685 183.223 347.756 183.527 346.817C185.829 346.982 188.179 346.916 190.571 346.554C207.116 344.036 223.16 334.391 235.234 322.968C235.744 322.491 234.98 321.725 234.47 322.203L234.462 322.219Z" fill="#21BF68"/>
<path d="M264.363 266.382C260.295 262.275 242.475 234.155 255.158 232.179C265.629 230.55 265.086 254.926 264.577 263.477C267.848 275.023 267.207 287.252 264.38 298.856C268.563 289.622 276.495 276.99 281.574 281.911C287.829 287.968 266.541 303.184 262.333 306.089C260.96 310.402 259.292 314.681 257.237 318.705C261.117 312.895 280.013 294.79 284.032 303.11C288.117 311.562 258.503 318.977 256.892 319.372C256.843 319.471 256.793 319.569 256.736 319.668C256.76 319.8 256.777 319.874 256.777 319.874C256.744 319.857 256.703 319.825 256.662 319.8C256.415 320.253 256.169 320.713 255.914 321.158C255.618 321.684 254.829 321.191 255.125 320.672C255.388 320.203 255.651 319.734 255.897 319.257C250.078 314.788 233.418 295.481 241.801 291.893C249.437 288.626 255.034 311.776 256.432 318.228C258.347 314.475 259.9 310.492 261.215 306.476C256.81 302.164 242.664 278.454 251.911 276.414C260.402 274.537 261.322 300.724 261.421 305.826C261.832 304.542 262.218 303.258 262.588 301.975C264.108 296.658 265.177 291.161 265.613 285.631C259.744 281.294 242.706 262.226 251.04 258.489C258.141 255.313 263.829 275.319 265.769 283.154C266.023 277.516 265.613 271.871 264.347 266.365L264.363 266.382Z" fill="#4BB374"/>
<path d="M281.213 257.881C289.35 263.049 266.648 286.075 266.648 286.075C266.319 280.553 273.076 252.712 281.213 257.881Z" fill="#4BB374"/>
<path d="M326.756 293.473C334.26 296.288 379.942 302.839 375.224 285.655C371.32 271.467 340.827 286.034 330.315 291.548C313.86 293.983 298.777 301.76 285.725 311.949C295.013 301.39 306.446 284.141 297.339 280.512C286.128 276.043 279.018 311.677 277.744 318.664C273.076 322.861 268.613 327.412 264.7 332.3C269.829 324.079 281.944 289.828 269.139 289.474C256.136 289.112 263.632 330.852 264.051 333.115C263.953 333.239 263.862 333.354 263.772 333.477C263.583 333.518 263.484 333.543 263.484 333.543C263.533 333.576 263.591 333.609 263.64 333.642C263.205 334.21 262.769 334.786 262.35 335.362C261.857 336.037 262.925 336.761 263.41 336.086C263.854 335.485 264.298 334.885 264.758 334.292C273.725 339.115 307.605 349.229 307.366 336.563C307.145 325.025 274.711 331.124 265.753 333.033C269.41 328.474 273.553 324.235 277.884 320.277C285.84 323.396 323.863 327.807 321.175 314.928C318.709 303.102 285.101 316.854 278.591 319.635C279.98 318.384 281.377 317.158 282.791 315.965C288.643 311.002 294.98 306.525 301.712 302.822C310.539 307.793 344.337 318.508 344.312 305.818C344.287 295.012 315.758 299.201 304.753 301.217C311.731 297.687 319.095 294.996 326.772 293.457L326.756 293.473Z" fill="#276749"/>
<path d="M327.898 267.287C316.737 259.922 300.569 301.794 300.569 301.794C307.737 299.07 339.06 274.653 327.898 267.287Z" fill="#276749"/>
<path d="M215.418 352.471C215.418 352.471 184.152 345.575 189.971 336.111C195.79 326.647 217.826 341.049 217.826 341.049C217.826 341.049 195.215 317.422 205.678 312.006C216.141 306.591 229.793 326.359 229.793 326.359C229.793 326.359 215.755 291.054 231.454 288.89C247.152 286.733 243.865 320.68 243.865 320.68C243.865 320.68 252.495 290.848 263.18 294.14C273.865 297.432 259.481 325.412 259.481 325.412C259.481 325.412 279.207 309.266 284.55 320.631C289.892 331.996 258.881 356.899 215.41 352.471H215.418Z" fill="#86EF8B"/>
<path d="M239.615 351.739C239.615 351.739 205.028 347.781 205.686 343.797C206.344 339.814 230.171 344.678 230.171 344.678C230.171 344.678 213.157 325.511 217.826 324.153C222.503 322.796 237.199 336.243 237.199 336.243C237.199 336.243 227.977 310.303 234.001 308.46C240.026 306.616 246.601 331.305 246.601 331.305C246.601 331.305 250.563 307.554 255.98 308.46C261.396 309.365 255.98 333.774 255.98 333.774C255.98 333.774 270.708 321.981 273.996 327.462C277.284 332.951 261.1 353.229 239.607 351.731L239.615 351.739Z" fill="#61E564"/>
<path d="M357.997 184.349C361.219 182.999 377.707 171.445 371.082 167.396C365.616 164.046 360.257 177.79 358.548 182.678C354.043 188.365 351.561 195.344 350.435 202.479C350.246 196.348 348.75 187.451 344.764 189.015C339.865 190.941 348.216 204.396 349.893 206.997C349.654 209.729 349.597 212.502 349.811 215.226C348.997 211.078 342.652 196.57 338.468 200.281C334.227 204.05 349.038 215.086 349.843 215.679C349.843 215.745 349.852 215.811 349.86 215.876C349.811 215.942 349.786 215.983 349.786 215.983C349.811 215.983 349.835 215.975 349.868 215.967C349.901 216.28 349.934 216.592 349.967 216.897C350.008 217.259 350.567 217.168 350.517 216.815C350.476 216.494 350.443 216.164 350.411 215.843C354.701 214.7 368.485 207.803 364.638 203.845C361.137 200.24 352.63 211.869 350.353 215.144C350.156 212.601 350.213 210.017 350.411 207.466C353.871 206.083 367.276 196.134 362.583 192.842C358.276 189.813 351.685 204.223 350.443 207.054C350.509 206.24 350.591 205.433 350.69 204.635C351.076 201.31 351.758 197.993 352.794 194.809C357.085 193.755 371.024 187.073 367.235 183.04C364.013 179.617 356.18 189.459 353.279 193.385C354.446 190.175 355.991 187.122 357.972 184.341L357.997 184.349Z" fill="#276749"/>
<path d="M350.559 175.683C344.813 176.671 352.145 194.817 352.145 194.817C353.616 191.813 356.304 174.688 350.559 175.683Z" fill="#276749"/>
<path d="M332.312 196.669C329.813 196.463 315.997 192.208 319.621 187.978C322.621 184.481 329.312 192.686 331.564 195.648C335.904 198.537 339.134 202.759 341.476 207.392C340.252 203.162 339.315 196.743 342.38 196.932C346.153 197.163 343.416 208.215 342.841 210.363C343.605 212.173 344.263 214.058 344.715 215.967C344.361 212.955 345.495 201.631 349.169 203.244C352.901 204.882 345.208 215.704 344.789 216.288C344.797 216.338 344.813 216.387 344.821 216.428C344.871 216.461 344.895 216.486 344.895 216.486C344.879 216.486 344.854 216.486 344.838 216.486C344.887 216.708 344.928 216.922 344.978 217.144C345.027 217.399 344.632 217.465 344.583 217.21C344.542 216.979 344.493 216.749 344.443 216.527C341.263 216.691 330.315 215.029 332.073 211.474C333.676 208.231 342.052 214.297 344.328 216.033C343.901 214.247 343.293 212.494 342.594 210.799C339.923 210.618 328.564 206.791 331.046 203.499C333.323 200.479 341.008 208.865 342.487 210.527C342.257 209.984 342.027 209.458 341.789 208.923C340.794 206.734 339.594 204.619 338.18 202.668C335.016 202.89 324.01 201.417 325.712 197.821C327.158 194.768 334.679 199.763 337.531 201.804C336.027 199.87 334.293 198.125 332.328 196.661L332.312 196.669Z" fill="#4AD887"/>
<path d="M335.476 189.097C339.619 188.505 338.616 202.528 338.616 202.528C336.948 200.8 331.326 189.69 335.476 189.097Z" fill="#4AD887"/>
<path opacity="0.5" d="M116.582 187.789C131.861 186.802 141.223 196.175 150.585 187.789C159.946 179.403 156.494 166.574 148.119 153.744C139.743 140.914 146.146 135.984 154.028 123.648C161.911 111.312 152.549 105.889 142.201 100.457C131.853 95.0337 135.642 89.2236 135.642 89.2236C98.261 110.744 73.0854 151.135 73.0854 197.41C92.6719 204.561 101.294 188.777 116.573 187.789H116.582Z" fill="#39C976"/>
<path opacity="0.4" d="M149.286 79.8173C149.286 79.8173 146.837 83.9074 159.84 89.2237C172.851 94.54 182.747 102.202 176.155 112.629C169.563 123.064 157.9 135.507 162.634 148.485C167.368 161.463 176.903 173.89 171.034 189.073C165.174 204.257 154.965 206.026 138.149 204.323C121.332 202.611 115.612 199.945 104.499 206.487C93.387 213.038 79.1431 213.532 79.1431 213.532H341.452C341.452 213.532 322.367 197.542 305.419 199.253C288.462 200.965 270.388 208.594 260.517 209.721C250.654 210.841 220.292 200.076 214.374 193.386C208.456 186.703 216.585 170.211 227.862 159.801C239.139 149.39 254.878 138.198 255.503 127.886C256.128 117.575 256.152 92.713 275.591 85.1171C275.591 85.1171 232.563 48.084 149.278 79.809L149.286 79.8173Z" fill="#76DCF4"/>
<path d="M226.292 119.591C223.086 121.245 218.229 123.376 219.24 128.166C220.251 132.956 219.494 134.47 215.467 140.774C211.44 147.078 209.672 149.193 212.952 156.204C216.223 163.216 226.801 156.912 229.826 150.608C232.851 144.304 229.325 133.968 231.84 129.17C234.355 124.38 229.621 117.871 226.3 119.591H226.292Z" fill="#21BF68"/>
<path opacity="0.5" d="M226.111 123.574C224.106 124.817 221.089 126.388 221.525 130.265C221.96 134.141 221.443 135.342 218.771 140.296C216.1 145.251 214.949 146.905 216.667 152.633C218.385 158.36 225.018 153.595 227.089 148.608C229.152 143.621 227.41 135.211 229.111 131.433C230.812 127.656 228.191 122.29 226.119 123.574H226.111Z" fill="#39C976"/>
<path d="M265.958 117.558H262.53L258.117 216.971H270.372L265.958 117.558Z" fill="#E3FFFC"/>
<path d="M264.24 62.8311C250.982 87.742 264.24 114.834 264.24 114.834C264.24 114.834 277.506 87.742 264.24 62.8311Z" fill="#E3FFFC"/>
<path d="M264.248 62.8311C250.991 87.742 264.248 114.834 264.248 114.834V62.8311Z" fill="#9AE8E1"/>
<path d="M300.973 151.604C292.762 124.603 264.249 114.834 264.249 114.834C264.249 114.834 274.005 143.391 300.973 151.604Z" fill="#E3FFFC"/>
<path d="M300.964 151.604C292.753 124.603 264.24 114.834 264.24 114.834L300.964 151.604Z" fill="#9AE8E1"/>
<path d="M227.517 151.604C235.728 124.603 264.24 114.834 264.24 114.834C264.24 114.834 254.484 143.391 227.517 151.604Z" fill="#E3FFFC"/>
<path d="M227.525 151.604C235.736 124.603 264.249 114.834 264.249 114.834L227.525 151.604Z" fill="#9AE8E1"/>
<path d="M271.646 114.834C271.646 118.94 268.333 122.265 264.24 122.265C260.147 122.265 256.843 118.94 256.843 114.834C256.843 110.727 260.155 107.402 264.24 107.402C268.325 107.402 271.646 110.727 271.646 114.834Z" fill="#E3FFFC"/>
<path d="M268.415 114.833C268.415 117.146 266.549 119.022 264.24 119.022C261.93 119.022 260.073 117.146 260.073 114.833C260.073 112.521 261.939 110.645 264.24 110.645C266.541 110.645 268.415 112.521 268.415 114.833Z" fill="#52B2CC"/>
<path d="M329.534 140.346H326.114L321.701 216.971H333.956L329.534 140.346Z" fill="#E3FFFC"/>
<path d="M375.808 117.936C347.747 115.237 327.849 137.893 327.849 137.893C327.849 137.893 357.931 139.761 375.808 117.936Z" fill="#E3FFFC"/>
<path d="M375.808 117.945C347.747 115.246 327.849 137.902 327.849 137.902L375.8 117.945H375.808Z" fill="#9AE8E1"/>
<path d="M308.032 185.971C329.78 168.014 327.849 137.902 327.849 137.902C327.849 137.902 305.254 157.876 308.032 185.971Z" fill="#E3FFFC"/>
<path d="M308.032 185.963C329.78 168.006 327.849 137.894 327.849 137.894L308.032 185.963Z" fill="#9AE8E1"/>
<path d="M299.18 94.8691C323.953 108.341 327.791 138.272 327.791 138.272C327.791 138.272 301.81 122.973 299.18 94.8691Z" fill="#E3FFFC"/>
<path d="M299.18 94.8779C323.953 108.35 327.791 138.281 327.791 138.281L299.188 94.8862L299.18 94.8779Z" fill="#9AE8E1"/>
<path d="M335.23 137.622C335.23 141.728 331.917 145.053 327.824 145.053C323.731 145.053 320.427 141.728 320.427 137.622C320.427 133.515 323.739 130.19 327.824 130.19C331.909 130.19 335.23 133.515 335.23 137.622Z" fill="#E3FFFC"/>
<path d="M331.999 137.621C331.999 139.934 330.134 141.81 327.824 141.81C325.514 141.81 323.657 139.934 323.657 137.621C323.657 135.309 325.523 133.433 327.824 133.433C330.125 133.433 331.999 135.309 331.999 137.621Z" fill="#52B2CC"/>
<path d="M86.8017 108.738C87.0483 107.495 87.1305 106.228 86.9743 104.944C85.9469 96.5252 76.125 90.7974 65.0372 92.1471C62.6372 92.4434 60.3851 93.0523 58.3303 93.9C55.2481 87.6784 46.8645 83.827 37.5767 84.9627C26.489 86.3123 18.3273 94.2374 19.3465 102.656C19.5109 104.014 19.9301 105.29 20.5136 106.491C11.5218 107.849 4.98749 114.351 5.82585 121.263C6.68887 128.341 14.941 133.155 24.2616 132.019C24.7547 131.962 25.2315 131.88 25.7082 131.789C28.7822 136.068 35.1274 138.562 42.0809 137.714C46.2316 137.204 49.8809 135.591 52.5769 133.328C57.7961 136.241 65.7112 137.574 74.3167 136.521C88.8237 134.752 99.7964 126.892 98.8347 118.967C98.2594 114.244 93.5662 110.565 86.8017 108.738Z" fill="#B3F1FF"/>
<path d="M164.665 131.135C164.793 130.48 164.836 129.813 164.755 129.136C164.22 124.701 159.106 121.684 153.333 122.395C152.083 122.551 150.911 122.872 149.841 123.318C148.236 120.041 143.871 118.012 139.036 118.61C133.263 119.321 129.013 123.496 129.544 127.931C129.63 128.646 129.848 129.318 130.152 129.951C125.47 130.667 122.068 134.092 122.505 137.733C122.954 141.462 127.25 143.998 132.103 143.4C132.36 143.369 132.608 143.326 132.856 143.278C134.457 145.533 137.76 146.846 141.381 146.4C143.542 146.131 145.442 145.281 146.845 144.089C149.563 145.624 153.684 146.326 158.164 145.771C165.717 144.839 171.43 140.699 170.93 136.524C170.63 134.035 168.187 132.097 164.665 131.135Z" fill="#B3F1FF"/>
<path d="M361.838 55.4971C360.449 55.2996 359.085 55.242 357.77 55.2996C356.093 50.0573 350.373 45.6792 343.074 44.6587C333.745 43.3502 325.386 48.0329 324.4 55.1103C324.334 55.5547 324.309 56.0073 324.301 56.4435C324.268 56.4435 324.244 56.4353 324.211 56.427C316.674 55.3736 309.918 59.151 309.12 64.8788C308.323 70.6066 313.781 76.0875 321.318 77.1409C322 77.2397 322.674 77.2808 323.34 77.2973C324.277 83.2226 330.392 88.4072 338.405 89.5264C346.929 90.7197 354.647 86.9094 356.66 80.8442C357.186 80.9594 357.721 81.05 358.255 81.1322C367.584 82.4408 375.943 77.7581 376.929 70.6724C377.915 63.595 371.159 56.7974 361.83 55.4889L361.838 55.4971Z" fill="#B3F1FF"/>
<path d="M94.1921 216.971H85.751L88.5702 178.77H91.3812L94.1921 216.971Z" fill="#276749"/>
<path d="M119.516 179.469H60.4277L67.4634 141.383H112.48L119.516 179.469Z" fill="#276749"/>
<path d="M116.606 177.593H63.3457L69.6827 143.268H110.261L116.606 177.593Z" fill="#E2EFF8"/>
<mask id="mask0_4036_7408" style="mask-type:luminance" maskUnits="userSpaceOnUse" x="63" y="143" width="54" height="35">
<path d="M116.606 177.593H63.3457L69.6827 143.268H110.261L116.606 177.593Z" fill="white"/>
</mask>
<g mask="url(#mask0_4036_7408)">
<path d="M90.3294 141.383H89.6226V178.762H90.3294V141.383Z" fill="#9AE8E1"/>
<path d="M79.4127 141.353L75.9224 178.741L76.6262 178.807L80.1165 141.418L79.4127 141.353Z" fill="#9AE8E1"/>
<path d="M100.521 141.351L99.8174 141.417L103.334 178.803L104.038 178.737L100.521 141.351Z" fill="#9AE8E1"/>
<path d="M120.864 145.638H59.0801V146.345H120.864V145.638Z" fill="#9AE8E1"/>
<path d="M120.864 159.727H59.0801V160.434H120.864V159.727Z" fill="#9AE8E1"/>
<path d="M120.864 152.683H59.0801V153.39H120.864V152.683Z" fill="#9AE8E1"/>
<path d="M120.864 166.771H59.0801V167.479H120.864V166.771Z" fill="#9AE8E1"/>
<path d="M120.864 173.808H59.0801V174.515H120.864V173.808Z" fill="#9AE8E1"/>
</g>
<path d="M152.919 216.972H146.574L148.694 188.283H150.807L152.919 216.972Z" fill="#276749"/>
<path d="M171.93 188.81H127.562L132.839 160.212H166.653L171.93 188.81Z" fill="#276749"/>
<path d="M169.744 187.402H129.749L134.508 161.619H164.985L169.744 187.402Z" fill="#E2EFF8"/>
<mask id="mask1_4036_7408" style="mask-type:luminance" maskUnits="userSpaceOnUse" x="129" y="161" width="41" height="27">
<path d="M169.744 187.402H129.749L134.508 161.619H164.985L169.744 187.402Z" fill="white"/>
</mask>
<g mask="url(#mask1_4036_7408)">
<path d="M150.009 160.212H149.483V188.283H150.009V160.212Z" fill="#9AE8E1"/>
<path d="M141.813 160.196L139.197 188.269L139.721 188.317L142.337 160.245L141.813 160.196Z" fill="#9AE8E1"/>
<path d="M157.664 160.188L157.14 160.237L159.78 188.308L160.304 188.258L157.664 160.188Z" fill="#9AE8E1"/>
<path d="M172.949 163.404H126.552V163.931H172.949V163.404Z" fill="#9AE8E1"/>
<path d="M172.949 173.979H126.552V174.506H172.949V173.979Z" fill="#9AE8E1"/>
<path d="M172.949 168.696H126.552V169.223H172.949V168.696Z" fill="#9AE8E1"/>
<path d="M172.949 179.271H126.552V179.797H172.949V179.271Z" fill="#9AE8E1"/>
<path d="M172.949 184.562H126.552V185.089H172.949V184.562Z" fill="#9AE8E1"/>
</g>
<path d="M179.697 29.8464C179.895 29.1469 179.969 28.4391 179.886 27.7232C179.311 23.0241 172.497 20.0038 164.664 20.9667C162.971 21.1724 161.377 21.5592 159.914 22.0777C157.851 18.6459 152.015 16.6544 145.456 17.4609C137.631 18.4237 131.755 23.0158 132.33 27.7149C132.42 28.4721 132.691 29.1798 133.086 29.8382C126.733 30.7681 122.023 34.529 122.5 38.3887C122.985 42.3389 128.713 44.8818 135.289 44.0671C135.634 44.026 135.971 43.9684 136.308 43.9108C138.396 46.248 142.826 47.5318 147.733 46.9228C150.667 46.5607 153.256 45.5896 155.188 44.2729C158.804 45.8036 164.36 46.4043 170.434 45.6554C180.675 44.3963 188.525 39.7877 187.982 35.3684C187.662 32.735 184.423 30.7599 179.689 29.8629L179.697 29.8464Z" fill="#B3F1FF"/>
<path d="M179.271 91.3357C179.074 90.6361 179 89.9284 179.082 89.2124C179.658 84.5133 186.472 81.4931 194.304 82.4559C195.998 82.6617 197.592 83.0485 199.055 83.5669C201.118 80.1352 206.954 78.1436 213.513 78.9501C221.337 79.913 227.214 84.5051 226.639 89.2042C226.548 89.9613 226.277 90.6691 225.883 91.3274C232.236 92.2574 236.946 96.0183 236.469 99.878C235.984 103.828 230.255 106.371 223.68 105.556C223.335 105.515 222.998 105.458 222.661 105.4C220.573 107.737 216.143 109.021 211.236 108.412C208.302 108.05 205.713 107.079 203.781 105.762C200.165 107.293 194.609 107.894 188.535 107.145C178.293 105.886 170.444 101.277 170.986 96.8577C171.307 94.2242 174.545 92.2491 179.28 91.3521L179.271 91.3357Z" fill="#B3F1FF"/>
<g opacity="0.5">
<path d="M164.623 80.8867C164.623 80.8867 158.648 88.4168 160.653 89.355C162.659 90.2931 164.623 80.8867 164.623 80.8867Z" fill="#B3F1FF"/>
<path d="M166.809 97.0742C166.809 97.0742 160.834 104.604 162.839 105.542C164.845 106.489 166.809 97.0742 166.809 97.0742Z" fill="#B3F1FF"/>
<path d="M183.823 76.624C183.823 76.624 177.848 84.1541 179.853 85.0923C181.859 86.0387 183.823 76.624 183.823 76.624Z" fill="#B3F1FF"/>
<path d="M181.637 112.307C181.637 112.307 175.661 119.837 177.667 120.775C179.672 121.721 181.637 112.307 181.637 112.307Z" fill="#B3F1FF"/>
<path d="M194.073 85.1416C194.073 85.1416 188.097 92.6717 190.103 93.6098C192.108 94.5562 194.073 85.1416 194.073 85.1416Z" fill="#B3F1FF"/>
<path d="M131.935 130.782C131.935 130.782 125.96 138.312 127.965 139.25C129.971 140.197 131.935 130.782 131.935 130.782Z" fill="#B3F1FF"/>
<path d="M163.069 135.103C163.069 135.103 157.094 142.633 159.1 143.571C161.105 144.517 163.069 135.103 163.069 135.103Z" fill="#B3F1FF"/>
<path d="M243.454 76.624C243.454 76.624 237.478 84.1541 239.484 85.0923C241.489 86.0387 243.454 76.624 243.454 76.624Z" fill="#B3F1FF"/>
<path d="M284.065 75.5537C284.065 75.5537 278.09 83.0838 280.095 84.022C282.101 84.9684 284.065 75.5537 284.065 75.5537Z" fill="#B3F1FF"/>
<path d="M289.046 92.8115C289.046 92.8115 283.071 100.342 285.076 101.28C287.082 102.226 289.046 92.8115 289.046 92.8115Z" fill="#B3F1FF"/>
<path d="M244.802 99.8232C244.802 99.8232 238.826 107.353 240.832 108.291C242.837 109.23 244.802 99.8232 244.802 99.8232Z" fill="#B3F1FF"/>
<path d="M296.673 114.751C296.673 114.751 290.698 122.281 292.704 123.219C294.709 124.166 296.673 114.751 296.673 114.751Z" fill="#B3F1FF"/>
<path d="M106.694 129.17C106.694 129.17 100.719 136.7 102.724 137.638C104.73 138.585 106.694 129.17 106.694 129.17Z" fill="#B3F1FF"/>
<path d="M294.479 160.302C294.479 160.302 288.503 167.832 290.509 168.77C292.514 169.716 294.479 160.302 294.479 160.302Z" fill="#B3F1FF"/>
<path d="M313.104 134.009C313.104 134.009 307.128 141.539 309.134 142.477C311.139 143.423 313.104 134.009 313.104 134.009Z" fill="#B3F1FF"/>
<path d="M136.818 142.263C136.818 142.263 130.842 149.793 132.848 150.731C134.853 151.677 136.818 142.263 136.818 142.263Z" fill="#B3F1FF"/>
</g>
</g>
<defs>
<clipPath id="clip0_4036_7408">
<rect width="418" height="413" fill="white"/>
</clipPath>
</defs>
</svg>
