<svg width="24" height="24" viewBox="0 0 24 24" fill="none" xmlns="http://www.w3.org/2000/svg">
<path d="M22.17 9.17004C22.17 5.30004 19.04 2.17004 15.17 2.17004C11.3 2.17004 8.17 5.30004 8.17 9.17004C8.16872 10.8228 8.75397 12.4224 9.82156 13.6841C10.8892 14.9458 12.3698 15.7877 14 16.06V20H6V17H7V13C7 12.45 6.55 12 6 12H3C2.45 12 2 12.45 2 13V17H3V22H19V20H16V16.12C17.7006 15.917 19.2677 15.0975 20.4048 13.8167C21.5418 12.5359 22.1698 10.8827 22.17 9.17004ZM4.5 11C5.33 11 6 10.33 6 9.50004C6 8.67004 5.33 8.00004 4.5 8.00004C3.67 8.00004 3 8.67004 3 9.50004C3 10.33 3.67 11 4.5 11Z" fill="#48BB78"/>
</svg>
