<svg width="18" height="20" viewBox="0 0 18 20" fill="none" xmlns="http://www.w3.org/2000/svg">
<path d="M16 2H11.82C11.4 0.84 10.3 0 9 0C7.7 0 6.6 0.84 6.18 2H2C0.9 2 0 2.9 0 4V18C0 19.1 0.9 20 2 20H16C17.1 20 18 19.1 18 18V4C18 2.9 17.1 2 16 2ZM9 1.75C9.41 1.75 9.75 2.09 9.75 2.5C9.75 2.91 9.41 3.25 9 3.25C8.59 3.25 8.25 2.91 8.25 2.5C8.25 2.09 8.59 1.75 9 1.75ZM6.1 16H4V13.86L9.96 7.9L12.08 10.02L6.1 16ZM13.85 8.27L12.79 9.33L10.67 7.21L11.73 6.15C11.93 5.95 12.24 5.95 12.44 6.15L13.85 7.56C14.05 7.76 14.05 8.07 13.85 8.27Z" fill="#FFFFF0"/>
</svg>
