<svg width="24" height="24" viewBox="0 0 24 24" fill="none" xmlns="http://www.w3.org/2000/svg">
<path d="M3.09847 16.7344C2.95369 16.7344 2.81199 16.6926 2.69047 16.6139C2.56895 16.5352 2.4728 16.4231 2.41362 16.2909C1.69759 14.6918 1.39313 12.9389 1.52797 11.1919C1.66281 9.44498 2.23268 7.75956 3.18564 6.28923C4.1386 4.8189 5.44435 3.61042 6.98391 2.77392C8.52347 1.93741 10.2479 1.49947 12 1.5C12.1989 1.5 12.3897 1.57902 12.5304 1.71967C12.671 1.86032 12.75 2.05109 12.75 2.25V12C12.7501 12.1448 12.7082 12.2866 12.6294 12.4081C12.5506 12.5296 12.4383 12.6257 12.3061 12.6848L3.40456 16.6669C3.30845 16.7108 3.20412 16.7338 3.09847 16.7344Z" fill="#FFFFF0"/>
<path d="M14.6995 3.19594C14.6451 3.18491 14.589 3.18609 14.5351 3.19938C14.4812 3.21268 14.431 3.23777 14.388 3.27283C14.345 3.3079 14.3103 3.35207 14.2864 3.40216C14.2626 3.45225 14.2501 3.50701 14.25 3.5625V12C14.2496 12.4343 14.1238 12.8591 13.8876 13.2236C13.6514 13.588 13.315 13.8764 12.9187 14.0541L4.8342 17.6719C4.78409 17.6942 4.7395 17.7273 4.70357 17.7688C4.66765 17.8103 4.64127 17.8592 4.62629 17.912C4.61132 17.9648 4.60811 18.0202 4.6169 18.0744C4.62569 18.1285 4.64626 18.1801 4.67717 18.2255C5.29588 19.1354 6.06387 19.9343 6.94873 20.5884C8.62521 21.8356 10.6605 22.5062 12.75 22.5C18.1261 22.5 22.5 18.1261 22.5 12.75C22.5 8.04141 19.1447 4.10156 14.6995 3.19594Z" fill="#FFFFF0"/>
</svg>
