<svg width="20" height="21" viewBox="0 0 20 21" fill="none" xmlns="http://www.w3.org/2000/svg">
<path d="M10.625 1.125V13.3906L14.5312 9.44531C14.7656 9.21094 15.1953 9.21094 15.4297 9.44531C15.6641 9.67969 15.6641 10.1094 15.4297 10.3438L10.4297 15.3438C10.1953 15.5781 9.76562 15.5781 9.53125 15.3438L4.53125 10.3438C4.29688 10.1094 4.29688 9.67969 4.53125 9.44531C4.76562 9.21094 5.19531 9.21094 5.42969 9.44531L9.375 13.3906V1.125C9.375 0.8125 9.64844 0.5 10 0.5C10.3125 0.5 10.625 0.8125 10.625 1.125ZM5.46875 13L6.71875 14.25H2.5C1.79688 14.25 1.25 14.8359 1.25 15.5V18C1.25 18.7031 1.79688 19.25 2.5 19.25H17.5C18.1641 19.25 18.75 18.7031 18.75 18V15.5C18.75 14.8359 18.1641 14.25 17.5 14.25H13.2422L14.4922 13H17.5C18.8672 13 20 14.1328 20 15.5V18C20 19.4062 18.8672 20.5 17.5 20.5H2.5C1.09375 20.5 0 19.4062 0 18V15.5C0 14.1328 1.09375 13 2.5 13H5.46875ZM16.875 16.75C16.875 17.2969 16.4453 17.6875 15.9375 17.6875C15.3906 17.6875 15 17.2969 15 16.75C15 16.2422 15.3906 15.8125 15.9375 15.8125C16.4453 15.8125 16.875 16.2422 16.875 16.75Z" fill="#1C4532"/>
</svg>
