<svg width="40" height="40" viewBox="0 0 40 40" fill="none" xmlns="http://www.w3.org/2000/svg">
<path d="M20.625 10.125V22.3906L24.5312 18.4453C24.7656 18.2109 25.1953 18.2109 25.4297 18.4453C25.6641 18.6797 25.6641 19.1094 25.4297 19.3438L20.4297 24.3438C20.1953 24.5781 19.7656 24.5781 19.5312 24.3438L14.5312 19.3438C14.2969 19.1094 14.2969 18.6797 14.5312 18.4453C14.7656 18.2109 15.1953 18.2109 15.4297 18.4453L19.375 22.3906V10.125C19.375 9.8125 19.6484 9.5 20 9.5C20.3125 9.5 20.625 9.8125 20.625 10.125ZM15.4688 22L16.7188 23.25H12.5C11.7969 23.25 11.25 23.8359 11.25 24.5V27C11.25 27.7031 11.7969 28.25 12.5 28.25H27.5C28.1641 28.25 28.75 27.7031 28.75 27V24.5C28.75 23.8359 28.1641 23.25 27.5 23.25H23.2422L24.4922 22H27.5C28.8672 22 30 23.1328 30 24.5V27C30 28.4062 28.8672 29.5 27.5 29.5H12.5C11.0938 29.5 10 28.4062 10 27V24.5C10 23.1328 11.0938 22 12.5 22H15.4688ZM26.875 25.75C26.875 26.2969 26.4453 26.6875 25.9375 26.6875C25.3906 26.6875 25 26.2969 25 25.75C25 25.2422 25.3906 24.8125 25.9375 24.8125C26.4453 24.8125 26.875 25.2422 26.875 25.75Z" fill="#1C4532"/>
</svg>
