<svg width="32" height="32" viewBox="0 0 32 32" fill="none" xmlns="http://www.w3.org/2000/svg">
<path d="M0.5 0.5H28C29.933 0.5 31.5 2.067 31.5 4V28C31.5 29.933 29.933 31.5 28 31.5H0.5V0.5Z" fill="white"/>
<path d="M0.5 0.5H28C29.933 0.5 31.5 2.067 31.5 4V28C31.5 29.933 29.933 31.5 28 31.5H0.5V0.5Z" stroke="#E1E6DD"/>
<path d="M10.75 19.0625V21.25H12.9375L19.3892 14.7983L17.2017 12.6108L10.75 19.0625ZM21.0808 13.1066C21.1349 13.0527 21.1778 12.9886 21.2071 12.918C21.2364 12.8474 21.2514 12.7718 21.2514 12.6954C21.2514 12.619 21.2364 12.5433 21.2071 12.4728C21.1778 12.4022 21.1349 12.3381 21.0808 12.2841L19.7158 10.9191C19.6619 10.8651 19.5978 10.8221 19.5272 10.7929C19.4566 10.7636 19.381 10.7485 19.3046 10.7485C19.2282 10.7485 19.1525 10.7636 19.082 10.7929C19.0114 10.8221 18.9473 10.8651 18.8933 10.9191L17.8258 11.9866L20.0133 14.1741L21.0808 13.1066Z" fill="#1C4532"/>
</svg>
