<svg width="40" height="40" viewBox="0 0 40 40" fill="none" xmlns="http://www.w3.org/2000/svg">
<path d="M20 10.75C16.8359 10.75 13.9844 12.4297 12.4219 15.125C10.8203 17.8594 10.8203 21.1797 12.4219 23.875C13.9844 26.6094 16.8359 28.25 20 28.25C23.125 28.25 25.9766 26.6094 27.5391 23.875C29.1406 21.1797 29.1406 17.8594 27.5391 15.125C25.9766 12.4297 23.125 10.75 20 10.75ZM20 29.5C16.4062 29.5 13.125 27.625 11.3281 24.5C9.53125 21.4141 9.53125 17.625 11.3281 14.5C13.125 11.4141 16.4062 9.5 20 9.5C23.5547 9.5 26.8359 11.4141 28.6328 14.5C30.4297 17.625 30.4297 21.4141 28.6328 24.5C26.8359 27.625 23.5547 29.5 20 29.5ZM18.125 23.25H19.375V19.5H18.4375C18.0859 19.5 17.8125 19.2266 17.8125 18.875C17.8125 18.5625 18.0859 18.25 18.4375 18.25H20C20.3125 18.25 20.625 18.5625 20.625 18.875V23.25H21.875C22.1875 23.25 22.5 23.5625 22.5 23.875C22.5 24.2266 22.1875 24.5 21.875 24.5H18.125C17.7734 24.5 17.5 24.2266 17.5 23.875C17.5 23.5625 17.7734 23.25 18.125 23.25ZM20 16.6875C19.4531 16.6875 19.0625 16.2969 19.0625 15.75C19.0625 15.2422 19.4531 14.8125 20 14.8125C20.5078 14.8125 20.9375 15.2422 20.9375 15.75C20.9375 16.2969 20.5078 16.6875 20 16.6875Z" fill="#1C4532"/>
</svg>
