<svg width="22" height="21" viewBox="0 0 22 21" fill="none" xmlns="http://www.w3.org/2000/svg">
<path d="M11 1.75C7.83594 1.75 4.98438 3.42969 3.42188 6.125C1.82031 8.85938 1.82031 12.1797 3.42188 14.875C4.98438 17.6094 7.83594 19.25 11 19.25C14.125 19.25 16.9766 17.6094 18.5391 14.875C20.1406 12.1797 20.1406 8.85938 18.5391 6.125C16.9766 3.42969 14.125 1.75 11 1.75ZM11 20.5C7.40625 20.5 4.125 18.625 2.32812 15.5C0.53125 12.4141 0.53125 8.625 2.32812 5.5C4.125 2.41406 7.40625 0.5 11 0.5C14.5547 0.5 17.8359 2.41406 19.6328 5.5C21.4297 8.625 21.4297 12.4141 19.6328 15.5C17.8359 18.625 14.5547 20.5 11 20.5ZM9.125 14.25H10.375V10.5H9.4375C9.08594 10.5 8.8125 10.2266 8.8125 9.875C8.8125 9.5625 9.08594 9.25 9.4375 9.25H11C11.3125 9.25 11.625 9.5625 11.625 9.875V14.25H12.875C13.1875 14.25 13.5 14.5625 13.5 14.875C13.5 15.2266 13.1875 15.5 12.875 15.5H9.125C8.77344 15.5 8.5 15.2266 8.5 14.875C8.5 14.5625 8.77344 14.25 9.125 14.25ZM11 7.6875C10.4531 7.6875 10.0625 7.29688 10.0625 6.75C10.0625 6.24219 10.4531 5.8125 11 5.8125C11.5078 5.8125 11.9375 6.24219 11.9375 6.75C11.9375 7.29688 11.5078 7.6875 11 7.6875Z" fill="#1C4532"/>
</svg>
