<svg width="30" height="30" viewBox="0 0 30 30" fill="none" xmlns="http://www.w3.org/2000/svg">
<path d="M21.2855 0H8.71453C3.90932 0 0 3.90932 0 8.71453V21.2855C0 26.0907 3.90932 30 8.71453 30H21.2855C22.6719 30 23.9978 29.6837 25.2265 29.0596C26.3972 28.4651 27.4365 27.5967 28.2319 26.5481C28.623 26.0325 28.5222 25.2974 28.0066 24.9062C27.4911 24.5151 26.756 24.6158 26.3647 25.1316C25.1474 26.736 23.2962 27.6562 21.2855 27.6562H8.71453C5.20166 27.6562 2.34375 24.7983 2.34375 21.2855V8.71453C2.34375 5.20166 5.20166 2.34375 8.71453 2.34375H21.2855C24.7983 2.34375 27.6562 5.20166 27.6562 8.71453V20.0977C27.6562 20.7449 28.1809 21.2695 28.8281 21.2695C29.4754 21.2695 30 20.7449 30 20.0977V8.71453C30 3.90932 26.0907 0 21.2855 0Z" fill="#276749"/>
<path d="M15 6.91406C10.5414 6.91406 6.91406 10.5414 6.91406 15C6.91406 19.4586 10.5414 23.0859 15 23.0859C19.4586 23.0859 23.0859 19.4586 23.0859 15C23.0859 10.5414 19.4586 6.91406 15 6.91406ZM15 20.7422C11.8338 20.7422 9.25781 18.1662 9.25781 15C9.25781 11.8338 11.8338 9.25781 15 9.25781C18.1662 9.25781 20.7422 11.8338 20.7422 15C20.7422 18.1662 18.1662 20.7422 15 20.7422Z" fill="#276749"/>
<path d="M23.2031 7.96875C23.8503 7.96875 24.375 7.44408 24.375 6.79688C24.375 6.14967 23.8503 5.625 23.2031 5.625C22.5559 5.625 22.0312 6.14967 22.0312 6.79688C22.0312 7.44408 22.5559 7.96875 23.2031 7.96875Z" fill="#276749"/>
</svg>
