<svg width="20" height="19" viewBox="0 0 20 19" fill="none" xmlns="http://www.w3.org/2000/svg">
<path d="M3.75 2C3.04688 2 2.5 2.58594 2.5 3.25V15.75C2.5 16.4531 3.04688 17 3.75 17H16.25C16.9141 17 17.5 16.4531 17.5 15.75V3.25C17.5 2.58594 16.9141 2 16.25 2H3.75ZM1.25 3.25C1.25 1.88281 2.34375 0.75 3.75 0.75H16.25C17.6172 0.75 18.75 1.88281 18.75 3.25V15.75C18.75 17.1562 17.6172 18.25 16.25 18.25H3.75C2.34375 18.25 1.25 17.1562 1.25 15.75V3.25ZM6.25 8.875H13.75C14.0625 8.875 14.375 9.1875 14.375 9.5C14.375 9.85156 14.0625 10.125 13.75 10.125H6.25C5.89844 10.125 5.625 9.85156 5.625 9.5C5.625 9.1875 5.89844 8.875 6.25 8.875Z" fill="#1C4532"/>
</svg>
