<svg width="14" height="17" viewBox="0 0 14 17" fill="none" xmlns="http://www.w3.org/2000/svg">
<path d="M10 5C10 3.9375 9.40625 2.96875 8.5 2.40625C7.5625 1.875 6.40625 1.875 5.5 2.40625C4.5625 2.96875 4 3.9375 4 5C4 6.09375 4.5625 7.0625 5.5 7.625C6.40625 8.15625 7.5625 8.15625 8.5 7.625C9.40625 7.0625 10 6.09375 10 5ZM3 5C3 3.59375 3.75 2.28125 5 1.5625C6.21875 0.84375 7.75 0.84375 9 1.5625C10.2188 2.28125 11 3.59375 11 5C11 6.4375 10.2188 7.75 9 8.46875C7.75 9.1875 6.21875 9.1875 5 8.46875C3.75 7.75 3 6.4375 3 5ZM1 16H13C12.9375 13.5312 10.9062 11.5 8.40625 11.5H5.5625C3.0625 11.5 1.03125 13.5312 1 16ZM0 16.0938C0 13 2.46875 10.5 5.5625 10.5H8.40625C11.5 10.5 14 13 14 16.0938C14 16.5938 13.5625 17 13.0625 17H0.90625C0.40625 17 0 16.5938 0 16.0938Z" fill="#276749"/>
</svg>
