<svg width="16" height="17" viewBox="0 0 16 17" fill="none" xmlns="http://www.w3.org/2000/svg">
<path d="M6.66671 11.3333L10.6667 8.33332L6.66671 5.33332V11.3333ZM8.00004 1.66666C4.32004 1.66666 1.33337 4.65332 1.33337 8.33332C1.33337 12.0133 4.32004 15 8.00004 15C11.68 15 14.6667 12.0133 14.6667 8.33332C14.6667 4.65332 11.68 1.66666 8.00004 1.66666ZM8.00004 13.6667C5.06004 13.6667 2.66671 11.2733 2.66671 8.33332C2.66671 5.39332 5.06004 2.99999 8.00004 2.99999C10.94 2.99999 13.3334 5.39332 13.3334 8.33332C13.3334 11.2733 10.94 13.6667 8.00004 13.6667Z" fill="#22543D"/>
</svg>
