<svg width="24" height="24" viewBox="0 0 24 24" fill="none" xmlns="http://www.w3.org/2000/svg">
<path d="M19.71 9.71L22 12V6H16L18.29 8.29L14.12 12.46C14.0275 12.5527 13.9176 12.6263 13.7966 12.6764C13.6757 12.7266 13.546 12.7524 13.415 12.7524C13.284 12.7524 13.1543 12.7266 13.0334 12.6764C12.9124 12.6263 12.8025 12.5527 12.71 12.46L11.54 11.29C10.9775 10.7282 10.215 10.4126 9.42 10.4126C8.625 10.4126 7.8625 10.7282 7.3 11.29L2 16.59L3.41 18L8.7 12.71C8.79251 12.6173 8.9024 12.5437 9.02338 12.4936C9.14435 12.4434 9.27403 12.4176 9.405 12.4176C9.53597 12.4176 9.66565 12.4434 9.78662 12.4936C9.9076 12.5437 10.0175 12.6173 10.11 12.71L11.28 13.88C11.8425 14.4418 12.605 14.7574 13.4 14.7574C14.195 14.7574 14.9575 14.4418 15.52 13.88L19.71 9.71Z" fill="#FFFFF0"/>
</svg>
