<svg width="20" height="21" viewBox="0 0 20 21" fill="none" xmlns="http://www.w3.org/2000/svg">
<path d="M9.5 1.5H12.5L13 3L15 6.5L18.5 8L19.5 10L17.5 12L14.5 14.5V18.5L12.5 20L8.5 17.5H3L1 16.5L2 14.5L3 11.5L0.5 6L1 4.5H7L9.5 1.5Z" fill="#E2A873"/>
<path d="M7.38281 16.7891C7.42188 16.75 7.46094 16.75 7.5 16.75C8.5938 16.75 9.6484 17.1406 10.5078 17.8047L11.9531 18.9766C12.1875 19.1719 12.4609 19.2891 12.7344 19.2891C13.5156 19.2891 14.1406 18.5859 14.0625 17.8047L13.9453 16.9453C13.7891 15.3047 14.4531 13.7031 15.7812 12.7266L18.1641 10.9297C18.5156 10.6562 18.7109 10.2656 18.7109 9.83594C18.7109 9.25 18.3594 8.74219 17.8516 8.54688L16.5625 8.07812C14.9219 7.45312 13.6719 6.125 13.125 4.48438L12.5391 2.72656C12.3438 2.14062 11.7969 1.78906 11.2109 1.78906C10.8203 1.78906 10.4297 1.94531 10.1562 2.25781L9.2969 3.3125C8.0859 4.75781 6.21094 5.42188 4.375 5.10938L2.69531 4.79688C1.95312 4.64062 1.25 5.22656 1.25 6.00781C1.25 6.28125 1.28906 6.51562 1.44531 6.71094L3.00781 9.13281C3.4375 9.79688 3.67188 10.5391 3.71094 11.3203C3.71094 12.2969 3.4375 13.1953 2.85156 13.9766L2.14844 14.9531C1.95312 15.1875 1.875 15.4609 1.875 15.7734C1.875 16.5938 2.53906 17.2188 3.35938 17.1406L7.38281 16.7891ZM1.99219 9.79688L0.39062 7.375C0.11719 6.98438 0 6.51562 0 6.00781C0 4.44531 1.40625 3.27344 2.92969 3.54688L4.60938 3.85938C6.01562 4.09375 7.42188 3.58594 8.3203 2.49219L9.1797 1.47656C9.6875 0.851562 10.4297 0.5 11.2109 0.5C12.3438 0.5 13.3594 1.24219 13.7109 2.29688L14.2969 4.09375C14.7266 5.38281 15.7422 6.4375 17.0312 6.90625L18.2812 7.375C19.2969 7.76562 20 8.74219 20 9.83594C20 10.6562 19.6094 11.4375 18.9453 11.9453L16.5234 13.7422C15.5469 14.4453 15.0781 15.6172 15.1953 16.7891L15.2734 17.6875C15.4688 19.2109 14.2578 20.5 12.7344 20.5C12.1875 20.5 11.6016 20.3047 11.1719 19.9531L9.7266 18.7812C9.0625 18.2734 8.2812 18 7.5 18L3.47656 18.3906C1.91406 18.5078 0.625 17.2969 0.625 15.7734C0.625 15.1875 0.78125 14.6406 1.13281 14.1719L1.875 13.1953C2.26562 12.6875 2.46094 12.0234 2.46094 11.3594C2.46094 10.8125 2.26562 10.2656 1.99219 9.79688Z" fill="#1C4532"/>
</svg>
