<svg width="20" height="17" viewBox="0 0 20 17" fill="none" xmlns="http://www.w3.org/2000/svg">
<path d="M14 6.5C14 4.5625 12.9375 2.75 11.25 1.75C9.53125 0.78125 7.4375 0.78125 5.75 1.75C4.03125 2.75 3 4.5625 3 6.5C3 8.46875 4.03125 10.2812 5.75 11.2812C7.4375 12.25 9.53125 12.25 11.25 11.2812C12.9375 10.2812 14 8.46875 14 6.5ZM12.7188 11.4375C11.5938 12.4375 10.0938 13 8.5 13C4.90625 13 2 10.0938 2 6.5C2 2.9375 4.90625 0 8.5 0C12.0625 0 15 2.9375 15 6.5C15 8.125 14.4062 9.59375 13.4375 10.75L17.8438 15.1562C18.0312 15.3438 18.0312 15.6875 17.8438 15.875C17.6562 16.0625 17.3125 16.0625 17.125 15.875L12.7188 11.4375Z" fill="#5C5C5C"/>
</svg>
