<svg width="21" height="17" viewBox="0 0 21 17" fill="none" xmlns="http://www.w3.org/2000/svg">
<path d="M18.1875 2.4375C17.8125 2.03125 17.1562 2.03125 16.7812 2.4375L15.9688 3.28125L17.75 5.0625L18.5625 4.21875C18.9688 3.84375 18.9688 3.1875 18.5625 2.8125L18.1875 2.4375ZM10.8125 8.5C10.6562 8.625 10.5625 8.8125 10.5312 9L10.125 10.9062L12.0625 10.5C12.25 10.4688 12.4062 10.375 12.5625 10.25L17.0312 5.75L15.25 4L10.8125 8.5ZM16.0625 1.75C16.8438 0.9375 18.125 0.9375 18.9062 1.71875L19.2812 2.09375C20.0625 2.875 20.0625 4.15625 19.2812 4.9375L13.25 10.9375C13 11.2188 12.625 11.4062 12.25 11.5L9.59375 12.0625C9.40625 12.0938 9.25 12.0312 9.125 11.9062C9 11.7812 8.96875 11.625 9 11.4688L9.5625 8.78125C9.625 8.40625 9.8125 8.0625 10.0938 7.78125L16.0625 1.75ZM2 5H9.5C9.75 5 10 5.25 10 5.5C10 5.78125 9.75 6 9.5 6H2C1.4375 6 1 6.46875 1 7V15C1 15.5625 1.4375 16 2 16H16C16.5312 16 17 15.5625 17 15V9.5C17 9.25 17.2188 9 17.5 9C17.75 9 18 9.25 18 9.5V15C18 16.125 17.0938 17 16 17H2C0.875 17 0 16.125 0 15V7C0 5.90625 0.875 5 2 5ZM4 11.75C3.5625 11.75 3.25 11.4375 3.25 11C3.25 10.5938 3.5625 10.25 4 10.25C4.40625 10.25 4.75 10.5938 4.75 11C4.75 11.4375 4.40625 11.75 4 11.75ZM7.75 11C7.75 11.4375 7.40625 11.75 7 11.75C6.5625 11.75 6.25 11.4375 6.25 11C6.25 10.5938 6.5625 10.25 7 10.25C7.40625 10.25 7.75 10.5938 7.75 11Z" fill="#276749"/>
</svg>
