<svg width="24" height="25" viewBox="0 0 24 25" fill="none" xmlns="http://www.w3.org/2000/svg">
<path d="M19 2.5H9C7.897 2.5 7 3.397 7 4.5V10.086L2.293 14.793C2.15319 14.9329 2.05798 15.111 2.01942 15.305C1.98085 15.4989 2.00065 15.7 2.07632 15.8827C2.15199 16.0654 2.28013 16.2215 2.44454 16.3314C2.60895 16.4413 2.80225 16.5 3 16.5V21.5C3 21.7652 3.10536 22.0196 3.29289 22.2071C3.48043 22.3946 3.73478 22.5 4 22.5H20C20.2652 22.5 20.5196 22.3946 20.7071 22.2071C20.8946 22.0196 21 21.7652 21 21.5V4.5C21 3.397 20.103 2.5 19 2.5ZM11 20.5H5V14.914L8 11.914L11 14.914V20.5ZM19 20.5H13V16.5C13.198 16.5004 13.3916 16.442 13.5563 16.3322C13.721 16.2224 13.8494 16.0662 13.9252 15.8833C14.0009 15.7004 14.0206 15.4991 13.9818 15.305C13.9429 15.1109 13.8473 14.9327 13.707 14.793L9 10.086V4.5H19V20.5Z" fill="#276749"/>
<path d="M11 6.5H13V8.5H11V6.5ZM15 6.5H17V8.5H15V6.5ZM15 10.531H17V12.5H15V10.531ZM15 14.5H17V16.5H15V14.5ZM7 15.5H9V17.5H7V15.5Z" fill="#276749"/>
</svg>
