<svg width="24" height="25" viewBox="0 0 24 25" fill="none" xmlns="http://www.w3.org/2000/svg">
<path d="M13.293 3.20697L14.111 4.02497L3.318 14.818C2.468 15.668 2 16.798 2 18C2 19.202 2.468 20.332 3.318 21.183C4.169 22.032 5.299 22.5 6.5 22.5C7.701 22.5 8.831 22.032 9.682 21.182L20.475 10.389L21.293 11.207L22.707 9.79297L14.707 1.79297L13.293 3.20697ZM16.475 11.561L14.072 9.15697L12.658 10.571L15.061 12.975L13.647 14.39L12.657 13.4L11.243 14.814L12.233 15.804L10.818 17.219L8.415 14.815L7 16.228L9.403 18.632L8.267 19.768C7.322 20.712 5.677 20.712 4.732 19.768C4.26 19.295 4 18.668 4 18C4 17.332 4.26 16.705 4.732 16.232L15.525 5.43897L19.06 8.97397L16.475 11.561Z" fill="#276749"/>
</svg>
