<svg width="24" height="25" viewBox="0 0 24 25" fill="none" xmlns="http://www.w3.org/2000/svg">
<path d="M20 4.5H4C3.46957 4.5 2.96086 4.71071 2.58579 5.08579C2.21071 5.46086 2 5.96957 2 6.5V18.5C2 19.0304 2.21071 19.5391 2.58579 19.9142C2.96086 20.2893 3.46957 20.5 4 20.5H20C20.5304 20.5 21.0391 20.2893 21.4142 19.9142C21.7893 19.5391 22 19.0304 22 18.5V6.5C22 5.96957 21.7893 5.46086 21.4142 5.08579C21.0391 4.71071 20.5304 4.5 20 4.5ZM4 18.5V6.5H20V18.5H4Z" fill="#276749"/>
<path d="M6 8.5H8V16.5H6V8.5ZM9 8.5H10V16.5H9V8.5ZM17 8.5H18V16.5H17V8.5ZM13 8.5H16V16.5H13V8.5ZM11 8.5H12V16.5H11V8.5Z" fill="#276749"/>
</svg>
