<svg width="24" height="25" viewBox="0 0 24 25" fill="none" xmlns="http://www.w3.org/2000/svg">
<path d="M20 3.5H4C2.897 3.5 2 4.397 2 5.5V19.5C2 20.603 2.897 21.5 4 21.5H20C21.103 21.5 22 20.603 22 19.5V5.5C22 4.397 21.103 3.5 20 3.5ZM4 19.5V7.5H20L20.002 19.5H4Z" fill="#276749"/>
<path d="M9.293 9.79297L5.586 13.5L9.293 17.207L10.707 15.793L8.414 13.5L10.707 11.207L9.293 9.79297ZM14.707 9.79297L13.293 11.207L15.586 13.5L13.293 15.793L14.707 17.207L18.414 13.5L14.707 9.79297Z" fill="#276749"/>
</svg>
