<svg width="24" height="25" viewBox="0 0 24 25" fill="none" xmlns="http://www.w3.org/2000/svg">
<path d="M20.29 8.79008L16 13.0801L14.7 11.7901L13.29 13.2101L15.99 15.9101L21.71 10.2101L20.29 8.79008ZM4 8.50008C3.98768 9.02874 4.08273 9.5544 4.27939 10.0453C4.47605 10.5361 4.77024 10.982 5.14415 11.3559C5.51807 11.7298 5.96395 12.024 6.45482 12.2207C6.94569 12.4174 7.47134 12.5124 8 12.5001C8.52866 12.5124 9.05431 12.4174 9.54518 12.2207C10.0361 12.024 10.4819 11.7298 10.8558 11.3559C11.2298 10.982 11.524 10.5361 11.7206 10.0453C11.9173 9.5544 12.0123 9.02874 12 8.50008C12.0123 7.97143 11.9173 7.44577 11.7206 6.9549C11.524 6.46403 11.2298 6.01815 10.8558 5.64424C10.4819 5.27032 10.0361 4.97613 9.54518 4.77947C9.05431 4.58282 8.52866 4.48777 8 4.50008C7.47134 4.48777 6.94569 4.58282 6.45482 4.77947C5.96395 4.97613 5.51807 5.27032 5.14415 5.64424C4.77024 6.01815 4.47605 6.46403 4.27939 6.9549C4.08273 7.44577 3.98768 7.97143 4 8.50008ZM10 8.50008C10.0129 8.76613 9.96993 9.03193 9.87398 9.28041C9.77802 9.52888 9.63115 9.75454 9.4428 9.94289C9.25446 10.1312 9.0288 10.2781 8.78032 10.3741C8.53185 10.47 8.26605 10.5129 8 10.5001C7.73395 10.5129 7.46815 10.47 7.21968 10.3741C6.9712 10.2781 6.74554 10.1312 6.5572 9.94289C6.36885 9.75454 6.22198 9.52888 6.12602 9.28041C6.03007 9.03193 5.98714 8.76613 6 8.50008C5.98714 8.23403 6.03007 7.96824 6.12602 7.71976C6.22198 7.47128 6.36885 7.24563 6.5572 7.05728C6.74554 6.86894 6.9712 6.72207 7.21968 6.62611C7.46815 6.53015 7.73395 6.48722 8 6.50008C8.26605 6.48722 8.53185 6.53015 8.78032 6.62611C9.0288 6.72207 9.25446 6.86894 9.4428 7.05728C9.63115 7.24563 9.77802 7.47128 9.87398 7.71976C9.96993 7.96824 10.0129 8.23403 10 8.50008ZM4 18.5001C4 17.7044 4.31607 16.9414 4.87868 16.3788C5.44129 15.8162 6.20435 15.5001 7 15.5001H9C9.79565 15.5001 10.5587 15.8162 11.1213 16.3788C11.6839 16.9414 12 17.7044 12 18.5001V19.5001H14V18.5001C14 17.8435 13.8707 17.1933 13.6194 16.5867C13.3681 15.98 12.9998 15.4288 12.5355 14.9646C12.0712 14.5003 11.52 14.132 10.9134 13.8807C10.3068 13.6294 9.65661 13.5001 9 13.5001H7C5.67392 13.5001 4.40215 14.0269 3.46447 14.9646C2.52678 15.9022 2 17.174 2 18.5001V19.5001H4V18.5001Z" fill="#276749"/>
</svg>
