<svg width="24" height="25" viewBox="0 0 24 25" fill="none" xmlns="http://www.w3.org/2000/svg">
<path d="M12 22.5C15.859 22.5 19 19.359 19 15.5C19 11.641 15.859 8.5 12 8.5C8.14 8.5 5 11.641 5 15.5C5 19.359 8.14 22.5 12 22.5ZM12 10.5C14.757 10.5 17 12.743 17 15.5C17 18.257 14.757 20.5 12 20.5C9.243 20.5 7 18.257 7 15.5C7 12.743 9.243 10.5 12 10.5ZM11 2.5H7V8.018C8.19668 7.21722 9.56878 6.71675 11 6.559V2.5ZM17 2.5H13V6.559C14.4312 6.71675 15.8033 7.21722 17 8.018V2.5Z" fill="#276749"/>
<path d="M10.019 16.311L9.55099 19.037L12 17.75L14.449 19.037L13.981 16.311L15.963 14.379L13.225 13.981L12 11.5L10.775 13.981L8.03699 14.379L10.019 16.311Z" fill="#276749"/>
</svg>
