<svg width="32" height="32" viewBox="0 0 32 32" fill="none" xmlns="http://www.w3.org/2000/svg">
<g clip-path="url(#clip0_4014_93520)">
<path d="M32 0H0V32H32V0Z" fill="#D52D3C"/>
<path d="M4.46758 4.20948H4.47696V9.14788H5.56222V2.69538H4.69495L3.69641 3.86494V4.99934H3.70579L4.46758 4.20948Z" fill="white"/>
<path d="M24.6445 15.2676C24.6445 14.7777 25.0407 14.3816 25.5306 14.3816C26.0204 14.3816 26.4142 14.7777 26.4142 15.2676C26.4142 15.7574 26.0181 16.1535 25.5306 16.1535C25.043 16.1535 24.6445 15.7574 24.6445 15.2676Z" fill="white"/>
<path d="M26.5643 16.4934C27.1667 16.5473 27.6355 17.0535 27.6355 17.67V20.1263C27.6355 20.3161 27.4808 20.4685 27.2933 20.4685C27.1058 20.4685 26.9487 20.3138 26.9487 20.1263V18.0168C26.9487 17.9372 26.9253 17.8317 26.7799 17.8317C26.6792 17.8317 26.6604 17.9372 26.6557 18.0051V24.3264C26.6557 24.5983 26.4354 24.8186 26.1635 24.8186C25.8916 24.8186 25.6689 24.5959 25.6689 24.3264V20.6841C25.6689 20.6443 25.6548 20.5388 25.5283 20.5388C25.4017 20.5388 25.3876 20.6443 25.3853 20.6841V24.3264C25.3853 24.5983 25.1649 24.8186 24.893 24.8186C24.6211 24.8186 24.3985 24.5959 24.3985 24.3264V18.0051C24.3961 17.9372 24.3727 17.8317 24.2742 17.8317C24.1289 17.8317 24.1078 17.9395 24.1078 18.0168V20.1263C24.1078 20.3161 23.9531 20.4685 23.7632 20.4685C23.5734 20.4685 23.421 20.3138 23.421 20.1263V17.67C23.421 17.0535 23.8922 16.5473 24.4946 16.4934C24.5133 16.491 24.5368 16.4887 24.5602 16.4887H26.4963C26.5221 16.4887 26.5432 16.491 26.5643 16.4934Z" fill="white"/>
<path d="M19.3753 15.7316C19.3753 15.2676 19.0003 14.8926 18.5362 14.8926C18.0721 14.8926 17.697 15.2699 17.697 15.7316C17.697 16.1934 18.0721 16.5707 18.5362 16.5707C19.0003 16.5707 19.3753 16.1957 19.3753 15.7316Z" fill="white"/>
<path d="M16.8484 17.6325L16.1499 19.9036C16.1499 19.9036 16.0257 20.3208 16.3796 20.4239C16.7312 20.5271 16.8367 20.1216 16.8367 20.1216L17.3993 18.2278C17.3993 18.2278 17.4297 18.0825 17.5399 18.1129C17.6501 18.1434 17.6079 18.3004 17.6079 18.3004L16.6281 21.8513H17.5376V24.3943C17.5376 24.6358 17.7321 24.8303 17.9759 24.8303C18.2197 24.8303 18.4119 24.6334 18.4119 24.3943V21.8513H18.6603V24.3943C18.6603 24.6358 18.8549 24.8303 19.0963 24.8303C19.3377 24.8303 19.5346 24.6334 19.5346 24.3943V21.8513H20.4441L19.4666 18.3004C19.4666 18.3004 19.4245 18.1458 19.5346 18.1129C19.6448 18.0801 19.6753 18.2278 19.6753 18.2278L20.2378 20.1216C20.2378 20.1216 20.3456 20.5271 20.6949 20.4239C21.0488 20.3208 20.9246 19.9036 20.9246 19.9036L20.2261 17.6325C20.2261 17.6325 19.9776 16.9762 19.4245 16.9762H17.6477C17.0969 16.9762 16.8461 17.6325 16.8461 17.6325" fill="white"/>
<path d="M14.3522 15.7316C14.3522 15.2676 13.9772 14.8926 13.5131 14.8926C13.049 14.8926 12.674 15.2699 12.674 15.7316C12.674 16.1934 13.049 16.5707 13.5131 16.5707C13.9772 16.5707 14.3522 16.1957 14.3522 15.7316Z" fill="white"/>
<path d="M11.823 17.6325L11.1268 19.9036C11.1268 19.9036 11.0026 20.3208 11.3566 20.4239C11.7082 20.5271 11.8136 20.1216 11.8136 20.1216L12.3762 18.2278C12.3762 18.2278 12.4067 18.0825 12.5168 18.1129C12.627 18.1434 12.5848 18.3004 12.5848 18.3004L11.6074 21.8513H12.5168V24.3943C12.5168 24.6358 12.7137 24.8303 12.9551 24.8303C13.1966 24.8303 13.3911 24.6334 13.3911 24.3943V21.8513H13.6396V24.3943C13.6396 24.6358 13.8341 24.8303 14.0756 24.8303C14.317 24.8303 14.5139 24.6334 14.5139 24.3943V21.8513H15.4234L14.4459 18.3004C14.4459 18.3004 14.4037 18.1458 14.5139 18.1129C14.6241 18.0801 14.6545 18.2278 14.6545 18.2278L15.2171 20.1216C15.2171 20.1216 15.3249 20.5271 15.6742 20.4239C16.0281 20.3208 15.9039 19.9036 15.9039 19.9036L15.2054 17.6325C15.2054 17.6325 14.9569 16.9762 14.4037 16.9762H12.627C12.0762 16.9762 11.8254 17.6325 11.8254 17.6325" fill="white"/>
<path d="M22.1928 20.4263C22.5795 20.4263 22.8913 20.1146 22.8913 19.7278C22.8913 19.3411 22.5795 19.0294 22.1928 19.0294C21.806 19.0294 21.4943 19.3411 21.4943 19.7278C21.4943 20.1146 21.806 20.4263 22.1928 20.4263Z" fill="white"/>
<path d="M20.5192 22.5966C20.4841 22.6787 20.4583 22.8521 20.62 22.9271C20.8122 23.0162 20.92 22.8287 20.92 22.8287L21.2998 21.6193C21.2998 21.6193 21.3654 21.5396 21.3654 21.6216V24.4717C21.3654 24.6709 21.5248 24.8303 21.724 24.8303C21.9233 24.8303 22.0827 24.6709 22.0827 24.4717V23.3467C22.0827 23.3467 22.0616 23.1873 22.1905 23.1873C22.3194 23.1873 22.2983 23.3467 22.2983 23.3467V24.4717C22.2983 24.6709 22.46 24.8303 22.6569 24.8303C22.8538 24.8303 23.0156 24.6709 23.0156 24.4717V21.6216C23.0156 21.5372 23.0601 21.5982 23.0601 21.5982L23.3578 22.4279C23.3578 22.4279 23.4867 22.7982 23.5265 22.8146C23.6601 22.8709 23.8149 22.8076 23.8735 22.6716C23.911 22.5826 23.8969 22.4888 23.8453 22.4162C23.8359 22.3857 23.4 21.3169 23.3507 21.1669C23.1937 20.7075 22.9077 20.7122 22.6311 20.7028C22.3546 20.6958 22.1905 20.7028 22.1905 20.7028C22.1905 20.7028 22.0147 20.6958 21.649 20.7075C21.2857 20.7193 21.1708 20.9044 20.77 21.938C20.7138 22.0857 20.5192 22.5685 20.5169 22.5966H20.5192Z" fill="white"/>
<path d="M6.86077 15.2676C6.86077 14.7777 6.46229 14.3816 5.97474 14.3816C5.4872 14.3816 5.09106 14.7777 5.09106 15.2676C5.09106 15.7574 5.4872 16.1535 5.97474 16.1535C6.46229 16.1535 6.86077 15.7574 6.86077 15.2676Z" fill="white"/>
<path d="M4.93878 16.4934C4.33872 16.5473 3.86523 17.0535 3.86523 17.67V20.1263C3.86523 20.3161 4.01994 20.4685 4.2098 20.4685C4.39966 20.4685 4.55436 20.3138 4.55436 20.1263V18.0168C4.55436 17.9372 4.5778 17.8317 4.72079 17.8317C4.82158 17.8317 4.84267 17.9372 4.84502 18.0051V24.3264C4.84502 24.5983 5.06535 24.8186 5.33725 24.8186C5.60915 24.8186 5.83183 24.5959 5.83183 24.3264V20.6841C5.83183 20.6443 5.8459 20.5388 5.97247 20.5388C6.09905 20.5388 6.11311 20.6443 6.11545 20.6841V24.3264C6.11545 24.5983 6.33579 24.8186 6.60769 24.8186C6.87959 24.8186 7.10227 24.5959 7.10227 24.3264V18.0051C7.10461 17.9372 7.12805 17.8317 7.2265 17.8317C7.37183 17.8317 7.39292 17.9395 7.39292 18.0168V20.1263C7.39292 20.3161 7.54763 20.4685 7.73749 20.4685C7.92735 20.4685 8.07971 20.3138 8.07971 20.1263V17.67C8.07971 17.0535 7.60857 16.5473 7.00617 16.4934C6.98741 16.491 6.96397 16.4887 6.94054 16.4887H5.00441C4.97862 16.4887 4.95753 16.491 4.93643 16.4934" fill="white"/>
<path d="M3.37994 24.6873C3.37994 24.6873 3.37525 24.6873 3.37291 24.6873C3.35416 24.6826 3.34244 24.6662 3.34478 24.6475L4.13236 20.4778C4.13704 20.4591 4.15345 20.4474 4.1722 20.4497C4.19096 20.4544 4.20268 20.4708 4.20033 20.4896L3.41275 24.6592C3.41041 24.6756 3.394 24.6873 3.3776 24.6873H3.37994Z" fill="white"/>
<path d="M8.50163 20.0606C8.45475 19.988 8.3774 19.9411 8.28599 19.9411C8.14535 19.9411 8.03284 20.056 8.03284 20.1942C8.03284 20.2341 8.05862 20.3067 8.05862 20.3067L8.76181 21.5794C8.76181 21.5794 8.80401 21.6685 8.80401 21.7482V24.4834C8.80401 24.6733 8.95871 24.828 9.14857 24.828C9.33843 24.828 9.49079 24.6756 9.49079 24.4834V23.4029C9.49079 23.4029 9.47204 23.2506 9.59393 23.2506C9.71581 23.2506 9.69706 23.4029 9.69706 23.4029V24.4834C9.69706 24.6733 9.85176 24.828 10.0416 24.828C10.2315 24.828 10.3862 24.6756 10.3862 24.4834V21.7482C10.3862 21.6685 10.4284 21.5794 10.4284 21.5794L11.08 20.4028C11.08 20.4028 11.1597 20.2341 11.1597 20.1942C11.1597 20.0536 11.0472 19.9411 10.9042 19.9411C10.8128 19.9411 10.7331 19.988 10.6886 20.0606H10.6862C10.6651 20.0771 10.3393 20.6583 10.2315 20.7638C10.1166 20.8786 10.0158 20.8669 10.0158 20.8669H9.16967C9.16967 20.8669 9.06653 20.8786 8.95402 20.7638C8.8462 20.656 8.52038 20.0771 8.49929 20.0583L8.50163 20.0606Z" fill="white"/>
<path d="M9.59621 20.4263C9.98297 20.4263 10.2947 20.1146 10.2947 19.7278C10.2947 19.3411 9.98297 19.0294 9.59621 19.0294C9.20945 19.0294 8.89771 19.3411 8.89771 19.7278C8.89771 20.1146 9.20945 20.4263 9.59621 20.4263Z" fill="white"/>
<path d="M9.59858 21.406L10.3862 21.9826L10.7612 23.3631H9.59858H8.43127L8.80866 21.9826L9.59858 21.406Z" fill="white"/>
<path d="M9.20251 2.6485H10.2526V3.0071H9.64318V3.75478H10.0792V4.10869H9.64318V4.90324H10.2526V5.26185H9.20251V2.64616V2.6485Z" fill="white"/>
<path d="M10.9652 4.06416V5.26419H10.5245V2.6485H11.1644C11.6075 2.6485 11.7692 2.86882 11.7692 3.23445V3.56962C11.7692 3.85088 11.6684 4.01729 11.4176 4.07588L11.8372 5.26419H11.3731L10.9605 4.06416H10.9652ZM10.9652 3.0071V3.82041H11.1129C11.2629 3.82041 11.3285 3.74306 11.3285 3.60478V3.21805C11.3285 3.07508 11.2629 3.00476 11.1129 3.00476H10.9652V3.0071Z" fill="white"/>
<path d="M12.4864 4.06416V5.26419H12.0458V2.6485H12.6857C13.1287 2.6485 13.2904 2.86882 13.2904 3.23445V3.56962C13.2904 3.85088 13.1896 4.01729 12.9388 4.07588L13.3584 5.26419H12.8966L12.4841 4.06416H12.4864ZM12.4864 3.0071V3.82041H12.6318C12.7818 3.82041 12.8474 3.74306 12.8474 3.60478V3.21805C12.8474 3.07508 12.7818 3.00476 12.6318 3.00476H12.4864V3.0071Z" fill="white"/>
<path d="M13.5012 5.26419L13.9958 2.6485H14.4974L14.9944 5.26419H14.542L14.4599 4.78605H13.9935L13.9161 5.26419H13.4989H13.5012ZM14.0521 4.43448H14.4037L14.2302 3.38446H14.2255L14.0521 4.43448Z" fill="white"/>
<path d="M16.5297 3.35164V4.56339C16.5297 4.96418 16.3633 5.26419 15.8922 5.26419H15.2124V2.6485H15.8922C16.3633 2.6485 16.5297 2.94617 16.5297 3.35164ZM15.8382 4.90559C16.0187 4.90559 16.0891 4.79777 16.0891 4.63839V3.26961C16.0891 3.11492 16.0187 3.0071 15.8382 3.0071H15.6531V4.90559H15.8382Z" fill="white"/>
<path d="M16.818 2.6485H17.2587V5.26419H16.818V2.6485Z" fill="white"/>
<path d="M17.547 4.58918V3.32352C17.547 2.9157 17.7392 2.61803 18.2033 2.61803C18.6885 2.61803 18.8245 2.88757 18.8245 3.2743V3.58368H18.4236V3.24149C18.4236 3.07976 18.3697 2.98601 18.2127 2.98601C18.0556 2.98601 17.99 3.09851 17.99 3.25555V4.65949C17.99 4.81887 18.0556 4.92903 18.2127 4.92903C18.3697 4.92903 18.4236 4.82824 18.4236 4.67355V4.19073H18.8245V4.64308C18.8245 5.01809 18.6698 5.29466 18.2033 5.29466C17.7369 5.29466 17.547 4.99466 17.547 4.58918Z" fill="white"/>
<path d="M19.0331 5.26419L19.5277 2.6485H20.0293L20.5262 5.26419H20.0738L19.9918 4.78605H19.5253L19.448 5.26419H19.0308H19.0331ZM19.5839 4.43448H19.9355L19.7621 3.38446H19.7574L19.5839 4.43448Z" fill="white"/>
<path d="M21.213 5.52904C21.3372 5.52436 21.356 5.49857 21.356 5.4681C21.356 5.44232 21.3326 5.42592 21.295 5.42592H21.2763V5.28294C20.9013 5.23607 20.7489 4.95481 20.7489 4.58918V3.32352C20.7489 2.9157 20.9411 2.61803 21.4052 2.61803C21.8904 2.61803 22.0264 2.88757 22.0264 3.2743V3.58368H21.6256V3.24149C21.6256 3.07976 21.5716 2.98601 21.4122 2.98601C21.2529 2.98601 21.1896 3.09851 21.1896 3.25555V4.65949C21.1896 4.81887 21.2552 4.92903 21.4122 4.92903C21.5693 4.92903 21.6256 4.82824 21.6256 4.67355V4.19073H22.0264V4.64308C22.0264 5.00872 21.8787 5.2806 21.4451 5.29466V5.32982C21.5482 5.34623 21.6068 5.38373 21.6068 5.4681C21.6068 5.58764 21.4943 5.65327 21.2177 5.65327V5.52904H21.213Z" fill="white"/>
<path d="M22.2304 5.26419L22.7249 2.6485H23.2266L23.7235 5.26419H23.2711L23.1891 4.78606H22.7226L22.6453 5.26419H22.228H22.2304ZM22.5726 2.54538C22.5796 2.3649 22.6499 2.21724 22.8421 2.21724C22.9547 2.21724 23.0461 2.28287 23.1047 2.28287C23.1351 2.28287 23.1586 2.26412 23.1586 2.22427H23.3742C23.3672 2.40475 23.2969 2.55241 23.1047 2.55241C22.9922 2.55241 22.9007 2.48678 22.8421 2.48678C22.8117 2.48678 22.7882 2.50553 22.7882 2.54538H22.5726ZM22.7812 4.43448H23.1328L22.9593 3.38446H22.9547L22.7812 4.43448Z" fill="white"/>
<path d="M23.9437 4.58918V3.32352C23.9437 2.9157 24.1453 2.61803 24.6071 2.61803C25.0688 2.61803 25.2751 2.9157 25.2751 3.32352V4.58918C25.2751 4.99466 25.0735 5.29466 24.6071 5.29466C24.1406 5.29466 23.9437 4.99466 23.9437 4.58918ZM24.8344 4.65949V3.25555C24.8344 3.09851 24.7641 2.98601 24.6071 2.98601C24.45 2.98601 24.3844 3.09851 24.3844 3.25555V4.65949C24.3844 4.81887 24.4547 4.92903 24.6071 4.92903C24.7594 4.92903 24.8344 4.81653 24.8344 4.65949Z" fill="white"/>
<path d="M10.5198 7.21893V8.43067C10.5198 8.83147 10.3534 9.13382 9.88227 9.13382H9.20251V6.51813H9.88227C10.3534 6.51813 10.5198 6.81579 10.5198 7.22127V7.21893ZM9.82836 8.77287C10.0088 8.77287 10.0792 8.66506 10.0792 8.50568V7.13689C10.0792 6.9822 10.0088 6.87439 9.82836 6.87439H9.64318V8.77287H9.82836Z" fill="white"/>
<path d="M10.7378 9.13382L11.2324 6.51813H11.734L12.2309 9.13382H11.7785L11.6965 8.65568H11.2301L11.1527 9.13382H10.7355H10.7378ZM11.2887 8.30411H11.6402L11.4668 7.25408H11.4621L11.2887 8.30411Z" fill="white"/>
<path d="M12.8942 6.51813H13.5458C13.9888 6.51813 14.1506 6.73845 14.1506 7.10408V7.65487C14.1506 8.02051 13.9888 8.24551 13.5458 8.24551H13.3325V9.13382H12.8918V6.51813H12.8942ZM13.3349 6.87673V7.90566H13.4966C13.6466 7.90566 13.7122 7.833 13.7122 7.69003V7.08767C13.7122 6.9447 13.6466 6.87439 13.4966 6.87439H13.3349V6.87673Z" fill="white"/>
<path d="M14.4178 8.4588V7.19314C14.4178 6.78532 14.6194 6.48766 15.0812 6.48766C15.543 6.48766 15.7492 6.78532 15.7492 7.19314V8.4588C15.7492 8.86428 15.5476 9.16428 15.0812 9.16428C14.6147 9.16428 14.4178 8.86428 14.4178 8.4588ZM15.3086 8.52911V7.12517C15.3086 6.96814 15.2382 6.85563 15.0812 6.85563C14.9241 6.85563 14.8585 6.96814 14.8585 7.12517V8.52911C14.8585 8.68849 14.9288 8.79865 15.0812 8.79865C15.2336 8.79865 15.3086 8.68615 15.3086 8.52911Z" fill="white"/>
<path d="M16.0398 6.51813H16.6774C17.118 6.51813 17.2634 6.72204 17.2634 7.09236V7.35955C17.2634 7.57987 17.1813 7.71816 17.0008 7.77675C17.2212 7.82597 17.329 7.97363 17.329 8.2127V8.55958C17.329 8.92991 17.1626 9.13382 16.7242 9.13382H16.0421V6.51813H16.0398ZM16.4805 7.62206H16.6352C16.7781 7.62206 16.8438 7.5494 16.8438 7.40877V7.08767C16.8438 6.9447 16.7781 6.87439 16.6305 6.87439H16.4805V7.61972V7.62206ZM16.4805 7.95723V8.77521H16.6727C16.818 8.77521 16.8883 8.70256 16.8883 8.56193V8.16817C16.8883 8.02988 16.8227 7.95723 16.668 7.95723H16.4781H16.4805Z" fill="white"/>
<path d="M18.0253 7.93379V9.13382H17.5846V6.51813H18.2245C18.6675 6.51813 18.8292 6.73845 18.8292 7.10408V7.43924C18.8292 7.7205 18.7285 7.88691 18.4777 7.94551L18.8972 9.13382H18.4331L18.0206 7.93379H18.0253ZM18.0253 6.87673V7.69003H18.1729C18.3229 7.69003 18.3886 7.61269 18.3886 7.4744V7.08767C18.3886 6.9447 18.3229 6.87439 18.1729 6.87439H18.0253V6.87673Z" fill="white"/>
<path d="M19.1105 6.51812H20.1606V6.87672H19.5511V7.6244H19.9871V7.97831H19.5511V8.77286H20.1606V9.13147H19.1105V6.51578V6.51812Z" fill="white"/>
<path d="M20.8614 8.77521H21.5294V9.13382H20.402V8.77521L21.0934 6.87673H20.4723V6.51813H21.5552V6.87673L20.8614 8.77521Z" fill="white"/>
<path d="M21.7567 9.13382L22.2513 6.51813H22.7529L23.2499 9.13382H22.7975L22.7154 8.65568H22.249L22.1716 9.13382H21.7544H21.7567ZM22.3076 8.30411H22.6592L22.4857 7.25408H22.481L22.3076 8.30411Z" fill="white"/>
</g>
<defs>
<clipPath id="clip0_4014_93520">
<rect width="32" height="32" rx="4" fill="white"/>
</clipPath>
</defs>
</svg>
