<svg width="32" height="32" viewBox="0 0 32 32" fill="none" xmlns="http://www.w3.org/2000/svg">
<g clip-path="url(#clip0_4014_93529)">
<path d="M32 0H0V32H32V0Z" fill="#CE2363"/>
<path d="M3.08706 4.19305V9.13614H4.17233V2.67895H3.30505L2.30652 3.84851V4.98291H2.31589L3.07769 4.19305H3.08706Z" fill="white"/>
<path d="M8.13593 7.46972V4.34542C8.13593 3.33524 7.63198 2.60163 6.52562 2.60163C5.41926 2.60163 4.92468 3.33524 4.92468 4.34542V7.46972C4.92468 8.47052 5.43098 9.21351 6.52562 9.21351C7.62026 9.21351 8.13593 8.47052 8.13593 7.46972ZM6.01229 7.64082V4.17433C6.01229 3.78291 6.15527 3.50634 6.52562 3.50634C6.89597 3.50634 7.04833 3.78291 7.04833 4.17433V7.64082C7.04833 8.03223 6.90534 8.30646 6.52562 8.30646C6.1459 8.30646 6.01229 8.02989 6.01229 7.64082Z" fill="white"/>
<path d="M19.3049 21.1388H12.9082C12.8707 21.1388 12.8379 21.1692 12.8379 21.2091V22.6576C12.8379 22.6974 12.8684 22.7279 12.9082 22.7279H19.3049C19.3448 22.7279 19.3752 22.6974 19.3752 22.6576V21.2091C19.3752 21.1716 19.3448 21.1388 19.3049 21.1388Z" fill="white"/>
<path d="M19.3752 18.4832C19.3752 18.4457 19.3448 18.4129 19.3049 18.4129H12.9082C12.8707 18.4129 12.8379 18.4434 12.8379 18.4832V19.934C12.8379 19.9715 12.8684 20.0043 12.9082 20.0043H19.3049C19.3448 20.0043 19.3752 19.9739 19.3752 19.934V18.4832Z" fill="white"/>
<path d="M23.0764 19.0504C22.8138 17.9957 22.3357 17.0535 21.7051 16.2519L21.6911 16.2636C21.8973 16.5683 22.0802 16.8941 22.2372 17.2339C23.067 18.7551 23.3201 20.5926 22.7974 22.388C21.7473 25.9904 17.9759 28.0576 14.3732 27.0076C12.859 26.567 11.6166 25.6412 10.7634 24.4529C10.229 23.7661 9.82585 22.9622 9.60317 22.0645C8.74762 18.6285 10.8408 15.1479 14.2794 14.2924C16.4054 13.7627 18.5455 14.3674 20.0714 15.7151C20.0854 15.7269 20.0972 15.7386 20.1112 15.7526C20.1534 15.7831 20.2003 15.8065 20.2566 15.8065C20.3175 15.8065 20.3738 15.7808 20.4159 15.7433L20.4417 15.7175L21.2551 14.9136L21.309 14.862C21.3395 14.8198 21.3606 14.7729 21.3606 14.7167C21.3606 14.6534 21.3348 14.5971 21.2949 14.5526C21.2856 14.5456 21.2785 14.5362 21.2692 14.5292C19.3916 12.851 16.7453 12.0963 14.1153 12.7502C9.89383 13.8002 7.32248 18.0754 8.37258 22.2989C8.81325 24.0685 9.82116 25.5451 11.1525 26.5904C12.4792 27.6779 14.1692 28.2944 15.9389 28.2756C16.5085 28.2686 17.0852 28.2006 17.6618 28.0553C21.6442 27.0639 24.0679 23.0325 23.0787 19.0504" fill="white"/>
<path d="M10.6603 4.11106V5.32984H10.2126V2.67431H10.8619C11.312 2.67431 11.4761 2.89697 11.4761 3.26964V3.60949C11.4761 3.89543 11.3753 4.06419 11.1198 4.12278L11.5464 5.32984H11.0752L10.6557 4.11106H10.6603ZM10.6603 3.0376V3.86496H10.8104C10.9627 3.86496 11.0307 3.78762 11.0307 3.64465V3.25323C11.0307 3.10791 10.9651 3.0376 10.8104 3.0376H10.6603Z" fill="white"/>
<path d="M11.7573 2.67429H12.8238V3.03758H12.205V3.79697H12.648V4.15792H12.205V4.96419H12.8238V5.32748H11.7573V2.67194V2.67429Z" fill="white"/>
<path d="M14.439 3.38683V4.61733C14.439 5.02515 14.2702 5.32984 13.792 5.32984H13.1029V2.67431H13.792C14.2702 2.67431 14.439 2.97666 14.439 3.38683ZM13.7381 4.96655C13.9233 4.96655 13.9936 4.85639 13.9936 4.69702V3.30714C13.9936 3.1501 13.9233 3.03994 13.7381 3.03994H13.5506V4.96655H13.7381Z" fill="white"/>
<path d="M16.028 2.67431V4.68295C16.028 5.09312 15.8522 5.36031 15.3975 5.36031C14.9428 5.36031 14.7318 5.09312 14.7318 4.68295V2.67431H15.1795V4.72748C15.1795 4.88452 15.2428 4.98999 15.3998 4.98999C15.5569 4.98999 15.6202 4.88452 15.6202 4.72748V2.67431H16.0327H16.028Z" fill="white"/>
<path d="M16.7968 5.60171C16.9211 5.59703 16.9422 5.57124 16.9422 5.53843C16.9422 5.51031 16.9187 5.49624 16.8789 5.49624H16.8601V5.35093C16.4804 5.30405 16.3234 5.01811 16.3234 4.64544V3.36103C16.3234 2.94618 16.5203 2.64383 16.9891 2.64383C17.4836 2.64383 17.6196 2.91805 17.6196 3.30947V3.62354H17.2117V3.27431C17.2117 3.11025 17.1578 3.01649 16.9961 3.01649C16.8344 3.01649 16.7687 3.129 16.7687 3.29072V4.71575C16.7687 4.87748 16.8344 4.98998 16.9961 4.98998C17.1578 4.98998 17.2117 4.8892 17.2117 4.73216V4.24231H17.6196V4.70169C17.6196 5.07436 17.4719 5.34858 17.0289 5.36265V5.3978C17.1344 5.41421 17.193 5.45171 17.193 5.53843C17.193 5.66031 17.0805 5.72594 16.7968 5.72594V5.60171Z" fill="white"/>
<path d="M17.8306 5.32983L18.3322 2.6743H18.8408L19.3471 5.32983H18.8877L18.8057 4.84467H18.3322L18.2548 5.32983H17.8329H17.8306ZM18.1798 2.56883C18.1869 2.38367 18.2572 2.23601 18.4541 2.23601C18.5666 2.23601 18.6627 2.30163 18.7213 2.30163C18.7518 2.30163 18.7752 2.28288 18.7752 2.24304H18.9955C18.9885 2.4282 18.9182 2.57586 18.7213 2.57586C18.6064 2.57586 18.5127 2.51023 18.4541 2.51023C18.4236 2.51023 18.4002 2.52898 18.4002 2.56883H18.1798ZM18.3908 4.48841H18.7471L18.5713 3.42197H18.5666L18.3908 4.48841Z" fill="white"/>
<path d="M19.5697 4.64544V3.36103C19.5697 2.94618 19.7736 2.64383 20.2424 2.64383C20.7112 2.64383 20.9198 2.94618 20.9198 3.36103V4.64544C20.9198 5.05795 20.7159 5.36265 20.2424 5.36265C19.7689 5.36265 19.5697 5.05795 19.5697 4.64544ZM20.4745 4.71576V3.29072C20.4745 3.129 20.4042 3.01649 20.2424 3.01649C20.0807 3.01649 20.0151 3.129 20.0151 3.29072V4.71576C20.0151 4.87748 20.0854 4.98998 20.2424 4.98998C20.3995 4.98998 20.4745 4.87748 20.4745 4.71576Z" fill="white"/>
<path d="M23.0015 3.38683V4.61733C23.0015 5.02515 22.8327 5.32984 22.3545 5.32984H21.6654V2.67431H22.3545C22.8327 2.67431 23.0015 2.97666 23.0015 3.38683ZM22.3006 4.96655C22.4858 4.96655 22.5561 4.85639 22.5561 4.69702V3.30714C22.5561 3.1501 22.4858 3.03994 22.3006 3.03994H22.1131V4.96655H22.3006Z" fill="white"/>
<path d="M23.2241 5.32984L23.7257 2.67431H24.2344L24.7407 5.32984H24.2813L24.1992 4.84467H23.7257L23.6484 5.32984H23.2265H23.2241ZM23.7843 4.48842H24.1406L23.9648 3.42198H23.9601L23.7843 4.48842Z" fill="white"/>
<path d="M24.9398 4.75796V4.40171H25.3547V4.765C25.3547 4.915 25.4203 4.99938 25.575 4.99938C25.7157 4.99938 25.779 4.90562 25.779 4.765V4.66421C25.779 4.51186 25.7157 4.41811 25.5797 4.2892L25.3172 4.0267C25.0617 3.77591 24.9445 3.62356 24.9445 3.31887V3.2298C24.9445 2.90167 25.1367 2.64619 25.5703 2.64619C26.004 2.64619 26.1938 2.86651 26.1938 3.24855V3.46418H25.786V3.23215C25.786 3.0798 25.7157 3.0048 25.575 3.0048C25.4508 3.0048 25.3641 3.07511 25.3641 3.22511V3.27902C25.3641 3.42668 25.4461 3.5134 25.575 3.63997L25.861 3.92123C26.1048 4.16733 26.222 4.31733 26.222 4.6103V4.73921C26.222 5.1025 26.0251 5.36267 25.5727 5.36267C25.1203 5.36267 24.9422 5.10719 24.9422 4.76031L24.9398 4.75796Z" fill="white"/>
<path d="M11.5512 7.19074V8.42124C11.5512 8.82906 11.3824 9.13376 10.9042 9.13376H10.2151V6.47823H10.9042C11.3824 6.47823 11.5512 6.78058 11.5512 7.19074ZM10.8503 8.77047C11.0355 8.77047 11.1058 8.66031 11.1058 8.50093V7.11105C11.1058 6.95402 11.0355 6.84386 10.8503 6.84386H10.6628V8.77047H10.8503Z" fill="white"/>
<path d="M11.837 6.47827H12.9035V6.84156H12.2847V7.60096H12.7277V7.9619H12.2847V8.76817H12.9035V9.13146H11.837V6.47593V6.47827Z" fill="white"/>
<path d="M13.145 8.56193V8.20567H13.5599V8.56896C13.5599 8.71662 13.6255 8.80334 13.7802 8.80334C13.9209 8.80334 13.9842 8.70959 13.9842 8.56896V8.46818C13.9842 8.31583 13.9209 8.22208 13.7849 8.09317L13.5224 7.83066C13.2669 7.57987 13.1497 7.42753 13.1497 7.12049V7.03142C13.1497 6.70329 13.3419 6.44781 13.7755 6.44781C14.2092 6.44781 14.399 6.66813 14.399 7.05017V7.2658H13.9912V7.03377C13.9912 6.88142 13.9209 6.80642 13.7802 6.80642C13.6537 6.80642 13.5693 6.87673 13.5693 7.02674V7.08064C13.5693 7.23065 13.6513 7.31502 13.7802 7.44159L14.0662 7.72285C14.31 7.96895 14.4272 8.11895 14.4272 8.41193V8.54083C14.4272 8.90412 14.2303 9.16429 13.7779 9.16429C13.3255 9.16429 13.1474 8.90881 13.1474 8.56193H13.145Z" fill="white"/>
<path d="M14.692 6.47823H15.1397V9.13376H14.692V6.47823Z" fill="white"/>
<path d="M16.1031 7.71579H16.7384V9.1338H16.4172V8.84316C16.3586 9.04239 16.2321 9.16427 15.9906 9.16427C15.6062 9.16427 15.4304 8.85957 15.4304 8.44706V7.16265C15.4304 6.7478 15.6297 6.44545 16.1008 6.44545C16.5954 6.44545 16.7384 6.71968 16.7384 7.11109V7.34547H16.3305V7.07593C16.3305 6.91187 16.2672 6.81812 16.1078 6.81812C15.9484 6.81812 15.8758 6.93062 15.8758 7.09234V8.51738C15.8758 8.6791 15.9414 8.7916 16.0961 8.7916C16.2508 8.7916 16.3164 8.70957 16.3164 8.53613V8.06502H16.1055V7.71345L16.1031 7.71579Z" fill="white"/>
<path d="M18.3206 6.47823V8.48687C18.3206 8.89703 18.1448 9.16423 17.6901 9.16423C17.2354 9.16423 17.0244 8.89703 17.0244 8.48687V6.47823H17.4721V8.5314C17.4721 8.68844 17.5354 8.79391 17.6924 8.79391C17.8495 8.79391 17.9128 8.68844 17.9128 8.5314V6.47823H18.323H18.3206Z" fill="white"/>
<path d="M18.5315 9.13376L19.0331 6.47823H19.5418L20.048 9.13376H19.591L19.5089 8.64859H19.0354L18.9581 9.13376H18.5362H18.5315ZM19.0917 8.29233H19.448L19.2722 7.2259H19.2675L19.0917 8.29233Z" fill="white"/>
<path d="M20.2638 6.47823H20.7115V8.77047H21.2436V9.13376H20.2638V6.47823Z" fill="white"/>
<path d="M22.814 7.19074V8.42124C22.814 8.82906 22.6452 9.13376 22.167 9.13376H21.4779V6.47823H22.167C22.6452 6.47823 22.814 6.78058 22.814 7.19074ZM22.1131 8.77047C22.2983 8.77047 22.3686 8.66031 22.3686 8.50093V7.11105C22.3686 6.95402 22.2983 6.84386 22.1131 6.84386H21.9256V8.77047H22.1131Z" fill="white"/>
<path d="M23.0295 9.13376L23.5312 6.47823H24.0398L24.5461 9.13376H24.0867L24.0046 8.64859H23.5312L23.4538 9.13376H23.0319H23.0295ZM23.5898 8.29233H23.946L23.7702 7.2259H23.7655L23.5898 8.29233Z" fill="white"/>
<path d="M26.0955 7.19074V8.42124C26.0955 8.82906 25.9267 9.13376 25.4485 9.13376H24.7594V6.47823H25.4485C25.9267 6.47823 26.0955 6.78058 26.0955 7.19074ZM25.3946 8.77047C25.5798 8.77047 25.6501 8.66031 25.6501 8.50093V7.11105C25.6501 6.95402 25.5798 6.84386 25.3946 6.84386H25.2071V8.77047H25.3946Z" fill="white"/>
<path d="M26.3815 6.47827H27.448V6.84156H26.8292V7.60096H27.2722V7.9619H26.8292V8.76817H27.448V9.13146H26.3815V6.47593V6.47827Z" fill="white"/>
<path d="M27.6895 8.56193V8.20567H28.1043V8.56896C28.1043 8.71662 28.17 8.80334 28.3247 8.80334C28.4653 8.80334 28.5286 8.70959 28.5286 8.56896V8.46818C28.5286 8.31583 28.4653 8.22208 28.3294 8.09317L28.0668 7.83066C27.8113 7.57987 27.6941 7.42753 27.6941 7.12049V7.03142C27.6941 6.70329 27.8863 6.44781 28.32 6.44781C28.7536 6.44781 28.9435 6.66813 28.9435 7.05017V7.2658H28.5356V7.03377C28.5356 6.88142 28.4653 6.80642 28.3247 6.80642C28.1981 6.80642 28.1137 6.87673 28.1137 7.02674V7.08064C28.1137 7.23065 28.1958 7.31502 28.3247 7.44159L28.6106 7.72285C28.8544 7.96895 28.9716 8.11895 28.9716 8.41193V8.54083C28.9716 8.90412 28.7747 9.16429 28.3223 9.16429C27.8699 9.16429 27.6918 8.90881 27.6918 8.56193H27.6895Z" fill="white"/>
</g>
<defs>
<clipPath id="clip0_4014_93529">
<rect width="32" height="32" rx="4" fill="white"/>
</clipPath>
</defs>
</svg>
