<svg width="32" height="32" viewBox="0 0 32 32" fill="none" xmlns="http://www.w3.org/2000/svg">
<g clip-path="url(#clip0_4014_93530)">
<path d="M32 0H0V32H32V0Z" fill="#EE9830"/>
<path d="M2.29248 3.85322V4.98528H2.30186L3.06365 4.19541H3.07303V9.13381H4.15829V2.68131H3.29102L2.29248 3.85322Z" fill="white"/>
<path d="M4.76758 3.85322V4.98528H4.77695L5.53875 4.19541H5.54812V9.13381H6.63339V2.68131H5.76611L4.76758 3.85322Z" fill="white"/>
<path d="M5.50602 24.3615H10.3205C10.3862 24.3615 10.4377 24.3076 10.4377 24.242C10.4377 24.2115 10.426 24.1834 10.4073 24.1646L10.4002 24.1576L8.0047 21.0591L7.98126 21.0333C7.96016 21.0099 7.92969 20.9935 7.89453 20.9935C7.86406 20.9935 7.83828 21.0052 7.81718 21.0239L7.80312 21.0403L7.77968 21.0661L5.44273 24.1318L5.40757 24.1764C5.39351 24.1951 5.38647 24.2185 5.38647 24.242C5.38647 24.3076 5.44039 24.3615 5.50367 24.3615" fill="white"/>
<path d="M10.3041 24.7975H5.48024C5.4146 24.7975 5.36304 24.8514 5.36304 24.9147V28.6882C5.36304 28.7538 5.41695 28.8077 5.48024 28.8077H7.03195V26.4335C7.03195 26.3678 7.08352 26.3163 7.14915 26.3163H8.5907C8.65633 26.3163 8.7079 26.3678 8.7079 26.4335V28.8077H10.3018C10.3674 28.8077 10.419 28.7538 10.419 28.6882V24.9147C10.419 24.849 10.3651 24.7975 10.3018 24.7975" fill="white"/>
<path d="M26.9745 23.8107H22.1998C22.1342 23.8107 22.0826 23.8599 22.0826 23.9232V28.7421C22.0826 28.8054 22.1342 28.8546 22.1998 28.8546H26.9745C27.0402 28.8546 27.0917 28.803 27.0917 28.7421V23.9232C27.0917 23.8599 27.0402 23.8107 26.9745 23.8107ZM24.3633 26.9584C24.3633 27.0217 24.3118 27.0733 24.2461 27.0733H22.821C22.7554 27.0733 22.7038 27.0217 22.7038 26.9584V26.0912C22.7038 26.0279 22.7554 25.9764 22.821 25.9764H24.2461C24.3118 25.9764 24.3633 26.0279 24.3633 26.0912V26.9584ZM24.3633 25.3576C24.3633 25.4209 24.3118 25.4725 24.2461 25.4725H22.821C22.7554 25.4725 22.7038 25.4209 22.7038 25.3576V24.4904C22.7038 24.4271 22.7554 24.3756 22.821 24.3756H24.2461C24.3118 24.3756 24.3633 24.4271 24.3633 24.4904V25.3576ZM26.5432 26.9584C26.5432 27.0217 26.4917 27.0733 26.426 27.0733H25.0009C24.9353 27.0733 24.8837 27.0217 24.8837 26.9584V26.0912C24.8837 26.0279 24.9353 25.9764 25.0009 25.9764H26.426C26.4917 25.9764 26.5432 26.0279 26.5432 26.0912V26.9584ZM26.5432 25.3576C26.5432 25.4209 26.4917 25.4725 26.426 25.4725H25.0009C24.9353 25.4725 24.8837 25.4209 24.8837 25.3576V24.4904C24.8837 24.4271 24.9353 24.3756 25.0009 24.3756H26.426C26.4917 24.3756 26.5432 24.4271 26.5432 24.4904V25.3576Z" fill="white"/>
<path d="M15.8758 12.6214H11.2042C11.1409 12.6214 11.0894 12.6729 11.0894 12.7362V28.6999C11.0894 28.7632 11.1409 28.8148 11.2042 28.8148H15.8758C15.939 28.8148 15.9906 28.7632 15.9906 28.6999V12.7362C15.9906 12.6729 15.939 12.6214 15.8758 12.6214ZM13.0958 26.996C13.0958 27.0288 13.0677 27.0569 13.0349 27.0569H11.966C11.9332 27.0569 11.9051 27.0288 11.9051 26.996V25.803C11.9051 25.7701 11.9332 25.742 11.966 25.742H13.0349C13.0677 25.742 13.0958 25.7701 13.0958 25.803V26.996ZM13.0958 24.2584C13.0958 24.2935 13.0677 24.3193 13.0349 24.3193H11.966C11.9332 24.3193 11.9051 24.2935 11.9051 24.2584V23.0677C11.9051 23.0326 11.9332 23.0068 11.966 23.0068H13.0349C13.0677 23.0068 13.0958 23.0326 13.0958 23.0677V24.2584ZM13.0958 21.5208C13.0958 21.5536 13.0677 21.5818 13.0349 21.5818H11.966C11.9332 21.5818 11.9051 21.5536 11.9051 21.5208V20.3278C11.9051 20.295 11.9332 20.2669 11.966 20.2669H13.0349C13.0677 20.2669 13.0958 20.295 13.0958 20.3278V21.5208ZM13.0958 18.7833C13.0958 18.8161 13.0677 18.8442 13.0349 18.8442H11.966C11.9332 18.8442 11.9051 18.8161 11.9051 18.7833V17.5903C11.9051 17.5574 11.9332 17.5293 11.966 17.5293H13.0349C13.0677 17.5293 13.0958 17.5551 13.0958 17.5903V18.7833ZM13.0958 16.0457C13.0958 16.0785 13.0677 16.1066 13.0349 16.1066H11.966C11.9332 16.1066 11.9051 16.0785 11.9051 16.0457V14.8527C11.9051 14.8175 11.9332 14.7917 11.966 14.7917H13.0349C13.0677 14.7917 13.0958 14.8199 13.0958 14.8527V16.0457ZM15.1937 26.9936C15.1937 27.0264 15.1655 27.0546 15.1327 27.0546H14.0639C14.0287 27.0546 14.0029 27.0264 14.0029 26.9936V25.8006C14.0029 25.7678 14.031 25.7397 14.0639 25.7397H15.1327C15.1679 25.7397 15.1937 25.7678 15.1937 25.8006V26.9936ZM15.1937 24.256C15.1937 24.2912 15.1655 24.317 15.1327 24.317H14.0639C14.0287 24.317 14.0029 24.2912 14.0029 24.256V23.0654C14.0029 23.0302 14.031 23.0045 14.0639 23.0045H15.1327C15.1679 23.0045 15.1937 23.0302 15.1937 23.0654V24.256ZM15.1937 21.5185C15.1937 21.5513 15.1655 21.5794 15.1327 21.5794H14.0639C14.0287 21.5794 14.0029 21.5513 14.0029 21.5185V20.3255C14.0029 20.2927 14.031 20.2645 14.0639 20.2645H15.1327C15.1679 20.2645 15.1937 20.2927 15.1937 20.3255V21.5185ZM15.1937 18.7809C15.1937 18.8137 15.1655 18.8418 15.1327 18.8418H14.0639C14.0287 18.8418 14.0029 18.8137 14.0029 18.7809V17.5879C14.0029 17.5551 14.031 17.527 14.0639 17.527H15.1327C15.1679 17.527 15.1937 17.5528 15.1937 17.5879V18.7809ZM15.1937 16.0433C15.1937 16.0762 15.1655 16.1043 15.1327 16.1043H14.0639C14.0287 16.1043 14.0029 16.0762 14.0029 16.0433V14.8503C14.0029 14.8152 14.031 14.7894 14.0639 14.7894H15.1327C15.1679 14.7894 15.1937 14.8175 15.1937 14.8503V16.0433Z" fill="white"/>
<path d="M22.1858 22.2685H26.991C27.0449 22.2685 27.0871 22.3107 27.0871 22.3646V23.3256C27.0871 23.3795 27.0449 23.4217 26.991 23.4217H22.1858C22.1319 23.4217 22.0897 23.3795 22.0897 23.3256V22.3646C22.0897 22.3107 22.1319 22.2685 22.1858 22.2685Z" fill="white"/>
<path d="M21.5201 15.6378C21.5037 15.5863 21.4592 15.5488 21.4029 15.5488C21.3771 15.5488 21.3561 15.5582 21.335 15.5699C21.3326 15.5699 21.3303 15.5722 21.3256 15.5746L21.2857 15.6238L16.6939 21.4481L16.6728 21.4763C16.6493 21.4997 16.6329 21.5302 16.6329 21.5677V28.7233C16.6329 28.7866 16.6845 28.8382 16.7478 28.8382H21.4147C21.4779 28.8382 21.5295 28.7866 21.5295 28.7233V15.6824C21.5295 15.666 21.5248 15.6496 21.5178 15.6355M19.584 18.7973L19.6168 18.7575C19.9309 18.3543 20.4607 17.7027 20.7185 17.3863L20.7513 17.3465C20.7747 17.316 20.8122 17.2973 20.8544 17.2973C20.9177 17.2973 20.9693 17.3441 20.981 17.4051V18.8793C20.981 18.9496 20.9248 19.0082 20.8544 19.0106C20.8544 19.0106 20.8498 19.0106 20.8474 19.0106H20.8427H19.6965C19.6965 19.0106 19.6918 19.0106 19.6895 19.0106C19.6871 19.0106 19.6848 19.0106 19.6848 19.0106C19.6145 19.0082 19.5582 18.9496 19.5582 18.8793C19.5582 18.8512 19.5676 18.8231 19.584 18.7996M18.8574 26.9561C18.8574 27.0194 18.8058 27.0709 18.7425 27.0709H17.3502C17.2869 27.0709 17.2353 27.0194 17.2353 26.9561V26.0842C17.2353 26.0209 17.2869 25.9694 17.3502 25.9694H18.7425C18.8058 25.9694 18.8574 26.0209 18.8574 26.0842V26.9561ZM18.8574 25.3459C18.8574 25.4092 18.8058 25.4607 18.7425 25.4607H17.3502C17.2869 25.4607 17.2353 25.4092 17.2353 25.3459V24.474C17.2353 24.4107 17.2869 24.3592 17.3502 24.3592H18.7425C18.8058 24.3592 18.8574 24.4107 18.8574 24.474V25.3459ZM18.8574 23.7357C18.8574 23.799 18.8058 23.8505 18.7425 23.8505H17.3502C17.2869 23.8505 17.2353 23.799 17.2353 23.7357V22.8638C17.2353 22.8005 17.2869 22.749 17.3502 22.749H18.7425C18.8058 22.749 18.8574 22.8005 18.8574 22.8638V23.7357ZM18.8621 20.2059V22.1255C18.8621 22.1888 18.8105 22.2404 18.7472 22.2404H17.3549C17.2916 22.2404 17.24 22.1888 17.24 22.1255V21.8841C17.24 21.8677 17.2447 21.8536 17.2494 21.8419C17.2517 21.8372 17.2517 21.8349 17.2564 21.8278C17.2588 21.8232 17.2635 21.8185 17.2658 21.8138C17.2682 21.8091 17.2752 21.8021 17.2799 21.795C17.458 21.5396 18.262 20.5505 18.5972 20.138L18.63 20.0981C18.6534 20.07 18.6909 20.0489 18.7331 20.0489C18.7964 20.0489 18.848 20.0958 18.8597 20.1567V20.2083L18.8621 20.2059ZM20.9857 26.9561C20.9857 27.0194 20.9341 27.0709 20.8708 27.0709H19.4785C19.4152 27.0709 19.3637 27.0194 19.3637 26.9561V26.0842C19.3637 26.0209 19.4152 25.9694 19.4785 25.9694H20.8708C20.9341 25.9694 20.9857 26.0209 20.9857 26.0842V26.9561ZM20.9857 25.3459C20.9857 25.4092 20.9341 25.4607 20.8708 25.4607H19.4785C19.4152 25.4607 19.3637 25.4092 19.3637 25.3459V24.474C19.3637 24.4107 19.4152 24.3592 19.4785 24.3592H20.8708C20.9341 24.3592 20.9857 24.4107 20.9857 24.474V25.3459ZM20.9857 23.7357C20.9857 23.799 20.9341 23.8505 20.8708 23.8505H19.4785C19.4152 23.8505 19.3637 23.799 19.3637 23.7357V22.8638C19.3637 22.8005 19.4152 22.749 19.4785 22.749H20.8708C20.9341 22.749 20.9857 22.8005 20.9857 22.8638V23.7357ZM20.9857 22.1255C20.9857 22.1888 20.9341 22.2404 20.8708 22.2404H19.4785C19.4152 22.2404 19.3637 22.1888 19.3637 22.1255V21.2536C19.3637 21.1903 19.4152 21.1388 19.4785 21.1388H20.8708C20.9341 21.1388 20.9857 21.1903 20.9857 21.2536V22.1255ZM20.9857 20.5153C20.9857 20.5786 20.9341 20.6302 20.8708 20.6302H19.4785C19.4152 20.6302 19.3637 20.5786 19.3637 20.5153V19.6434C19.3637 19.5801 19.4152 19.5286 19.4785 19.5286H20.8708C20.9341 19.5286 20.9857 19.5801 20.9857 19.6434V20.5153Z" fill="white"/>
<path d="M8.75952 4.21415V2.9485C8.75952 2.54068 8.95173 2.24301 9.41584 2.24301C9.90104 2.24301 10.037 2.51255 10.037 2.89928V3.20866H9.63617V2.86646C9.63617 2.70474 9.58226 2.61099 9.42287 2.61099C9.26348 2.61099 9.20019 2.72349 9.20019 2.88053V4.28447C9.20019 4.4415 9.26582 4.55401 9.42287 4.55401C9.57991 4.55401 9.63617 4.45322 9.63617 4.29853V3.81571H10.037V4.26572C10.037 4.64073 9.88229 4.9173 9.41584 4.9173C8.94938 4.9173 8.75952 4.61729 8.75952 4.21181V4.21415Z" fill="white"/>
<path d="M10.2316 2.27347H10.6722V4.88916H10.2316V2.27347Z" fill="white"/>
<path d="M12.2004 2.97661V4.18836C12.2004 4.58915 12.034 4.88916 11.5628 4.88916H10.8831V2.27347H11.5628C12.034 2.27347 12.2004 2.57113 12.2004 2.97427V2.97661ZM11.5089 4.53055C11.6894 4.53055 11.7597 4.42274 11.7597 4.26336V2.89458C11.7597 2.73989 11.6894 2.63207 11.5089 2.63207H11.3237V4.53055H11.5089Z" fill="white"/>
<path d="M12.3388 4.88916L12.8333 2.27347H13.335L13.8319 4.88916H13.3795L13.2975 4.41102H12.831L12.7537 4.88916H12.3364H12.3388ZM12.8896 4.05945H13.2412L13.0677 3.00942H13.0631L12.8896 4.05945Z" fill="white"/>
<path d="M15.2851 2.97661V4.18836C15.2851 4.58915 15.1186 4.88916 14.6498 4.88916H13.9701V2.27347H14.6498C15.121 2.27347 15.2851 2.57113 15.2851 2.97427V2.97661ZM14.5936 4.53055C14.7741 4.53055 14.8444 4.42274 14.8444 4.26336V2.89458C14.8444 2.73989 14.7741 2.63207 14.5936 2.63207H14.4084V4.53055H14.5936Z" fill="white"/>
<path d="M15.4938 2.27344H16.5439V2.63204H15.9344V3.37972H16.3704V3.73363H15.9344V4.52818H16.5439V4.88678H15.4938V2.2711V2.27344Z" fill="white"/>
<path d="M16.7102 4.32663V3.97505H17.1181V4.33366C17.1181 4.47897 17.1837 4.56569 17.3337 4.56569C17.472 4.56569 17.5353 4.47194 17.5353 4.33366V4.23287C17.5353 4.08287 17.4743 3.98912 17.3384 3.86255L17.0806 3.60473C16.8297 3.35863 16.7149 3.20863 16.7149 2.90628V2.81721C16.7149 2.49377 16.9048 2.24298 17.3314 2.24298C17.758 2.24298 17.9455 2.45861 17.9455 2.83596V3.04925H17.5447V2.8219C17.5447 2.6719 17.4743 2.59924 17.336 2.59924C17.2118 2.59924 17.1274 2.66955 17.1274 2.81487V2.86878C17.1274 3.01644 17.2071 3.10081 17.336 3.22269L17.6173 3.50161C17.8564 3.74536 17.9713 3.89068 17.9713 4.18131V4.30787C17.9713 4.66648 17.7791 4.92195 17.3314 4.92195C16.8837 4.92195 16.7102 4.67117 16.7102 4.32897V4.32663Z" fill="white"/>
<path d="M18.5176 2.27344H19.5677V2.63204H18.9582V3.37972H19.3942V3.73363H18.9582V4.52818H19.5677V4.88678H18.5176V2.2711V2.27344Z" fill="white"/>
<path d="M8.81323 7.458V6.19234C8.81323 5.78452 9.00544 5.48685 9.46955 5.48685C9.95475 5.48685 10.0907 5.75639 10.0907 6.14312V6.4525H9.68988V6.11031C9.68988 5.94858 9.63597 5.85483 9.47658 5.85483C9.31719 5.85483 9.2539 5.96733 9.2539 6.12437V7.52831C9.2539 7.68535 9.31953 7.79785 9.47658 7.79785C9.63363 7.79785 9.68988 7.69707 9.68988 7.54237V7.05955H10.0907V7.5119C10.0907 7.88691 9.936 8.16348 9.46955 8.16348C9.0031 8.16348 8.81323 7.86348 8.81323 7.458Z" fill="white"/>
<path d="M10.3674 7.45803V6.19238C10.3674 5.78456 10.569 5.48689 11.0308 5.48689C11.4925 5.48689 11.6988 5.78456 11.6988 6.19238V7.45803C11.6988 7.86351 11.4972 8.16352 11.0308 8.16352C10.5643 8.16352 10.3674 7.86351 10.3674 7.45803ZM11.2581 7.52835V6.12441C11.2581 5.96737 11.1878 5.85487 11.0308 5.85487C10.8737 5.85487 10.8081 5.96737 10.8081 6.12441V7.52835C10.8081 7.68538 10.8784 7.79789 11.0308 7.79789C11.1831 7.79789 11.2581 7.68538 11.2581 7.52835Z" fill="white"/>
<path d="M13.1989 6.43615H13.1872L12.8895 8.13307H12.6856L12.3574 6.43615H12.3504V8.13307H11.9871V5.51738H12.5004L12.7864 6.99163H12.791L13.0465 5.51738H13.6021V8.13307H13.2012V6.43615H13.1989Z" fill="white"/>
<path d="M15.1655 5.51738V7.49555C15.1655 7.90103 14.9921 8.16354 14.5444 8.16354C14.0967 8.16354 13.8881 7.90103 13.8881 7.49555V5.51738H14.3287V7.53774C14.3287 7.69243 14.3897 7.79556 14.5444 7.79556C14.6991 7.79556 14.76 7.69243 14.76 7.53774V5.51738H15.1655Z" fill="white"/>
<path d="M15.8264 6.49006V8.13307H15.4561V5.51738H15.8873L16.3608 7.01742V5.51738H16.7265V8.13307H16.3421L15.8241 6.49006H15.8264Z" fill="white"/>
<path d="M17.0172 5.51738H17.4579V8.13307H17.0172V5.51738Z" fill="white"/>
<path d="M19.0612 6.22047V7.43222C19.0612 7.83301 18.8948 8.13536 18.426 8.13536H17.7462V5.51967H18.426C18.8971 5.51967 19.0612 5.81733 19.0612 6.22281V6.22047ZM18.3697 7.77441C18.5502 7.77441 18.6205 7.6666 18.6205 7.50722V6.13843C18.6205 5.98374 18.5502 5.87593 18.3697 5.87593H18.1845V7.77441H18.3697Z" fill="white"/>
<path d="M19.2814 8.13307L19.776 5.51738H20.2776L20.7745 8.13307H20.3221L20.2401 7.65493H19.7736L19.6963 8.13307H19.2791H19.2814ZM19.8322 7.30336H20.1838L20.0104 6.25334H20.0057L19.8322 7.30336Z" fill="white"/>
<path d="M22.3099 6.22047V7.43222C22.3099 7.83301 22.1434 8.13536 21.6723 8.13536H20.9926V5.51967H21.6723C22.1434 5.51967 22.3099 5.81733 22.3099 6.22281V6.22047ZM21.6184 7.77441C21.7989 7.77441 21.8692 7.6666 21.8692 7.50722V6.13843C21.8692 5.98374 21.7989 5.87593 21.6184 5.87593H21.4332V7.77441H21.6184Z" fill="white"/>
<path d="M22.6006 5.51735H23.6507V5.87595H23.0413V6.62363H23.4772V6.97754H23.0413V7.77209H23.6507V8.1307H22.6006V5.51501V5.51735Z" fill="white"/>
<path d="M23.8992 7.57054V7.21897H24.307V7.57757C24.307 7.72289 24.3727 7.80961 24.5227 7.80961C24.661 7.80961 24.7243 7.71585 24.7243 7.57757V7.47678C24.7243 7.32678 24.6633 7.23303 24.5274 7.10646L24.2695 6.84864C24.0187 6.60254 23.9039 6.4502 23.9039 6.15019V6.06113C23.9039 5.73768 24.0937 5.48689 24.5203 5.48689C24.9469 5.48689 25.1344 5.70252 25.1344 6.07988V6.29082H24.7336V6.06347C24.7336 5.91347 24.6633 5.84081 24.525 5.84081C24.4008 5.84081 24.3164 5.91112 24.3164 6.05644V6.11035C24.3164 6.25801 24.3984 6.34238 24.525 6.46426L24.8063 6.74083C25.0454 6.98459 25.1602 7.1299 25.1602 7.42053V7.5471C25.1602 7.9057 24.968 8.16118 24.5203 8.16118C24.0726 8.16118 23.8992 7.91039 23.8992 7.56819V7.57054Z" fill="white"/>
<path d="M8.79004 11.1496V10.798H9.20024V11.1566C9.20024 11.3043 9.26587 11.3886 9.41588 11.3886C9.55418 11.3886 9.61746 11.2949 9.61746 11.1566V11.0558C9.61746 10.9058 9.55652 10.8121 9.42057 10.6855L9.16273 10.4277C8.91193 10.1816 8.79707 10.0316 8.79707 9.72921V9.64015C8.79707 9.31671 8.98693 9.06592 9.41354 9.06592C9.84014 9.06592 10.0277 9.28155 10.0277 9.6589V9.87219H9.62684V9.64484C9.62684 9.49483 9.55652 9.42218 9.41823 9.42218C9.29399 9.42218 9.20961 9.49249 9.20961 9.63781V9.69171C9.20961 9.83703 9.29165 9.92375 9.41823 10.0456L9.6995 10.3222C9.93859 10.566 10.0534 10.7113 10.0534 11.0019V11.1285C10.0534 11.4871 9.86124 11.7425 9.41354 11.7425C8.96584 11.7425 8.79238 11.4918 8.79238 11.1496H8.79004Z" fill="white"/>
<path d="M11.5935 9.09869V11.0769C11.5935 11.4823 11.4201 11.7449 10.9724 11.7449C10.5247 11.7449 10.316 11.4823 10.316 11.0769V9.09869H10.7544V11.1191C10.7544 11.2737 10.8153 11.3769 10.97 11.3769C11.1247 11.3769 11.1857 11.2737 11.1857 11.1191V9.09869H11.5912H11.5935Z" fill="white"/>
<path d="M11.8607 11.1496V10.798H12.2686V11.1566C12.2686 11.3043 12.3342 11.3886 12.4842 11.3886C12.6225 11.3886 12.6858 11.2949 12.6858 11.1566V11.0558C12.6858 10.9058 12.6249 10.8121 12.4889 10.6855L12.2311 10.4277C11.9803 10.1816 11.8654 10.0316 11.8654 9.72921V9.64015C11.8654 9.31671 12.0553 9.06592 12.4819 9.06592C12.9085 9.06592 13.096 9.28155 13.096 9.6589V9.87219H12.6952V9.64484C12.6952 9.49483 12.6249 9.42218 12.4866 9.42218C12.3623 9.42218 12.2779 9.49249 12.2779 9.63781V9.69171C12.2779 9.83703 12.36 9.92375 12.4866 10.0456L12.7678 10.3222C13.0069 10.566 13.1218 10.7113 13.1218 11.0019V11.1285C13.1218 11.4871 12.9296 11.7425 12.4819 11.7425C12.0342 11.7425 11.8607 11.4918 11.8607 11.1496Z" fill="white"/>
<path d="M13.3373 9.09869H14.5069V9.4573H14.1436V11.7144H13.7006V9.4573H13.3373V9.09869Z" fill="white"/>
<path d="M14.7507 9.09867H15.8008V9.45727H15.1914V10.2049H15.6274V10.5589H15.1914V11.3534H15.8008V11.712H14.7507V9.09633V9.09867Z" fill="white"/>
<path d="M16.4385 10.069V11.712H16.0681V9.09633H16.4994L16.9729 10.5964V9.09633H17.3386V11.712H16.9518L16.4338 10.069H16.4385Z" fill="white"/>
<path d="M17.5823 9.09869H18.7519V9.4573H18.3886V11.7144H17.9456V9.4573H17.5823V9.09869Z" fill="white"/>
<path d="M18.9231 11.7144L19.4177 9.0987H19.9193L20.4162 11.7144H19.9638L19.8841 11.2363H19.4177L19.3403 11.7144H18.9231ZM20.0271 8.91354L19.3356 9.00261V8.75651L20.0271 8.61119V8.91589V8.91354ZM19.4763 10.8847H19.8279L19.6544 9.83466H19.6497L19.4763 10.8847Z" fill="white"/>
<path d="M22.0453 9.09869L21.5483 11.7144H21.0702L20.5732 9.09869H21.0209L21.321 10.9222H21.3257L21.6351 9.09869H22.0476H22.0453Z" fill="white"/>
<path d="M22.2655 9.09867H23.3156V9.45727H22.7062V10.2049H23.1422V10.5589H22.7062V11.3534H23.3156V11.712H22.2655V9.09633V9.09867Z" fill="white"/>
<path d="M23.583 9.09869H24.0237V11.7144H23.583V9.09869Z" fill="white"/>
<path d="M24.2932 11.1496V10.798H24.7011V11.1566C24.7011 11.3043 24.7667 11.3886 24.9167 11.3886C25.055 11.3886 25.1183 11.2949 25.1183 11.1566V11.0558C25.1183 10.9058 25.0573 10.8121 24.9214 10.6855L24.6636 10.4277C24.4128 10.1816 24.2979 10.0316 24.2979 9.72921V9.64015C24.2979 9.31671 24.4878 9.06592 24.9144 9.06592C25.341 9.06592 25.5285 9.28155 25.5285 9.6589V9.87219H25.1277V9.64484C25.1277 9.49483 25.0573 9.42218 24.9191 9.42218C24.7948 9.42218 24.7104 9.49249 24.7104 9.63781V9.69171C24.7104 9.83703 24.7925 9.92375 24.9191 10.0456L25.2003 10.3222C25.4394 10.566 25.5543 10.7113 25.5543 11.0019V11.1285C25.5543 11.4871 25.3621 11.7425 24.9144 11.7425C24.4667 11.7425 24.2932 11.4918 24.2932 11.1496Z" fill="white"/>
</g>
<defs>
<clipPath id="clip0_4014_93530">
<rect width="32" height="32" rx="4" fill="white"/>
</clipPath>
</defs>
</svg>
