<svg width="32" height="32" viewBox="0 0 32 32" fill="none" xmlns="http://www.w3.org/2000/svg">
<g clip-path="url(#clip0_4014_93531)">
<path d="M32 0H0V32H32V0Z" fill="#B88831"/>
<path d="M3.19488 4.20476H3.20425V9.14317H4.28951V2.69301H3.42224L2.42371 3.86257V4.99463H2.43308L3.19488 4.20476Z" fill="white"/>
<path d="M4.9365 4.02429V4.80478H5.92566V3.99617C5.92566 3.60709 6.11552 3.49225 6.34523 3.49225C6.55385 3.49225 6.73433 3.57897 6.73433 3.97742V4.50946C6.73433 5.0415 6.68745 5.25245 6.33351 5.62277L5.72408 6.26966C5.1334 6.8978 4.91541 7.31734 4.91541 7.95486V9.14317H7.73287V8.25721H5.95379V7.95251C5.95379 7.44859 6.13427 7.25875 6.41086 6.96343L7.10468 6.22981C7.66724 5.6298 7.78912 5.2501 7.78912 4.60321V3.97507C7.78912 3.05161 7.34142 2.61332 6.37102 2.61332C5.40061 2.61332 4.93416 3.11724 4.93416 4.02195" fill="white"/>
<path d="M24.7643 17.1427C23.4587 16.1114 21.8953 16.0012 21.2812 16.0012C20.9577 16.0012 20.66 16.0293 20.442 16.0809L20.3553 16.102C19.5279 16.2965 18.1449 16.6247 16.5346 18.6216L16.4877 18.6802C16.4619 18.7177 16.4479 18.7599 16.4479 18.8021C16.4479 18.8396 16.4572 18.8747 16.476 18.9075L16.5135 18.9685C16.7784 19.4138 17.001 19.7982 17.1768 20.1263C17.2401 20.2482 17.4089 20.288 17.5214 20.1755C17.5331 20.1615 17.5448 20.1451 17.5519 20.1334C18.9419 18.2091 20.0318 17.9536 20.7538 17.7825L20.8428 17.7614C20.9413 17.738 21.103 17.7239 21.2835 17.7239C21.6187 17.7239 22.7836 17.7802 23.6931 18.4974C24.5018 19.1349 24.912 20.1568 24.912 21.5303C24.912 23.8319 23.7986 24.7296 22.8633 25.0764C22.5071 25.21 22.1226 25.278 21.7218 25.278C20.7584 25.278 20.0201 24.8936 20.0084 24.8866L19.9404 24.8538C19.1364 24.5046 17.9363 23.778 16.8042 21.4998C14.4789 16.8309 12.5264 16.3879 11.2325 16.095L11.1645 16.0809C11.0661 16.0575 10.7848 16.0059 10.3301 16.0059C9.58001 16.0059 8.1408 16.1536 6.90553 17.138C6.06169 17.8106 5.05847 19.1161 5.05847 21.5209C5.05847 22.9858 5.36085 23.9538 6.13436 24.971C6.27968 25.1702 7.62747 26.9093 10.2152 26.9093C10.5996 26.9093 10.9958 26.8695 11.3966 26.7945C11.8677 26.703 12.5967 26.471 13.4124 25.8733L14.0922 26.4874C14.1672 26.5577 14.2984 26.5507 14.3688 26.4757C14.4016 26.4405 14.4203 26.3937 14.418 26.3468L14.9454 23.1053V23.0678C14.9454 23.0139 14.9196 22.96 14.8821 22.9272C14.8469 22.8944 14.8024 22.878 14.7461 22.878L11.5911 23.7498L11.5302 23.7592C11.4903 23.7686 11.4552 23.7873 11.4294 23.8178C11.3942 23.8577 11.3755 23.9069 11.3778 23.9608C11.3802 24.0124 11.4036 24.0616 11.4435 24.0967L12.0974 24.6874C11.7529 24.8983 11.4107 25.0389 11.0755 25.1022C10.7918 25.1561 10.5082 25.1843 10.2387 25.1843C8.45021 25.1843 7.57122 24.01 7.53371 23.9608L7.51496 23.9374C6.97116 23.2225 6.78833 22.6154 6.78833 21.5256C6.78833 20.1474 7.19149 19.1279 7.9861 18.4927C8.87213 17.7872 10.009 17.731 10.3371 17.731C10.5153 17.731 10.6793 17.745 10.7848 17.7685L10.8551 17.7849C11.8888 18.0192 13.3022 18.338 15.2618 22.2756C16.2979 24.3546 17.5941 25.714 19.2278 26.4312C19.4177 26.5273 20.4303 27.0101 21.7265 27.0101C22.3313 27.0101 22.9196 26.907 23.4704 26.7007C24.4244 26.3444 26.6418 25.1304 26.6418 21.5349C26.6418 19.1325 25.6222 17.8247 24.7666 17.1473" fill="white"/>
<path d="M10.2151 4.61731V3.35166C10.2151 2.94149 10.4073 2.64617 10.8714 2.64617C11.3566 2.64617 11.4926 2.91571 11.4926 3.30244V3.61182H11.0917V3.26962C11.0917 3.1079 11.0378 3.01415 10.8784 3.01415C10.719 3.01415 10.6534 3.12665 10.6534 3.28369V4.68763C10.6534 4.84466 10.719 4.95717 10.8784 4.95717C11.0378 4.95717 11.0917 4.85638 11.0917 4.70169V4.21887H11.4926V4.67122C11.4926 5.04623 11.3379 5.3228 10.8714 5.3228C10.405 5.3228 10.2151 5.02279 10.2151 4.61731Z" fill="white"/>
<path d="M11.7268 4.61737V3.35171C11.7268 2.94154 11.9284 2.64622 12.3902 2.64622C12.8519 2.64622 13.0582 2.94389 13.0582 3.35171V4.61737C13.0582 5.02285 12.8566 5.32285 12.3902 5.32285C11.9237 5.32285 11.7268 5.02285 11.7268 4.61737ZM12.6175 4.68768V3.28374C12.6175 3.12671 12.5472 3.0142 12.3902 3.0142C12.2331 3.0142 12.1675 3.12671 12.1675 3.28374V4.68768C12.1675 4.84472 12.2378 4.95722 12.3902 4.95722C12.5425 4.95722 12.6175 4.84472 12.6175 4.68768Z" fill="white"/>
<path d="M13.6747 3.64939V5.2924H13.3043V2.67671H13.7356L14.2091 4.17675V2.67671H14.5748V5.2924H14.188L13.67 3.64939H13.6747Z" fill="white"/>
<path d="M14.8022 4.72987V4.3783H15.2101V4.7369C15.2101 4.88456 15.2757 4.96894 15.4257 4.96894C15.564 4.96894 15.6273 4.87753 15.6273 4.7369V4.63612C15.6273 4.48611 15.5664 4.39236 15.4304 4.2658L15.1726 4.00798C14.9218 3.76188 14.8069 3.60953 14.8069 3.30952V3.22046C14.8069 2.89701 14.9968 2.64622 15.4234 2.64622C15.85 2.64622 16.0375 2.86186 16.0375 3.24155V3.45484H15.6367V3.22749C15.6367 3.07749 15.5664 3.00483 15.4281 3.00483C15.3039 3.00483 15.2195 3.07514 15.2195 3.22046V3.27437C15.2195 3.42203 15.3015 3.5064 15.4281 3.62828L15.7094 3.90719C15.9484 4.15095 16.0633 4.29627 16.0633 4.5869V4.71346C16.0633 5.07207 15.8711 5.32754 15.4234 5.32754C14.9757 5.32754 14.8022 5.07675 14.8022 4.73456V4.72987Z" fill="white"/>
<path d="M17.5681 2.67671V4.65489C17.5681 5.06036 17.3947 5.32287 16.947 5.32287C16.4993 5.32287 16.2906 5.06036 16.2906 4.65489V2.67671H16.7313V4.69942C16.7313 4.85411 16.7923 4.95724 16.947 4.95724C17.1017 4.95724 17.1626 4.85411 17.1626 4.69942V2.67671H17.5681Z" fill="white"/>
<path d="M19.0237 3.59548H19.012L18.7143 5.2924H18.5104L18.1822 3.59548H18.1752V5.2924H17.8119V2.67671H18.3252L18.6112 4.15097H18.6159L18.8714 2.67671H19.4269V5.2924H19.0261V3.59548H19.0237Z" fill="white"/>
<path d="M19.6708 4.61737V3.35171C19.6708 2.94154 19.8724 2.64622 20.3341 2.64622C20.7959 2.64622 21.0022 2.94389 21.0022 3.35171V4.61737C21.0022 5.02285 20.8006 5.32285 20.3341 5.32285C19.8677 5.32285 19.6708 5.02285 19.6708 4.61737ZM20.5615 4.68768V3.28374C20.5615 3.12671 20.4912 3.0142 20.3341 3.0142C20.1771 3.0142 20.1091 3.12671 20.1091 3.28374V4.68768C20.1091 4.84472 20.1794 4.95722 20.3341 4.95722C20.4888 4.95722 20.5615 4.84472 20.5615 4.68768Z" fill="white"/>
<path d="M21.6467 2.67668H22.6968V3.03529H22.0874V3.78296H22.5234V4.13688H22.0874V4.93143H22.6968V5.29003H21.6467V2.67434V2.67668Z" fill="white"/>
<path d="M10.215 6.51816H10.8666C11.3096 6.51816 11.4714 6.73848 11.4714 7.10411V7.6549C11.4714 8.02054 11.3096 8.24554 10.8666 8.24554H10.6533V9.13385H10.2126V6.51816H10.215ZM10.6557 6.87676V7.90804H10.8174C10.9674 7.90804 11.033 7.83538 11.033 7.69241V7.09005C11.033 6.94707 10.9674 6.87676 10.8174 6.87676H10.6557Z" fill="white"/>
<path d="M12.1793 7.93382V9.13385H11.7386V6.51816H12.3786C12.8216 6.51816 12.9833 6.73848 12.9833 7.10411V7.43927C12.9833 7.72053 12.8825 7.88694 12.6317 7.94554L13.0513 9.13385H12.5872L12.1746 7.93382H12.1793ZM12.1793 6.87676V7.69006H12.3246C12.4747 7.69006 12.5403 7.61272 12.5403 7.47443V7.0877C12.5403 6.94473 12.4747 6.87442 12.3246 6.87442H12.1793V6.87676Z" fill="white"/>
<path d="M13.2598 8.4589V7.19324C13.2598 6.78307 13.4613 6.48775 13.9231 6.48775C14.3849 6.48775 14.5911 6.78542 14.5911 7.19324V8.4589C14.5911 8.86438 14.3896 9.16438 13.9231 9.16438C13.4567 9.16438 13.2598 8.86438 13.2598 8.4589ZM14.1505 8.52921V7.12527C14.1505 6.96589 14.0802 6.85573 13.9231 6.85573C13.7661 6.85573 13.7004 6.96824 13.7004 7.12527V8.52921C13.7004 8.68625 13.7708 8.79875 13.9231 8.79875C14.0755 8.79875 14.1505 8.68625 14.1505 8.52921Z" fill="white"/>
<path d="M16.1945 7.22132V8.43307C16.1945 8.83386 16.0281 9.13621 15.557 9.13621H14.8772V6.52052H15.557C16.0281 6.52052 16.1945 6.81819 16.1945 7.22367V7.22132ZM15.503 8.77526C15.6835 8.77526 15.7538 8.66745 15.7538 8.50807V7.13929C15.7538 6.9846 15.6835 6.87678 15.503 6.87678H15.3179V8.77526H15.503Z" fill="white"/>
<path d="M17.7627 6.51816V8.49633C17.7627 8.90181 17.5892 9.16432 17.1415 9.16432C16.6938 9.16432 16.4852 8.90181 16.4852 8.49633V6.51816H16.9259V8.54086C16.9259 8.69555 16.9868 8.79868 17.1415 8.79868C17.2962 8.79868 17.3572 8.69555 17.3572 8.54086V6.51816H17.7627Z" fill="white"/>
<path d="M18.5127 9.40105C18.6369 9.39636 18.6557 9.37058 18.6557 9.34011C18.6557 9.31199 18.6322 9.29792 18.5947 9.29792H18.576V9.15495C18.2009 9.10808 18.0486 8.82682 18.0486 8.46119V7.19553C18.0486 6.78536 18.2408 6.49004 18.7049 6.49004C19.1901 6.49004 19.3261 6.75958 19.3261 7.14631V7.45569H18.9252V7.1135C18.9252 6.95177 18.8713 6.85802 18.7119 6.85802C18.5525 6.85802 18.4893 6.97052 18.4893 7.12756V8.5315C18.4893 8.68854 18.5549 8.80104 18.7119 8.80104C18.869 8.80104 18.9252 8.70025 18.9252 8.54556V8.06274H19.3261V8.51509C19.3261 8.88073 19.1784 9.15261 18.7424 9.16667V9.20183C18.8455 9.21824 18.9041 9.25574 18.9041 9.34011C18.9041 9.45965 18.7916 9.52527 18.515 9.52527V9.40105H18.5127Z" fill="white"/>
<path d="M19.5324 9.13389L20.027 6.5182H20.5286L21.0255 9.13389H20.5731L20.4911 8.65575H20.0246L19.9473 9.13389H19.53H19.5324ZM19.8746 6.41273C19.8816 6.23225 19.9519 6.08459 20.1442 6.08459C20.2567 6.08459 20.3481 6.15022 20.4067 6.15022C20.4371 6.15022 20.4606 6.13147 20.4606 6.09163H20.6762C20.6692 6.2721 20.5989 6.41976 20.4067 6.41976C20.2942 6.41976 20.2028 6.35413 20.1442 6.35413C20.1137 6.35413 20.0902 6.37288 20.0902 6.41273H19.8746ZM20.0832 8.30418H20.4348L20.2614 7.25415H20.2567L20.0832 8.30418Z" fill="white"/>
<path d="M21.2458 8.4589V7.19324C21.2458 6.78307 21.4474 6.48775 21.9092 6.48775C22.371 6.48775 22.5772 6.78542 22.5772 7.19324V8.4589C22.5772 8.86438 22.3756 9.16438 21.9092 9.16438C21.4427 9.16438 21.2458 8.86438 21.2458 8.4589ZM22.1366 8.52921V7.12527C22.1366 6.96589 22.0662 6.85573 21.9092 6.85573C21.7521 6.85573 21.6865 6.96824 21.6865 7.12527V8.52921C21.6865 8.68625 21.7568 8.79875 21.9092 8.79875C22.0616 8.79875 22.1366 8.68625 22.1366 8.52921Z" fill="white"/>
<path d="M10.6558 11.7776V12.9776H10.2151V10.3619H10.855C11.298 10.3619 11.4597 10.5822 11.4597 10.9479V11.283C11.4597 11.5643 11.3589 11.7307 11.1081 11.7893L11.5277 12.9776H11.0636L10.6511 11.7776H10.6558ZM10.6558 10.7205V11.5338H10.8034C10.9534 11.5338 11.0191 11.4565 11.0191 11.3182V10.9314C11.0191 10.7885 10.9534 10.7182 10.8034 10.7182H10.6558V10.7205Z" fill="white"/>
<path d="M11.7128 10.3596H12.7629V10.7182H12.1534V11.4659H12.5894V11.8198H12.1534V12.6143H12.7629V12.9729H11.7128V10.3572V10.3596Z" fill="white"/>
<path d="M12.9811 12.4128V12.0612H13.3913V12.4198C13.3913 12.5651 13.4569 12.6518 13.6069 12.6518C13.7452 12.6518 13.8085 12.5581 13.8085 12.4198V12.319C13.8085 12.169 13.7476 12.0753 13.6116 11.9487L13.3538 11.6909C13.103 11.4448 12.9881 11.2924 12.9881 10.9924V10.9034C12.9881 10.5799 13.178 10.3291 13.6046 10.3291C14.0312 10.3291 14.2187 10.5448 14.2187 10.9245V11.1377H13.8179V10.9104C13.8179 10.7604 13.7476 10.6877 13.6093 10.6877C13.485 10.6877 13.4007 10.758 13.4007 10.9034V10.9573C13.4007 11.1026 13.4827 11.1893 13.6093 11.3112L13.8905 11.5901C14.1296 11.8338 14.2445 11.9792 14.2445 12.2698V12.3964C14.2445 12.755 14.0523 13.0104 13.6046 13.0104C13.1569 13.0104 12.9834 12.7597 12.9834 12.4151L12.9811 12.4128Z" fill="white"/>
<path d="M14.4834 10.3596H15.135C15.5781 10.3596 15.7398 10.5799 15.7398 10.9456V11.4963C15.7398 11.862 15.5781 12.087 15.135 12.087H14.9217V12.9753H14.4811V10.3596H14.4834ZM14.9241 10.7182V11.7495H15.0858C15.2358 11.7495 15.3015 11.6768 15.3015 11.5339V10.9315C15.3015 10.7885 15.2358 10.7182 15.0858 10.7182H14.9241Z" fill="white"/>
<path d="M15.979 12.3003V11.0346C15.979 10.6244 16.1806 10.3291 16.6424 10.3291C17.1041 10.3291 17.3104 10.6268 17.3104 11.0346V12.3003C17.3104 12.7057 17.1088 13.0058 16.6424 13.0058C16.1759 13.0058 15.979 12.7057 15.979 12.3003ZM16.8697 12.3706V10.9666C16.8697 10.8096 16.7994 10.6971 16.6424 10.6971C16.4853 10.6971 16.4197 10.8096 16.4197 10.9666V12.3706C16.4197 12.5276 16.49 12.6401 16.6424 12.6401C16.7947 12.6401 16.8697 12.5276 16.8697 12.3706Z" fill="white"/>
<path d="M17.9431 11.3323V12.9753H17.5728V10.3596H18.004L18.4775 11.8596V10.3596H18.8432V12.9753H18.4564L17.9384 11.3323H17.9431Z" fill="white"/>
<path d="M19.0847 12.4128V12.0612H19.4949V12.4198C19.4949 12.5651 19.5605 12.6518 19.7106 12.6518C19.8489 12.6518 19.9121 12.5581 19.9121 12.4198V12.319C19.9121 12.169 19.8512 12.0753 19.7152 11.9487L19.4574 11.6909C19.2066 11.4448 19.0917 11.2924 19.0917 10.9924V10.9034C19.0917 10.5799 19.2816 10.3291 19.7082 10.3291C20.1348 10.3291 20.3223 10.5448 20.3223 10.9245V11.1377H19.9215V10.9104C19.9215 10.7604 19.8512 10.6877 19.7129 10.6877C19.5887 10.6877 19.5043 10.758 19.5043 10.9034V10.9573C19.5043 11.1026 19.5863 11.1893 19.7129 11.3112L19.9942 11.5901C20.2333 11.8338 20.3481 11.9792 20.3481 12.2698V12.3964C20.3481 12.755 20.1559 13.0104 19.7082 13.0104C19.2605 13.0104 19.0871 12.7597 19.0871 12.4151L19.0847 12.4128Z" fill="white"/>
<path d="M20.5169 12.9753L21.0114 10.3596H21.5131L22.01 12.9753H21.5576L21.4756 12.4971H21.0091L20.9318 12.9753H20.5145H20.5169ZM21.6209 10.1744L20.9294 10.2635V10.0174L21.6209 9.86974V10.1744ZM21.07 12.1456H21.4216L21.2482 11.0955H21.2435L21.07 12.1456Z" fill="white"/>
<path d="M23.6109 10.3596L23.114 12.9753H22.6358L22.1389 10.3596H22.5866L22.8866 12.1854H22.8913L23.2007 10.3596H23.6133H23.6109Z" fill="white"/>
<path d="M23.8032 10.3596H24.8533V10.7182H24.2439V11.4659H24.6799V11.8198H24.2439V12.6143H24.8533V12.9729H23.8032V10.3572V10.3596Z" fill="white"/>
<path d="M25.0946 10.3596H25.5353V12.9753H25.0946V10.3596Z" fill="white"/>
<path d="M25.7744 12.4128V12.0612H26.1846V12.4198C26.1846 12.5651 26.2502 12.6518 26.4003 12.6518C26.5386 12.6518 26.6018 12.5581 26.6018 12.4198V12.319C26.6018 12.169 26.5409 12.0753 26.4049 11.9487L26.1471 11.6909C25.8963 11.4448 25.7814 11.2924 25.7814 10.9924V10.9034C25.7814 10.5799 25.9713 10.3291 26.3979 10.3291C26.8245 10.3291 27.012 10.5448 27.012 10.9245V11.1377H26.6112V10.9104C26.6112 10.7604 26.5409 10.6877 26.4026 10.6877C26.2784 10.6877 26.194 10.758 26.194 10.9034V10.9573C26.194 11.1026 26.276 11.1893 26.4026 11.3112L26.6839 11.5901C26.923 11.8338 27.0378 11.9792 27.0378 12.2698V12.3964C27.0378 12.755 26.8456 13.0104 26.3979 13.0104C25.9502 13.0104 25.7768 12.7597 25.7768 12.4151L25.7744 12.4128Z" fill="white"/>
</g>
<defs>
<clipPath id="clip0_4014_93531">
<rect width="32" height="32" rx="4" fill="white"/>
</clipPath>
</defs>
</svg>
