<svg width="32" height="32" viewBox="0 0 32 32" fill="none" xmlns="http://www.w3.org/2000/svg">
<g clip-path="url(#clip0_4014_93532)">
<path d="M32 0H0V32H32V0Z" fill="#417C44"/>
<path d="M4.03876 2.68369V9.13384H2.95584V4.19778H2.94412L2.18467 4.9853H2.17529V3.85325L3.17383 2.68369H4.03876Z" fill="white"/>
<path d="M7.6157 4.08289V4.64306C7.6157 5.18448 7.32036 5.54542 6.875 5.6884C7.41646 5.81262 7.6743 6.19231 7.6743 6.78295V7.73454C7.6743 8.62753 7.19847 9.2088 6.10383 9.2088C5.00919 9.2088 4.61072 8.58065 4.61072 7.60094V6.75483H5.59988V7.67829C5.59988 8.05799 5.73348 8.30643 6.10383 8.30643C6.43668 8.30643 6.58904 8.0697 6.58904 7.72516V6.66108C6.58904 6.31888 6.43668 6.13841 6.05695 6.13841H5.59988V5.31104H6.01007C6.36167 5.31104 6.58904 5.13057 6.58904 4.78837V4.09461C6.58904 3.74304 6.46715 3.51334 6.12258 3.51334C5.77802 3.51334 5.65613 3.74069 5.65613 4.14148V4.79775H4.66697V4.2282C4.66697 3.27662 5.05607 2.61098 6.17884 2.61098C7.17738 2.61098 7.6157 3.17349 7.6157 4.08523" fill="white"/>
<path d="M27.9848 20.0325C27.1409 18.8512 23.3273 14.1284 16.2391 14.1284C9.1509 14.1284 5.33491 18.8488 4.49107 20.0325C4.45591 20.084 4.42544 20.1262 4.39966 20.1637C4.42544 20.2012 4.45591 20.2458 4.49107 20.2973C5.33491 21.4786 9.14856 26.2014 16.2391 26.2014C23.3296 26.2014 27.1409 21.4809 27.9848 20.2973C28.0223 20.2458 28.0527 20.2036 28.0762 20.1637C28.0527 20.1262 28.0223 20.084 27.9848 20.0325ZM12.2848 17.1144C12.3481 17.0207 12.5614 16.7535 12.5872 16.7183C12.6411 16.648 12.7513 16.6339 12.8263 16.6199C12.9013 16.6058 13.0021 16.648 13.0138 16.7043C13.0278 16.7605 12.9857 16.9808 12.9481 17.0183C12.845 17.1261 12.5731 17.2785 12.4254 17.2551C12.3106 17.2363 12.2661 17.1472 12.2871 17.1144M12.034 17.6183C12.0457 17.6043 12.0551 17.5949 12.0598 17.5879C12.1489 17.4871 12.327 17.4637 12.4489 17.4449C12.5731 17.4238 12.7348 17.4847 12.7559 17.5668C12.777 17.6488 12.4489 17.7965 12.3879 17.8527C12.2168 18.0098 11.9496 18.3309 11.7949 18.3637C11.7433 18.3754 11.7012 18.3684 11.6683 18.3496C11.7715 18.0941 11.8934 17.848 12.0363 17.616M14.6897 23.0583C14.5936 23.4357 14.4811 23.5716 14.385 23.6912C14.2889 23.8107 13.935 23.9654 13.7123 23.949C13.4873 23.9326 13.4568 23.3325 13.4568 23.0255C13.4568 22.92 13.3068 23.2341 13.2271 22.5919C13.1779 22.1817 12.913 22.6341 12.8942 22.3599C12.8755 22.0856 12.7442 22.1419 12.6059 21.9708C12.4676 21.7997 12.2965 21.9872 12.1043 22.0739C11.9121 22.1583 11.9918 22.2028 11.7199 22.1185C11.7129 22.1185 11.7105 22.1138 11.7035 22.1114C11.4527 21.5208 11.3144 20.8716 11.3144 20.1895C11.3144 20.0231 11.3238 19.859 11.3378 19.6973C11.3472 19.6809 11.3566 19.6645 11.3683 19.6504C11.6285 19.341 11.6238 19.2684 11.6238 19.2684L11.9121 19.1676C11.9121 19.1676 12.3739 19.2379 12.7208 19.3692C13.0067 19.477 13.4568 19.7184 13.7193 19.6129C13.9092 19.5356 14.0569 19.4301 14.0404 19.2731C14.0193 19.0762 13.8623 19.027 13.6748 19.1606C13.6045 19.2098 13.4568 18.8629 13.3396 18.8793C13.2224 18.8957 13.4826 19.2871 13.3841 19.3035C13.2857 19.32 13.0864 18.8957 13.0513 18.8278C13.0185 18.7598 12.8638 18.5887 12.7255 18.7199C12.4348 18.9965 11.9613 18.9801 11.8652 19.0504C11.5769 19.266 11.4996 18.9801 11.5066 18.8043C11.5183 18.7645 11.53 18.7246 11.5441 18.6848C11.6379 18.5817 11.9777 18.5465 12.0926 18.6238C12.2215 18.7106 12.3129 18.6027 12.3622 18.5512C12.4137 18.502 12.395 18.4176 12.3622 18.3496C12.3293 18.2816 12.4254 18.2301 12.4911 18.2137C12.5567 18.1949 12.777 18.0426 12.8661 17.991C12.9552 17.9394 13.4123 17.8855 13.6162 17.9863C13.8201 18.0895 14.0076 18.0051 14.1084 17.8855C14.235 17.7355 14.3944 17.6207 14.467 17.5879C14.5397 17.5551 14.2912 17.323 14.0873 17.5762C13.8834 17.8269 13.7803 17.8504 13.6842 17.8504C13.5881 17.8504 13.0185 17.7074 12.9481 17.5269C12.8778 17.3465 13.1263 17.2129 13.3372 17.1097C13.5482 17.009 14.1225 17.0113 14.2702 16.9785C14.5702 16.9129 14.9523 16.7629 15.1445 16.8941C15.3367 17.023 14.3405 17.2504 14.6663 17.4262C14.7835 17.4894 15.3109 17.1238 15.4914 17.0301C15.9156 16.8121 15.0788 16.7394 15.189 16.2941C15.3109 15.7902 14.1623 15.9847 13.5904 16.0292C14.3592 15.537 15.271 15.2511 16.2508 15.2511C18.5807 15.2511 20.5333 16.866 21.0536 19.0364C21.0583 19.1442 21.0396 19.2215 21.0302 19.2637C20.9857 19.4418 20.6481 19.5942 20.4512 19.3082C20.402 19.2356 20.1887 19.0364 20.1957 19.3785C20.2028 19.7207 20.5286 19.7559 20.2121 19.9622C19.898 20.1684 19.8394 20.1168 19.6941 20.1708C19.5488 20.2223 19.4082 20.5739 19.4433 20.7637C19.4785 20.9512 19.9285 21.4669 19.5933 21.4458C19.516 21.4388 18.9253 21.0356 18.8268 20.7778C18.7237 20.5059 18.6112 20.2387 18.5315 20.0325C18.4518 19.8286 18.2432 19.7747 18.0674 19.8965C17.8916 20.0161 18.1166 20.1379 17.99 20.3934C17.8635 20.6489 17.7744 20.8786 17.5892 20.6676C17.1064 20.1145 16.4079 20.3864 16.2977 19.7723C16.2391 19.4395 15.9508 19.47 15.7117 19.2824C15.4703 19.0949 15.3367 18.9918 15.2968 19.1278C15.2617 19.2473 16.0516 19.8731 16.1078 20.0348C16.1922 20.2739 15.8711 20.4848 15.6367 20.5411C15.4023 20.5973 15.2992 20.4098 15.0695 20.1708C14.8397 19.9317 14.7389 19.7606 14.7225 19.9481C14.6991 20.22 14.9405 20.6184 15.1749 20.7684C15.3742 20.895 15.5992 20.9512 15.5336 21.1575C15.4679 21.3638 15.5336 21.2466 15.3085 21.4692C15.0835 21.6919 15.0413 21.7645 15.0577 22.0716C15.0741 22.381 14.9944 22.3974 14.9452 22.6528C14.8983 22.9083 14.7858 22.688 14.6897 23.063M19.9871 21.0942C20.1535 21.0802 20.402 21.3098 20.3036 21.3989C20.2075 21.4856 19.9566 21.4552 19.8324 21.3567C19.7082 21.2606 19.9098 21.1012 19.9848 21.0942M19.7738 20.9419C19.7199 20.9231 19.673 20.8716 19.6332 20.7497C19.5933 20.6278 19.6941 20.5598 19.7949 20.6067C19.8957 20.6583 20.027 20.8106 20.027 20.8903C20.027 20.97 19.8277 20.9606 19.7738 20.9395M17.5939 20.9301C17.4955 21.0169 17.247 20.9841 17.1228 20.888C16.9985 20.7919 17.2025 20.6301 17.2751 20.6255C17.4416 20.6114 17.69 20.8434 17.5939 20.9301ZM15.5781 21.9099C15.5101 22.02 15.3249 22.8521 15.2007 22.756C15.0765 22.6575 15.2523 21.7927 15.2874 21.727C15.482 21.3684 15.9039 21.3872 15.5781 21.9122M16.2508 25.1302C15.768 25.1302 15.3038 25.0599 14.8632 24.931C14.7999 24.8795 14.7647 24.7927 14.8022 24.6896C14.9546 24.2912 15.4093 24.1341 15.7703 24.1013C16.5719 24.024 17.6244 24.6216 17.7908 24.5255C17.9596 24.4295 18.2971 23.9888 18.794 24.0076C19.1339 24.0216 19.1316 24.0779 19.2441 24.1201C18.4143 24.7529 17.3759 25.1302 16.2508 25.1302ZM19.734 23.6935C19.6847 23.6794 19.6332 23.663 19.5793 23.6349C19.3097 23.499 19.3425 23.7169 19.2089 23.6677C19.0753 23.6185 19.3589 23.3115 18.9605 23.5716C18.5643 23.8318 18.6721 23.5318 18.4987 23.0911C18.3229 22.6505 18.6979 22.1489 19.0097 22.0364C19.4386 21.8817 19.7058 21.8489 19.9074 21.7997C20.5005 21.652 20.627 21.3005 20.7325 21.5138C20.7536 21.5536 20.7723 21.5911 20.7911 21.6286C20.8263 21.6919 20.8661 21.8231 20.8685 21.9497C20.6153 22.6107 20.2285 23.2013 19.7363 23.6912M21.0888 21.1973C20.9552 21.1622 20.402 20.3958 20.8403 19.8895C20.913 19.8075 20.6927 19.5637 20.7536 19.5567C20.9927 19.5379 21.1216 19.6879 21.1849 19.9012C21.1896 19.995 21.1943 20.0911 21.1943 20.1872C21.1943 20.5317 21.1568 20.8692 21.0911 21.195" fill="white"/>
<path d="M10.1353 5.33917L10.6392 2.66958H11.1502L11.6588 5.33917H11.1971L11.115 4.85166H10.6392L10.5595 5.33917H10.1353ZM10.6978 4.49306H11.0564L10.8783 3.42194H10.8736L10.6955 4.49306H10.6978Z" fill="white"/>
<path d="M12.3645 5.61099C12.4911 5.6063 12.5098 5.58052 12.5098 5.54771C12.5098 5.51958 12.4864 5.50552 12.4465 5.50552H12.4278V5.3602C12.0457 5.31333 11.8887 5.02504 11.8887 4.65237V3.36094C11.8887 2.94374 12.0856 2.64139 12.5591 2.64139C13.056 2.64139 13.1919 2.91796 13.1919 3.31172V3.62579H12.7817V3.27656C12.7817 3.11015 12.7255 3.0164 12.5661 3.0164C12.4067 3.0164 12.3387 3.13124 12.3387 3.29297V4.72503C12.3387 4.88676 12.4067 5.0016 12.5661 5.0016C12.7255 5.0016 12.7817 4.89847 12.7817 4.74144V4.24924H13.1919V4.70863C13.1919 5.08364 13.0419 5.35786 12.5966 5.37427V5.40942C12.702 5.42583 12.763 5.46568 12.763 5.55005C12.763 5.67193 12.6481 5.7399 12.3645 5.7399V5.61334V5.61099Z" fill="white"/>
<path d="M13.4075 5.33914L13.9114 2.66955H14.4224L14.9311 5.33914H14.4693L14.3873 4.85163H13.9114L13.8317 5.33914H13.4075ZM13.7591 2.56408C13.7661 2.37892 13.8388 2.22891 14.0357 2.22891C14.1505 2.22891 14.2443 2.29688 14.3029 2.29688C14.3333 2.29688 14.3591 2.27813 14.3591 2.23829H14.5795C14.5724 2.42345 14.4998 2.57345 14.3029 2.57345C14.188 2.57345 14.0943 2.50548 14.0357 2.50548C14.0052 2.50548 13.9794 2.52423 13.9794 2.56408H13.7591ZM13.9724 4.49303H14.331L14.1529 3.42191H14.1482L13.97 4.49303H13.9724Z" fill="white"/>
<path d="M15.1584 4.65009V3.35865C15.1584 2.94145 15.3624 2.6391 15.8359 2.6391C16.3093 2.6391 16.518 2.94145 16.518 3.35865V4.65009C16.518 5.0626 16.314 5.36963 15.8359 5.36963C15.3577 5.36963 15.1584 5.0626 15.1584 4.65009ZM16.0679 4.7204V3.28833C16.0679 3.12661 15.9976 3.01176 15.8359 3.01176C15.6741 3.01176 15.6085 3.12661 15.6085 3.28833V4.7204C15.6085 4.88212 15.6788 4.99697 15.8359 4.99697C15.9929 4.99697 16.0679 4.88212 16.0679 4.7204Z" fill="white"/>
<path d="M17.2704 4.65009V3.35865C17.2704 2.94145 17.4673 2.6391 17.9408 2.6391C18.4377 2.6391 18.5736 2.91567 18.5736 3.30943V3.6235H18.1634V3.27427C18.1634 3.10786 18.1072 3.01411 17.9478 3.01411C17.7884 3.01411 17.7204 3.12895 17.7204 3.29068V4.72274C17.7204 4.88447 17.7884 4.99931 17.9478 4.99931C18.1072 4.99931 18.1634 4.89619 18.1634 4.73915V4.24695H18.5736V4.70634C18.5736 5.08838 18.4166 5.37198 17.9408 5.37198C17.4649 5.37198 17.2704 5.06494 17.2704 4.65243V4.65009Z" fill="white"/>
<path d="M18.8596 4.65009V3.35865C18.8596 2.94145 19.0635 2.6391 19.537 2.6391C20.0105 2.6391 20.2191 2.94145 20.2191 3.35865V4.65009C20.2191 5.0626 20.0152 5.36963 19.537 5.36963C19.0589 5.36963 18.8596 5.0626 18.8596 4.65009ZM19.7691 4.7204V3.28833C19.7691 3.12661 19.6988 3.01176 19.537 3.01176C19.3753 3.01176 19.3097 3.12661 19.3097 3.28833V4.7204C19.3097 4.88212 19.38 4.99697 19.537 4.99697C19.6941 4.99697 19.7691 4.88212 19.7691 4.7204Z" fill="white"/>
<path d="M20.8964 3.66331V5.34147H20.519V2.67188H20.9597L21.4449 4.20238V2.67188H21.8199V5.34147H21.4262L20.8988 3.66331H20.8964Z" fill="white"/>
<path d="M22.0662 2.67188H23.2592V3.03751H22.8889V5.34147H22.4365V3.03751H22.0662V2.67188Z" fill="white"/>
<path d="M23.9602 4.11571V5.33917H23.5101V2.66958H24.1641C24.6165 2.66958 24.7829 2.89458 24.7829 3.26725V3.60945C24.7829 3.89773 24.6798 4.06649 24.4243 4.12508L24.8532 5.33683H24.3797L23.9578 4.11336L23.9602 4.11571ZM23.9602 3.03756V3.86726H24.1102C24.2625 3.86726 24.3305 3.78757 24.3305 3.64695V3.25319C24.3305 3.10787 24.2625 3.03756 24.1102 3.03756H23.9602Z" fill="white"/>
<path d="M24.9985 5.33917L25.5025 2.66958H26.0135L26.5221 5.33917H26.0604L25.9783 4.85166H25.5025L25.4228 5.33917H24.9985ZM25.5611 4.49306H25.9197L25.7416 3.42194H25.7369L25.5587 4.49306H25.5611Z" fill="white"/>
<path d="M27.1362 5.33917L27.6402 2.66958H28.1512L28.6598 5.33917H28.1981L28.116 4.85166H27.6402L27.5605 5.33917H27.1362ZM27.6988 4.49306H28.0574L27.8793 3.42194H27.8746L27.6964 4.49306H27.6988Z" fill="white"/>
<path d="M11.434 7.3947H11.4223L11.1199 9.12677H10.9113L10.5761 7.3947H10.5691V9.12677H10.1987V6.45718H10.7214L11.0121 7.9619H11.0168L11.277 6.45718H11.8442V9.12677H11.434V7.3947Z" fill="white"/>
<path d="M13.3443 6.45718V8.47754C13.3443 8.89005 13.1661 9.15959 12.7114 9.15959C12.2567 9.15959 12.041 8.89239 12.041 8.47754V6.45718H12.4887V8.51973C12.4887 8.67676 12.552 8.78458 12.709 8.78458C12.8661 8.78458 12.9294 8.67911 12.9294 8.51973V6.45718H13.3419H13.3443Z" fill="white"/>
<path d="M14.8842 7.17438V8.40957C14.8842 8.81973 14.7155 9.12677 14.235 9.12677H13.5411V6.45718H14.235C14.7155 6.45718 14.8842 6.75953 14.8842 7.17438ZM14.1787 8.76114C14.3639 8.76114 14.4342 8.65098 14.4342 8.48926V7.09235C14.4342 6.93531 14.3639 6.82515 14.1787 6.82515H13.9888V8.76114H14.1787Z" fill="white"/>
<path d="M15.011 9.12677L15.5149 6.45718H16.0259L16.5346 9.12677H16.0728L15.9908 8.63926H15.5149L15.4352 9.12677H15.011ZM15.5735 8.28066H15.9322L15.754 7.20954H15.7493L15.5712 8.28066H15.5735Z" fill="white"/>
<path d="M17.0384 7.4509V9.12906H16.661V6.45947H17.1017L17.5869 7.98997V6.45947H17.9619V9.12906H17.5681L17.0407 7.4509H17.0384Z" fill="white"/>
<path d="M18.6323 9.39867C18.7589 9.39398 18.7776 9.3682 18.7776 9.33538C18.7776 9.30726 18.7542 9.29319 18.7144 9.29319H18.6956V9.14788C18.3135 9.101 18.1565 8.81271 18.1565 8.44005V7.14861C18.1565 6.73141 18.3534 6.42906 18.8269 6.42906C19.3238 6.42906 19.4597 6.70563 19.4597 7.09939V7.41346H19.0495V7.06189C19.0495 6.89548 18.9933 6.80173 18.8339 6.80173C18.6745 6.80173 18.6065 6.91657 18.6065 7.0783V8.51036C18.6065 8.67209 18.6745 8.78693 18.8339 8.78693C18.9933 8.78693 19.0495 8.6838 19.0495 8.52677V8.03457H19.4597V8.49396C19.4597 8.86897 19.3097 9.14319 18.8644 9.1596V9.19475C18.9699 9.21116 19.0308 9.25101 19.0308 9.33773C19.0308 9.4596 18.9159 9.52758 18.6323 9.52758V9.40101V9.39867Z" fill="white"/>
<path d="M19.5746 9.12677L20.0785 6.45718H20.5895L21.0982 9.12677H20.6364L20.5544 8.63926H20.0785L19.9988 9.12677H19.5746ZM20.1371 8.28066H20.4958L20.3176 7.20954H20.3129L20.1348 8.28066H20.1371Z" fill="white"/>
<path d="M22.2538 7.70175H22.8914V9.12678H22.5679V8.83615C22.5093 9.03772 22.3827 9.1596 22.139 9.1596C21.7522 9.1596 21.5764 8.85256 21.5764 8.44005V7.14861C21.5764 6.73141 21.778 6.42906 22.2491 6.42906C22.7461 6.42906 22.8914 6.70563 22.8914 7.09939V7.33611H22.4812V7.06423C22.4812 6.89782 22.4179 6.80407 22.2562 6.80407C22.0944 6.80407 22.0241 6.91892 22.0241 7.08064V8.51271C22.0241 8.67443 22.0921 8.78928 22.2444 8.78928C22.3968 8.78928 22.4648 8.70724 22.4648 8.5338V8.06035H22.2515V7.70644L22.2538 7.70175Z" fill="white"/>
<path d="M23.0906 6.45718H23.5383V8.76114H24.0727V9.12677H23.0883V6.45718H23.0906Z" fill="white"/>
<path d="M24.2205 8.43768V7.14624C24.2205 6.72904 24.4244 6.42669 24.8979 6.42669C25.3714 6.42669 25.58 6.72904 25.58 7.14624V8.43768C25.58 8.85019 25.376 9.15722 24.8979 9.15722C24.4197 9.15722 24.2205 8.85019 24.2205 8.43768ZM25.1299 8.50799V7.07592C25.1299 6.9142 25.0596 6.79935 24.8979 6.79935C24.7361 6.79935 24.6705 6.9142 24.6705 7.07592V8.50799C24.6705 8.66971 24.7408 8.78456 24.8979 8.78456C25.0549 8.78456 25.1299 8.66971 25.1299 8.50799Z" fill="white"/>
<path d="M25.7744 6.45715H26.4237C26.8737 6.45715 27.0214 6.66575 27.0214 7.04311V7.31499C27.0214 7.53999 26.9394 7.68062 26.7542 7.73922C26.9792 7.79078 27.0894 7.94078 27.0894 8.18454V8.53846C27.0894 8.91581 26.9206 9.12441 26.4706 9.12441H25.7744V6.45481V6.45715ZM26.2221 7.58218H26.3792C26.5245 7.58218 26.5925 7.50718 26.5925 7.36655V7.04076C26.5925 6.89545 26.5245 6.82513 26.3768 6.82513H26.2221V7.58453V7.58218ZM26.2221 7.92438V8.75877H26.419C26.569 8.75877 26.6393 8.68377 26.6393 8.54314V8.14235C26.6393 8.00172 26.5714 7.92672 26.4143 7.92672H26.2221V7.92438Z" fill="white"/>
<path d="M27.1855 9.12677L27.6895 6.45718H28.2005L28.7091 9.12677H28.2474L28.1653 8.63926H27.6895L27.6098 9.12677H27.1855ZM27.7481 8.28066H28.1067L27.9286 7.20954H27.9239L27.7458 8.28066H27.7481Z" fill="white"/>
<path d="M28.8334 6.45718H29.2811V8.76114H29.8155V9.12677H28.8311V6.45718H28.8334Z" fill="white"/>
<path d="M11.5418 10.7534V11.9886C11.5418 12.3988 11.3731 12.7058 10.8925 12.7058H10.1987V10.0362H10.8925C11.3731 10.0362 11.5418 10.3386 11.5418 10.7534ZM10.8363 12.3402C11.0215 12.3402 11.0918 12.23 11.0918 12.0683V10.6714C11.0918 10.5143 11.0215 10.4042 10.8363 10.4042H10.6464V12.3402H10.8363Z" fill="white"/>
<path d="M11.7388 12.0167V10.7253C11.7388 10.3081 11.9427 10.0057 12.4162 10.0057C12.8897 10.0057 13.0983 10.3081 13.0983 10.7253V12.0167C13.0983 12.4292 12.8944 12.7363 12.4162 12.7363C11.938 12.7363 11.7388 12.4292 11.7388 12.0167ZM12.6482 12.087V10.655C12.6482 10.4932 12.5779 10.3784 12.4162 10.3784C12.2544 10.3784 12.1888 10.4932 12.1888 10.655V12.087C12.1888 12.2487 12.2591 12.3636 12.4162 12.3636C12.5732 12.3636 12.6482 12.2487 12.6482 12.087Z" fill="white"/>
<path d="M13.6467 12.0167V10.7253C13.6467 10.3081 13.8436 10.0057 14.3171 10.0057C14.814 10.0057 14.95 10.2823 14.95 10.6761V10.9901H14.5398V10.6386C14.5398 10.4721 14.4835 10.3784 14.3241 10.3784C14.1647 10.3784 14.0968 10.4932 14.0968 10.655V12.087C14.0968 12.2487 14.1647 12.3636 14.3241 12.3636C14.4835 12.3636 14.5398 12.2605 14.5398 12.1034V11.6112H14.95V12.073C14.95 12.455 14.7929 12.7386 14.3171 12.7386C13.8413 12.7386 13.6467 12.4316 13.6467 12.0191V12.0167Z" fill="white"/>
<path d="M15.1353 10.0386H15.5853V12.3425H16.1197V12.7082H15.1353V10.0386Z" fill="white"/>
<path d="M16.2673 10.0386H16.7174V12.7082H16.2673V10.0386Z" fill="white"/>
<path d="M18.1518 10.9737H18.1401L17.8377 12.7058H17.6291L17.2939 10.9737H17.2869V12.7058H16.9165V10.0362H17.4392L17.7299 11.5409H17.7346L17.9947 10.0362H18.562V12.7058H18.1518V10.9737Z" fill="white"/>
<path d="M18.6887 12.7058L19.1927 10.0362H19.7037L20.2123 12.7058H19.7505L19.6685 12.2183H19.1927L19.113 12.7058H18.6887ZM19.2513 11.8597H19.6099L19.4318 10.7886H19.4271L19.2489 11.8597H19.2513Z" fill="white"/>
</g>
<defs>
<clipPath id="clip0_4014_93532">
<rect width="32" height="32" rx="4" fill="white"/>
</clipPath>
</defs>
</svg>
