<svg width="32" height="32" viewBox="0 0 32 32" fill="none" xmlns="http://www.w3.org/2000/svg">
<g clip-path="url(#clip0_4014_93533)">
<path d="M32 0H0V32H32V0Z" fill="#258CC3"/>
<path d="M4.16988 2.69301V9.14082H3.08462V4.20476H3.07525L2.31345 4.99463H2.30408V3.86257L3.30261 2.69301H4.16988Z" fill="white"/>
<path d="M7.4727 9.14321V8.09788H7.91102V7.25176H7.4727V2.69071H6.40619L4.53101 7.42989V8.09553H6.44369V9.14087H7.4727V9.14321ZM5.48266 7.24942L6.45307 4.59388H6.46244V7.24942H5.48266Z" fill="white"/>
<path d="M24.5697 23.349C24.1665 22.8052 21.5647 19.4887 17.9175 19.4887C14.7508 19.4887 11.3614 22.3599 11.3614 22.3599C11.3614 22.3599 10.0886 19.7559 7.48443 19.5051C7.47036 19.5051 7.45395 19.5005 7.4352 19.5005H7.41879C7.36488 19.5028 7.31332 19.5567 7.32035 19.6036C7.32738 19.6481 7.3602 19.6997 7.3602 19.6997C7.69538 20.2575 8.55328 21.8419 8.55328 23.4263C8.55328 25.0107 7.6907 26.6045 7.3602 27.1577L7.33676 27.1928C7.32738 27.2092 7.32035 27.2256 7.32035 27.2467C7.32035 27.3006 7.36254 27.3452 7.41645 27.3499H7.44458C7.44458 27.3499 7.46333 27.3475 7.47271 27.3452C10.0839 27.1014 11.3614 24.4904 11.3614 24.4904C11.3614 24.4904 14.7484 27.3639 17.9175 27.3639C21.5647 27.3639 24.1665 24.0474 24.5697 23.5037C24.5814 23.4896 24.5884 23.4756 24.5978 23.4662C24.6025 23.4545 24.6072 23.4427 24.6072 23.4263C24.6072 23.4123 24.6025 23.3982 24.5978 23.3865C24.5908 23.3748 24.5814 23.3631 24.5697 23.349ZM19.945 23.8459C19.3567 23.8459 18.8809 23.3677 18.8809 22.7818C18.8809 22.1958 19.3567 21.7177 19.945 21.7177C20.5334 21.7177 21.0115 22.1935 21.0115 22.7818C21.0115 23.3701 20.5357 23.8459 19.945 23.8459Z" fill="white"/>
<path d="M7.40465 13.2542C7.40465 13.2542 7.39059 13.2495 7.38356 13.2495C7.32496 13.2495 7.27808 13.2964 7.27808 13.355V14.0816C7.27808 14.112 7.2898 14.1378 7.30855 14.1566C9.06888 15.6871 10.7354 14.2527 11.1222 13.873C11.1292 13.8613 11.1386 13.8495 11.1503 13.8425C11.1667 13.8308 11.1855 13.8238 11.2089 13.8238C11.2371 13.8238 11.2628 13.8331 11.2792 13.8519L11.2839 13.8566C13.2716 15.7551 15.3578 14.2175 15.7914 13.8566L15.8336 13.8167C15.8453 13.812 15.8594 13.8097 15.8734 13.8097C15.8875 13.8097 15.9039 13.8097 15.9156 13.8167L15.9578 13.8566C16.3915 14.2175 18.4776 15.7551 20.4653 13.8566C20.4653 13.8566 20.4676 13.8542 20.47 13.8519C20.4887 13.8355 20.5122 13.8238 20.5403 13.8238C20.5614 13.8238 20.5825 13.8308 20.5989 13.8425C20.6106 13.8495 20.62 13.8613 20.627 13.873C21.0114 14.2527 22.678 15.6847 24.4407 14.1566C24.4594 14.1378 24.4712 14.112 24.4712 14.0816V13.355C24.4712 13.2964 24.4266 13.2495 24.368 13.2495C24.361 13.2495 24.354 13.2519 24.3446 13.2542C24.3282 13.2636 24.3118 13.273 24.293 13.2823C23.7516 13.5542 22.0709 14.1988 20.5473 12.7573C20.5333 12.7433 20.5169 12.7292 20.5028 12.7151C20.4887 12.7105 20.4747 12.7058 20.4583 12.7058C20.4489 12.7058 20.4372 12.7081 20.4278 12.7105C20.4044 12.7198 20.3879 12.7339 20.3739 12.7526C19.9192 13.0995 17.833 14.5105 15.9766 12.7784L15.9485 12.7526C15.9297 12.7362 15.9039 12.7222 15.8734 12.7222C15.8453 12.7222 15.8195 12.7362 15.8008 12.7526L15.7727 12.7784C13.9162 14.5105 11.8277 13.0995 11.3754 12.7526C11.3636 12.7339 11.3472 12.7198 11.3238 12.7105C11.3121 12.7105 11.3027 12.7058 11.291 12.7058C11.2769 12.7058 11.2605 12.7105 11.2464 12.7151C11.2324 12.7315 11.216 12.7433 11.2019 12.7573C9.67831 14.1988 7.99768 13.5542 7.45622 13.2823C7.43747 13.273 7.41872 13.2636 7.40231 13.2542" fill="white"/>
<path d="M11.1246 16.5144C11.134 16.5027 11.141 16.4933 11.1527 16.4863C11.1692 16.4746 11.1879 16.4676 11.2113 16.4676C11.2371 16.4676 11.2653 16.4793 11.2817 16.4957C11.2817 16.4957 11.284 16.498 11.2864 16.5004C13.274 18.3942 15.3602 16.859 15.7938 16.5004L15.836 16.4605C15.8477 16.4558 15.8618 16.4535 15.8759 16.4535C15.8899 16.4535 15.9063 16.4535 15.9181 16.4605L15.9602 16.5004C16.3939 16.859 18.48 18.3942 20.4677 16.5004C20.4677 16.5004 20.4677 16.498 20.4724 16.4957C20.4912 16.4769 20.5146 16.4676 20.5427 16.4676C20.5638 16.4676 20.5849 16.4769 20.6013 16.4863C20.613 16.4957 20.6224 16.5027 20.6318 16.5144C21.0162 16.8941 22.6828 18.3262 24.4454 16.7957C24.4642 16.7769 24.4759 16.7512 24.4759 16.723V15.9941C24.4759 15.9355 24.429 15.8886 24.3728 15.8886C24.3658 15.8886 24.3587 15.891 24.3493 15.8933C24.3329 15.9027 24.3165 15.9097 24.2978 15.9191C23.7563 16.191 22.0757 16.8332 20.5521 15.3941C20.538 15.38 20.5216 15.366 20.5076 15.3519C20.4935 15.3449 20.4794 15.3425 20.463 15.3425C20.4537 15.3425 20.4419 15.3449 20.4326 15.3496C20.4091 15.3566 20.3927 15.3707 20.3786 15.3894C19.9239 15.7363 17.8378 17.1473 15.9813 15.4152L15.9532 15.3871C15.9345 15.3683 15.9063 15.3589 15.8782 15.3589C15.8501 15.3589 15.8243 15.3707 15.8055 15.3871L15.7774 15.4152C13.921 17.1473 11.8325 15.7363 11.3801 15.3894C11.3684 15.3707 11.3496 15.3566 11.3285 15.3496C11.3168 15.3449 11.3074 15.3425 11.2957 15.3425C11.2817 15.3425 11.2653 15.3449 11.2535 15.3519C11.2395 15.366 11.2231 15.38 11.209 15.3941C9.68542 16.8355 8.00713 16.191 7.46332 15.9191C7.44457 15.9097 7.42582 15.9004 7.40941 15.8933C7.40238 15.8933 7.39535 15.8886 7.38832 15.8886C7.32972 15.8886 7.28284 15.9355 7.28284 15.9941V16.723C7.28284 16.7535 7.29456 16.7769 7.31331 16.7957C9.07364 18.3262 10.7426 16.8918 11.127 16.5144" fill="white"/>
<path d="M11.6192 2.67894L11.1223 5.29463H10.6441L10.1472 2.67894H10.5949L10.8949 4.50242H10.8996L11.209 2.67894H11.6216H11.6192Z" fill="white"/>
<path d="M11.8044 2.67893H12.2451V5.29462H11.8044V2.67893Z" fill="white"/>
<path d="M13.8179 3.3821V4.59384C13.8179 4.99464 13.6515 5.29699 13.1804 5.29699H12.5006V2.6813H13.1804C13.6515 2.6813 13.8179 2.97896 13.8179 3.3821ZM13.1265 4.93604C13.3069 4.93604 13.3773 4.82822 13.3773 4.66885V3.30006C13.3773 3.14537 13.3069 3.03756 13.1265 3.03756H12.9413V4.93604H13.1265Z" fill="white"/>
<path d="M14.003 5.29462L14.4975 2.67893H14.9991L15.4961 5.29462H15.0437L14.9616 4.81648H14.4952L14.4178 5.29462H14.0006H14.003ZM14.5538 4.46491H14.9054L14.7319 3.41489H14.7272L14.5538 4.46491Z" fill="white"/>
<path d="M16.4596 3.65161V5.29462H16.0892V2.67893H16.5205L16.994 4.17897V2.67893H17.3597V5.29462H16.9729L16.4572 3.65161H16.4596Z" fill="white"/>
<path d="M17.5471 5.29462L18.0417 2.67893H18.5433L19.0403 5.29462H18.5879L18.5058 4.81648H18.0394L17.962 5.29462H17.5448H17.5471ZM18.098 4.46491H18.4496L18.2761 3.41489H18.2714L18.098 4.46491Z" fill="white"/>
<path d="M10.1378 9.13147L10.6324 6.51578H11.134L11.631 9.13147H11.1786L11.0965 8.65333H10.6301L10.5527 9.13147H10.1355H10.1378ZM11.2419 6.33062L10.5504 6.41968V6.17358L11.2419 6.02592V6.33062ZM10.691 8.30176H11.0426L10.8692 7.25174H10.8645L10.691 8.30176Z" fill="white"/>
<path d="M12.3013 7.73699H12.9271V9.1339H12.6107V8.84795C12.5521 9.04483 12.4302 9.16437 12.1911 9.16437C11.8137 9.16437 11.6403 8.86436 11.6403 8.45888V7.19323C11.6403 6.7854 11.8372 6.48774 12.2989 6.48774C12.7841 6.48774 12.9271 6.75728 12.9271 7.14401V7.37604H12.5263V7.10885C12.5263 6.94713 12.4653 6.85337 12.3059 6.85337C12.1466 6.85337 12.0786 6.96588 12.0786 7.12291V8.52685C12.0786 8.68389 12.1442 8.79639 12.2942 8.79639C12.4442 8.79639 12.5099 8.71436 12.5099 8.5456V8.08153H12.3013V7.73465V7.73699Z" fill="white"/>
<path d="M14.2795 6.51814V8.49632C14.2795 8.90179 14.1061 9.1643 13.6584 9.1643C13.2107 9.1643 13.0021 8.90179 13.0021 8.49632V6.51814H13.4427V8.5385C13.4427 8.6932 13.5037 8.79632 13.6584 8.79632C13.8131 8.79632 13.874 8.6932 13.874 8.5385V6.51814H14.2795Z" fill="white"/>
<path d="M14.2891 9.13154L14.7837 6.51585H15.2853L15.7822 9.13154H15.3298L15.2478 8.65341H14.7813L14.704 9.13154H14.2867H14.2891ZM14.8399 8.30183H15.1915L15.0181 7.25181H15.0134L14.8399 8.30183Z" fill="white"/>
</g>
<defs>
<clipPath id="clip0_4014_93533">
<rect width="32" height="32" rx="4" fill="white"/>
</clipPath>
</defs>
</svg>
