<svg width="35" height="32" viewBox="0 0 35 32" fill="none" xmlns="http://www.w3.org/2000/svg">
<g clip-path="url(#clip0_4014_93534)">
<path d="M35 0H0V32H35V0Z" fill="#5CAE4A"/>
<path d="M2.56372 3.84853V4.98059H2.57398L3.40462 4.19073H3.41744V9.13147H4.60188V2.67897H3.65587L2.56372 3.84853Z" fill="white"/>
<path d="M7.42452 4.72512C6.95536 4.72512 6.61439 4.87747 6.42467 5.17279H6.41441V3.56494H8.45514V2.68132H5.33252V6.31657H6.41441V6.17359C6.41441 5.7939 6.60157 5.58295 6.93485 5.58295C7.2989 5.58295 7.44503 5.8103 7.44503 6.16422V7.72519C7.44503 8.06739 7.30916 8.30646 6.94511 8.30646C6.54004 8.30646 6.3939 8.06036 6.3939 7.67832V6.8697H5.30945V7.60332C5.30945 8.58303 5.73503 9.21117 6.94254 9.21117C8.15006 9.21117 8.62947 8.6299 8.62947 7.73691V6.15719C8.62947 5.13997 8.05776 4.72981 7.42196 4.72981" fill="white"/>
<path d="M13.462 21.6357H14.4927C14.5362 21.6357 14.5696 21.6685 14.5696 21.706V24.0357C14.5696 24.0756 14.5337 24.1061 14.4927 24.1061H13.462C13.4185 24.1061 13.3851 24.0732 13.3851 24.0357V21.706C13.3851 21.6662 13.4185 21.6357 13.462 21.6357Z" fill="white"/>
<path d="M25.8193 25.1069H8.82435C8.78333 25.1069 8.74744 25.1397 8.74744 25.1795V26.1288C8.74744 26.1686 8.78333 26.1991 8.82435 26.1991H25.8219C25.8629 26.1991 25.8988 26.1686 25.8988 26.1288V25.1795C25.8988 25.1397 25.8629 25.1069 25.8219 25.1069" fill="white"/>
<path d="M25.8193 26.996H8.82435C8.78333 26.996 8.74744 27.0264 8.74744 27.0663V28.0179C8.74744 28.0554 8.78333 28.0882 8.82435 28.0882H25.8219C25.8629 28.0882 25.8988 28.0554 25.8988 28.0179V27.0663C25.8988 27.0288 25.8629 26.996 25.8219 26.996" fill="white"/>
<path d="M22.5863 19.0575C22.3736 18.9051 21.807 18.5512 21.1173 18.5512C20.6225 18.5512 20.1636 18.7294 19.7534 19.0809C19.7252 19.1067 19.7073 19.1419 19.7073 19.1794V19.2637C19.7073 19.3059 19.7227 19.3434 19.756 19.3692C19.7919 19.395 19.8303 19.4044 19.8765 19.395C19.8867 19.395 19.8996 19.3903 19.9072 19.388C19.938 19.3786 19.9688 19.3598 19.9918 19.3387C20.0816 19.2848 20.3251 19.2098 20.6738 19.2098C21.0225 19.2098 21.7403 19.2989 22.4248 19.8802L22.4402 19.8942C22.4787 19.9294 22.5325 19.9505 22.5889 19.9505C22.6453 19.9505 22.6991 19.9294 22.7325 19.8942L22.7453 19.8802C23.4324 19.2966 24.14 19.2075 24.4989 19.2075C24.8578 19.2075 25.0911 19.2825 25.1808 19.3364C25.2065 19.3575 25.2347 19.3762 25.2757 19.388C25.2911 19.3927 25.3347 19.3997 25.3757 19.3903C25.4398 19.3739 25.4834 19.3223 25.4834 19.2614V19.1864C25.4834 19.1512 25.4654 19.1161 25.4372 19.0903C25.0219 18.7294 24.5578 18.5465 24.0554 18.5465C23.3708 18.5465 22.8068 18.8958 22.5889 19.0528" fill="white"/>
<path d="M21.5302 12.8628C21.4943 12.8769 21.4687 12.9073 21.4558 12.9448L21.4379 12.9964C21.4251 13.0363 21.4328 13.0808 21.461 13.1136C21.4866 13.1464 21.5251 13.1652 21.5661 13.1652C21.5738 13.1652 21.5815 13.1675 21.5866 13.1652C21.6148 13.1652 21.643 13.1581 21.6686 13.1464C21.684 13.1441 21.7148 13.137 21.7712 13.137C21.8481 13.137 22.5326 13.1581 22.9864 13.8613L22.9915 13.8706C23.0171 13.9105 23.0556 13.9386 23.0992 13.9503C23.112 13.955 23.1376 13.9574 23.153 13.9574C23.1838 13.9574 23.2171 13.9503 23.2376 13.9386L23.2479 13.9339C23.4966 13.8214 23.7529 13.7628 24.0067 13.7628C24.4349 13.7628 24.7169 13.9222 24.781 13.9902C24.7938 14.0136 24.8143 14.0324 24.8374 14.0488C24.8528 14.0558 24.8784 14.0675 24.8938 14.0722C24.9015 14.0722 24.9117 14.0746 24.9194 14.0746C24.9246 14.0746 24.9297 14.0746 24.9348 14.0746C24.9579 14.0746 24.981 14.0699 25.0015 14.0582C25.0374 14.0417 25.063 14.0136 25.0733 13.9785L25.0886 13.9316C25.0886 13.9316 25.0938 13.9081 25.0938 13.8941C25.0938 13.8706 25.0861 13.8472 25.0733 13.8285C24.7425 13.3034 24.2631 13.1956 23.9196 13.1956C23.6632 13.1956 23.4402 13.2566 23.3069 13.3011C23.1505 13.1089 22.7582 12.7151 22.1609 12.7151C21.9506 12.7151 21.7378 12.7644 21.5225 12.8628" fill="white"/>
<path d="M17.9409 15.2535L17.946 15.3238C17.946 15.3683 17.9742 15.4058 18.0153 15.4293C18.0486 15.448 18.0922 15.4551 18.1306 15.4457C18.1383 15.4457 18.1486 15.441 18.1563 15.4387C18.1845 15.4269 18.2101 15.4105 18.2306 15.3894C18.3024 15.3426 18.5357 15.2558 18.8792 15.2558C19.2228 15.2558 19.7125 15.3355 20.2226 15.7199L20.2355 15.7316C20.2713 15.7598 20.3201 15.7762 20.3662 15.7762H20.379C20.4329 15.7715 20.4816 15.7504 20.5123 15.7176L20.5226 15.7058C21.0892 15.1574 21.6993 15.0754 22.0121 15.0754C22.2352 15.0754 22.3941 15.1176 22.4556 15.1504C22.4787 15.1691 22.5069 15.1832 22.5428 15.1926C22.5531 15.1926 22.5787 15.1996 22.6043 15.1972C22.6146 15.1972 22.63 15.1926 22.6402 15.1902C22.7018 15.1715 22.7402 15.1175 22.7377 15.0566V14.9957C22.7325 14.9582 22.712 14.9277 22.6838 14.9043C22.3454 14.6441 21.9813 14.5128 21.5968 14.5128C20.9994 14.5128 20.5226 14.8363 20.3252 14.9933C20.1457 14.8808 19.7073 14.6488 19.192 14.6488C18.7408 14.6488 18.3357 14.8199 17.9871 15.1574C17.9589 15.1832 17.946 15.2207 17.9486 15.2558" fill="white"/>
<path d="M9.3396 16.5004C9.3396 15.5699 10.1651 14.8152 11.1829 14.8152C11.2239 14.8152 11.2624 14.8176 11.3009 14.8199C11.3983 13.6433 12.4699 12.7128 13.7851 12.7128C15.1003 12.7128 16.2796 13.7324 16.2796 14.9933C16.2796 15.3496 16.1873 15.6848 16.0284 15.9871C17.2769 16.2402 18.2101 17.2551 18.2101 18.4715C18.2101 19.8778 16.9616 21.0193 15.4233 21.0193C15.3105 21.0193 11.7059 21.0005 11.7059 21.0005C10.6163 21.0005 9.73185 20.1942 9.73185 19.1981C9.73185 18.72 9.93695 18.2864 10.2702 17.9629C9.71647 17.6723 9.34216 17.1285 9.34216 16.5028" fill="white"/>
<path d="M12.7289 2.67897L12.1854 5.29466H11.6624L11.1189 2.67897H11.6086L11.9367 4.50245H11.9419L12.2803 2.67897H12.7315H12.7289Z" fill="white"/>
<path d="M12.9698 2.67897H13.4518V5.29466H12.9698V2.67897Z" fill="white"/>
<path d="M15.2106 3.38212V4.59387C15.2106 4.99466 15.0286 5.29701 14.5133 5.29701H13.7698V2.68132H14.5133C15.0286 2.68132 15.2106 2.97898 15.2106 3.38446V3.38212ZM14.4543 4.93606C14.6517 4.93606 14.7286 4.82825 14.7286 4.66887V3.30009C14.7286 3.14539 14.6517 3.03758 14.4543 3.03758H14.2518V4.93606H14.4543Z" fill="white"/>
<path d="M15.4517 5.29466L15.9926 2.67897H16.5412L17.0848 5.29466H16.59L16.5002 4.81652H15.99L15.9054 5.29466H15.4491H15.4517ZM16.0541 4.46495H16.4387L16.249 3.41493H16.2439L16.0541 4.46495Z" fill="white"/>
<path d="M11.1317 6.52048H12.411V6.87908H12.0136V9.13617H11.5291V6.87908H11.1317V6.52048Z" fill="white"/>
<path d="M12.6238 6.52047H13.7723V6.87907H13.1058V7.62675H13.5826V7.98066H13.1058V8.77521H13.7723V9.13382H12.6238V6.51813V6.52047Z" fill="white"/>
<path d="M14.5031 7.93614V9.13617H14.0211V6.52048H14.721C15.2056 6.52048 15.3825 6.7408 15.3825 7.10643V7.44159C15.3825 7.72285 15.2722 7.88926 14.9979 7.94786L15.4568 9.13617H14.9518L14.5005 7.93614H14.5031ZM14.5031 6.87908V7.69238H14.6621C14.8261 7.69238 14.8979 7.61504 14.8979 7.47675V7.09002C14.8979 6.94705 14.8261 6.87674 14.6621 6.87674H14.5031V6.87908Z" fill="white"/>
<path d="M16.113 7.93614V9.13617H15.631V6.52048H16.3309C16.8154 6.52048 16.9923 6.7408 16.9923 7.10643V7.44159C16.9923 7.72285 16.8821 7.88926 16.6078 7.94786L17.0667 9.13617H16.5616L16.1104 7.93614H16.113ZM16.113 6.87908V7.69238H16.2719C16.436 7.69238 16.5078 7.61504 16.5078 7.47675V7.09002C16.5078 6.94705 16.436 6.87674 16.2719 6.87674H16.113V6.87908Z" fill="white"/>
<path d="M17.2488 6.52047H18.3973V6.87907H17.7308V7.62675H18.2076V7.98066H17.7308V8.77521H18.3973V9.13382H17.2488V6.51813V6.52047Z" fill="white"/>
<path d="M18.6204 8.57365V8.22208H19.0665V8.58068C19.0665 8.72834 19.1382 8.81272 19.3023 8.81272C19.4536 8.81272 19.5228 8.72131 19.5228 8.58068V8.4799C19.5228 8.32989 19.4561 8.23614 19.3074 8.10958L19.0254 7.85176C18.7511 7.60566 18.6255 7.45331 18.6255 7.1533V7.06424C18.6255 6.74079 18.8332 6.49001 19.2997 6.49001C19.7663 6.49001 19.9714 6.70564 19.9714 7.08533V7.29627H19.5331V7.06893C19.5331 6.91892 19.4561 6.84626 19.3049 6.84626C19.169 6.84626 19.0767 6.91658 19.0767 7.06189V7.1158C19.0767 7.26346 19.1664 7.34784 19.3049 7.46972L19.6125 7.74629C19.874 7.99004 19.9996 8.13536 19.9996 8.42599V8.55256C19.9996 8.91116 19.7894 9.16663 19.2997 9.16663C18.8101 9.16663 18.6204 8.91585 18.6204 8.57365Z" fill="white"/>
<path d="M20.1868 6.52048H21.4661V6.87908H21.0687V9.13617H20.5841V6.87908H20.1868V6.52048Z" fill="white"/>
<path d="M22.1608 7.93614V9.13617H21.6788V6.52048H22.3787C22.8633 6.52048 23.0402 6.7408 23.0402 7.10643V7.44159C23.0402 7.72285 22.9299 7.88926 22.6556 7.94786L23.1145 9.13617H22.6095L22.1583 7.93614H22.1608ZM22.1608 6.87908V7.69238H22.3198C22.4838 7.69238 22.5556 7.61504 22.5556 7.47675V7.09002C22.5556 6.94705 22.4838 6.87674 22.3198 6.87674H22.1608V6.87908Z" fill="white"/>
<path d="M23.2915 6.52047H24.4401V6.87907H23.7735V7.62675H24.2503V7.98066H23.7735V8.77521H24.4401V9.13382H23.2915V6.51813V6.52047Z" fill="white"/>
</g>
<defs>
<clipPath id="clip0_4014_93534">
<rect width="35" height="32" rx="4" fill="white"/>
</clipPath>
</defs>
</svg>
