<svg width="36" height="32" viewBox="0 0 36 32" fill="none" xmlns="http://www.w3.org/2000/svg">
<g clip-path="url(#clip0_4014_93535)">
<path d="M36 0H0V32H36V0Z" fill="#0F6595"/>
<path d="M2.7688 3.85556V4.98762H2.77935L3.63636 4.19775H3.64691V9.13616H4.86783V2.68365H3.89479L2.7688 3.85556Z" fill="white"/>
<path d="M9.13973 7.58456V6.63297C9.13973 5.57592 8.66771 5.04387 7.7896 5.04387C7.27539 5.04387 6.96422 5.25247 6.78227 5.56654H6.77172V4.17666C6.77172 3.78525 6.91148 3.51102 7.34922 3.51102C7.78696 3.51102 7.91617 3.73837 7.91617 4.13916V4.56808H9.02898V4.22589C9.02898 3.2743 8.67562 2.60866 7.32549 2.60866C5.97536 2.60866 5.55872 3.34227 5.55872 4.35011V7.49081C5.55872 8.48927 6.05183 9.21351 7.33604 9.21351C8.62025 9.21351 9.13446 8.58537 9.13446 7.5869M7.92408 7.683C7.92408 8.09317 7.75268 8.32989 7.33604 8.32989C6.9194 8.32989 6.76909 8.08379 6.76909 7.683V6.50407C6.79018 6.14312 6.96159 5.91343 7.34659 5.91343C7.76323 5.91343 7.92408 6.14078 7.92408 6.56032V7.683Z" fill="white"/>
<path d="M25.1962 10.9104C25.1962 10.9104 24.7822 11.4003 24.9009 11.8784C25.0222 12.3566 25.634 12.6402 25.634 12.6402C25.634 12.6402 26.048 12.1503 25.9293 11.6745C25.808 11.1964 25.1962 10.9128 25.1962 10.9128" fill="white"/>
<path d="M24.5213 13.7089C24.5213 13.7089 24.9353 13.2191 24.814 12.7409C24.6927 12.2628 24.0809 11.9792 24.0809 11.9792C24.0809 11.9792 23.6643 12.4691 23.7856 12.9449C23.9069 13.423 24.5187 13.7066 24.5187 13.7066" fill="white"/>
<path d="M26.2274 13.1839C26.2274 13.1839 26.6652 13.5777 27.1635 13.5378C27.6619 13.498 28.0337 13.041 28.0337 13.041C28.0337 13.041 27.596 12.6472 27.0976 12.687C26.5992 12.7269 26.2301 13.1839 26.2301 13.1839" fill="white"/>
<path d="M26.9446 11.0839C26.5385 11.4495 26.5965 12.0987 26.5965 12.0987C26.5965 12.0987 27.3111 12.155 27.7198 11.787C28.1259 11.4214 28.0679 10.7721 28.0679 10.7721C28.0679 10.7721 27.3507 10.7182 26.9446 11.0815" fill="white"/>
<path d="M26.0481 14.6394C26.5465 14.691 27.0132 14.3113 27.0132 14.3113C27.0132 14.3113 26.6757 13.8472 26.1773 13.7956C25.6789 13.7441 25.2122 14.1238 25.2122 14.1238C25.2122 14.1238 25.5497 14.5879 26.0481 14.6394Z" fill="white"/>
<path d="M26.4938 22.3177H22.7782C22.4882 22.3177 22.2509 22.5263 22.2509 22.7842C22.2509 23.042 22.4855 23.2529 22.7782 23.2529H26.4938C26.7838 23.2529 27.0185 23.0443 27.0185 22.7842C27.0185 22.524 26.7838 22.3177 26.4938 22.3177Z" fill="white"/>
<path d="M26.4938 27.4694H22.7782C22.4882 27.4694 22.2509 27.678 22.2509 27.9358C22.2509 28.1937 22.4855 28.4023 22.7782 28.4023H26.4938C26.7838 28.4023 27.0185 28.1913 27.0185 27.9358C27.0185 27.6804 26.7838 27.4694 26.4938 27.4694Z" fill="white"/>
<path d="M9.77783 21.1833C9.69081 21.1599 9.60379 21.1388 9.51941 21.1247C9.51941 21.1247 9.61434 21.1505 9.77783 21.1833Z" fill="white"/>
<path d="M26.3565 23.5787H22.9126C22.7465 23.5787 22.6146 23.6982 22.6146 23.8436V24.7717L20.3653 24.992L17.0796 24.924V23.1404C17.5147 23.0912 17.9525 23.0138 18.3876 22.906C21.5493 22.1138 22.2402 19.7888 22.169 18.1833C22.1004 16.5449 22.6885 15.9098 23.5376 15.6262C23.7802 15.5441 24.0202 15.4949 24.239 15.4598C24.2496 15.8629 24.3392 16.3293 24.5423 16.8871C24.6161 16.8848 24.6926 16.8778 24.7664 16.8707C24.5528 16.3012 24.4605 15.8324 24.4579 15.4316C24.8956 15.3848 25.2068 15.4105 25.2068 15.4105C25.2068 15.4105 24.9115 15.2699 24.4922 14.9582C24.6346 14.1824 25.1541 13.7066 25.6894 13.2214C25.9847 12.9542 26.288 12.6753 26.5279 12.3472L26.3407 12.2394C26.1139 12.5534 25.8159 12.823 25.5311 13.0831C25.009 13.5589 24.4816 14.0441 24.3049 14.8129C24.1362 14.6769 23.9516 14.5152 23.7644 14.3277C22.9838 13.5519 21.9818 14.1214 20.5499 15.3051C19.118 16.4887 17.317 16.5285 15.5581 14.9301C13.2376 12.8183 11.215 12.83 9.82531 12.9495C10.7746 13.3081 11.1069 14.098 11.5868 16.102C12.0905 18.2044 13.3615 19.1559 15.0966 19.2872C14.1315 19.5919 14.0814 20.0747 12.7866 20.8693C11.7767 21.4904 10.3527 21.2935 9.77521 21.1763C10.8326 21.4693 12.0878 22.456 13.2112 22.8006C13.8652 22.9998 14.5534 23.124 15.2575 23.1732V24.8795L9.37439 24.76V25.9506L20.3627 25.728L22.612 25.9483V26.8741C22.612 27.0194 22.7465 27.1413 22.91 27.1413H26.3539C26.52 27.1413 26.6545 27.0218 26.6545 26.8741V23.8365C26.6545 23.6912 26.52 23.5717 26.3539 23.5717M15.7981 23.199C16.0433 23.2037 16.2885 23.1967 16.5338 23.1803V24.9053L15.7981 24.8912V23.199Z" fill="white"/>
<path d="M9.05265 25.7608C9.05265 26.0116 8.85488 26.2155 8.61228 26.2155H8.34858C8.10598 26.2155 7.9082 26.0116 7.9082 25.7608V24.9381C7.9082 24.6873 8.10598 24.4834 8.34858 24.4834H8.61228C8.85488 24.4834 9.05265 24.6873 9.05265 24.9381V25.7608Z" fill="white"/>
<path d="M11.4946 2.08365H12.2277C12.726 2.08365 12.908 2.30397 12.908 2.6696V3.2204C12.908 3.58603 12.726 3.81103 12.2277 3.81103H11.9877V4.69934H11.4919V2.08365H11.4946ZM11.9903 2.44225V3.47118H12.1723C12.341 3.47118 12.4149 3.39852 12.4149 3.25555V2.65319C12.4149 2.51022 12.341 2.43991 12.1723 2.43991H11.9903V2.44225Z" fill="white"/>
<path d="M13.0399 4.69699L13.5963 2.0813H14.1606L14.7196 4.69699H14.2107L14.1184 4.21885H13.5936L13.5066 4.69699H13.0372H13.0399ZM13.6596 3.86728H14.0551L13.86 2.81725H13.8547L13.6596 3.86728Z" fill="white"/>
<path d="M15.3604 4.33839H16.1119V4.69699H14.8435V4.33839L15.6214 2.4399H14.9226V2.0813H16.1409V2.4399L15.3604 4.33839Z" fill="white"/>
<path d="M16.8635 4.31261L16.6104 4.90325H16.3335L16.3941 4.27745H16.8635V4.31261Z" fill="white"/>
<path d="M18.8254 2.08364V4.104C18.8254 4.48136 18.6382 4.7298 18.1451 4.7298C17.652 4.7298 17.4938 4.47901 17.4938 4.14619V3.62587H17.9632V4.15322C17.9632 4.28448 18.0159 4.36182 18.1451 4.36182C18.2743 4.36182 18.3323 4.28448 18.3323 4.14854V2.0813H18.8281L18.8254 2.08364Z" fill="white"/>
<path d="M20.4945 2.08365V4.06182C20.4945 4.4673 20.2994 4.72981 19.7957 4.72981C19.2921 4.72981 19.0574 4.4673 19.0574 4.06182V2.08365H19.5531V4.10401C19.5531 4.2587 19.6217 4.36183 19.7957 4.36183C19.9698 4.36183 20.0383 4.2587 20.0383 4.10401V2.08365H20.4945Z" fill="white"/>
<path d="M20.7029 4.13447V3.7829H21.1617V4.1415C21.1617 4.28916 21.2355 4.37354 21.4043 4.37354C21.5599 4.37354 21.6311 4.27979 21.6311 4.1415V4.04072C21.6311 3.89072 21.5625 3.79696 21.4096 3.6704L21.1195 3.41258C20.8374 3.16648 20.7082 3.01648 20.7082 2.71412V2.62506C20.7082 2.30161 20.9218 2.05083 21.4017 2.05083C21.8816 2.05083 22.0926 2.26646 22.0926 2.64381V2.8571H21.6416V2.62975C21.6416 2.47974 21.5625 2.40709 21.407 2.40709C21.2672 2.40709 21.1723 2.4774 21.1723 2.62272V2.67662C21.1723 2.82194 21.2646 2.90866 21.407 3.03054L21.7234 3.30711C21.9924 3.55086 22.1216 3.69618 22.1216 3.98681V4.11338C22.1216 4.47198 21.9053 4.72745 21.4017 4.72745C20.898 4.72745 20.7029 4.47667 20.7029 4.13447Z" fill="white"/>
<path d="M22.2852 2.08365H23.601V2.44225H23.1923V4.69934H22.6939V2.44225H22.2852V2.08365Z" fill="white"/>
<path d="M23.7855 2.08365H24.2813V4.69934H23.7855V2.08365Z" fill="white"/>
<path d="M25.0434 4.96417C25.1831 4.95948 25.2042 4.9337 25.2042 4.90323C25.2042 4.87511 25.1778 4.86104 25.1357 4.86104H25.1146V4.71807C24.6926 4.67119 24.5212 4.38994 24.5212 4.0243V2.75865C24.5212 2.34848 24.7375 2.05316 25.2596 2.05316C25.8055 2.05316 25.9584 2.3227 25.9584 2.70943V3.01881H25.5075V2.67661C25.5075 2.51489 25.4468 2.42114 25.2701 2.42114C25.0935 2.42114 25.017 2.53364 25.017 2.69068V4.09462C25.017 4.25165 25.0908 4.36416 25.2701 4.36416C25.4495 4.36416 25.5075 4.26337 25.5075 4.10868V3.62586H25.9584V4.07821C25.9584 4.44385 25.7949 4.71573 25.3018 4.72979V4.76495C25.4178 4.78135 25.4837 4.81885 25.4837 4.90323C25.4837 5.02277 25.3572 5.08839 25.046 5.08839V4.96417H25.0434Z" fill="white"/>
<path d="M26.1034 4.69699L26.6598 2.0813H27.2241L27.7831 4.69699H27.2742L27.1846 4.21885H26.6598L26.5728 4.69699H26.1034ZM26.7231 3.86728H27.1186L26.9235 2.81725H26.9182L26.7231 3.86728Z" fill="white"/>
<path d="M28.3553 2.08364H29.5367V2.44225H28.8511V3.18992H29.3416V3.54383H28.8511V4.33839H29.5367V4.69699H28.3553V2.0813V2.08364Z" fill="white"/>
<path d="M11.5131 5.51967H12.0088V8.13536H11.5131V5.51967Z" fill="white"/>
<path d="M12.7498 6.49235V8.13536H12.3331V5.51967H12.8183L13.351 7.01971V5.51967H13.7624V8.13536H13.3273L12.7471 6.49235H12.7498Z" fill="white"/>
<path d="M14.0603 7.57284V7.22127H14.5218V7.57987C14.5218 7.72519 14.5956 7.81191 14.7644 7.81191C14.92 7.81191 14.9912 7.7205 14.9912 7.57987V7.47909C14.9912 7.32909 14.9226 7.23533 14.7696 7.10877L14.4796 6.85095C14.1974 6.60485 14.0682 6.4525 14.0682 6.15249V6.06343C14.0682 5.73998 14.2818 5.4892 14.7617 5.4892C15.2417 5.4892 15.4526 5.70483 15.4526 6.08452V6.29547H15.0017V6.06812C15.0017 5.91811 14.9226 5.84546 14.767 5.84546C14.6273 5.84546 14.5323 5.91577 14.5323 6.06109V6.11499C14.5323 6.26265 14.622 6.34703 14.767 6.46891L15.0835 6.74548C15.3524 6.98923 15.4816 7.13455 15.4816 7.42518V7.55175C15.4816 7.91035 15.2654 8.16582 14.7617 8.16582C14.2581 8.16582 14.0629 7.91504 14.0629 7.5705L14.0603 7.57284Z" fill="white"/>
<path d="M15.7217 5.51967H17.0375V5.87827H16.6288V8.13536H16.1304V5.87827H15.7217V5.51967Z" fill="white"/>
<path d="M17.3065 5.51967H17.8023V8.13536H17.3065V5.51967Z" fill="white"/>
<path d="M18.0686 5.51967H19.3845V5.87827H18.9757V8.13536H18.4773V5.87827H18.0686V5.51967Z" fill="white"/>
<path d="M21.0905 5.51967V7.49784C21.0905 7.90332 20.8953 8.16583 20.3917 8.16583C19.888 8.16583 19.6533 7.90332 19.6533 7.49784V5.51967H20.1491V7.54003C20.1491 7.69472 20.2176 7.79785 20.3917 7.79785C20.5657 7.79785 20.6343 7.69472 20.6343 7.54003V5.51967H21.0905Z" fill="white"/>
<path d="M21.407 5.51967H21.9027V8.13536H21.407V5.51967Z" fill="white"/>
<path d="M22.7492 8.40021C22.8889 8.39552 22.91 8.36974 22.91 8.33927C22.91 8.31114 22.8837 8.29708 22.8415 8.29708H22.8204V8.15411C22.3985 8.10723 22.2271 7.82597 22.2271 7.46034V6.19468C22.2271 5.78686 22.4433 5.4892 22.9654 5.4892C23.5113 5.4892 23.6642 5.75873 23.6642 6.14546V6.45485H23.2133V6.11265C23.2133 5.95093 23.1526 5.85717 22.9733 5.85717C22.794 5.85717 22.7228 5.96968 22.7228 6.12671V7.53065C22.7228 7.68769 22.7966 7.80019 22.9733 7.80019C23.15 7.80019 23.2133 7.69941 23.2133 7.54472V7.06189H23.6642V7.51425C23.6642 7.87988 23.5007 8.14942 23.0102 8.16582V8.20098C23.1263 8.21739 23.1922 8.25489 23.1922 8.33927C23.1922 8.4588 23.0656 8.52443 22.7544 8.52443V8.40021H22.7492Z" fill="white"/>
<path d="M23.9674 7.46034V6.19469C23.9674 5.78686 24.1916 5.4892 24.7137 5.4892C25.2358 5.4892 25.4652 5.78686 25.4652 6.19469V7.46034C25.4652 7.86582 25.2384 8.16583 24.7137 8.16583C24.1889 8.16583 23.9674 7.86582 23.9674 7.46034ZM24.2627 5.41654C24.2707 5.23607 24.3498 5.08841 24.566 5.08841C24.6926 5.08841 24.7954 5.15404 24.8613 5.15404C24.8956 5.15404 24.922 5.13529 24.922 5.09544H25.1646C25.1567 5.27591 25.0776 5.42357 24.8613 5.42357C24.7348 5.42357 24.6319 5.35795 24.566 5.35795C24.5317 5.35795 24.5054 5.3767 24.5054 5.41654H24.2627ZM24.9695 7.53066V6.12672C24.9695 5.96968 24.8904 5.85718 24.7137 5.85718C24.537 5.85718 24.4632 5.96968 24.4632 6.12672V7.53066C24.4632 7.68769 24.5423 7.80019 24.7137 7.80019C24.8851 7.80019 24.9695 7.68769 24.9695 7.53066Z" fill="white"/>
<path d="M25.787 5.51966H26.9684V5.87826H26.2827V6.62594H26.7732V6.97985H26.2827V7.7744H26.9684V8.13301H25.787V5.51732V5.51966Z" fill="white"/>
<path d="M27.2452 7.57284V7.22127H27.7067V7.57987C27.7067 7.72519 27.7805 7.81191 27.9493 7.81191C28.1049 7.81191 28.1761 7.7205 28.1761 7.57987V7.47909C28.1761 7.32909 28.1075 7.23533 27.9546 7.10877L27.6645 6.85095C27.3824 6.60485 27.2531 6.4525 27.2531 6.15249V6.06343C27.2531 5.73998 27.4667 5.4892 27.9467 5.4892C28.4266 5.4892 28.6376 5.70483 28.6376 6.08452V6.29547H28.1866V6.06812C28.1866 5.91811 28.1075 5.84546 27.9519 5.84546C27.8122 5.84546 27.7173 5.91577 27.7173 6.06109V6.11499C27.7173 6.26265 27.8069 6.34703 27.9519 6.46891L28.2684 6.74548C28.5374 6.98923 28.6666 7.13455 28.6666 7.42518V7.55175C28.6666 7.91035 28.4503 8.16582 27.9467 8.16582C27.443 8.16582 27.2479 7.91504 27.2479 7.5705L27.2452 7.57284Z" fill="white"/>
<path d="M11.5131 9.09866H12.6944V9.45726H12.0088V10.2049H12.4993V10.5588H12.0088V11.3534H12.6944V11.712H11.5131V9.09631V9.09866Z" fill="white"/>
<path d="M12.9924 9.09866H14.15V9.45726H13.4855V10.2049H13.9813V10.5588H13.4855V11.712H12.9897V9.09631L12.9924 9.09866Z" fill="white"/>
<path d="M14.4058 9.09866H14.9015V11.7144H14.4058V9.09866Z" fill="white"/>
<path d="M15.2258 11.0393V9.77368C15.2258 9.36351 15.4421 9.06819 15.9642 9.06819C16.51 9.06819 16.663 9.33773 16.663 9.72446V10.0338H16.2121V9.6893C16.2121 9.52758 16.1514 9.43383 15.9721 9.43383C15.7928 9.43383 15.7216 9.54633 15.7216 9.70336V11.1073C15.7216 11.2643 15.7954 11.3768 15.9721 11.3768C16.1488 11.3768 16.2121 11.2761 16.2121 11.1214V10.6385H16.663V11.0909C16.663 11.4659 16.4889 11.7425 15.9642 11.7425C15.4394 11.7425 15.2258 11.4425 15.2258 11.037V11.0393Z" fill="white"/>
<path d="M16.8924 11.7144L17.4488 9.09866H18.0131L18.5722 11.7144H18.0632L17.9709 11.2362H17.4462L17.3592 11.7144H16.8898H16.8924ZM17.5121 10.8846H17.9076L17.7125 9.83462H17.7072L17.5121 10.8846Z" fill="white"/>
<path d="M19.2974 11.3557H20.0489V11.7144H18.7805V11.3557L19.5584 9.45727H18.8596V9.09866H20.0779V9.45727L19.2974 11.3557Z" fill="white"/>
<path d="M20.3733 9.09866H21.5547V9.45726H20.869V10.2049H21.3595V10.5588H20.869V11.3534H21.5547V11.712H20.3733V9.09631V9.09866Z" fill="white"/>
<path d="M21.8315 11.1518V10.8003H22.2904V11.1589C22.2904 11.3065 22.3642 11.3909 22.533 11.3909C22.6886 11.3909 22.7598 11.2972 22.7598 11.1589V11.0581C22.7598 10.9081 22.6912 10.8143 22.5383 10.6878L22.2482 10.4299C21.966 10.1838 21.8368 10.0338 21.8368 9.73149V9.64242C21.8368 9.31898 22.0504 9.06819 22.5303 9.06819C23.0103 9.06819 23.2212 9.28382 23.2212 9.66352V9.87681H22.7703V9.64946C22.7703 9.49945 22.6912 9.42679 22.5356 9.42679C22.3959 9.42679 22.3009 9.49711 22.3009 9.64242V9.69633C22.3009 9.84399 22.3932 9.92837 22.5356 10.0502L22.8521 10.3268C23.121 10.5706 23.2502 10.7159 23.2502 11.0065V11.1331C23.2502 11.4917 23.034 11.7472 22.5303 11.7472C22.0267 11.7472 21.8315 11.4964 21.8315 11.1518Z" fill="white"/>
</g>
<defs>
<clipPath id="clip0_4014_93535">
<rect width="36" height="32" rx="4" fill="white"/>
</clipPath>
</defs>
</svg>
