<svg width="35" height="32" viewBox="0 0 35 32" fill="none" xmlns="http://www.w3.org/2000/svg">
<g clip-path="url(#clip0_4014_93536)">
<path d="M35 0H0V32H35V0Z" fill="#1D4768"/>
<path d="M5.23763 2.68132V9.13382H4.05062V4.19542H4.04037L3.20715 4.98528H3.1969V3.85322L4.29161 2.68132H5.23763Z" fill="white"/>
<path d="M5.77869 2.68132H8.75517V3.67978L7.20412 9.13382H6.02737L7.60919 3.56728H5.77869V2.68132Z" fill="white"/>
<path d="M26.3962 19.4067C26.3962 17.159 24.4401 15.3238 22.0046 15.2418C21.379 13.6245 19.687 12.462 17.7052 12.462C15.7234 12.462 14.0339 13.6245 13.4058 15.2418C10.9703 15.3238 9.01672 17.159 9.01672 19.4067C9.01672 20.7403 9.70637 21.9287 10.7754 22.6927C10.6601 23.0607 10.596 23.4474 10.596 23.8506C10.596 26.1475 12.6418 28.0179 15.1543 28.0179C16.108 28.0179 16.995 27.7483 17.7283 27.2889C18.4538 27.7319 19.3229 27.9921 20.2587 27.9921C22.7711 27.9921 24.817 26.1217 24.817 23.8248C24.817 23.431 24.7554 23.0513 24.6452 22.6904C25.7117 21.9263 26.3962 20.7403 26.3962 19.4091M21.3482 16.6317C21.3482 18.3004 19.9972 19.6809 18.2436 19.92C18.2154 19.7536 18.1974 19.5825 18.1974 19.4091C18.1974 17.7403 19.5485 16.3598 21.3021 16.1207C21.3303 16.2871 21.3508 16.4582 21.3508 16.6317M17.7257 26.2061C17.0438 25.6014 16.6182 24.7553 16.6182 23.8225C16.6182 22.8896 17.0284 22.0669 17.6898 21.4646C18.3718 22.0693 18.7973 22.9154 18.7973 23.8506C18.7973 24.7858 18.3871 25.6037 17.7257 26.2061ZM14.116 16.1184C15.8696 16.3574 17.2206 17.7379 17.2206 19.4067C17.2206 19.5802 17.2001 19.7513 17.1719 19.9177C15.4184 19.6786 14.0673 18.2981 14.0673 16.6293C14.0673 16.4559 14.0878 16.2848 14.116 16.1184ZM16.831 20.895C16.2311 21.9849 15.0005 22.7349 13.5802 22.7349C12.9777 22.7349 12.4085 22.5966 11.9086 22.3599C12.5085 21.27 13.7391 20.52 15.1594 20.52C15.7619 20.52 16.331 20.656 16.831 20.895ZM18.5769 20.8716C19.0819 20.6302 19.6536 20.4919 20.2612 20.4919C21.6918 20.4919 22.9301 21.2536 23.5249 22.3552C23.0198 22.5966 22.4481 22.7349 21.8405 22.7349C20.4099 22.7349 19.1716 21.9732 18.5769 20.8716ZM17.7103 13.3011C19.2024 13.3011 20.4868 14.1261 21.0483 15.3027C19.5665 15.5418 18.3307 16.4348 17.7103 17.6442C17.0899 16.4348 15.8542 15.5418 14.3723 15.3027C14.9338 14.1261 16.2182 13.3011 17.7103 13.3011ZM9.93967 19.4067C9.93967 17.6911 11.3651 16.2754 13.1905 16.0973C13.1674 16.2707 13.152 16.4488 13.152 16.6293C13.152 17.8481 13.7263 18.945 14.6415 19.7067C13.1289 19.8638 11.8394 20.7005 11.1472 21.8724C10.4088 21.263 9.93967 20.3841 9.93967 19.4044M11.5189 23.8459C11.5189 23.6092 11.5471 23.3795 11.5984 23.1568C12.1983 23.4217 12.87 23.5717 13.5802 23.5717C14.3775 23.5717 15.1286 23.3818 15.7824 23.0513C15.7311 23.2998 15.7029 23.5553 15.7029 23.8178C15.7029 24.9428 16.1952 25.967 16.9925 26.7171C16.4541 27.0053 15.8285 27.1741 15.162 27.1741C13.1546 27.1741 11.5215 25.6811 11.5215 23.8459M23.9043 23.8178C23.9043 25.653 22.2712 27.146 20.2638 27.146C19.61 27.146 18.9999 26.9866 18.4692 26.71C19.2434 25.9623 19.7203 24.9545 19.7203 23.8459C19.7203 23.574 19.6895 23.3068 19.6357 23.049C20.2894 23.3818 21.0432 23.5717 21.843 23.5717C22.5558 23.5717 23.23 23.4217 23.8299 23.1521C23.8786 23.3678 23.9043 23.5904 23.9043 23.8178ZM20.8099 19.6809C21.7072 18.9192 22.2712 17.8317 22.2712 16.627C22.2712 16.4465 22.2584 16.2684 22.2327 16.0949C24.0581 16.2731 25.4835 17.6887 25.4835 19.4044C25.4835 20.3794 25.0195 21.2536 24.2863 21.863C23.5992 20.6888 22.3173 19.8474 20.8073 19.6809" fill="white"/>
<path d="M10.2985 2.67429H11.0112C11.4957 2.67429 11.6726 2.8946 11.6726 3.26024V3.81103C11.6726 4.17667 11.4957 4.40167 11.0112 4.40167H10.7779V5.28998H10.2959V2.67429H10.2985ZM10.7804 3.03289V4.06182H10.9573C11.1214 4.06182 11.1932 3.98916 11.1932 3.84619V3.24383C11.1932 3.10086 11.1214 3.03054 10.9573 3.03054H10.7804V3.03289Z" fill="white"/>
<path d="M11.7418 5.28998L12.2828 2.67429H12.8314L13.3749 5.28998H12.8801L12.7904 4.81184H12.2802L12.1956 5.28998H11.7393H11.7418ZM12.3443 4.46027H12.7289L12.5391 3.41024H12.534L12.3443 4.46027Z" fill="white"/>
<path d="M13.9493 4.08995V5.28998H13.4673V2.67429H14.1672C14.6517 2.67429 14.8286 2.8946 14.8286 3.26024V3.5954C14.8286 3.87666 14.7184 4.04307 14.4441 4.10166L14.903 5.28998H14.3979L13.9467 4.08995H13.9493ZM13.9493 3.03289V3.84619H14.1082C14.2723 3.84619 14.3441 3.76884 14.3441 3.63056V3.24383C14.3441 3.10086 14.2723 3.03054 14.1082 3.03054H13.9493V3.03289Z" fill="white"/>
<path d="M14.9875 4.61496V3.3493C14.9875 2.94148 15.1978 2.64381 15.7054 2.64381C16.2361 2.64381 16.3848 2.91335 16.3848 3.30008V3.60946H15.9464V3.26727C15.9464 3.10554 15.8874 3.01179 15.7131 3.01179C15.5388 3.01179 15.4695 3.12429 15.4695 3.28133V4.68527C15.4695 4.84231 15.5413 4.95481 15.7131 4.95481C15.8849 4.95481 15.9464 4.85402 15.9464 4.69933V4.21651H16.3848V4.66886C16.3848 5.04387 16.2156 5.32044 15.7054 5.32044C15.1952 5.32044 14.9875 5.02043 14.9875 4.61496Z" fill="white"/>
<path d="M16.5386 2.67428H17.6871V3.03288H17.0206V3.78056H17.4974V4.13447H17.0206V4.92902H17.6871V5.28763H16.5386V2.67194V2.67428Z" fill="white"/>
<path d="M18.3204 4.08995V5.28998H17.8384V2.67429H18.5383C19.0228 2.67429 19.1997 2.8946 19.1997 3.26024V3.5954C19.1997 3.87666 19.0895 4.04307 18.8152 4.10166L19.2741 5.28998H18.769L18.3178 4.08995H18.3204ZM18.3204 3.03289V3.84619H18.4793C18.6434 3.84619 18.7152 3.76884 18.7152 3.63056V3.24383C18.7152 3.10086 18.6434 3.03054 18.4793 3.03054H18.3204V3.03289Z" fill="white"/>
<path d="M19.3535 2.67429H19.8355V5.28998H19.3535V2.67429Z" fill="white"/>
<path d="M19.9304 5.28998L20.4714 2.67429H21.02L21.5635 5.28998H21.0687L20.9815 4.81184H20.4714L20.3868 5.28998H19.9304ZM20.5329 4.46027H20.9175L20.7277 3.41024H20.7226L20.5329 4.46027Z" fill="white"/>
<path d="M21.6327 4.72512V4.37355H22.0788V4.73216C22.0788 4.87747 22.1506 4.96419 22.3146 4.96419C22.4659 4.96419 22.5351 4.87044 22.5351 4.73216V4.63137C22.5351 4.48137 22.4685 4.38762 22.3198 4.26105L22.0378 4.00323C21.7634 3.75713 21.6378 3.60478 21.6378 3.30478V3.21571C21.6378 2.89227 21.8455 2.64148 22.3121 2.64148C22.7787 2.64148 22.9838 2.85711 22.9838 3.23681V3.44775H22.5454V3.2204C22.5454 3.0704 22.4685 2.99774 22.3172 2.99774C22.1813 2.99774 22.089 3.06805 22.089 3.21337V3.26728C22.089 3.41494 22.1788 3.49931 22.3172 3.62119L22.6249 3.89776C22.8864 4.14152 23.012 4.28683 23.012 4.57746V4.70403C23.012 5.06263 22.8018 5.31811 22.3121 5.31811C21.8224 5.31811 21.6327 5.06732 21.6327 4.72278V4.72512Z" fill="white"/>
<path d="M23.4965 2.67428H24.645V3.03288H23.9784V3.78056H24.4553V4.13447H23.9784V4.92902H24.645V5.28763H23.4965V2.67194V2.67428Z" fill="white"/>
<path d="M26.4551 3.59306H26.4423L26.1167 5.28998H25.8936L25.5347 3.59306H25.527V5.28998H25.1296V2.67429H25.6911L26.0039 4.14854H26.009L26.2884 2.67429H26.896V5.28998H26.4577V3.59306H26.4551Z" fill="white"/>
<path d="M27.0626 2.67428H28.2112V3.03288H27.5446V3.78056H28.0215V4.13447H27.5446V4.92902H28.2112V5.28763H27.0626V2.67194V2.67428Z" fill="white"/>
<path d="M28.3624 2.67429H28.8444V5.28998H28.3624V2.67429Z" fill="white"/>
<path d="M29.0111 4.61496V3.3493C29.0111 2.94148 29.2316 2.64381 29.7366 2.64381C30.2417 2.64381 30.4673 2.94148 30.4673 3.3493V4.61496C30.4673 5.02043 30.2468 5.32044 29.7366 5.32044C29.2265 5.32044 29.0111 5.02043 29.0111 4.61496ZM29.9853 4.68527V3.28133C29.9853 3.12429 29.9084 3.01179 29.7366 3.01179C29.5649 3.01179 29.4905 3.12429 29.4905 3.28133V4.68527C29.4905 4.84231 29.5674 4.95481 29.7366 4.95481C29.9058 4.95481 29.9853 4.84231 29.9853 4.68527Z" fill="white"/>
<path d="M30.6108 4.72512V4.37355H31.0569V4.73216C31.0569 4.87747 31.1287 4.96419 31.2928 4.96419C31.444 4.96419 31.5133 4.87044 31.5133 4.73216V4.63137C31.5133 4.48137 31.4466 4.38762 31.2979 4.26105L31.0159 4.00323C30.7416 3.75713 30.616 3.60478 30.616 3.30478V3.21571C30.616 2.89227 30.8236 2.64148 31.2902 2.64148C31.7568 2.64148 31.9619 2.85711 31.9619 3.23681V3.44775H31.5235V3.2204C31.5235 3.0704 31.4466 2.99774 31.2954 2.99774C31.1595 2.99774 31.0672 3.06805 31.0672 3.21337V3.26728C31.0672 3.41494 31.1543 3.49931 31.2954 3.62119L31.603 3.89776C31.8645 4.14152 31.9901 4.28683 31.9901 4.57746V4.70403C31.9901 5.06263 31.7799 5.31811 31.2902 5.31811C30.8006 5.31811 30.6108 5.06732 30.6108 4.72278V4.72512Z" fill="white"/>
<path d="M11.7625 7.1861V8.4166C11.7625 8.82443 11.5779 9.12912 11.0549 9.12912H10.3011V6.47359H11.0549C11.5779 6.47359 11.7625 6.77594 11.7625 7.1861ZM10.9959 8.76583C11.1985 8.76583 11.2754 8.65567 11.2754 8.49629V7.10641C11.2754 6.94938 11.1985 6.83922 10.9959 6.83922H10.7908V8.76583H10.9959Z" fill="white"/>
<path d="M11.9932 6.4736H13.1597V6.83689H12.4828V7.59628H12.9674V7.95723H12.4828V8.7635H13.1597V9.12679H11.9932V6.47125V6.4736Z" fill="white"/>
<path d="M13.7723 6.47359H14.262V9.12912H13.7723V6.47359Z" fill="white"/>
<path d="M15.8413 7.40642H15.8285L15.4978 9.12912H15.2696L14.9056 7.40642H14.8979V9.12912H14.4954V6.47359H15.0645L15.3824 7.96894H15.3875L15.6695 6.47359H16.2874V9.12912H15.8413V7.40642Z" fill="white"/>
<path d="M16.5182 6.47359H17.2412C17.7334 6.47359 17.9129 6.69625 17.9129 7.06891V7.62908C17.9129 8.00175 17.7334 8.2291 17.2412 8.2291H17.0053V9.12912H16.5156V6.47359H16.5182ZM17.0079 6.83688V7.88222H17.1873C17.354 7.88222 17.4283 7.80721 17.4283 7.6619V7.05016C17.4283 6.90485 17.3565 6.83453 17.1873 6.83453H17.0079V6.83688Z" fill="white"/>
<path d="M18.1154 6.47359H18.605V8.76583H19.187V9.12912H18.1154V6.47359Z" fill="white"/>
<path d="M19.3639 6.4736H20.5304V6.83689H19.8536V7.59628H20.3381V7.95723H19.8536V8.7635H20.5304V9.12679H19.3639V6.47125V6.4736Z" fill="white"/>
<path d="M22.084 7.40642H22.0712L21.7405 9.12912H21.5123L21.1482 7.40642H21.1405V9.12912H20.738V6.47359H21.3072L21.6251 7.96894H21.6302L21.9122 6.47359H22.5301V9.12912H22.084V7.40642Z" fill="white"/>
<path d="M22.7607 6.4736H23.9272V6.83689H23.2504V7.59628H23.735V7.95723H23.2504V8.7635H23.9272V9.12679H22.7607V6.47125V6.4736Z" fill="white"/>
<path d="M24.5476 7.46033V9.12912H24.1375V6.47359H24.6169L25.145 7.99706V6.47359H25.5526V9.12912H25.1245L24.5502 7.46033H24.5476Z" fill="white"/>
<path d="M25.7271 6.47359H27.0243V6.83688H26.6218V9.12912H26.1296V6.83688H25.7271V6.47359Z" fill="white"/>
<path d="M27.1268 9.12912L27.6755 6.47359H28.2318L28.7856 9.12912H28.2831L28.1933 8.64395H27.6755L27.5909 9.12912H27.1294H27.1268ZM27.7396 8.28769H28.1292L27.937 7.22126H27.9318L27.7396 8.28769Z" fill="white"/>
<path d="M29.4572 9.39867C29.5931 9.39398 29.6162 9.3682 29.6162 9.33538C29.6162 9.30726 29.5905 9.29319 29.5469 9.29319H29.5264V9.14788C29.1111 9.101 28.9393 8.81506 28.9393 8.44239V7.15799C28.9393 6.74313 29.1521 6.44078 29.6674 6.44078C30.2084 6.44078 30.3571 6.71501 30.3571 7.10642V7.42049H29.911V7.07126C29.911 6.9072 29.852 6.81345 29.6751 6.81345C29.4982 6.81345 29.4264 6.92829 29.4264 7.08767V8.51271C29.4264 8.67443 29.4982 8.78693 29.6751 8.78693C29.852 8.78693 29.911 8.68615 29.911 8.52911V8.03926H30.3571V8.49864C30.3571 8.87131 30.1956 9.14553 29.711 9.1596V9.19475C29.8264 9.21116 29.8905 9.24866 29.8905 9.33538C29.8905 9.45726 29.7674 9.52289 29.4572 9.52289V9.39632V9.39867Z" fill="white"/>
<path d="M30.4982 9.12912L31.0468 6.47359H31.6031L32.1569 9.12912H31.6544L31.5647 8.64395H31.0468L30.9622 9.12912H30.5007H30.4982ZM30.8802 6.36811C30.8879 6.18295 30.9648 6.03529 31.1801 6.03529C31.3057 6.03529 31.4083 6.10092 31.4724 6.10092C31.5057 6.10092 31.5313 6.08217 31.5313 6.04233H31.7723C31.7646 6.22749 31.6877 6.37515 31.4724 6.37515C31.3493 6.37515 31.2442 6.30952 31.1801 6.30952C31.1468 6.30952 31.1212 6.32827 31.1212 6.36811H30.8802ZM31.1109 8.28769H31.5006L31.3083 7.22126H31.3032L31.1109 8.28769Z" fill="white"/>
<path d="M32.3107 8.44473V7.16032C32.3107 6.74547 32.5337 6.44312 33.0465 6.44312C33.5592 6.44312 33.7874 6.74547 33.7874 7.16032V8.44473C33.7874 8.85489 33.5643 9.16193 33.0465 9.16193C32.5286 9.16193 32.3107 8.85724 32.3107 8.44473ZM33.3003 8.51504V7.09001C33.3003 6.92828 33.2234 6.81578 33.0465 6.81578C32.8696 6.81578 32.7978 6.93063 32.7978 7.09001V8.51504C32.7978 8.67676 32.8747 8.78927 33.0465 8.78927C33.2182 8.78927 33.3003 8.67676 33.3003 8.51504Z" fill="white"/>
</g>
<defs>
<clipPath id="clip0_4014_93536">
<rect width="35" height="32" rx="4" fill="white"/>
</clipPath>
</defs>
</svg>
