<svg width="32" height="32" viewBox="0 0 32 32" fill="none" xmlns="http://www.w3.org/2000/svg">
<g clip-path="url(#clip0_4014_93521)">
<path d="M32 0H0V32H32V0Z" fill="#D5A23D"/>
<path d="M5.98411 8.24782H4.20503V7.94313C4.20503 7.43921 4.38552 7.24936 4.66211 6.95404L5.35593 6.22277C5.91848 5.62276 6.04037 5.24306 6.04037 4.59617V3.96803C6.04037 3.04457 5.59267 2.60628 4.62226 2.60628C3.65185 2.60628 3.1854 3.1102 3.1854 4.01491V4.79539H4.17456V3.98678C4.17456 3.59771 4.36442 3.48286 4.59413 3.48286C4.80275 3.48286 4.98323 3.56958 4.98323 3.96803V4.50007C4.98323 5.03212 4.93635 5.24306 4.58241 5.61338L3.97298 6.26027C3.38464 6.88841 3.16431 7.30796 3.16431 7.94547V9.13378H5.98177V8.24782H5.98411Z" fill="white"/>
<path d="M12.7652 27.1905V27.6405C12.7652 27.6405 12.7652 27.6476 12.7652 27.6499C12.7652 27.6546 12.7652 27.6569 12.7652 27.6593C12.7699 27.7694 12.8613 27.8585 12.9738 27.8609C12.9738 27.8609 12.9762 27.8609 12.9785 27.8609H12.9832H18.2618C18.2618 27.8609 18.2642 27.8609 18.2665 27.8609C18.2665 27.8609 18.2689 27.8609 18.2712 27.8609C18.3861 27.8609 18.4775 27.7648 18.4798 27.6499V27.1413C21.452 26.1663 23.6788 23.7592 24.1663 20.8247C24.1663 20.8177 24.1663 20.813 24.1687 20.8083C24.1687 20.799 24.171 20.7896 24.171 20.7779C24.171 20.6607 24.0749 20.5646 23.9577 20.5646H7.13261C7.01307 20.5646 6.91931 20.6607 6.91931 20.7779L6.93103 20.874C7.44436 23.8365 9.73209 26.2577 12.7652 27.1929" fill="white"/>
<path d="M18.4729 13.3832C18.4026 13.4816 16.7782 15.8207 18.5104 17.7145C19.305 18.5841 19.2347 19.3482 19.0073 19.8661H20.1184C20.3434 19.1021 20.2496 18.1434 19.3495 17.159C18.0744 15.7645 19.366 13.8801 19.3847 13.8519C19.5371 13.6363 19.455 13.3597 19.2042 13.2308C18.9534 13.1019 18.6253 13.1699 18.4729 13.3855" fill="white"/>
<path d="M15.6601 19.8638H16.7712C16.9962 19.0997 16.9025 18.1411 16 17.1567C14.7249 15.7621 16.0141 13.8777 16.0352 13.8472C16.1875 13.6339 16.1055 13.3573 15.8547 13.2261C15.6039 13.0972 15.2757 13.1651 15.1257 13.3808C15.0554 13.4792 13.4287 15.8183 15.1609 17.7121C15.9555 18.5817 15.8852 19.3481 15.6601 19.8638Z" fill="white"/>
<path d="M11.7785 13.3831C11.7082 13.4816 10.0838 15.8207 11.8137 17.7145C12.6083 18.5841 12.5379 19.3505 12.3129 19.8661H13.424C13.649 19.102 13.5552 18.1434 12.6528 17.159C11.3777 15.7645 12.6692 13.88 12.6903 13.8496C12.8403 13.6363 12.7606 13.3574 12.5098 13.2285C12.259 13.0995 11.9332 13.1675 11.7808 13.3831" fill="white"/>
<path d="M9.13906 2.08832H10.1681V2.44693H9.57739V3.1946H10.0181V3.54852H9.57739V4.70167H9.13672V2.08598L9.13906 2.08832Z" fill="white"/>
<path d="M10.3978 4.02664V2.76098C10.3978 2.35316 10.5994 2.0555 11.0612 2.0555C11.5229 2.0555 11.7292 2.35316 11.7292 2.76098V4.02664C11.7292 4.43212 11.5276 4.73212 11.0612 4.73212C10.5947 4.73212 10.3978 4.43212 10.3978 4.02664ZM11.2885 4.09695V2.69301C11.2885 2.53598 11.2182 2.42347 11.0612 2.42347C10.9041 2.42347 10.8385 2.53598 10.8385 2.69301V4.09695C10.8385 4.25399 10.9088 4.36649 11.0612 4.36649C11.2135 4.36649 11.2885 4.25399 11.2885 4.09695Z" fill="white"/>
<path d="M13.2248 3.00475H13.2131L12.9154 4.70167H12.7114L12.3833 3.00475H12.3763V4.70167H12.0129V2.08598H12.5263L12.8122 3.56023H12.8169L13.0724 2.08598H13.6279V4.70167H13.2271V3.00475H13.2248Z" fill="white"/>
<path d="M13.9114 2.08832H14.9615V2.44693H14.352V3.1946H14.788V3.54852H14.352V4.34307H14.9615V4.70167H13.9114V2.08598V2.08832Z" fill="white"/>
<path d="M16.0983 4.34307H16.7664V4.70167H15.6389V4.34307L16.3304 2.44458H15.7092V2.08598H16.7922V2.44458L16.0983 4.34307Z" fill="white"/>
<path d="M17.0594 2.08832H18.1096V2.44693H17.5001V3.1946H17.9361V3.54852H17.5001V4.34307H18.1096V4.70167H17.0594V2.08598V2.08832Z" fill="white"/>
<path d="M18.8151 3.50393V4.70396H18.3744V2.08827H19.0143C19.4573 2.08827 19.619 2.30859 19.619 2.67422V3.00939C19.619 3.29065 19.5183 3.45706 19.2674 3.51565L19.687 4.70396H19.2229L18.8104 3.50393H18.8151ZM18.8151 2.44687V3.26018H18.9627C19.1127 3.26018 19.1784 3.18283 19.1784 3.04455V2.65782C19.1784 2.51485 19.1127 2.44453 18.9627 2.44453H18.8151V2.44687Z" fill="white"/>
<path d="M19.8909 4.02664V2.76098C19.8909 2.35316 20.0925 2.0555 20.5542 2.0555C21.016 2.0555 21.2222 2.35316 21.2222 2.76098V4.02664C21.2222 4.43212 21.0207 4.73212 20.5542 4.73212C20.0878 4.73212 19.8909 4.43212 19.8909 4.02664ZM20.7816 4.09695V2.69301C20.7816 2.53598 20.7113 2.42347 20.5542 2.42347C20.3972 2.42347 20.3315 2.53598 20.3315 2.69301V4.09695C20.3315 4.25399 20.4019 4.36649 20.5542 4.36649C20.7066 4.36649 20.7816 4.25399 20.7816 4.09695Z" fill="white"/>
<path d="M9.13208 5.71649H10.1822V6.0751H9.57275V6.82277H10.0087V7.17669H9.57275V7.97124H10.1822V8.32984H9.13208V5.71415V5.71649Z" fill="white"/>
<path d="M10.8291 8.33221L11.3237 5.71652H11.8253L12.3222 8.33221H11.8699L11.7878 7.85407H11.3214L11.244 8.33221H10.8268H10.8291ZM11.38 7.5025H11.7316L11.5581 6.45248H11.5534L11.38 7.5025Z" fill="white"/>
<path d="M13.2058 6.93528H13.8316V8.33219H13.5152V8.04625C13.4566 8.24313 13.3347 8.36266 13.0956 8.36266C12.7183 8.36266 12.5448 8.06266 12.5448 7.65718V6.39152C12.5448 5.9837 12.7417 5.68604 13.2035 5.68604C13.6887 5.68604 13.8316 5.95557 13.8316 6.3423V6.57434H13.4308V6.30714C13.4308 6.14542 13.3699 6.05167 13.2105 6.05167C13.0511 6.05167 12.9831 6.16417 12.9831 6.32121V7.72515C12.9831 7.88218 13.0488 7.99469 13.1988 7.99469C13.3488 7.99469 13.4144 7.91265 13.4144 7.7439V7.27982H13.2058V6.93294V6.93528Z" fill="white"/>
<path d="M14.5583 7.13218V8.33221H14.1177V5.71652H14.7576C15.2006 5.71652 15.3623 5.93684 15.3623 6.30247V6.63764C15.3623 6.9189 15.2615 7.08531 15.0107 7.1439L15.4303 8.33221H14.9662L14.5537 7.13218H14.5583ZM14.5583 6.07512V6.88843H14.706C14.856 6.88843 14.9217 6.81108 14.9217 6.6728V6.28607C14.9217 6.1431 14.856 6.07278 14.706 6.07278H14.5583V6.07512Z" fill="white"/>
<path d="M15.6436 5.71652H16.0842V8.33221H15.6436V5.71652Z" fill="white"/>
<path d="M16.3773 7.65718V6.39152C16.3773 5.9837 16.5695 5.68604 17.0336 5.68604C17.5188 5.68604 17.6548 5.95557 17.6548 6.3423V6.65168H17.254V6.30949C17.254 6.14777 17.2001 6.05401 17.0407 6.05401C16.8813 6.05401 16.818 6.16652 16.818 6.32355V7.72749C16.818 7.88453 16.8836 7.99703 17.0407 7.99703C17.1977 7.99703 17.254 7.89625 17.254 7.74155V7.25873H17.6548V7.71108C17.6548 8.08609 17.5001 8.36266 17.0336 8.36266C16.5672 8.36266 16.3773 8.06266 16.3773 7.65718Z" fill="white"/>
<path d="M19.2087 5.71652V7.6947C19.2087 8.10017 19.0353 8.36268 18.5876 8.36268C18.1399 8.36268 17.9313 8.10017 17.9313 7.6947V5.71652H18.3719V7.73688C18.3719 7.89157 18.4329 7.9947 18.5876 7.9947C18.7423 7.9947 18.8032 7.89157 18.8032 7.73688V5.71652H19.2087Z" fill="white"/>
<path d="M19.4924 5.71652H19.9331V7.97361H20.4581V8.33221H19.4948V5.71652H19.4924Z" fill="white"/>
<path d="M20.6481 5.71652H21.8177V6.07512H21.4544V8.33221H21.0114V6.07512H20.6481V5.71652Z" fill="white"/>
<path d="M23.3365 5.71652V7.6947C23.3365 8.10017 23.1631 8.36268 22.7154 8.36268C22.2677 8.36268 22.0591 8.10017 22.0591 7.6947V5.71652H22.4997V7.73688C22.4997 7.89157 22.5607 7.9947 22.7154 7.9947C22.8701 7.9947 22.931 7.89157 22.931 7.73688V5.71652H23.3365Z" fill="white"/>
<path d="M24.0655 7.13218V8.33221H23.6249V5.71652H24.2648C24.7078 5.71652 24.8695 5.93684 24.8695 6.30247V6.63764C24.8695 6.9189 24.7687 7.08531 24.5179 7.1439L24.9375 8.33221H24.4734L24.0609 7.13218H24.0655ZM24.0655 6.07512V6.88843H24.2132C24.3632 6.88843 24.4289 6.81108 24.4289 6.6728V6.28607C24.4289 6.1431 24.3632 6.07278 24.2132 6.07278H24.0655V6.07512Z" fill="white"/>
<path d="M25.0805 8.33221L25.575 5.71652H26.0767L26.5736 8.33221H26.1212L26.0392 7.85407H25.5727L25.4954 8.33221H25.0781H25.0805ZM25.6313 7.5025H25.9829L25.8094 6.45248H25.8048L25.6313 7.5025Z" fill="white"/>
<path d="M9.10864 11.3487V10.9971H9.51649V11.3557C9.51649 11.5011 9.58213 11.5878 9.73214 11.5878C9.87044 11.5878 9.93372 11.494 9.93372 11.3557V11.255C9.93372 11.1049 9.87278 11.0112 9.73683 10.8846L9.47899 10.6268C9.22819 10.3807 9.11333 10.2307 9.11333 9.92836V9.83929C9.11333 9.51585 9.30319 9.26506 9.7298 9.26506C10.1564 9.26506 10.3439 9.48069 10.3439 9.85804V10.0713H9.9431V9.84398C9.9431 9.69398 9.87278 9.62132 9.73448 9.62132C9.61025 9.62132 9.52587 9.69163 9.52587 9.83695V9.89086C9.52587 10.0362 9.60791 10.1229 9.73448 10.2448L10.0158 10.5213C10.2548 10.7651 10.3697 10.9104 10.3697 11.201V11.3276C10.3697 11.6862 10.1775 11.9417 9.7298 11.9417C9.2821 11.9417 9.10864 11.6909 9.10864 11.3487Z" fill="white"/>
<path d="M11.9121 9.29791V11.2761C11.9121 11.6816 11.7387 11.9441 11.291 11.9441C10.8433 11.9441 10.6346 11.6816 10.6346 11.2761V9.29791H11.0753V11.3183C11.0753 11.473 11.1363 11.5761 11.291 11.5761C11.4457 11.5761 11.5066 11.473 11.5066 11.3183V9.29791H11.9121Z" fill="white"/>
<path d="M12.1793 11.3487V10.9971H12.5872V11.3557C12.5872 11.5011 12.6528 11.5878 12.8028 11.5878C12.9411 11.5878 13.0044 11.494 13.0044 11.3557V11.255C13.0044 11.1049 12.9435 11.0112 12.8075 10.8846L12.5497 10.6268C12.2989 10.3807 12.184 10.2307 12.184 9.92836V9.83929C12.184 9.51585 12.3739 9.26506 12.8005 9.26506C13.2271 9.26506 13.4146 9.48069 13.4146 9.85804V10.0713H13.0138V9.84398C13.0138 9.69398 12.9435 9.62132 12.8052 9.62132C12.6809 9.62132 12.5965 9.69163 12.5965 9.83695V9.89086C12.5965 10.0362 12.6786 10.1229 12.8052 10.2448L13.0864 10.5213C13.3255 10.7651 13.4404 10.9104 13.4404 11.201V11.3276C13.4404 11.6862 13.2482 11.9417 12.8005 11.9417C12.3528 11.9417 12.1793 11.6909 12.1793 11.3487Z" fill="white"/>
<path d="M13.6606 9.29791H14.8303V9.65652H14.467V11.9136H14.024V9.65652H13.6606V9.29791Z" fill="white"/>
<path d="M15.0718 9.29789H16.1219V9.65649H15.5124V10.4042H15.9484V10.7581H15.5124V11.5526H16.1219V11.9112H15.0718V9.29555V9.29789Z" fill="white"/>
<path d="M16.7617 10.2682V11.9112H16.3914V9.29555H16.8226L17.2961 10.7956V9.29555H17.6618V11.9112H17.275L16.757 10.2682H16.7617Z" fill="white"/>
<path d="M17.9033 9.29791H19.073V9.65652H18.7096V11.9136H18.2666V9.65652H17.9033V9.29791Z" fill="white"/>
<path d="M19.2462 11.9136L19.7408 9.2979H20.2424L20.7394 11.9136H20.287L20.2049 11.4355H19.7385L19.6611 11.9136H19.2439H19.2462ZM20.3503 9.11274L19.6588 9.2018V8.9557L20.3503 8.80804V9.11274ZM19.7994 11.0839H20.151L19.9776 10.0339H19.9729L19.7994 11.0839Z" fill="white"/>
<path d="M22.3685 9.29791L21.8716 11.9136H21.3934L20.8965 9.29791H21.3442L21.6442 11.1214H21.6489L21.9583 9.29791H22.3708H22.3685Z" fill="white"/>
<path d="M22.5865 9.29789H23.6366V9.65649H23.0272V10.4042H23.4632V10.7581H23.0272V11.5526H23.6366V11.9112H22.5865V9.29555V9.29789Z" fill="white"/>
<path d="M23.9109 9.29791H24.3516V11.555H24.8766V11.9136H23.9132V9.29791H23.9109Z" fill="white"/>
</g>
<defs>
<clipPath id="clip0_4014_93521">
<rect width="32" height="32" rx="4" fill="white"/>
</clipPath>
</defs>
</svg>
