<svg width="32" height="32" viewBox="0 0 32 32" fill="none" xmlns="http://www.w3.org/2000/svg">
<g clip-path="url(#clip0_4014_93522)">
<path d="M32 0H0V32H32V0Z" fill="#4E9847"/>
<path d="M4.56611 9.22056C5.66075 9.22056 6.13658 8.6393 6.13658 7.74631V6.79472C6.13658 6.20408 5.87874 5.82439 5.33728 5.70016C5.78498 5.55719 6.08032 5.19625 6.08032 4.65483V4.09231C6.08032 3.17823 5.642 2.61806 4.64346 2.61806C3.5207 2.61806 3.12925 3.2837 3.12925 4.23528V4.80717H4.11841V4.15091C4.11841 3.75246 4.24264 3.52277 4.58486 3.52277C4.92709 3.52277 5.05132 3.75012 5.05132 4.10403V4.7978C5.05132 5.13999 4.82395 5.32047 4.47235 5.32047H4.06216V6.14783H4.51923C4.89896 6.14783 5.05132 6.3283 5.05132 6.6705V7.73693C5.05132 8.07913 4.89896 8.3182 4.56611 8.3182C4.19576 8.3182 4.06216 8.06975 4.06216 7.69006V6.7666H3.073V7.61271C3.073 8.59242 3.4621 9.22056 4.56611 9.22056Z" fill="white"/>
<path d="M26.7495 19.9974C26.7495 19.0974 26.1729 18.3661 25.2962 18.3661C24.8579 18.3661 24.3305 18.8443 24.0446 19.1396C23.7586 18.8443 23.2663 18.3638 22.828 18.3638C21.9537 18.3638 21.3396 19.095 21.3396 19.9951C21.3396 20.4451 21.5177 20.8529 21.8037 21.1482L24.0469 23.3959L26.2877 21.1506C26.5737 20.8529 26.7518 20.4451 26.7518 19.9951" fill="white"/>
<path d="M17.1978 27.0663C17.1978 27.0663 17.1838 27.0663 17.1744 27.0663C17.0033 27.0546 16.8626 26.928 16.8345 26.7616L15.6953 20.1263L13.9702 23.3256C13.8952 23.4662 13.7358 23.5412 13.5811 23.5131C13.424 23.485 13.3045 23.3607 13.281 23.2037L12.5474 18.0825L11.2066 21.0943C11.148 21.2279 11.0167 21.3122 10.8691 21.3122H5.65841C5.45448 21.3122 5.29041 21.1482 5.29041 20.9443C5.29041 20.7404 5.45448 20.5763 5.65841 20.5763H10.63L12.3927 16.6153C12.4583 16.4652 12.6177 16.3785 12.7794 16.3996C12.9412 16.4231 13.0701 16.5496 13.0935 16.7114L13.8483 21.9919L15.55 18.8372C15.625 18.6989 15.7797 18.6239 15.9344 18.6497C16.0891 18.6755 16.211 18.795 16.2368 18.9497L17.2916 25.0951L21.138 12.3214C21.1826 12.1761 21.3115 12.073 21.4615 12.0612C21.6139 12.0495 21.7569 12.1316 21.8225 12.2675L23.8453 16.4629C23.9344 16.6457 23.8571 16.866 23.6742 16.9551C23.4914 17.0442 23.2711 16.9668 23.182 16.784L21.5693 13.4417L17.5447 26.8061C17.4978 26.9632 17.3525 27.0686 17.1931 27.0686" fill="white"/>
<path d="M9.11816 4.73213V4.38056H9.52602V4.73916C9.52602 4.88682 9.59165 4.9712 9.74166 4.9712C9.87996 4.9712 9.94324 4.87744 9.94324 4.73916V4.63838C9.94324 4.48837 9.8823 4.39462 9.74635 4.26805L9.48851 4.01024C9.23771 3.76414 9.12285 3.61179 9.12285 3.31178V3.22272C9.12285 2.89927 9.31271 2.64848 9.73932 2.64848C10.1659 2.64848 10.3534 2.86411 10.3534 3.24381V3.4571H9.95262V3.22975C9.95262 3.07974 9.8823 3.00709 9.74401 3.00709C9.61978 3.00709 9.53539 3.0774 9.53539 3.22272V3.27662C9.53539 3.42428 9.61743 3.50866 9.74401 3.63054L10.0253 3.90945C10.2644 4.15321 10.3792 4.29852 10.3792 4.58916V4.71572C10.3792 5.07432 10.187 5.3298 9.73932 5.3298C9.29162 5.3298 9.11816 5.07901 9.11816 4.73682V4.73213Z" fill="white"/>
<path d="M10.5807 5.29466L11.0753 2.67897H11.5769L12.0738 5.29466H11.6214L11.5394 4.81652H11.0729L10.9956 5.29466H10.5784H10.5807ZM11.1315 4.46495H11.4831L11.3097 3.41492H11.305L11.1315 4.46495Z" fill="white"/>
<path d="M13.5693 2.67895V4.65712C13.5693 5.0626 13.3959 5.32511 12.9482 5.32511C12.5005 5.32511 12.2919 5.0626 12.2919 4.65712V2.67895H12.7325V4.70166C12.7325 4.85635 12.7935 4.95947 12.9482 4.95947C13.1029 4.95947 13.1638 4.85635 13.1638 4.70166V2.67895H13.5693ZM13.2998 2.49379L12.6083 2.58285V2.33675L13.2998 2.18909V2.49379Z" fill="white"/>
<path d="M15.175 3.38206V4.59381C15.175 4.9946 15.0086 5.29695 14.5374 5.29695H13.8577V2.68126H14.5374C15.0086 2.68126 15.175 2.97892 15.175 3.3844V3.38206ZM14.4835 4.936C14.664 4.936 14.7343 4.82819 14.7343 4.66881V3.30002C14.7343 3.14533 14.664 3.03752 14.4835 3.03752H14.2983V4.936H14.4835Z" fill="white"/>
<path d="M15.4633 2.67894H16.5134V3.03754H15.9039V3.78522H16.3399V4.13913H15.9039V4.93368H16.5134V5.29229H15.4633V2.6766V2.67894Z" fill="white"/>
<path d="M17.2283 2.67894H18.2784V3.03754H17.6689V3.78522H18.1049V4.13913H17.6689V4.93368H18.2784V5.29229H17.2283V2.6766V2.67894Z" fill="white"/>
<path d="M9.14136 6.45717H9.77892C10.2196 6.45717 10.3649 6.66108 10.3649 7.0314V7.2986C10.3649 7.51891 10.2829 7.6572 10.1024 7.71579C10.3227 7.76501 10.4305 7.91267 10.4305 8.15174V8.49862C10.4305 8.86895 10.2641 9.07286 9.8258 9.07286H9.1437V6.45717H9.14136ZM9.58203 7.5611H9.73673C9.87971 7.5611 9.94534 7.48844 9.94534 7.34782V7.02671C9.94534 6.88374 9.87971 6.81343 9.73204 6.81343H9.58203V7.55876V7.5611ZM9.58203 7.89627V8.71426H9.77423C9.9219 8.71426 9.98988 8.6416 9.98988 8.50097V8.10721C9.98988 7.96892 9.92425 7.89392 9.76954 7.89392H9.57968L9.58203 7.89627Z" fill="white"/>
<path d="M10.6885 6.45722H11.7386V6.81583H11.1291V7.5635H11.5651V7.91742H11.1291V8.71197H11.7386V9.07057H10.6885V6.45488V6.45722Z" fill="white"/>
<path d="M13.2223 7.37594H13.2106L12.9129 9.07286H12.709L12.3808 7.37594H12.3738V9.07286H12.0105V6.45717H12.5238L12.8098 7.93142H12.8145L13.07 6.45717H13.6255V9.07286H13.2247V7.37594H13.2223Z" fill="white"/>
<path d="M13.8856 7.6807H14.5021V8.03462H13.8856V7.6807Z" fill="white"/>
<path d="M14.7622 6.45722H15.8123V6.81583H15.2029V7.5635H15.6389V7.91742H15.2029V8.71197H15.8123V9.07057H14.7622V6.45488V6.45722Z" fill="white"/>
<path d="M16.0632 8.50804V8.15647H16.4734V8.51507C16.4734 8.66273 16.5391 8.74711 16.6891 8.74711C16.8274 8.74711 16.8907 8.6557 16.8907 8.51507V8.41429C16.8907 8.26428 16.8297 8.17053 16.6938 8.04396L16.4359 7.78614C16.1851 7.54005 16.0703 7.3877 16.0703 7.08769V6.99863C16.0703 6.67518 16.2601 6.42439 16.6867 6.42439C17.1133 6.42439 17.3009 6.64002 17.3009 7.01738V7.23066H16.9V7.00331C16.9 6.85331 16.8297 6.78065 16.6914 6.78065C16.5672 6.78065 16.4828 6.85097 16.4828 6.99628V7.05019C16.4828 7.19785 16.5648 7.28223 16.6914 7.4041L16.9727 7.68302C17.2118 7.92677 17.3266 8.07209 17.3266 8.36272V8.48929C17.3266 8.84789 17.1344 9.10336 16.6867 9.10336C16.239 9.10336 16.0656 8.85258 16.0656 8.50804H16.0632Z" fill="white"/>
<path d="M17.5446 6.45717H18.7142V6.81577H18.3509V9.07286H17.9079V6.81577H17.5446V6.45717Z" fill="white"/>
<path d="M18.8853 9.07286L19.3799 6.45717H19.8815L20.3784 9.07286H19.926L19.844 8.59472H19.3775L19.3002 9.07286H18.8829H18.8853ZM19.4361 8.24315H19.7877L19.6143 7.19312H19.6096L19.4361 8.24315Z" fill="white"/>
<path d="M21.0394 7.87283V9.07286H20.5988V6.45717H21.2387C21.6817 6.45717 21.8434 6.67749 21.8434 7.04312V7.37829C21.8434 7.65954 21.7426 7.82595 21.4918 7.88455L21.9114 9.07286H21.4473L21.0347 7.87283H21.0394ZM21.0394 6.81577V7.62907H21.1871C21.3371 7.62907 21.4027 7.55173 21.4027 7.41344V7.02671C21.4027 6.88374 21.3371 6.81343 21.1871 6.81343H21.0394V6.81577Z" fill="white"/>
</g>
<defs>
<clipPath id="clip0_4014_93522">
<rect width="32" height="32" rx="4" fill="white"/>
</clipPath>
</defs>
</svg>
