<svg width="32" height="32" viewBox="0 0 32 32" fill="none" xmlns="http://www.w3.org/2000/svg">
<g clip-path="url(#clip0_4014_93523)">
<path d="M32 0H0V32H32V0Z" fill="#B9252F"/>
<path d="M5.01379 9.13382H6.04045V8.08614H6.47877V7.24002H6.04045V2.68132H4.97394L3.09875 7.4205V8.08614H5.01144V9.13382H5.01379ZM4.05275 7.24002L5.02316 4.58449H5.03254V7.24002H4.05275Z" fill="white"/>
<path d="M14.1905 17.1567L8.45007 13.8449V24.5631L14.1905 26.2952V17.1567Z" fill="white"/>
<path d="M14.821 17.1801V26.2999L20.5966 24.5631V13.8449L14.821 17.1801Z" fill="white"/>
<path d="M25.1039 13.5729C25.1039 13.1979 24.7992 12.8932 24.4265 12.8932C24.0538 12.8932 23.7467 13.1979 23.7467 13.5729V14.3042H25.1039V13.5729Z" fill="white"/>
<path d="M23.9131 24.3731H23.7444L24.4241 26.7474L25.1015 24.3731H24.9328H25.1015V14.8362H24.9328H24.7664H24.5859H24.2483H24.0819H23.9131H23.7444V24.3731H23.9131Z" fill="white"/>
<path d="M21.8293 14.3042L21.2152 13.819V24.8536L14.8372 26.9139H14.5419H14.4856H14.1903L7.84044 25.1419V13.819L7.22632 14.3042V25.5732L14.1598 27.4928H14.4856H14.5419H14.8677L21.2644 25.4607L21.8293 25.2943V14.3042Z" fill="white"/>
<path d="M9.64309 9.30724V9.12911C9.29149 9.06818 9.14148 8.80801 9.14148 8.4541V7.18844C9.14148 6.78062 9.34306 6.48296 9.80483 6.48296C10.2666 6.48296 10.4729 6.78062 10.4729 7.18844V8.4541C10.4729 8.74004 10.3721 8.9627 10.1494 9.07052L10.4729 9.13146V9.45959L9.64309 9.3049V9.30724ZM10.0322 8.54785V7.12047C10.0322 6.96344 9.96187 6.85093 9.80483 6.85093C9.64778 6.85093 9.5798 6.96344 9.5798 7.12047V8.54785C9.5798 8.70254 9.65012 8.81739 9.80483 8.81739C9.95953 8.81739 10.0322 8.70254 10.0322 8.54785Z" fill="white"/>
<path d="M12.0315 6.51578V8.49395C12.0315 8.89943 11.858 9.16194 11.4103 9.16194C10.9626 9.16194 10.754 8.89943 10.754 8.49395V6.51578H11.1947V8.53614C11.1947 8.69083 11.2556 8.79396 11.4103 8.79396C11.565 8.79396 11.626 8.69083 11.626 8.53614V6.51578H12.0315Z" fill="white"/>
<path d="M12.2401 9.12917L12.7347 6.51348H13.2363L13.7333 9.12917H13.2809L13.1988 8.65103H12.7324L12.655 9.12917H12.2378H12.2401ZM12.791 8.29946H13.1426L12.9691 7.24944H12.9644L12.791 8.29946Z" fill="white"/>
<path d="M13.9442 6.51578H14.3849V8.77286H14.9099V9.13147H13.9466V6.51578H13.9442Z" fill="white"/>
<path d="M15.142 6.51578H15.5826V9.13147H15.142V6.51578Z" fill="white"/>
<path d="M17.1812 7.21658V8.42832C17.1812 8.82911 17.0148 9.13147 16.546 9.13147H15.8662V6.51578H16.546C17.0171 6.51578 17.1812 6.81344 17.1812 7.21892V7.21658ZM16.4897 8.77052C16.6702 8.77052 16.7405 8.6627 16.7405 8.50333V7.13454C16.7405 6.97985 16.6702 6.87204 16.4897 6.87204H16.3045V8.77052H16.4897Z" fill="white"/>
<path d="M17.3946 9.12917L17.8891 6.51348H18.3907L18.8877 9.12917H18.4353L18.3532 8.65103H17.8868L17.8094 9.12917H17.3922H17.3946ZM17.9454 8.29946H18.297L18.1235 7.24944H18.1188L17.9454 8.29946Z" fill="white"/>
<path d="M20.4136 7.21658V8.42832C20.4136 8.82911 20.2472 9.13147 19.7784 9.13147H19.0986V6.51578H19.7784C20.2495 6.51578 20.4136 6.81344 20.4136 7.21892V7.21658ZM19.7221 8.77052C19.9026 8.77052 19.9729 8.6627 19.9729 8.50333V7.13454C19.9729 6.97985 19.9026 6.87204 19.7221 6.87204H19.537V8.77052H19.7221Z" fill="white"/>
<path d="M20.6948 6.51582H21.7449V6.87443H21.1355V7.6221H21.5715V7.97602H21.1355V8.77057H21.7449V9.12917H20.6948V6.51348V6.51582Z" fill="white"/>
<path d="M9.14148 2.68129H10.1916V3.03989H9.58215V3.78757H10.0181V4.14148H9.58215V4.93603H10.1916V5.29464H9.14148V2.67895V2.68129Z" fill="white"/>
<path d="M11.7737 3.38211V4.59386C11.7737 4.99465 11.6073 5.297 11.1362 5.297H10.4564V2.68131H11.1362C11.6073 2.68131 11.7737 2.97897 11.7737 3.38445V3.38211ZM11.0823 4.93605C11.2627 4.93605 11.3331 4.82824 11.3331 4.66886V3.30007C11.3331 3.14538 11.2627 3.03757 11.0823 3.03757H10.8971V4.93605H11.0823Z" fill="white"/>
<path d="M13.3347 2.68131V4.65948C13.3347 5.06496 13.1613 5.32747 12.7136 5.32747C12.2659 5.32747 12.0573 5.06496 12.0573 4.65948V2.68131H12.4979V4.70167C12.4979 4.85636 12.5589 4.95949 12.7136 4.95949C12.8683 4.95949 12.9292 4.85636 12.9292 4.70167V2.68131H13.3347Z" fill="white"/>
<path d="M13.6255 4.61963V3.35397C13.6255 2.94615 13.8177 2.64849 14.2818 2.64849C14.767 2.64849 14.903 2.91802 14.903 3.30475V3.61414H14.5021V3.27194C14.5021 3.11022 14.4482 3.01646 14.2888 3.01646C14.1294 3.01646 14.0662 3.12897 14.0662 3.286V4.68994C14.0662 4.84698 14.1318 4.95948 14.2888 4.95948C14.4459 4.95948 14.5021 4.8587 14.5021 4.70401V4.22118H14.903V4.67354C14.903 5.04855 14.7483 5.32511 14.2818 5.32511C13.8154 5.32511 13.6255 5.02511 13.6255 4.61963Z" fill="white"/>
<path d="M15.0132 5.29466L15.5078 2.67897H16.0094L16.5063 5.29466H16.0539L15.9719 4.81652H15.5054L15.4281 5.29466H15.0109H15.0132ZM15.564 4.46495H15.9156L15.7422 3.41493H15.7375L15.564 4.46495Z" fill="white"/>
<path d="M17.097 5.56186C17.2213 5.55718 17.24 5.53139 17.24 5.50093C17.24 5.4728 17.2166 5.45874 17.1791 5.45874H17.1603V5.31576C16.7853 5.26889 16.6329 4.98763 16.6329 4.622V3.35634C16.6329 2.94852 16.8251 2.65086 17.2892 2.65086C17.7745 2.65086 17.9104 2.92039 17.9104 3.30712V3.6165H17.5096V3.27431C17.5096 3.11259 17.4557 3.01883 17.2963 3.01883C17.1369 3.01883 17.0713 3.13134 17.0713 3.28837V4.69231C17.0713 4.84935 17.1369 4.96185 17.2963 4.96185C17.4557 4.96185 17.5096 4.86107 17.5096 4.70637V4.22355H17.9104V4.67591C17.9104 5.04154 17.7651 5.31342 17.3291 5.32748V5.36264C17.4322 5.37905 17.4908 5.41655 17.4908 5.50093C17.4908 5.62046 17.3783 5.68609 17.1017 5.68609V5.56186H17.097Z" fill="white"/>
<path d="M18.0182 5.29465L18.5128 2.67896H19.0144L19.5113 5.29465H19.0589L18.9792 4.81651H18.5128L18.4354 5.29465H18.0182ZM18.3604 2.57583C18.3674 2.39536 18.4378 2.2477 18.63 2.2477C18.7425 2.2477 18.8339 2.31332 18.8925 2.31332C18.923 2.31332 18.9464 2.29457 18.9464 2.25473H19.162C19.155 2.4352 19.0847 2.58286 18.8925 2.58286C18.78 2.58286 18.6886 2.51723 18.63 2.51723C18.5995 2.51723 18.5761 2.53598 18.5761 2.57583H18.3604ZM18.569 4.46494H18.9206L18.7472 3.41491H18.7425L18.569 4.46494Z" fill="white"/>
<path d="M19.6354 4.61963V3.35397C19.6354 2.94615 19.837 2.64849 20.2987 2.64849C20.7605 2.64849 20.9668 2.94615 20.9668 3.35397V4.61963C20.9668 5.02511 20.7652 5.32511 20.2987 5.32511C19.8323 5.32511 19.6354 5.02511 19.6354 4.61963ZM20.5261 4.68994V3.286C20.5261 3.12897 20.4558 3.01646 20.2987 3.01646C20.1417 3.01646 20.076 3.12897 20.076 3.286V4.68994C20.076 4.84698 20.1464 4.95948 20.2987 4.95948C20.4511 4.95948 20.5261 4.84698 20.5261 4.68994Z" fill="white"/>
<path d="M22.821 3.38206V4.59381C22.821 4.9946 22.6546 5.29695 22.1834 5.29695H21.5037V2.68126H22.1834C22.6546 2.68126 22.821 2.97893 22.821 3.38441V3.38206ZM22.1295 4.93601C22.31 4.93601 22.3803 4.82819 22.3803 4.66881V3.30003C22.3803 3.14534 22.31 3.03752 22.1295 3.03752H21.9443V4.93601H22.1295Z" fill="white"/>
<path d="M23.0155 2.68131H24.0656V3.03992H23.4562V3.78759H23.8922V4.14151H23.4562V4.93606H24.0656V5.29466H23.0155V2.67897V2.68131Z" fill="white"/>
</g>
<defs>
<clipPath id="clip0_4014_93523">
<rect width="32" height="32" rx="4" fill="white"/>
</clipPath>
</defs>
</svg>
