<svg width="32" height="32" viewBox="0 0 32 32" fill="none" xmlns="http://www.w3.org/2000/svg">
<g clip-path="url(#clip0_4014_93524)">
<path d="M32 0H0V32H32V0Z" fill="#E1452F"/>
<path d="M5.10285 4.72509C4.6739 4.72509 4.35981 4.87744 4.1887 5.17276H4.17932V3.56491H6.04513V2.67895H3.19016V6.31419H4.17932V6.17122C4.17932 5.79152 4.35043 5.58058 4.65515 5.58058C4.98799 5.58058 5.1216 5.81027 5.1216 6.16185V7.72282C5.1216 8.06502 4.99737 8.30408 4.66453 8.30408C4.29418 8.30408 4.16057 8.05564 4.16057 7.67594V6.86733H3.16907V7.60094C3.16907 8.58065 3.55817 9.20879 4.66453 9.20879C5.77088 9.20879 6.20686 8.62753 6.20686 7.73454V6.15481C6.20686 5.1376 5.68416 4.72743 5.10285 4.72743" fill="white"/>
<path d="M23.3087 12.1081H19.3309C19.3028 12.1081 19.2794 12.1315 19.2794 12.1596V13.4816C19.2794 13.5097 19.3028 13.5331 19.3309 13.5331H20.9155L19.1575 15.291C18.2715 14.5949 17.1581 14.1777 15.9462 14.1777C13.0749 14.1777 10.7379 16.5144 10.7379 19.388C10.7379 22.0318 12.7186 24.2209 15.2759 24.5514V26.0748H13.7077C13.6796 26.0748 13.6562 26.0983 13.6562 26.1241V27.5397C13.6562 27.5678 13.6773 27.5913 13.7077 27.5913H15.2759V29.089C15.2759 29.1171 15.2993 29.1405 15.3274 29.1405H16.7432C16.7713 29.1405 16.7948 29.1171 16.7948 29.089V27.5913H18.3629C18.391 27.5913 18.4144 27.5678 18.4144 27.5397V26.1241C18.4144 26.0959 18.391 26.0748 18.3629 26.0748H16.7948V24.5279C19.2653 24.1224 21.1592 21.9732 21.1592 19.388C21.1592 18.2723 20.8053 17.241 20.2076 16.3926L21.9398 14.6581V16.1371C21.9398 16.1652 21.9632 16.1887 21.9914 16.1887H23.3134C23.3415 16.1887 23.3649 16.1652 23.3649 16.1371V12.1596C23.3649 12.1315 23.3415 12.1081 23.3134 12.1081M15.9509 23.2201C13.8367 23.2201 12.1162 21.4997 12.1162 19.3856C12.1162 17.2715 13.8367 15.5511 15.9509 15.5511C18.0652 15.5511 19.7857 17.2715 19.7857 19.3856C19.7857 21.4997 18.0652 23.2201 15.9509 23.2201Z" fill="white"/>
<path d="M18.2879 17.8129H13.6375C13.6094 17.8129 13.5883 17.834 13.5883 17.8574V18.9825C13.5883 19.0083 13.6117 19.0293 13.6375 19.0293H18.2879C18.3161 19.0293 18.3395 19.0106 18.3395 18.9825V17.8574C18.3395 17.834 18.3161 17.8129 18.2879 17.8129Z" fill="white"/>
<path d="M18.2879 19.8239H13.6375C13.6094 19.8239 13.5883 19.845 13.5883 19.8708V20.9958C13.5883 21.0216 13.6117 21.0403 13.6375 21.0403H18.2879C18.3161 21.0403 18.3395 21.0192 18.3395 20.9958V19.8708C18.3395 19.845 18.3161 19.8239 18.2879 19.8239Z" fill="white"/>
<path d="M10.4563 7.21664V8.42839C10.4563 8.82918 10.2899 9.13153 9.82111 9.13153H9.14136V6.51585H9.82111C10.2923 6.51585 10.4563 6.81351 10.4563 7.21899V7.21664ZM9.76486 8.77059C9.94534 8.77059 10.0157 8.66277 10.0157 8.50339V7.13461C10.0157 6.97992 9.94534 6.87211 9.76486 6.87211H9.57968V8.77059H9.76486Z" fill="white"/>
<path d="M10.7377 6.51582H11.7878V6.87442H11.1783V7.62209H11.6143V7.97601H11.1783V8.77056H11.7878V9.12916H10.7377V6.51347V6.51582Z" fill="white"/>
<path d="M13.1518 7.73461H13.7777V9.13152H13.4613V8.84557C13.4027 9.04245 13.2808 9.16199 13.0417 9.16199C12.6643 9.16199 12.4908 8.86198 12.4908 8.4565V7.19085C12.4908 6.78302 12.6877 6.48536 13.1495 6.48536C13.6347 6.48536 13.7777 6.7549 13.7777 7.14163V7.37366H13.3769V7.10647C13.3769 6.94475 13.3159 6.85099 13.1565 6.85099C12.9971 6.85099 12.9292 6.9635 12.9292 7.12053V8.52447C12.9292 8.68151 12.9948 8.79401 13.1448 8.79401C13.2948 8.79401 13.3605 8.71198 13.3605 8.54322V8.08149H13.1518V7.73461Z" fill="white"/>
<path d="M14.0591 6.51581H15.1092V6.87441H14.4998V7.62209H14.9357V7.976H14.4998V8.77055H15.1092V9.12916H14.0591V6.51347V6.51581ZM14.2396 6.41972V6.20643L14.5162 6.00252H14.7084L14.9873 6.20643V6.41972L14.6169 6.30721L14.2396 6.41972Z" fill="white"/>
<path d="M15.7444 7.48615V9.12916H15.374V6.51347H15.8053L16.2788 8.01351V6.51347H16.6445V9.12916H16.2577L15.7397 7.48615H15.7444Z" fill="white"/>
<path d="M16.9304 6.51582H17.9805V6.87442H17.3711V7.62209H17.8071V7.97601H17.3711V8.77056H17.9805V9.12916H16.9304V6.51347V6.51582Z" fill="white"/>
<path d="M18.6837 7.93151V9.13153H18.243V6.51585H18.8829C19.326 6.51585 19.4877 6.73616 19.4877 7.1018V7.43696C19.4877 7.71822 19.3869 7.88463 19.1361 7.94322L19.5557 9.13153H19.0916L18.679 7.93151H18.6837ZM18.6837 6.87445V7.68775H18.829C18.9791 7.68775 19.0447 7.6104 19.0447 7.47212V7.08539C19.0447 6.94242 18.9791 6.87445 18.829 6.87445H18.6837Z" fill="white"/>
<path d="M19.7572 8.45414V7.18848C19.7572 6.78066 19.9588 6.48299 20.4205 6.48299C20.8823 6.48299 21.0886 6.78066 21.0886 7.18848V8.45414C21.0886 8.85961 20.887 9.15962 20.4205 9.15962C19.9541 9.15962 19.7572 8.85961 19.7572 8.45414ZM20.6479 8.52445V7.12051C20.6479 6.96347 20.5776 6.85097 20.4205 6.85097C20.2635 6.85097 20.1955 6.96347 20.1955 7.12051V8.52445C20.1955 8.68148 20.2658 8.79399 20.4205 8.79399C20.5753 8.79399 20.6479 8.68148 20.6479 8.52445Z" fill="white"/>
<path d="M9.14136 2.68127H9.58203V5.29696H9.14136V2.68127Z" fill="white"/>
<path d="M10.5361 3.90004H11.162V5.29695H10.8455V5.011C10.7869 5.20788 10.665 5.32742 10.426 5.32742C10.0486 5.32742 9.87512 5.02741 9.87512 4.62193V3.35627C9.87512 2.94845 10.072 2.65079 10.5338 2.65079C11.019 2.65079 11.162 2.92033 11.162 3.30705V3.53909H10.7611V3.2719C10.7611 3.11017 10.7002 3.01642 10.5408 3.01642C10.3814 3.01642 10.3134 3.12892 10.3134 3.28596V4.6899C10.3134 4.84693 10.3791 4.95944 10.5291 4.95944C10.6721 4.95944 10.7447 4.8774 10.7447 4.70865V4.24692H10.5361V3.90004Z" fill="white"/>
<path d="M12.7277 2.68127V4.65944C12.7277 5.06492 12.5542 5.32743 12.1065 5.32743C11.6588 5.32743 11.4502 5.06492 11.4502 4.65944V2.68127H11.8909V4.70163C11.8909 4.85632 11.9518 4.95945 12.1065 4.95945C12.2612 4.95945 12.3222 4.85632 12.3222 4.70163V2.68127H12.7277Z" fill="white"/>
<path d="M12.9481 5.29459L13.4427 2.6789H13.9443L14.4412 5.29459H13.9888L13.9092 4.81645H13.4427L13.3653 5.29459H12.9481ZM13.499 4.46488H13.8506L13.6771 3.41486H13.6724L13.499 4.46488Z" fill="white"/>
<path d="M14.6614 2.68127H15.102V4.93836H15.6271V5.29696H14.6637V2.68127H14.6614Z" fill="white"/>
<path d="M17.1789 3.38207V4.59382C17.1789 4.99461 17.0125 5.29696 16.5413 5.29696H15.8616V2.68127H16.5413C17.0125 2.68127 17.1789 2.97893 17.1789 3.38441V3.38207ZM16.4874 4.93601C16.6679 4.93601 16.7382 4.8282 16.7382 4.66882V3.30004C16.7382 3.14534 16.6679 3.03753 16.4874 3.03753H16.3022V4.93601H16.4874Z" fill="white"/>
<path d="M17.3992 5.29459L17.8938 2.6789H18.3954L18.8923 5.29459H18.4399L18.3579 4.81645H17.8914L17.8141 5.29459H17.3969H17.3992ZM17.95 4.46488H18.3016L18.1282 3.41486H18.1235L17.95 4.46488Z" fill="white"/>
<path d="M20.4278 3.38207V4.59382C20.4278 4.99461 20.2613 5.29696 19.7925 5.29696H19.1128V2.68127H19.7925C20.2637 2.68127 20.4278 2.97893 20.4278 3.38441V3.38207ZM19.7363 4.93601C19.9168 4.93601 19.9871 4.8282 19.9871 4.66882V3.30004C19.9871 3.14534 19.9168 3.03753 19.7363 3.03753H19.5511V4.93601H19.7363Z" fill="white"/>
<path d="M20.7184 2.68125H21.7685V3.03985H21.1591V3.78752H21.595V4.14144H21.1591V4.93599H21.7685V5.29459H20.7184V2.6789V2.68125Z" fill="white"/>
</g>
<defs>
<clipPath id="clip0_4014_93524">
<rect width="32" height="32" rx="4" fill="white"/>
</clipPath>
</defs>
</svg>
