<svg width="32" height="32" viewBox="0 0 32 32" fill="none" xmlns="http://www.w3.org/2000/svg">
<g clip-path="url(#clip0_4024_127818)">
<path d="M32 0H0V32H32V0Z" fill="#30B0D2"/>
<path d="M4.84265 9.21819C5.99355 9.21819 6.44125 8.59005 6.44125 7.58925V6.63766C6.44125 5.5806 6.02167 5.04856 5.24113 5.04856C4.78405 5.04856 4.50981 5.25716 4.34573 5.57123H4.33635V4.18135C4.33635 3.78993 4.46058 3.51571 4.84969 3.51571C5.23879 3.51571 5.35364 3.7454 5.35364 4.14385V4.57277H6.3428V4.23057C6.3428 3.27898 6.02871 2.61334 4.83093 2.61334C3.63316 2.61334 3.26047 3.34461 3.26047 4.35479V7.49549C3.26047 8.49396 3.69879 9.21819 4.84031 9.21819M4.33635 6.50641C4.35511 6.14546 4.50746 5.91577 4.84969 5.91577C5.22003 5.91577 5.36302 6.14312 5.36302 6.56266V7.68534C5.36302 8.09316 5.21066 8.33223 4.84031 8.33223C4.46996 8.33223 4.33635 8.08379 4.33635 7.68534V6.50406V6.50641Z" fill="white"/>
<path d="M21.8951 12.9402C21.867 12.912 21.8318 12.8933 21.7896 12.8933H10.1799C10.14 12.8933 10.1025 12.9097 10.0744 12.9402C10.0486 12.973 10.0392 13.0128 10.0463 13.0503L11.9965 24.8467C12.0058 24.9123 12.0644 24.9615 12.1301 24.9615H14.5233L14.6874 26.8835H13.6794L16.0234 29.2273L18.3721 26.8788H17.3642L17.5283 24.9615H19.9637C20.0316 24.9615 20.0879 24.9123 20.0973 24.8467L21.9232 13.0527C21.9303 13.0128 21.9185 12.973 21.8928 12.9425M17.4064 22.3857C17.4064 22.3857 16.879 22.9271 16.0211 22.8685C15.1608 22.9271 14.6358 22.3857 14.6358 22.3857C13.7662 21.5161 14.0756 20.4357 14.378 19.8778C14.5655 19.5286 15.9015 17.5223 16.0164 17.3512V17.3371C16.0164 17.3371 16.0164 17.3395 16.0211 17.3442L16.0258 17.3371V17.3512C16.1383 17.5223 17.4767 19.5286 17.6642 19.8778C17.9666 20.4357 18.276 21.5185 17.4064 22.3857ZM21.0888 15.4246C20.7747 15.2863 20.3762 15.3355 19.9918 15.4902C18.5502 16.0738 17.5705 16.2848 16.0562 15.809C15.1022 15.5113 14.2092 14.8855 13.1544 15.2652C12.4535 15.5183 11.8019 15.7574 11.0097 15.7504L10.5526 13.4066H21.4169L21.0888 15.4222V15.4246Z" fill="white"/>
<path d="M9.17433 6.51344H10.2244V6.87205H9.615V7.61972H10.051V7.97364H9.615V8.76819H10.2244V9.12679H9.17433V6.5111V6.51344Z" fill="white"/>
<path d="M10.8362 8.56662V8.21504H11.2464V8.57365C11.2464 8.72131 11.312 8.80568 11.4621 8.80568C11.6003 8.80568 11.6636 8.71193 11.6636 8.57365V8.47286C11.6636 8.32286 11.6027 8.22911 11.4667 8.10254L11.2089 7.84472C10.9581 7.59862 10.8432 7.44628 10.8432 7.14627V7.0572C10.8432 6.73376 11.0331 6.48297 11.4597 6.48297C11.8863 6.48297 12.0738 6.6986 12.0738 7.07595V7.28924H11.673V7.06189C11.673 6.91189 11.6027 6.83923 11.4644 6.83923C11.3402 6.83923 11.2558 6.90954 11.2558 7.05486V7.10877C11.2558 7.25643 11.3378 7.3408 11.4644 7.46268L11.7457 7.7416C11.9848 7.98535 12.0996 8.13067 12.0996 8.4213V8.54787C12.0996 8.90647 11.9074 9.16194 11.4597 9.16194C11.012 9.16194 10.8386 8.91116 10.8386 8.56896L10.8362 8.56662Z" fill="white"/>
<path d="M12.2567 9.12913L12.7512 6.51344H13.2529L13.7498 9.12913H13.2974L13.2154 8.65099H12.7489L12.6715 9.12913H12.2543H12.2567ZM12.8075 8.29942H13.1591L12.9856 7.2494H12.981L12.8075 8.29942Z" fill="white"/>
<path d="M14.3006 7.48612V9.12913H13.9303V6.51344H14.3616L14.835 8.01348V6.51344H15.2007V9.12913H14.8139L14.2959 7.48612H14.3006Z" fill="white"/>
<path d="M15.4539 6.51344H16.504V6.87205H15.8945V7.61972H16.3305V7.97364H15.8945V8.76819H16.504V9.12679H15.4539V6.5111V6.51344Z" fill="white"/>
<path d="M16.6657 9.12913L17.1603 6.51344H17.6619L18.1588 9.12913H17.7064L17.6244 8.65099H17.1579L17.0806 9.12913H16.6633H16.6657ZM17.2165 8.29942H17.5681L17.3947 7.2494H17.39L17.2165 8.29942Z" fill="white"/>
<path d="M19.5511 7.43221H19.5394L19.2417 9.12913H19.0378L18.7096 7.43221H18.7026V9.12913H18.3393V6.51344H18.8526L19.1386 7.9877H19.1433L19.3988 6.51344H19.9543V9.12913H19.5535V7.43221H19.5511Z" fill="white"/>
<path d="M20.2028 6.51344H21.2529V6.87205H20.6434V7.61972H21.0794V7.97364H20.6434V8.76819H21.2529V9.12679H20.2028V6.5111V6.51344Z" fill="white"/>
<path d="M21.8553 7.48612V9.12913H21.4849V6.51344H21.9162L22.3897 8.01348V6.51344H22.7553V9.12913H22.3686L21.8506 7.48612H21.8553Z" fill="white"/>
<path d="M22.9569 6.51344H24.1266V6.87205H23.7633V9.12913H23.3203V6.87205H22.9569V6.51344Z" fill="white"/>
<path d="M24.3305 8.45411V7.18846C24.3305 6.78063 24.5321 6.48297 24.9939 6.48297C25.4556 6.48297 25.6619 6.78063 25.6619 7.18846V8.45411C25.6619 8.85959 25.4603 9.1596 24.9939 9.1596C24.5274 9.1596 24.3305 8.85959 24.3305 8.45411ZM25.2212 8.52443V7.12049C25.2212 6.96111 25.1509 6.85095 24.9939 6.85095C24.8368 6.85095 24.7712 6.96345 24.7712 7.12049V8.52443C24.7712 8.68146 24.8415 8.79396 24.9939 8.79396C25.1462 8.79396 25.2212 8.68146 25.2212 8.52443Z" fill="white"/>
<path d="M9.08526 5.27357L9.57984 2.65788H10.0815L10.5784 5.27357H10.126L10.0439 4.79543H9.5775L9.50014 5.27357H9.08292H9.08526ZM10.1893 2.47272L9.4978 2.56178V2.31568L10.1893 2.17036V2.47506V2.47272ZM9.63844 4.44386H9.99004L9.81658 3.39383H9.81189L9.63844 4.44386Z" fill="white"/>
<path d="M11.4621 3.87666H12.0879V5.27357H11.7715V4.98762C11.7129 5.1845 11.591 5.30403 11.3519 5.30403C10.9745 5.30403 10.8011 5.00403 10.8011 4.59855V3.33289C10.8011 2.92507 10.9979 2.62741 11.4597 2.62741C11.9449 2.62741 12.0879 2.89694 12.0879 3.28367V3.51571H11.6871V3.24852C11.6871 3.08679 11.6261 2.99304 11.4667 2.99304C11.3074 2.99304 11.2394 3.10554 11.2394 3.26258V4.66652C11.2394 4.8259 11.305 4.93606 11.455 4.93606C11.605 4.93606 11.6707 4.85402 11.6707 4.68527V4.2212H11.4621V3.87431V3.87666Z" fill="white"/>
<path d="M13.6537 2.65788V4.63605C13.6537 5.04153 13.4802 5.30403 13.0325 5.30403C12.5848 5.30403 12.3762 5.04153 12.3762 4.63605V2.65788H12.8169V4.67824C12.8169 4.83293 12.8778 4.93606 13.0325 4.93606C13.1872 4.93606 13.2482 4.83293 13.2482 4.67824V2.65788H13.6537Z" fill="white"/>
<path d="M13.8693 5.27356L14.3639 2.65788H14.8655L15.3624 5.27356H14.91L14.828 4.79543H14.3616L14.2842 5.27356H13.867H13.8693ZM14.4202 4.44386H14.7717L14.5983 3.39383H14.5936L14.4202 4.44386Z" fill="white"/>
<path d="M16.0211 2.65788H16.6727C17.1157 2.65788 17.2775 2.87819 17.2775 3.24383V3.79462C17.2775 4.16026 17.1157 4.38526 16.6727 4.38526H16.4594V5.27356H16.0188V2.65788H16.0211ZM16.4618 3.01648V4.04775H16.6235C16.7735 4.04775 16.8391 3.97509 16.8391 3.83212V3.22976C16.8391 3.08679 16.7735 3.01648 16.6235 3.01648H16.4618Z" fill="white"/>
<path d="M17.5447 4.59855V3.33289C17.5447 2.92507 17.7463 2.62741 18.208 2.62741C18.6698 2.62741 18.8761 2.92507 18.8761 3.33289V4.59855C18.8761 5.00403 18.6745 5.30403 18.208 5.30403C17.7416 5.30403 17.5447 5.00403 17.5447 4.59855ZM18.4354 4.66886V3.26492C18.4354 3.10789 18.3651 2.99538 18.208 2.99538C18.051 2.99538 17.983 3.10789 17.983 3.26492V4.66886C17.983 4.82824 18.0533 4.9384 18.208 4.9384C18.3627 4.9384 18.4354 4.8259 18.4354 4.66886Z" fill="white"/>
<path d="M19.1151 2.65788H20.2848V3.01648H19.9215V5.27356H19.4785V3.01648H19.1151V2.65788Z" fill="white"/>
<path d="M20.4582 5.27357L20.9528 2.65788H21.4544L21.9514 5.27357H21.499L21.4169 4.79543H20.9505L20.8731 5.27357H20.4559H20.4582ZM21.5623 2.47272L20.8708 2.56178V2.31568L21.5623 2.17036V2.47506V2.47272ZM21.0114 4.44386H21.363L21.1896 3.39383H21.1849L21.0114 4.44386Z" fill="white"/>
<path d="M23.5781 2.65788L23.0812 5.27356H22.603L22.1061 2.65788H22.5538L22.8538 4.4837H22.8585L23.1679 2.65788H23.5804H23.5781Z" fill="white"/>
<path d="M23.7984 2.65788H24.8485V3.01648H24.2391V3.76416H24.6751V4.11807H24.2391V4.91262H24.8485V5.27123H23.7984V2.65554V2.65788Z" fill="white"/>
<path d="M25.1181 2.65788H25.5588V4.91496H26.0838V5.27356H25.1204V2.65788H25.1181Z" fill="white"/>
</g>
<defs>
<clipPath id="clip0_4024_127818">
<rect width="32" height="32" rx="4" fill="white"/>
</clipPath>
</defs>
</svg>
