<svg width="32" height="32" viewBox="0 0 32 32" fill="none" xmlns="http://www.w3.org/2000/svg">
<g clip-path="url(#clip0_4014_93526)">
<path d="M32 0H0V32H32V0Z" fill="#EEBC28"/>
<path d="M3.28149 3.56727H4.95744L3.5112 9.13381H4.58709L6.0052 3.68212V2.68131H3.28149V3.56727Z" fill="white"/>
<path d="M16.0118 15.5043C13.4217 15.5043 11.3215 17.6044 11.3215 20.1943C11.3215 22.7842 13.4217 24.8842 16.0118 24.8842C18.6019 24.8842 20.7021 22.7842 20.7021 20.1943C20.7021 17.6044 18.6019 15.5043 16.0118 15.5043ZM15.6649 17.3559C15.6649 17.1989 15.822 17.0278 16.0142 17.0278C16.2064 17.0278 16.3611 17.1989 16.3611 17.3559V18.9661C16.3611 19.1208 16.2064 19.2919 16.0142 19.2919C15.822 19.2919 15.6649 19.1208 15.6649 18.9661V17.3559ZM16.0118 22.5967C14.664 22.5967 13.5718 21.5045 13.5718 20.1568C13.5718 19.0622 14.2937 18.1364 15.2852 17.827V18.7364C14.7672 19.0013 14.4132 19.538 14.4132 20.1591C14.4132 21.0404 15.1282 21.7553 16.0095 21.7553C16.8908 21.7553 17.6057 21.0404 17.6057 20.1591C17.6057 19.5357 17.2495 18.9989 16.7291 18.7364V17.8294C17.7253 18.1364 18.4472 19.0646 18.4472 20.1615C18.4472 21.5092 17.3549 22.6014 16.0071 22.6014" fill="white"/>
<path d="M10.6277 20.1521C10.6277 19.9388 10.4402 19.7677 10.2667 19.7677H8.21341C8.03996 19.7677 7.8501 19.9412 7.8501 20.1521C7.8501 20.363 8.03996 20.5388 8.21341 20.5388H10.2667C10.4378 20.5388 10.6277 20.3654 10.6277 20.1521Z" fill="white"/>
<path d="M24.1759 20.1521C24.1759 19.9388 23.9884 19.7677 23.815 19.7677H21.7616C21.5882 19.7677 21.3983 19.9412 21.3983 20.1521C21.3983 20.363 21.5882 20.5388 21.7616 20.5388H23.815C23.9861 20.5388 24.1759 20.3654 24.1759 20.1521Z" fill="white"/>
<path d="M16.0141 14.7683C16.2274 14.7683 16.3985 14.5808 16.3985 14.4074V12.3542C16.3985 12.1808 16.225 11.9909 16.0141 11.9909C15.8031 11.9909 15.6273 12.1808 15.6273 12.3542V14.4074C15.6273 14.5785 15.8008 14.7683 16.0141 14.7683Z" fill="white"/>
<path d="M16.0141 28.3156C16.2274 28.3156 16.3985 28.1281 16.3985 27.9546V25.9015C16.3985 25.728 16.225 25.5382 16.0141 25.5382C15.8031 25.5382 15.6273 25.728 15.6273 25.9015V27.9546C15.6273 28.1257 15.8008 28.3156 16.0141 28.3156Z" fill="white"/>
<path d="M11.3403 17.4778C11.4458 17.2927 11.3685 17.0512 11.2184 16.9645L9.43701 15.945C9.287 15.8582 9.03619 15.9145 8.93071 16.0973C8.82524 16.2825 8.90493 16.5262 9.05495 16.613L10.8364 17.6325C10.9864 17.7169 11.2348 17.6606 11.3403 17.4755" fill="white"/>
<path d="M23.0975 24.2069C23.203 24.0217 23.1256 23.7803 22.9756 23.6936L21.1942 22.674C21.0442 22.5873 20.7934 22.6435 20.6879 22.8287C20.5824 23.0139 20.6598 23.2576 20.8121 23.3443L22.5936 24.3639C22.7436 24.4483 22.992 24.392 23.0975 24.2069Z" fill="white"/>
<path d="M18.6886 15.4809C18.8738 15.5864 19.1152 15.509 19.2019 15.359L20.2216 13.5777C20.3083 13.4277 20.252 13.1769 20.0692 13.0715C19.884 12.966 19.6403 13.0457 19.5535 13.1957L18.5339 14.977C18.4495 15.127 18.5058 15.3754 18.6909 15.4809" fill="white"/>
<path d="M11.959 27.2374C12.1442 27.3429 12.3856 27.2655 12.4723 27.1155L13.492 25.3342C13.5787 25.1842 13.5224 24.9334 13.3373 24.828C13.1521 24.7225 12.9083 24.8022 12.8216 24.9522L11.802 26.7335C11.7176 26.8835 11.7738 27.1319 11.959 27.2374Z" fill="white"/>
<path d="M13.3303 15.4856C13.5155 15.3801 13.5694 15.1317 13.485 14.9817L12.4607 13.2004C12.3739 13.0504 12.1302 12.9707 11.945 13.0785C11.7598 13.184 11.7059 13.4347 11.7903 13.5848L12.8146 15.3637C12.9013 15.5137 13.1428 15.5887 13.3303 15.4832" fill="white"/>
<path d="M20.0834 27.228C20.2685 27.1226 20.3224 26.8718 20.2381 26.7241L19.2137 24.9428C19.127 24.7928 18.8832 24.7131 18.6981 24.8209C18.5129 24.9264 18.4566 25.1772 18.5457 25.3295L19.57 27.1085C19.6567 27.2585 19.9005 27.3335 20.0834 27.228Z" fill="white"/>
<path d="M20.681 17.4684C20.7864 17.6536 21.0349 17.7075 21.1849 17.6231L22.964 16.5989C23.114 16.5121 23.1937 16.2684 23.0882 16.0832C22.9827 15.8981 22.7319 15.8418 22.5796 15.9285L20.7982 16.9528C20.6481 17.0395 20.5708 17.2833 20.6786 17.4684" fill="white"/>
<path d="M8.93758 24.2233C9.04306 24.4084 9.29152 24.4624 9.44153 24.378L11.2206 23.3537C11.3706 23.267 11.4503 23.0233 11.3448 22.8381C11.2394 22.6529 10.9886 22.5967 10.8385 22.6834L9.05712 23.7077C8.90711 23.7944 8.8321 24.0381 8.93758 24.2233Z" fill="white"/>
<path d="M9.13672 2.67197H10.1868V3.03057H9.57739V3.77825H10.0134V4.13216H9.57739V4.92671H10.1868V5.28531H9.13672V2.66962V2.67197Z" fill="white"/>
<path d="M10.7705 3.64225V5.28526H10.4001V2.66957H10.8314L11.3049 4.16961V2.66957H11.6706V5.28526H11.2838L10.7658 3.64225H10.7705Z" fill="white"/>
<path d="M11.9027 2.67191H12.9528V3.03052H12.3434V3.77819H12.7794V4.13211H12.3434V4.92666H12.9528V5.28526H11.9027V2.66957V2.67191Z" fill="white"/>
<path d="M13.6138 4.08754V5.28756H13.1731V2.67188H13.813C14.256 2.67188 14.4177 2.89219 14.4177 3.25783V3.59299C14.4177 3.87425 14.317 4.04066 14.0662 4.09925L14.4857 5.28756H14.0216L13.6091 4.08754H13.6138ZM13.6138 3.03048V3.84378H13.7614C13.9114 3.84378 13.9771 3.76643 13.9771 3.62815V3.24142C13.9771 3.09845 13.9114 3.02813 13.7614 3.02813H13.6138V3.03048Z" fill="white"/>
<path d="M15.264 3.89064H15.8899V5.28755H15.5734V5.0016C15.5148 5.19848 15.3929 5.31802 15.1539 5.31802C14.7765 5.31802 14.603 5.01801 14.603 4.61253V3.34687C14.603 2.93905 14.7999 2.64139 15.2617 2.64139C15.7469 2.64139 15.8899 2.91093 15.8899 3.29765V3.52969H15.4891V3.2625C15.4891 3.10077 15.4281 3.00702 15.2687 3.00702C15.1093 3.00702 15.0414 3.11952 15.0414 3.27656V4.6805C15.0414 4.83754 15.107 4.95004 15.257 4.95004C15.4 4.95004 15.4726 4.868 15.4726 4.69925V4.23518H15.264V3.88829V3.89064Z" fill="white"/>
<path d="M16.0819 2.67188H16.5226V5.28756H16.0819V2.67188Z" fill="white"/>
<path d="M16.6492 5.28519L17.1438 2.6695H17.6454L18.1423 5.28519H17.6899L17.6079 4.80705H17.1414L17.0641 5.28519H16.6469H16.6492ZM17.2 4.45548H17.5516L17.3782 3.40546H17.3735L17.2 4.45548Z" fill="white"/>
<path d="M18.6111 2.67188H19.0518V4.92896H19.5768V5.28756H18.6134V2.67188H18.6111Z" fill="white"/>
<path d="M19.7197 2.67188H20.1604V5.28756H19.7197V2.67188Z" fill="white"/>
<path d="M21.5669 3.58827H21.5552L21.2575 5.28519H21.0536L20.7255 3.58827H20.7184V5.28519H20.3551V2.6695H20.8684L21.1544 4.14376H21.1591L21.4146 2.6695H21.9701V5.28519H21.5693V3.58827H21.5669Z" fill="white"/>
<path d="M22.1623 2.67188H22.8139C23.2569 2.67188 23.4186 2.89219 23.4186 3.25783V3.80862C23.4186 4.17426 23.2569 4.39926 22.8139 4.39926H22.6006V5.28756H22.1599V2.67188H22.1623ZM22.6029 3.03048V4.05941H22.7647C22.9147 4.05941 22.9803 3.98675 22.9803 3.84378V3.24142C22.9803 3.09845 22.9147 3.02813 22.7647 3.02813H22.6029V3.03048Z" fill="white"/>
<path d="M23.5194 5.28519L24.014 2.6695H24.5156L25.0125 5.28519H24.5602L24.4781 4.80705H24.0117L23.9343 5.28519H23.5171H23.5194ZM24.0703 4.45548H24.4219L24.2484 3.40546H24.2437L24.0703 4.45548Z" fill="white"/>
<path d="M9.13452 6.52278H10.1776V6.87904H9.5705V7.62437H10.0041V7.97829H9.5705V8.76815H10.1776V9.12441H9.13452V6.52278Z" fill="white"/>
<path d="M10.6322 9.12441L11.1244 6.52278H11.6237L12.1183 9.12441H11.6682L11.5885 8.64861H11.1244L11.0471 9.12441H10.6322ZM11.1807 8.29939H11.5299L11.3565 7.25639H11.3518L11.1783 8.29939H11.1807Z" fill="white"/>
<path d="M12.2402 8.45414V7.19551C12.2402 6.78769 12.4324 6.49237 12.8919 6.49237C13.3747 6.49237 13.5107 6.76191 13.5107 7.14395V7.45099H13.1122V7.10879C13.1122 6.94707 13.0583 6.85566 12.9012 6.85566C12.7442 6.85566 12.6786 6.96582 12.6786 7.1252V8.52211C12.6786 8.67914 12.7442 8.79165 12.9012 8.79165C13.0583 8.79165 13.1122 8.69086 13.1122 8.53851V8.05803H13.5107V8.50804C13.5107 8.88071 13.3583 9.15728 12.8919 9.15728C12.4254 9.15728 12.2402 8.85727 12.2402 8.45414Z" fill="white"/>
<path d="M13.6913 6.52278H14.7344V6.87904H14.1273V7.62437H14.5609V7.97829H14.1273V8.76815H14.7344V9.12441H13.6913V6.52278Z" fill="white"/>
<path d="M14.8866 8.56428V8.21505H15.2944V8.57131C15.2944 8.71662 15.3601 8.801 15.5101 8.801C15.6484 8.801 15.7093 8.70959 15.7093 8.57131V8.47052C15.7093 8.32052 15.6484 8.22911 15.5124 8.10254L15.2546 7.84473C15.0061 7.59863 14.8889 7.44862 14.8889 7.15096V7.06189C14.8889 6.73845 15.0765 6.49001 15.5031 6.49001C15.9297 6.49001 16.1125 6.70564 16.1125 7.08064V7.29159H15.714V7.06424C15.714 6.91423 15.646 6.84158 15.5078 6.84158C15.3859 6.84158 15.3015 6.90955 15.3015 7.05721V7.11111C15.3015 7.25643 15.3812 7.34081 15.5078 7.46503L15.789 7.7416C16.0281 7.98301 16.143 8.12833 16.143 8.41662V8.54318C16.143 8.89944 15.9508 9.15257 15.5054 9.15257C15.0601 9.15257 14.8866 8.90413 14.8866 8.56193V8.56428Z" fill="white"/>
<path d="M16.293 8.56428V8.21505H16.7008V8.57131C16.7008 8.71662 16.7665 8.801 16.9165 8.801C17.0548 8.801 17.1157 8.70959 17.1157 8.57131V8.47052C17.1157 8.32052 17.0548 8.22911 16.9212 8.10254L16.6633 7.84473C16.4149 7.59863 16.2977 7.44862 16.2977 7.15096V7.06189C16.2977 6.73845 16.4852 6.49001 16.9118 6.49001C17.3384 6.49001 17.5212 6.70564 17.5212 7.08064V7.29159H17.1227V7.06424C17.1227 6.91423 17.0548 6.84158 16.9165 6.84158C16.7946 6.84158 16.7102 6.90955 16.7102 7.05721V7.11111C16.7102 7.25643 16.7899 7.34081 16.9165 7.46503L17.1977 7.7416C17.4345 7.98301 17.5517 8.12833 17.5517 8.41662V8.54318C17.5517 8.89944 17.3595 9.15257 16.9141 9.15257C16.4688 9.15257 16.2953 8.90413 16.2953 8.56193L16.293 8.56428Z" fill="white"/>
<path d="M18.2947 6.33999L17.6079 6.42906V6.18296L18.2947 6.03764V6.33999ZM17.7181 6.52516H18.1564V9.12678H17.7181V6.52516Z" fill="white"/>
<path d="M19.755 6.52278L19.2604 9.12441H18.7846L18.29 6.52278H18.7354L19.0354 8.33689H19.0401L19.3472 6.52278H19.7574H19.755Z" fill="white"/>
<path d="M19.877 6.52278H20.92V6.87904H20.3129V7.62437H20.7466V7.97829H20.3129V8.76815H20.92V9.12441H19.877V6.52278Z" fill="white"/>
<path d="M21.0981 6.52278H21.5365V8.76815H22.0592V9.12441H21.1005V6.52278H21.0981Z" fill="white"/>
</g>
<defs>
<clipPath id="clip0_4014_93526">
<rect width="32" height="32" rx="4" fill="white"/>
</clipPath>
</defs>
</svg>
