<svg width="32" height="32" viewBox="0 0 32 32" fill="none" xmlns="http://www.w3.org/2000/svg">
<g clip-path="url(#clip0_4014_93527)">
<path d="M32 0H0V32H32V0Z" fill="#9A2242"/>
<path d="M6.2186 7.55407V6.84858C6.2186 6.22981 6.00061 5.78215 5.49431 5.5548C5.92326 5.3462 6.1225 4.96416 6.1225 4.43211V4.16492C6.1225 3.15708 5.59979 2.61332 4.59891 2.61332C3.59803 2.61332 3.09642 3.15474 3.09642 4.16492V4.43211C3.09642 4.95478 3.28628 5.3462 3.70586 5.5548C3.2019 5.78449 2.99329 6.22981 2.99329 6.84858V7.55407C2.99329 8.53378 3.45974 9.21817 4.60126 9.21817C5.74277 9.21817 6.2186 8.53378 6.2186 7.55407ZM4.11605 4.09929C4.11605 3.70788 4.24966 3.48053 4.60126 3.48053C4.95285 3.48053 5.09583 3.71022 5.09583 4.09929V4.53759C5.09583 4.92666 4.96223 5.15635 4.60126 5.15635C4.24028 5.15635 4.11605 4.92666 4.11605 4.53759V4.09929ZM5.13334 7.66657C5.13334 8.05564 4.99036 8.33221 4.60126 8.33221C4.21215 8.33221 4.07855 8.05564 4.07855 7.66657V6.61889C4.07855 6.22981 4.22153 5.95324 4.60126 5.95324C4.98098 5.95324 5.13334 6.22981 5.13334 6.61889V7.66657Z" fill="white"/>
<path d="M22.0733 15.7433L18.8198 18.8372C18.6956 18.9591 18.6346 19.0505 18.6346 19.3012V27.9733C18.6346 28.0741 18.7167 28.1585 18.8198 28.1585H22.1787C22.2819 28.1585 22.3639 28.0765 22.3639 27.9733V15.8207C22.3639 15.7176 22.2842 15.5324 22.0709 15.7433" fill="white"/>
<path d="M12.7019 19.7747L9.44848 22.8685C9.32659 22.9904 9.26331 23.0795 9.26331 23.3326V27.9733C9.26331 28.0741 9.34535 28.1585 9.44848 28.1585H12.8074C12.9105 28.1585 12.9926 28.0741 12.9926 27.9733V19.852C12.9926 19.7489 12.9129 19.5614 12.6996 19.7747" fill="white"/>
<path d="M23.5499 11.9909C23.5499 11.9675 23.5429 11.9394 23.5218 11.9206C23.5054 11.9042 23.4819 11.8948 23.4632 11.8948H23.4444L23.4186 11.8972L20.9293 12.4597L20.8848 12.4644C20.866 12.4691 20.8496 12.4761 20.8356 12.4901C20.7981 12.5276 20.7981 12.5862 20.8356 12.6237L20.8637 12.6519L21.4333 13.2214L15.789 18.8653L13.1825 16.259C13.152 16.2285 13.1051 16.2285 13.077 16.259L12.3691 16.9668L8.1898 21.1435C8.16167 21.174 8.16167 21.2208 8.1898 21.249L8.89768 21.9568C8.92581 21.9873 8.97269 21.9873 9.00316 21.9568L13.1286 17.8317L15.0202 19.7231C15.0202 19.7231 15.0225 19.7302 15.0248 19.7325L15.7327 20.438C15.7609 20.4685 15.8101 20.4685 15.8382 20.438L22.2443 14.0347L22.842 14.6324C22.8795 14.6699 22.9381 14.6699 22.9756 14.6324C22.992 14.616 23.0014 14.5949 23.0014 14.5714V14.5644L23.5499 12.0214V11.9933V11.9909Z" fill="white"/>
<path d="M17.4064 20.3161L15.8336 21.9029C15.8031 21.9263 15.7609 21.9263 15.7328 21.8982L14.3076 20.445C14.0475 20.1849 13.9912 20.3958 13.9912 20.4989V27.9733C13.9912 28.0741 14.0733 28.1585 14.1764 28.1585H17.5377C17.6384 28.1585 17.7228 28.0741 17.7228 27.9733V20.3771C17.7228 20.2739 17.6431 20.0864 17.4111 20.3185" fill="white"/>
<path d="M8.15259 2.47972H9.32223V2.83832H8.95892V5.09541H8.51591V2.83832H8.15259V2.47972Z" fill="white"/>
<path d="M9.99255 3.89538V5.09541H9.55188V2.47972H10.1918C10.6348 2.47972 10.7965 2.70004 10.7965 3.06567V3.40084C10.7965 3.68209 10.6957 3.8485 10.4449 3.9071L10.8645 5.09541H10.4004L9.98786 3.89538H9.99255ZM9.99255 2.83832V3.65162H10.1402C10.2902 3.65162 10.3559 3.57428 10.3559 3.43599V3.04927C10.3559 2.90629 10.2902 2.83598 10.1402 2.83598H9.99255V2.83832Z" fill="white"/>
<path d="M10.9934 5.09541L11.488 2.47972H11.9896L12.4865 5.09541H12.0342L11.9521 4.61727H11.4857L11.4083 5.09541H10.9911H10.9934ZM11.5443 4.2657H11.8959L11.7224 3.21568H11.7177L11.5443 4.2657Z" fill="white"/>
<path d="M12.6929 2.47972H13.3304C13.7711 2.47972 13.9164 2.68363 13.9164 3.05395V3.32115C13.9164 3.54147 13.8344 3.67975 13.6539 3.73835C13.8742 3.78757 13.9821 3.93523 13.9821 4.17429V4.52118C13.9821 4.8915 13.8156 5.09541 13.3773 5.09541H12.6952V2.47972H12.6929ZM13.1335 3.58365H13.2882C13.4312 3.58365 13.4969 3.511 13.4969 3.37037V3.04927C13.4969 2.90629 13.4312 2.83598 13.2836 2.83598H13.1335V3.58131V3.58365ZM13.1335 3.91882V4.73681H13.3257C13.4711 4.73681 13.5414 4.66415 13.5414 4.52352V4.12976C13.5414 3.99148 13.4758 3.91882 13.3211 3.91882H13.1312H13.1335Z" fill="white"/>
<path d="M14.1602 5.09541L14.6548 2.47972H15.1564L15.6533 5.09541H15.2009L15.1189 4.61727H14.6524L14.5751 5.09541H14.1578H14.1602ZM14.711 4.2657H15.0626L14.8892 3.21568H14.8845L14.711 4.2657Z" fill="white"/>
<path d="M15.8596 2.47972H16.3003V4.73681H16.8253V5.09541H15.862V2.47972H15.8596Z" fill="white"/>
<path d="M17.9175 3.94226H17.4933V5.09541H17.0526V2.47972H17.4933V3.586H17.9175V2.47972H18.3606V5.09541H17.9175V3.94226Z" fill="white"/>
<path d="M18.6372 4.42038V3.15472C18.6372 2.7469 18.8388 2.44923 19.3006 2.44923C19.7623 2.44923 19.9686 2.7469 19.9686 3.15472V4.42038C19.9686 4.82585 19.767 5.12586 19.3006 5.12586C18.8341 5.12586 18.6372 4.82585 18.6372 4.42038ZM19.5279 4.49069V3.08675C19.5279 2.92971 19.4576 2.81721 19.3006 2.81721C19.1435 2.81721 19.0779 2.92971 19.0779 3.08675V4.49069C19.0779 4.64773 19.1482 4.76023 19.3006 4.76023C19.4529 4.76023 19.5279 4.64773 19.5279 4.49069Z" fill="white"/>
<path d="M21.9937 3.18052V4.39227C21.9937 4.79306 21.8273 5.09541 21.3561 5.09541H20.6764V2.47972H21.3561C21.8273 2.47972 21.9937 2.77738 21.9937 3.18286V3.18052ZM21.3022 4.73446C21.4827 4.73446 21.553 4.62665 21.553 4.46727V3.09849C21.553 2.94379 21.4827 2.83598 21.3022 2.83598H21.1171V4.73446H21.3022Z" fill="white"/>
<path d="M22.2727 2.4797H23.3228V2.8383H22.7134V3.58598H23.1494V3.93989H22.7134V4.73444H23.3228V5.09304H22.2727V2.47736V2.4797Z" fill="white"/>
<path d="M23.5874 4.42043V3.15477C23.5874 2.74695 23.7796 2.44929 24.2437 2.44929C24.7289 2.44929 24.8649 2.71883 24.8649 3.10555V3.41494H24.4641V3.07274C24.4641 2.91102 24.4101 2.81727 24.2507 2.81727C24.0914 2.81727 24.0281 2.92977 24.0281 3.0868V4.49074C24.0281 4.64778 24.0937 4.76028 24.2507 4.76028C24.4078 4.76028 24.4641 4.6595 24.4641 4.50481V4.02198H24.8649V4.47434C24.8649 4.84935 24.7102 5.12592 24.2437 5.12592C23.7773 5.12592 23.5874 4.82591 23.5874 4.42043Z" fill="white"/>
<path d="M25.0454 2.4797H26.0955V2.8383H25.4861V3.58598H25.9221V3.93989H25.4861V4.73444H26.0955V5.09304H25.0454V2.47736V2.4797Z" fill="white"/>
<path d="M26.644 3.4524V5.09541H26.2737V2.47972H26.705L27.1785 3.97976V2.47972H27.5441V5.09541H27.1574L26.6417 3.4524H26.644Z" fill="white"/>
<path d="M27.6893 2.47972H28.859V2.83832H28.4957V5.09541H28.0526V2.83832H27.6893V2.47972Z" fill="white"/>
<path d="M29.0043 2.4797H30.0544V2.8383H29.4449V3.58598H29.8809V3.93989H29.4449V4.73444H30.0544V5.09304H29.0043V2.47736V2.4797Z" fill="white"/>
<path d="M8.00244 6.1196H9.05254V6.4782H8.44311V7.22588H8.87909V7.57979H8.44311V8.37434H9.05254V8.73294H8.00244V6.11726V6.1196Z" fill="white"/>
<path d="M9.60327 8.06028V6.79463C9.60327 6.38681 9.79548 6.08914 10.2596 6.08914C10.7448 6.08914 10.8807 6.35868 10.8807 6.74541V7.05479H10.4799V6.71259C10.4799 6.55087 10.426 6.45712 10.2666 6.45712C10.1072 6.45712 10.0439 6.56962 10.0439 6.72666V8.1306C10.0439 8.28763 10.1096 8.40014 10.2666 8.40014C10.4237 8.40014 10.4799 8.29935 10.4799 8.14466V7.66184H10.8807V8.11419C10.8807 8.4892 10.726 8.76577 10.2596 8.76577C9.79313 8.76577 9.60327 8.46576 9.60327 8.06028Z" fill="white"/>
<path d="M11.516 7.53529V8.73532H11.0753V6.11963H11.7152C12.1582 6.11963 12.32 6.33995 12.32 6.70558V7.04075C12.32 7.322 12.2192 7.48841 11.9684 7.54701L12.3879 8.73532H11.9238L11.5113 7.53529H11.516ZM11.516 6.47823V7.29153H11.6637C11.8137 7.29153 11.8793 7.21419 11.8793 7.0759V6.68917C11.8793 6.5462 11.8137 6.47589 11.6637 6.47589H11.516V6.47823Z" fill="white"/>
<path d="M12.5193 6.1196H13.5694V6.4782H12.96V7.22588H13.3959V7.57979H12.96V8.37434H13.5694V8.73294H12.5193V6.11726V6.1196Z" fill="white"/>
<path d="M13.7382 8.17279V7.82122H14.146V8.17982C14.146 8.32748 14.2116 8.41185 14.3617 8.41185C14.5 8.41185 14.5632 8.3181 14.5632 8.17982V8.07903C14.5632 7.92903 14.5023 7.83528 14.3663 7.70871L14.1085 7.45089C13.8577 7.20479 13.7428 7.05479 13.7428 6.75244V6.66337C13.7428 6.33993 13.9327 6.08914 14.3593 6.08914C14.7859 6.08914 14.9734 6.30477 14.9734 6.68213V6.89541H14.5726V6.66806C14.5726 6.51806 14.5023 6.4454 14.364 6.4454C14.2398 6.4454 14.1554 6.51571 14.1554 6.66103V6.71494C14.1554 6.8626 14.2374 6.94698 14.364 7.06885L14.6453 7.34777C14.8844 7.59152 14.9992 7.73684 14.9992 8.02747V8.15404C14.9992 8.51264 14.807 8.76811 14.3593 8.76811C13.9116 8.76811 13.7382 8.51733 13.7382 8.17513V8.17279Z" fill="white"/>
<path d="M15.1844 8.06028V6.79463C15.1844 6.38681 15.3767 6.08914 15.8408 6.08914C16.326 6.08914 16.4619 6.35868 16.4619 6.74541V7.05479H16.0611V6.71259C16.0611 6.55087 16.0072 6.45712 15.8501 6.45712C15.6931 6.45712 15.6275 6.56962 15.6275 6.72666V8.1306C15.6275 8.28763 15.6931 8.40014 15.8501 8.40014C16.0072 8.40014 16.0611 8.29935 16.0611 8.14466V7.66184H16.4619V8.11419C16.4619 8.4892 16.3072 8.76577 15.8408 8.76577C15.3743 8.76577 15.1844 8.46576 15.1844 8.06028Z" fill="white"/>
<path d="M16.6587 6.11963H17.0994V8.73532H16.6587V6.11963Z" fill="white"/>
<path d="M18.5175 7.0384H18.5058L18.2081 8.73532H18.0042L17.676 7.0384H17.669V8.73532H17.3057V6.11963H17.819L18.105 7.59388H18.1096L18.3651 6.11963H18.9207V8.73532H18.5198V7.0384H18.5175Z" fill="white"/>
<path d="M19.127 6.1196H20.1771V6.4782H19.5676V7.22588H20.0036V7.57979H19.5676V8.37434H20.1771V8.73294H19.127V6.11726V6.1196Z" fill="white"/>
<path d="M20.7372 7.09231V8.73532H20.3668V6.11963H20.7981L21.2716 7.61967V6.11963H21.6373V8.73532H21.2505L20.7348 7.09231H20.7372Z" fill="white"/>
<path d="M21.7968 6.11963H22.9664V6.47823H22.6031V8.73532H22.1601V6.47823H21.7968V6.11963Z" fill="white"/>
<path d="M23.1281 8.06028V6.79463C23.1281 6.38681 23.3296 6.08914 23.7914 6.08914C24.2532 6.08914 24.4594 6.38681 24.4594 6.79463V8.06028C24.4594 8.46576 24.2579 8.76577 23.7914 8.76577C23.3249 8.76577 23.1281 8.46576 23.1281 8.06028ZM24.0188 8.1306V6.72666C24.0188 6.56962 23.9484 6.45712 23.7914 6.45712C23.6344 6.45712 23.5687 6.56962 23.5687 6.72666V8.1306C23.5687 8.28763 23.639 8.40014 23.7914 8.40014C23.9438 8.40014 24.0188 8.28763 24.0188 8.1306Z" fill="white"/>
<path d="M8.00244 9.70101H9.05254V10.0596H8.44311V10.8073H8.87909V11.1612H8.44311V11.9557H9.05254V12.3144H8.00244V9.69866V9.70101Z" fill="white"/>
<path d="M9.22827 11.6417V10.376C9.22827 9.96821 9.42048 9.67055 9.88459 9.67055C10.3698 9.67055 10.5057 9.94009 10.5057 10.3268V10.6362H10.1049V10.294C10.1049 10.1323 10.051 10.0385 9.89396 10.0385C9.73692 10.0385 9.67128 10.151 9.67128 10.3081V11.712C9.67128 11.869 9.73692 11.9815 9.89396 11.9815C10.051 11.9815 10.1049 11.8808 10.1049 11.7261V11.2432H10.5057V11.6956C10.5057 12.0706 10.351 12.3472 9.88459 12.3472C9.41813 12.3472 9.22827 12.0472 9.22827 11.6417Z" fill="white"/>
<path d="M10.6863 11.6417V10.376C10.6863 9.96821 10.8879 9.67055 11.3496 9.67055C11.8114 9.67055 12.0177 9.96821 12.0177 10.376V11.6417C12.0177 12.0472 11.8161 12.3472 11.3496 12.3472C10.8832 12.3472 10.6863 12.0472 10.6863 11.6417ZM11.577 11.712V10.3081C11.577 10.151 11.5067 10.0385 11.3496 10.0385C11.1926 10.0385 11.1269 10.151 11.1269 10.3081V11.712C11.1269 11.869 11.1973 11.9815 11.3496 11.9815C11.502 11.9815 11.577 11.869 11.577 11.712Z" fill="white"/>
<path d="M12.5825 10.6737V12.3167H12.2122V9.70103H12.6435L13.1169 11.2011V9.70103H13.4826V12.3167H13.0958L12.5778 10.6737H12.5825Z" fill="white"/>
<path d="M13.6772 11.6417V10.376C13.6772 9.96819 13.8788 9.67052 14.3406 9.67052C14.8024 9.67052 15.0086 9.96819 15.0086 10.376V11.6417C15.0086 12.0471 14.807 12.3472 14.3406 12.3472C13.8741 12.3472 13.6772 12.0471 13.6772 11.6417ZM13.9656 9.6049V9.39161L14.2445 9.1877H14.4367L14.7156 9.39161V9.6049L14.3453 9.49239L13.9679 9.6049H13.9656ZM14.568 11.712V10.308C14.568 10.151 14.4976 10.0385 14.3406 10.0385C14.1835 10.0385 14.1179 10.151 14.1179 10.308V11.712C14.1179 11.869 14.1882 11.9815 14.3406 11.9815C14.493 11.9815 14.568 11.869 14.568 11.712Z" fill="white"/>
<path d="M16.4125 10.6198H16.4008L16.1031 12.3167H15.8992L15.571 10.6198H15.564V12.3167H15.2007V9.70103H15.714L16 11.1753H16.0047L16.2602 9.70103H16.8157V12.3167H16.4149V10.6198H16.4125Z" fill="white"/>
<path d="M17.0056 9.70103H17.4463V12.3167H17.0056V9.70103Z" fill="white"/>
<path d="M17.6432 11.6417V10.376C17.6432 9.96821 17.8354 9.67055 18.2995 9.67055C18.7847 9.67055 18.9207 9.94009 18.9207 10.3268V10.6362H18.5198V10.294C18.5198 10.1323 18.4659 10.0385 18.3065 10.0385C18.1471 10.0385 18.0839 10.151 18.0839 10.3081V11.712C18.0839 11.869 18.1495 11.9815 18.3065 11.9815C18.4636 11.9815 18.5198 11.8808 18.5198 11.7261V11.2432H18.9207V11.6956C18.9207 12.0706 18.766 12.3472 18.2995 12.3472C17.8331 12.3472 17.6432 12.0472 17.6432 11.6417Z" fill="white"/>
<path d="M19.1011 11.6417V10.376C19.1011 9.96821 19.3027 9.67055 19.7644 9.67055C20.2262 9.67055 20.4325 9.96821 20.4325 10.376V11.6417C20.4325 12.0472 20.2309 12.3472 19.7644 12.3472C19.298 12.3472 19.1011 12.0472 19.1011 11.6417ZM19.9918 11.712V10.3081C19.9918 10.151 19.9215 10.0385 19.7644 10.0385C19.6074 10.0385 19.5417 10.151 19.5417 10.3081V11.712C19.5417 11.869 19.6121 11.9815 19.7644 11.9815C19.9168 11.9815 19.9918 11.869 19.9918 11.712Z" fill="white"/>
</g>
<defs>
<clipPath id="clip0_4014_93527">
<rect width="32" height="32" rx="4" fill="white"/>
</clipPath>
</defs>
</svg>
