<svg width="32" height="32" viewBox="0 0 32 32" fill="none" xmlns="http://www.w3.org/2000/svg">
<g clip-path="url(#clip0_4014_93528)">
<path d="M32 0H0V32H32V0Z" fill="#E46930"/>
<path d="M5.86227 4.30554C5.86227 3.30708 5.42395 2.58519 4.28243 2.58519C3.14091 2.58519 2.68384 3.21333 2.68384 4.21179V5.16338C2.68384 6.21809 3.10107 6.75248 3.88161 6.75248C4.33869 6.75248 4.61293 6.54388 4.77467 6.22981H4.78404V7.61734C4.78404 8.00642 4.63168 8.28299 4.24258 8.28299C3.85348 8.28299 3.7105 8.05564 3.7105 7.65485V7.22827H2.72134V7.57047C2.72134 8.52205 3.06356 9.1877 4.26368 9.1877C5.4638 9.1877 5.86227 8.45643 5.86227 7.44625V4.30789V4.30554ZM4.78639 5.29463C4.76764 5.65558 4.61528 5.88527 4.27306 5.88527C3.90271 5.88527 3.75972 5.65792 3.75972 5.23838V4.1157C3.75972 3.70787 3.91208 3.46881 4.28243 3.46881C4.65278 3.46881 4.78639 3.7149 4.78639 4.1157V5.29463Z" fill="white"/>
<path d="M24.1757 21.031L20.3714 18.8348V14.4425C20.3714 14.3488 20.3222 14.2644 20.2425 14.2175L16.3093 11.9464C16.2296 11.8995 16.1312 11.8995 16.0491 11.9464L12.1159 14.2175C12.0363 14.2644 11.987 14.3488 11.987 14.4425V18.8348L8.18275 21.031C8.10306 21.0778 8.05383 21.1622 8.05383 21.256V25.7983C8.05383 25.892 8.10306 25.9764 8.18275 26.0233L12.1159 28.2944C12.1558 28.3178 12.2003 28.3296 12.2449 28.3296C12.2894 28.3296 12.3339 28.3178 12.3738 28.2944L16.1781 26.0983L19.9823 28.2944C20.0222 28.3178 20.0667 28.3296 20.1113 28.3296C20.1558 28.3296 20.2003 28.3178 20.2402 28.2944L24.1734 26.0233C24.2531 25.9764 24.3023 25.892 24.3023 25.7983V21.256C24.3023 21.1622 24.2531 21.0778 24.1734 21.031M15.9179 25.3482L12.7629 23.5271L15.9179 21.706V25.3482ZM19.5909 18.9848L16.4359 20.8059V17.1637L19.5909 18.9848ZM15.9179 20.8059L12.7629 18.9848L15.9179 17.1637V20.8059ZM16.6961 21.256L20.1089 19.2848L23.5241 21.256L20.1089 23.2271L16.6961 21.256ZM19.8511 18.5371L16.6961 16.716L19.8511 14.8949V18.5371ZM15.6577 16.716L12.5027 18.5371V14.8949L15.6577 16.716ZM11.9847 27.6194L8.56951 25.6483V21.706L11.9847 23.6771V27.6194ZM12.5027 27.6194V23.9771L15.6577 25.7983L12.5027 27.6194ZM23.7843 25.6483L20.3691 27.6194V23.6771L23.7843 21.706V25.6483Z" fill="white"/>
<path d="M7.55237 2.73286H7.97194V5.22667H7.55237V2.73286Z" fill="white"/>
<path d="M8.51105 3.65866V5.22667H8.1571V2.73286H8.56965L9.02203 4.16492V2.73286H9.37129V5.22667H9.00328L8.51105 3.65866Z" fill="white"/>
<path d="M10.8104 3.40084V4.55634C10.8104 4.93838 10.6534 5.22667 10.2033 5.22667H9.5564V2.73286H10.2033C10.651 2.73286 10.8104 3.01646 10.8104 3.40319V3.40084ZM10.1518 4.88447C10.3252 4.88447 10.3909 4.78134 10.3909 4.63134V3.32584C10.3909 3.17818 10.3252 3.07505 10.1518 3.07505H9.97597V4.88447H10.1518Z" fill="white"/>
<path d="M12.2122 2.73285V4.61962C12.2122 5.00634 12.0457 5.25713 11.6191 5.25713C11.1925 5.25713 10.9933 5.00634 10.9933 4.61962V2.73285H11.4129V4.6618C11.4129 4.80946 11.4715 4.9079 11.6191 4.9079C11.7668 4.9079 11.8254 4.80946 11.8254 4.6618V2.73285H12.2122ZM11.9543 2.55707L11.2957 2.64144V2.40706L11.9543 2.26643V2.55707Z" fill="white"/>
<path d="M12.3738 4.68993V4.35477H12.7629V4.69697C12.7629 4.83759 12.8262 4.91728 12.9692 4.91728C13.1004 4.91728 13.1614 4.82822 13.1614 4.69697V4.60087C13.1614 4.4579 13.1028 4.36883 12.9738 4.24695L12.7277 4.00085C12.4886 3.76647 12.3785 3.62116 12.3785 3.33521V3.25084C12.3785 2.94145 12.559 2.70238 12.9668 2.70238C13.3747 2.70238 13.5528 2.90864 13.5528 3.26959V3.47115H13.1707V3.25318C13.1707 3.11021 13.1051 3.03989 12.9715 3.03989C12.8543 3.03989 12.7723 3.10552 12.7723 3.24615V3.29771C12.7723 3.43834 12.8496 3.51803 12.9715 3.63522L13.2411 3.90007C13.4684 4.13211 13.5786 4.27274 13.5786 4.54696V4.66884C13.5786 5.01104 13.3958 5.25479 12.9692 5.25479C12.5425 5.25479 12.3761 5.01572 12.3761 4.68759L12.3738 4.68993Z" fill="white"/>
<path d="M13.6044 2.73287H14.7178V3.07507H14.3709V5.22668H13.9466V3.07507H13.6021V2.73287H13.6044Z" fill="white"/>
<path d="M15.2781 4.08291V5.22668H14.8585V2.73287H15.4703C15.8922 2.73287 16.0469 2.94381 16.0469 3.29304V3.61414C16.0469 3.88368 15.9508 4.04072 15.7117 4.09697L16.1125 5.22903H15.6719L15.2781 4.08525V4.08291ZM15.2781 3.07507V3.85087H15.4187C15.5617 3.85087 15.625 3.77821 15.625 3.64461V3.27664C15.625 3.14069 15.5617 3.07507 15.4187 3.07507H15.2781Z" fill="white"/>
<path d="M16.1266 2.73284H16.5462V5.22665H16.1266V2.73284Z" fill="white"/>
<path d="M16.668 5.22665L17.1391 2.73284H17.6173L18.0908 5.22665H17.6595L17.5821 4.76961H17.1368L17.0641 5.22665H16.668ZM17.193 4.43445H17.5282L17.3618 3.43364H17.3571L17.1907 4.43445H17.193Z" fill="white"/>
<path d="M18.6393 4.8587L18.426 5.42121H18.1917L18.2432 4.82588H18.6393V4.8587Z" fill="white"/>
<path d="M19.1549 2.73284H19.5745V5.22665H19.1549V2.73284Z" fill="white"/>
<path d="M20.1137 3.65865V5.22665H19.7598V2.73284H20.1723L20.6247 4.16491V2.73284H20.9739V5.22665H20.6059L20.1137 3.65865Z" fill="white"/>
<path d="M21.1591 4.58216V3.3751C21.1591 2.98603 21.3513 2.70243 21.7919 2.70243C22.2326 2.70243 22.4272 2.98603 22.4272 3.3751V4.58216C22.4272 4.96889 22.2349 5.25484 21.7919 5.25484C21.3489 5.25484 21.1591 4.96889 21.1591 4.58216ZM22.0076 4.64779V3.30948C22.0076 3.15947 21.9419 3.05166 21.7896 3.05166C21.6372 3.05166 21.5763 3.15947 21.5763 3.30948V4.64779C21.5763 4.79779 21.6419 4.90561 21.7896 4.90561C21.9373 4.90561 22.0076 4.79779 22.0076 4.64779Z" fill="white"/>
<path d="M23.9554 2.73284L23.482 5.22665H23.0249L22.5514 2.73284H22.978L23.264 4.47195H23.2686L23.564 2.73284H23.9578H23.9554Z" fill="white"/>
<path d="M24.007 5.22665L24.4781 2.73284H24.9563L25.4298 5.22665H24.9985L24.9211 4.76961H24.4758L24.4031 5.22665H24.007ZM24.532 4.43445H24.8672L24.7008 3.43364H24.6961L24.5297 4.43445H24.532Z" fill="white"/>
<path d="M25.9924 5.47984C26.1096 5.47515 26.1283 5.44937 26.1283 5.42125C26.1283 5.39547 26.1072 5.3814 26.0697 5.3814H26.051V5.24546C25.6947 5.20093 25.547 4.93374 25.547 4.58216V3.3751C25.547 2.98603 25.7298 2.70243 26.1728 2.70243C26.6369 2.70243 26.7659 2.96025 26.7659 3.32823V3.62355H26.3838V3.29541C26.3838 3.14072 26.3322 3.05166 26.1822 3.05166C26.0322 3.05166 25.9689 3.15947 25.9689 3.30948V4.64779C25.9689 4.79779 26.0322 4.90561 26.1822 4.90561C26.3322 4.90561 26.3838 4.80951 26.3838 4.66185V4.20247H26.7659V4.63373C26.7659 4.98296 26.6252 5.24077 26.2103 5.25484V5.28765C26.3088 5.30171 26.365 5.33921 26.365 5.42125C26.365 5.53609 26.2572 5.59703 25.9947 5.59703V5.47984H25.9924Z" fill="white"/>
<path d="M26.8713 5.22668L27.3425 2.73287H27.8206L28.2941 5.22668H27.8628L27.7855 4.76964H27.3401L27.2675 5.22668H26.8713ZM27.1995 2.63208C27.2065 2.45864 27.2722 2.32036 27.4573 2.32036C27.5652 2.32036 27.6519 2.38364 27.7081 2.38364C27.7386 2.38364 27.7597 2.36489 27.7597 2.32739H27.966C27.9589 2.50083 27.8933 2.63912 27.7081 2.63912C27.6027 2.63912 27.5136 2.57583 27.4573 2.57583C27.4269 2.57583 27.4058 2.59458 27.4058 2.63208H27.1995ZM27.3987 4.43447H27.7339L27.5675 3.43367H27.5628L27.3964 4.43447H27.3987Z" fill="white"/>
<path d="M28.4137 4.58216V3.3751C28.4137 2.98603 28.6059 2.70243 29.0466 2.70243C29.4872 2.70243 29.6818 2.98603 29.6818 3.3751V4.58216C29.6818 4.96889 29.4896 5.25484 29.0466 5.25484C28.6036 5.25484 28.4137 4.96889 28.4137 4.58216ZM29.2622 4.64779V3.30948C29.2622 3.15947 29.1966 3.05166 29.0442 3.05166C28.8919 3.05166 28.8309 3.15947 28.8309 3.30948V4.64779C28.8309 4.79779 28.8966 4.90561 29.0442 4.90561C29.1919 4.90561 29.2622 4.79779 29.2622 4.64779Z" fill="white"/>
<path d="M7.55237 6.57678H8.55325V6.91898H7.97194V7.63384H8.38682V7.97135H7.97194V8.7284H8.55325V9.07059H7.55237V6.57678Z" fill="white"/>
<path d="M9.1228 6.57678H9.54238V9.07059H9.1228V6.57678Z" fill="white"/>
<path d="M10.119 7.50259V9.07059H9.76501V6.57678H10.1776L10.6299 8.00885V6.57678H10.9792V9.07059H10.6112L10.119 7.50259Z" fill="white"/>
<path d="M11.2019 6.57678H12.184V6.91898H11.6215V7.63384H12.041V7.97135H11.6215V9.07059H11.2019V6.57678Z" fill="white"/>
<path d="M12.7676 7.92682V9.07059H12.348V6.57678H12.9575C13.3817 6.57678 13.5341 6.78538 13.5341 7.13695V7.45805C13.5341 7.72759 13.438 7.88463 13.1989 7.94088L13.5997 9.07294H13.159L12.7653 7.92916L12.7676 7.92682ZM12.7676 6.91898V7.69478H12.9082C13.0512 7.69478 13.1145 7.62212 13.1145 7.48852V7.12055C13.1145 6.9846 13.0512 6.91898 12.9082 6.91898H12.7676Z" fill="white"/>
<path d="M13.6771 9.07059L14.1483 6.57678H14.6265L15.0999 9.07059H14.6687L14.5913 8.61355H14.1459L14.0733 9.07059H13.6748H13.6771ZM14.2022 8.27839H14.5374L14.371 7.27758H14.3663L14.1999 8.27839H14.2022Z" fill="white"/>
<path d="M15.2546 6.57678H16.2555V6.91898H15.6742V7.63384H16.0891V7.97135H15.6742V8.7284H16.2555V9.07059H15.2546V6.57678Z" fill="white"/>
<path d="M16.4359 8.53384V8.19868H16.825V8.54087C16.825 8.6815 16.8883 8.76119 17.0313 8.76119C17.1625 8.76119 17.2235 8.67213 17.2235 8.54087V8.44478C17.2235 8.30181 17.1649 8.21274 17.036 8.09086L16.7899 7.84476C16.5508 7.61038 16.4406 7.46507 16.4406 7.17912V7.09475C16.4406 6.78536 16.6211 6.5463 17.0289 6.5463C17.4368 6.5463 17.6149 6.75255 17.6149 7.1135V7.31506H17.2329V7.09709C17.2329 6.95412 17.1672 6.8838 17.0336 6.8838C16.9164 6.8838 16.8344 6.94943 16.8344 7.09006V7.14162C16.8344 7.28225 16.9117 7.36194 17.0336 7.47913L17.3032 7.74398C17.5306 7.97602 17.6407 8.11665 17.6407 8.39087V8.51275C17.6407 8.85495 17.4579 9.0987 17.0313 9.0987C16.6047 9.0987 16.4383 8.85963 16.4383 8.5315L16.4359 8.53384Z" fill="white"/>
<path d="M17.7885 6.57678H18.9042V6.91898H18.5573V9.07059H18.1354V6.91898H17.7885V6.57678Z" fill="white"/>
<path d="M19.4995 7.92682V9.07059H19.08V6.57678H19.6894C20.1113 6.57678 20.266 6.78538 20.266 7.13695V7.45805C20.266 7.72759 20.1699 7.88463 19.9308 7.94088L20.3316 9.07294H19.891L19.4972 7.92916L19.4995 7.92682ZM19.4995 6.91898V7.69478H19.6402C19.7831 7.69478 19.8464 7.62212 19.8464 7.48852V7.12055C19.8464 6.9846 19.7831 6.91898 19.6402 6.91898H19.4995Z" fill="white"/>
<path d="M21.6936 6.57678V8.46355C21.6936 8.85028 21.5272 9.09872 21.1006 9.09872C20.674 9.09872 20.4747 8.84793 20.4747 8.46355V6.57678H20.8943V8.50574C20.8943 8.6534 20.9529 8.75184 21.1006 8.75184C21.2482 8.75184 21.3068 8.6534 21.3068 8.50574V6.57678H21.6936Z" fill="white"/>
<path d="M21.8623 6.57678H22.9757V6.91898H22.6311V9.07059H22.2092V6.91898H21.8623V6.57678Z" fill="white"/>
<path d="M24.3704 6.57678V8.46355C24.3704 8.85028 24.2039 9.09872 23.7773 9.09872C23.3507 9.09872 23.1515 8.84793 23.1515 8.46355V6.57678H23.5711V8.50574C23.5711 8.6534 23.6297 8.75184 23.7773 8.75184C23.925 8.75184 23.9836 8.6534 23.9836 8.50574V6.57678H24.3704Z" fill="white"/>
<path d="M25.008 7.92682V9.07059H24.5884V6.57678H25.2002C25.6221 6.57678 25.7768 6.78538 25.7768 7.13695V7.45805C25.7768 7.72759 25.6807 7.88463 25.4416 7.94088L25.8424 9.07294H25.4017L25.008 7.92916V7.92682ZM25.008 6.91898V7.69478H25.1486C25.2916 7.69478 25.3549 7.62212 25.3549 7.48852V7.12055C25.3549 6.9846 25.2916 6.91898 25.1486 6.91898H25.008Z" fill="white"/>
<path d="M25.9198 9.07059L26.3909 6.57678H26.8691L27.3426 9.07059H26.9113L26.834 8.61355H26.3886L26.3159 9.07059H25.9198ZM26.4449 8.27839H26.78L26.6136 7.27758H26.6089L26.4425 8.27839H26.4449Z" fill="white"/>
</g>
<defs>
<clipPath id="clip0_4014_93528">
<rect width="32" height="32" rx="4" fill="white"/>
</clipPath>
</defs>
</svg>
