<svg width="316" height="114" viewBox="0 0 316 114" fill="none" xmlns="http://www.w3.org/2000/svg">
<g clip-path="url(#clip0_4036_7687)">
<path d="M50.6105 96.0515C75.9086 96.0515 96.4167 75.6251 96.4167 50.4279C96.4167 25.2306 75.9086 4.8042 50.6105 4.8042C25.3124 4.8042 4.8042 25.2306 4.8042 50.4279C4.8042 75.6251 25.3124 96.0515 50.6105 96.0515Z" fill="#BDD7A9"/>
<path d="M122.927 41.6644H112.965C112.241 41.6644 111.63 41.0535 111.63 40.3354C111.63 39.5594 112.244 39.0063 112.965 39.0063H135.781C136.505 39.0063 137.115 39.5594 137.115 40.3354C137.115 41.0563 136.502 41.6644 135.781 41.6644H125.819V76.6918C125.819 77.4677 125.206 78.1886 124.371 78.1886C123.537 78.1886 122.924 77.4677 122.924 76.6918V41.6644H122.927Z" fill="#010000"/>
<path d="M142.068 39.9996C142.068 39.2236 142.624 38.6128 143.461 38.6128C144.24 38.6128 144.853 39.2236 144.853 39.9996V54.0766C146.635 50.9178 150.027 48.9779 154.257 48.9779C160.768 48.9779 165.887 53.5235 165.887 61.6709V76.7467C165.887 77.5226 165.274 78.1885 164.495 78.1885C163.716 78.1885 163.103 77.5226 163.103 76.7467V61.6159C163.103 54.9103 159.097 51.5286 153.978 51.5286C148.859 51.5286 144.853 54.8553 144.853 61.6159V76.7467C144.853 77.5226 144.24 78.1885 143.461 78.1885C142.626 78.1885 142.068 77.5226 142.068 76.7467V39.9996Z" fill="#010000"/>
<path d="M173.286 43.1034C173.286 41.9945 174.12 41.1636 175.233 41.1636C176.347 41.1636 177.181 41.9945 177.181 43.1034C177.181 44.2123 176.291 45.0433 175.233 45.0433C174.12 45.0433 173.286 44.1573 173.286 43.1034ZM173.844 50.5299C173.844 49.754 174.399 49.1431 175.236 49.1431C176.015 49.1431 176.628 49.754 176.628 50.5299V76.7468C176.628 77.5227 176.015 78.1886 175.236 78.1886C174.402 78.1886 173.844 77.5227 173.844 76.7468V50.5299Z" fill="#010000"/>
<path d="M184.582 61.671C184.582 53.5236 189.869 48.978 196.491 48.978C203.113 48.978 208.4 53.5236 208.4 61.671V76.7468C208.4 77.5227 207.787 78.1886 207.008 78.1886C206.229 78.1886 205.616 77.5227 205.616 76.7468V61.616C205.616 54.9654 201.61 51.5287 196.491 51.5287C191.372 51.5287 187.366 54.9654 187.366 61.616V76.7468C187.366 77.5227 186.753 78.1886 185.974 78.1886C185.14 78.1886 184.582 77.5227 184.582 76.7468V61.671Z" fill="#010000"/>
<path d="M216.357 39.9996C216.357 39.2236 216.912 38.6128 217.749 38.6128C218.528 38.6128 219.142 39.2236 219.142 39.9996V76.7467C219.142 77.5226 218.528 78.1885 217.749 78.1885C216.915 78.1885 216.357 77.5226 216.357 76.7467V39.9996ZM221.476 64.3317C221.252 64.0537 221.086 63.6107 221.086 63.2228C221.086 62.8898 221.252 62.4468 221.476 62.1689L232.048 49.6438C232.327 49.3659 232.604 49.1458 233.051 49.1458C233.775 49.1458 234.386 49.6988 234.386 50.4198C234.386 50.6977 234.275 51.0306 234.051 51.3058L224.089 63.11L234.83 75.8579C235.054 76.1359 235.22 76.4688 235.22 76.799C235.22 77.5199 234.496 78.1858 233.772 78.1858C233.383 78.1858 232.993 78.0207 232.714 77.6327L221.473 64.3317H221.476Z" fill="#010000"/>
<path d="M238.336 69.0422C238.336 68.2663 238.949 67.6554 239.784 67.6554C240.563 67.6554 241.063 68.1534 241.176 68.8193C241.4 71.9781 244.626 75.5799 249.745 75.5799C254.864 75.5799 258.315 71.7552 258.315 67.8755C258.315 62.3889 253.806 60.4491 250.803 59.6731L248.077 58.9522C244.905 58.0662 238.783 55.8485 238.783 48.6421C238.783 42.7125 243.347 38.4448 249.856 38.4448C256.365 38.4448 260.873 42.7125 260.873 47.6461C260.873 48.422 260.26 49.0328 259.425 49.0328C258.591 49.0328 258.146 48.4798 258.033 47.8139C257.809 44.545 254.917 41.1634 249.853 41.1634C244.789 41.1634 241.728 44.8202 241.728 48.8127C241.728 54.2993 246.958 55.9062 249.464 56.5721L251.966 57.238C255.083 58.069 261.205 60.1767 261.205 68.0461C261.205 73.5328 256.365 78.3562 249.743 78.3562C243.121 78.3562 238.336 73.6456 238.336 69.045V69.0422Z" fill="#010000"/>
<path d="M268.274 50.5299C268.274 49.7539 268.829 49.1431 269.666 49.1431C270.445 49.1431 271.059 49.7539 271.059 50.5299V65.6607C271.059 72.3663 275.12 75.803 280.183 75.803C285.247 75.803 289.308 72.3663 289.308 65.6607V50.5299C289.308 49.7539 289.921 49.1431 290.701 49.1431C291.48 49.1431 292.093 49.7539 292.093 50.5299V65.6057C292.093 73.753 286.863 78.3537 280.183 78.3537C273.503 78.3537 268.274 73.753 268.274 65.6057V50.5299Z" fill="#010000"/>
<path d="M299.991 70.0961C300.491 70.0961 301.049 70.429 301.215 71.0371C301.494 73.365 303.441 75.8579 307.113 75.8579C310.563 75.8579 312.732 73.365 312.732 70.7592C312.732 67.4326 310.34 65.8257 307.055 64.7168C302.936 63.3878 299.041 61.8909 299.041 56.6244C299.041 52.2467 302.381 48.9751 307.165 48.9751C311.95 48.9751 315.345 51.9138 315.345 55.9035C315.345 56.6244 314.79 57.1775 314.066 57.1775C313.622 57.1775 313.008 56.8996 312.842 56.1237C312.619 53.7408 310.671 51.413 307.165 51.413C303.66 51.413 301.712 53.8509 301.712 56.6217C301.712 60.2235 304.718 61.5002 308.5 62.6641C312.061 63.718 315.511 65.8229 315.511 70.7014C315.511 74.7462 311.95 78.3508 307.107 78.3508C302.265 78.3508 298.704 75.0241 298.704 71.3673C298.704 70.6464 299.259 70.0933 299.983 70.0933L299.991 70.0961Z" fill="#010000"/>
<g opacity="0.96">
<path d="M35.8334 14.4897C35.8334 14.4897 79.6976 35.198 55.7101 71.5544C55.7101 71.5544 15.8821 62.2486 35.8334 14.4897Z" fill="#8EBF67"/>
</g>
<path d="M32.0129 111.064L31.2422 109.906C34.4495 107.793 45.3313 100.031 50.6244 88.9417C63.1251 62.7606 44.6711 35.4651 43.8782 34.3177L45.0302 33.5308C45.58 34.3287 50.5001 41.6396 53.6826 52.1698C55.4976 58.1765 56.3982 64.0924 56.3568 69.7496C56.307 76.7716 54.8014 83.4304 51.8842 89.5388C46.4364 100.95 35.2949 108.899 32.0102 111.064H32.0129Z" fill="black"/>
<path d="M50.917 91.4344L49.5938 90.9942C50.6021 87.9895 59.1108 72.7953 65.4537 67.6334C68.918 64.813 73.0701 62.7329 77.4599 61.6157L77.8052 62.964C73.6116 64.0316 69.6445 66.0182 66.3377 68.7093C60.3015 73.6208 51.8673 88.6031 50.917 91.4344Z" fill="black"/>
<path d="M81.4077 64.6977C83.7039 64.6977 85.5654 62.8437 85.5654 60.5566C85.5654 58.2696 83.7039 56.4155 81.4077 56.4155C79.1115 56.4155 77.25 58.2696 77.25 60.5566C77.25 62.8437 79.1115 64.6977 81.4077 64.6977Z" fill="#A8CF8C"/>
<path d="M81.4104 65.3939C81.159 65.3939 80.9048 65.3746 80.6479 65.3333C79.3661 65.1325 78.2417 64.4446 77.4792 63.399C76.7168 62.3534 76.4073 61.0767 76.6118 59.7999C76.8134 58.5232 77.5041 57.4033 78.5539 56.6439C79.6036 55.8845 80.8855 55.579 82.1673 55.7799C84.8111 56.1981 86.6234 58.6773 86.2034 61.3106C85.825 63.6879 83.7558 65.3911 81.4104 65.3911V65.3939ZM81.3993 57.1117C80.6755 57.1117 79.9711 57.3373 79.3744 57.772C78.6257 58.3141 78.1367 59.1121 77.9903 60.0201C77.8466 60.9281 78.0649 61.8388 78.6091 62.5845C79.1533 63.3302 79.9545 63.8172 80.8661 63.9631C82.7502 64.2602 84.5266 62.9752 84.8249 61.0987C85.1233 59.2221 83.8332 57.4529 81.9491 57.1557C81.7667 57.1254 81.5817 57.1117 81.4021 57.1117H81.3993Z" fill="black"/>
<path d="M30.9077 77.8003C33.2039 77.8003 35.0654 75.9462 35.0654 73.6592C35.0654 71.3721 33.2039 69.5181 30.9077 69.5181C28.6115 69.5181 26.75 71.3721 26.75 73.6592C26.75 75.9462 28.6115 77.8003 30.9077 77.8003Z" fill="#A8CF8C"/>
<path d="M30.9188 78.494C30.6647 78.494 30.405 78.4747 30.1508 78.4334C28.869 78.2326 27.7446 77.5447 26.9822 76.4991C26.2197 75.4535 25.9103 74.1768 26.1147 72.9C26.3164 71.6233 27.007 70.5034 28.0568 69.744C29.1066 68.9846 30.3884 68.6791 31.6702 68.88C32.9521 69.0809 34.0765 69.7688 34.8389 70.8144C35.6014 71.8599 35.9108 73.1367 35.7064 74.4134C35.5047 75.6901 34.8141 76.81 33.7643 77.5694C32.9245 78.1775 31.9382 78.494 30.9216 78.494H30.9188ZM30.9023 70.2118C30.1785 70.2118 29.474 70.4374 28.8773 70.8721C28.1286 71.4142 27.6397 72.2121 27.4932 73.1202C27.3496 74.0282 27.5678 74.9389 28.1121 75.6846C28.6563 76.4303 29.4574 76.9173 30.3691 77.0632C31.2835 77.2062 32.1951 76.9889 32.9438 76.4468C33.6925 75.9047 34.1814 75.1068 34.3278 74.1988C34.6262 72.3222 33.3361 70.553 31.452 70.2558C31.2697 70.2255 31.0846 70.2118 30.905 70.2118H30.9023Z" fill="black"/>
<path d="M42.0907 34.6312C41.8365 34.6312 41.5796 34.6119 41.3227 34.5706C40.0409 34.3698 38.9165 33.6819 38.154 32.6363C37.3916 31.5907 37.0822 30.314 37.2866 29.0372C37.4883 27.7605 38.1789 26.6406 39.2287 25.8812C40.2785 25.1218 41.5603 24.8163 42.8421 25.0172C44.124 25.2181 45.2483 25.906 46.0108 26.9516C46.7733 27.9972 47.0827 29.2739 46.8782 30.5506C46.6766 31.8273 45.9859 32.9472 44.9362 33.7066C44.0963 34.3147 43.1101 34.6312 42.0935 34.6312H42.0907ZM42.0714 26.3462C41.3476 26.3462 40.6431 26.5718 40.0464 27.0066C39.2977 27.5487 38.8088 28.3466 38.6623 29.2546C38.5187 30.1626 38.7369 31.0734 39.2812 31.8191C39.8254 32.5648 40.6265 33.0518 41.5382 33.1976C42.4498 33.3407 43.3642 33.1233 44.1129 32.5813C44.8616 32.0392 45.3505 31.2412 45.497 30.3332C45.6406 29.4252 45.4224 28.5145 44.8781 27.7688C44.3339 27.0231 43.5328 26.5361 42.6211 26.3902C42.4388 26.36 42.2537 26.3462 42.0741 26.3462H42.0714Z" fill="black"/>
<path d="M30.0704 112.971C31.0545 112.971 31.8523 112.176 31.8523 111.196C31.8523 110.216 31.0545 109.421 30.0704 109.421C29.0863 109.421 28.2886 110.216 28.2886 111.196C28.2886 112.176 29.0863 112.971 30.0704 112.971Z" fill="#3B7931"/>
<path d="M30.0704 113.494C28.7996 113.494 27.7637 112.464 27.7637 111.196C27.7637 109.928 28.7969 108.898 30.0704 108.898C31.344 108.898 32.3772 109.928 32.3772 111.196C32.3772 112.464 31.344 113.494 30.0704 113.494ZM30.0704 109.944C29.377 109.944 28.8107 110.505 28.8107 111.199C28.8107 111.892 29.3743 112.453 30.0704 112.453C30.7666 112.453 31.3302 111.892 31.3302 111.199C31.3302 110.505 30.7666 109.944 30.0704 109.944Z" fill="black"/>
<path d="M42.0796 33.935C44.3758 33.935 46.2372 32.081 46.2372 29.7939C46.2372 27.5069 44.3758 25.6528 42.0796 25.6528C39.7833 25.6528 37.9219 27.5069 37.9219 29.7939C37.9219 32.081 39.7833 33.935 42.0796 33.935Z" fill="#3B7931"/>
<path d="M42.0877 34.4548C41.8419 34.4548 41.5932 34.4356 41.3474 34.3971C38.7975 33.9953 37.0516 31.6015 37.4549 29.0645C37.8582 26.5248 40.2589 24.7859 42.8088 25.1876C45.3586 25.5893 47.1046 27.9832 46.6985 30.5201C46.5023 31.7501 45.8393 32.8314 44.8282 33.5633C44.0188 34.1494 43.0685 34.4548 42.0877 34.4548ZM42.0767 26.1726C40.3225 26.1726 38.7727 27.4466 38.4909 29.2269C38.1787 31.197 39.5324 33.0543 41.5131 33.368C42.4717 33.5193 43.4331 33.2882 44.2177 32.7214C45.0023 32.1518 45.5189 31.3153 45.6708 30.3605C45.983 28.3904 44.6293 26.5331 42.6513 26.2194C42.4607 26.1892 42.2701 26.1754 42.0822 26.1754L42.0767 26.1726Z" fill="black"/>
<path d="M53.8343 99.9671C53.4696 99.9671 53.163 99.6864 53.1381 99.3177C53.1132 98.9353 53.4033 98.6023 53.7873 98.5776C66.0504 97.7548 77.4515 92.37 85.894 83.4164C94.3751 74.4216 99.0494 62.6697 99.0576 50.3234C99.0659 37.3966 94.0215 25.2401 84.8497 16.0912C75.6807 6.94776 63.4812 1.90689 50.5026 1.89864H50.4695C37.5019 1.89864 25.3107 6.92299 16.1362 16.0499C6.9506 25.1824 1.8868 37.3333 1.87851 50.2601C1.8647 72.2671 16.7605 91.5336 38.1069 97.1082C38.4799 97.2045 38.7036 97.5842 38.6042 97.9557C38.5047 98.3272 38.1235 98.5473 37.7533 98.451C15.7936 92.7195 0.466836 72.9 0.483412 50.2601C0.4917 36.9618 5.69916 24.4615 15.1472 15.0649C24.5869 5.67653 37.129 0.506348 50.4667 0.506348H50.5026C63.8541 0.514602 76.4045 5.7013 85.8387 15.1116C95.2729 24.522 100.464 37.0278 100.456 50.3261C100.447 63.0274 95.6376 75.1177 86.9134 84.3685C78.2278 93.578 66.4979 99.1169 53.884 99.9643C53.8674 99.9643 53.8508 99.9643 53.837 99.9643L53.8343 99.9671Z" fill="black"/>
<path d="M50.8758 91.5307L49.6326 90.8979C49.6575 90.8483 52.1355 85.8873 49.7348 81.6058C47.6712 77.9242 42.6903 75.7368 34.9302 75.0984L35.0462 73.7144C43.3063 74.3912 48.6602 76.8236 50.9614 80.94C53.7185 85.879 50.9946 91.3023 50.8758 91.5307Z" fill="black"/>
<path d="M56.0277 72.3415L55.5525 72.2314C55.3978 72.1956 51.6766 71.3096 47.0438 68.7149C42.7618 66.3183 36.8803 61.9516 33.1812 54.7535C27.7196 44.1242 28.3964 30.4902 35.1896 14.223L35.4713 13.5488L36.1344 13.8625C36.3498 13.9643 41.4938 16.416 47.3421 21.1294C52.7595 25.4961 59.7793 32.697 62.4534 42.1926C65.1248 51.6855 63.0557 61.6929 56.2984 71.9342L56.0304 72.3415H56.0277ZM36.1924 15.4474C29.8302 31.013 29.2335 44.0196 34.4243 54.1206C40.5158 65.9744 52.8507 70.0274 55.4061 70.7538C61.7131 61.0105 63.633 51.5287 61.1108 42.5696C58.5361 33.4261 51.7263 26.4509 46.4664 22.2107C41.9385 18.5622 37.767 16.2619 36.1951 15.4474H36.1924Z" fill="#1D1D1B"/>
</g>
<defs>
<clipPath id="clip0_4036_7687">
<rect width="316" height="114" fill="white"/>
</clipPath>
</defs>
</svg>
