<svg width="180" height="65" viewBox="0 0 180 65" fill="none" xmlns="http://www.w3.org/2000/svg">
<g clip-path="url(#clip0_4036_7734)">
<path d="M70.0214 23.7558H64.347C63.9347 23.7558 63.5869 23.4075 63.5869 22.998C63.5869 22.5556 63.9363 22.2402 64.347 22.2402H77.3435C77.7558 22.2402 78.1035 22.5556 78.1035 22.998C78.1035 23.409 77.7542 23.7558 77.3435 23.7558H71.669V43.7275C71.669 44.17 71.3197 44.581 70.8444 44.581C70.3692 44.581 70.0199 44.17 70.0199 43.7275V23.7558H70.0214Z" fill="white"/>
<path d="M80.9253 22.8063C80.9253 22.3639 81.2416 22.0156 81.7184 22.0156C82.1622 22.0156 82.5115 22.3639 82.5115 22.8063V30.8327C83.5265 29.0316 85.4589 27.9256 87.8681 27.9256C91.5771 27.9256 94.493 30.5174 94.493 35.1628V43.7586C94.493 44.2011 94.1437 44.5807 93.6999 44.5807C93.2562 44.5807 92.9068 44.2011 92.9068 43.7586V35.1314C92.9068 31.3081 90.6251 29.3799 87.7092 29.3799C84.7932 29.3799 82.5115 31.2767 82.5115 35.1314V43.7586C82.5115 44.2011 82.1622 44.5807 81.7184 44.5807C81.2432 44.5807 80.9253 44.2011 80.9253 43.7586V22.8063Z" fill="white"/>
<path d="M98.707 24.5758C98.707 23.9435 99.1823 23.4697 99.8164 23.4697C100.451 23.4697 100.926 23.9435 100.926 24.5758C100.926 25.208 100.419 25.6818 99.8164 25.6818C99.1823 25.6818 98.707 25.1767 98.707 24.5758ZM99.0249 28.8102C99.0249 28.3677 99.3412 28.0195 99.818 28.0195C100.262 28.0195 100.611 28.3677 100.611 28.8102V43.7584C100.611 44.2008 100.262 44.5805 99.818 44.5805C99.3428 44.5805 99.0249 44.2008 99.0249 43.7584V28.8102Z" fill="white"/>
<path d="M105.142 35.163C105.142 30.5176 108.154 27.9258 111.925 27.9258C115.697 27.9258 118.709 30.5176 118.709 35.163V43.7589C118.709 44.2013 118.36 44.5809 117.916 44.5809C117.472 44.5809 117.123 44.2013 117.123 43.7589V35.1316C117.123 31.3396 114.841 29.3801 111.925 29.3801C109.01 29.3801 106.728 31.3396 106.728 35.1316V43.7589C106.728 44.2013 106.378 44.5809 105.935 44.5809C105.459 44.5809 105.142 44.2013 105.142 43.7589V35.163Z" fill="white"/>
<path d="M123.241 22.8063C123.241 22.3639 123.558 22.0156 124.034 22.0156C124.478 22.0156 124.827 22.3639 124.827 22.8063V43.7586C124.827 44.2011 124.478 44.5807 124.034 44.5807C123.559 44.5807 123.241 44.2011 123.241 43.7586V22.8063ZM126.157 36.6799C126.03 36.5214 125.935 36.2688 125.935 36.0476C125.935 35.8578 126.03 35.6052 126.157 35.4468L132.179 28.3052C132.338 28.1468 132.496 28.0213 132.751 28.0213C133.163 28.0213 133.511 28.3366 133.511 28.7477C133.511 28.9061 133.448 29.096 133.32 29.2528L127.646 35.9833L133.764 43.2519C133.891 43.4104 133.986 43.6002 133.986 43.7884C133.986 44.1995 133.574 44.5792 133.161 44.5792C132.939 44.5792 132.718 44.485 132.559 44.2638L126.156 36.6799H126.157Z" fill="white"/>
<path d="M135.761 39.3658C135.761 38.9234 136.11 38.5751 136.585 38.5751C137.029 38.5751 137.314 38.8591 137.378 39.2387C137.506 41.0398 139.344 43.0934 142.26 43.0934C145.176 43.0934 147.141 40.9127 147.141 38.7006C147.141 35.5723 144.573 34.4662 142.862 34.0238L141.309 33.6127C139.503 33.1076 136.016 31.843 136.016 27.7342C136.016 24.3532 138.615 21.9199 142.323 21.9199C146.03 21.9199 148.598 24.3532 148.598 27.1662C148.598 27.6087 148.249 27.9569 147.774 27.9569C147.299 27.9569 147.045 27.6416 146.981 27.2619C146.853 25.3981 145.206 23.47 142.321 23.47C139.437 23.47 137.693 25.555 137.693 27.8314C137.693 30.9598 140.672 31.876 142.099 32.2557L143.525 32.6353C145.3 33.1091 148.787 34.3109 148.787 38.7979C148.787 41.9262 146.03 44.6764 142.258 44.6764C138.486 44.6764 135.761 41.9905 135.761 39.3674V39.3658Z" fill="white"/>
<path d="M152.814 28.8102C152.814 28.3678 153.131 28.0195 153.608 28.0195C154.051 28.0195 154.401 28.3678 154.401 28.8102V37.4375C154.401 41.2608 156.714 43.2203 159.598 43.2203C162.483 43.2203 164.796 41.2608 164.796 37.4375V28.8102C164.796 28.3678 165.145 28.0195 165.589 28.0195C166.033 28.0195 166.382 28.3678 166.382 28.8102V37.4061C166.382 42.0515 163.403 44.6747 159.598 44.6747C155.793 44.6747 152.814 42.0515 152.814 37.4061V28.8102Z" fill="white"/>
<path d="M170.881 39.9665C171.166 39.9665 171.483 40.1563 171.578 40.5031C171.737 41.8303 172.846 43.2517 174.938 43.2517C176.903 43.2517 178.138 41.8303 178.138 40.3446C178.138 38.4478 176.776 37.5316 174.905 36.8994C172.558 36.1416 170.339 35.2881 170.339 32.2853C170.339 29.7892 172.242 27.9238 174.967 27.9238C177.693 27.9238 179.627 29.5994 179.627 31.8743C179.627 32.2853 179.311 32.6006 178.898 32.6006C178.645 32.6006 178.296 32.4422 178.201 31.9998C178.074 30.6411 176.964 29.3139 174.967 29.3139C172.971 29.3139 171.861 30.7039 171.861 32.2837C171.861 34.3374 173.573 35.0653 175.728 35.729C177.756 36.3299 179.721 37.53 179.721 40.3117C179.721 42.6179 177.693 44.6731 174.934 44.6731C172.176 44.6731 170.147 42.7764 170.147 40.6913C170.147 40.2803 170.464 39.9649 170.876 39.9649L170.881 39.9665Z" fill="white"/>
<path d="M18.2349 63.3259L17.7959 62.6654C19.6229 61.4605 25.8214 57.0347 28.8364 50.7121C35.957 35.7843 25.4453 20.2211 24.9936 19.5669L25.6498 19.1182C25.963 19.5731 28.7656 23.7416 30.5784 29.7457C31.6123 33.1706 32.1253 36.5436 32.1017 39.7692C32.0733 43.773 31.2157 47.5697 29.554 51.0526C26.4508 57.5587 20.1044 62.0912 18.2334 63.3259H18.2349Z" fill="white"/>
<path d="M29.0033 52.1337L28.2495 51.8827C28.8239 50.1695 33.6706 41.5062 37.2837 38.563C39.257 36.9549 41.6221 35.7688 44.1226 35.1318L44.3193 35.9006C41.9306 36.5093 39.6708 37.642 37.7872 39.1764C34.3489 41.9768 29.5446 50.5193 29.0033 52.1337Z" fill="white"/>
<path d="M46.3729 37.2855C46.2297 37.2855 46.0849 37.2745 45.9386 37.251C45.2084 37.1364 44.5679 36.7442 44.1336 36.1481C43.6993 35.5519 43.5231 34.8239 43.6395 34.096C43.7544 33.368 44.1478 32.7295 44.7458 32.2965C45.3437 31.8635 46.0739 31.6893 46.8041 31.8038C48.31 32.0423 49.3423 33.4559 49.1031 34.9573C48.8875 36.3128 47.7089 37.2839 46.3729 37.2839V37.2855ZM46.3666 32.5632C45.9543 32.5632 45.553 32.6918 45.2131 32.9397C44.7867 33.2488 44.5082 33.7038 44.4248 34.2215C44.3429 34.7392 44.4672 35.2585 44.7772 35.6837C45.0872 36.1088 45.5436 36.3865 46.0629 36.4697C47.1361 36.6391 48.1479 35.9065 48.3179 34.8365C48.4878 33.7665 47.753 32.7577 46.6797 32.5883C46.5759 32.571 46.4705 32.5632 46.3682 32.5632H46.3666Z" fill="white"/>
<path d="M17.6119 44.7552C17.4671 44.7552 17.3192 44.7442 17.1744 44.7207C16.4443 44.6062 15.8038 44.214 15.3695 43.6178C14.9352 43.0216 14.7589 42.2937 14.8754 41.5657C14.9902 40.8377 15.3836 40.1992 15.9816 39.7662C16.5796 39.3332 17.3097 39.159 18.0399 39.2736C18.7701 39.3881 19.4105 39.7803 19.8448 40.3765C20.2792 40.9727 20.4554 41.7006 20.339 42.4286C20.2241 43.1565 19.8307 43.7951 19.2327 44.2281C18.7543 44.5748 18.1925 44.7552 17.6135 44.7552H17.6119ZM17.6024 40.0329C17.1902 40.0329 16.7889 40.1616 16.449 40.4094C16.0225 40.7185 15.744 41.1735 15.6606 41.6912C15.5788 42.2089 15.7031 42.7282 16.0131 43.1534C16.3231 43.5786 16.7794 43.8563 17.2987 43.9394C17.8196 44.021 18.3389 43.897 18.7653 43.588C19.1918 43.2789 19.4703 42.8239 19.5537 42.3062C19.7237 41.2362 18.9888 40.2274 17.9156 40.058C17.8117 40.0408 17.7063 40.0329 17.604 40.0329H17.6024Z" fill="white"/>
<path d="M23.9756 19.7455C23.8309 19.7455 23.6845 19.7345 23.5382 19.7109C22.808 19.5964 22.1676 19.2042 21.7332 18.608C21.2989 18.0118 21.1227 17.2839 21.2391 16.5559C21.354 15.828 21.7474 15.1894 22.3454 14.7564C22.9434 14.3234 23.6735 14.1493 24.4037 14.2638C25.1338 14.3783 25.7743 14.7706 26.2086 15.3667C26.6429 15.9629 26.8192 16.6909 26.7027 17.4188C26.5879 18.1468 26.1945 18.7853 25.5965 19.2183C25.1181 19.565 24.5563 19.7455 23.9772 19.7455H23.9756ZM23.9646 15.0216C23.5523 15.0216 23.1511 15.1502 22.8112 15.3981C22.3847 15.7072 22.1062 16.1621 22.0228 16.6799C21.941 17.1976 22.0653 17.7169 22.3753 18.1421C22.6853 18.5672 23.1416 18.8449 23.6609 18.9281C24.1802 19.0096 24.7011 18.8857 25.1275 18.5766C25.554 18.2676 25.8325 17.8126 25.9159 17.2949C25.9978 16.7771 25.8734 16.2578 25.5634 15.8327C25.2534 15.4075 24.7971 15.1298 24.2778 15.0467C24.1739 15.0294 24.0685 15.0216 23.9662 15.0216H23.9646Z" fill="white"/>
<g filter="url(#filter0_d_4036_7734)">
<path d="M17.1289 64.7118C16.405 64.7118 15.8149 64.1251 15.8149 63.4018C15.8149 62.6786 16.4035 62.0918 17.1289 62.0918C17.8544 62.0918 18.4429 62.6786 18.4429 63.4018C18.4429 64.1251 17.8544 64.7118 17.1289 64.7118ZM17.1289 62.688C16.7339 62.688 16.4113 63.008 16.4113 63.4034C16.4113 63.7987 16.7324 64.1188 17.1289 64.1188C17.5255 64.1188 17.8465 63.7987 17.8465 63.4034C17.8465 63.008 17.5255 62.688 17.1289 62.688Z" fill="white"/>
</g>
<path d="M23.9742 19.645C23.8342 19.645 23.6925 19.634 23.5525 19.612C22.1 19.383 21.1055 18.0181 21.3352 16.5716C21.565 15.1235 22.9325 14.132 24.3849 14.361C25.8374 14.5901 26.8319 15.955 26.6006 17.4015C26.4888 18.1028 26.1112 18.7194 25.5352 19.1367C25.0742 19.4708 24.5328 19.645 23.9742 19.645ZM23.9679 14.9227C22.9687 14.9227 22.0859 15.6491 21.9254 16.6641C21.7475 17.7874 22.5186 18.8464 23.6469 19.0253C24.1929 19.1116 24.7406 18.9798 25.1875 18.6566C25.6344 18.3318 25.9286 17.8549 26.0152 17.3105C26.193 16.1872 25.4219 15.1282 24.2952 14.9494C24.1866 14.9321 24.0781 14.9242 23.9711 14.9242L23.9679 14.9227Z" fill="white"/>
<path d="M30.6651 56.9991C30.4574 56.9991 30.2827 56.8391 30.2686 56.6289C30.2544 56.4108 30.4196 56.221 30.6384 56.2069C37.6237 55.7378 44.118 52.6675 48.927 47.5624C53.758 42.4337 56.4206 35.7331 56.4253 28.6935C56.43 21.323 53.5566 14.3917 48.3322 9.17516C43.1093 3.9618 36.1602 1.08762 28.7673 1.08291H28.7485C21.3619 1.08291 14.4175 3.94768 9.19152 9.15163C3.95924 14.3587 1.0748 21.2869 1.07008 28.6574C1.06221 41.2053 9.54716 52.1905 21.7065 55.3691C21.919 55.424 22.0464 55.6405 21.9898 55.8523C21.9331 56.0641 21.716 56.1896 21.5051 56.1347C8.9964 52.8667 0.265957 41.5661 0.275398 28.6574C0.280119 21.0751 3.24639 13.9477 8.62817 8.58997C14.0052 3.23698 21.1495 0.289062 28.7469 0.289062H28.7673C36.3726 0.293769 43.5216 3.2511 48.8955 8.61664C54.2694 13.9822 57.2262 21.1127 57.2215 28.6951C57.2168 35.937 54.4771 42.8306 49.5076 48.1052C44.5602 53.3562 37.8786 56.5144 30.6935 56.9976C30.684 56.9976 30.6746 56.9976 30.6667 56.9976L30.6651 56.9991Z" fill="white"/>
<path d="M28.9799 52.1887L28.2718 51.8279C28.2859 51.7997 29.6975 48.971 28.33 46.5298C27.1545 44.4306 24.3173 43.1834 19.897 42.8194L19.9631 42.0303C24.6682 42.4162 27.7179 43.8031 29.0287 46.1501C30.5992 48.9663 29.0476 52.0585 28.9799 52.1887Z" fill="white"/>
<path d="M31.9147 41.2477L31.644 41.185C31.5559 41.1646 29.4362 40.6594 26.7973 39.1799C24.3582 37.8134 21.0079 35.3236 18.9009 31.2195C15.7898 25.1589 16.1753 17.3851 20.0449 8.10996L20.2054 7.72559L20.5831 7.90444C20.7058 7.96249 23.6359 9.36035 26.9672 12.0478C30.0531 14.5376 34.0517 18.6434 35.5749 24.0576C37.0966 29.4702 35.918 35.1762 32.0689 41.0155L31.9163 41.2477H31.9147ZM20.6161 8.80811C16.9921 17.6832 16.6522 25.0993 19.609 30.8586C23.0788 37.6173 30.105 39.9283 31.5606 40.3425C35.1532 34.7871 36.2469 29.3807 34.8101 24.2725C33.3435 19.0591 29.4646 15.082 26.4684 12.6644C23.8892 10.5841 21.5131 9.27249 20.6177 8.80811H20.6161Z" fill="white"/>
</g>
<defs>
<filter id="filter0_d_4036_7734" x="11.8149" y="62.0918" width="10.6279" height="10.6201" filterUnits="userSpaceOnUse" color-interpolation-filters="sRGB">
<feFlood flood-opacity="0" result="BackgroundImageFix"/>
<feColorMatrix in="SourceAlpha" type="matrix" values="0 0 0 0 0 0 0 0 0 0 0 0 0 0 0 0 0 0 127 0" result="hardAlpha"/>
<feOffset dy="4"/>
<feGaussianBlur stdDeviation="2"/>
<feComposite in2="hardAlpha" operator="out"/>
<feColorMatrix type="matrix" values="0 0 0 0 0 0 0 0 0 0 0 0 0 0 0 0 0 0 0.25 0"/>
<feBlend mode="normal" in2="BackgroundImageFix" result="effect1_dropShadow_4036_7734"/>
<feBlend mode="normal" in="SourceGraphic" in2="effect1_dropShadow_4036_7734" result="shape"/>
</filter>
<clipPath id="clip0_4036_7734">
<rect width="180" height="65" fill="white"/>
</clipPath>
</defs>
</svg>
